<svg width="17" height="16" viewBox="0 0 17 16" fill="none" xmlns="http://www.w3.org/2000/svg">
<path opacity="0.5" d="M14.5716 9.30957H2.42871V14.5715C2.42871 15.0187 2.79097 15.381 3.23823 15.381H13.762C14.2093 15.381 14.5716 15.0187 14.5716 14.5715V9.30957Z" fill="#DD3646"/>
<path d="M14.5716 4.45238V9.30952H2.42871V0.809524C2.42871 0.362262 2.79097 0 3.23823 0H10.1192L14.5716 4.45238Z" fill="#93D3A2"/>
<path d="M10.1191 0V3.64286C10.1191 4.09012 10.4814 4.45238 10.9287 4.45238H14.5715L10.1191 0Z" fill="#28A745"/>
<path d="M12.345 6.47603H4.65453C4.54282 6.47603 4.45215 6.38536 4.45215 6.27365V5.86888C4.45215 5.75717 4.54282 5.6665 4.65453 5.6665H12.345C12.4567 5.6665 12.5474 5.75717 12.5474 5.86888V6.27365C12.5474 6.38536 12.4567 6.47603 12.345 6.47603Z" fill="#EAF6EC"/>
<path d="M12.345 8.09517H4.65453C4.54282 8.09517 4.45215 8.0045 4.45215 7.89279V7.48803C4.45215 7.37631 4.54282 7.28564 4.65453 7.28564H12.345C12.4567 7.28564 12.5474 7.37631 12.5474 7.48803V7.89279C12.5474 8.0045 12.4567 8.09517 12.345 8.09517Z" fill="#EAF6EC"/>
<path d="M16.5952 9.71431H0.404762C0.180929 9.71431 0 9.53338 0 9.30955C0 9.08571 0.180929 8.90479 0.404762 8.90479H16.5952C16.8191 8.90479 17 9.08571 17 9.30955C17 9.53338 16.8191 9.71431 16.5952 9.71431Z" fill="#DD3646"/>
</svg>
