<svg width="113" height="127" viewBox="0 0 113 127" fill="none" xmlns="http://www.w3.org/2000/svg">
<path d="M10.5827 112.818H9.06143V120.295H8.96697L3.78658 112.818H2.3647V123H3.90092V115.533H3.99538L9.17081 123H10.5827V112.818ZM15.921 123.154C18.0737 123.154 19.4806 121.578 19.4806 119.217C19.4806 116.84 18.0737 115.264 15.921 115.264C13.7683 115.264 12.3613 116.84 12.3613 119.217C12.3613 121.578 13.7683 123.154 15.921 123.154ZM15.926 121.906C14.519 121.906 13.8627 120.678 13.8627 119.212C13.8627 117.75 14.519 116.507 15.926 116.507C17.323 116.507 17.9792 117.75 17.9792 119.212C17.9792 120.678 17.323 121.906 15.926 121.906ZM25.8244 123L26.7591 120.305H30.7363L31.666 123H33.2967L29.6326 112.818H27.8578L24.1937 123H25.8244ZM27.2065 119.013L28.7079 114.668H28.7875L30.2889 119.013H27.2065ZM37.7413 123.154C39.546 123.154 40.7143 122.07 40.8784 120.584H39.4316C39.2427 121.409 38.6014 121.896 37.7512 121.896C36.4934 121.896 35.6831 120.847 35.6831 119.182C35.6831 117.546 36.5083 116.517 37.7512 116.517C38.6958 116.517 39.2725 117.114 39.4316 117.83H40.8784C40.7193 116.288 39.4615 115.264 37.7264 115.264C35.5737 115.264 34.1816 116.885 34.1816 119.217C34.1816 121.518 35.524 123.154 37.7413 123.154ZM46.0327 115.364H44.4666V113.534H42.9801V115.364H41.8615V116.557H42.9801V121.066C42.9751 122.453 44.0341 123.124 45.2074 123.099C45.6797 123.094 45.9979 123.005 46.1719 122.94L45.9034 121.712C45.804 121.732 45.62 121.777 45.3814 121.777C44.8991 121.777 44.4666 121.618 44.4666 120.758V116.557H46.0327V115.364ZM47.677 123H49.1635V115.364H47.677V123ZM48.4277 114.185C48.9398 114.185 49.3674 113.788 49.3674 113.3C49.3674 112.813 48.9398 112.411 48.4277 112.411C47.9107 112.411 47.4881 112.813 47.4881 113.3C47.4881 113.788 47.9107 114.185 48.4277 114.185ZM57.696 115.364H56.1001L54.1712 121.24H54.0916L52.1577 115.364H50.5618L53.3359 123H54.9268L57.696 115.364ZM59.093 123H60.5795V115.364H59.093V123ZM59.8438 114.185C60.3558 114.185 60.7834 113.788 60.7834 113.3C60.7834 112.813 60.3558 112.411 59.8438 112.411C59.3267 112.411 58.9041 112.813 58.9041 113.3C58.9041 113.788 59.3267 114.185 59.8438 114.185ZM66.144 115.364H64.5779V113.534H63.0914V115.364H61.9728V116.557H63.0914V121.066C63.0865 122.453 64.1454 123.124 65.3187 123.099C65.791 123.094 66.1092 123.005 66.2832 122.94L66.0147 121.712C65.9153 121.732 65.7314 121.777 65.4927 121.777C65.0105 121.777 64.5779 121.618 64.5779 120.758V116.557H66.144V115.364ZM67.7884 123H69.2749V115.364H67.7884V123ZM68.5391 114.185C69.0511 114.185 69.4787 113.788 69.4787 113.3C69.4787 112.813 69.0511 112.411 68.5391 112.411C68.022 112.411 67.5994 112.813 67.5994 113.3C67.5994 113.788 68.022 114.185 68.5391 114.185ZM74.5659 123.154C76.2314 123.154 77.4096 122.334 77.7477 121.091L76.3407 120.837C76.0723 121.558 75.426 121.926 74.5808 121.926C73.3081 121.926 72.4529 121.101 72.4132 119.629H77.8422V119.102C77.8422 116.343 76.1916 115.264 74.4615 115.264C72.3336 115.264 70.9316 116.885 70.9316 119.232C70.9316 121.603 72.3137 123.154 74.5659 123.154ZM72.4181 118.516C72.4778 117.432 73.2633 116.492 74.4714 116.492C75.6248 116.492 76.3805 117.347 76.3855 118.516H72.4181ZM85.2138 117.228C84.9055 116.04 83.9759 115.264 82.3253 115.264C80.6001 115.264 79.3771 116.174 79.3771 117.526C79.3771 118.61 80.0334 119.331 81.4652 119.649L82.7578 119.933C83.4936 120.097 83.8366 120.425 83.8366 120.902C83.8366 121.494 83.2053 121.956 82.2308 121.956C81.3409 121.956 80.7692 121.573 80.5902 120.822L79.1534 121.041C79.402 122.393 80.5256 123.154 82.2408 123.154C84.0852 123.154 85.3629 122.175 85.3629 120.793C85.3629 119.714 84.6768 119.048 83.2749 118.724L82.0618 118.446C81.2216 118.247 80.8587 117.964 80.8636 117.447C80.8587 116.86 81.495 116.442 82.3402 116.442C83.2649 116.442 83.6925 116.955 83.8665 117.467L85.2138 117.228ZM91.642 125.864C92.87 125.864 93.6456 125.222 94.0881 124.019L97.245 115.379L95.6392 115.364L93.7053 121.29H93.6257L91.6918 115.364H90.1009L92.8949 123.099L92.7109 123.607C92.3331 124.621 91.8011 124.705 90.9858 124.482L90.6278 125.7C90.8068 125.779 91.1946 125.864 91.642 125.864ZM101.664 123.154C103.329 123.154 104.507 122.334 104.845 121.091L103.438 120.837C103.17 121.558 102.524 121.926 101.678 121.926C100.406 121.926 99.5506 121.101 99.5108 119.629H104.94V119.102C104.94 116.343 103.289 115.264 101.559 115.264C99.4313 115.264 98.0293 116.885 98.0293 119.232C98.0293 121.603 99.4114 123.154 101.664 123.154ZM99.5158 118.516C99.5755 117.432 100.361 116.492 101.569 116.492C102.722 116.492 103.478 117.347 103.483 118.516H99.5158ZM110.154 115.364H108.588V113.534H107.101V115.364H105.983V116.557H107.101V121.066C107.096 122.453 108.155 123.124 109.328 123.099C109.801 123.094 110.119 123.005 110.293 122.94L110.025 121.712C109.925 121.732 109.741 121.777 109.502 121.777C109.02 121.777 108.588 121.618 108.588 120.758V116.557H110.154V115.364Z" fill="#5F6368"/>
<rect y="3" width="113" height="93" rx="4" fill="#F3F8FF"/>
<path d="M93.3341 56.374C93.6331 55.76 93.8971 55.115 94.1261 54.439C96.7481 46.7 92.7831 37.431 84.4331 35.194C83.5301 23.856 75.5631 16.079 66.5661 14.752C56.2681 13.233 46.8331 19.775 43.6941 30.174C39.9101 28.834 36.2231 28.997 32.7491 31.027C31.1731 31.756 29.7311 32.832 28.4371 34.247C26.5371 36.324 25.3031 38.947 24.8001 41.712C24.0551 41.829 23.3231 41.947 22.6331 42.194C18.6101 43.637 16.0711 46.607 15.3751 51.08C14.9411 53.865 15.8161 56.644 16.3041 57.767C18.2311 62.203 22.7001 64.719 27.2401 64.053C27.4661 64.02 27.7941 64.122 27.9891 64.285C28.2291 71.376 31.6721 77.647 36.8371 81.229C45.1241 86.977 55.7861 85.206 62.5121 77.324C65.3941 80.272 68.8251 81.704 72.8541 81.184C76.8601 80.667 79.9711 78.456 82.2411 74.862C83.2891 75.144 84.2841 75.551 85.3121 75.663C89.3371 76.103 92.6061 74.502 95.0041 70.883C95.9221 69.498 96.7901 67.702 96.7901 64.555C96.7901 61.31 95.5021 58.355 93.3341 56.374Z" fill="#E7F1FF"/>
<path d="M81.4877 49.772C81.4877 49.772 93.1307 49.772 93.2017 49.772C95.8907 49.772 98.0697 47.592 98.0697 44.903C98.0697 42.557 96.4107 40.6 94.2017 40.138C94.2267 39.933 94.2447 39.725 94.2447 39.513C94.2447 36.728 91.9877 34.471 89.2027 34.471C87.5587 34.471 86.1027 35.262 85.1827 36.479C84.9477 33.379 82.1787 30.988 78.9387 31.384C76.5697 31.674 74.6107 33.505 74.1747 35.851C74.0347 36.603 74.0497 37.334 74.1887 38.019C73.5537 37.335 72.6497 36.904 71.6427 36.904C69.7997 36.904 68.2957 38.339 68.1767 40.152C67.3397 39.967 66.4297 39.979 65.4707 40.339C63.6387 41.027 62.3337 42.752 62.2567 44.708C62.1487 47.486 64.3677 49.772 67.1207 49.772C67.3297 49.772 68.0647 49.772 68.2347 49.772H78.3437" fill="white"/>
<path d="M93.2022 50.2721H81.4882C81.2122 50.2721 80.9882 50.0481 80.9882 49.7721C80.9882 49.4961 81.2122 49.2721 81.4882 49.2721H93.2022C95.6112 49.2721 97.5712 47.3121 97.5712 44.9031C97.5712 42.8461 96.1122 41.0481 94.1012 40.6281C93.8462 40.5751 93.6752 40.3361 93.7072 40.0771C93.7302 39.8921 93.7462 39.7041 93.7462 39.5131C93.7462 37.0081 91.7082 34.9711 89.2042 34.9711C87.7722 34.9711 86.4522 35.6311 85.5822 36.7811C85.4572 36.9481 85.2442 37.0181 85.0422 36.9591C84.8432 36.9001 84.7002 36.7251 84.6852 36.5181C84.5812 35.1471 83.9102 33.8591 82.8432 32.9851C81.7662 32.1021 80.4012 31.7121 79.0002 31.8811C76.8442 32.1451 75.0622 33.8151 74.6672 35.9431C74.5432 36.6081 74.5482 37.2741 74.6792 37.9211C74.7242 38.1401 74.6172 38.3631 74.4182 38.4651C74.2202 38.5671 73.9752 38.5251 73.8232 38.3611C73.2512 37.7451 72.4772 37.4061 71.6432 37.4061C70.0822 37.4061 68.7792 38.6271 68.6762 40.1861C68.6662 40.3321 68.5932 40.4661 68.4772 40.5531C68.3602 40.6401 68.2102 40.6711 68.0692 40.6411C67.2322 40.4551 66.4392 40.5101 65.6472 40.8081C63.9862 41.4321 62.8252 43.0071 62.7572 44.7281C62.7102 45.9301 63.1422 47.0671 63.9732 47.9321C64.8052 48.7971 65.9232 49.2731 67.1222 49.2731H78.3452C78.6212 49.2731 78.8452 49.4971 78.8452 49.7731C78.8452 50.0491 78.6212 50.2731 78.3452 50.2731H67.1222C65.6482 50.2731 64.2742 49.6881 63.2522 48.6251C62.2312 47.5631 61.7002 46.1651 61.7582 44.6891C61.8412 42.5711 63.2622 40.6351 65.2952 39.8721C66.0922 39.5731 66.9172 39.4721 67.7522 39.5741C68.1282 37.7591 69.7432 36.4061 71.6432 36.4061C72.3242 36.4061 72.9902 36.5841 73.5772 36.9121C73.5772 36.5301 73.6122 36.1451 73.6832 35.7611C74.1572 33.2081 76.2932 31.2051 78.8782 30.8891C80.5502 30.6811 82.1852 31.1541 83.4762 32.2121C84.4752 33.0311 85.1842 34.1531 85.5052 35.3901C86.5132 34.4791 87.8152 33.9721 89.2022 33.9721C92.2582 33.9721 94.7442 36.4581 94.7442 39.5141C94.7442 39.5971 94.7422 39.6791 94.7372 39.7601C96.9822 40.4301 98.5692 42.5271 98.5692 44.9041C98.5712 47.8641 96.1622 50.2721 93.2022 50.2721Z" fill="#9AA0A6"/>
<path d="M78.6673 39.048C76.8663 38.93 75.3163 40.174 75.2053 41.826C75.1913 42.031 75.2003 42.233 75.2303 42.43C74.8833 42.038 74.3683 41.771 73.7783 41.733C72.6983 41.662 71.7653 42.376 71.6293 43.346C71.4323 43.292 71.2283 43.256 71.0153 43.242C69.4393 43.139 68.0833 44.227 67.9863 45.673" fill="#FDFCEF"/>
<path d="M67.9869 45.921C67.9809 45.921 67.9749 45.921 67.9699 45.921C67.8319 45.912 67.7279 45.793 67.7369 45.655C67.8429 44.074 69.3249 42.88 71.0319 42.991C71.1669 43 71.3029 43.018 71.4379 43.044C71.7119 42.081 72.6989 41.414 73.7939 41.482C74.2169 41.51 74.6129 41.641 74.9519 41.862C74.9519 41.844 74.9539 41.826 74.9549 41.808C75.0749 40.021 76.7409 38.679 78.6829 38.797C78.8209 38.806 78.9249 38.925 78.9159 39.063C78.9069 39.2 78.7909 39.305 78.6499 39.296C76.9819 39.178 75.5549 40.329 75.4539 41.841C75.4409 42.024 75.4489 42.209 75.4769 42.39C75.4939 42.5 75.4359 42.607 75.3359 42.654C75.2369 42.703 75.1159 42.677 75.0429 42.594C74.7209 42.231 74.2659 42.013 73.7619 41.98C72.8219 41.915 71.9939 42.532 71.8769 43.378C71.8669 43.449 71.8269 43.512 71.7669 43.552C71.7069 43.592 71.6329 43.603 71.5639 43.585C71.3749 43.534 71.1849 43.502 70.9989 43.489C69.5549 43.383 68.3229 44.381 68.2359 45.687C68.2269 45.82 68.1169 45.921 67.9869 45.921Z" fill="#472B29"/>
<path d="M95.1726 40.71C93.4806 39.912 91.5236 40.477 90.8016 41.972C90.7116 42.158 90.6456 42.349 90.6016 42.543" fill="#FDFCEF"/>
<path d="M90.602 42.7919C90.584 42.7919 90.565 42.7899 90.546 42.7859C90.411 42.7549 90.327 42.6209 90.358 42.4869C90.408 42.2699 90.481 42.0599 90.577 41.8629C91.357 40.2479 93.468 39.6299 95.279 40.4839C95.404 40.5429 95.458 40.6919 95.399 40.8169C95.34 40.9429 95.19 40.9949 95.066 40.9369C93.5 40.1989 91.689 40.7119 91.027 42.0819C90.948 42.2459 90.887 42.4199 90.845 42.5999C90.82 42.7139 90.717 42.7919 90.602 42.7919Z" fill="#BDC1C6"/>
<path d="M23.2878 48.444H13.2988C13.0228 48.444 12.7988 48.22 12.7988 47.944C12.7988 47.668 13.0228 47.444 13.2988 47.444H23.2878C23.5638 47.444 23.7878 47.668 23.7878 47.944C23.7878 48.22 23.5638 48.444 23.2878 48.444ZM26.1568 48.444H24.7168C24.4408 48.444 24.2168 48.22 24.2168 47.944C24.2168 47.668 24.4408 47.444 24.7168 47.444H26.1568C26.4328 47.444 26.6568 47.668 26.6568 47.944C26.6568 48.22 26.4328 48.444 26.1568 48.444ZM30.1948 48.444H27.6598C27.3838 48.444 27.1598 48.22 27.1598 47.944C27.1598 47.668 27.3838 47.444 27.6598 47.444H30.1958C30.4718 47.444 30.6958 47.668 30.6958 47.944C30.6958 48.22 30.4718 48.444 30.1948 48.444ZM30.1948 50.301H20.6178C20.3418 50.301 20.1178 50.077 20.1178 49.801C20.1178 49.525 20.3418 49.301 20.6178 49.301H30.1948C30.4708 49.301 30.6948 49.525 30.6948 49.801C30.6948 50.077 30.4718 50.301 30.1948 50.301ZM18.8938 50.301H18.3158C18.0398 50.301 17.8158 50.077 17.8158 49.801C17.8158 49.525 18.0398 49.301 18.3158 49.301H18.8938C19.1698 49.301 19.3938 49.525 19.3938 49.801C19.3938 50.077 19.1698 50.301 18.8938 50.301ZM16.5268 50.301H15.0768C14.8008 50.301 14.5768 50.077 14.5768 49.801C14.5768 49.525 14.8008 49.301 15.0768 49.301H16.5268C16.8028 49.301 17.0268 49.525 17.0268 49.801C17.0268 50.077 16.8028 50.301 16.5268 50.301ZM25.6248 46.587H20.6178C20.3418 46.587 20.1178 46.363 20.1178 46.087C20.1178 45.811 20.3418 45.587 20.6178 45.587H25.6248C25.9008 45.587 26.1248 45.811 26.1248 46.087C26.1248 46.363 25.9008 46.587 25.6248 46.587ZM25.6248 44.73H24.3728C24.0968 44.73 23.8728 44.506 23.8728 44.23C23.8728 43.954 24.0968 43.73 24.3728 43.73H25.6248C25.9008 43.73 26.1248 43.954 26.1248 44.23C26.1248 44.506 25.9008 44.73 25.6248 44.73ZM22.3688 52.159H20.6178C20.3418 52.159 20.1178 51.935 20.1178 51.659C20.1178 51.383 20.3418 51.159 20.6178 51.159H22.3688C22.6448 51.159 22.8688 51.383 22.8688 51.659C22.8688 51.935 22.6458 52.159 22.3688 52.159Z" fill="white"/>
<path d="M76.2466 22.275H66.2576C65.9816 22.275 65.7576 22.051 65.7576 21.775C65.7576 21.499 65.9816 21.275 66.2576 21.275H76.2466C76.5226 21.275 76.7466 21.499 76.7466 21.775C76.7466 22.051 76.5236 22.275 76.2466 22.275ZM79.1166 22.275H77.6766C77.4006 22.275 77.1766 22.051 77.1766 21.775C77.1766 21.499 77.4006 21.275 77.6766 21.275H79.1166C79.3926 21.275 79.6166 21.499 79.6166 21.775C79.6166 22.051 79.3926 22.275 79.1166 22.275ZM83.1546 22.275H80.6196C80.3436 22.275 80.1196 22.051 80.1196 21.775C80.1196 21.499 80.3436 21.275 80.6196 21.275H83.1546C83.4306 21.275 83.6546 21.499 83.6546 21.775C83.6546 22.051 83.4306 22.275 83.1546 22.275ZM81.1376 18.561H71.5596C71.2836 18.561 71.0596 18.337 71.0596 18.061C71.0596 17.785 71.2836 17.561 71.5596 17.561H81.1366C81.4126 17.561 81.6366 17.785 81.6366 18.061C81.6366 18.337 81.4136 18.561 81.1376 18.561ZM69.8356 18.561H69.2576C68.9816 18.561 68.7576 18.337 68.7576 18.061C68.7576 17.785 68.9816 17.561 69.2576 17.561H69.8356C70.1116 17.561 70.3356 17.785 70.3356 18.061C70.3356 18.337 70.1116 18.561 69.8356 18.561ZM67.4686 18.561H66.0176C65.7416 18.561 65.5176 18.337 65.5176 18.061C65.5176 17.785 65.7416 17.561 66.0176 17.561H67.4686C67.7446 17.561 67.9686 17.785 67.9686 18.061C67.9686 18.337 67.7446 18.561 67.4686 18.561ZM78.5846 20.418H73.5776C73.3016 20.418 73.0776 20.194 73.0776 19.918C73.0776 19.642 73.3016 19.418 73.5776 19.418H78.5846C78.8606 19.418 79.0846 19.642 79.0846 19.918C79.0846 20.194 78.8606 20.418 78.5846 20.418Z" fill="white"/>
<path d="M78.5849 18.561H77.3329C77.0569 18.561 76.8329 18.337 76.8329 18.061C76.8329 17.785 77.0569 17.561 77.3329 17.561H78.5849C78.8609 17.561 79.0849 17.785 79.0849 18.061C79.0849 18.337 78.8609 18.561 78.5849 18.561ZM72.1289 20.418H70.3779C70.1019 20.418 69.8779 20.194 69.8779 19.918C69.8779 19.642 70.1019 19.418 70.3779 19.418H72.1289C72.4049 19.418 72.6289 19.642 72.6289 19.918C72.6289 20.194 72.4049 20.418 72.1289 20.418Z" fill="white"/>
<path d="M71.507 73.2729H41.972C38.206 73.2729 35.125 70.1919 35.125 66.4259V36.8909C35.125 33.1249 38.206 30.0439 41.972 30.0439H71.507C75.273 30.0439 78.354 33.1249 78.354 36.8909V66.4259C78.354 70.1919 75.273 73.2729 71.507 73.2729Z" fill="#85B7FE"/>
<path d="M71.5068 73.974H41.9718C37.8098 73.974 34.4248 70.588 34.4248 66.427V36.891C34.4248 32.729 37.8108 29.344 41.9718 29.344H71.5068C75.6688 29.344 79.0538 32.73 79.0538 36.891V66.426C79.0548 70.588 75.6688 73.974 71.5068 73.974ZM41.9718 30.744C38.5818 30.744 35.8248 33.501 35.8248 36.891V66.426C35.8248 69.816 38.5818 72.573 41.9718 72.573H71.5068C74.8968 72.573 77.6538 69.816 77.6538 66.426V36.891C77.6538 33.501 74.8968 30.744 71.5068 30.744H41.9718Z" fill="#803C25"/>
<path d="M69.7179 70.1861H43.7619C40.7099 70.1861 38.2129 67.6891 38.2129 64.6371V38.6811C38.2129 35.6291 40.7099 33.1321 43.7619 33.1321H69.7179C72.7699 33.1321 75.2669 35.6291 75.2669 38.6811V64.6371C75.2669 67.6891 72.7699 70.1861 69.7179 70.1861Z" fill="white"/>
<path d="M69.6363 70.536H43.8443C40.5463 70.536 37.8633 67.853 37.8633 64.555V38.763C37.8633 35.465 40.5463 32.782 43.8443 32.782H68.4053C68.5983 32.782 68.7553 32.939 68.7553 33.132C68.7553 33.325 68.5983 33.482 68.4053 33.482H43.8443C40.9323 33.482 38.5633 35.851 38.5633 38.763V64.555C38.5633 67.467 40.9323 69.836 43.8443 69.836H69.6363C72.5483 69.836 74.9173 67.467 74.9173 64.555V50.286C74.9173 50.093 75.0743 49.936 75.2673 49.936C75.4603 49.936 75.6173 50.093 75.6173 50.286V64.555C75.6173 67.853 72.9333 70.536 69.6363 70.536ZM75.2663 48.578C75.0733 48.578 74.9163 48.421 74.9163 48.228V45.483C74.9163 45.29 75.0733 45.133 75.2663 45.133C75.4593 45.133 75.6163 45.29 75.6163 45.483V48.228C75.6173 48.421 75.4603 48.578 75.2663 48.578Z" fill="#803C25"/>
<path d="M75.266 44.4609C75.073 44.4609 74.916 44.3039 74.916 44.1109V42.7379C74.916 42.5449 75.073 42.3879 75.266 42.3879C75.459 42.3879 75.616 42.5449 75.616 42.7379V44.1109C75.617 44.3039 75.46 44.4609 75.266 44.4609Z" fill="#803C25"/>
<path d="M45.4726 76.029C47.3486 76.029 48.9746 76.029 48.9986 76.029C51.0996 76.029 52.8036 74.362 52.8036 72.305C52.8036 70.511 51.5066 69.013 49.7806 68.66C49.8006 68.503 49.8136 68.344 49.8136 68.182C49.8136 66.052 48.0496 64.325 45.8726 64.325C44.5876 64.325 43.4496 64.93 42.7306 65.861C42.5466 63.49 40.3826 61.661 37.8506 61.964C35.9996 62.186 34.4676 63.586 34.1276 65.381C34.0186 65.957 34.0296 66.515 34.1386 67.04C33.6426 66.517 32.9356 66.187 32.1486 66.187C30.7086 66.187 29.5326 67.284 29.4396 68.671C28.7856 68.529 28.0746 68.539 27.3246 68.814C25.8926 69.34 24.8726 70.66 24.8126 72.156C24.7276 74.281 26.4626 76.029 28.6146 76.029C28.7776 76.029 29.3526 76.029 29.4846 76.029H37.3856H45.4726ZM39.0216 76.029H39.3796H39.0216Z" fill="white"/>
<path d="M48.9988 76.529H45.4728C45.1968 76.529 44.9728 76.305 44.9728 76.029C44.9728 75.753 45.1968 75.529 45.4728 75.529H48.9988C50.8208 75.529 52.3038 74.083 52.3038 72.305C52.3038 70.788 51.2008 69.461 49.6808 69.15C49.4248 69.098 49.2518 68.857 49.2848 68.597C49.3028 68.46 49.3138 68.323 49.3138 68.181C49.3138 66.33 47.7708 64.824 45.8738 64.824C44.7878 64.824 43.7858 65.313 43.1268 66.166C43.0008 66.33 42.7858 66.398 42.5878 66.339C42.3898 66.28 42.2488 66.105 42.2328 65.899C42.1538 64.885 41.6708 63.965 40.8708 63.308C40.0448 62.631 38.9908 62.327 37.9118 62.46C36.2728 62.656 34.9198 63.895 34.6198 65.474C34.5268 65.966 34.5298 66.458 34.6298 66.938C34.6748 67.157 34.5698 67.379 34.3718 67.483C34.1748 67.585 33.9318 67.547 33.7778 67.383C33.3518 66.934 32.7748 66.687 32.1508 66.687C30.9868 66.687 30.0168 67.573 29.9408 68.704C29.9308 68.849 29.8588 68.983 29.7428 69.07C29.6268 69.157 29.4798 69.19 29.3358 69.159C28.7018 69.021 28.1008 69.062 27.4998 69.283C26.2438 69.744 25.3658 70.907 25.3148 72.176C25.2798 73.047 25.5968 73.876 26.2058 74.509C26.8378 75.166 27.6938 75.529 28.6178 75.529H37.3888C37.6648 75.529 37.8888 75.753 37.8888 76.029C37.8888 76.305 37.6648 76.529 37.3888 76.529H28.6178C27.4368 76.529 26.2948 76.046 25.4848 75.202C24.6858 74.37 24.2708 73.281 24.3158 72.136C24.3828 70.468 25.5238 68.944 27.1548 68.345C27.7618 68.121 28.3898 68.04 29.0268 68.101C29.3708 66.711 30.6508 65.687 32.1518 65.687C32.6418 65.687 33.1228 65.799 33.5578 66.007C33.5668 65.768 33.5938 65.528 33.6398 65.288C34.0198 63.285 35.7288 61.714 37.7958 61.467C39.1518 61.308 40.4708 61.684 41.5078 62.535C42.2518 63.145 42.7798 63.937 43.0478 64.826C43.8358 64.181 44.8258 63.825 45.8778 63.825C48.3258 63.825 50.3178 65.78 50.3178 68.182C50.3178 68.216 50.3178 68.249 50.3168 68.283C52.0738 68.836 53.3078 70.463 53.3078 72.305C53.3038 74.634 51.3718 76.529 48.9988 76.529ZM39.3798 76.529H39.0218C38.7458 76.529 38.5218 76.305 38.5218 76.029C38.5218 75.753 38.7458 75.529 39.0218 75.529H39.3798C39.6558 75.529 39.8798 75.753 39.8798 76.029C39.8798 76.305 39.6568 76.529 39.3798 76.529Z" fill="#9AA0A6"/>
<path d="M47.2979 70.749C47.2799 70.749 47.2619 70.747 47.2429 70.743C47.1079 70.713 47.0239 70.579 47.0539 70.444C47.0909 70.279 47.1479 70.119 47.2229 69.967C47.8249 68.748 49.4859 68.297 50.9309 68.964C51.0559 69.022 51.1109 69.171 51.0529 69.296C50.9949 69.421 50.8459 69.475 50.7209 69.418C49.5229 68.864 48.1549 69.21 47.6709 70.189C47.6139 70.305 47.5699 70.428 47.5419 70.554C47.5159 70.67 47.4129 70.749 47.2979 70.749Z" fill="#BDC1C6"/>
<path d="M42.1606 76.5291H41.0576C40.7816 76.5291 40.5576 76.3051 40.5576 76.0291C40.5576 75.7531 40.7816 75.5291 41.0576 75.5291H42.1606C42.4366 75.5291 42.6606 75.7531 42.6606 76.0291C42.6606 76.3051 42.4366 76.5291 42.1606 76.5291Z" fill="#BDC1C6"/>
<path d="M61.5044 45.0039C59.4185 45.0039 57.8286 45.5234 56.9263 46.5742L56.9224 46.5781L54.895 49.0039H54.5044C53.0786 49.0039 52.0435 49.2656 51.3599 49.5352C50.6724 49.8047 50.3013 50.1172 50.3013 50.1172C50.083 50.3079 50.0702 50.6431 50.2734 50.8499L57.0269 57.7235C57.2159 57.9158 57.5243 57.9207 57.7192 57.7344C57.7192 57.7344 58.0825 57.3789 58.395 56.6992C58.7075 56.0156 59.0044 54.9727 59.0044 53.5039V53.1055L61.4302 51.082L61.4341 51.0781C62.4849 50.1797 63.0044 48.5898 63.0044 46.5039V45.5039C63.0044 45.2278 62.7805 45.0039 62.5044 45.0039H61.5044ZM61.5044 46.0039H62.0044V46.5039C62.0044 48.418 61.5044 49.7031 60.7817 50.3203L55.5317 54.6953L53.3052 52.4688L57.688 47.2188C58.3091 46.5 59.5942 46.0039 61.5044 46.0039ZM60.0044 47.0039C59.4536 47.0039 59.0044 47.4531 59.0044 48.0039C59.0044 48.5547 59.4536 49.0039 60.0044 49.0039C60.5552 49.0039 61.0044 48.5547 61.0044 48.0039C61.0044 47.4531 60.5552 47.0039 60.0044 47.0039ZM54.0435 50.0234L52.5786 51.7734L51.4458 50.6172C51.563 50.5508 51.5161 50.5469 51.727 50.4648C52.2231 50.2695 52.9927 50.0742 54.0435 50.0234ZM57.9849 53.9531C57.9302 55.0312 57.7075 55.7969 57.4849 56.2812C57.3833 56.5078 57.3755 56.4648 57.3013 56.5781L56.188 55.4492L57.9849 53.9531ZM52.0044 53.9961L50.4069 57.1911C50.278 57.449 50.5515 57.7225 50.8094 57.5936L54.0044 55.9961L52.0044 53.9961Z" fill="#0D6EFD"/>
</svg>
