<svg width="190" height="154" viewBox="0 0 190 154" fill="none" xmlns="http://www.w3.org/2000/svg">
<path d="M41.4261 142C41.0483 139.912 39.3778 138.679 37.3295 138.679C34.7244 138.679 32.8352 140.688 32.8352 143.909C32.8352 147.131 34.7244 149.139 37.3295 149.139C39.3778 149.139 41.0483 147.906 41.4261 145.818H40.1932C39.8949 147.23 38.6818 147.986 37.3295 147.986C35.4801 147.986 34.0284 146.554 34.0284 143.909C34.0284 141.264 35.4801 139.832 37.3295 139.832C38.6818 139.832 39.8949 140.588 40.1932 142H41.4261ZM46.3617 149.159C48.4299 149.159 49.8219 147.588 49.8219 145.222C49.8219 142.835 48.4299 141.264 46.3617 141.264C44.2935 141.264 42.9015 142.835 42.9015 145.222C42.9015 147.588 44.2935 149.159 46.3617 149.159ZM46.3617 148.105C44.7907 148.105 44.0748 146.753 44.0748 145.222C44.0748 143.69 44.7907 142.318 46.3617 142.318C47.9327 142.318 48.6486 143.69 48.6486 145.222C48.6486 146.753 47.9327 148.105 46.3617 148.105ZM52.7862 144.406C52.7862 143.074 53.6115 142.318 54.7351 142.318C55.8239 142.318 56.4851 143.029 56.4851 144.227V149H57.6584V144.148C57.6584 142.199 56.6193 141.264 55.0732 141.264C53.9197 141.264 53.2038 141.781 52.8459 142.557H52.7464V141.364H51.6129V149H52.7862V144.406ZM63.2029 141.364H61.4927V140.588C61.4927 139.832 61.8109 139.435 62.5865 139.435C62.9245 139.435 63.1234 139.514 63.2427 139.554L63.5808 138.54C63.4018 138.46 63.0439 138.341 62.4672 138.341C61.3734 138.341 60.3194 138.997 60.3194 140.31V141.364H59.0865V142.358H60.3194V149H61.4927V142.358H63.2029V141.364ZM64.8473 149H66.0206V141.364H64.8473V149ZM65.4439 140.091C65.9013 140.091 66.2791 139.733 66.2791 139.295C66.2791 138.858 65.9013 138.5 65.4439 138.5C64.9865 138.5 64.6087 138.858 64.6087 139.295C64.6087 139.733 64.9865 140.091 65.4439 140.091ZM71.252 152.023C73.0815 152.023 74.5531 151.188 74.5531 149.219V141.364H73.4196V142.577H73.3002C73.0417 142.179 72.5645 141.264 71.073 141.264C69.144 141.264 67.8116 142.795 67.8116 145.142C67.8116 147.528 69.2037 148.881 71.0531 148.881C72.5446 148.881 73.0218 148.006 73.2804 147.588H73.3798V149.139C73.3798 150.412 72.4849 150.989 71.252 150.989C69.8649 150.989 69.3777 150.258 69.0645 149.835L68.1298 150.491C68.6071 151.292 69.5467 152.023 71.252 152.023ZM71.2122 147.827C69.7406 147.827 68.9849 146.713 68.9849 145.122C68.9849 143.571 69.7207 142.318 71.2122 142.318C72.644 142.318 73.3997 143.472 73.3997 145.122C73.3997 146.812 72.6241 147.827 71.2122 147.827ZM81.5133 145.878C81.5133 147.31 80.4196 147.966 79.5446 147.966C78.5701 147.966 77.8741 147.25 77.8741 146.136V141.364H76.7008V146.216C76.7008 148.165 77.7349 149.099 79.1667 149.099C80.3201 149.099 81.0758 148.483 81.4338 147.707H81.5133V149H82.6866V141.364H81.5133V145.878ZM84.8356 149H86.0089V144.168C86.0089 143.134 86.8242 142.378 87.9379 142.378C88.2511 142.378 88.5742 142.438 88.6538 142.457V141.264C88.5195 141.254 88.2113 141.244 88.0373 141.244C87.1225 141.244 86.3271 141.761 86.0487 142.517H85.9691V141.364H84.8356V149ZM93.0138 149.159C94.565 149.159 95.6985 148.384 96.0565 147.23L94.9229 146.912C94.6246 147.707 93.9336 148.105 93.0138 148.105C91.6367 148.105 90.6871 147.215 90.6325 145.58H96.1758V145.082C96.1758 142.239 94.4854 141.264 92.8945 141.264C90.8263 141.264 89.4542 142.895 89.4542 145.241C89.4542 147.588 90.8065 149.159 93.0138 149.159ZM90.6325 144.565C90.712 143.377 91.5522 142.318 92.8945 142.318C94.1673 142.318 94.9826 143.273 94.9826 144.565H90.6325ZM110.25 142C109.873 139.912 108.202 138.679 106.154 138.679C103.549 138.679 101.659 140.688 101.659 143.909C101.659 147.131 103.549 149.139 106.154 149.139C108.202 149.139 109.873 147.906 110.25 145.818H109.017C108.719 147.23 107.506 147.986 106.154 147.986C104.304 147.986 102.853 146.554 102.853 143.909C102.853 141.264 104.304 139.832 106.154 139.832C107.506 139.832 108.719 140.588 109.017 142H110.25ZM113.257 144.406C113.257 143.074 114.107 142.318 115.265 142.318C116.369 142.318 117.035 143.014 117.035 144.227V149H118.209V144.148C118.209 142.184 117.165 141.264 115.604 141.264C114.4 141.264 113.714 141.766 113.356 142.557H113.257V138.818H112.084V149H113.257V144.406ZM122.602 149.179C123.935 149.179 124.631 148.463 124.869 147.966H124.929V149H126.102V143.969C126.102 141.543 124.253 141.264 123.278 141.264C122.125 141.264 120.812 141.662 120.216 143.054L121.33 143.452C121.588 142.895 122.2 142.298 123.318 142.298C124.397 142.298 124.929 142.87 124.929 143.849V143.889C124.929 144.456 124.352 144.406 122.96 144.585C121.543 144.769 119.997 145.082 119.997 146.832C119.997 148.324 121.151 149.179 122.602 149.179ZM122.781 148.125C121.847 148.125 121.17 147.707 121.17 146.892C121.17 145.997 121.986 145.719 122.901 145.599C123.398 145.54 124.73 145.401 124.929 145.162V146.236C124.929 147.19 124.173 148.125 122.781 148.125ZM129.417 144.406C129.417 143.074 130.242 142.318 131.366 142.318C132.455 142.318 133.116 143.029 133.116 144.227V149H134.289V144.148C134.289 142.199 133.25 141.264 131.704 141.264C130.551 141.264 129.835 141.781 129.477 142.557H129.377V141.364H128.244V149H129.417V144.406ZM137.607 144.406C137.607 143.074 138.432 142.318 139.555 142.318C140.644 142.318 141.305 143.029 141.305 144.227V149H142.479V144.148C142.479 142.199 141.44 141.264 139.893 141.264C138.74 141.264 138.024 141.781 137.666 142.557H137.567V141.364H136.433V149H137.607V144.406ZM147.824 149.159C149.376 149.159 150.509 148.384 150.867 147.23L149.733 146.912C149.435 147.707 148.744 148.105 147.824 148.105C146.447 148.105 145.498 147.215 145.443 145.58H150.986V145.082C150.986 142.239 149.296 141.264 147.705 141.264C145.637 141.264 144.265 142.895 144.265 145.241C144.265 147.588 145.617 149.159 147.824 149.159ZM145.443 144.565C145.523 143.377 146.363 142.318 147.705 142.318C148.978 142.318 149.793 143.273 149.793 144.565H145.443ZM153.944 138.818H152.771V149H153.944V138.818Z" fill="#0D6EFD"/>
<path d="M9.33665 111.818H7.81534V119.295H7.72088L2.54048 111.818H1.11861V122H2.65483V114.533H2.74929L7.92472 122H9.33665V111.818ZM14.6749 122.154C16.8276 122.154 18.2346 120.578 18.2346 118.217C18.2346 115.84 16.8276 114.264 14.6749 114.264C12.5222 114.264 11.1152 115.84 11.1152 118.217C11.1152 120.578 12.5222 122.154 14.6749 122.154ZM14.6799 120.906C13.2729 120.906 12.6167 119.678 12.6167 118.212C12.6167 116.75 13.2729 115.507 14.6799 115.507C16.0769 115.507 16.7331 116.75 16.7331 118.212C16.7331 119.678 16.0769 120.906 14.6799 120.906ZM32.1749 115.129C31.8269 112.952 30.1216 111.679 27.9689 111.679C25.334 111.679 23.3901 113.653 23.3901 116.909C23.3901 120.165 25.324 122.139 27.9689 122.139C30.2061 122.139 31.8418 120.737 32.1749 118.724L30.6238 118.719C30.3603 120.021 29.2665 120.737 27.9789 120.737C26.2338 120.737 24.9164 119.4 24.9164 116.909C24.9164 114.438 26.2289 113.081 27.9838 113.081C29.2814 113.081 30.3702 113.812 30.6238 115.129H32.1749ZM35.3803 117.466C35.3803 116.248 36.1509 115.552 37.2099 115.552C38.234 115.552 38.8455 116.203 38.8455 117.322V122H40.332V117.143C40.332 115.239 39.288 114.264 37.717 114.264C36.5288 114.264 35.8129 114.781 35.4549 115.607H35.3604V111.818H33.8938V122H35.3803V117.466ZM44.538 122.169C45.8008 122.169 46.5117 121.528 46.7951 120.956H46.8548V122H48.3065V116.929C48.3065 114.707 46.5565 114.264 45.3434 114.264C43.9613 114.264 42.6886 114.821 42.1914 116.213L43.5884 116.531C43.8072 115.989 44.364 115.467 45.3633 115.467C46.3228 115.467 46.815 115.969 46.815 116.835V116.869C46.815 117.411 46.2582 117.401 44.886 117.56C43.4393 117.729 41.9577 118.107 41.9577 119.842C41.9577 121.344 43.0863 122.169 44.538 122.169ZM44.8612 120.976C44.021 120.976 43.4144 120.598 43.4144 119.862C43.4144 119.067 44.1204 118.783 44.9805 118.669C45.4627 118.604 46.6062 118.475 46.82 118.261V119.246C46.82 120.151 46.0991 120.976 44.8612 120.976ZM51.7729 117.466C51.7729 116.248 52.5186 115.552 53.5527 115.552C54.562 115.552 55.1735 116.213 55.1735 117.322V122H56.66V117.143C56.66 115.254 55.6209 114.264 54.0598 114.264C52.9114 114.264 52.1607 114.796 51.8077 115.607H51.7132V114.364H50.2864V122H51.7729V117.466ZM60.1401 117.466C60.1401 116.248 60.8858 115.552 61.9199 115.552C62.9292 115.552 63.5407 116.213 63.5407 117.322V122H65.0272V117.143C65.0272 115.254 63.9881 114.264 62.427 114.264C61.2786 114.264 60.5279 114.796 60.1749 115.607H60.0804V114.364H58.6536V122H60.1401V117.466ZM70.312 122.154C71.9775 122.154 73.1557 121.334 73.4938 120.091L72.0868 119.837C71.8184 120.558 71.1721 120.926 70.3269 120.926C69.0542 120.926 68.199 120.101 68.1593 118.629H73.5882V118.102C73.5882 115.343 71.9377 114.264 70.2076 114.264C68.0797 114.264 66.6777 115.885 66.6777 118.232C66.6777 120.603 68.0598 122.154 70.312 122.154ZM68.1642 117.516C68.2239 116.432 69.0094 115.492 70.2175 115.492C71.3709 115.492 72.1266 116.347 72.1316 117.516H68.1642ZM76.7241 111.818H75.2376V122H76.7241V111.818ZM84.4462 116.228C84.138 115.04 83.2083 114.264 81.5577 114.264C79.8326 114.264 78.6096 115.174 78.6096 116.526C78.6096 117.61 79.2658 118.331 80.6976 118.649L81.9902 118.933C82.726 119.097 83.0691 119.425 83.0691 119.902C83.0691 120.494 82.4377 120.956 81.4632 120.956C80.5733 120.956 80.0016 120.573 79.8226 119.822L78.3858 120.041C78.6344 121.393 79.758 122.154 81.4732 122.154C83.3176 122.154 84.5953 121.175 84.5953 119.793C84.5953 118.714 83.9093 118.048 82.5073 117.724L81.2942 117.446C80.454 117.247 80.0911 116.964 80.0961 116.447C80.0911 115.86 80.7275 115.442 81.5726 115.442C82.4973 115.442 82.9249 115.955 83.0989 116.467L84.4462 116.228ZM98.5108 115.129C98.1628 112.952 96.4576 111.679 94.3049 111.679C91.6699 111.679 89.726 113.653 89.726 116.909C89.726 120.165 91.66 122.139 94.3049 122.139C96.5421 122.139 98.1777 120.737 98.5108 118.724L96.9597 118.719C96.6962 120.021 95.6025 120.737 94.3148 120.737C92.5698 120.737 91.2523 119.4 91.2523 116.909C91.2523 114.438 92.5648 113.081 94.3198 113.081C95.6174 113.081 96.7061 113.812 96.9597 115.129H98.5108ZM103.446 122.154C105.599 122.154 107.006 120.578 107.006 118.217C107.006 115.84 105.599 114.264 103.446 114.264C101.294 114.264 99.8867 115.84 99.8867 118.217C99.8867 120.578 101.294 122.154 103.446 122.154ZM103.451 120.906C102.044 120.906 101.388 119.678 101.388 118.212C101.388 116.75 102.044 115.507 103.451 115.507C104.848 115.507 105.505 116.75 105.505 118.212C105.505 119.678 104.848 120.906 103.451 120.906ZM110.152 117.466C110.152 116.248 110.898 115.552 111.932 115.552C112.941 115.552 113.552 116.213 113.552 117.322V122H115.039V117.143C115.039 115.254 114 114.264 112.439 114.264C111.29 114.264 110.54 114.796 110.187 115.607H110.092V114.364H108.665V122H110.152V117.466ZM120.667 114.364H119.021V113.678C119.021 113.001 119.3 112.634 120.025 112.634C120.334 112.634 120.552 112.703 120.692 112.748L121.04 111.545C120.831 111.465 120.398 111.341 119.797 111.341C118.589 111.341 117.53 112.047 117.53 113.479V114.364H116.351V115.557H117.53V122H119.021V115.557H120.667V114.364ZM122.2 122H123.687V114.364H122.2V122ZM122.951 113.185C123.463 113.185 123.891 112.788 123.891 112.3C123.891 111.813 123.463 111.411 122.951 111.411C122.434 111.411 122.012 111.813 122.012 112.3C122.012 112.788 122.434 113.185 122.951 113.185ZM128.888 125.023C130.832 125.023 132.334 124.133 132.334 122.169V114.364H130.877V115.602H130.768C130.504 115.129 129.977 114.264 128.555 114.264C126.711 114.264 125.354 115.721 125.354 118.152C125.354 120.588 126.741 121.886 128.545 121.886C129.947 121.886 130.489 121.095 130.758 120.608H130.852V122.109C130.852 123.308 130.032 123.825 128.903 123.825C127.665 123.825 127.183 123.203 126.92 122.766L125.642 123.293C126.045 124.227 127.064 125.023 128.888 125.023ZM128.874 120.653C127.546 120.653 126.855 119.634 126.855 118.132C126.855 116.665 127.531 115.527 128.874 115.527C130.171 115.527 130.867 116.586 130.867 118.132C130.867 119.708 130.156 120.653 128.874 120.653ZM139.165 118.833C139.17 120.131 138.205 120.747 137.37 120.747C136.45 120.747 135.814 120.081 135.814 119.042V114.364H134.327V119.221C134.327 121.115 135.366 122.099 136.833 122.099C137.982 122.099 138.762 121.493 139.115 120.678H139.195V122H140.656V114.364H139.165V118.833ZM142.654 122H144.14V117.337C144.14 116.337 144.911 115.616 145.965 115.616C146.273 115.616 146.621 115.671 146.74 115.706V114.284C146.591 114.264 146.298 114.249 146.109 114.249C145.214 114.249 144.448 114.756 144.17 115.577H144.09V114.364H142.654V122ZM151.044 122.154C152.71 122.154 153.888 121.334 154.226 120.091L152.819 119.837C152.551 120.558 151.904 120.926 151.059 120.926C149.787 120.926 148.931 120.101 148.892 118.629H154.321V118.102C154.321 115.343 152.67 114.264 150.94 114.264C148.812 114.264 147.41 115.885 147.41 118.232C147.41 120.603 148.792 122.154 151.044 122.154ZM148.897 117.516C148.956 116.432 149.742 115.492 150.95 115.492C152.103 115.492 152.859 116.347 152.864 117.516H148.897ZM158.829 122.149C160.221 122.149 160.768 121.299 161.036 120.812H161.16V122H162.612V111.818H161.126V115.602H161.036C160.768 115.129 160.26 114.264 158.839 114.264C156.994 114.264 155.637 115.721 155.637 118.197C155.637 120.668 156.974 122.149 158.829 122.149ZM159.157 120.881C157.829 120.881 157.138 119.713 157.138 118.182C157.138 116.665 157.814 115.527 159.157 115.527C160.454 115.527 161.15 116.586 161.15 118.182C161.15 119.788 160.439 120.881 159.157 120.881ZM169.378 124.864C170.606 124.864 171.382 124.222 171.824 123.019L174.981 114.379L173.376 114.364L171.442 120.29H171.362L169.428 114.364H167.837L170.631 122.099L170.447 122.607C170.069 123.621 169.537 123.705 168.722 123.482L168.364 124.7C168.543 124.779 168.931 124.864 169.378 124.864ZM179.4 122.154C181.065 122.154 182.244 121.334 182.582 120.091L181.175 119.837C180.906 120.558 180.26 120.926 179.415 120.926C178.142 120.926 177.287 120.101 177.247 118.629H182.676V118.102C182.676 115.343 181.026 114.264 179.295 114.264C177.168 114.264 175.766 115.885 175.766 118.232C175.766 120.603 177.148 122.154 179.4 122.154ZM177.252 117.516C177.312 116.432 178.097 115.492 179.305 115.492C180.459 115.492 181.214 116.347 181.219 117.516H177.252ZM187.89 114.364H186.324V112.534H184.838V114.364H183.719V115.557H184.838V120.066C184.833 121.453 185.892 122.124 187.065 122.099C187.537 122.094 187.855 122.005 188.029 121.94L187.761 120.712C187.661 120.732 187.477 120.777 187.239 120.777C186.757 120.777 186.324 120.618 186.324 119.758V115.557H187.89V114.364Z" fill="#5F6368"/>
<rect x="37.7539" y="3" width="113" height="93" rx="4" fill="#F3F8FF"/>
<path d="M131.3 56.7C132.4 54.5 133.1 52.1 133.1 49.5C133.1 42.9 128.9 37.2 123.1 35C123.1 23.4 113.7 14 102.1 14C92.3001 14 84.1001 20.7 81.8001 29.8C80.3001 29.3 78.8001 29 77.1001 29C69.4001 29 63.1001 34.8 62.2001 42.3C57.0001 43.4 53.1001 48 53.1001 53.5C53.1001 59.9 58.2001 65 64.6001 65C64.8001 65 65.0001 65 65.1001 65C65.1001 65.2 65.1001 65.3 65.1001 65.5C65.1001 76.8 74.3001 86 85.6001 86C92.0001 86 97.8001 83 101.5 78.4C103.7 80.6 106.7 82 110.1 82C114.8 82 118.8 79.3 120.8 75.5C121.9 75.8 123 76 124.1 76C130.2 76 135.1 71.1 135.1 65C135.1 61.7 133.7 58.7 131.3 56.7Z" fill="#E7F1FF"/>
<path d="M122.9 36.5C122.9 36.5 126.5 36.5 129 36.5C131.5 36.5 133.5 34.5 133.5 32C133.5 29.7 131.7 27.8 129.4 27.5C129.4 27.3 129.5 27.1 129.5 27C129.5 24.5 127.5 22.5 125 22.5C123.6 22.5 122.3 23.2 121.5 24.2C121.4 21.6 119.2 19.5 116.5 19.5C113.7 19.5 111.5 21.7 111.5 24.5C111.5 24.9 111.6 25.4 111.7 25.8C111 25 110.1 24.5 109 24.5C107.2 24.5 105.8 25.8 105.5 27.6C105.3 27.6 105.1 27.5 105 27.5C102.5 27.5 100.5 29.5 100.5 32C100.5 34.5 102.5 36.5 105 36.5C107.5 36.5 114.5 36.5 114.5 36.5H119.9V37H122.9V36.5Z" fill="#F8F9FA"/>
<path d="M116.5 19C113.5 19 111 21.5 111 24.5C110.4 24.1 109.7 24 109 24C107.2 24 105.6 25.3 105.1 27H105C102.2 27 100 29.2 100 32C100 34.8 102.2 37 105 37H119.9C120.2 37 120.4 36.8 120.4 36.5C120.4 36.2 120.2 36 119.9 36H105C102.8 36 101 34.2 101 32C101 29.8 102.8 28 105 28C105.1 28 105.2 28 105.3 28H105.4C105.4 28 105.4 28 105.5 28C105.7 28 106 27.8 106 27.6C106.2 26.1 107.5 25 109 25C109.9 25 110.7 25.4 111.3 26.1C111.4 26.2 111.5 26.3 111.7 26.3C111.8 26.3 111.9 26.3 111.9 26.2C112.1 26.1 112.2 25.9 112.2 25.6C112.1 25.2 112 24.8 112 24.4C112 21.9 114 19.9 116.5 19.9C118.9 19.9 120.8 21.8 121 24.2C121 24.4 121.2 24.6 121.3 24.7C121.4 24.7 121.4 24.7 121.5 24.7C121.7 24.7 121.8 24.6 121.9 24.5C122.7 23.5 123.8 23 125 23C127.2 23 129 24.8 129 27C129 27.1 129 27.2 129 27.3V27.4C129 27.5 129 27.7 129.1 27.8C129.2 27.9 129.3 28 129.4 28C131.5 28.2 133 29.9 133 32C133 34.2 131.2 36 129 36H122.9C122.6 36 122.4 36.2 122.4 36.5C122.4 36.8 122.6 37 122.9 37H129C131.8 37 134 34.8 134 32C134 29.6 132.3 27.6 130 27.1V27C130 24.2 127.8 22 125 22C123.8 22 122.7 22.4 121.8 23.2C121.2 20.8 119.1 19 116.5 19Z" fill="#9AA0A6"/>
<path d="M115 26C113.6 26 112.4 27 112.1 28.3C111.7 28.1 111.3 28 110.9 28C109.7 28 108.7 28.9 108.5 30.1C108.3 30.1 108.1 30 107.9 30C106.4 30 105.1 31.2 105 32.7C105 32.8 105.1 33 105.2 33C105.3 33 105.4 32.9 105.4 32.8C105.5 31.5 106.6 30.5 107.8 30.5C108 30.5 108.3 30.5 108.5 30.6C108.5 30.6 108.5 30.6 108.6 30.6C108.7 30.6 108.7 30.6 108.8 30.5C108.9 30.5 108.9 30.4 108.9 30.3C108.9 29.3 109.7 28.4 110.8 28.4C111.2 28.4 111.7 28.6 112 28.9C112 28.9 112.1 29 112.2 29H112.3C112.4 29 112.4 28.9 112.5 28.8C112.6 27.5 113.7 26.5 115 26.5C115.2 26.5 115.4 26.5 115.7 26.6C115.7 26.6 115.7 26.6 115.8 26.6C115.9 26.6 116 26.5 116 26.4C116 26.3 116 26.1 115.8 26.1C115.5 26 115.3 26 115 26ZM128.9 27.5C127.6 27.5 126.4 28.4 126 29.7C126 29.8 126 30 126.2 30C126.2 30 126.2 30 126.3 30C126.4 30 126.5 29.9 126.5 29.8C126.8 28.7 127.8 28 128.9 28C129 28 129.1 28 129.2 28C129.3 28 129.4 27.9 129.4 27.8C129.4 27.7 129.3 27.5 129.2 27.5C129.2 27.5 129 27.5 128.9 27.5Z" fill="#BDC1C6"/>
<path d="M93.7001 21H83.8C83.5 21 83.3 20.8 83.3 20.5C83.3 20.2 83.5 20 83.8 20H93.7001C94.0001 20 94.2001 20.2 94.2001 20.5C94.2001 20.8 94.0001 21 93.7001 21ZM96.8 21H95.8C95.5 21 95.3 20.8 95.3 20.5C95.3 20.2 95.5 20 95.8 20H96.8C97.1 20 97.3 20.2 97.3 20.5C97.3 20.8 97.1 21 96.8 21ZM101.8 23H92.8C92.5 23 92.3 22.8 92.3 22.5C92.3 22.2 92.5 22 92.8 22H101.8C102.1 22 102.3 22.2 102.3 22.5C102.3 22.8 102.1 23 101.8 23ZM90.8 23H89.8C89.5 23 89.3 22.8 89.3 22.5C89.3 22.2 89.5 22 89.8 22H90.8C91.1 22 91.3 22.2 91.3 22.5C91.3 22.8 91.1 23 90.8 23ZM87.8 23H85.8C85.5 23 85.3 22.8 85.3 22.5C85.3 22.2 85.5 22 85.8 22H87.8C88.1 22 88.3 22.2 88.3 22.5C88.3 22.8 88.1 23 87.8 23ZM93.8 25H91.8C91.5 25 91.3 24.8 91.3 24.5C91.3 24.2 91.5 24 91.8 24H93.8C94.1 24 94.3 24.2 94.3 24.5C94.3 24.8 94.1 25 93.8 25ZM96.8 16C96.6 16 96 16 95.8 16C95.5 16 95.3 16.2 95.3 16.5C95.3 16.8 95.5 17 95.8 17C96 17 96.6 17 96.8 17C97.1 17 97.3 16.8 97.3 16.5C97.3 16.2 97.1 16 96.8 16ZM96.8 18C96.6 18 92 18 91.8 18C91.5 18 91.3 18.2 91.3 18.5C91.3 18.8 91.5 19 91.8 19C92 19 96.6 19 96.8 19C97.1 19 97.3 18.8 97.3 18.5C97.3 18.2 97.1 18 96.8 18ZM101.8 20C101.6 20 99 20 98.8 20C98.5 20 98.3 20.2 98.3 20.5C98.3 20.8 98.5 21 98.8 21C99 21 101.6 21 101.8 21C102.1 21 102.3 20.8 102.3 20.5C102.3 20.2 102.1 20 101.8 20Z" fill="white"/>
<path d="M126.5 68H116.5C116.2 68 116 67.8 116 67.5C116 67.2 116.2 67 116.5 67H126.5C126.8 67 127 67.2 127 67.5C127 67.8 126.8 68 126.5 68ZM130.5 68H128.5C128.2 68 128 67.8 128 67.5C128 67.2 128.2 67 128.5 67H130.5C130.8 67 131 67.2 131 67.5C131 67.8 130.8 68 130.5 68ZM135.5 70H125.5C125.2 70 125 69.8 125 69.5C125 69.2 125.2 69 125.5 69H135.5C135.8 69 136 69.2 136 69.5C136 69.8 135.8 70 135.5 70ZM123.5 70H122.5C122.2 70 122 69.8 122 69.5C122 69.2 122.2 69 122.5 69H123.5C123.8 69 124 69.2 124 69.5C124 69.8 123.8 70 123.5 70ZM120.4 70H118.5C118.2 70 118 69.8 118 69.5C118 69.2 118.2 69 118.5 69H120.4C120.7 69 120.9 69.2 120.9 69.5C120.9 69.8 120.7 70 120.4 70ZM129.5 66H124.5C124.2 66 124 65.8 124 65.5C124 65.2 124.2 65 124.5 65H129.5C129.8 65 130 65.2 130 65.5C130 65.8 129.8 66 129.5 66ZM126.5 72H124.5C124.2 72 124 71.8 124 71.5C124 71.2 124.2 71 124.5 71H126.5C126.8 71 127 71.2 127 71.5C127 71.8 126.8 72 126.5 72Z" fill="white"/>
<path d="M68.5 60.5C68.5 60.5 70.1 60.5 72 60.5C73.9 60.5 75.5 58.9 75.5 57C75.5 55.2 74.2 53.8 72.4 53.5C72.4 53.3 72.5 53.1 72.5 53C72.5 51.1 70.9 49.5 69 49.5C68 49.5 67 50 66.4 50.7C66 48.9 64.4 47.5 62.5 47.5C60.3 47.5 58.5 49.3 58.5 51.5C58.5 51.7 58.5 51.9 58.6 52.1C58.2 51.8 57.6 51.5 57 51.5C55.8 51.5 54.8 52.4 54.5 53.6C54.3 53.6 54.1 53.5 54 53.5C52.1 53.5 50.5 55.1 50.5 57C50.5 58.9 52.1 60.5 54 60.5C55.9 60.5 61.5 60.5 61.5 60.5V61H68.5V60.5Z" fill="#F8F9FA"/>
<path d="M70.3 56C70.2 56 70 55.9 70 55.7C70 54.5 71 53.5 72.2 53.5C72.2 53.5 72.9 53.5 73.4 53.6C73.5 53.6 73.6 53.8 73.6 53.9C73.6 54 73.4 54.1 73.3 54.1C72.9 54 72.2 54 72.2 54C71.3 54 70.5 54.8 70.5 55.7C70.5 55.9 70.4 56 70.3 56ZM63.5 60C63.3674 60 63.2402 60.0527 63.1464 60.1464C63.0527 60.2402 63 60.3674 63 60.5C63 60.6326 63.0527 60.7598 63.1464 60.8536C63.2402 60.9473 63.3674 61 63.5 61C63.6326 61 63.7598 60.9473 63.8536 60.8536C63.9473 60.7598 64 60.6326 64 60.5C64 60.3674 63.9473 60.2402 63.8536 60.1464C63.7598 60.0527 63.6326 60 63.5 60Z" fill="#BDC1C6"/>
<path d="M72 61H68.5C68.2 61 68 60.8 68 60.5C68 60.2 68.2 60 68.5 60H72C73.7 60 75 58.7 75 57C75 55.5 73.9 54.2 72.4 54C72.3 54 72.1 53.9 72.1 53.8C72.1 53.7 72 53.6 72 53.4C72 53.2 72 53.1 72 52.9C72 51.2 70.7 49.9 69 49.9C68.1 49.9 67.4 50.3 66.8 50.9C66.7 51 66.5 51.1 66.3 51C66.1 51 66 50.8 65.9 50.6C65.6 49 64.1 47.8 62.5 47.8C60.6 47.8 59 49.4 59 51.3C59 51.4 59 51.6 59 51.7C59 51.9 58.9 52.1 58.8 52.2C58.7 52.3 58.4 52.3 58.2 52.2C57.9 52.2 57.4 52 57 52C56 52 55.2 52.7 55 53.6C55 53.9 54.7 54 54.4 54C54.2 54 54.1 54 53.9 54C52.2 54 50.9 55.3 50.9 57C50.9 58.7 52.2 60 53.9 60H61.4C61.7 60 61.9 60.2 61.9 60.5C61.9 60.8 61.8 61 61.5 61H54C51.8 61 50 59.2 50 57C50 54.8 51.8 53 54 53C54.1 53 54.1 53 54.2 53C54.6 51.8 55.7 51 57 51C57.3 51 57.7 51.1 58 51.2C58.2 48.9 60.1 47 62.5 47C64.3 47 66 48.1 66.7 49.8C67.4 49.3 68.2 49 69 49C71.2 49 73 50.8 73 53V53.1C74.7 53.5 76 55.1 76 57C76 59.2 74.2 61 72 61Z" fill="#9AA0A6"/>
<path d="M66.5 60C66.3 60 65.7 60 65.5 60C65.2 60 65 60.2 65 60.5C65 60.8 65.2 61 65.5 61C65.7 61 66.3 61 66.5 61C66.8 61 67 60.8 67 60.5C67 60.2 66.8 60 66.5 60Z" fill="#BDC1C6"/>
<path d="M90.7195 60.3449V56.0442C90.7195 53.7887 92.554 51.9541 94.8096 51.9541H97.1903C99.4459 51.9541 101.28 53.7887 101.28 56.0442V60.3449H90.7195Z" fill="#93D3A2"/>
<path d="M97.1908 52.46C99.1672 52.46 100.775 54.0682 100.775 56.0438V59.8388H91.2257V56.0438C91.2257 54.0682 92.8331 52.46 94.8094 52.46H97.1908ZM97.1908 51.4473H94.8094C92.271 51.4473 90.2129 53.5054 90.2129 56.0438V60.8515H101.787V56.0438C101.787 53.5054 99.7293 51.4473 97.1908 51.4473Z" fill="#803C25"/>
<path d="M93.1068 60.8513C92.9072 60.8513 92.7451 60.6893 92.7451 60.4896V55.7875C92.7451 55.5878 92.9072 55.4258 93.1068 55.4258C93.3065 55.4258 93.4685 55.5878 93.4685 55.7875V60.4896C93.4685 60.6893 93.3065 60.8513 93.1068 60.8513Z" fill="#803C25"/>
<path d="M98.8939 60.8513C98.6943 60.8513 98.5322 60.6893 98.5322 60.4896V55.7875C98.5322 55.5878 98.6943 55.4258 98.8939 55.4258C99.0936 55.4258 99.2556 55.5878 99.2556 55.7875V60.4896C99.2556 60.6893 99.0936 60.8513 98.8939 60.8513Z" fill="#803C25"/>
<path d="M96.0004 45.0811C95.5444 45.0811 95.0929 45.1709 94.6716 45.3454C94.2503 45.5199 93.8675 45.7756 93.5451 46.0981C93.2227 46.4205 92.9669 46.8033 92.7924 47.2246C92.6179 47.6459 92.5281 48.0974 92.5281 48.5534C92.5281 49.0094 92.6179 49.4609 92.7924 49.8822C92.9669 50.3035 93.2227 50.6863 93.5451 51.0087C93.8675 51.3311 94.2503 51.5869 94.6716 51.7614C95.0929 51.9359 95.5444 52.0257 96.0004 52.0257C96.4564 52.0257 96.9079 51.9359 97.3292 51.7614C97.7505 51.5869 98.1333 51.3311 98.4557 51.0087C98.7782 50.6863 99.0339 50.3035 99.2084 49.8822C99.3829 49.4609 99.4728 49.0094 99.4728 48.5534C99.4728 48.0974 99.3829 47.6459 99.2084 47.2246C99.0339 46.8033 98.7782 46.4205 98.4557 46.0981C98.1333 45.7756 97.7505 45.5199 97.3292 45.3454C96.9079 45.1709 96.4564 45.0811 96.0004 45.0811Z" fill="#FFF1ED"/>
<path d="M96.0002 45.587C97.6358 45.587 98.9662 46.9173 98.9662 48.5529C98.9662 50.1886 97.6358 51.5189 96.0002 51.5189C94.3646 51.5189 93.0343 50.1886 93.0343 48.5529C93.0343 46.9173 94.3646 45.587 96.0002 45.587ZM96.0002 44.5742C93.8025 44.5742 92.0215 46.3552 92.0215 48.5529C92.0215 50.7506 93.8025 52.5317 96.0002 52.5317C98.1979 52.5317 99.9789 50.7506 99.9789 48.5529C99.9789 46.3552 98.1979 44.5742 96.0002 44.5742Z" fill="#803C25"/>
<path d="M96.0004 68.4464C95.8007 68.4464 95.6387 68.2844 95.6387 68.0847V63.0209C95.6387 62.8212 95.8007 62.6592 96.0004 62.6592C96.2 62.6592 96.3621 62.8212 96.3621 63.0209V68.0847C96.3621 68.2844 96.2 68.4464 96.0004 68.4464Z" fill="#0D6EFD"/>
<path d="M83.7252 63.3286C83.6326 63.3286 83.54 63.2931 83.4691 63.223C83.328 63.0819 83.328 62.8526 83.4691 62.7115L87.0123 59.1683C87.1534 59.0265 87.4001 59.0113 87.5411 59.1509C87.6815 59.292 87.6995 59.5039 87.5578 59.6457L83.9798 63.2237C83.9104 63.2931 83.8178 63.3286 83.7252 63.3286Z" fill="#0D6EFD"/>
<path d="M107.905 63.3291C107.812 63.3291 107.72 63.2936 107.649 63.2235L104.647 60.2213C104.506 60.081 104.49 59.8387 104.631 59.6969C104.77 59.5565 104.982 59.5384 105.126 59.6781L108.161 62.712C108.302 62.8531 108.302 63.0824 108.161 63.2235C108.09 63.2936 107.998 63.3291 107.905 63.3291Z" fill="#0D6EFD"/>
<path d="M96.0004 43.1283C95.8007 43.1283 95.6387 42.9662 95.6387 42.7666V37.736C95.6387 37.5364 95.8007 37.3584 96.0004 37.3584C96.2 37.3584 96.3621 37.5031 96.3621 37.7035V42.7673C96.3621 42.9662 96.2 43.1283 96.0004 43.1283Z" fill="#0D6EFD"/>
<path d="M96.3616 33.5068C95.7285 33.5068 95.1213 33.7583 94.6736 34.206C94.2259 34.6537 93.9744 35.2609 93.9744 35.8941C93.9744 36.5272 94.2259 37.1344 94.6736 37.5821C95.1213 38.0298 95.7285 38.2813 96.3616 38.2813C96.9947 38.2813 97.6019 38.0298 98.0496 37.5821C98.4973 37.1344 98.7488 36.5272 98.7488 35.8941C98.7488 35.2609 98.4973 34.6537 98.0496 34.206C97.6019 33.7583 96.9947 33.5068 96.3616 33.5068Z" fill="#85B7FE"/>
<path d="M96.3614 34.0128C97.3988 34.0128 98.2422 34.857 98.2422 35.8936C98.2422 36.9303 97.3988 37.7745 96.3614 37.7745C95.324 37.7745 94.4805 36.9303 94.4805 35.8936C94.4805 34.857 95.324 34.0128 96.3614 34.0128ZM96.3614 33C94.7634 33 93.4678 34.2956 93.4678 35.8936C93.4678 37.4916 94.7634 38.7872 96.3614 38.7872C97.9594 38.7872 99.255 37.4916 99.255 35.8936C99.255 34.2956 97.9594 33 96.3614 33Z" fill="#0D6EFD"/>
<path d="M109.894 38.5068C109.261 38.5068 108.653 38.7583 108.206 39.206C107.758 39.6537 107.507 40.2609 107.507 40.8941C107.507 41.5272 107.758 42.1344 108.206 42.5821C108.653 43.0298 109.261 43.2813 109.894 43.2813C110.527 43.2813 111.134 43.0298 111.582 42.5821C112.03 42.1344 112.281 41.5272 112.281 40.8941C112.281 40.2609 112.03 39.6537 111.582 39.206C111.134 38.7583 110.527 38.5068 109.894 38.5068Z" fill="#85B7FE"/>
<path d="M109.894 39.0128C110.931 39.0128 111.774 39.857 111.774 40.8936C111.774 41.9303 110.931 42.7745 109.894 42.7745C108.856 42.7745 108.013 41.9303 108.013 40.8936C108.013 39.857 108.856 39.0128 109.894 39.0128ZM109.894 38C108.296 38 107 39.2956 107 40.8936C107 42.4916 108.296 43.7872 109.894 43.7872C111.492 43.7872 112.787 42.4916 112.787 40.8936C112.787 39.2956 111.492 38 109.894 38Z" fill="#0D6EFD"/>
<path d="M109.894 62.5068C109.261 62.5068 108.653 62.7583 108.206 63.206C107.758 63.6537 107.507 64.2609 107.507 64.8941C107.507 65.5272 107.758 66.1344 108.206 66.5821C108.653 67.0298 109.261 67.2813 109.894 67.2813C110.527 67.2813 111.134 67.0298 111.582 66.5821C112.03 66.1344 112.281 65.5272 112.281 64.8941C112.281 64.2609 112.03 63.6537 111.582 63.206C111.134 62.7583 110.527 62.5068 109.894 62.5068Z" fill="#85B7FE"/>
<path d="M109.894 63.0128C110.931 63.0128 111.774 63.857 111.774 64.8936C111.774 65.9303 110.931 66.7745 109.894 66.7745C108.856 66.7745 108.013 65.9303 108.013 64.8936C108.013 63.857 108.856 63.0128 109.894 63.0128ZM109.894 62C108.296 62 107 63.2956 107 64.8936C107 66.4916 108.296 67.7872 109.894 67.7872C111.492 67.7872 112.787 66.4916 112.787 64.8936C112.787 63.2956 111.492 62 109.894 62Z" fill="#0D6EFD"/>
<path d="M95.8938 68.5068C95.2607 68.5068 94.6535 68.7583 94.2058 69.206C93.7581 69.6537 93.5066 70.2609 93.5066 70.8941C93.5066 71.5272 93.7581 72.1344 94.2058 72.5821C94.6535 73.0298 95.2607 73.2813 95.8938 73.2813C96.527 73.2813 97.1342 73.0298 97.5819 72.5821C98.0295 72.1344 98.2811 71.5272 98.2811 70.8941C98.2811 70.2609 98.0295 69.6537 97.5819 69.206C97.1342 68.7583 96.527 68.5068 95.8938 68.5068Z" fill="#85B7FE"/>
<path d="M95.8936 69.0128C96.931 69.0128 97.7745 69.857 97.7745 70.8936C97.7745 71.9303 96.931 72.7745 95.8936 72.7745C94.8563 72.7745 94.0128 71.9303 94.0128 70.8936C94.0128 69.857 94.8563 69.0128 95.8936 69.0128ZM95.8936 68C94.2956 68 93 69.2956 93 70.8936C93 72.4916 94.2956 73.7872 95.8936 73.7872C97.4916 73.7872 98.7872 72.4916 98.7872 70.8936C98.7872 69.2956 97.4916 68 95.8936 68Z" fill="#0D6EFD"/>
<path d="M81.8938 62.5068C81.2607 62.5068 80.6535 62.7583 80.2058 63.206C79.7581 63.6537 79.5066 64.2609 79.5066 64.8941C79.5066 65.5272 79.7581 66.1344 80.2058 66.5821C80.6535 67.0298 81.2607 67.2813 81.8938 67.2813C82.527 67.2813 83.1342 67.0298 83.5819 66.5821C84.0295 66.1344 84.2811 65.5272 84.2811 64.8941C84.2811 64.2609 84.0295 63.6537 83.5819 63.206C83.1342 62.7583 82.527 62.5068 81.8938 62.5068Z" fill="#85B7FE"/>
<path d="M81.8936 63.0128C82.931 63.0128 83.7745 63.857 83.7745 64.8936C83.7745 65.9303 82.931 66.7745 81.8936 66.7745C80.8563 66.7745 80.0128 65.9303 80.0128 64.8936C80.0128 63.857 80.8563 63.0128 81.8936 63.0128ZM81.8936 62C80.2956 62 79 63.2956 79 64.8936C79 66.4916 80.2956 67.7872 81.8936 67.7872C83.4916 67.7872 84.7872 66.4916 84.7872 64.8936C84.7872 63.2956 83.4916 62 81.8936 62Z" fill="#0D6EFD"/>
<path d="M82.8938 38.5068C82.2607 38.5068 81.6535 38.7583 81.2058 39.206C80.7581 39.6537 80.5066 40.2609 80.5066 40.8941C80.5066 41.5272 80.7581 42.1344 81.2058 42.5821C81.6535 43.0298 82.2607 43.2813 82.8938 43.2813C83.527 43.2813 84.1342 43.0298 84.5819 42.5821C85.0295 42.1344 85.2811 41.5272 85.2811 40.8941C85.2811 40.2609 85.0295 39.6537 84.5819 39.206C84.1342 38.7583 83.527 38.5068 82.8938 38.5068Z" fill="#85B7FE"/>
<path d="M82.8936 39.0128C83.931 39.0128 84.7745 39.857 84.7745 40.8936C84.7745 41.9303 83.931 42.7745 82.8936 42.7745C81.8563 42.7745 81.0128 41.9303 81.0128 40.8936C81.0128 39.857 81.8563 39.0128 82.8936 39.0128ZM82.8936 38C81.2956 38 80 39.2956 80 40.8936C80 42.4916 81.2956 43.7872 82.8936 43.7872C84.4916 43.7872 85.7872 42.4916 85.7872 40.8936C85.7872 39.2956 84.4916 38 82.8936 38Z" fill="#0D6EFD"/>
<path d="M104.705 47.0809C104.614 47.0809 104.524 47.0491 104.457 46.9833C104.317 46.8422 104.299 46.6302 104.441 46.4884L108.019 42.9105C108.16 42.7694 108.389 42.7694 108.53 42.9105C108.671 43.0515 108.671 43.2809 108.53 43.4219L104.987 46.9652C104.912 47.0404 104.807 47.0809 104.705 47.0809Z" fill="#0D6EFD"/>
<path d="M87.1063 46.5521C87.0239 46.5521 86.9414 46.521 86.8749 46.4559L83.8402 43.4219C83.6991 43.2809 83.6991 43.0515 83.8402 42.9105C83.9812 42.7694 84.2106 42.7694 84.3516 42.9105L87.3537 45.9126C87.4941 46.053 87.51 46.2953 87.3697 46.4371C87.2959 46.513 87.2011 46.5521 87.1063 46.5521Z" fill="#0D6EFD"/>
</svg>
