<svg width="187" height="154" viewBox="0 0 187 154" fill="none" xmlns="http://www.w3.org/2000/svg">
<path d="M9.33665 111.818H7.81534V119.295H7.72088L2.54048 111.818H1.11861V122H2.65483V114.533H2.74929L7.92472 122H9.33665V111.818ZM14.6749 122.154C16.8276 122.154 18.2346 120.578 18.2346 118.217C18.2346 115.84 16.8276 114.264 14.6749 114.264C12.5222 114.264 11.1152 115.84 11.1152 118.217C11.1152 120.578 12.5222 122.154 14.6749 122.154ZM14.6799 120.906C13.2729 120.906 12.6167 119.678 12.6167 118.212C12.6167 116.75 13.2729 115.507 14.6799 115.507C16.0769 115.507 16.7331 116.75 16.7331 118.212C16.7331 119.678 16.0769 120.906 14.6799 120.906ZM23.7182 122H30.1614V120.678H25.2544V117.56H29.7686V116.243H25.2544V113.141H30.1017V111.818H23.7182V122ZM33.2077 114.364H31.5771L33.9237 118.182L31.5472 122H33.1779L34.8931 119.146L36.6133 122H38.239L35.8377 118.182L38.2191 114.364H36.5934L34.8931 117.337L33.2077 114.364ZM39.7454 124.864H41.2319V120.812H41.3214C41.5898 121.299 42.1367 122.149 43.5288 122.149C45.3782 122.149 46.7205 120.668 46.7205 118.197C46.7205 115.721 45.3583 114.264 43.5138 114.264C42.0969 114.264 41.5849 115.129 41.3214 115.602H41.1971V114.364H39.7454V124.864ZM41.2021 118.182C41.2021 116.586 41.8981 115.527 43.1957 115.527C44.543 115.527 45.2191 116.665 45.2191 118.182C45.2191 119.713 44.5231 120.881 43.1957 120.881C41.918 120.881 41.2021 119.788 41.2021 118.182ZM51.6772 122.154C53.3427 122.154 54.521 121.334 54.859 120.091L53.4521 119.837C53.1836 120.558 52.5373 120.926 51.6921 120.926C50.4194 120.926 49.5643 120.101 49.5245 118.629H54.9535V118.102C54.9535 115.343 53.3029 114.264 51.5728 114.264C49.445 114.264 48.043 115.885 48.043 118.232C48.043 120.603 49.4251 122.154 51.6772 122.154ZM49.5295 117.516C49.5891 116.432 50.3746 115.492 51.5827 115.492C52.7362 115.492 53.4918 116.347 53.4968 117.516H49.5295ZM56.6028 122H58.0893V117.337C58.0893 116.337 58.8599 115.616 59.9139 115.616C60.2221 115.616 60.5701 115.671 60.6895 115.706V114.284C60.5403 114.264 60.247 114.249 60.0581 114.249C59.1632 114.249 58.3975 114.756 58.1191 115.577H58.0396V114.364H56.6028V122ZM61.9759 122H63.4624V114.364H61.9759V122ZM62.7266 113.185C63.2386 113.185 63.6662 112.788 63.6662 112.3C63.6662 111.813 63.2386 111.411 62.7266 111.411C62.2095 111.411 61.7869 111.813 61.7869 112.3C61.7869 112.788 62.2095 113.185 62.7266 113.185ZM65.4622 122H66.9487V117.292C66.9487 116.263 67.6696 115.547 68.5147 115.547C69.34 115.547 69.9118 116.094 69.9118 116.924V122H71.3933V117.133C71.3933 116.213 71.9551 115.547 72.9245 115.547C73.71 115.547 74.3564 115.984 74.3564 117.018V122H75.8429V116.879C75.8429 115.134 74.8684 114.264 73.4863 114.264C72.3876 114.264 71.5623 114.791 71.1944 115.607H71.1149C70.7818 114.771 70.0808 114.264 69.0616 114.264C68.0524 114.264 67.3017 114.766 66.9835 115.607H66.889V114.364H65.4622V122ZM81.1264 122.154C82.7919 122.154 83.9702 121.334 84.3082 120.091L82.9013 119.837C82.6328 120.558 81.9865 120.926 81.1413 120.926C79.8686 120.926 79.0135 120.101 78.9737 118.629H84.4027V118.102C84.4027 115.343 82.7521 114.264 81.022 114.264C78.8942 114.264 77.4922 115.885 77.4922 118.232C77.4922 120.603 78.8743 122.154 81.1264 122.154ZM78.9787 117.516C79.0384 116.432 79.8239 115.492 81.032 115.492C82.1854 115.492 82.9411 116.347 82.946 117.516H78.9787ZM87.5385 117.466C87.5385 116.248 88.2843 115.552 89.3184 115.552C90.3276 115.552 90.9391 116.213 90.9391 117.322V122H92.4256V117.143C92.4256 115.254 91.3865 114.264 89.8255 114.264C88.677 114.264 87.9263 114.796 87.5733 115.607H87.4789V114.364H86.052V122H87.5385V117.466ZM97.9838 114.364H96.4178V112.534H94.9313V114.364H93.8127V115.557H94.9313V120.066C94.9263 121.453 95.9853 122.124 97.1586 122.099C97.6309 122.094 97.949 122.005 98.123 121.94L97.8546 120.712C97.7551 120.732 97.5712 120.777 97.3326 120.777C96.8503 120.777 96.4178 120.618 96.4178 119.758V115.557H97.9838V114.364ZM105.227 116.228C104.919 115.04 103.99 114.264 102.339 114.264C100.614 114.264 99.3908 115.174 99.3908 116.526C99.3908 117.61 100.047 118.331 101.479 118.649L102.771 118.933C103.507 119.097 103.85 119.425 103.85 119.902C103.85 120.494 103.219 120.956 102.244 120.956C101.355 120.956 100.783 120.573 100.604 119.822L99.1671 120.041C99.4157 121.393 100.539 122.154 102.254 122.154C104.099 122.154 105.377 121.175 105.377 119.793C105.377 118.714 104.691 118.048 103.289 117.724L102.075 117.446C101.235 117.247 100.872 116.964 100.877 116.447C100.872 115.86 101.509 115.442 102.354 115.442C103.279 115.442 103.706 115.955 103.88 116.467L105.227 116.228ZM113.933 122.154C115.737 122.154 116.906 121.07 117.07 119.584H115.623C115.434 120.409 114.793 120.896 113.943 120.896C112.685 120.896 111.874 119.847 111.874 118.182C111.874 116.546 112.7 115.517 113.943 115.517C114.887 115.517 115.464 116.114 115.623 116.83H117.07C116.911 115.288 115.653 114.264 113.918 114.264C111.765 114.264 110.373 115.885 110.373 118.217C110.373 120.518 111.715 122.154 113.933 122.154ZM118.659 122H120.146V117.337C120.146 116.337 120.917 115.616 121.971 115.616C122.279 115.616 122.627 115.671 122.746 115.706V114.284C122.597 114.264 122.304 114.249 122.115 114.249C121.22 114.249 120.454 114.756 120.176 115.577H120.096V114.364H118.659V122ZM127.05 122.154C128.716 122.154 129.894 121.334 130.232 120.091L128.825 119.837C128.557 120.558 127.91 120.926 127.065 120.926C125.792 120.926 124.937 120.101 124.898 118.629H130.327V118.102C130.327 115.343 128.676 114.264 126.946 114.264C124.818 114.264 123.416 115.885 123.416 118.232C123.416 120.603 124.798 122.154 127.05 122.154ZM124.903 117.516C124.962 116.432 125.748 115.492 126.956 115.492C128.109 115.492 128.865 116.347 128.87 117.516H124.903ZM134.198 122.169C135.461 122.169 136.172 121.528 136.455 120.956H136.515V122H137.967V116.929C137.967 114.707 136.217 114.264 135.004 114.264C133.621 114.264 132.349 114.821 131.852 116.213L133.249 116.531C133.467 115.989 134.024 115.467 135.023 115.467C135.983 115.467 136.475 115.969 136.475 116.835V116.869C136.475 117.411 135.918 117.401 134.546 117.56C133.099 117.729 131.618 118.107 131.618 119.842C131.618 121.344 132.746 122.169 134.198 122.169ZM134.521 120.976C133.681 120.976 133.075 120.598 133.075 119.862C133.075 119.067 133.781 118.783 134.641 118.669C135.123 118.604 136.266 118.475 136.48 118.261V119.246C136.48 120.151 135.759 120.976 134.521 120.976ZM143.511 114.364H141.945V112.534H140.459V114.364H139.34V115.557H140.459V120.066C140.454 121.453 141.513 122.124 142.686 122.099C143.158 122.094 143.476 122.005 143.65 121.94L143.382 120.712C143.282 120.732 143.099 120.777 142.86 120.777C142.378 120.777 141.945 120.618 141.945 119.758V115.557H143.511V114.364ZM148.365 122.154C150.03 122.154 151.208 121.334 151.547 120.091L150.14 119.837C149.871 120.558 149.225 120.926 148.38 120.926C147.107 120.926 146.252 120.101 146.212 118.629H151.641V118.102C151.641 115.343 149.99 114.264 148.26 114.264C146.132 114.264 144.73 115.885 144.73 118.232C144.73 120.603 146.113 122.154 148.365 122.154ZM146.217 117.516C146.277 116.432 147.062 115.492 148.27 115.492C149.424 115.492 150.179 116.347 150.184 117.516H146.217ZM156.149 122.149C157.541 122.149 158.088 121.299 158.356 120.812H158.481V122H159.932V111.818H158.446V115.602H158.356C158.088 115.129 157.581 114.264 156.159 114.264C154.314 114.264 152.957 115.721 152.957 118.197C152.957 120.668 154.295 122.149 156.149 122.149ZM156.477 120.881C155.15 120.881 154.459 119.713 154.459 118.182C154.459 116.665 155.135 115.527 156.477 115.527C157.775 115.527 158.471 116.586 158.471 118.182C158.471 119.788 157.76 120.881 156.477 120.881ZM166.699 124.864C167.927 124.864 168.702 124.222 169.145 123.019L172.302 114.379L170.696 114.364L168.762 120.29H168.682L166.748 114.364H165.157L167.952 122.099L167.768 122.607C167.39 123.621 166.858 123.705 166.042 123.482L165.684 124.7C165.863 124.779 166.251 124.864 166.699 124.864ZM176.72 122.154C178.386 122.154 179.564 121.334 179.902 120.091L178.495 119.837C178.227 120.558 177.58 120.926 176.735 120.926C175.462 120.926 174.607 120.101 174.567 118.629H179.996V118.102C179.996 115.343 178.346 114.264 176.616 114.264C174.488 114.264 173.086 115.885 173.086 118.232C173.086 120.603 174.468 122.154 176.72 122.154ZM174.572 117.516C174.632 116.432 175.418 115.492 176.626 115.492C177.779 115.492 178.535 116.347 178.54 117.516H174.572ZM185.21 114.364H183.644V112.534H182.158V114.364H181.039V115.557H182.158V120.066C182.153 121.453 183.212 122.124 184.385 122.099C184.857 122.094 185.176 122.005 185.35 121.94L185.081 120.712C184.982 120.732 184.798 120.777 184.559 120.777C184.077 120.777 183.644 120.618 183.644 119.758V115.557H185.21V114.364Z" fill="#5F6368"/>
<path d="M40.4261 142C40.0483 139.912 38.3778 138.679 36.3295 138.679C33.7244 138.679 31.8352 140.688 31.8352 143.909C31.8352 147.131 33.7244 149.139 36.3295 149.139C38.3778 149.139 40.0483 147.906 40.4261 145.818H39.1932C38.8949 147.23 37.6818 147.986 36.3295 147.986C34.4801 147.986 33.0284 146.554 33.0284 143.909C33.0284 141.264 34.4801 139.832 36.3295 139.832C37.6818 139.832 38.8949 140.588 39.1932 142H40.4261ZM42.2594 149H43.4327V144.168C43.4327 143.134 44.248 142.378 45.3617 142.378C45.6749 142.378 45.998 142.438 46.0776 142.457V141.264C45.9434 141.254 45.6351 141.244 45.4611 141.244C44.5463 141.244 43.7509 141.761 43.4725 142.517H43.3929V141.364H42.2594V149ZM50.4377 149.159C51.9888 149.159 53.1223 148.384 53.4803 147.23L52.3468 146.912C52.0485 147.707 51.3574 148.105 50.4377 148.105C49.0605 148.105 48.111 147.215 48.0563 145.58H53.5996V145.082C53.5996 142.239 51.9093 141.264 50.3184 141.264C48.2502 141.264 46.878 142.895 46.878 145.241C46.878 147.588 48.2303 149.159 50.4377 149.159ZM48.0563 144.565C48.1358 143.377 48.976 142.318 50.3184 142.318C51.5911 142.318 52.4064 143.273 52.4064 144.565H48.0563ZM57.6316 149.179C58.964 149.179 59.66 148.463 59.8986 147.966H59.9583V149H61.1316V143.969C61.1316 141.543 59.2821 141.264 58.3077 141.264C57.1543 141.264 55.8418 141.662 55.2452 143.054L56.3588 143.452C56.6174 142.895 57.2289 142.298 58.3475 142.298C59.4263 142.298 59.9583 142.87 59.9583 143.849V143.889C59.9583 144.456 59.3816 144.406 57.9895 144.585C56.5726 144.769 55.0265 145.082 55.0265 146.832C55.0265 148.324 56.1799 149.179 57.6316 149.179ZM57.8105 148.125C56.8759 148.125 56.1998 147.707 56.1998 146.892C56.1998 145.997 57.0151 145.719 57.9299 145.599C58.427 145.54 59.7594 145.401 59.9583 145.162V146.236C59.9583 147.19 59.2026 148.125 57.8105 148.125ZM66.5941 141.364H64.9634V139.534H63.7901V141.364H62.6367V142.358H63.7901V147.131C63.7901 148.463 64.864 149.099 65.8583 149.099C66.2958 149.099 66.5742 149.02 66.7333 148.96L66.4947 147.906C66.3952 147.926 66.2362 147.966 65.9776 147.966C65.4606 147.966 64.9634 147.807 64.9634 146.812V142.358H66.5941V141.364ZM71.4787 149.159C73.0298 149.159 74.1634 148.384 74.5213 147.23L73.3878 146.912C73.0895 147.707 72.3984 148.105 71.4787 148.105C70.1016 148.105 69.152 147.215 69.0973 145.58H74.6406V145.082C74.6406 142.239 72.9503 141.264 71.3594 141.264C69.2912 141.264 67.919 142.895 67.919 145.241C67.919 147.588 69.2713 149.159 71.4787 149.159ZM69.0973 144.565C69.1768 143.377 70.017 142.318 71.3594 142.318C72.6321 142.318 73.4474 143.273 73.4474 144.565H69.0973ZM80.522 149H86.7464V147.906H81.755V144.446H86.3487V143.352H81.755V139.912H86.6669V138.818H80.522V149ZM89.6051 141.364H88.2528L90.679 145.182L88.2528 149H89.6051L91.4347 146.037L93.2642 149H94.6165L92.1506 145.182L94.6165 141.364H93.2642L91.4347 144.486L89.6051 141.364ZM96.2907 151.864H97.464V147.827H97.5634C97.8219 148.244 98.3191 149.159 99.7907 149.159C101.7 149.159 103.032 147.628 103.032 145.202C103.032 142.795 101.7 141.264 99.7708 141.264C98.2793 141.264 97.8219 142.179 97.5634 142.577H97.4242V141.364H96.2907V151.864ZM97.4441 145.182C97.4441 143.472 98.1998 142.318 99.6316 142.318C101.123 142.318 101.859 143.571 101.859 145.182C101.859 146.812 101.103 148.105 99.6316 148.105C98.2196 148.105 97.4441 146.912 97.4441 145.182ZM108.024 149.159C109.575 149.159 110.708 148.384 111.066 147.23L109.933 146.912C109.634 147.707 108.943 148.105 108.024 148.105C106.646 148.105 105.697 147.215 105.642 145.58H111.186V145.082C111.186 142.239 109.495 141.264 107.904 141.264C105.836 141.264 104.464 142.895 104.464 145.241C104.464 147.588 105.816 149.159 108.024 149.159ZM105.642 144.565C105.722 143.377 106.562 142.318 107.904 142.318C109.177 142.318 109.992 143.273 109.992 144.565H105.642ZM112.97 149H114.144V144.168C114.144 143.134 114.959 142.378 116.073 142.378C116.386 142.378 116.709 142.438 116.789 142.457V141.264C116.654 141.254 116.346 141.244 116.172 141.244C115.257 141.244 114.462 141.761 114.183 142.517H114.104V141.364H112.97V149ZM118.179 149H119.353V141.364H118.179V149ZM118.776 140.091C119.233 140.091 119.611 139.733 119.611 139.295C119.611 138.858 119.233 138.5 118.776 138.5C118.319 138.5 117.941 138.858 117.941 139.295C117.941 139.733 118.319 140.091 118.776 140.091ZM121.502 149H122.675V144.227C122.675 143.109 123.49 142.318 124.405 142.318C125.295 142.318 125.916 142.9 125.916 143.77V149H127.11V144.028C127.11 143.044 127.726 142.318 128.8 142.318C129.635 142.318 130.351 142.761 130.351 143.889V149H131.524V143.889C131.524 142.094 130.56 141.264 129.198 141.264C128.104 141.264 127.303 141.766 126.911 142.557H126.831C126.453 141.741 125.787 141.264 124.783 141.264C123.789 141.264 123.053 141.741 122.735 142.557H122.635V141.364H121.502V149ZM136.871 149.159C138.422 149.159 139.556 148.384 139.914 147.23L138.78 146.912C138.482 147.707 137.791 148.105 136.871 148.105C135.494 148.105 134.545 147.215 134.49 145.58H140.033V145.082C140.033 142.239 138.343 141.264 136.752 141.264C134.684 141.264 133.312 142.895 133.312 145.241C133.312 147.588 134.664 149.159 136.871 149.159ZM134.49 144.565C134.569 143.377 135.41 142.318 136.752 142.318C138.025 142.318 138.84 143.273 138.84 144.565H134.49ZM142.991 144.406C142.991 143.074 143.817 142.318 144.94 142.318C146.029 142.318 146.69 143.029 146.69 144.227V149H147.863V144.148C147.863 142.199 146.824 141.264 145.278 141.264C144.125 141.264 143.409 141.781 143.051 142.557H142.952V141.364H141.818V149H142.991V144.406ZM153.328 141.364H151.698V139.534H150.525V141.364H149.371V142.358H150.525V147.131C150.525 148.463 151.598 149.099 152.593 149.099C153.03 149.099 153.309 149.02 153.468 148.96L153.229 147.906C153.13 147.926 152.971 147.966 152.712 147.966C152.195 147.966 151.698 147.807 151.698 146.812V142.358H153.328V141.364Z" fill="#0D6EFD"/>
<rect x="36.7539" y="2" width="113" height="93" rx="4" fill="#F3F8FF"/>
<path d="M130.215 56.71C131.35 54.555 132 52.105 132 49.5C132 42.879 127.841 37.243 121.999 35.022C121.999 35.015 122 35.008 122 35C122 23.402 112.598 14 101 14C91.216 14 83.019 20.701 80.687 29.757C79.211 29.272 77.638 29 76 29C68.308 29 61.977 34.793 61.11 42.252C55.906 43.353 52 47.969 52 53.5C52 59.851 57.149 65 63.5 65C63.677 65 63.852 64.988 64.026 64.978C64.022 65.153 64 65.324 64 65.5C64 76.822 73.178 86 84.5 86C90.937 86 96.675 83.028 100.434 78.386C102.612 80.611 105.64 82 109 82C113.65 82 117.674 79.35 119.666 75.482C120.718 75.817 121.837 76 123 76C129.075 76 134 71.075 134 65C134 61.689 132.53 58.727 130.215 56.71Z" fill="#E7F1FF"/>
<path d="M61.405 48H51.5C51.224 48 51 47.776 51 47.5C51 47.224 51.224 47 51.5 47H61.405C61.681 47 61.905 47.224 61.905 47.5C61.905 47.776 61.682 48 61.405 48ZM64.5 48H63.5C63.224 48 63 47.776 63 47.5C63 47.224 63.224 47 63.5 47H64.5C64.776 47 65 47.224 65 47.5C65 47.776 64.777 48 64.5 48ZM69.491 50H60.5C60.224 50 60 49.776 60 49.5C60 49.224 60.224 49 60.5 49H69.491C69.767 49 69.991 49.224 69.991 49.5C69.991 49.776 69.767 50 69.491 50ZM58.5 50H57.5C57.224 50 57 49.776 57 49.5C57 49.224 57.224 49 57.5 49H58.5C58.776 49 59 49.224 59 49.5C59 49.776 58.777 50 58.5 50ZM55.5 50H53.5C53.224 50 53 49.776 53 49.5C53 49.224 53.224 49 53.5 49H55.5C55.776 49 56 49.224 56 49.5C56 49.776 55.777 50 55.5 50ZM61.5 52H59.5C59.224 52 59 51.776 59 51.5C59 51.224 59.224 51 59.5 51H61.5C61.776 51 62 51.224 62 51.5C62 51.776 61.776 52 61.5 52ZM64.5 43C64.323 43 63.677 43 63.5 43C63.224 43 63 43.224 63 43.5C63 43.776 63.224 44 63.5 44C63.677 44 64.323 44 64.5 44C64.776 44 65 43.776 65 43.5C65 43.224 64.776 43 64.5 43ZM64.5 45C64.323 45 59.677 45 59.5 45C59.224 45 59 45.224 59 45.5C59 45.776 59.224 46 59.5 46C59.677 46 64.323 46 64.5 46C64.776 46 65 45.776 65 45.5C65 45.224 64.776 45 64.5 45ZM69.5 47C69.323 47 66.677 47 66.5 47C66.224 47 66 47.224 66 47.5C66 47.776 66.224 48 66.5 48C66.677 48 69.323 48 69.5 48C69.776 48 70 47.776 70 47.5C70 47.224 69.776 47 69.5 47ZM128 64H118C117.724 64 117.5 63.776 117.5 63.5C117.5 63.224 117.724 63 118 63H128C128.276 63 128.5 63.224 128.5 63.5C128.5 63.776 128.276 64 128 64ZM132 64H130C129.724 64 129.5 63.776 129.5 63.5C129.5 63.224 129.724 63 130 63H132C132.276 63 132.5 63.224 132.5 63.5C132.5 63.776 132.276 64 132 64ZM137 66H127C126.724 66 126.5 65.776 126.5 65.5C126.5 65.224 126.724 65 127 65H137C137.276 65 137.5 65.224 137.5 65.5C137.5 65.776 137.277 66 137 66ZM125 66H124C123.724 66 123.5 65.776 123.5 65.5C123.5 65.224 123.724 65 124 65H125C125.276 65 125.5 65.224 125.5 65.5C125.5 65.776 125.276 66 125 66ZM121.875 66H120C119.724 66 119.5 65.776 119.5 65.5C119.5 65.224 119.724 65 120 65H121.875C122.151 65 122.375 65.224 122.375 65.5C122.375 65.776 122.151 66 121.875 66ZM131 62H126C125.724 62 125.5 61.776 125.5 61.5C125.5 61.224 125.724 61 126 61H131C131.276 61 131.5 61.224 131.5 61.5C131.5 61.776 131.277 62 131 62ZM128 68H126C125.724 68 125.5 67.776 125.5 67.5C125.5 67.224 125.724 67 126 67H128C128.276 67 128.5 67.224 128.5 67.5C128.5 67.776 128.276 68 128 68Z" fill="white"/>
<path d="M107.25 38.5C107.25 38.5 105.683 38.5 103.75 38.5C101.817 38.5 100.25 36.933 100.25 35C100.25 33.219 101.585 31.766 103.305 31.545C103.277 31.366 103.25 31.187 103.25 31C103.25 29.067 104.817 27.5 106.75 27.5C107.782 27.5 108.7 27.955 109.34 28.665C109.724 26.857 111.327 25.5 113.25 25.5C115.459 25.5 117.25 27.291 117.25 29.5C117.25 29.691 117.22 29.874 117.194 30.058C117.622 29.714 118.159 29.5 118.75 29.5C119.978 29.5 120.995 30.387 121.205 31.555C121.384 31.527 121.563 31.5 121.75 31.5C123.683 31.5 125.25 33.067 125.25 35C125.25 36.933 123.683 38.5 121.75 38.5C119.817 38.5 114.25 38.5 114.25 38.5V39H107.25V38.5Z" fill="white"/>
<path d="M105.5 34.0002C105.638 34.0002 105.75 33.8882 105.75 33.7502C105.75 32.5272 104.755 31.5322 103.532 31.5322C103.498 31.5412 102.795 31.5312 102.288 31.6682C102.155 31.7042 102.076 31.8412 102.112 31.9742C102.148 32.1082 102.285 32.1872 102.418 32.1502C102.862 32.0302 103.518 32.0302 103.531 32.0322C104.479 32.0322 105.25 32.8032 105.25 33.7502C105.25 33.8882 105.362 34.0002 105.5 34.0002ZM112.25 38.0002C112.117 38.0002 111.99 38.0529 111.896 38.1467C111.803 38.2404 111.75 38.3676 111.75 38.5002C111.75 38.6328 111.803 38.76 111.896 38.8538C111.99 38.9475 112.117 39.0002 112.25 39.0002C112.383 39.0002 112.51 38.9475 112.604 38.8538C112.697 38.76 112.75 38.6328 112.75 38.5002C112.75 38.3676 112.697 38.2404 112.604 38.1467C112.51 38.0529 112.383 38.0002 112.25 38.0002Z" fill="#BDC1C6"/>
<path d="M103.75 39H107.25C107.526 39 107.75 38.776 107.75 38.5C107.75 38.224 107.526 38 107.25 38H103.75C102.096 38 100.75 36.654 100.75 35C100.75 33.504 101.875 32.232 103.368 32.041C103.502 32.023 103.623 31.953 103.704 31.845C103.785 31.737 103.819 31.601 103.798 31.468C103.775 31.314 103.75 31.16 103.75 31C103.75 29.346 105.096 28 106.75 28C107.6 28 108.388 28.355 108.969 29C109.094 29.139 109.29 29.198 109.469 29.148C109.651 29.099 109.79 28.953 109.829 28.769C110.17 27.165 111.609 26 113.25 26C115.18 26 116.75 27.57 116.75 29.5C116.75 29.643 116.729 29.78 116.709 29.918C116.68 30.121 116.772 30.356 116.951 30.458C117.13 30.56 117.347 30.576 117.507 30.448C117.872 30.155 118.301 30 118.75 30C119.716 30 120.542 30.691 120.713 31.644C120.761 31.911 121.009 32.09 121.282 32.049C121.436 32.025 121.59 32 121.75 32C123.404 32 124.75 33.346 124.75 35C124.75 36.654 123.404 38 121.75 38H114.25C113.974 38 113.75 38.224 113.75 38.5C113.75 38.776 113.974 39 114.25 39H121.75C123.956 39 125.75 37.206 125.75 35C125.75 32.794 123.956 31 121.75 31C121.691 31 121.634 31.002 121.576 31.006C121.162 29.82 120.039 29 118.75 29C118.401 29 118.061 29.061 117.739 29.18C117.574 26.847 115.624 25 113.25 25C111.419 25 109.784 26.127 109.097 27.774C108.417 27.276 107.595 27 106.75 27C104.544 27 102.75 28.794 102.75 31C102.75 31.048 102.751 31.095 102.754 31.142C101.011 31.59 99.75 33.169 99.75 35C99.75 37.206 101.544 39 103.75 39Z" fill="#9AA0A6"/>
<path d="M109.25 38C109.409 38 110.091 38 110.25 38C110.526 38 110.75 38.224 110.75 38.5C110.75 38.776 110.526 39 110.25 39C110.091 39 109.409 39 109.25 39C108.974 39 108.75 38.776 108.75 38.5C108.75 38.224 108.974 38 109.25 38Z" fill="#472B29"/>
<path d="M76.521 76.3002C75.517 76.3002 74.7 75.4832 74.7 74.4792V33.5212C74.7 32.5172 75.517 31.7002 76.521 31.7002H108.478C109.482 31.7002 110.299 32.5172 110.299 33.5212V74.4782C110.299 75.4822 109.482 76.2992 108.478 76.2992H76.521V76.3002Z" fill="#85B7FE"/>
<path d="M108.478 32.4C109.097 32.4 109.6 32.903 109.6 33.522V74.478C109.6 75.097 109.097 75.6 108.478 75.6H76.522C75.903 75.6 75.4 75.097 75.4 74.478V33.522C75.4 32.903 75.903 32.4 76.522 32.4H108.478ZM108.478 31H76.522C75.129 31 74 32.129 74 33.522V74.478C74 75.871 75.129 77 76.522 77H108.478C109.871 77 111 75.871 111 74.478V33.522C111 32.129 109.871 31 108.478 31Z" fill="#803C25"/>
<path d="M77.7 72.3002V35.7002H107.3V65.7422L100.491 72.3002H77.7Z" fill="white"/>
<path d="M106.6 36.4V65.445L100.209 71.6H78.4V36.4H106.6ZM108 35H77V73H100.774L108 66.04V35Z" fill="#803C25"/>
<path d="M106.062 66L100.996 70.688L100.967 66H106.062Z" fill="#85B7FE"/>
<path d="M87.208 38.2997C86.377 38.2997 85.7 37.7197 85.7 37.0067V33.7737C85.7 33.0617 86.03 32.9517 86.138 32.9157C86.174 32.9027 86.209 32.8887 86.242 32.8707L90.1489 30.8117C91.2019 30.2967 92.1159 30.0527 93.0089 30.0527C93.9049 30.0527 94.8439 30.2987 95.9609 30.8247L99.827 33.1337C99.86 33.1537 99.894 33.1697 99.93 33.1837C100.288 33.3247 100.298 33.7277 100.298 33.7737V37.0067C100.298 37.7197 99.621 38.2997 98.79 38.2997H87.208Z" fill="#93D3A2"/>
<path d="M93.011 30.7525C93.786 30.7525 94.611 30.9685 95.605 31.4295L99.47 33.7335C99.512 33.7585 99.555 33.7815 99.599 33.8015V37.0055C99.599 37.3265 99.229 37.5985 98.791 37.5985H87.208C86.77 37.5985 86.4 37.3265 86.4 37.0055V33.7715C86.4 33.6705 86.411 33.5985 86.422 33.5545C86.472 33.5345 86.521 33.5125 86.569 33.4875L90.439 31.4485C91.411 30.9735 92.228 30.7525 93.011 30.7525ZM93.011 29.3525C91.984 29.3525 90.968 29.6325 89.824 30.1915L85.917 32.2495C85.187 32.4945 85 33.1875 85 33.7725V37.0065C85 38.1075 85.989 38.9995 87.208 38.9995H98.791C100.011 38.9995 101 38.1075 101 37.0065V33.7725C101 33.3845 100.812 32.7765 100.187 32.5315L96.262 30.1915C95.076 29.6325 94.038 29.3525 93.011 29.3525Z" fill="#803C25"/>
<path d="M93 32C92.7348 32 92.4804 32.1054 92.2929 32.2929C92.1054 32.4804 92 32.7348 92 33C92 33.2652 92.1054 33.5196 92.2929 33.7071C92.4804 33.8946 92.7348 34 93 34C93.2652 34 93.5196 33.8946 93.7071 33.7071C93.8946 33.5196 94 33.2652 94 33C94 32.7348 93.8946 32.4804 93.7071 32.2929C93.5196 32.1054 93.2652 32 93 32Z" fill="#472B29"/>
<path d="M101.2 71.9998H99.8V65.4998C99.8 65.1128 100.113 64.7998 100.5 64.7998H107V66.1998H101.2V71.9998Z" fill="#803C25"/>
<path d="M69 81H63.25C60.765 81.75 58.75 79.735 58.75 77.25C58.75 74.917 60.532 73.021 62.805 72.795C62.783 72.614 62.75 72.437 62.75 72.25C62.75 69.765 64.765 67.75 67.25 67.75C68.688 67.75 69.953 68.436 70.777 69.486C70.917 66.85 73.079 64.75 75.75 64.75C78.511 64.75 80.75 66.989 80.75 69.75C80.75 70.196 80.673 70.62 80.563 71.032C81.205 70.255 82.163 69.75 83.25 69.75C85.031 69.75 86.484 71.085 86.705 72.805C86.886 72.783 87.063 72.75 87.25 72.75C89.735 72.75 91.75 74.765 91.75 77.25C91.75 79.735 89.735 81.75 87.25 81H77.75H72V82H69V81Z" fill="white"/>
<path d="M75.5 64C78.533 64 81 66.467 81 69.5C81 69.516 81 69.531 81 69.547C81.602 69.192 82.29 69 83 69C84.831 69 86.411 70.261 86.858 72.005C86.905 72.002 86.952 72 87 72C90.099 72 92.549 74.834 91.893 78.047C91.413 80.398 89.204 82 86.804 82H72.125C71.849 82 71.625 81.776 71.625 81.5C71.625 81.224 71.849 81 72.125 81H86.843C88.763 81 90.53 79.718 90.914 77.837C91.439 75.267 89.479 73 87 73C86.883 73 86.77 73.017 86.657 73.032L86.516 73.051C86.495 73.054 86.475 73.055 86.454 73.055C86.208 73.055 85.992 72.87 85.959 72.618C85.768 71.125 84.496 70 83 70C82.115 70 81.277 70.401 80.699 71.1C80.601 71.218 80.458 71.282 80.313 71.282C80.235 71.282 80.157 71.264 80.085 71.226C79.876 71.119 79.771 70.88 79.831 70.653C79.991 70.053 80.033 69.584 79.978 69.104C79.738 66.977 78.019 65.195 75.886 65.016C73.335 64.801 71.161 66.744 71.027 69.262C71.016 69.47 70.877 69.649 70.678 69.712C70.628 69.728 70.577 69.736 70.526 69.736C70.376 69.736 70.23 69.667 70.134 69.544C69.362 68.563 68.221 68 67 68C64.794 68 63 69.794 63 72C63 72.117 63.017 72.23 63.032 72.343L63.051 72.484C63.067 72.618 63.029 72.752 62.945 72.857C62.861 72.962 62.738 73.029 62.605 73.042C60.253 73.276 58.563 75.471 59.101 77.907C59.509 79.76 61.275 81 63.173 81H69.125C69.401 81 69.625 81.224 69.625 81.5C69.625 81.776 69.401 82 69.125 82H63.187C60.72 82 58.479 80.296 58.072 77.862C57.61 75.099 59.416 72.642 62.003 72.122C62.001 72.082 62 72.041 62 72C62 69.243 64.243 67 67 67C68.176 67 69.293 67.416 70.183 68.164C70.781 65.76 72.945 64 75.5 64Z" fill="#9AA0A6"/>
<path d="M77.2501 71.25C78.6531 71.25 79.8591 72.249 80.1631 73.591C80.5301 73.369 80.9491 73.25 81.3751 73.25C82.5771 73.25 83.5731 74.147 83.7281 75.318C83.9311 75.273 84.1241 75.25 84.3131 75.25C85.8421 75.25 87.1241 76.45 87.2311 77.982C87.2401 78.12 87.1371 78.239 86.9991 78.249C86.9931 78.249 86.9871 78.249 86.9811 78.249C86.8511 78.249 86.7411 78.148 86.7321 78.017C86.6431 76.746 85.5811 75.749 84.3131 75.749C84.0841 75.749 83.8431 75.791 83.5751 75.876C83.5531 75.883 83.5301 75.886 83.5081 75.886C83.4531 75.886 83.3981 75.866 83.3521 75.832C83.2881 75.785 83.2501 75.703 83.2501 75.623C83.2501 74.589 82.4091 73.748 81.3751 73.748C80.9281 73.748 80.4901 73.916 80.1441 74.221C80.0971 74.262 80.0381 74.284 79.9791 74.284C79.9471 74.284 79.9161 74.278 79.8861 74.265C79.7981 74.23 79.7381 74.148 79.7311 74.053C79.6291 72.761 78.5401 71.748 77.2521 71.748C77.0441 71.748 76.8271 71.782 76.5701 71.855C76.5471 71.862 76.5231 71.865 76.5001 71.865C76.3911 71.865 76.2931 71.792 76.2611 71.683C76.2231 71.55 76.3001 71.412 76.4331 71.374C76.7331 71.29 76.9941 71.25 77.2501 71.25ZM63.3671 72.75C64.6931 72.75 65.8751 73.647 66.2411 74.932C66.2791 75.065 66.2021 75.203 66.0691 75.241C66.0461 75.248 66.0231 75.251 66.0011 75.251C65.8921 75.251 65.7921 75.179 65.7611 75.069C65.4561 73.998 64.4721 73.251 63.3681 73.251C63.2511 73.251 63.1381 73.265 63.0261 73.28C63.0141 73.282 63.0031 73.283 62.9911 73.283C62.8701 73.283 62.7621 73.191 62.7451 73.066C62.7261 72.929 62.8221 72.803 62.9591 72.785C63.0921 72.766 63.2281 72.75 63.3671 72.75Z" fill="#BDC1C6"/>
<path d="M93.9 47.5C93.9 48.2732 93.2732 48.9 92.5 48.9C91.7268 48.9 91.1 48.2732 91.1 47.5C91.1 46.7268 91.7268 46.1 92.5 46.1C93.2732 46.1 93.9 46.7268 93.9 47.5Z" fill="#FFF1ED" stroke="#FFBCA5" stroke-width="0.2"/>
<path d="M94.9 43C94.9 43.4971 94.4971 43.9 94 43.9C93.5029 43.9 93.1 43.4971 93.1 43C93.1 42.5029 93.5029 42.1 94 42.1C94.4971 42.1 94.9 42.5029 94.9 43Z" fill="#FFF1ED" stroke="#FFBCA5" stroke-width="0.2"/>
<path d="M90.9 42C90.9 42.4971 90.4971 42.9 90 42.9C89.5029 42.9 89.1 42.4971 89.1 42C89.1 41.5029 89.5029 41.1 90 41.1C90.4971 41.1 90.9 41.5029 90.9 42Z" fill="#FFF1ED" stroke="#FFBCA5" stroke-width="0.2"/>
<path d="M99.6238 61.3433L99.6273 61.3425L95.6256 54.1176V51.6471H96.5007C96.9837 51.6471 97.3757 51.2781 97.3757 50.8235C97.3757 50.3689 96.9837 50 96.5007 50H95.6256H90.3752H89.5002C89.0171 50 88.6251 50.3689 88.6251 50.8235C88.6251 51.2781 89.0171 51.6471 89.5002 51.6471H90.3752V54.1176L86.3736 61.3425L86.3771 61.3433C86.1548 61.6101 86.013 61.9387 86.0008 62.3011C85.9693 63.2358 86.882 64 87.8752 64H98.1248C99.118 64 100.032 63.2358 99.9992 62.3011C99.9878 61.9387 99.846 61.6101 99.6238 61.3433Z" fill="#FFBCA5"/>
</svg>
