<svg width="234" height="326" viewBox="0 0 234 326" fill="none" xmlns="http://www.w3.org/2000/svg">
<path d="M0.375 3.99999C0.375 1.99796 1.99797 0.375 4 0.375H230C232.002 0.375 233.625 1.99797 233.625 4V322C233.625 324.002 232.002 325.625 230 325.625H4C1.99797 325.625 0.375 324.002 0.375 322V3.99999Z" fill="white" stroke="#E4E5E7" stroke-width="0.75"/>
<rect x="3.375" y="304.375" width="227.25" height="18.25" rx="3.625" fill="white"/>
<path fill-rule="evenodd" clip-rule="evenodd" d="M18.4732 309.35C16.196 309.35 14.35 311.201 14.35 313.484C14.35 315.768 16.196 317.619 18.4732 317.619C19.469 317.619 20.3824 317.265 21.095 316.675L23.0066 318.568L23.0351 318.594C23.192 318.722 23.4235 318.712 23.5686 318.565C23.7229 318.408 23.7213 318.156 23.5652 318.001L21.6569 316.112C22.2439 315.397 22.5964 314.482 22.5964 313.484C22.5964 311.201 20.7504 309.35 18.4732 309.35ZM18.4732 310.147C20.3114 310.147 21.8015 311.641 21.8015 313.484C21.8015 315.327 20.3114 316.822 18.4732 316.822C16.635 316.822 15.1448 315.327 15.1448 313.484C15.1448 311.641 16.635 310.147 18.4732 310.147Z" fill="#BDC1C6"/>
<path d="M34.858 311.545H35.7102C35.6712 310.448 34.6591 309.628 33.2528 309.628C31.8608 309.628 30.767 310.438 30.767 311.659C30.767 312.639 31.4773 313.222 32.6136 313.548L33.5085 313.804C34.2756 314.017 34.9574 314.287 34.9574 315.011C34.9574 315.807 34.1903 316.332 33.1818 316.332C32.3153 316.332 31.5483 315.949 31.4773 315.125H30.5682C30.6534 316.318 31.6193 317.128 33.1818 317.128C34.858 317.128 35.8097 316.205 35.8097 315.026C35.8097 313.662 34.517 313.222 33.7642 313.023L33.0256 312.824C32.4858 312.682 31.6193 312.398 31.6193 311.616C31.6193 310.92 32.2585 310.409 33.2244 310.409C34.1051 310.409 34.7727 310.828 34.858 311.545ZM39.4309 317.114C40.5389 317.114 41.3485 316.56 41.6042 315.736L40.7946 315.509C40.5815 316.077 40.0879 316.361 39.4309 316.361C38.4473 316.361 37.769 315.725 37.7299 314.557H41.6895V314.202C41.6895 312.17 40.4821 311.474 39.3457 311.474C37.8684 311.474 36.8883 312.639 36.8883 314.315C36.8883 315.991 37.8542 317.114 39.4309 317.114ZM37.7299 313.832C37.7868 312.984 38.3869 312.227 39.3457 312.227C40.2548 312.227 40.8372 312.909 40.8372 313.832H37.7299ZM44.5694 317.128C45.5211 317.128 46.0183 316.616 46.1887 316.261H46.2314V317H47.0694V313.406C47.0694 311.673 45.7484 311.474 45.0524 311.474C44.2285 311.474 43.291 311.759 42.8649 312.753L43.6603 313.037C43.845 312.639 44.2818 312.213 45.0808 312.213C45.8514 312.213 46.2314 312.621 46.2314 313.321V313.349C46.2314 313.754 45.8194 313.719 44.8251 313.847C43.813 313.978 42.7086 314.202 42.7086 315.452C42.7086 316.517 43.5325 317.128 44.5694 317.128ZM44.6973 316.375C44.0297 316.375 43.5467 316.077 43.5467 315.494C43.5467 314.855 44.1291 314.656 44.7825 314.571C45.1376 314.528 46.0893 314.429 46.2314 314.259V315.026C46.2314 315.707 45.6916 316.375 44.6973 316.375ZM48.5991 317H49.4371V313.548C49.4371 312.81 50.0195 312.27 50.815 312.27C51.0387 312.27 51.2695 312.312 51.3263 312.327V311.474C51.2305 311.467 51.0103 311.46 50.886 311.46C50.2326 311.46 49.6644 311.83 49.4656 312.369H49.4087V311.545H48.5991V317ZM54.3697 317.114C55.5771 317.114 56.3725 316.375 56.5146 315.409H55.6765C55.5202 316.006 55.0231 316.361 54.3697 316.361C53.3754 316.361 52.7362 315.537 52.7362 314.273C52.7362 313.037 53.3896 312.227 54.3697 312.227C55.1083 312.227 55.5487 312.682 55.6765 313.179H56.5146C56.3725 312.156 55.506 311.474 54.3555 311.474C52.8782 311.474 51.8981 312.639 51.8981 314.301C51.8981 315.935 52.8356 317.114 54.3697 317.114ZM58.5778 313.719C58.5778 312.767 59.185 312.227 60.0124 312.227C60.8008 312.227 61.2766 312.724 61.2766 313.591V317H62.1147V313.534C62.1147 312.131 61.369 311.474 60.2539 311.474C59.3945 311.474 58.9045 311.833 58.6488 312.398H58.5778V309.727H57.7397V317H58.5778V313.719Z" fill="#BDC1C6"/>
<rect x="3.375" y="304.375" width="227.25" height="18.25" rx="3.625" stroke="#E4E5E7" stroke-width="0.75"/>
<rect opacity="0.6" x="89" y="34" width="137" height="27" rx="1" fill="#EFF0F1"/>
<rect opacity="0.6" x="8" y="72" width="95" height="27" rx="1" fill="#EFF0F1"/>
<rect opacity="0.6" x="8" y="126" width="218" height="21" rx="1" fill="#EFF0F1"/>
<rect opacity="0.6" x="8" y="150" width="218" height="21" rx="1" fill="#EFF0F1"/>
<rect opacity="0.6" x="8" y="174" width="218" height="21" rx="1" fill="#EFF0F1"/>
<rect opacity="0.6" x="8" y="222" width="90" height="21" rx="1" fill="#EFF0F1"/>
<rect opacity="0.6" x="103" y="222" width="90" height="21" rx="1" fill="#EFF0F1"/>
<path d="M9.13068 213L9.66477 211.46H11.9375L12.4688 213H13.4006L11.3068 207.182H10.2926L8.19886 213H9.13068ZM9.92045 210.722L10.7784 208.239H10.8239L11.6818 210.722H9.92045ZM18.7997 209.074C18.6009 207.83 17.6264 207.102 16.3963 207.102C14.8906 207.102 13.7798 208.23 13.7798 210.091C13.7798 211.952 14.8849 213.08 16.3963 213.08C17.6747 213.08 18.6094 212.278 18.7997 211.128L17.9134 211.125C17.7628 211.869 17.1378 212.278 16.402 212.278C15.4048 212.278 14.652 211.514 14.652 210.091C14.652 208.679 15.402 207.903 16.4048 207.903C17.1463 207.903 17.7685 208.321 17.9134 209.074H18.7997ZM19.5632 207.938H21.3757V213H22.2507V207.938H24.0661V207.182H19.5632V207.938ZM25.9389 207.182H25.0611V213H25.9389V207.182ZM32.2713 210.091C32.2713 208.23 31.1577 207.102 29.652 207.102C28.1406 207.102 27.0298 208.23 27.0298 210.091C27.0298 211.949 28.1406 213.08 29.652 213.08C31.1577 213.08 32.2713 211.952 32.2713 210.091ZM31.402 210.091C31.402 211.509 30.652 212.278 29.652 212.278C28.6491 212.278 27.902 211.509 27.902 210.091C27.902 208.673 28.6491 207.903 29.652 207.903C30.652 207.903 31.402 208.673 31.402 210.091ZM38.0618 207.182H37.1925V211.455H37.1385L34.1783 207.182H33.3658V213H34.2436V208.733H34.2976L37.255 213H38.0618V207.182ZM42.5156 208.71H43.3622C43.3366 207.778 42.5128 207.102 41.331 207.102C40.1634 207.102 39.2685 207.77 39.2685 208.773C39.2685 209.582 39.848 210.057 40.7827 210.31L41.4702 210.497C42.0923 210.662 42.5724 210.866 42.5724 211.384C42.5724 211.952 42.0298 212.327 41.2827 212.327C40.6065 212.327 40.044 212.026 39.9929 211.392H39.1122C39.169 212.446 39.9844 213.097 41.2884 213.097C42.6548 213.097 43.4418 212.378 43.4418 211.392C43.4418 210.344 42.5071 209.938 41.7685 209.756L41.2003 209.608C40.7457 209.491 40.1406 209.278 40.1435 208.722C40.1435 208.227 40.5952 207.861 41.3111 207.861C41.9787 207.861 42.4531 208.173 42.5156 208.71Z" fill="#5F6368"/>
<path d="M8.6392 117H9.51705V114.955H10.7102C12.0597 114.955 12.7273 114.139 12.7273 113.065C12.7273 111.994 12.0653 111.182 10.7131 111.182H8.6392V117ZM9.51705 114.21V111.935H10.6193C11.4886 111.935 11.8438 112.406 11.8438 113.065C11.8438 113.724 11.4886 114.21 10.6307 114.21H9.51705ZM13.6307 117L14.1648 115.46H16.4375L16.9688 117H17.9006L15.8068 111.182H14.7926L12.6989 117H13.6307ZM14.4205 114.722L15.2784 112.239H15.3239L16.1818 114.722H14.4205ZM22.4048 113.02H23.3054C23.1094 111.886 22.1406 111.102 20.8849 111.102C19.3793 111.102 18.2798 112.236 18.2798 114.094C18.2798 115.935 19.348 117.08 20.9247 117.08C22.3366 117.08 23.3452 116.153 23.3452 114.685V114.023H21.0582V114.747H22.4957C22.4759 115.685 21.8565 116.278 20.9247 116.278C19.8991 116.278 19.152 115.503 19.152 114.088C19.152 112.679 19.9048 111.903 20.8906 111.903C21.6634 111.903 22.1861 112.33 22.4048 113.02ZM24.4595 117H28.1413V116.244H25.3374V114.463H27.9169V113.71H25.3374V111.938H28.1072V111.182H24.4595V117ZM32.4531 112.71H33.2997C33.2741 111.778 32.4503 111.102 31.2685 111.102C30.1009 111.102 29.206 111.77 29.206 112.773C29.206 113.582 29.7855 114.057 30.7202 114.31L31.4077 114.497C32.0298 114.662 32.5099 114.866 32.5099 115.384C32.5099 115.952 31.9673 116.327 31.2202 116.327C30.544 116.327 29.9815 116.026 29.9304 115.392H29.0497C29.1065 116.446 29.9219 117.097 31.2259 117.097C32.5923 117.097 33.3793 116.378 33.3793 115.392C33.3793 114.344 32.4446 113.938 31.706 113.756L31.1378 113.608C30.6832 113.491 30.0781 113.278 30.081 112.722C30.081 112.227 30.5327 111.861 31.2486 111.861C31.9162 111.861 32.3906 112.173 32.4531 112.71Z" fill="#5F6368"/>
<path d="M0 27H234" stroke="#EFF0F1"/>
<g filter="url(#filter0_d)">
<rect x="8" y="251" width="135" height="34" rx="4" fill="#202124"/>
<path d="M24.6513 272L25.2514 270.207H27.9858L28.5895 272H29.9957L27.4318 264.727H25.8054L23.245 272H24.6513ZM25.6065 269.148L26.5902 266.219H26.647L27.6307 269.148H25.6065ZM33.1101 272.107C34.4808 272.107 35.3544 271.293 35.4467 270.136H34.218C34.108 270.722 33.6854 271.059 33.1207 271.059C32.3182 271.059 31.7997 270.388 31.7997 269.273C31.7997 268.172 32.3288 267.511 33.1207 267.511C33.7386 267.511 34.1186 267.909 34.218 268.435H35.4467C35.358 267.252 34.4347 266.474 33.103 266.474C31.505 266.474 30.4964 267.629 30.4964 269.294C30.4964 270.945 31.4801 272.107 33.1101 272.107ZM39.226 266.545H38.15V265.239H36.8645V266.545H36.0904V267.54H36.8645V270.572C36.8574 271.599 37.6032 272.103 38.5691 272.075C38.9348 272.064 39.187 271.993 39.3255 271.947L39.1088 270.942C39.0378 270.96 38.8922 270.991 38.7324 270.991C38.4093 270.991 38.15 270.878 38.15 270.359V267.54H39.226V266.545ZM40.3011 272H41.5866V266.545H40.3011V272ZM40.9474 265.771C41.3558 265.771 41.6896 265.459 41.6896 265.075C41.6896 264.688 41.3558 264.376 40.9474 264.376C40.5355 264.376 40.2017 264.688 40.2017 265.075C40.2017 265.459 40.5355 265.771 40.9474 265.771ZM45.2878 272.107C46.8858 272.107 47.9015 270.981 47.9015 269.294C47.9015 267.604 46.8858 266.474 45.2878 266.474C43.6898 266.474 42.6742 267.604 42.6742 269.294C42.6742 270.981 43.6898 272.107 45.2878 272.107ZM45.2949 271.077C44.4107 271.077 43.9775 270.288 43.9775 269.29C43.9775 268.293 44.4107 267.494 45.2949 267.494C46.165 267.494 46.5982 268.293 46.5982 269.29C46.5982 270.288 46.165 271.077 45.2949 271.077ZM50.2781 268.804C50.2781 268.016 50.7539 267.561 51.4322 267.561C52.0962 267.561 52.494 267.998 52.494 268.726V272H53.7795V268.527C53.783 267.22 53.0373 266.474 51.9116 266.474C51.0948 266.474 50.5337 266.865 50.2852 267.472H50.2212V266.545H48.9925V272H50.2781V268.804ZM59.3974 267.987C59.2198 267.064 58.4812 266.474 57.2028 266.474C55.8888 266.474 54.994 267.121 54.9975 268.129C54.994 268.925 55.484 269.45 56.5316 269.667L57.462 269.862C57.9627 269.972 58.1971 270.175 58.1971 270.484C58.1971 270.857 57.7923 271.137 57.1815 271.137C56.592 271.137 56.2085 270.881 56.0984 270.391L54.8448 270.512C55.0046 271.513 55.8462 272.107 57.185 272.107C58.5487 272.107 59.511 271.4 59.5146 270.366C59.511 269.589 59.0103 269.113 57.9805 268.889L57.0501 268.69C56.4961 268.566 56.2759 268.374 56.2795 268.058C56.2759 267.689 56.6843 267.433 57.2205 267.433C57.8136 267.433 58.1261 267.756 58.2255 268.115L59.3974 267.987ZM64.6246 272.11C65.4805 272.11 65.9918 271.709 66.2262 271.251H66.2688V272H67.5046V268.349C67.5046 266.908 66.3292 266.474 65.2887 266.474C64.1417 266.474 63.261 266.986 62.9769 267.98L64.1772 268.151C64.305 267.778 64.6673 267.458 65.2958 267.458C65.8924 267.458 66.2191 267.763 66.2191 268.3V268.321C66.2191 268.69 65.832 268.708 64.8697 268.811C63.8114 268.925 62.7994 269.241 62.7994 270.469C62.7994 271.542 63.5842 272.11 64.6246 272.11ZM64.9585 271.165C64.4222 271.165 64.0387 270.92 64.0387 270.448C64.0387 269.955 64.4684 269.749 65.0437 269.667C65.381 269.621 66.0558 269.536 66.2227 269.401V270.043C66.2227 270.651 65.7326 271.165 64.9585 271.165ZM71.521 266.545H70.445V265.239H69.1594V266.545H68.3853V267.54H69.1594V270.572C69.1523 271.599 69.8981 272.103 70.864 272.075C71.2298 272.064 71.4819 271.993 71.6204 271.947L71.4038 270.942C71.3327 270.96 71.1871 270.991 71.0273 270.991C70.7042 270.991 70.445 270.878 70.445 270.359V267.54H71.521V266.545ZM77.8002 266.545H76.7243V265.239H75.4387V266.545H74.6646V267.54H75.4387V270.572C75.4316 271.599 76.1774 272.103 77.1433 272.075C77.5091 272.064 77.7612 271.993 77.8997 271.947L77.6831 270.942C77.612 270.96 77.4664 270.991 77.3066 270.991C76.9835 270.991 76.7243 270.878 76.7243 270.359V267.54H77.8002V266.545ZM80.2781 268.804C80.2781 268.016 80.7681 267.561 81.457 267.561C82.1317 267.561 82.5295 267.991 82.5295 268.726V272H83.815V268.527C83.815 267.21 83.0692 266.474 81.9364 266.474C81.0984 266.474 80.5657 266.854 80.3136 267.472H80.2496V264.727H78.9925V272H80.2781V268.804ZM87.5401 272.107C88.8114 272.107 89.685 271.485 89.9123 270.537L88.712 270.402C88.538 270.864 88.1119 271.105 87.5579 271.105C86.7269 271.105 86.1765 270.558 86.1658 269.624H89.9656V269.23C89.9656 267.316 88.815 266.474 87.4727 266.474C85.9102 266.474 84.891 267.621 84.891 269.305C84.891 271.016 85.896 272.107 87.5401 272.107ZM86.1694 268.758C86.2085 268.062 86.7234 267.476 87.4904 267.476C88.229 267.476 88.7262 268.016 88.7333 268.758H86.1694ZM93.5904 272H94.8546V271.141H94.9292C95.1316 271.538 95.5542 272.096 96.4917 272.096C97.7772 272.096 98.7395 271.077 98.7395 269.28C98.7395 267.462 97.7488 266.474 96.4881 266.474C95.5257 266.474 95.1245 267.053 94.9292 267.447H94.8759V264.727H93.5904V272ZM94.851 269.273C94.851 268.214 95.3056 267.529 96.133 267.529C96.9888 267.529 97.4292 268.257 97.4292 269.273C97.4292 270.295 96.9817 271.041 96.133 271.041C95.3127 271.041 94.851 270.331 94.851 269.273ZM102.212 272.107C103.81 272.107 104.825 270.981 104.825 269.294C104.825 267.604 103.81 266.474 102.212 266.474C100.614 266.474 99.598 267.604 99.598 269.294C99.598 270.981 100.614 272.107 102.212 272.107ZM102.219 271.077C101.335 271.077 100.901 270.288 100.901 269.29C100.901 268.293 101.335 267.494 102.219 267.494C103.089 267.494 103.522 268.293 103.522 269.29C103.522 270.288 103.089 271.077 102.219 271.077ZM108.64 266.545H107.564V265.239H106.279V266.545H105.504V267.54H106.279V270.572C106.271 271.599 107.017 272.103 107.983 272.075C108.349 272.064 108.601 271.993 108.74 271.947L108.523 270.942C108.452 270.96 108.306 270.991 108.146 270.991C107.823 270.991 107.564 270.878 107.564 270.359V267.54H108.64V266.545ZM112.439 266.545H111.363V265.239H110.077V266.545H109.303V267.54H110.077V270.572C110.07 271.599 110.816 272.103 111.782 272.075C112.148 272.064 112.4 271.993 112.538 271.947L112.322 270.942C112.251 270.96 112.105 270.991 111.945 270.991C111.622 270.991 111.363 270.878 111.363 270.359V267.54H112.439V266.545ZM115.835 272.107C117.433 272.107 118.448 270.981 118.448 269.294C118.448 267.604 117.433 266.474 115.835 266.474C114.237 266.474 113.221 267.604 113.221 269.294C113.221 270.981 114.237 272.107 115.835 272.107ZM115.842 271.077C114.958 271.077 114.524 270.288 114.524 269.29C114.524 268.293 114.958 267.494 115.842 267.494C116.712 267.494 117.145 268.293 117.145 269.29C117.145 270.288 116.712 271.077 115.842 271.077ZM119.539 272H120.825V268.683C120.825 268.012 121.272 267.558 121.826 267.558C122.37 267.558 122.743 267.923 122.743 268.484V272H124.003V268.598C124.003 267.984 124.369 267.558 124.99 267.558C125.509 267.558 125.921 267.863 125.921 268.538V272H127.21V268.339C127.21 267.121 126.507 266.474 125.505 266.474C124.713 266.474 124.11 266.865 123.868 267.472H123.811C123.602 266.854 123.073 266.474 122.338 266.474C121.606 266.474 121.059 266.851 120.832 267.472H120.768V266.545H119.539V272Z" fill="white"/>
</g>
<rect x="28" y="244" width="9.89949" height="9.8995" transform="rotate(45 28 244)" fill="#202124"/>
<defs>
<filter id="filter0_d" x="4" y="251" width="143" height="42" filterUnits="userSpaceOnUse" color-interpolation-filters="sRGB">
<feFlood flood-opacity="0" result="BackgroundImageFix"/>
<feColorMatrix in="SourceAlpha" type="matrix" values="0 0 0 0 0 0 0 0 0 0 0 0 0 0 0 0 0 0 127 0"/>
<feOffset dy="4"/>
<feGaussianBlur stdDeviation="2"/>
<feColorMatrix type="matrix" values="0 0 0 0 0.12549 0 0 0 0 0.129412 0 0 0 0 0.141176 0 0 0 0.2 0"/>
<feBlend mode="normal" in2="BackgroundImageFix" result="effect1_dropShadow"/>
<feBlend mode="normal" in="SourceGraphic" in2="effect1_dropShadow" result="shape"/>
</filter>
</defs>
</svg>
