<svg width="13" height="14" viewBox="0 0 13 14" fill="none" xmlns="http://www.w3.org/2000/svg">
<path d="M5.49951 0C4.67529 0 3.99951 0.675781 3.99951 1.5L4.00342 7.88281L2.56201 6.4375C1.97998 5.85547 1.01904 5.85938 0.437013 6.4375C-0.145018 7.01953 -0.141112 7.98047 0.437013 8.5625L4.03076 12.1523C5.21436 13.3359 6.82373 14.0039 8.49951 14C10.98 14 12.9995 11.9805 12.9995 9.5V6.5C12.9995 5.67578 12.3237 5 11.4995 5C11.3042 5 11.1128 5.03906 10.9409 5.10938C10.7651 4.47656 10.187 4 9.49951 4C9.1167 4 8.76514 4.15234 8.49951 4.39062C8.23389 4.15234 7.88233 4 7.49951 4C7.32373 4 7.15576 4.03906 6.99951 4.09375V1.5C6.99951 0.675781 6.32373 0 5.49951 0ZM5.49951 1C5.78076 1 5.99951 1.21875 5.99951 1.5V7H6.99951V5.5C6.99951 5.21875 7.21826 5 7.49951 5C7.78076 5 7.99951 5.21875 7.99951 5.5V7H8.99951V5.5C8.99951 5.21875 9.21826 5 9.49951 5C9.78076 5 9.99951 5.21875 9.99951 5.5V7H10.9995V6.5C10.9995 6.21875 11.2183 6 11.4995 6C11.7808 6 11.9995 6.21875 11.9995 6.5V9.5C11.9995 11.4414 10.4409 13 8.49951 13C7.08936 13.0039 5.73389 12.4414 4.73389 11.4414L1.14795 7.85156C0.944826 7.65234 0.944826 7.34375 1.14795 7.14844C1.34717 6.94531 1.65576 6.94531 1.85108 7.14844L5.00342 10.2969L4.99951 1.5C4.99951 1.21875 5.21826 1 5.49951 1Z" fill="#9AA0A6"/>
</svg>
