<svg width="13" height="13" viewBox="0 0 13 13" fill="none" xmlns="http://www.w3.org/2000/svg">
<path d="M-2.18557e-07 8C-1.94652e-07 8.54688 0.453125 9 1 9L4 9C4.54687 9 5 8.54687 5 8L5 7L6 7L6 9.5C6 10.3242 6.67578 11 7.5 11L8 11L8 12C8 12.5469 8.45312 13 9 13L12 13C12.5469 13 13 12.5469 13 12L13 9C13 8.45312 12.5469 8 12 8L9 8C8.45312 8 8 8.45312 8 9L8 10L7.5 10C7.21875 10 7 9.78125 7 9.5L7 3.5C7 3.21875 7.21875 3 7.5 3L8 3L8 4C8 4.54687 8.45312 5 9 5L12 5C12.5469 5 13 4.54687 13 4L13 0.999999C13 0.453124 12.5469 -5.48441e-07 12 -5.24537e-07L9 -3.93402e-07C8.45312 -3.69498e-07 8 0.453125 8 1L8 2L7.5 2C6.67578 2 6 2.67578 6 3.5L6 6L5 6L5 5C5 4.45312 4.54687 4 4 4L0.999999 4C0.453125 4 -3.73596e-07 4.45312 -3.49691e-07 5L-2.18557e-07 8ZM1 8L1 5L4 5L4 8L1 8ZM9 12L9 9L12 9L12 12L9 12ZM9 4L9 1L12 0.999999L12 4L9 4Z" fill="#5F6368"/>
</svg>
