<svg width="14" height="14" viewBox="0 0 14 14" fill="none" xmlns="http://www.w3.org/2000/svg">
<path d="M7 0C3.14243 0 0 3.13829 0 6.99789V7.52094H1.07692V6.99789C1.07692 3.72462 3.72296 1.07984 7 1.07984C8.75841 1.07984 10.3275 1.85176 11.4087 3.06659L10.1929 4.28141H14V0.47665L12.1701 2.3031C10.8912 0.894245 9.05289 0 7 0ZM12.9231 6.4411V6.98102C12.9231 10.2669 10.277 12.9202 7 12.9202C5.23317 12.9202 3.66406 12.1398 2.57873 10.9123L3.80709 9.68063H0V13.498L1.81731 11.6758C3.10036 13.0973 4.94291 14 7 14C10.8618 14 14 10.8533 14 6.98102V6.4411H12.9231Z" fill="#0D6EFD"/>
</svg>
