<svg width="460" height="233" viewBox="0 0 460 233" fill="none" xmlns="http://www.w3.org/2000/svg">
<rect x="0.375" y="0.375" width="459.25" height="25.25" rx="3.625" fill="white"/>
<path fill-rule="evenodd" clip-rule="evenodd" d="M15.4733 8.3501C13.1961 8.3501 11.3501 10.201 11.3501 12.4843C11.3501 14.7676 13.1961 16.6185 15.4733 16.6185C16.4691 16.6185 17.3825 16.2645 18.0951 15.6752L20.0067 17.5685L20.0352 17.5941C20.1922 17.7224 20.4236 17.7123 20.5688 17.565C20.723 17.4084 20.7214 17.1561 20.5653 17.0014L18.657 15.1116C19.244 14.3973 19.5965 13.4821 19.5965 12.4843C19.5965 10.201 17.7505 8.3501 15.4733 8.3501ZM15.4733 9.14705C17.3115 9.14705 18.8017 10.6412 18.8017 12.4843C18.8017 14.3274 17.3115 15.8216 15.4733 15.8216C13.6351 15.8216 12.1449 14.3274 12.1449 12.4843C12.1449 10.6412 13.6351 9.14705 15.4733 9.14705Z" fill="#BDC1C6"/>
<path d="M34.858 11.5455H35.7102C35.6712 10.4482 34.6591 9.62784 33.2528 9.62784C31.8608 9.62784 30.767 10.4375 30.767 11.6591C30.767 12.6392 31.4773 13.2216 32.6136 13.5483L33.5085 13.804C34.2756 14.017 34.9574 14.2869 34.9574 15.0114C34.9574 15.8068 34.1903 16.3324 33.1818 16.3324C32.3153 16.3324 31.5483 15.9489 31.4773 15.125H30.5682C30.6534 16.3182 31.6193 17.1278 33.1818 17.1278C34.858 17.1278 35.8097 16.2045 35.8097 15.0256C35.8097 13.6619 34.517 13.2216 33.7642 13.0227L33.0256 12.8239C32.4858 12.6818 31.6193 12.3977 31.6193 11.6165C31.6193 10.9205 32.2585 10.4091 33.2244 10.4091C34.1051 10.4091 34.7727 10.8281 34.858 11.5455ZM39.4309 17.1136C40.5389 17.1136 41.3485 16.5597 41.6042 15.7358L40.7946 15.5085C40.5815 16.0767 40.0879 16.3608 39.4309 16.3608C38.4473 16.3608 37.769 15.7251 37.7299 14.5568H41.6895V14.2017C41.6895 12.1705 40.4821 11.4744 39.3457 11.4744C37.8684 11.4744 36.8883 12.6392 36.8883 14.3153C36.8883 15.9915 37.8542 17.1136 39.4309 17.1136ZM37.7299 13.8324C37.7868 12.9837 38.3869 12.2273 39.3457 12.2273C40.2548 12.2273 40.8372 12.9091 40.8372 13.8324H37.7299ZM44.5694 17.1278C45.5211 17.1278 46.0183 16.6165 46.1887 16.2614H46.2314V17H47.0694V13.4062C47.0694 11.6733 45.7484 11.4744 45.0524 11.4744C44.2285 11.4744 43.291 11.7585 42.8649 12.7528L43.6603 13.0369C43.845 12.6392 44.2818 12.2131 45.0808 12.2131C45.8514 12.2131 46.2314 12.6214 46.2314 13.321V13.3494C46.2314 13.7543 45.8194 13.7188 44.8251 13.8466C43.813 13.978 42.7086 14.2017 42.7086 15.4517C42.7086 16.517 43.5325 17.1278 44.5694 17.1278ZM44.6973 16.375C44.0297 16.375 43.5467 16.0767 43.5467 15.4943C43.5467 14.8551 44.1291 14.6562 44.7825 14.571C45.1376 14.5284 46.0893 14.429 46.2314 14.2585V15.0256C46.2314 15.7074 45.6916 16.375 44.6973 16.375ZM48.5991 17H49.4371V13.5483C49.4371 12.8097 50.0195 12.2699 50.815 12.2699C51.0387 12.2699 51.2695 12.3125 51.3263 12.3267V11.4744C51.2305 11.4673 51.0103 11.4602 50.886 11.4602C50.2326 11.4602 49.6644 11.8295 49.4656 12.3693H49.4087V11.5455H48.5991V17ZM54.3697 17.1136C55.5771 17.1136 56.3725 16.375 56.5146 15.4091H55.6765C55.5202 16.0057 55.0231 16.3608 54.3697 16.3608C53.3754 16.3608 52.7362 15.5369 52.7362 14.2727C52.7362 13.0369 53.3896 12.2273 54.3697 12.2273C55.1083 12.2273 55.5487 12.6818 55.6765 13.179H56.5146C56.3725 12.1562 55.506 11.4744 54.3555 11.4744C52.8782 11.4744 51.8981 12.6392 51.8981 14.3011C51.8981 15.9347 52.8356 17.1136 54.3697 17.1136ZM58.5778 13.7188C58.5778 12.767 59.185 12.2273 60.0124 12.2273C60.8008 12.2273 61.2766 12.7244 61.2766 13.5909V17H62.1147V13.5341C62.1147 12.1314 61.369 11.4744 60.2539 11.4744C59.3945 11.4744 58.9045 11.8331 58.6488 12.3977H58.5778V9.72727H57.7397V17H58.5778V13.7188Z" fill="#BDC1C6"/>
<rect x="0.375" y="0.375" width="459.25" height="25.25" rx="3.625" stroke="#E4E5E7" stroke-width="0.75"/>
<path d="M0.375 27.375H459.625V218C459.625 218.897 458.897 219.625 458 219.625H1.99999C1.10253 219.625 0.375 218.897 0.375 218V27.375Z" fill="white" stroke="#E4E5E7" stroke-width="0.75"/>
<rect opacity="0.6" x="30" y="37" width="413" height="13" rx="1" fill="#EFF0F1"/>
<rect opacity="0.6" x="30" y="53" width="413" height="13" rx="1" fill="#EFF0F1"/>
<rect opacity="0.6" x="30" y="200" width="77" height="13" rx="1" fill="#EFF0F1"/>
<path d="M31.6392 82H32.517V79.9545H33.7102C35.0597 79.9545 35.7273 79.1392 35.7273 78.0653C35.7273 76.9943 35.0653 76.1818 33.7131 76.1818H31.6392V82ZM32.517 79.2102V76.9347H33.6193C34.4886 76.9347 34.8438 77.4062 34.8438 78.0653C34.8438 78.7244 34.4886 79.2102 33.6307 79.2102H32.517ZM36.7564 82H37.6342V79.7983H38.8274C38.8473 79.7983 38.8643 79.7983 38.8842 79.7983L40.0661 82H41.0661L39.7763 79.6449C40.4893 79.3807 40.8445 78.7869 40.8445 78.0057C40.8445 76.9347 40.1797 76.1818 38.8303 76.1818H36.7564V82ZM37.6342 79.0426V76.9347H38.7365C39.603 76.9347 39.9609 77.3466 39.9609 78.0057C39.9609 78.6619 39.603 79.0426 38.7479 79.0426H37.6342ZM46.9666 79.0909C46.9666 77.2301 45.853 76.1023 44.3473 76.1023C42.8359 76.1023 41.7251 77.2301 41.7251 79.0909C41.7251 80.9489 42.8359 82.0795 44.3473 82.0795C45.853 82.0795 46.9666 80.9517 46.9666 79.0909ZM46.0973 79.0909C46.0973 80.5085 45.3473 81.2784 44.3473 81.2784C43.3445 81.2784 42.5973 80.5085 42.5973 79.0909C42.5973 77.6733 43.3445 76.9034 44.3473 76.9034C45.3473 76.9034 46.0973 77.6733 46.0973 79.0909ZM49.9446 82C51.7173 82 52.7429 80.9006 52.7429 79.0824C52.7429 77.2727 51.7173 76.1818 50.0043 76.1818H48.0611V82H49.9446ZM48.9389 81.233V76.9489H49.9503C51.223 76.9489 51.8793 77.7102 51.8793 79.0824C51.8793 80.4602 51.223 81.233 49.8963 81.233H48.9389ZM57.576 76.1818V79.9375C57.576 80.7273 57.0305 81.2955 56.1442 81.2955C55.2607 81.2955 54.7124 80.7273 54.7124 79.9375V76.1818H53.8345V80.0085C53.8345 81.2301 54.7493 82.0966 56.1442 82.0966C57.5391 82.0966 58.4567 81.2301 58.4567 80.0085V76.1818H57.576ZM64.5653 78.0739C64.3665 76.8295 63.392 76.1023 62.1619 76.1023C60.6562 76.1023 59.5455 77.2301 59.5455 79.0909C59.5455 80.9517 60.6506 82.0795 62.1619 82.0795C63.4403 82.0795 64.375 81.2784 64.5653 80.1278L63.679 80.125C63.5284 80.8693 62.9034 81.2784 62.1676 81.2784C61.1705 81.2784 60.4176 80.5142 60.4176 79.0909C60.4176 77.679 61.1676 76.9034 62.1705 76.9034C62.9119 76.9034 63.5341 77.321 63.679 78.0739H64.5653ZM65.3288 76.9375H67.1413V82H68.0163V76.9375H69.8317V76.1818H65.3288V76.9375ZM74 77.7102H74.8466C74.821 76.7784 73.9972 76.1023 72.8153 76.1023C71.6477 76.1023 70.7528 76.7699 70.7528 77.7727C70.7528 78.5824 71.3324 79.0568 72.267 79.3097L72.9545 79.4972C73.5767 79.6619 74.0568 79.8665 74.0568 80.3835C74.0568 80.9517 73.5142 81.3267 72.767 81.3267C72.0909 81.3267 71.5284 81.0256 71.4773 80.392H70.5966C70.6534 81.446 71.4688 82.0966 72.7727 82.0966C74.1392 82.0966 74.9261 81.3778 74.9261 80.392C74.9261 79.3438 73.9915 78.9375 73.2528 78.7557L72.6847 78.608C72.2301 78.4915 71.625 78.2784 71.6278 77.7216C71.6278 77.2273 72.0795 76.8608 72.7955 76.8608C73.4631 76.8608 73.9375 77.1733 74 77.7102Z" fill="#5F6368"/>
<path d="M31.3523 187.938H33.1648V193H34.0398V187.938H35.8551V187.182H31.3523V187.938ZM36.6463 193L37.1804 191.46H39.4531L39.9844 193H40.9162L38.8224 187.182H37.8082L35.7145 193H36.6463ZM37.4361 190.722L38.294 188.239H38.3395L39.1974 190.722H37.4361ZM41.7564 193H45.2706V192.244H42.6342V187.182H41.7564V193ZM46.272 193H47.1499V191.19L47.8374 190.401L49.718 193H50.7749L48.4197 189.801L50.7663 187.182H49.6612L47.2209 189.96H47.1499V187.182H46.272V193ZM53.4148 187.938H55.2273V193H56.1023V187.938H57.9176V187.182H53.4148V187.938ZM63.7244 190.091C63.7244 188.23 62.6108 187.102 61.1051 187.102C59.5938 187.102 58.483 188.23 58.483 190.091C58.483 191.949 59.5938 193.08 61.1051 193.08C62.6108 193.08 63.7244 191.952 63.7244 190.091ZM62.8551 190.091C62.8551 191.509 62.1051 192.278 61.1051 192.278C60.1023 192.278 59.3551 191.509 59.3551 190.091C59.3551 188.673 60.1023 187.903 61.1051 187.903C62.1051 187.903 62.8551 188.673 62.8551 190.091ZM66.6491 187.938H68.4616V193H69.3366V187.938H71.152V187.182H66.6491V187.938ZM72.147 193H73.0249V190.463H75.9254V193H76.8061V187.182H75.9254V189.71H73.0249V187.182H72.147V193ZM78.0845 193H81.7663V192.244H78.9624V190.463H81.5419V189.71H78.9624V187.938H81.7322V187.182H78.0845V193ZM85.5135 193L86.0476 191.46H88.3203L88.8516 193H89.7834L87.6896 187.182H86.6754L84.5817 193H85.5135ZM86.3033 190.722L87.1612 188.239H87.2067L88.0646 190.722H86.3033ZM94.2876 189.02H95.1882C94.9922 187.886 94.0234 187.102 92.7678 187.102C91.2621 187.102 90.1626 188.236 90.1626 190.094C90.1626 191.935 91.2308 193.08 92.8075 193.08C94.2195 193.08 95.228 192.153 95.228 190.685V190.023H92.9411V190.747H94.3786C94.3587 191.685 93.7393 192.278 92.8075 192.278C91.782 192.278 91.0348 191.503 91.0348 190.088C91.0348 188.679 91.7876 187.903 92.7734 187.903C93.5462 187.903 94.0689 188.33 94.2876 189.02ZM96.3423 193H100.024V192.244H97.2202V190.463H99.7997V189.71H97.2202V187.938H99.9901V187.182H96.3423V193ZM105.859 187.182H104.989V191.455H104.935L101.975 187.182H101.163V193H102.04V188.733H102.094L105.052 193H105.859V187.182ZM106.852 187.938H108.665V193H109.54V187.938H111.355V187.182H106.852V187.938Z" fill="#5F6368"/>
<rect opacity="0.6" x="30" y="89" width="77" height="86" rx="2" fill="#EFF0F1"/>
<rect opacity="0.6" x="114" y="89" width="77" height="86" rx="2" fill="#EFF0F1"/>
<rect opacity="0.6" x="198" y="89" width="77" height="86" rx="2" fill="#EFF0F1"/>
<rect opacity="0.6" x="282" y="89" width="77" height="86" rx="2" fill="#EFF0F1"/>
<rect opacity="0.6" x="366" y="89" width="77" height="86" rx="2" fill="#EFF0F1"/>
<g filter="url(#filter0_d)">
<rect x="121" y="191" width="135" height="34" rx="4" fill="#202124"/>
<path d="M137.651 212L138.251 210.207H140.986L141.589 212H142.996L140.432 204.727H138.805L136.245 212H137.651ZM138.607 209.148L139.59 206.219H139.647L140.631 209.148H138.607ZM146.11 212.107C147.481 212.107 148.354 211.293 148.447 210.136H147.218C147.108 210.722 146.685 211.059 146.121 211.059C145.318 211.059 144.8 210.388 144.8 209.273C144.8 208.172 145.329 207.511 146.121 207.511C146.739 207.511 147.119 207.909 147.218 208.435H148.447C148.358 207.252 147.435 206.474 146.103 206.474C144.505 206.474 143.496 207.629 143.496 209.294C143.496 210.945 144.48 212.107 146.11 212.107ZM152.226 206.545H151.15V205.239H149.865V206.545H149.09V207.54H149.865V210.572C149.857 211.599 150.603 212.103 151.569 212.075C151.935 212.064 152.187 211.993 152.325 211.947L152.109 210.942C152.038 210.96 151.892 210.991 151.732 210.991C151.409 210.991 151.15 210.878 151.15 210.359V207.54H152.226V206.545ZM153.301 212H154.587V206.545H153.301V212ZM153.947 205.771C154.356 205.771 154.69 205.459 154.69 205.075C154.69 204.688 154.356 204.376 153.947 204.376C153.536 204.376 153.202 204.688 153.202 205.075C153.202 205.459 153.536 205.771 153.947 205.771ZM158.288 212.107C159.886 212.107 160.901 210.981 160.901 209.294C160.901 207.604 159.886 206.474 158.288 206.474C156.69 206.474 155.674 207.604 155.674 209.294C155.674 210.981 156.69 212.107 158.288 212.107ZM158.295 211.077C157.411 211.077 156.977 210.288 156.977 209.29C156.977 208.293 157.411 207.494 158.295 207.494C159.165 207.494 159.598 208.293 159.598 209.29C159.598 210.288 159.165 211.077 158.295 211.077ZM163.278 208.804C163.278 208.016 163.754 207.561 164.432 207.561C165.096 207.561 165.494 207.998 165.494 208.726V212H166.779V208.527C166.783 207.22 166.037 206.474 164.912 206.474C164.095 206.474 163.534 206.865 163.285 207.472H163.221V206.545H161.993V212H163.278V208.804ZM172.397 207.987C172.22 207.064 171.481 206.474 170.203 206.474C168.889 206.474 167.994 207.121 167.998 208.129C167.994 208.925 168.484 209.45 169.532 209.667L170.462 209.862C170.963 209.972 171.197 210.175 171.197 210.484C171.197 210.857 170.792 211.137 170.181 211.137C169.592 211.137 169.208 210.881 169.098 210.391L167.845 210.512C168.005 211.513 168.846 212.107 170.185 212.107C171.549 212.107 172.511 211.4 172.515 210.366C172.511 209.589 172.01 209.113 170.98 208.889L170.05 208.69C169.496 208.566 169.276 208.374 169.279 208.058C169.276 207.689 169.684 207.433 170.221 207.433C170.814 207.433 171.126 207.756 171.225 208.115L172.397 207.987ZM177.625 212.11C178.48 212.11 178.992 211.709 179.226 211.251H179.269V212H180.505V208.349C180.505 206.908 179.329 206.474 178.289 206.474C177.142 206.474 176.261 206.986 175.977 207.98L177.177 208.151C177.305 207.778 177.667 207.458 178.296 207.458C178.892 207.458 179.219 207.763 179.219 208.3V208.321C179.219 208.69 178.832 208.708 177.87 208.811C176.811 208.925 175.799 209.241 175.799 210.469C175.799 211.542 176.584 212.11 177.625 212.11ZM177.958 211.165C177.422 211.165 177.039 210.92 177.039 210.448C177.039 209.955 177.468 209.749 178.044 209.667C178.381 209.621 179.056 209.536 179.223 209.401V210.043C179.223 210.651 178.733 211.165 177.958 211.165ZM184.521 206.545H183.445V205.239H182.159V206.545H181.385V207.54H182.159V210.572C182.152 211.599 182.898 212.103 183.864 212.075C184.23 212.064 184.482 211.993 184.62 211.947L184.404 210.942C184.333 210.96 184.187 210.991 184.027 210.991C183.704 210.991 183.445 210.878 183.445 210.359V207.54H184.521V206.545ZM190.8 206.545H189.724V205.239H188.439V206.545H187.665V207.54H188.439V210.572C188.432 211.599 189.177 212.103 190.143 212.075C190.509 212.064 190.761 211.993 190.9 211.947L190.683 210.942C190.612 210.96 190.466 210.991 190.307 210.991C189.983 210.991 189.724 210.878 189.724 210.359V207.54H190.8V206.545ZM193.278 208.804C193.278 208.016 193.768 207.561 194.457 207.561C195.132 207.561 195.529 207.991 195.529 208.726V212H196.815V208.527C196.815 207.21 196.069 206.474 194.936 206.474C194.098 206.474 193.566 206.854 193.314 207.472H193.25V204.727H191.993V212H193.278V208.804ZM200.54 212.107C201.811 212.107 202.685 211.485 202.912 210.537L201.712 210.402C201.538 210.864 201.112 211.105 200.558 211.105C199.727 211.105 199.176 210.558 199.166 209.624H202.966V209.23C202.966 207.316 201.815 206.474 200.473 206.474C198.91 206.474 197.891 207.621 197.891 209.305C197.891 211.016 198.896 212.107 200.54 212.107ZM199.169 208.758C199.208 208.062 199.723 207.476 200.49 207.476C201.229 207.476 201.726 208.016 201.733 208.758H199.169ZM206.59 212H207.855V211.141H207.929C208.132 211.538 208.554 212.096 209.492 212.096C210.777 212.096 211.74 211.077 211.74 209.28C211.74 207.462 210.749 206.474 209.488 206.474C208.526 206.474 208.124 207.053 207.929 207.447H207.876V204.727H206.59V212ZM207.851 209.273C207.851 208.214 208.306 207.529 209.133 207.529C209.989 207.529 210.429 208.257 210.429 209.273C210.429 210.295 209.982 211.041 209.133 211.041C208.313 211.041 207.851 210.331 207.851 209.273ZM215.212 212.107C216.81 212.107 217.825 210.981 217.825 209.294C217.825 207.604 216.81 206.474 215.212 206.474C213.614 206.474 212.598 207.604 212.598 209.294C212.598 210.981 213.614 212.107 215.212 212.107ZM215.219 211.077C214.335 211.077 213.901 210.288 213.901 209.29C213.901 208.293 214.335 207.494 215.219 207.494C216.089 207.494 216.522 208.293 216.522 209.29C216.522 210.288 216.089 211.077 215.219 211.077ZM221.64 206.545H220.564V205.239H219.279V206.545H218.504V207.54H219.279V210.572C219.271 211.599 220.017 212.103 220.983 212.075C221.349 212.064 221.601 211.993 221.74 211.947L221.523 210.942C221.452 210.96 221.306 210.991 221.146 210.991C220.823 210.991 220.564 210.878 220.564 210.359V207.54H221.64V206.545ZM225.439 206.545H224.363V205.239H223.077V206.545H222.303V207.54H223.077V210.572C223.07 211.599 223.816 212.103 224.782 212.075C225.148 212.064 225.4 211.993 225.538 211.947L225.322 210.942C225.251 210.96 225.105 210.991 224.945 210.991C224.622 210.991 224.363 210.878 224.363 210.359V207.54H225.439V206.545ZM228.835 212.107C230.433 212.107 231.448 210.981 231.448 209.294C231.448 207.604 230.433 206.474 228.835 206.474C227.237 206.474 226.221 207.604 226.221 209.294C226.221 210.981 227.237 212.107 228.835 212.107ZM228.842 211.077C227.958 211.077 227.524 210.288 227.524 209.29C227.524 208.293 227.958 207.494 228.842 207.494C229.712 207.494 230.145 208.293 230.145 209.29C230.145 210.288 229.712 211.077 228.842 211.077ZM232.539 212H233.825V208.683C233.825 208.012 234.272 207.558 234.826 207.558C235.37 207.558 235.743 207.923 235.743 208.484V212H237.003V208.598C237.003 207.984 237.369 207.558 237.99 207.558C238.509 207.558 238.921 207.863 238.921 208.538V212H240.21V208.339C240.21 207.121 239.507 206.474 238.505 206.474C237.713 206.474 237.11 206.865 236.868 207.472H236.811C236.602 206.854 236.073 206.474 235.338 206.474C234.606 206.474 234.059 206.851 233.832 207.472H233.768V206.545H232.539V212Z" fill="white"/>
</g>
<rect x="121" y="200" width="9.89949" height="9.8995" transform="rotate(45 121 200)" fill="#202124"/>
<defs>
<filter id="filter0_d" x="117" y="191" width="143" height="42" filterUnits="userSpaceOnUse" color-interpolation-filters="sRGB">
<feFlood flood-opacity="0" result="BackgroundImageFix"/>
<feColorMatrix in="SourceAlpha" type="matrix" values="0 0 0 0 0 0 0 0 0 0 0 0 0 0 0 0 0 0 127 0"/>
<feOffset dy="4"/>
<feGaussianBlur stdDeviation="2"/>
<feColorMatrix type="matrix" values="0 0 0 0 0.12549 0 0 0 0 0.129412 0 0 0 0 0.141176 0 0 0 0.2 0"/>
<feBlend mode="normal" in2="BackgroundImageFix" result="effect1_dropShadow"/>
<feBlend mode="normal" in="SourceGraphic" in2="effect1_dropShadow" result="shape"/>
</filter>
</defs>
</svg>
