<svg width="460" height="220" viewBox="0 0 460 220" fill="none" xmlns="http://www.w3.org/2000/svg">
<rect x="0.375" y="0.375" width="459.25" height="25.25" rx="3.625" fill="white"/>
<path fill-rule="evenodd" clip-rule="evenodd" d="M15.4733 8.3501C13.1961 8.3501 11.3501 10.201 11.3501 12.4843C11.3501 14.7676 13.1961 16.6185 15.4733 16.6185C16.4691 16.6185 17.3825 16.2645 18.0951 15.6752L20.0067 17.5685L20.0352 17.5941C20.1922 17.7224 20.4236 17.7123 20.5688 17.565C20.723 17.4084 20.7214 17.1561 20.5653 17.0014L18.657 15.1116C19.244 14.3973 19.5965 13.4821 19.5965 12.4843C19.5965 10.201 17.7505 8.3501 15.4733 8.3501ZM15.4733 9.14705C17.3115 9.14705 18.8017 10.6412 18.8017 12.4843C18.8017 14.3274 17.3115 15.8216 15.4733 15.8216C13.6351 15.8216 12.1449 14.3274 12.1449 12.4843C12.1449 10.6412 13.6351 9.14705 15.4733 9.14705Z" fill="#BDC1C6"/>
<path d="M34.858 11.5455H35.7102C35.6712 10.4482 34.6591 9.62784 33.2528 9.62784C31.8608 9.62784 30.767 10.4375 30.767 11.6591C30.767 12.6392 31.4773 13.2216 32.6136 13.5483L33.5085 13.804C34.2756 14.017 34.9574 14.2869 34.9574 15.0114C34.9574 15.8068 34.1903 16.3324 33.1818 16.3324C32.3153 16.3324 31.5483 15.9489 31.4773 15.125H30.5682C30.6534 16.3182 31.6193 17.1278 33.1818 17.1278C34.858 17.1278 35.8097 16.2045 35.8097 15.0256C35.8097 13.6619 34.517 13.2216 33.7642 13.0227L33.0256 12.8239C32.4858 12.6818 31.6193 12.3977 31.6193 11.6165C31.6193 10.9205 32.2585 10.4091 33.2244 10.4091C34.1051 10.4091 34.7727 10.8281 34.858 11.5455ZM39.4309 17.1136C40.5389 17.1136 41.3485 16.5597 41.6042 15.7358L40.7946 15.5085C40.5815 16.0767 40.0879 16.3608 39.4309 16.3608C38.4473 16.3608 37.769 15.7251 37.7299 14.5568H41.6895V14.2017C41.6895 12.1705 40.4821 11.4744 39.3457 11.4744C37.8684 11.4744 36.8883 12.6392 36.8883 14.3153C36.8883 15.9915 37.8542 17.1136 39.4309 17.1136ZM37.7299 13.8324C37.7868 12.9837 38.3869 12.2273 39.3457 12.2273C40.2548 12.2273 40.8372 12.9091 40.8372 13.8324H37.7299ZM44.5694 17.1278C45.5211 17.1278 46.0183 16.6165 46.1887 16.2614H46.2314V17H47.0694V13.4062C47.0694 11.6733 45.7484 11.4744 45.0524 11.4744C44.2285 11.4744 43.291 11.7585 42.8649 12.7528L43.6603 13.0369C43.845 12.6392 44.2818 12.2131 45.0808 12.2131C45.8514 12.2131 46.2314 12.6214 46.2314 13.321V13.3494C46.2314 13.7543 45.8194 13.7188 44.8251 13.8466C43.813 13.978 42.7086 14.2017 42.7086 15.4517C42.7086 16.517 43.5325 17.1278 44.5694 17.1278ZM44.6973 16.375C44.0297 16.375 43.5467 16.0767 43.5467 15.4943C43.5467 14.8551 44.1291 14.6562 44.7825 14.571C45.1376 14.5284 46.0893 14.429 46.2314 14.2585V15.0256C46.2314 15.7074 45.6916 16.375 44.6973 16.375ZM48.5991 17H49.4371V13.5483C49.4371 12.8097 50.0195 12.2699 50.815 12.2699C51.0387 12.2699 51.2695 12.3125 51.3263 12.3267V11.4744C51.2305 11.4673 51.0103 11.4602 50.886 11.4602C50.2326 11.4602 49.6644 11.8295 49.4656 12.3693H49.4087V11.5455H48.5991V17ZM54.3697 17.1136C55.5771 17.1136 56.3725 16.375 56.5146 15.4091H55.6765C55.5202 16.0057 55.0231 16.3608 54.3697 16.3608C53.3754 16.3608 52.7362 15.5369 52.7362 14.2727C52.7362 13.0369 53.3896 12.2273 54.3697 12.2273C55.1083 12.2273 55.5487 12.6818 55.6765 13.179H56.5146C56.3725 12.1562 55.506 11.4744 54.3555 11.4744C52.8782 11.4744 51.8981 12.6392 51.8981 14.3011C51.8981 15.9347 52.8356 17.1136 54.3697 17.1136ZM58.5778 13.7188C58.5778 12.767 59.185 12.2273 60.0124 12.2273C60.8008 12.2273 61.2766 12.7244 61.2766 13.5909V17H62.1147V13.5341C62.1147 12.1314 61.369 11.4744 60.2539 11.4744C59.3945 11.4744 58.9045 11.8331 58.6488 12.3977H58.5778V9.72727H57.7397V17H58.5778V13.7188Z" fill="#BDC1C6"/>
<rect x="0.375" y="0.375" width="459.25" height="25.25" rx="3.625" stroke="#E4E5E7" stroke-width="0.75"/>
<path d="M0.375 27.375H459.625V218C459.625 218.897 458.897 219.625 458 219.625H1.99999C1.10253 219.625 0.375 218.897 0.375 218V27.375Z" fill="white" stroke="#E4E5E7" stroke-width="0.75"/>
<rect opacity="0.6" x="30" y="37" width="413" height="13" rx="1" fill="#EFF0F1"/>
<rect opacity="0.6" x="30" y="53" width="413" height="13" rx="1" fill="#EFF0F1"/>
<path d="M31.6392 120H32.517V117.955H33.7102C35.0597 117.955 35.7273 117.139 35.7273 116.065C35.7273 114.994 35.0653 114.182 33.7131 114.182H31.6392V120ZM32.517 117.21V114.935H33.6193C34.4886 114.935 34.8438 115.406 34.8438 116.065C34.8438 116.724 34.4886 117.21 33.6307 117.21H32.517ZM36.7564 120H37.6342V117.798H38.8274C38.8473 117.798 38.8643 117.798 38.8842 117.798L40.0661 120H41.0661L39.7763 117.645C40.4893 117.381 40.8445 116.787 40.8445 116.006C40.8445 114.935 40.1797 114.182 38.8303 114.182H36.7564V120ZM37.6342 117.043V114.935H38.7365C39.603 114.935 39.9609 115.347 39.9609 116.006C39.9609 116.662 39.603 117.043 38.7479 117.043H37.6342ZM46.9666 117.091C46.9666 115.23 45.853 114.102 44.3473 114.102C42.8359 114.102 41.7251 115.23 41.7251 117.091C41.7251 118.949 42.8359 120.08 44.3473 120.08C45.853 120.08 46.9666 118.952 46.9666 117.091ZM46.0973 117.091C46.0973 118.509 45.3473 119.278 44.3473 119.278C43.3445 119.278 42.5973 118.509 42.5973 117.091C42.5973 115.673 43.3445 114.903 44.3473 114.903C45.3473 114.903 46.0973 115.673 46.0973 117.091ZM49.9446 120C51.7173 120 52.7429 118.901 52.7429 117.082C52.7429 115.273 51.7173 114.182 50.0043 114.182H48.0611V120H49.9446ZM48.9389 119.233V114.949H49.9503C51.223 114.949 51.8793 115.71 51.8793 117.082C51.8793 118.46 51.223 119.233 49.8963 119.233H48.9389ZM57.576 114.182V117.938C57.576 118.727 57.0305 119.295 56.1442 119.295C55.2607 119.295 54.7124 118.727 54.7124 117.938V114.182H53.8345V118.009C53.8345 119.23 54.7493 120.097 56.1442 120.097C57.5391 120.097 58.4567 119.23 58.4567 118.009V114.182H57.576ZM64.5653 116.074C64.3665 114.83 63.392 114.102 62.1619 114.102C60.6562 114.102 59.5455 115.23 59.5455 117.091C59.5455 118.952 60.6506 120.08 62.1619 120.08C63.4403 120.08 64.375 119.278 64.5653 118.128L63.679 118.125C63.5284 118.869 62.9034 119.278 62.1676 119.278C61.1705 119.278 60.4176 118.514 60.4176 117.091C60.4176 115.679 61.1676 114.903 62.1705 114.903C62.9119 114.903 63.5341 115.321 63.679 116.074H64.5653ZM65.3288 114.938H67.1413V120H68.0163V114.938H69.8317V114.182H65.3288V114.938ZM74 115.71H74.8466C74.821 114.778 73.9972 114.102 72.8153 114.102C71.6477 114.102 70.7528 114.77 70.7528 115.773C70.7528 116.582 71.3324 117.057 72.267 117.31L72.9545 117.497C73.5767 117.662 74.0568 117.866 74.0568 118.384C74.0568 118.952 73.5142 119.327 72.767 119.327C72.0909 119.327 71.5284 119.026 71.4773 118.392H70.5966C70.6534 119.446 71.4688 120.097 72.7727 120.097C74.1392 120.097 74.9261 119.378 74.9261 118.392C74.9261 117.344 73.9915 116.938 73.2528 116.756L72.6847 116.608C72.2301 116.491 71.625 116.278 71.6278 115.722C71.6278 115.227 72.0795 114.861 72.7955 114.861C73.4631 114.861 73.9375 115.173 74 115.71Z" fill="#5F6368"/>
<rect opacity="0.6" x="30" y="127" width="77" height="86" rx="2" fill="#EFF0F1"/>
<rect opacity="0.6" x="114" y="127" width="77" height="86" rx="2" fill="#EFF0F1"/>
<rect opacity="0.6" x="198" y="127" width="77" height="86" rx="2" fill="#EFF0F1"/>
<rect opacity="0.6" x="282" y="127" width="77" height="86" rx="2" fill="#EFF0F1"/>
<rect opacity="0.6" x="366" y="127" width="77" height="86" rx="2" fill="#EFF0F1"/>
<rect x="30" y="89" width="77" height="13" rx="1" fill="#EFF0F1"/>
<path d="M30.3523 76.9375H32.1648V82H33.0398V76.9375H34.8551V76.1818H30.3523V76.9375ZM35.6463 82L36.1804 80.4602H38.4531L38.9844 82H39.9162L37.8224 76.1818H36.8082L34.7145 82H35.6463ZM36.4361 79.7216L37.294 77.2386H37.3395L38.1974 79.7216H36.4361ZM40.7564 82H44.2706V81.2443H41.6342V76.1818H40.7564V82ZM45.272 82H46.1499V80.1903L46.8374 79.4006L48.718 82H49.7749L47.4197 78.8011L49.7663 76.1818H48.6612L46.2209 78.9602H46.1499V76.1818H45.272V82ZM52.4148 76.9375H54.2273V82H55.1023V76.9375H56.9176V76.1818H52.4148V76.9375ZM62.7244 79.0909C62.7244 77.2301 61.6108 76.1023 60.1051 76.1023C58.5938 76.1023 57.483 77.2301 57.483 79.0909C57.483 80.9489 58.5938 82.0795 60.1051 82.0795C61.6108 82.0795 62.7244 80.9517 62.7244 79.0909ZM61.8551 79.0909C61.8551 80.5085 61.1051 81.2784 60.1051 81.2784C59.1023 81.2784 58.3551 80.5085 58.3551 79.0909C58.3551 77.6733 59.1023 76.9034 60.1051 76.9034C61.1051 76.9034 61.8551 77.6733 61.8551 79.0909ZM65.6491 76.9375H67.4616V82H68.3366V76.9375H70.152V76.1818H65.6491V76.9375ZM71.147 82H72.0249V79.4631H74.9254V82H75.8061V76.1818H74.9254V78.7102H72.0249V76.1818H71.147V82ZM77.0845 82H80.7663V81.2443H77.9624V79.4631H80.5419V78.7102H77.9624V76.9375H80.7322V76.1818H77.0845V82ZM84.5135 82L85.0476 80.4602H87.3203L87.8516 82H88.7834L86.6896 76.1818H85.6754L83.5817 82H84.5135ZM85.3033 79.7216L86.1612 77.2386H86.2067L87.0646 79.7216H85.3033ZM93.2876 78.0199H94.1882C93.9922 76.8864 93.0234 76.1023 91.7678 76.1023C90.2621 76.1023 89.1626 77.2358 89.1626 79.0938C89.1626 80.9347 90.2308 82.0795 91.8075 82.0795C93.2195 82.0795 94.228 81.1534 94.228 79.6847V79.0227H91.9411V79.7472H93.3786C93.3587 80.6847 92.7393 81.2784 91.8075 81.2784C90.782 81.2784 90.0348 80.5028 90.0348 79.0881C90.0348 77.679 90.7876 76.9034 91.7734 76.9034C92.5462 76.9034 93.0689 77.3295 93.2876 78.0199ZM95.3423 82H99.0241V81.2443H96.2202V79.4631H98.7997V78.7102H96.2202V76.9375H98.9901V76.1818H95.3423V82ZM104.859 76.1818H103.989V80.4545H103.935L100.975 76.1818H100.163V82H101.04V77.733H101.094L104.052 82H104.859V76.1818ZM105.852 76.9375H107.665V82H108.54V76.9375H110.355V76.1818H105.852V76.9375Z" fill="#5F6368"/>
<g filter="url(#filter0_d)">
<rect x="121" y="80" width="116" height="34" rx="4" fill="#202124"/>
<path d="M137.651 101L138.251 99.2067H140.986L141.589 101H142.996L140.432 93.7273H138.805L136.245 101H137.651ZM138.607 98.1484L139.59 95.2188H139.647L140.631 98.1484H138.607ZM146.11 101.107C147.481 101.107 148.354 100.293 148.447 99.1357H147.218C147.108 99.7216 146.685 100.059 146.121 100.059C145.318 100.059 144.8 99.3878 144.8 98.2727C144.8 97.1719 145.329 96.5114 146.121 96.5114C146.739 96.5114 147.119 96.9091 147.218 97.4347H148.447C148.358 96.2521 147.435 95.4744 146.103 95.4744C144.505 95.4744 143.496 96.6286 143.496 98.294C143.496 99.9453 144.48 101.107 146.11 101.107ZM152.226 95.5455H151.15V94.2386H149.865V95.5455H149.09V96.5398H149.865V99.5724C149.857 100.599 150.603 101.103 151.569 101.075C151.935 101.064 152.187 100.993 152.325 100.947L152.109 99.9418C152.038 99.9595 151.892 99.9915 151.732 99.9915C151.409 99.9915 151.15 99.8778 151.15 99.3594V96.5398H152.226V95.5455ZM153.301 101H154.587V95.5455H153.301V101ZM153.947 94.7713C154.356 94.7713 154.69 94.4588 154.69 94.0753C154.69 93.6882 154.356 93.3757 153.947 93.3757C153.536 93.3757 153.202 93.6882 153.202 94.0753C153.202 94.4588 153.536 94.7713 153.947 94.7713ZM158.288 101.107C159.886 101.107 160.901 99.9808 160.901 98.294C160.901 96.6037 159.886 95.4744 158.288 95.4744C156.69 95.4744 155.674 96.6037 155.674 98.294C155.674 99.9808 156.69 101.107 158.288 101.107ZM158.295 100.077C157.411 100.077 156.977 99.2884 156.977 98.2905C156.977 97.2926 157.411 96.4936 158.295 96.4936C159.165 96.4936 159.598 97.2926 159.598 98.2905C159.598 99.2884 159.165 100.077 158.295 100.077ZM163.278 97.804C163.278 97.0156 163.754 96.5611 164.432 96.5611C165.096 96.5611 165.494 96.9979 165.494 97.7259V101H166.779V97.527C166.783 96.2202 166.037 95.4744 164.912 95.4744C164.095 95.4744 163.534 95.8651 163.285 96.4723H163.221V95.5455H161.993V101H163.278V97.804ZM172.397 96.9872C172.22 96.0639 171.481 95.4744 170.203 95.4744C168.889 95.4744 167.994 96.1207 167.998 97.1293C167.994 97.9247 168.484 98.4503 169.532 98.6669L170.462 98.8622C170.963 98.9723 171.197 99.1747 171.197 99.4837C171.197 99.8565 170.792 100.137 170.181 100.137C169.592 100.137 169.208 99.8814 169.098 99.3913L167.845 99.5121C168.005 100.513 168.846 101.107 170.185 101.107C171.549 101.107 172.511 100.4 172.515 99.3665C172.511 98.5888 172.01 98.1129 170.98 97.8892L170.05 97.6903C169.496 97.5661 169.276 97.3743 169.279 97.0582C169.276 96.6889 169.684 96.4332 170.221 96.4332C170.814 96.4332 171.126 96.7564 171.225 97.1151L172.397 96.9872ZM177.625 101.11C178.48 101.11 178.992 100.709 179.226 100.251H179.269V101H180.505V97.3494C180.505 95.9077 179.329 95.4744 178.289 95.4744C177.142 95.4744 176.261 95.9858 175.977 96.9801L177.177 97.1506C177.305 96.7777 177.667 96.4581 178.296 96.4581C178.892 96.4581 179.219 96.7635 179.219 97.2997V97.321C179.219 97.6903 178.832 97.7081 177.87 97.8111C176.811 97.9247 175.799 98.2408 175.799 99.4695C175.799 100.542 176.584 101.11 177.625 101.11ZM177.958 100.165C177.422 100.165 177.039 99.9205 177.039 99.4482C177.039 98.9545 177.468 98.7486 178.044 98.6669C178.381 98.6207 179.056 98.5355 179.223 98.4006V99.0433C179.223 99.6506 178.733 100.165 177.958 100.165ZM184.521 95.5455H183.445V94.2386H182.159V95.5455H181.385V96.5398H182.159V99.5724C182.152 100.599 182.898 101.103 183.864 101.075C184.23 101.064 184.482 100.993 184.62 100.947L184.404 99.9418C184.333 99.9595 184.187 99.9915 184.027 99.9915C183.704 99.9915 183.445 99.8778 183.445 99.3594V96.5398H184.521V95.5455ZM190.8 95.5455H189.724V94.2386H188.439V95.5455H187.665V96.5398H188.439V99.5724C188.432 100.599 189.177 101.103 190.143 101.075C190.509 101.064 190.761 100.993 190.9 100.947L190.683 99.9418C190.612 99.9595 190.466 99.9915 190.307 99.9915C189.983 99.9915 189.724 99.8778 189.724 99.3594V96.5398H190.8V95.5455ZM193.278 97.804C193.278 97.0156 193.768 96.5611 194.457 96.5611C195.132 96.5611 195.529 96.9908 195.529 97.7259V101H196.815V97.527C196.815 96.2095 196.069 95.4744 194.936 95.4744C194.098 95.4744 193.566 95.8544 193.314 96.4723H193.25V93.7273H191.993V101H193.278V97.804ZM200.54 101.107C201.811 101.107 202.685 100.485 202.912 99.5369L201.712 99.402C201.538 99.8636 201.112 100.105 200.558 100.105C199.727 100.105 199.176 99.5582 199.166 98.6243H202.966V98.2301C202.966 96.3161 201.815 95.4744 200.473 95.4744C198.91 95.4744 197.891 96.6214 197.891 98.3047C197.891 100.016 198.896 101.107 200.54 101.107ZM199.169 97.7578C199.208 97.0618 199.723 96.4759 200.49 96.4759C201.229 96.4759 201.726 97.0156 201.733 97.7578H199.169ZM209.257 95.5455H208.181V94.2386H206.896V95.5455H206.122V96.5398H206.896V99.5724C206.889 100.599 207.634 101.103 208.6 101.075C208.966 101.064 209.218 100.993 209.357 100.947L209.14 99.9418C209.069 99.9595 208.923 99.9915 208.764 99.9915C208.441 99.9915 208.181 99.8778 208.181 99.3594V96.5398H209.257V95.5455ZM212.653 101.107C214.251 101.107 215.267 99.9808 215.267 98.294C215.267 96.6037 214.251 95.4744 212.653 95.4744C211.055 95.4744 210.039 96.6037 210.039 98.294C210.039 99.9808 211.055 101.107 212.653 101.107ZM212.66 100.077C211.776 100.077 211.343 99.2884 211.343 98.2905C211.343 97.2926 211.776 96.4936 212.66 96.4936C213.53 96.4936 213.963 97.2926 213.963 98.2905C213.963 99.2884 213.53 100.077 212.66 100.077ZM216.358 103.045H217.643V100.141H217.697C217.899 100.538 218.322 101.096 219.259 101.096C220.545 101.096 221.507 100.077 221.507 98.2798C221.507 96.4616 220.516 95.4744 219.256 95.4744C218.293 95.4744 217.892 96.0533 217.697 96.4474H217.622V95.5455H216.358V103.045ZM217.618 98.2727C217.618 97.2145 218.073 96.5291 218.9 96.5291C219.756 96.5291 220.197 97.2571 220.197 98.2727C220.197 99.2955 219.749 100.041 218.9 100.041C218.08 100.041 217.618 99.331 217.618 98.2727Z" fill="white"/>
</g>
<rect x="121" y="89" width="9.89949" height="9.8995" transform="rotate(45 121 89)" fill="#202124"/>
<defs>
<filter id="filter0_d" x="117" y="80" width="124" height="42" filterUnits="userSpaceOnUse" color-interpolation-filters="sRGB">
<feFlood flood-opacity="0" result="BackgroundImageFix"/>
<feColorMatrix in="SourceAlpha" type="matrix" values="0 0 0 0 0 0 0 0 0 0 0 0 0 0 0 0 0 0 127 0"/>
<feOffset dy="4"/>
<feGaussianBlur stdDeviation="2"/>
<feColorMatrix type="matrix" values="0 0 0 0 0.12549 0 0 0 0 0.129412 0 0 0 0 0.141176 0 0 0 0.2 0"/>
<feBlend mode="normal" in2="BackgroundImageFix" result="effect1_dropShadow"/>
<feBlend mode="normal" in="SourceGraphic" in2="effect1_dropShadow" result="shape"/>
</filter>
</defs>
</svg>
