<svg width="6" height="12" viewBox="0 0 6 12" fill="none" xmlns="http://www.w3.org/2000/svg">
<path fill-rule="evenodd" clip-rule="evenodd" d="M0.857143 10.2857C1.33053 10.2857 1.71429 10.6695 1.71429 11.1429C1.71429 11.6162 1.33053 12 0.857143 12C0.383756 12 0 11.6162 0 11.1429C0 10.6695 0.383756 10.2857 0.857143 10.2857ZM5.14286 10.2857C5.61624 10.2857 6 10.6695 6 11.1429C6 11.6162 5.61624 12 5.14286 12C4.66947 12 4.28571 11.6162 4.28571 11.1429C4.28571 10.6695 4.66947 10.2857 5.14286 10.2857ZM0.857143 6.85714C1.33053 6.85714 1.71429 7.2409 1.71429 7.71429C1.71429 8.18767 1.33053 8.57143 0.857143 8.57143C0.383756 8.57143 0 8.18767 0 7.71429C0 7.2409 0.383756 6.85714 0.857143 6.85714ZM5.14286 6.85714C5.61624 6.85714 6 7.2409 6 7.71429C6 8.18767 5.61624 8.57143 5.14286 8.57143C4.66947 8.57143 4.28571 8.18767 4.28571 7.71429C4.28571 7.2409 4.66947 6.85714 5.14286 6.85714ZM0.857143 3.42857C1.33053 3.42857 1.71429 3.81233 1.71429 4.28571C1.71429 4.7591 1.33053 5.14286 0.857143 5.14286C0.383756 5.14286 0 4.7591 0 4.28571C0 3.81233 0.383756 3.42857 0.857143 3.42857ZM5.14286 3.42857C5.61624 3.42857 6 3.81233 6 4.28571C6 4.7591 5.61624 5.14286 5.14286 5.14286C4.66947 5.14286 4.28571 4.7591 4.28571 4.28571C4.28571 3.81233 4.66947 3.42857 5.14286 3.42857ZM0.857143 0C1.33053 0 1.71429 0.383756 1.71429 0.857143C1.71429 1.33053 1.33053 1.71429 0.857143 1.71429C0.383756 1.71429 0 1.33053 0 0.857143C0 0.383756 0.383756 0 0.857143 0ZM5.14286 0C5.61624 0 6 0.383756 6 0.857143C6 1.33053 5.61624 1.71429 5.14286 1.71429C4.66947 1.71429 4.28571 1.33053 4.28571 0.857143C4.28571 0.383756 4.66947 0 5.14286 0Z" fill="#BDC1C6"/>
</svg>
