<svg width="12" height="12" viewBox="0 0 12 12" fill="none" xmlns="http://www.w3.org/2000/svg">
<path d="M6.5404 0.48511C6.51576 0.213133 6.28624 9.01799e-06 6.00674 9.01799e-06C5.7108 9.01799e-06 5.4709 0.238944 5.4709 0.533686V5.26234L0.535846 5.26015L0.487073 5.26233C0.213991 5.28687 0 5.51546 0 5.79382C0 6.08856 0.239906 6.3275 0.535846 6.3275L5.4709 6.32969V11.4663L5.47309 11.5149C5.49773 11.7869 5.72725 12 6.00674 12C6.30268 12 6.54259 11.7611 6.54259 11.4663V6.32969L11.4642 6.33192L11.5129 6.32974C11.786 6.3052 12 6.07661 12 5.79824C12 5.5035 11.7601 5.26457 11.4642 5.26457L6.54259 5.26234L6.54259 0.533686L6.5404 0.48511Z" fill="#202124"/>
</svg>
