<svg width="8" height="10" viewBox="0 0 8 10" fill="none" xmlns="http://www.w3.org/2000/svg">
<path fill-rule="evenodd" clip-rule="evenodd" d="M0.644531 0.99113C0.644531 0.788921 0.808454 0.625 1.01066 0.625H4.34245C5.63687 0.625 6.6862 1.67433 6.6862 2.96875C6.6862 3.71881 6.33386 4.38658 5.78566 4.81558C6.70386 5.13302 7.36328 6.00513 7.36328 7.03125C7.36328 8.32567 6.31395 9.375 5.01953 9.375H1.01737C0.811449 9.375 0.644531 9.20807 0.644531 9.00217V0.99113ZM1.26953 5.3125V8.75H5.01953C5.96877 8.75 6.73828 7.98049 6.73828 7.03125C6.73828 6.08201 5.96877 5.3125 5.01953 5.3125H1.26953ZM1.26953 4.6875H4.34245C5.29169 4.6875 6.0612 3.91799 6.0612 2.96875C6.0612 2.01951 5.29169 1.25 4.34245 1.25H1.26953V4.6875Z" fill="#202124"/>
</svg>
