<svg width="8" height="10" viewBox="0 0 8 10" fill="none" xmlns="http://www.w3.org/2000/svg">
<path fill-rule="evenodd" clip-rule="evenodd" d="M4.25611 1.5625H2.125C1.95241 1.5625 1.8125 1.42259 1.8125 1.25C1.8125 1.07741 1.95241 0.9375 2.125 0.9375H7.125C7.29759 0.9375 7.4375 1.07741 7.4375 1.25C7.4375 1.42259 7.29759 1.5625 7.125 1.5625H4.88973L3.74389 8.4375H5.875C6.04759 8.4375 6.1875 8.57741 6.1875 8.75C6.1875 8.92259 6.04759 9.0625 5.875 9.0625H0.875C0.702411 9.0625 0.5625 8.92259 0.5625 8.75C0.5625 8.57741 0.702411 8.4375 0.875 8.4375H3.11027L4.25611 1.5625Z" fill="#202124"/>
</svg>
