<svg width="14" height="7" viewBox="0 0 14 7" fill="none" xmlns="http://www.w3.org/2000/svg">
<path d="M3.20167 0.493652C1.4542 0.493652 0.0371094 1.91074 0.0371094 3.65821C0.0371094 5.40568 1.4542 6.82277 3.20167 6.82277H5.73331V5.55694H3.20167C2.15293 5.55694 1.30293 4.70694 1.30293 3.65821C1.30293 2.60948 2.15293 1.75948 3.20167 1.75948H5.73331V0.493652H3.20167ZM8.26496 0.493652V1.75948H10.7966C11.8453 1.75948 12.6953 2.60948 12.6953 3.65821C12.6953 4.70694 11.8453 5.55694 10.7966 5.55694H8.26496V6.82277H10.7966C12.5441 6.82277 13.9612 5.40568 13.9612 3.65821C13.9612 1.91074 12.5441 0.493652 10.7966 0.493652H8.26496ZM3.83458 3.0253V4.29112H10.1637V3.0253H3.83458Z" fill="black"/>
</svg>
