<svg width="13" height="14" viewBox="0 0 13 14" fill="none" xmlns="http://www.w3.org/2000/svg">
<path fill-rule="evenodd" clip-rule="evenodd" d="M7.05683 0.609809C7.03112 0.324855 6.79163 0.101562 6.49998 0.101562C6.19117 0.101562 5.94084 0.351898 5.94084 0.660702V6.04252H0.55914L0.508247 6.0448C0.223293 6.07051 0 6.31001 0 6.60166C0 6.91046 0.250335 7.16079 0.55914 7.16079H5.94084V12.5424L5.94312 12.5933C5.96883 12.8783 6.20833 13.1016 6.49998 13.1016C6.80878 13.1016 7.05912 12.8512 7.05912 12.5424V7.16079H12.4409L12.4918 7.15851C12.7767 7.1328 13 6.8933 13 6.60166C13 6.29285 12.7497 6.04252 12.4409 6.04252H7.05912V0.660702L7.05683 0.609809Z" fill="#0D6EFD"/>
</svg>
