<svg width="8" height="10" viewBox="0 0 8 10" fill="none" xmlns="http://www.w3.org/2000/svg">
<path fill-rule="evenodd" clip-rule="evenodd" d="M1.8125 2.67564C1.8125 1.71569 2.59069 0.9375 3.55064 0.9375H4.3125C5.24202 0.9375 6.01356 1.61388 6.1618 2.50131C6.19023 2.67154 6.04759 2.8125 5.875 2.8125C5.70241 2.8125 5.56651 2.67042 5.52393 2.50316C5.38627 1.96243 4.89609 1.5625 4.3125 1.5625H3.55064C2.93587 1.5625 2.4375 2.06087 2.4375 2.67564C2.4375 3.09656 2.63794 3.48512 2.96553 3.73014C3.10373 3.83351 3.18048 4.01458 3.11249 4.17321C3.04451 4.33184 2.85891 4.40735 2.71321 4.31485C2.15834 3.9626 1.8125 3.34704 1.8125 2.67564ZM5.18227 5.3125H0.875C0.702411 5.3125 0.5625 5.17259 0.5625 5C0.5625 4.82741 0.702411 4.6875 0.875 4.6875H7.125C7.29759 4.6875 7.4375 4.82741 7.4375 5C7.4375 5.17259 7.29759 5.3125 7.125 5.3125H6.1813C6.25828 5.3997 6.3294 5.49191 6.39385 5.58759C6.64721 5.96373 6.8125 6.41597 6.8125 6.86678C6.8125 8.07944 5.82945 9.0625 4.61679 9.0625H3.6875C2.41241 9.0625 1.36027 8.1079 1.20676 6.87438C1.18545 6.70311 1.32741 6.5625 1.5 6.5625C1.67259 6.5625 1.80977 6.70346 1.83821 6.87369C1.98644 7.76112 2.75798 8.4375 3.6875 8.4375H4.61679C5.48427 8.4375 6.1875 7.73427 6.1875 6.86678C6.1875 6.56426 6.07401 6.23149 5.87548 5.93676C5.69008 5.66152 5.44363 5.43903 5.18227 5.3125Z" fill="#202124"/>
</svg>
