<svg width="8" height="10" viewBox="0 0 8 10" fill="none" xmlns="http://www.w3.org/2000/svg">
<path fill-rule="evenodd" clip-rule="evenodd" d="M1.1875 5V1.25C1.1875 1.07741 1.32741 0.9375 1.5 0.9375C1.67259 0.9375 1.8125 1.07741 1.8125 1.25V5C1.8125 6.20812 2.79188 7.1875 4 7.1875C5.20812 7.1875 6.1875 6.20812 6.1875 5V1.25C6.1875 1.07741 6.32741 0.9375 6.5 0.9375C6.67259 0.9375 6.8125 1.07741 6.8125 1.25V5C6.8125 6.5533 5.5533 7.8125 4 7.8125C2.4467 7.8125 1.1875 6.5533 1.1875 5ZM7.125 8.4375C7.29759 8.4375 7.4375 8.57741 7.4375 8.75C7.4375 8.92259 7.29759 9.0625 7.125 9.0625H0.875C0.702411 9.0625 0.5625 8.92259 0.5625 8.75C0.5625 8.57741 0.702411 8.4375 0.875 8.4375H7.125Z" fill="#202124"/>
</svg>
