<svg width="178" height="158" viewBox="0 0 178 158" fill="none" xmlns="http://www.w3.org/2000/svg">
<rect x="0.246094" y="3.146" width="177.754" height="146.293" rx="4" fill="#F3F8FF"/>
<path d="M147.265 89.2072C149.05 85.8172 150.072 81.9633 150.072 77.8655C150.072 67.4504 143.53 58.5847 134.34 55.091C134.34 55.08 134.342 55.069 134.342 55.0564C134.342 36.8122 119.552 22.0225 101.308 22.0225C85.9175 22.0225 73.0232 32.5634 69.3549 46.8089C67.0331 46.046 64.5587 45.6181 61.982 45.6181C49.8822 45.6181 39.9233 54.7308 38.5594 66.4641C30.3733 68.196 24.229 75.4572 24.229 84.1577C24.229 94.1481 32.3286 102.248 42.319 102.248C42.5974 102.248 42.8727 102.229 43.1464 102.213C43.1401 102.488 43.1055 102.757 43.1055 103.034C43.1055 120.844 57.5429 135.282 75.3529 135.282C85.4786 135.282 94.5047 130.607 100.418 123.304C103.844 126.804 108.607 128.989 113.892 128.989C121.207 128.989 127.537 124.821 130.671 118.736C132.325 119.263 134.086 119.551 135.915 119.551C145.471 119.551 153.219 111.804 153.219 102.248C153.219 97.0393 150.906 92.38 147.265 89.2072Z" fill="#E7F1FF"/>
<path d="M39.0233 75.5058H23.4423C23.0081 75.5058 22.6558 75.1535 22.6558 74.7193C22.6558 74.2852 23.0081 73.9328 23.4423 73.9328H39.0233C39.4574 73.9328 39.8098 74.2852 39.8098 74.7193C39.8098 75.1535 39.459 75.5058 39.0233 75.5058ZM43.8918 75.5058H42.3188C41.8846 75.5058 41.5323 75.1535 41.5323 74.7193C41.5323 74.2852 41.8846 73.9328 42.3188 73.9328H43.8918C44.326 73.9328 44.6784 74.2852 44.6784 74.7193C44.6784 75.1535 44.3276 75.5058 43.8918 75.5058ZM51.7429 78.6519H37.5997C37.1655 78.6519 36.8132 78.2996 36.8132 77.8654C36.8132 77.4312 37.1655 77.0789 37.5997 77.0789H51.7429C52.1771 77.0789 52.5294 77.4312 52.5294 77.8654C52.5294 78.2996 52.1771 78.6519 51.7429 78.6519ZM34.4536 78.6519H32.8805C32.4464 78.6519 32.094 78.2996 32.094 77.8654C32.094 77.4312 32.4464 77.0789 32.8805 77.0789H34.4536C34.8877 77.0789 35.2401 77.4312 35.2401 77.8654C35.2401 78.2996 34.8893 78.6519 34.4536 78.6519ZM29.7345 78.6519H26.5884C26.1542 78.6519 25.8018 78.2996 25.8018 77.8654C25.8018 77.4312 26.1542 77.0789 26.5884 77.0789H29.7345C30.1686 77.0789 30.521 77.4312 30.521 77.8654C30.521 78.2996 30.1702 78.6519 29.7345 78.6519ZM39.1727 81.798H36.0266C35.5925 81.798 35.2401 81.4457 35.2401 81.0115C35.2401 80.5773 35.5925 80.225 36.0266 80.225H39.1727C39.6069 80.225 39.9592 80.5773 39.9592 81.0115C39.9592 81.4457 39.6069 81.798 39.1727 81.798ZM43.8918 67.6406C43.6134 67.6406 42.5972 67.6406 42.3188 67.6406C41.8846 67.6406 41.5323 67.993 41.5323 68.4271C41.5323 68.8613 41.8846 69.2137 42.3188 69.2137C42.5972 69.2137 43.6134 69.2137 43.8918 69.2137C44.326 69.2137 44.6784 68.8613 44.6784 68.4271C44.6784 67.993 44.326 67.6406 43.8918 67.6406ZM43.8918 70.7867C43.6134 70.7867 36.3051 70.7867 36.0266 70.7867C35.5925 70.7867 35.2401 71.1391 35.2401 71.5732C35.2401 72.0074 35.5925 72.3598 36.0266 72.3598C36.3051 72.3598 43.6134 72.3598 43.8918 72.3598C44.326 72.3598 44.6784 72.0074 44.6784 71.5732C44.6784 71.1391 44.326 70.7867 43.8918 70.7867ZM51.7571 73.9328C51.4786 73.9328 47.3164 73.9328 47.0379 73.9328C46.6038 73.9328 46.2514 74.2852 46.2514 74.7193C46.2514 75.1535 46.6038 75.5058 47.0379 75.5058C47.3164 75.5058 51.4786 75.5058 51.7571 75.5058C52.1912 75.5058 52.5436 75.1535 52.5436 74.7193C52.5436 74.2852 52.1912 73.9328 51.7571 73.9328ZM143.78 100.675H128.05C127.616 100.675 127.263 100.322 127.263 99.888C127.263 99.4539 127.616 99.1015 128.05 99.1015H143.78C144.214 99.1015 144.567 99.4539 144.567 99.888C144.567 100.322 144.214 100.675 143.78 100.675ZM150.072 100.675H146.926C146.492 100.675 146.14 100.322 146.14 99.888C146.14 99.4539 146.492 99.1015 146.926 99.1015H150.072C150.506 99.1015 150.859 99.4539 150.859 99.888C150.859 100.322 150.506 100.675 150.072 100.675ZM157.937 103.821H142.207C141.773 103.821 141.421 103.468 141.421 103.034C141.421 102.6 141.773 102.248 142.207 102.248H157.937C158.372 102.248 158.724 102.6 158.724 103.034C158.724 103.468 158.373 103.821 157.937 103.821ZM139.061 103.821H137.488C137.054 103.821 136.701 103.468 136.701 103.034C136.701 102.6 137.054 102.248 137.488 102.248H139.061C139.495 102.248 139.847 102.6 139.847 103.034C139.847 103.468 139.495 103.821 139.061 103.821ZM134.145 103.821H131.196C130.762 103.821 130.409 103.468 130.409 103.034C130.409 102.6 130.762 102.248 131.196 102.248H134.145C134.579 102.248 134.932 102.6 134.932 103.034C134.932 103.468 134.579 103.821 134.145 103.821ZM148.499 97.5285H140.634C140.2 97.5285 139.847 97.1761 139.847 96.7419C139.847 96.3078 140.2 95.9554 140.634 95.9554H148.499C148.933 95.9554 149.286 96.3078 149.286 96.7419C149.286 97.1761 148.935 97.5285 148.499 97.5285ZM143.78 106.967H140.634C140.2 106.967 139.847 106.614 139.847 106.18C139.847 105.746 140.2 105.394 140.634 105.394H143.78C144.214 105.394 144.567 105.746 144.567 106.18C144.567 106.614 144.214 106.967 143.78 106.967Z" fill="white"/>
<path d="M111.139 60.5624C111.139 60.5624 108.675 60.5624 105.634 60.5624C102.593 60.5624 100.128 58.0974 100.128 55.0567C100.128 52.2551 102.228 49.9695 104.934 49.6218C104.89 49.3403 104.847 49.0587 104.847 48.7645C104.847 45.7238 107.312 43.2589 110.353 43.2589C111.976 43.2589 113.42 43.9746 114.427 45.0915C115.031 42.2474 117.553 40.1128 120.578 40.1128C124.053 40.1128 126.87 42.9301 126.87 46.405C126.87 46.7054 126.823 46.9933 126.782 47.2827C127.455 46.7416 128.3 46.405 129.229 46.405C131.161 46.405 132.761 47.8003 133.091 49.6376C133.373 49.5935 133.654 49.5511 133.949 49.5511C136.989 49.5511 139.454 52.016 139.454 55.0567C139.454 58.0974 136.989 60.5624 133.949 60.5624C130.908 60.5624 122.151 60.5624 122.151 60.5624V61.3489H111.139V60.5624Z" fill="white"/>
<path d="M108.387 53.4838C108.604 53.4838 108.78 53.3077 108.78 53.0906C108.78 51.1667 107.215 49.6016 105.291 49.6016C105.237 49.6157 104.132 49.6 103.334 49.8155C103.125 49.8721 103.001 50.0876 103.057 50.2968C103.114 50.5076 103.329 50.6319 103.538 50.5737C104.237 50.3849 105.269 50.3849 105.289 50.3881C106.781 50.3881 107.993 51.6009 107.993 53.0906C107.993 53.3077 108.17 53.4838 108.387 53.4838ZM119.005 59.776C118.796 59.776 118.596 59.8589 118.448 60.0064C118.301 60.1539 118.218 60.3539 118.218 60.5625C118.218 60.7711 118.301 60.9712 118.448 61.1187C118.596 61.2662 118.796 61.349 119.005 61.349C119.213 61.349 119.413 61.2662 119.561 61.1187C119.708 60.9712 119.791 60.7711 119.791 60.5625C119.791 60.3539 119.708 60.1539 119.561 60.0064C119.413 59.8589 119.213 59.776 119.005 59.776Z" fill="#BDC1C6"/>
<path d="M105.634 61.3488H111.14C111.574 61.3488 111.926 60.9964 111.926 60.5623C111.926 60.1281 111.574 59.7757 111.14 59.7757H105.634C103.032 59.7757 100.915 57.6584 100.915 55.0566C100.915 52.7033 102.685 50.7024 105.033 50.402C105.244 50.3737 105.434 50.2635 105.562 50.0937C105.689 49.9238 105.743 49.7098 105.709 49.5006C105.673 49.2584 105.634 49.0161 105.634 48.7644C105.634 46.1626 107.751 44.0453 110.353 44.0453C111.69 44.0453 112.93 44.6037 113.844 45.6183C114.04 45.837 114.349 45.9298 114.63 45.8512C114.917 45.7741 115.135 45.5444 115.197 45.255C115.733 42.7318 117.997 40.8992 120.578 40.8992C123.614 40.8992 126.084 43.3689 126.084 46.4049C126.084 46.6298 126.051 46.8453 126.019 47.0624C125.973 47.3817 126.118 47.7514 126.4 47.9118C126.681 48.0723 127.023 48.0975 127.274 47.8961C127.849 47.4352 128.523 47.1914 129.23 47.1914C130.749 47.1914 132.049 48.2784 132.318 49.7775C132.393 50.1975 132.783 50.479 133.213 50.4146C133.455 50.3768 133.697 50.3375 133.949 50.3375C136.551 50.3375 138.668 52.4548 138.668 55.0566C138.668 57.6584 136.551 59.7757 133.949 59.7757H122.151C121.717 59.7757 121.364 60.1281 121.364 60.5623C121.364 60.9964 121.717 61.3488 122.151 61.3488H133.949C137.419 61.3488 140.241 58.5267 140.241 55.0566C140.241 51.5865 137.419 48.7644 133.949 48.7644C133.856 48.7644 133.766 48.7676 133.675 48.7739C133.024 46.9082 131.257 45.6183 129.23 45.6183C128.681 45.6183 128.146 45.7143 127.639 45.9015C127.38 42.2316 124.312 39.3262 120.578 39.3262C117.698 39.3262 115.126 41.099 114.045 43.6898C112.975 42.9064 111.682 42.4723 110.353 42.4723C106.883 42.4723 104.061 45.2943 104.061 48.7644C104.061 48.8399 104.063 48.9139 104.067 48.9878C101.325 49.6925 99.3418 52.1764 99.3418 55.0566C99.3418 58.5267 102.164 61.3488 105.634 61.3488Z" fill="#9AA0A6"/>
<path d="M114.286 59.7759C114.536 59.7759 115.608 59.7759 115.859 59.7759C116.293 59.7759 116.645 60.1282 116.645 60.5624C116.645 60.9966 116.293 61.3489 115.859 61.3489C115.608 61.3489 114.536 61.3489 114.286 61.3489C113.851 61.3489 113.499 60.9966 113.499 60.5624C113.499 60.1282 113.851 59.7759 114.286 59.7759Z" fill="#472B29"/>
<path d="M62.8015 120.023C61.2222 120.023 59.937 118.738 59.937 117.158V52.7297C59.937 51.1504 61.2222 49.8652 62.8015 49.8652H113.071C114.651 49.8652 115.936 51.1504 115.936 52.7297V117.157C115.936 118.736 114.651 120.021 113.071 120.021H62.8015V120.023Z" fill="#85B7FE"/>
<path d="M113.071 50.9664C114.045 50.9664 114.836 51.7577 114.836 52.7314V117.157C114.836 118.131 114.045 118.922 113.071 118.922H62.8032C61.8294 118.922 61.0382 118.131 61.0382 117.157V52.7314C61.0382 51.7577 61.8294 50.9664 62.8032 50.9664H113.071ZM113.071 48.7642H62.8032C60.6119 48.7642 58.8359 50.5401 58.8359 52.7314V117.157C58.8359 119.348 60.6119 121.124 62.8032 121.124H113.071C115.263 121.124 117.039 119.348 117.039 117.157V52.7314C117.039 50.5401 115.263 48.7642 113.071 48.7642Z" fill="#803C25"/>
<path d="M64.656 113.731V56.1577H111.218V103.415L100.507 113.731H64.656Z" fill="white"/>
<path d="M110.117 57.2589V102.948L100.064 112.63H65.7572V57.2589H110.117ZM112.319 55.0566H63.5549V114.832H100.952L112.319 103.884V55.0566Z" fill="#803C25"/>
<path d="M109.271 103.821L101.302 111.195L101.256 103.821H109.271Z" fill="#85B7FE"/>
<path d="M79.6126 60.2473C78.3054 60.2473 77.2405 59.3349 77.2405 58.2134V53.1277C77.2405 52.0077 77.7596 51.8347 77.9295 51.778C77.9861 51.7576 78.0412 51.7356 78.0931 51.7073L84.2389 48.4684C85.8954 47.6582 87.3331 47.2744 88.7378 47.2744C90.1473 47.2744 91.6244 47.6614 93.3815 48.4888L99.4629 52.121C99.5148 52.1524 99.5682 52.1776 99.6249 52.1996C100.188 52.4214 100.204 53.0553 100.204 53.1277V58.2134C100.204 59.3349 99.1388 60.2473 97.8316 60.2473H79.6126Z" fill="#93D3A2"/>
<path d="M88.7411 48.3756C89.9602 48.3756 91.2579 48.7154 92.8215 49.4406L98.9013 53.0648C98.9674 53.1042 99.035 53.1403 99.1043 53.1718V58.2118C99.1043 58.7168 98.5222 59.1447 97.8332 59.1447H79.6127C78.9237 59.1447 78.3417 58.7168 78.3417 58.2118V53.1246C78.3417 52.9657 78.359 52.8525 78.3763 52.7833C78.4549 52.7518 78.532 52.7172 78.6075 52.6779L84.6952 49.4704C86.2242 48.7232 87.5094 48.3756 88.7411 48.3756ZM88.7411 46.1733C87.1255 46.1733 85.5273 46.6138 83.7278 47.4931L77.5819 50.7304C76.4336 51.1158 76.1394 52.206 76.1394 53.1262V58.2134C76.1394 59.9453 77.6951 61.3485 79.6127 61.3485H97.8332C99.7524 61.3485 101.308 59.9453 101.308 58.2134V53.1262C101.308 52.5158 101.012 51.5594 100.029 51.174L93.855 47.4931C91.9894 46.6138 90.3566 46.1733 88.7411 46.1733Z" fill="#803C25"/>
<path d="M88.7237 50.3374C88.3065 50.3374 87.9064 50.5031 87.6114 50.7981C87.3164 51.0931 87.1506 51.4933 87.1506 51.9104C87.1506 52.3276 87.3164 52.7278 87.6114 53.0228C87.9064 53.3178 88.3065 53.4835 88.7237 53.4835C89.1409 53.4835 89.541 53.3178 89.836 53.0228C90.131 52.7278 90.2967 52.3276 90.2967 51.9104C90.2967 51.4933 90.131 51.0931 89.836 50.7981C89.541 50.5031 89.1409 50.3374 88.7237 50.3374Z" fill="#472B29"/>
<path d="M101.623 113.259H99.4204V103.034C99.4204 102.425 99.9128 101.933 100.522 101.933H110.746V104.135H101.623V113.259Z" fill="#803C25"/>
<path d="M50.9706 127.416H41.9256C38.0166 128.596 34.8469 125.427 34.8469 121.518C34.8469 117.848 37.6501 114.865 41.2256 114.51C41.191 114.225 41.1391 113.946 41.1391 113.652C41.1391 109.743 44.3088 106.574 48.2178 106.574C50.4798 106.574 52.4697 107.653 53.7659 109.304C53.9861 105.158 57.3871 101.854 61.5887 101.854C65.9318 101.854 69.4539 105.377 69.4539 109.72C69.4539 110.421 69.3328 111.088 69.1597 111.736C70.1696 110.514 71.6766 109.72 73.3865 109.72C76.1881 109.72 78.4737 111.82 78.8214 114.525C79.1061 114.491 79.3845 114.439 79.6787 114.439C83.5877 114.439 86.7574 117.609 86.7574 121.518C86.7574 125.427 83.5877 128.596 79.6787 127.416H64.7348H55.6898V128.989H50.9706V127.416Z" fill="white"/>
<path d="M61.1954 100.675C65.9664 100.675 69.8471 104.556 69.8471 109.327C69.8471 109.352 69.8471 109.375 69.8471 109.4C70.7941 108.842 71.8764 108.54 72.9932 108.54C75.8735 108.54 78.3589 110.524 79.062 113.267C79.1359 113.262 79.2099 113.259 79.2854 113.259C84.1602 113.259 88.0142 117.717 86.9823 122.771C86.2272 126.47 82.7524 128.99 78.9771 128.99H55.8864C55.4522 128.99 55.0998 128.637 55.0998 128.203C55.0998 127.769 55.4522 127.417 55.8864 127.417H79.0384C82.0587 127.417 84.8382 125.4 85.4423 122.441C86.2681 118.398 83.185 114.832 79.2854 114.832C79.1013 114.832 78.9236 114.859 78.7458 114.883L78.524 114.912C78.491 114.917 78.4595 114.919 78.4265 114.919C78.0395 114.919 77.6998 114.628 77.6478 114.231C77.3474 111.883 75.3465 110.113 72.9932 110.113C71.6011 110.113 70.2829 110.744 69.3736 111.843C69.2195 112.029 68.9945 112.13 68.7664 112.13C68.6437 112.13 68.521 112.101 68.4078 112.042C68.079 111.873 67.9139 111.497 68.0082 111.14C68.2599 110.196 68.326 109.459 68.2395 108.704C67.8619 105.358 65.1579 102.555 61.8026 102.273C57.7897 101.935 54.37 104.991 54.1592 108.952C54.1419 109.279 53.9232 109.561 53.6102 109.66C53.5315 109.685 53.4513 109.698 53.3711 109.698C53.1351 109.698 52.9054 109.589 52.7544 109.396C51.54 107.853 49.7452 106.967 47.8245 106.967C44.3544 106.967 41.5323 109.789 41.5323 113.259C41.5323 113.443 41.5591 113.621 41.5827 113.799L41.6126 114.021C41.6377 114.231 41.578 114.442 41.4458 114.607C41.3137 114.772 41.1202 114.878 40.911 114.898C37.2112 115.266 34.5527 118.719 35.399 122.551C36.0408 125.466 38.8188 127.417 41.8045 127.417H51.1672C51.6014 127.417 51.9538 127.769 51.9538 128.203C51.9538 128.637 51.6014 128.99 51.1672 128.99H41.8265C37.9458 128.99 34.4206 126.309 33.7804 122.48C33.0536 118.134 35.8946 114.269 39.964 113.451C39.9609 113.388 39.9593 113.324 39.9593 113.259C39.9593 108.922 43.4876 105.394 47.8245 105.394C49.6744 105.394 51.4315 106.048 52.8315 107.225C53.7722 103.443 57.1763 100.675 61.1954 100.675Z" fill="#9AA0A6"/>
<path d="M63.9482 112.08C66.1552 112.08 68.0523 113.651 68.5305 115.762C69.1078 115.413 69.7669 115.226 70.437 115.226C72.3278 115.226 73.8946 116.637 74.1384 118.479C74.4577 118.408 74.7613 118.372 75.0586 118.372C77.4638 118.372 79.4804 120.259 79.6488 122.669C79.6629 122.886 79.5009 123.074 79.2838 123.089C79.2744 123.089 79.2649 123.089 79.2555 123.089C79.051 123.089 78.878 122.93 78.8638 122.724C78.7238 120.725 77.0532 119.157 75.0586 119.157C74.6984 119.157 74.3193 119.223 73.8977 119.356C73.8631 119.367 73.8269 119.372 73.7923 119.372C73.7058 119.372 73.6193 119.341 73.5469 119.287C73.4462 119.213 73.3865 119.084 73.3865 118.959C73.3865 117.332 72.0635 116.009 70.437 116.009C69.7339 116.009 69.0449 116.273 68.5006 116.753C68.4267 116.818 68.3339 116.852 68.241 116.852C68.1907 116.852 68.1419 116.843 68.0948 116.822C67.9563 116.767 67.8619 116.638 67.8509 116.489C67.6905 114.456 65.9774 112.863 63.9514 112.863C63.6242 112.863 63.2828 112.916 62.8785 113.031C62.8424 113.042 62.8046 113.047 62.7684 113.047C62.597 113.047 62.4428 112.932 62.3925 112.761C62.3327 112.552 62.4538 112.334 62.663 112.275C63.1349 112.143 63.5455 112.08 63.9482 112.08ZM42.1096 114.439C44.1955 114.439 46.0548 115.85 46.6306 117.872C46.6903 118.081 46.5692 118.298 46.36 118.358C46.3238 118.369 46.2876 118.373 46.253 118.373C46.0816 118.373 45.9243 118.26 45.8755 118.087C45.3957 116.402 43.8479 115.227 42.1112 115.227C41.9272 115.227 41.7494 115.249 41.5732 115.273C41.5544 115.276 41.5371 115.278 41.5182 115.278C41.3278 115.278 41.158 115.133 41.1312 114.936C41.1013 114.721 41.2523 114.523 41.4678 114.494C41.6771 114.464 41.891 114.439 42.1096 114.439Z" fill="#BDC1C6"/>
<path d="M90.1968 74.7194C90.1968 75.9674 89.1851 76.979 87.9372 76.979C86.6893 76.979 85.6776 75.9674 85.6776 74.7194C85.6776 73.4715 86.6893 72.4599 87.9372 72.4599C89.1851 72.4599 90.1968 73.4715 90.1968 74.7194Z" fill="#FFF1ED" stroke="#FFBCA5" stroke-width="0.2"/>
<path d="M91.7697 67.6409C91.7697 68.4544 91.1102 69.114 90.2967 69.114C89.4831 69.114 88.8236 68.4544 88.8236 67.6409C88.8236 66.8274 89.4831 66.1679 90.2967 66.1679C91.1102 66.1679 91.7697 66.8274 91.7697 67.6409Z" fill="#FFF1ED" stroke="#FFBCA5" stroke-width="0.2"/>
<path d="M85.4777 66.0677C85.4777 66.8812 84.8182 67.5407 84.0047 67.5407C83.1911 67.5407 82.5316 66.8812 82.5316 66.0677C82.5316 65.2541 83.1911 64.5946 84.0047 64.5946C84.8182 64.5946 85.4777 65.2541 85.4777 66.0677Z" fill="#FFF1ED" stroke="#FFBCA5" stroke-width="0.2"/>
<path d="M99.1432 96.4953L99.1487 96.4941L92.8539 85.1291V81.2428H94.2304C94.9902 81.2428 95.6069 80.6624 95.6069 79.9473C95.6069 79.2322 94.9902 78.6519 94.2304 78.6519H92.8539H84.5948H83.2183C82.4585 78.6519 81.8418 79.2322 81.8418 79.9473C81.8418 80.6624 82.4585 81.2428 83.2183 81.2428H84.5948V85.1291L78.3 96.4941L78.3055 96.4953C77.9559 96.9151 77.7329 97.432 77.7136 98.002C77.6641 99.4723 79.0998 100.674 80.6621 100.674H96.7852C98.3476 100.674 99.7846 99.4723 99.7337 98.002C99.7158 97.432 99.4928 96.9151 99.1432 96.4953Z" fill="#FFBCA5"/>
</svg>
