<svg width="8" height="13" viewBox="0 0 8 13" fill="none" xmlns="http://www.w3.org/2000/svg">
<path d="M3.22669 0.138843L0.17905 2.88172L0.143936 2.9163C-0.044308 3.11917 -0.049878 3.43586 0.138848 3.64556L0.173424 3.68067C0.376303 3.86892 0.692993 3.87449 0.902689 3.68576L3.04772 1.75502L3.04772 11.9036L3.04993 11.9528C3.0748 12.2284 3.30647 12.4444 3.58859 12.4444C3.8873 12.4444 4.12945 12.2023 4.12945 11.9036V1.7555L6.27433 3.68576L6.3124 3.71705C6.53392 3.88296 6.84945 3.85526 7.03817 3.64556C7.238 3.42353 7.22 3.08155 6.99797 2.88172L3.95033 0.138843L3.91297 0.108096C3.70827 -0.0456405 3.42028 -0.0353913 3.22669 0.138843Z" fill="#0D6EFD"/>
</svg>
