<svg width="127" height="139" viewBox="0 0 127 139" fill="none" xmlns="http://www.w3.org/2000/svg">
<g filter="url(#filter0_d)">
<rect x="6" y="6.69775" width="115" height="126" rx="4" fill="white"/>
<rect x="6.25" y="6.94775" width="114.5" height="125.5" rx="3.75" stroke="#E7F1FF" stroke-width="0.5"/>
</g>
<rect x="15" y="16.6978" width="97" height="60" rx="2" fill="#EFF0F1"/>
<path d="M52.8438 38.6978C52.3757 38.6978 52 39.0735 52 39.5415V54.729C52 55.197 52.3757 55.5728 52.8438 55.5728H73.0938C73.5618 55.5728 73.9375 55.197 73.9375 54.729V39.5415C73.9375 39.0735 73.5618 38.6978 73.0938 38.6978H52.8438ZM53.6875 40.3853H72.25V53.8853H53.6875V40.3853ZM60.8965 43.2034C60.6967 43.0785 60.4375 43.2221 60.4375 43.4578V50.8127C60.4375 51.0484 60.6967 51.192 60.8965 51.0671L66.7805 47.3897C66.9685 47.2722 66.9685 46.9984 66.7805 46.8809L60.8965 43.2034Z" fill="#BDC1C6"/>
<rect x="15" y="87.6978" width="97" height="4" fill="#EFF0F1"/>
<rect x="15" y="81.6978" width="97" height="4" fill="#EFF0F1"/>
<rect x="15" y="93.6978" width="97" height="4" fill="#EFF0F1"/>
<rect x="15" y="99.6978" width="97" height="4" fill="#EFF0F1"/>
<rect x="15" y="105.698" width="97" height="4" fill="#EFF0F1"/>
<rect x="15" y="111.698" width="97" height="4" fill="#EFF0F1"/>
<rect x="15" y="117.698" width="97" height="4" fill="#EFF0F1"/>
<defs>
<filter id="filter0_d" x="0" y="0.697754" width="127" height="138" filterUnits="userSpaceOnUse" color-interpolation-filters="sRGB">
<feFlood flood-opacity="0" result="BackgroundImageFix"/>
<feColorMatrix in="SourceAlpha" type="matrix" values="0 0 0 0 0 0 0 0 0 0 0 0 0 0 0 0 0 0 127 0" result="hardAlpha"/>
<feOffset/>
<feGaussianBlur stdDeviation="3"/>
<feColorMatrix type="matrix" values="0 0 0 0 0 0 0 0 0 0 0 0 0 0 0 0 0 0 0.1 0"/>
<feBlend mode="normal" in2="BackgroundImageFix" result="effect1_dropShadow"/>
<feBlend mode="normal" in="SourceGraphic" in2="effect1_dropShadow" result="shape"/>
</filter>
</defs>
</svg>
