<svg width="706" height="234" viewBox="0 0 706 234" fill="none" xmlns="http://www.w3.org/2000/svg">
<path d="M704.64 233.892H7.36016C6.56006 233.892 6 233.498 6 232.946C6 232.394 6.56006 232 7.36016 232H704.64C705.44 232 706 232.394 706 232.946C706 233.498 705.28 233.892 704.64 233.892Z" fill="#E7F1FF"/>
<path d="M132.964 112.131C134.616 111.718 136.109 111.875 137.713 112.131C162.94 116.158 165.572 122.311 165.37 123.353C164.848 126.057 155.112 121.588 154.096 121.245C154.096 121.245 165.214 126.825 163.298 129.789C161.705 132.255 151.097 125.424 151.097 125.424C153.249 128.379 156.311 132.273 155.107 133.651C153.359 135.62 150.596 132.402 148.564 130.445C144.055 126.126 141.497 127.823 137.584 128.206C132.298 128.723 128.885 125.251 128.093 124.532L124.858 121.58C124.405 121.168 124.13 120.596 124.09 119.986C124.051 119.375 124.249 118.772 124.645 118.305C126.622 115.974 132.964 112.131 132.964 112.131Z" fill="#FFF1ED"/>
<path d="M153.827 134.885C153.851 134.885 153.876 134.885 153.9 134.885C154.221 134.873 154.536 134.794 154.824 134.652C155.111 134.511 155.366 134.31 155.571 134.063C156.753 132.709 155.282 130.188 153.392 127.523C154.268 128.022 155.287 128.576 156.327 129.087C160.554 131.163 162.934 131.493 163.819 130.126C163.979 129.874 164.082 129.591 164.123 129.296C164.163 129.001 164.139 128.701 164.053 128.416C163.675 127.031 162.005 125.495 160.15 124.158C162.325 124.806 164.183 125.083 165.18 124.545C165.387 124.439 165.566 124.287 165.705 124.1C165.843 123.914 165.937 123.698 165.979 123.47C166.074 122.98 165.845 122.295 165.353 121.592C163.681 119.205 157.881 114.723 137.811 111.519C136.281 111.275 134.636 111.075 132.815 111.53C132.754 111.545 132.697 111.569 132.644 111.601C132.382 111.76 126.193 115.523 124.174 117.903C123.672 118.491 123.42 119.252 123.47 120.024C123.52 120.795 123.869 121.517 124.442 122.036L127.678 124.989C127.719 125.025 127.764 125.068 127.817 125.118C130.83 127.919 134.138 129.166 137.645 128.822C138.436 128.744 139.161 128.617 139.863 128.494C142.586 128.015 144.739 127.637 148.137 130.892C148.364 131.11 148.601 131.346 148.845 131.588C150.402 133.135 152.164 134.885 153.827 134.885ZM151.098 124.804C150.983 124.804 150.871 124.835 150.774 124.895C150.676 124.955 150.597 125.04 150.545 125.142C150.494 125.244 150.471 125.358 150.48 125.472C150.489 125.586 150.529 125.695 150.597 125.787C150.777 126.035 150.963 126.288 151.152 126.546C152.643 128.576 155.418 132.354 154.642 133.243C154.548 133.362 154.43 133.46 154.296 133.529C154.161 133.599 154.013 133.639 153.862 133.646C152.708 133.673 151.051 132.033 149.718 130.709C149.47 130.462 149.228 130.222 148.995 129.999C145.143 126.308 142.474 126.777 139.648 127.274C138.97 127.394 138.268 127.517 137.524 127.59C132.79 128.051 129.682 125.161 128.66 124.211C128.603 124.158 128.554 124.112 128.511 124.074L125.276 121.122C124.941 120.819 124.736 120.397 124.707 119.945C124.677 119.494 124.825 119.049 125.118 118.705C126.89 116.616 132.467 113.163 133.205 112.71C134.766 112.34 136.182 112.514 137.615 112.743C150.66 114.825 157.306 117.454 160.583 119.293C164.159 121.299 164.788 122.92 164.761 123.245C164.752 123.291 164.733 123.335 164.703 123.371C164.674 123.408 164.635 123.437 164.592 123.455C163.598 123.992 160.44 123.172 155.204 121.02C154.752 120.834 154.453 120.71 154.294 120.658C154.146 120.609 153.984 120.617 153.842 120.682C153.7 120.747 153.588 120.863 153.528 121.008C153.468 121.152 153.465 121.313 153.518 121.46C153.572 121.606 153.68 121.727 153.819 121.798C156.122 122.953 162.236 126.455 162.858 128.741C162.9 128.858 162.914 128.983 162.901 129.106C162.887 129.229 162.845 129.348 162.779 129.452C162.708 129.563 161.936 130.458 156.882 127.978C155.016 127.045 153.197 126.019 151.434 124.903C151.333 124.838 151.217 124.804 151.098 124.804Z" fill="#202124"/>
<path d="M51.8291 231.441C53.1215 225.165 50.3715 219.305 44.8756 218.038C40.042 216.924 38.3876 214.915 38.4882 212.357L13.9865 197.789L0.619148 219.545L19.4915 231.457L51.8291 231.441Z" fill="#3C4043"/>
<path d="M19.4915 232.076L51.8291 232.061C51.9719 232.061 52.1102 232.011 52.2207 231.921C52.3312 231.831 52.4072 231.705 52.4357 231.565C53.0982 228.348 52.7483 225.158 51.4509 222.582C50.1044 219.909 47.8185 218.081 45.0146 217.434C39.5903 216.183 39.045 213.951 39.107 212.381C39.1115 212.269 39.0857 212.159 39.0325 212.061C38.9793 211.963 38.9005 211.881 38.8045 211.824L14.303 197.255C14.1632 197.172 13.9962 197.147 13.8382 197.186C13.6802 197.225 13.5438 197.324 13.4586 197.463L0.091465 219.222C0.00617981 219.36 -0.0209503 219.527 0.0159569 219.686C0.0528641 219.845 0.150837 219.982 0.288635 220.069L19.161 231.981C19.26 232.043 19.3745 232.076 19.4915 232.076ZM51.3161 230.822L19.6708 230.838L1.4673 219.348L14.1949 198.633L37.866 212.708C37.9302 215.648 40.1824 217.591 44.7363 218.642C49.6339 219.771 52.3486 224.85 51.3161 230.822Z" fill="#202124"/>
<path d="M147.626 230.781C148.918 224.632 146.168 218.892 140.672 217.65C135.839 216.558 133.377 211.625 134.203 205.683L103.36 203.98L99.5364 231.463L147.626 230.781Z" fill="#3C4043"/>
<path d="M99.5359 232.082H99.5448L147.635 231.401C147.776 231.399 147.912 231.349 148.02 231.26C148.129 231.17 148.204 231.047 148.232 230.909C148.896 227.751 148.546 224.621 147.246 222.093C146.616 220.826 145.711 219.716 144.598 218.843C143.484 217.97 142.19 217.356 140.809 217.046C136.425 216.055 134.017 211.523 134.816 205.768C134.828 205.684 134.822 205.597 134.799 205.515C134.776 205.432 134.735 205.356 134.681 205.29C134.627 205.224 134.559 205.169 134.483 205.131C134.406 205.092 134.323 205.07 134.237 205.065L103.394 203.362C103.239 203.354 103.086 203.404 102.966 203.503C102.847 203.602 102.768 203.741 102.746 203.895L98.9215 231.378C98.9093 231.465 98.916 231.555 98.9413 231.64C98.9666 231.724 99.0097 231.803 99.0679 231.87C99.126 231.936 99.1978 231.99 99.2784 232.027C99.359 232.063 99.4465 232.082 99.5351 232.082H99.5359ZM147.114 230.169L100.248 230.834L103.894 204.63L133.509 206.265C132.893 212.377 135.663 217.153 140.536 218.254C145.43 219.359 148.144 224.328 147.114 230.169Z" fill="#202124"/>
<path d="M136.387 151.96L136.386 151.96L136.387 151.947C136.477 149.683 135.962 146.81 135.064 144.026C134.168 141.245 132.906 138.603 131.536 136.792L107.417 106.141L86.1653 115.561L85.1694 131.821L99.8986 149.167L100.016 149.305L100.017 149.487L100.268 183.683V183.684L100.365 198.076L100.414 205.035L135.589 206.833L136.387 151.96Z" fill="white" stroke="#202124"/>
<path d="M28.2506 158.75L7.62793 196.475L39.3605 213.812L54.7909 185.585L54.7909 185.585L59.4403 177.077L59.4404 177.077L84.2195 131.751L84.2195 131.751L88.3812 124.14L85.4663 106.636L56.6777 106L32.6954 150.622L32.6936 150.625L28.2507 158.749L28.2506 158.75Z" fill="white" stroke="#202124"/>
<path d="M56.6658 105.347L56.6658 105.35C56.6651 105.38 56.6766 105.41 56.6977 105.432C56.7188 105.455 56.7478 105.468 56.7786 105.469L56.7795 105.469L64.6435 105.768L65.0277 105.783L65.1123 106.158L67.7466 117.845C67.7466 117.845 67.7467 117.845 67.7467 117.845C68.2678 120.154 69.5585 122.219 71.4071 123.699C73.2556 125.179 75.5523 125.987 77.9207 125.991C78.4845 125.991 79.0473 125.945 79.6039 125.855L110.687 120.822C110.688 120.822 110.688 120.822 110.689 120.821C111.877 120.622 113.018 120.219 114.063 119.635C113.542 119.559 112.913 119.422 112.223 119.167C110.217 118.426 107.754 116.718 105.912 112.812L105.908 112.804L105.905 112.796C104.138 108.685 105.395 105.555 107.171 103.647C108.048 102.705 109.055 102.056 109.887 101.727C110.297 101.564 110.7 101.466 111.042 101.472C111.356 101.478 111.841 101.593 111.975 102.095C113.294 107.039 114.785 111.811 116.524 115.384C117.394 117.171 118.314 118.632 119.288 119.662C120.26 120.692 121.25 121.255 122.266 121.334C124.224 121.485 126.644 120.427 128.953 118.878C131.239 117.344 133.315 115.396 134.557 113.923C135.89 112.342 135.431 109.942 133.691 108.606L133.671 108.591L133.653 108.573L100.355 77.2085L100.355 77.2082C97.8306 74.8263 94.8128 73.0292 91.5158 71.9445L91.5129 71.9435C90.3143 71.5411 89.0731 71.2807 87.8145 71.1674C87.7778 71.2582 87.7386 71.3607 87.693 71.4798C87.6469 71.6004 87.5942 71.7381 87.531 71.8982C87.2753 72.5454 86.899 73.4207 86.344 74.2771C85.2314 75.9942 83.3515 77.6939 80.2676 77.2831C78.2639 77.1546 76.8651 76.5538 75.9152 75.6724C74.965 74.7907 74.515 73.6755 74.3194 72.6156C74.1244 71.5592 74.1771 70.5326 74.2513 69.7911C74.2712 69.5921 74.2951 69.3938 74.3155 69.2278C71.788 69.6239 67.4134 70.9608 63.2902 74.3334C62.2996 75.1437 61.6322 76.3254 61.1989 77.6865C60.766 79.0463 60.5772 80.5532 60.5219 81.9705C60.4666 83.3854 60.5449 84.6941 60.6375 85.6502C60.6837 86.1276 60.7333 86.5157 60.7712 86.7834C60.7901 86.9172 60.8061 87.0208 60.8173 87.0904C60.8228 87.1252 60.8272 87.1514 60.8301 87.1687L60.8334 87.1877L60.8341 87.192L60.8343 87.1929L60.8343 87.193L60.8379 87.2137L60.8399 87.2347C61.1811 90.9791 59.6651 94.7884 58.534 97.2671L58.5317 97.2722C57.3433 99.8006 56.7073 102.553 56.6658 105.347ZM87.9037 70.9675C87.9037 70.9675 87.9032 70.9683 87.9023 70.9699C87.9033 70.9683 87.9038 70.9675 87.9037 70.9675Z" fill="#FFED96" stroke="#202124"/>
<path d="M96.1104 102.772C96.1479 102.772 96.1853 102.768 96.2221 102.761C96.3837 102.732 96.5269 102.639 96.6204 102.504C96.7138 102.369 96.7499 102.203 96.7205 102.041C96.4653 100.64 96.0639 99.269 95.523 97.9512C94.2087 94.7971 93.7253 91.3588 94.1191 87.9648C94.1651 87.5777 94.1971 87.2192 94.2174 86.8698C94.2225 86.7884 94.2114 86.7067 94.1849 86.6296C94.1583 86.5525 94.1168 86.4814 94.0626 86.4203C94.0085 86.3593 93.9429 86.3095 93.8694 86.274C93.796 86.2384 93.7163 86.2176 93.6348 86.2129C93.5534 86.2082 93.4718 86.2197 93.3948 86.2466C93.3177 86.2735 93.2468 86.3154 93.186 86.3698C93.1252 86.4243 93.0758 86.4901 93.0406 86.5637C93.0053 86.6373 92.985 86.7171 92.9807 86.7986C92.9619 87.1228 92.932 87.457 92.8888 87.8203C92.47 91.4242 92.9826 95.0753 94.3776 98.4247C94.885 99.6617 95.2615 100.948 95.5011 102.264C95.5272 102.406 95.6025 102.535 95.7138 102.628C95.8251 102.721 95.9655 102.772 96.1104 102.772Z" fill="#202124"/>
<path d="M105.137 112.97C106.948 119.059 115.46 121.742 119.397 116.223C119.451 116.148 119.502 116.074 119.552 116C121.216 113.5 123.307 111.263 127.688 111.314C130.785 111.35 135.4 111.884 135.313 108.939C135.251 106.897 129.869 106.049 125.923 105.281C131.518 103.886 138.843 102.047 138.35 99.4566C137.856 96.8662 132.406 97.7042 125.165 99.568C132.74 96.119 137.477 95.3636 136.711 92.9301C135.445 88.9156 119.255 95.0478 114.324 98.6599C114.324 98.6599 113.131 99.4855 108.678 102.255C104.129 105.081 104.187 109.775 105.137 112.97Z" fill="#FFF1ED"/>
<path d="M113.603 119.846C114.84 119.859 116.061 119.568 117.159 118.998C118.257 118.429 119.198 117.599 119.901 116.581C119.957 116.504 120.013 116.423 120.066 116.343C121.851 113.663 123.825 111.88 127.68 111.933C128.049 111.937 128.438 111.948 128.839 111.96C131.229 112.03 133.941 112.108 135.222 110.827C135.468 110.577 135.659 110.278 135.781 109.949C135.903 109.62 135.954 109.27 135.931 108.92C135.869 106.863 132.485 105.945 128.755 105.197C135.025 103.548 139.451 101.927 138.958 99.3398C138.902 99.0294 138.78 98.7345 138.601 98.4747C138.422 98.2149 138.19 97.9962 137.92 97.833C136.812 97.1312 134.898 97.0074 131.744 97.5009C135.668 95.9452 137.987 94.9223 137.301 92.7433C137.147 92.2543 136.741 91.599 135.681 91.2522C131.203 89.7868 118.2 95.0515 113.957 98.1595C113.957 98.1595 112.722 99.0093 108.35 101.729C102.864 105.137 103.86 110.848 104.542 113.145C105.537 116.488 108.585 119.131 112.128 119.722C112.615 119.804 113.108 119.846 113.603 119.846ZM127.539 110.694C122.974 110.694 120.754 113.076 119.036 115.656C118.991 115.723 118.944 115.791 118.894 115.86C117.38 117.982 114.989 118.944 112.332 118.5C109.245 117.986 106.592 115.692 105.73 112.793C105.129 110.768 104.243 105.738 109.004 102.781C113.42 100.034 114.627 99.2023 114.676 99.1684C119.11 95.9207 131.585 91.2149 135.296 92.4292C135.973 92.651 136.083 93.0005 136.12 93.1154C136.475 94.2439 134.625 95.0313 130.742 96.5655C129.044 97.2369 127.118 97.9979 124.909 99.0037C124.767 99.0678 124.656 99.1825 124.595 99.325C124.534 99.4675 124.529 99.6277 124.581 99.7737C124.632 99.9198 124.737 100.041 124.874 100.114C125.01 100.187 125.17 100.206 125.32 100.167C129.585 99.0692 135.462 97.7405 137.257 98.8793C137.383 98.9524 137.492 99.0522 137.576 99.1719C137.659 99.2915 137.716 99.428 137.741 99.5718C137.827 100.021 137.48 100.965 134.195 102.239C131.741 103.191 128.432 104.017 125.772 104.68C125.635 104.714 125.514 104.794 125.429 104.906C125.343 105.018 125.299 105.156 125.303 105.297C125.306 105.438 125.358 105.573 125.449 105.681C125.54 105.788 125.665 105.862 125.804 105.889C126.122 105.95 126.451 106.012 126.784 106.077C129.726 106.638 134.651 107.577 134.692 108.957C134.709 109.138 134.687 109.32 134.627 109.492C134.567 109.664 134.471 109.82 134.345 109.951C133.441 110.855 130.909 110.781 128.874 110.722C128.466 110.71 128.068 110.699 127.694 110.695C127.643 110.694 127.59 110.693 127.539 110.693V110.694Z" fill="#202124"/>
<path d="M85.8653 104.43C85.8986 104.43 85.9319 104.427 85.9648 104.422L106.072 101.167C109.903 100.546 111.249 101.11 111.261 101.116C111.335 101.151 111.415 101.17 111.496 101.174C111.577 101.178 111.658 101.166 111.735 101.138C111.811 101.11 111.882 101.068 111.942 101.013C112.002 100.959 112.051 100.892 112.085 100.819C112.12 100.745 112.14 100.665 112.143 100.584C112.147 100.503 112.135 100.422 112.107 100.345C112.08 100.269 112.037 100.199 111.982 100.138C111.928 100.078 111.861 100.03 111.788 99.995C111.625 99.9183 110.068 99.2644 105.874 99.9445L86.3478 103.105L83.9562 92.0237C83.9215 91.8632 83.8245 91.723 83.6864 91.634C83.5484 91.545 83.3806 91.5144 83.2201 91.5491C83.0595 91.5838 82.9193 91.6807 82.8302 91.8188C82.7412 91.9568 82.7106 92.1245 82.7453 92.285L85.2608 103.941C85.2906 104.079 85.3669 104.203 85.4768 104.292C85.5868 104.381 85.7239 104.43 85.8653 104.43Z" fill="#202124"/>
<path d="M64.247 106.525C64.3394 106.525 64.4306 106.505 64.514 106.465C64.5973 106.425 64.6707 106.367 64.7288 106.295C64.7868 106.223 64.828 106.139 64.8494 106.049C64.8708 105.959 64.8718 105.866 64.8523 105.776L63.7554 100.684C63.7383 100.604 63.7057 100.529 63.6595 100.462C63.6133 100.395 63.5543 100.338 63.4859 100.294C63.4176 100.249 63.3412 100.219 63.2612 100.204C63.1811 100.19 63.0989 100.191 63.0194 100.208C62.9398 100.225 62.8644 100.258 62.7974 100.304C62.7304 100.35 62.6732 100.409 62.629 100.478C62.5848 100.546 62.5545 100.622 62.5398 100.702C62.5252 100.782 62.5264 100.864 62.5435 100.944L63.4699 105.245L56.4139 104.874C56.3327 104.87 56.2514 104.882 56.1748 104.909C56.0981 104.936 56.0275 104.978 55.9671 105.032C55.9066 105.087 55.8575 105.153 55.8225 105.226C55.7874 105.299 55.7672 105.379 55.763 105.46C55.7587 105.541 55.7705 105.623 55.7976 105.699C55.8248 105.776 55.8668 105.846 55.9212 105.907C55.9756 105.967 56.0415 106.016 56.1149 106.051C56.1883 106.086 56.2679 106.107 56.3491 106.111L64.2135 106.524C64.2253 106.525 64.2364 106.525 64.247 106.525Z" fill="#202124"/>
<path d="M104.917 154.971C105.038 154.971 105.156 154.936 105.256 154.87C105.357 154.804 105.436 154.71 105.484 154.6C105.533 154.49 105.548 154.368 105.528 154.249C105.508 154.13 105.453 154.02 105.372 153.932L100.08 148.205C100.025 148.144 99.9582 148.094 99.884 148.059C99.8099 148.024 99.7296 148.004 99.6476 148.001C99.5657 147.997 99.4838 148.009 99.4068 148.038C99.3298 148.066 99.2591 148.109 99.1989 148.164C99.1386 148.22 99.0901 148.287 99.056 148.362C99.0219 148.436 99.0029 148.517 99.0002 148.599C98.9975 148.681 99.0111 148.762 99.0402 148.839C99.0694 148.916 99.1134 148.986 99.1698 149.045L104.462 154.772C104.52 154.835 104.59 154.885 104.669 154.92C104.747 154.954 104.832 154.971 104.917 154.971Z" fill="#202124"/>
<path d="M94.1075 56.4075C91.4515 56.4075 89.2984 54.255 89.2984 51.5998C89.2984 48.9445 91.4515 46.792 94.1075 46.792C96.7634 46.792 98.9165 48.9445 98.9165 51.5998C98.9165 54.255 96.7634 56.4075 94.1075 56.4075Z" fill="white"/>
<path d="M94.1038 57.0273C94.2483 57.0273 94.3951 57.0215 94.5425 57.0095C95.9775 56.8942 97.3079 56.2136 98.241 55.1177C99.1741 54.0217 99.6335 52.6 99.5182 51.1654C99.4336 50.1142 99.0445 49.1103 98.3985 48.2766C97.7524 47.4429 96.8773 46.8154 95.8802 46.471C94.8831 46.1265 93.8073 46.08 92.7842 46.337C91.761 46.594 90.835 47.1436 90.1193 47.9183C89.4036 48.6931 88.9292 49.6596 88.7541 50.6997C88.579 51.7397 88.7108 52.8082 89.1335 53.7745C89.5561 54.7408 90.2512 55.5631 91.1338 56.1407C92.0164 56.7184 93.0483 57.0265 94.1032 57.0273H94.1038ZM98.284 51.2645C98.3504 52.0903 98.1705 52.9172 97.7668 53.6407C97.3632 54.3642 96.754 54.9518 96.0163 55.3292C95.2786 55.7066 94.4456 55.8568 93.6225 55.7608C92.7994 55.6649 92.0233 55.3271 91.3923 54.7901C90.7612 54.2531 90.3036 53.5412 90.0774 52.7442C89.8511 51.9473 89.8663 51.1011 90.121 50.3128C90.3758 49.5245 90.8587 48.8294 91.5086 48.3154C92.1585 47.8015 92.9462 47.4917 93.7722 47.4254C94.8794 47.3378 95.9762 47.6927 96.822 48.4124C97.6678 49.1321 98.1936 50.1578 98.284 51.2645Z" fill="#202124"/>
<path d="M73.9965 47.8569C73.9088 45.8857 74.4188 43.9339 75.4595 42.2573C76.5002 40.5807 78.0231 39.2574 79.8288 38.4608C81.6345 37.6641 83.6388 37.4313 85.5791 37.7927C87.5194 38.1541 89.3053 39.0929 90.7029 40.4863C91.2961 41.0857 91.8144 41.7549 92.2466 42.4791L80.1463 42.5953L80.4743 52.6498L73.9965 47.8569Z" fill="#202124"/>
<path d="M80.4741 53.269C80.5572 53.269 80.6395 53.2524 80.716 53.22C80.7925 53.1876 80.8618 53.1401 80.9196 53.0804C80.9773 53.0207 81.0225 52.95 81.0524 52.8724C81.0823 52.7949 81.0963 52.7122 81.0935 52.6291L80.7861 43.2066L92.2526 43.0974C92.362 43.0964 92.4691 43.0664 92.5631 43.0106C92.6572 42.9548 92.7348 42.875 92.788 42.7795C92.8412 42.6839 92.8681 42.576 92.8661 42.4667C92.8641 42.3574 92.8331 42.2505 92.7764 42.157C92.318 41.3901 91.7686 40.6814 91.1402 40.0463C90.1764 39.0776 89.03 38.3095 87.7673 37.7866C86.5046 37.2637 85.1508 36.9964 83.7841 37H83.7715C82.3655 37.0033 80.9747 37.2908 79.6826 37.8452C78.3906 38.3995 77.2241 39.2094 76.2531 40.226C75.2822 41.2427 74.5269 42.4451 74.0327 43.7611C73.5385 45.077 73.3156 46.4792 73.3773 47.8835C73.3814 47.9755 73.406 48.0654 73.4493 48.1468C73.4926 48.2281 73.5535 48.2987 73.6275 48.3535L80.1056 53.1474C80.2122 53.2264 80.3414 53.269 80.4741 53.269ZM91.0875 41.8699L80.1403 41.975C80.0577 41.9758 79.9761 41.9931 79.9004 42.0259C79.8246 42.0587 79.7561 42.1063 79.699 42.1659C79.6419 42.2255 79.5973 42.2959 79.5678 42.373C79.5383 42.4501 79.5245 42.5323 79.5273 42.6148L79.8135 51.3905L74.6066 47.5372C74.5918 46.3136 74.8216 45.0994 75.2825 43.9658C75.7433 42.8322 76.4261 41.802 77.2905 40.9357C78.1385 40.0793 79.1482 39.3998 80.261 38.9368C81.3738 38.4737 82.5676 38.2364 83.7729 38.2385H83.7841C84.9882 38.2353 86.1809 38.471 87.2933 38.9318C88.4057 39.3926 89.4156 40.0695 90.2646 40.9232C90.5606 41.2192 90.8356 41.5356 91.0875 41.8699Z" fill="#202124"/>
<path d="M93.1439 50.2358C93.5309 48.9497 93.6509 47.5981 93.4965 46.264C93.3421 44.9299 92.9167 43.6414 92.2462 42.4775L80.2345 42.5946L80.474 52.6495C80.3831 51.5496 79.9541 50.5048 79.2458 49.6582C78.5375 48.8117 77.5846 48.2049 76.5177 47.9212C75.4509 47.6374 74.3224 47.6905 73.287 48.0732C72.2515 48.4559 71.3598 49.1495 70.7342 50.0588C70.1086 50.9681 69.7797 52.0487 69.7926 53.1523C69.8054 54.2558 70.1595 55.3284 70.8062 56.2229C71.4528 57.1174 72.3604 57.79 73.4045 58.1484C74.4486 58.5069 75.578 58.5337 76.638 58.2251L76.6838 58.2111L74.2647 69.7831C73.9133 71.4967 74.2508 73.2797 75.204 74.7464C76.1573 76.2132 77.6498 77.2459 79.3587 77.6212C81.0677 77.9965 82.8557 77.6842 84.3361 76.7518C85.8165 75.8194 86.8703 74.342 87.2695 72.6389L88.608 66.8868C90.335 66.4906 91.9219 65.6332 93.1998 64.4061C94.4776 63.179 95.3984 61.6282 95.864 59.9191C96.3296 58.2099 96.3225 56.4065 95.8434 54.7011C95.3644 52.9957 94.4314 51.4522 93.1439 50.2352V50.2358Z" fill="#FFF1ED"/>
<path d="M80.7648 78.3926C82.4075 78.3904 84.0017 77.8359 85.2909 76.8181C86.5801 75.8004 87.4893 74.3787 87.8723 72.7817L89.1257 67.3966C90.8824 66.9241 92.4846 65.9996 93.7724 64.7151C95.0603 63.4307 95.9889 61.8312 96.4657 60.0761C96.9425 58.321 96.9509 56.4716 96.4899 54.7123C96.029 52.953 95.1148 51.3452 93.8386 50.0492C94.5358 47.3847 94.156 44.5528 92.7813 42.166C92.7254 42.0724 92.6462 41.9949 92.5514 41.9411C92.4566 41.8872 92.3494 41.8589 92.2404 41.8589L80.2286 41.9755C80.1465 41.9763 80.0654 41.9934 79.99 42.0258C79.9146 42.0582 79.8464 42.1053 79.7893 42.1643C79.7323 42.2233 79.6875 42.293 79.6577 42.3695C79.6278 42.4459 79.6135 42.5275 79.6154 42.6096L79.7752 49.3177C79.5425 49.0328 79.2843 48.7697 79.0037 48.5317C78.2547 47.8958 77.3604 47.4543 76.4 47.2465C75.4396 47.0386 74.4427 47.0707 73.4977 47.34C72.5526 47.6094 71.6886 48.1075 70.9822 48.7904C70.2757 49.4733 69.7487 50.3198 69.4476 51.255C69.1466 52.1901 69.0809 53.1851 69.2564 54.1517C69.4319 55.1183 69.8431 56.0268 70.4537 56.7965C71.0642 57.5663 71.8552 58.1737 72.7567 58.5648C73.6581 58.9559 74.6421 59.1188 75.6215 59.0389C75.709 59.0319 75.7965 59.0229 75.8839 59.0119L73.6587 69.6569C73.4387 70.7128 73.4568 71.8043 73.7119 72.8523C73.9669 73.9002 74.4524 74.8781 75.1331 75.7148C75.8137 76.5516 76.6724 77.2261 77.6466 77.6893C78.6208 78.1526 79.686 78.3929 80.7648 78.3928V78.3926ZM91.8844 43.1008C93.0063 45.2448 93.2453 47.7424 92.5503 50.0601C92.5176 50.17 92.5161 50.2868 92.546 50.3975C92.5758 50.5081 92.6357 50.6084 92.7192 50.687C93.9251 51.827 94.7989 53.2729 95.2475 54.8704C95.6961 56.4679 95.7027 58.1572 95.2664 59.7581C94.8302 61.3591 93.9675 62.8116 92.7704 63.961C91.5733 65.1103 90.0867 65.9133 88.469 66.2843C88.356 66.3103 88.2526 66.3675 88.1706 66.4494C88.0885 66.5313 88.0311 66.6346 88.0049 66.7475L86.6666 72.4989C86.3056 74.0446 85.3503 75.3861 84.0073 76.2328C82.6643 77.0795 81.0418 77.3634 79.491 77.023C77.9402 76.6826 76.5859 75.7453 75.7213 74.414C74.8567 73.0827 74.5513 71.4645 74.8712 69.9098L77.2903 58.338C77.3125 58.2323 77.3066 58.1227 77.2734 58.0201C77.2401 57.9174 77.1806 57.8252 77.1007 57.7526C77.0208 57.68 76.9233 57.6295 76.8179 57.6062C76.7125 57.5829 76.6028 57.5875 76.4998 57.6197L76.4541 57.6339C76.1493 57.7217 75.8365 57.7787 75.5203 57.8042C74.5866 57.8804 73.6513 57.678 72.8326 57.2228C72.0139 56.7675 71.3486 56.0797 70.9209 55.2465C70.4932 54.4132 70.3223 53.4718 70.4297 52.5414C70.5372 51.611 70.9182 50.7334 71.5246 50.0195C72.131 49.3056 72.9355 48.7875 73.8364 48.5307C74.7374 48.2739 75.6942 48.29 76.586 48.5769C77.4778 48.8638 78.2645 49.4086 78.8465 50.1425C79.4286 50.8764 79.7799 51.7664 79.856 52.6998C79.8683 52.861 79.9432 53.011 80.0647 53.1177C80.1862 53.2244 80.3446 53.2793 80.5061 53.2709C80.6675 53.2624 80.8193 53.1911 80.9289 53.0722C81.0385 52.9534 81.0973 52.7964 81.0927 52.6348L80.868 43.2077L91.8844 43.1008Z" fill="#202124"/>
<path d="M87.6901 53.5891C87.7068 53.5891 87.7239 53.5891 87.7411 53.587L90.5043 53.3618C90.5976 53.354 90.6879 53.3252 90.7685 53.2775C90.849 53.2298 90.9177 53.1645 90.9694 53.0865C91.0211 53.0084 91.0544 52.9197 91.0668 52.8269C91.0792 52.7341 91.0704 52.6397 91.0411 52.5509L89.4828 47.8158C89.4314 47.6597 89.3201 47.5305 89.1734 47.4565C89.0267 47.3825 88.8567 47.3698 88.7006 47.4212C88.5445 47.4726 88.4153 47.5838 88.3413 47.7305C88.2673 47.8771 88.2546 48.0472 88.306 48.2032L89.6194 52.1915L87.6401 52.3529C87.4808 52.366 87.3327 52.4401 87.2268 52.5597C87.1209 52.6794 87.0653 52.8354 87.0718 52.9951C87.0782 53.1547 87.1462 53.3057 87.2614 53.4165C87.3766 53.5272 87.5302 53.5891 87.6901 53.5893V53.5891Z" fill="#202124"/>
<path d="M84.5829 49.7771C84.01 49.7771 83.5456 49.3128 83.5456 48.7401C83.5456 48.1674 84.01 47.7031 84.5829 47.7031C85.1557 47.7031 85.6201 48.1674 85.6201 48.7401C85.6201 49.3128 85.1557 49.7771 84.5829 49.7771Z" fill="#202124"/>
<path d="M91.8778 49.9006C91.3049 49.9006 90.8405 49.4363 90.8405 48.8636C90.8405 48.2909 91.3049 47.8267 91.8778 47.8267C92.4506 47.8267 92.915 48.2909 92.915 48.8636C92.915 49.4363 92.4506 49.9006 91.8778 49.9006Z" fill="#202124"/>
<path d="M91.8516 56.4323C91.6397 61.0274 86.5633 60.4953 86.4423 56.23L91.8516 56.4323Z" fill="white"/>
<path d="M89.2752 60.2793C90.7823 60.2793 92.3487 59.1028 92.4705 56.4608C92.4743 56.3791 92.4618 56.2975 92.4339 56.2207C92.4059 56.1438 92.363 56.0733 92.3076 56.0131C92.2523 55.9529 92.1855 55.9043 92.1112 55.87C92.037 55.8358 91.9566 55.8166 91.8749 55.8135L86.4657 55.6113C86.381 55.6081 86.2965 55.6224 86.2175 55.6531C86.1386 55.6839 86.0667 55.7306 86.0065 55.7902C85.9463 55.8499 85.899 55.9213 85.8675 55.9999C85.836 56.0786 85.821 56.1629 85.8234 56.2476C85.8977 58.8747 87.6033 60.264 89.2494 60.2787L89.2752 60.2793ZM91.167 57.027C90.9097 58.5102 90.0108 59.0467 89.2605 59.0409C88.3418 59.0328 87.3923 58.29 87.1305 56.8759L91.167 57.027Z" fill="#202124"/>
<path d="M74.4637 54.9694C74.556 54.9695 74.647 54.9488 74.7302 54.909L78.0276 53.3349C78.141 53.2808 78.2352 53.1934 78.2977 53.0845C78.3603 52.9755 78.3882 52.8501 78.3778 52.7249C78.3673 52.5997 78.3191 52.4807 78.2394 52.3836C78.1597 52.2864 78.0524 52.2158 77.9316 52.1811L73.1073 50.7962C73.0286 50.7721 72.946 50.7639 72.8642 50.7721C72.7823 50.7803 72.7029 50.8048 72.6306 50.844C72.5584 50.8832 72.4946 50.9364 72.4431 51.0005C72.3916 51.0646 72.3534 51.1383 72.3307 51.2173C72.308 51.2964 72.3012 51.3791 72.3109 51.4608C72.3205 51.5424 72.3463 51.6213 72.3868 51.6929C72.4272 51.7645 72.4816 51.8273 72.5466 51.8777C72.6116 51.9281 72.686 51.965 72.7654 51.9863L76.0204 52.9209L74.1972 53.7915C74.0704 53.852 73.968 53.9539 73.9067 54.0803C73.8455 54.2068 73.829 54.3503 73.8601 54.4873C73.8912 54.6243 73.968 54.7466 74.0778 54.8342C74.1877 54.9219 74.324 54.9695 74.4645 54.9694H74.4637Z" fill="#202124"/>
<rect x="150" y="1" width="420" height="183" rx="7" fill="white" stroke="#F1E9FB" stroke-width="2"/>
<path d="M135.62 111.923C137.88 111.619 140.657 112.006 140.657 112.006C147.372 110.971 153.992 108.042 153.847 110.722C153.78 111.886 151.128 113.694 146.638 115.865C143.403 117.426 140.845 119.843 137.683 120.11" fill="#FFF1ED"/>
<path d="M137.683 120.728C137.7 120.728 137.718 120.728 137.735 120.726C139.984 120.536 141.882 119.371 143.89 118.136C144.867 117.514 145.874 116.941 146.908 116.421C153.577 113.198 154.416 111.644 154.467 110.756C154.493 110.511 154.46 110.263 154.369 110.034C154.278 109.806 154.132 109.603 153.945 109.443C152.862 108.549 150.469 109.142 146.847 110.039C144.946 110.51 142.796 111.043 140.651 111.379C140.135 111.313 137.648 111.025 135.537 111.309C135.374 111.331 135.227 111.416 135.127 111.547C135.027 111.677 134.984 111.842 135.006 112.005C135.028 112.168 135.113 112.315 135.244 112.415C135.375 112.515 135.539 112.558 135.702 112.536C137.849 112.247 140.546 112.614 140.573 112.618C140.632 112.626 140.693 112.625 140.752 112.616C142.981 112.273 145.193 111.725 147.145 111.241C149.68 110.613 152.555 109.901 153.155 110.398C153.181 110.418 153.241 110.469 153.229 110.687C153.217 110.908 152.825 112.185 146.369 115.306C145.297 115.844 144.253 116.436 143.241 117.081C141.363 118.237 139.587 119.326 137.631 119.491C137.472 119.505 137.325 119.579 137.219 119.699C137.114 119.819 137.059 119.975 137.065 120.134C137.072 120.293 137.14 120.444 137.255 120.555C137.37 120.665 137.523 120.727 137.683 120.727L137.683 120.728Z" fill="#202124"/>
</svg>
