<svg width="166" height="196" viewBox="0 0 166 196" fill="none" xmlns="http://www.w3.org/2000/svg">
<path d="M132.964 75.1311C134.616 74.7183 136.109 74.8752 137.713 75.1311C162.94 79.1578 165.572 85.3111 165.37 86.3531C164.848 89.0569 155.112 84.5877 154.096 84.2451C154.096 84.2451 165.214 89.8246 163.298 92.7891C161.705 95.255 151.097 88.4237 151.097 88.4237C153.249 91.379 156.311 95.273 155.107 96.6512C153.359 98.6198 150.596 95.4024 148.564 93.4453C144.055 89.1263 141.497 90.8225 137.584 91.2058C132.298 91.7233 128.885 88.2514 128.093 87.5318L124.858 84.5803C124.405 84.168 124.13 83.5964 124.09 82.9856C124.051 82.3748 124.249 81.7724 124.645 81.305C126.622 78.9737 132.964 75.1311 132.964 75.1311Z" fill="#FFF1ED"/>
<path d="M153.827 97.8847C153.851 97.8847 153.876 97.8847 153.9 97.8847C154.221 97.8732 154.536 97.794 154.824 97.6524C155.111 97.5107 155.366 97.3097 155.571 97.0626C156.753 95.7094 155.282 93.1878 153.392 90.5231C154.268 91.0222 155.287 91.5758 156.327 92.0875C160.554 94.1627 162.934 94.4931 163.819 93.1257C163.979 92.8744 164.082 92.5915 164.123 92.2963C164.163 92.0012 164.139 91.7009 164.053 91.4158C163.675 90.0311 162.005 88.4954 160.15 87.1579C162.325 87.8065 164.183 88.0832 165.18 87.5449C165.387 87.4389 165.566 87.2868 165.705 87.1004C165.843 86.914 165.937 86.6983 165.979 86.47C166.074 85.98 165.845 85.2954 165.353 84.5917C163.681 82.2051 157.881 77.7232 137.811 74.5192C136.281 74.2752 134.636 74.0748 132.815 74.5302C132.754 74.545 132.697 74.569 132.644 74.6014C132.382 74.7603 126.193 78.523 124.174 80.9029C123.672 81.4913 123.42 82.2521 123.47 83.0237C123.52 83.7953 123.869 84.5171 124.442 85.0357L127.678 87.9885C127.719 88.0252 127.764 88.0684 127.817 88.1175C130.83 90.9188 134.138 92.1661 137.645 91.8216C138.436 91.7442 139.161 91.6169 139.863 91.4937C142.586 91.0152 144.739 90.6371 148.137 93.8921C148.364 94.1104 148.601 94.3462 148.845 94.5885C150.402 96.1348 152.164 97.8847 153.827 97.8847ZM151.098 87.8038C150.983 87.8037 150.871 87.8353 150.774 87.895C150.676 87.9547 150.597 88.0403 150.545 88.1421C150.494 88.2439 150.471 88.3581 150.48 88.472C150.489 88.5859 150.529 88.6951 150.597 88.7875C150.777 89.0352 150.963 89.288 151.152 89.5462C152.643 91.5758 155.418 95.3536 154.642 96.243C154.548 96.3622 154.43 96.4599 154.296 96.5294C154.161 96.5989 154.013 96.6385 153.862 96.6457C152.708 96.6732 151.051 95.0335 149.718 93.7094C149.47 93.4617 149.228 93.2225 148.995 92.9988C145.143 89.3085 142.474 89.7772 139.648 90.2742C138.97 90.3935 138.268 90.5167 137.524 90.5898C132.79 91.0509 129.682 88.1613 128.66 87.2112C128.603 87.1583 128.554 87.1121 128.511 87.0735L125.276 84.1219C124.941 83.8187 124.736 83.3967 124.707 82.9454C124.677 82.4941 124.825 82.0491 125.118 81.7048C126.89 79.6159 132.467 76.163 133.205 75.7104C134.766 75.3405 136.182 75.5143 137.615 75.7432C150.66 77.8246 157.306 80.4537 160.583 82.2928C164.159 84.2992 164.788 85.9201 164.761 86.2446C164.752 86.291 164.733 86.3346 164.703 86.3714C164.674 86.4082 164.635 86.4371 164.592 86.4553C163.598 86.992 160.44 86.1719 155.204 84.0198C154.752 83.834 154.453 83.7102 154.294 83.6575C154.146 83.6086 153.984 83.6175 153.842 83.6824C153.7 83.7473 153.588 83.8634 153.528 84.0075C153.468 84.1516 153.465 84.3131 153.518 84.4596C153.572 84.606 153.68 84.7267 153.819 84.7975C156.122 85.9534 162.236 89.4554 162.858 91.7409C162.9 91.8577 162.914 91.9825 162.901 92.1058C162.887 92.2291 162.845 92.3476 162.779 92.4524C162.708 92.5628 161.936 93.4582 156.882 90.9785C155.016 90.0452 153.197 89.0188 151.434 87.9031C151.333 87.8383 151.217 87.8039 151.098 87.8038Z" fill="#202124"/>
<path d="M51.8291 194.441C53.1215 188.165 50.3715 182.305 44.8756 181.038C40.042 179.924 38.3876 177.915 38.4882 175.357L13.9865 160.789L0.619148 182.545L19.4915 194.457L51.8291 194.441Z" fill="#3C4043"/>
<path d="M19.4915 195.076L51.8291 195.061C51.9719 195.061 52.1102 195.011 52.2207 194.921C52.3312 194.831 52.4072 194.705 52.4357 194.565C53.0982 191.348 52.7483 188.158 51.4509 185.582C50.1044 182.909 47.8185 181.081 45.0146 180.434C39.5903 179.183 39.045 176.951 39.107 175.381C39.1115 175.269 39.0857 175.159 39.0325 175.061C38.9793 174.963 38.9005 174.881 38.8045 174.824L14.303 160.255C14.1632 160.172 13.9962 160.147 13.8382 160.186C13.6802 160.225 13.5438 160.324 13.4586 160.463L0.091465 182.222C0.00617981 182.36 -0.0209503 182.527 0.0159569 182.686C0.0528641 182.845 0.150837 182.982 0.288635 183.069L19.161 194.981C19.26 195.043 19.3745 195.076 19.4915 195.076ZM51.3161 193.822L19.6708 193.838L1.4673 182.348L14.1949 161.633L37.866 175.708C37.9302 178.648 40.1824 180.591 44.7363 181.642C49.6339 182.771 52.3486 187.85 51.3161 193.822Z" fill="#202124"/>
<path d="M147.626 193.781C148.918 187.632 146.168 181.892 140.672 180.65C135.839 179.558 133.377 174.625 134.203 168.683L103.36 166.98L99.5364 194.463L147.626 193.781Z" fill="#3C4043"/>
<path d="M99.5359 195.082H99.5448L147.635 194.401C147.776 194.399 147.912 194.349 148.02 194.26C148.129 194.17 148.204 194.047 148.232 193.909C148.896 190.751 148.546 187.621 147.246 185.093C146.616 183.826 145.711 182.716 144.598 181.843C143.484 180.97 142.19 180.356 140.809 180.046C136.425 179.055 134.017 174.523 134.816 168.768C134.828 168.684 134.822 168.597 134.799 168.515C134.776 168.432 134.735 168.356 134.681 168.29C134.627 168.224 134.559 168.169 134.483 168.131C134.406 168.092 134.323 168.07 134.237 168.065L103.394 166.362C103.239 166.354 103.086 166.404 102.966 166.503C102.847 166.602 102.768 166.741 102.746 166.895L98.9215 194.378C98.9093 194.465 98.916 194.555 98.9413 194.64C98.9666 194.724 99.0097 194.803 99.0679 194.87C99.126 194.936 99.1978 194.99 99.2784 195.027C99.359 195.063 99.4465 195.082 99.5351 195.082H99.5359ZM147.114 193.169L100.248 193.834L103.894 167.63L133.509 169.265C132.893 175.377 135.663 180.153 140.536 181.254C145.43 182.359 148.144 187.328 147.114 193.169Z" fill="#202124"/>
<path d="M136.387 114.96L136.386 114.96L136.387 114.947C136.477 112.683 135.962 109.81 135.064 107.026C134.168 104.245 132.906 101.603 131.536 99.7924L107.417 69.1409L86.1653 78.5613L85.1694 94.821L99.8986 112.167L100.016 112.305L100.017 112.487L100.268 146.683V146.684L100.365 161.076L100.414 168.035L135.589 169.833L136.387 114.96Z" fill="white" stroke="#202124"/>
<path d="M28.2506 121.75L7.62793 159.475L39.3605 176.812L54.7909 148.585L54.7909 148.585L59.4403 140.077L59.4404 140.077L84.2195 94.751L84.2195 94.751L88.3812 87.1399L85.4663 69.6359L56.6777 68.9998L32.6954 113.622L32.6936 113.625L28.2507 121.749L28.2506 121.75Z" fill="white" stroke="#202124"/>
<path d="M56.6658 68.3466L56.6658 68.3497C56.6651 68.3804 56.6766 68.4101 56.6977 68.4324C56.7188 68.4547 56.7478 68.4679 56.7786 68.469L56.7795 68.469L64.6435 68.7683L65.0277 68.783L65.1123 69.158L67.7466 80.8445C67.7466 80.8445 67.7467 80.8446 67.7467 80.8446C68.2678 83.1544 69.5585 85.2186 71.4071 86.6989C73.2556 88.179 75.5523 88.9874 77.9207 88.9914C78.4845 88.9908 79.0473 88.9453 79.6039 88.8554L110.687 83.8217C110.688 83.8216 110.688 83.8216 110.689 83.8215C111.877 83.6217 113.018 83.2193 114.063 82.6352C113.542 82.5595 112.913 82.4217 112.223 82.1669C110.217 81.4264 107.754 79.7178 105.912 75.8117L105.908 75.8038L105.905 75.7958C104.138 71.6847 105.395 68.5551 107.171 66.6473C108.048 65.705 109.055 65.0559 109.887 64.7267C110.297 64.5642 110.7 64.4656 111.042 64.4719C111.356 64.4776 111.841 64.593 111.975 65.0948C113.294 70.0394 114.785 74.8106 116.524 78.3836C117.394 80.1707 118.314 81.632 119.288 82.6622C120.26 83.6921 121.25 84.2548 122.266 84.3335C124.224 84.4849 126.644 83.4272 128.953 81.8781C131.239 80.3436 133.315 78.3957 134.557 76.9225C135.89 75.3424 135.431 72.9418 133.691 71.606L133.671 71.5906L133.653 71.5734L100.355 40.2085L100.355 40.2082C97.8306 37.8263 94.8128 36.0292 91.5158 34.9445L91.5129 34.9435C90.3143 34.5411 89.0731 34.2807 87.8145 34.1674C87.7778 34.2582 87.7386 34.3607 87.693 34.4798C87.6469 34.6004 87.5942 34.7381 87.531 34.8982C87.2753 35.5454 86.899 36.4207 86.344 37.2771C85.2314 38.9942 83.3515 40.6939 80.2676 40.2831C78.2639 40.1546 76.8651 39.5538 75.9152 38.6724C74.965 37.7907 74.515 36.6755 74.3194 35.6156C74.1244 34.5592 74.1771 33.5326 74.2513 32.7911C74.2712 32.5921 74.2951 32.3938 74.3155 32.2278C71.788 32.6239 67.4134 33.9608 63.2902 37.3334C62.2996 38.1437 61.6322 39.3254 61.1989 40.6865C60.766 42.0463 60.5772 43.5532 60.5219 44.9705C60.4666 46.3854 60.5449 47.6941 60.6375 48.6502C60.6837 49.1276 60.7333 49.5157 60.7712 49.7834C60.7901 49.9172 60.8061 50.0208 60.8173 50.0904C60.8228 50.1252 60.8272 50.1514 60.8301 50.1687L60.8334 50.1877L60.8341 50.192L60.8343 50.1929L60.8343 50.193L60.8379 50.2137L60.8399 50.2347C61.1811 53.9791 59.6651 57.7884 58.534 60.2671L58.5317 60.2722C57.3433 62.8006 56.7073 65.5532 56.6658 68.3466ZM87.9037 33.9675C87.9037 33.9675 87.9032 33.9683 87.9023 33.9699C87.9033 33.9683 87.9038 33.9675 87.9037 33.9675Z" fill="#FFED96" stroke="#202124"/>
<path d="M96.1104 65.7715C96.1479 65.7716 96.1853 65.7681 96.2221 65.7612C96.3837 65.7318 96.5269 65.6394 96.6204 65.5044C96.7138 65.3694 96.7499 65.2028 96.7205 65.0413C96.4653 63.6398 96.0639 62.269 95.523 60.9512C94.2087 57.7971 93.7253 54.3588 94.1191 50.9648C94.1651 50.5777 94.1971 50.2192 94.2174 49.8698C94.2225 49.7884 94.2114 49.7067 94.1849 49.6296C94.1583 49.5525 94.1168 49.4814 94.0626 49.4203C94.0085 49.3593 93.9429 49.3095 93.8694 49.274C93.796 49.2384 93.7163 49.2176 93.6348 49.2129C93.5534 49.2082 93.4718 49.2197 93.3948 49.2466C93.3177 49.2735 93.2468 49.3154 93.186 49.3698C93.1252 49.4243 93.0758 49.4901 93.0406 49.5637C93.0053 49.6373 92.985 49.7171 92.9807 49.7986C92.9619 50.1228 92.932 50.457 92.8888 50.8203C92.47 54.4242 92.9826 58.0753 94.3776 61.4247C94.885 62.6617 95.2615 63.9484 95.5011 65.2638C95.5272 65.4063 95.6025 65.5352 95.7138 65.628C95.8251 65.7207 95.9655 65.7715 96.1104 65.7715Z" fill="#202124"/>
<path d="M105.137 75.9698C106.948 82.0588 115.46 84.742 119.397 79.2228C119.451 79.1485 119.502 79.0742 119.552 78.9998C121.216 76.5003 123.307 74.2629 127.688 74.3145C130.785 74.3496 135.4 74.8842 135.313 71.9388C135.251 69.8974 129.869 69.0491 125.923 68.2813C131.518 66.886 138.843 65.047 138.35 62.4566C137.856 59.8662 132.406 60.7042 125.165 62.568C132.74 59.119 137.477 58.3636 136.711 55.9301C135.445 51.9156 119.255 58.0478 114.324 61.6599C114.324 61.6599 113.131 62.4855 108.678 65.2554C104.129 68.0811 104.187 72.7749 105.137 75.9698Z" fill="#FFF1ED"/>
<path d="M113.603 82.8464C114.84 82.8587 116.061 82.5675 117.159 81.9983C118.257 81.4291 119.198 80.5992 119.901 79.5815C119.957 79.5037 120.013 79.4234 120.066 79.3431C121.851 76.6625 123.825 74.8804 127.68 74.9329C128.049 74.937 128.438 74.9483 128.839 74.9599C131.229 75.0297 133.941 75.1077 135.222 73.8265C135.468 73.5768 135.659 73.2777 135.781 72.9491C135.903 72.6205 135.954 72.2697 135.931 71.9198C135.869 69.8628 132.485 68.9447 128.755 68.1971C135.025 66.5477 139.451 64.927 138.958 62.3398C138.902 62.0294 138.78 61.7345 138.601 61.4747C138.422 61.2149 138.19 60.9962 137.92 60.833C136.812 60.1312 134.898 60.0074 131.744 60.5009C135.668 58.9452 137.987 57.9223 137.301 55.7433C137.147 55.2543 136.741 54.599 135.681 54.2522C131.203 52.7868 118.2 58.0515 113.957 61.1595C113.957 61.1595 112.722 62.0093 108.35 64.7289C102.864 68.1368 103.86 73.8482 104.542 76.1455C105.537 79.4882 108.585 82.1312 112.128 82.7217C112.615 82.804 113.108 82.8456 113.603 82.8464ZM127.539 73.6936C122.974 73.6936 120.754 76.0757 119.036 78.656C118.991 78.7231 118.944 78.7914 118.894 78.8599C117.38 80.9819 114.989 81.944 112.332 81.5002C109.245 80.9857 106.592 78.6919 105.73 75.7927C105.129 73.7677 104.243 68.7385 109.004 65.7805C113.42 63.0341 114.627 62.2023 114.676 62.1684C119.11 58.9207 131.585 54.2149 135.296 55.4292C135.973 55.651 136.083 56.0005 136.12 56.1154C136.475 57.2439 134.625 58.0313 130.742 59.5655C129.044 60.2369 127.118 60.9979 124.909 62.0037C124.767 62.0678 124.656 62.1825 124.595 62.325C124.534 62.4675 124.529 62.6277 124.581 62.7737C124.632 62.9198 124.737 63.0412 124.874 63.114C125.01 63.1868 125.17 63.2057 125.32 63.167C129.585 62.0692 135.462 60.7405 137.257 61.8793C137.383 61.9524 137.492 62.0522 137.576 62.1719C137.659 62.2915 137.716 62.428 137.741 62.5718C137.827 63.0209 137.48 63.9646 134.195 65.2391C131.741 66.1915 128.432 67.0167 125.772 67.6798C125.635 67.7139 125.514 67.7936 125.429 67.9058C125.343 68.018 125.299 68.156 125.303 68.2969C125.306 68.4378 125.358 68.5732 125.449 68.6808C125.54 68.7884 125.665 68.8617 125.804 68.8885C126.122 68.9505 126.451 69.0124 126.784 69.0768C129.726 69.6378 134.651 70.5765 134.692 71.9569C134.709 72.1378 134.687 72.3204 134.627 72.492C134.567 72.6636 134.471 72.8201 134.345 72.951C133.441 73.8546 130.909 73.7809 128.874 73.7223C128.466 73.7103 128.068 73.6988 127.694 73.6946C127.643 73.6936 127.59 73.6934 127.539 73.6934V73.6936Z" fill="#202124"/>
<path d="M85.8653 67.4298C85.8986 67.4299 85.9319 67.4272 85.9648 67.422L106.072 64.1668C109.903 63.5459 111.249 64.1102 111.261 64.1162C111.335 64.1508 111.415 64.1705 111.496 64.1743C111.577 64.178 111.658 64.1657 111.735 64.1381C111.811 64.1105 111.882 64.0681 111.942 64.0133C112.002 63.9585 112.051 63.8924 112.085 63.8188C112.12 63.7452 112.14 63.6655 112.143 63.5842C112.147 63.503 112.135 63.4218 112.107 63.3453C112.08 63.2688 112.037 63.1985 111.982 63.1384C111.928 63.0783 111.861 63.0296 111.788 62.995C111.625 62.9183 110.068 62.2644 105.874 62.9445L86.3478 66.1053L83.9562 55.0237C83.9215 54.8632 83.8245 54.723 83.6864 54.634C83.5484 54.545 83.3806 54.5144 83.2201 54.5491C83.0595 54.5838 82.9193 54.6807 82.8302 54.8188C82.7412 54.9568 82.7106 55.1245 82.7453 55.285L85.2608 66.9413C85.2906 67.0795 85.3669 67.2033 85.4768 67.2922C85.5868 67.381 85.7239 67.4296 85.8653 67.4298Z" fill="#202124"/>
<path d="M64.247 69.5253C64.3394 69.5253 64.4306 69.5046 64.514 69.4648C64.5973 69.4249 64.6707 69.3669 64.7288 69.2951C64.7868 69.2232 64.828 69.1392 64.8494 69.0494C64.8708 68.9595 64.8718 68.866 64.8523 68.7757L63.7554 63.6839C63.7383 63.6043 63.7057 63.5289 63.6595 63.462C63.6133 63.395 63.5543 63.3378 63.4859 63.2936C63.4176 63.2494 63.3412 63.2192 63.2612 63.2045C63.1811 63.1898 63.0989 63.1911 63.0194 63.2081C62.9398 63.2252 62.8644 63.2578 62.7974 63.304C62.7304 63.3502 62.6732 63.4092 62.629 63.4775C62.5848 63.5458 62.5545 63.6222 62.5398 63.7022C62.5252 63.7823 62.5264 63.8644 62.5435 63.944L63.4699 68.2446L56.4139 67.8741C56.3327 67.8698 56.2514 67.8816 56.1748 67.9088C56.0981 67.9359 56.0275 67.9779 55.9671 68.0323C55.9066 68.0867 55.8575 68.1525 55.8225 68.2259C55.7874 68.2993 55.7672 68.3789 55.763 68.4601C55.7587 68.5413 55.7705 68.6225 55.7976 68.6992C55.8248 68.7758 55.8668 68.8464 55.9212 68.9068C55.9756 68.9673 56.0415 69.0164 56.1149 69.0514C56.1883 69.0864 56.2679 69.1066 56.3491 69.1109L64.2135 69.5237C64.2253 69.5251 64.2364 69.5253 64.247 69.5253Z" fill="#202124"/>
<path d="M104.917 117.971C105.038 117.971 105.156 117.936 105.256 117.87C105.357 117.804 105.436 117.71 105.484 117.6C105.533 117.49 105.548 117.368 105.528 117.249C105.508 117.13 105.453 117.02 105.372 116.932L100.08 111.205C100.025 111.144 99.9582 111.094 99.884 111.059C99.8099 111.024 99.7296 111.004 99.6476 111.001C99.5657 110.997 99.4838 111.009 99.4068 111.038C99.3298 111.066 99.2591 111.109 99.1989 111.164C99.1386 111.22 99.0901 111.287 99.056 111.362C99.0219 111.436 99.0029 111.517 99.0002 111.599C98.9975 111.681 99.0111 111.762 99.0402 111.839C99.0694 111.916 99.1134 111.986 99.1698 112.045L104.462 117.772C104.52 117.835 104.59 117.885 104.669 117.92C104.747 117.954 104.832 117.971 104.917 117.971Z" fill="#202124"/>
<path d="M94.1075 19.4075C91.4515 19.4075 89.2984 17.255 89.2984 14.5998C89.2984 11.9445 91.4515 9.79199 94.1075 9.79199C96.7634 9.79199 98.9165 11.9445 98.9165 14.5998C98.9165 17.255 96.7634 19.4075 94.1075 19.4075Z" fill="white"/>
<path d="M94.1038 20.0273C94.2483 20.0273 94.3951 20.0215 94.5425 20.0095C95.9775 19.8942 97.3079 19.2136 98.241 18.1177C99.1741 17.0217 99.6335 15.6 99.5182 14.1654C99.4336 13.1142 99.0445 12.1103 98.3985 11.2766C97.7524 10.4429 96.8773 9.81543 95.8802 9.47097C94.8831 9.1265 93.8073 9.07995 92.7842 9.337C91.761 9.59405 90.835 10.1436 90.1193 10.9183C89.4036 11.6931 88.9292 12.6596 88.7541 13.6997C88.579 14.7397 88.7108 15.8082 89.1335 16.7745C89.5561 17.7408 90.2512 18.5631 91.1338 19.1407C92.0164 19.7184 93.0483 20.0265 94.1032 20.0273H94.1038ZM98.284 14.2645C98.3504 15.0903 98.1705 15.9172 97.7668 16.6407C97.3632 17.3642 96.754 17.9518 96.0163 18.3292C95.2786 18.7066 94.4456 18.8568 93.6225 18.7608C92.7994 18.6649 92.0233 18.3271 91.3923 17.7901C90.7612 17.2531 90.3036 16.5412 90.0774 15.7442C89.8511 14.9473 89.8663 14.1011 90.121 13.3128C90.3758 12.5245 90.8587 11.8294 91.5086 11.3154C92.1585 10.8015 92.9462 10.4917 93.7722 10.4254C94.8794 10.3378 95.9762 10.6927 96.822 11.4124C97.6678 12.1321 98.1936 13.1578 98.284 14.2645Z" fill="#202124"/>
<path d="M73.9965 10.8569C73.9088 8.88569 74.4188 6.93394 75.4595 5.25733C76.5002 3.58072 78.0231 2.25743 79.8288 1.46077C81.6345 0.66412 83.6388 0.431251 85.5791 0.792669C87.5194 1.15409 89.3053 2.09294 90.7029 3.48626C91.2961 4.08575 91.8144 4.7549 92.2466 5.47909L80.1463 5.59529L80.4743 15.6498L73.9965 10.8569Z" fill="#202124"/>
<path d="M80.4741 16.269C80.5572 16.269 80.6395 16.2524 80.716 16.22C80.7925 16.1876 80.8618 16.1401 80.9196 16.0804C80.9773 16.0207 81.0225 15.95 81.0524 15.8724C81.0823 15.7949 81.0963 15.7122 81.0935 15.6291L80.7861 6.2066L92.2526 6.09741C92.362 6.0964 92.4691 6.06644 92.5631 6.0106C92.6572 5.95475 92.7348 5.87501 92.788 5.77948C92.8412 5.68394 92.8681 5.57602 92.8661 5.46669C92.8641 5.35736 92.8331 5.25052 92.7764 5.15703C92.318 4.39014 91.7686 3.68144 91.1402 3.04635C90.1764 2.07759 89.03 1.30953 87.7673 0.786637C86.5046 0.26374 85.1508 -0.00361722 83.7841 3.6958e-05H83.7715C82.3655 0.00330044 80.9747 0.290767 79.6826 0.845156C78.3906 1.39954 77.2241 2.2094 76.2531 3.22605C75.2822 4.24269 74.5269 5.44512 74.0327 6.76105C73.5385 8.07698 73.3156 9.47923 73.3773 10.8835C73.3814 10.9755 73.406 11.0654 73.4493 11.1468C73.4926 11.2281 73.5535 11.2987 73.6275 11.3535L80.1056 16.1474C80.2122 16.2264 80.3414 16.269 80.4741 16.269ZM91.0875 4.86993L80.1403 4.97499C80.0577 4.97579 79.9761 4.9931 79.9004 5.02588C79.8246 5.05866 79.7561 5.10626 79.699 5.16587C79.6419 5.22549 79.5973 5.29592 79.5678 5.37302C79.5383 5.45012 79.5245 5.53234 79.5273 5.61484L79.8135 14.3905L74.6066 10.5372C74.5918 9.31358 74.8216 8.09937 75.2825 6.96578C75.7433 5.83218 76.4261 4.80202 77.2905 3.93574C78.1385 3.07929 79.1482 2.39982 80.261 1.93678C81.3738 1.47374 82.5676 1.23637 83.7729 1.23846H83.7841C84.9882 1.23531 86.1809 1.47098 87.2933 1.93181C88.4057 2.39264 89.4156 3.06948 90.2646 3.92315C90.5606 4.2192 90.8356 4.53556 91.0875 4.86993Z" fill="#202124"/>
<path d="M93.1439 13.2358C93.5309 11.9497 93.6509 10.5981 93.4965 9.26401C93.3421 7.92988 92.9167 6.64136 92.2462 5.47754L80.2345 5.59457L80.474 15.6495C80.3831 14.5496 79.9541 13.5048 79.2458 12.6582C78.5375 11.8117 77.5846 11.2049 76.5177 10.9212C75.4509 10.6374 74.3224 10.6905 73.287 11.0732C72.2515 11.4559 71.3598 12.1495 70.7342 13.0588C70.1086 13.9681 69.7797 15.0487 69.7926 16.1523C69.8054 17.2558 70.1595 18.3284 70.8062 19.2229C71.4528 20.1174 72.3604 20.79 73.4045 21.1484C74.4486 21.5069 75.578 21.5337 76.638 21.2251L76.6838 21.2111L74.2647 32.7831C73.9133 34.4967 74.2508 36.2797 75.204 37.7464C76.1573 39.2132 77.6498 40.2459 79.3587 40.6212C81.0677 40.9965 82.8557 40.6842 84.3361 39.7518C85.8165 38.8194 86.8703 37.342 87.2695 35.6389L88.608 29.8868C90.335 29.4906 91.9219 28.6332 93.1998 27.4061C94.4776 26.179 95.3984 24.6282 95.864 22.9191C96.3296 21.2099 96.3225 19.4065 95.8434 17.7011C95.3644 15.9957 94.4314 14.4522 93.1439 13.2352V13.2358Z" fill="#FFF1ED"/>
<path d="M80.7648 41.3926C82.4075 41.3904 84.0017 40.8359 85.2909 39.8181C86.5801 38.8004 87.4893 37.3787 87.8723 35.7817L89.1257 30.3966C90.8824 29.9241 92.4846 28.9996 93.7724 27.7151C95.0603 26.4307 95.9889 24.8312 96.4657 23.0761C96.9425 21.321 96.9509 19.4716 96.4899 17.7123C96.029 15.953 95.1148 14.3452 93.8386 13.0492C94.5358 10.3847 94.156 7.55281 92.7813 5.16602C92.7254 5.07241 92.6462 4.9949 92.5514 4.94106C92.4566 4.88723 92.3494 4.85892 92.2404 4.85889L80.2286 4.9755C80.1465 4.9763 80.0654 4.9934 79.99 5.02581C79.9146 5.05822 79.8464 5.10529 79.7893 5.16429C79.7323 5.22329 79.6875 5.29304 79.6577 5.36948C79.6278 5.44592 79.6135 5.52754 79.6154 5.60958L79.7752 12.3177C79.5425 12.0328 79.2843 11.7697 79.0037 11.5317C78.2547 10.8958 77.3604 10.4543 76.4 10.2465C75.4396 10.0386 74.4427 10.0707 73.4977 10.34C72.5526 10.6094 71.6886 11.1075 70.9822 11.7904C70.2757 12.4733 69.7487 13.3198 69.4476 14.255C69.1466 15.1901 69.0809 16.1851 69.2564 17.1517C69.4319 18.1183 69.8431 19.0268 70.4537 19.7965C71.0642 20.5663 71.8552 21.1737 72.7567 21.5648C73.6581 21.9559 74.6421 22.1188 75.6215 22.0389C75.709 22.0319 75.7965 22.0229 75.8839 22.0119L73.6587 32.6569C73.4387 33.7128 73.4568 34.8043 73.7119 35.8523C73.9669 36.9002 74.4524 37.8781 75.1331 38.7148C75.8137 39.5516 76.6724 40.2261 77.6466 40.6893C78.6208 41.1526 79.686 41.3929 80.7648 41.3928V41.3926ZM91.8844 6.10082C93.0063 8.24484 93.2453 10.7424 92.5503 13.0601C92.5176 13.17 92.5161 13.2868 92.546 13.3975C92.5758 13.5081 92.6357 13.6084 92.7192 13.687C93.9251 14.827 94.7989 16.2729 95.2475 17.8704C95.6961 19.4679 95.7027 21.1572 95.2664 22.7581C94.8302 24.3591 93.9675 25.8116 92.7704 26.961C91.5733 28.1103 90.0867 28.9133 88.469 29.2843C88.356 29.3103 88.2526 29.3675 88.1706 29.4494C88.0885 29.5313 88.0311 29.6346 88.0049 29.7475L86.6666 35.4989C86.3056 37.0446 85.3503 38.3861 84.0073 39.2328C82.6643 40.0795 81.0418 40.3634 79.491 40.023C77.9402 39.6826 76.5859 38.7453 75.7213 37.414C74.8567 36.0827 74.5513 34.4645 74.8712 32.9098L77.2903 21.338C77.3125 21.2323 77.3066 21.1227 77.2734 21.0201C77.2401 20.9174 77.1806 20.8252 77.1007 20.7526C77.0208 20.68 76.9233 20.6295 76.8179 20.6062C76.7125 20.5829 76.6028 20.5875 76.4998 20.6197L76.4541 20.6339C76.1493 20.7217 75.8365 20.7787 75.5203 20.8042C74.5866 20.8804 73.6513 20.678 72.8326 20.2228C72.0139 19.7675 71.3486 19.0797 70.9209 18.2465C70.4932 17.4132 70.3223 16.4718 70.4297 15.5414C70.5372 14.611 70.9182 13.7334 71.5246 13.0195C72.131 12.3056 72.9355 11.7875 73.8364 11.5307C74.7374 11.2739 75.6942 11.29 76.586 11.5769C77.4778 11.8638 78.2645 12.4086 78.8465 13.1425C79.4286 13.8764 79.7799 14.7664 79.856 15.6998C79.8683 15.861 79.9432 16.011 80.0647 16.1177C80.1862 16.2244 80.3446 16.2793 80.5061 16.2709C80.6675 16.2624 80.8193 16.1911 80.9289 16.0722C81.0385 15.9534 81.0973 15.7964 81.0927 15.6348L80.868 6.20774L91.8844 6.10082Z" fill="#202124"/>
<path d="M87.6901 16.5891C87.7068 16.5891 87.7239 16.5891 87.7411 16.587L90.5043 16.3618C90.5976 16.354 90.6879 16.3252 90.7685 16.2775C90.849 16.2298 90.9177 16.1645 90.9694 16.0865C91.0211 16.0084 91.0544 15.9197 91.0668 15.8269C91.0792 15.7341 91.0704 15.6397 91.0411 15.5509L89.4828 10.8158C89.4314 10.6597 89.3201 10.5305 89.1734 10.4565C89.0267 10.3825 88.8567 10.3698 88.7006 10.4212C88.5445 10.4726 88.4153 10.5838 88.3413 10.7305C88.2673 10.8771 88.2546 11.0472 88.306 11.2032L89.6194 15.1915L87.6401 15.3529C87.4808 15.366 87.3327 15.4401 87.2268 15.5597C87.1209 15.6794 87.0653 15.8354 87.0718 15.9951C87.0782 16.1547 87.1462 16.3057 87.2614 16.4165C87.3766 16.5272 87.5302 16.5891 87.6901 16.5893V16.5891Z" fill="#202124"/>
<path d="M84.5829 12.7771C84.01 12.7771 83.5456 12.3128 83.5456 11.7401C83.5456 11.1674 84.01 10.7031 84.5829 10.7031C85.1557 10.7031 85.6201 11.1674 85.6201 11.7401C85.6201 12.3128 85.1557 12.7771 84.5829 12.7771Z" fill="#202124"/>
<path d="M91.8778 12.9006C91.3049 12.9006 90.8405 12.4363 90.8405 11.8636C90.8405 11.2909 91.3049 10.8267 91.8778 10.8267C92.4506 10.8267 92.915 11.2909 92.915 11.8636C92.915 12.4363 92.4506 12.9006 91.8778 12.9006Z" fill="#202124"/>
<path d="M91.8516 19.4323C91.6397 24.0274 86.5633 23.4953 86.4423 19.23L91.8516 19.4323Z" fill="white"/>
<path d="M89.2752 23.2793C90.7823 23.2793 92.3487 22.1028 92.4705 19.4608C92.4743 19.3791 92.4618 19.2975 92.4339 19.2207C92.4059 19.1438 92.363 19.0733 92.3076 19.0131C92.2523 18.9529 92.1855 18.9043 92.1112 18.87C92.037 18.8358 91.9566 18.8166 91.8749 18.8135L86.4657 18.6113C86.381 18.6081 86.2965 18.6224 86.2175 18.6531C86.1386 18.6839 86.0667 18.7306 86.0065 18.7902C85.9463 18.8499 85.899 18.9213 85.8675 18.9999C85.836 19.0786 85.821 19.1629 85.8234 19.2476C85.8977 21.8747 87.6033 23.264 89.2494 23.2787L89.2752 23.2793ZM91.167 20.027C90.9097 21.5102 90.0108 22.0467 89.2605 22.0409C88.3418 22.0328 87.3923 21.29 87.1305 19.8759L91.167 20.027Z" fill="#202124"/>
<path d="M74.4637 17.9694C74.556 17.9695 74.647 17.9488 74.7302 17.909L78.0276 16.3349C78.141 16.2808 78.2352 16.1934 78.2977 16.0845C78.3603 15.9755 78.3882 15.8501 78.3778 15.7249C78.3673 15.5997 78.3191 15.4807 78.2394 15.3836C78.1597 15.2864 78.0524 15.2158 77.9316 15.1811L73.1073 13.7962C73.0286 13.7721 72.946 13.7639 72.8642 13.7721C72.7823 13.7803 72.7029 13.8048 72.6306 13.844C72.5584 13.8832 72.4946 13.9364 72.4431 14.0005C72.3916 14.0646 72.3534 14.1383 72.3307 14.2173C72.308 14.2964 72.3012 14.3791 72.3109 14.4608C72.3205 14.5424 72.3463 14.6213 72.3868 14.6929C72.4272 14.7645 72.4816 14.8273 72.5466 14.8777C72.6116 14.9281 72.686 14.965 72.7654 14.9863L76.0204 15.9209L74.1972 16.7915C74.0704 16.852 73.968 16.9539 73.9067 17.0803C73.8455 17.2068 73.829 17.3503 73.8601 17.4873C73.8912 17.6243 73.968 17.7466 74.0778 17.8342C74.1877 17.9219 74.324 17.9695 74.4645 17.9694H74.4637Z" fill="#202124"/>
</svg>
