<svg width="172" height="180" viewBox="0 0 172 180" fill="none" xmlns="http://www.w3.org/2000/svg">
<path d="M136.176 140.644C138.308 147.32 147.784 155.015 159.114 152.327C164.139 151.14 168.997 154.682 170.573 159.633L144.409 170.184L123.678 162.099L129.445 176.211L122.305 179.104L110.901 150.917L136.176 140.644Z" fill="#3C4043"/>
<path d="M138.121 163.07C138.2 163.07 138.278 163.068 138.357 163.064C139.519 162.998 140.608 162.474 141.385 161.607C142.162 160.739 142.562 159.599 142.499 158.436C142.387 156.293 138.358 146.15 137.899 145C137.856 144.892 137.78 144.8 137.682 144.738C137.583 144.675 137.468 144.645 137.352 144.651C137.236 144.658 137.124 144.7 137.034 144.773C136.943 144.846 136.877 144.946 136.846 145.058C136.515 146.251 133.617 156.779 133.73 158.921C133.793 160.043 134.284 161.098 135.1 161.869C135.917 162.641 136.998 163.071 138.121 163.07ZM141.387 158.495C141.433 159.361 141.133 160.211 140.554 160.857C139.975 161.503 139.163 161.893 138.297 161.942C137.43 161.99 136.58 161.694 135.932 161.117C135.284 160.54 134.891 159.729 134.84 158.863C134.764 157.433 136.444 150.818 137.477 146.969C138.924 150.68 141.312 157.067 141.387 158.495Z" fill="#FFDA2D"/>
<path d="M129.391 160.457C129.618 160.457 129.844 160.44 130.068 160.405C130.637 160.32 131.184 160.122 131.676 159.823C132.168 159.524 132.596 159.13 132.934 158.664C134.214 156.929 137.537 146.536 137.911 145.356C137.947 145.245 137.946 145.126 137.91 145.015C137.874 144.904 137.804 144.808 137.71 144.739C137.616 144.67 137.503 144.633 137.387 144.631C137.27 144.63 137.156 144.666 137.061 144.733C136.05 145.444 127.141 151.733 125.864 153.461C125.384 154.115 125.094 154.889 125.027 155.697C124.959 156.506 125.117 157.317 125.482 158.041C125.847 158.765 126.406 159.374 127.096 159.8C127.786 160.227 128.58 160.454 129.391 160.457ZM136.338 146.611C135.1 150.398 132.89 156.852 132.039 158.004L132.036 158.008C131.782 158.355 131.461 158.648 131.093 158.871C130.725 159.094 130.317 159.242 129.891 159.306C129.466 159.371 129.032 159.351 128.614 159.248C128.197 159.144 127.804 158.959 127.458 158.704C127.11 158.449 126.816 158.128 126.593 157.759C126.369 157.39 126.221 156.98 126.156 156.554C126.09 156.129 126.109 155.695 126.213 155.278C126.316 154.86 126.502 154.468 126.758 154.123C127.611 152.969 133.1 148.928 136.338 146.611Z" fill="#FFDA2D"/>
<path d="M122.305 179.661C122.377 179.661 122.448 179.648 122.514 179.621L129.654 176.728C129.721 176.701 129.783 176.66 129.835 176.609C129.887 176.557 129.929 176.496 129.957 176.428C129.986 176.361 130 176.289 130.001 176.215C130.001 176.142 129.987 176.07 129.96 176.002L124.683 163.09L144.207 170.705C144.339 170.756 144.486 170.755 144.617 170.702L170.781 160.151C170.912 160.099 171.017 159.999 171.077 159.872C171.137 159.744 171.146 159.599 171.103 159.466C169.353 153.968 164.031 150.595 158.986 151.787C147.813 154.438 138.72 146.782 136.706 140.476C136.682 140.403 136.644 140.336 136.594 140.278C136.543 140.221 136.481 140.174 136.412 140.142C136.342 140.109 136.267 140.091 136.19 140.09C136.113 140.088 136.037 140.101 135.966 140.13L110.692 150.403C110.556 150.459 110.447 150.566 110.389 150.702C110.332 150.837 110.331 150.99 110.386 151.127L121.79 179.313C121.831 179.416 121.902 179.504 121.994 179.566C122.086 179.628 122.195 179.661 122.305 179.661ZM128.719 175.906L122.612 178.381L111.625 151.225L135.842 141.381C138.328 147.97 147.754 155.597 159.241 152.869C163.574 151.846 168.152 154.659 169.874 159.316L144.404 169.587L123.88 161.582C123.778 161.543 123.668 161.534 123.561 161.557C123.455 161.579 123.357 161.633 123.281 161.71C123.205 161.788 123.153 161.886 123.132 161.993C123.111 162.1 123.122 162.21 123.163 162.311L128.719 175.906Z" fill="#202124"/>
<path d="M49.6171 179.126L49.6542 148.714L22.3771 148.622C22.8963 155.613 21.1718 166.294 9.65655 168.037C4.55718 168.816 1.36774 173.915 1.75715 179.107L30.7957 179.126L41.9773 163.883L41.9031 179.126H49.6171Z" fill="#3C4043"/>
<path d="M30.7954 179.68C30.8828 179.68 30.9689 179.66 31.0468 179.62C31.1248 179.581 31.1923 179.524 31.244 179.453L41.4123 165.591L41.3465 179.121C41.3461 179.195 41.3602 179.267 41.388 179.335C41.4158 179.403 41.4567 179.464 41.5084 179.516C41.5601 179.568 41.6216 179.61 41.6892 179.638C41.7569 179.666 41.8295 179.68 41.9028 179.68H49.6167C49.7643 179.68 49.9058 179.622 50.0101 179.517C50.1144 179.413 50.173 179.272 50.173 179.124L50.2101 148.712C50.2101 148.565 50.1518 148.424 50.0478 148.32C49.9439 148.215 49.8029 148.157 49.6557 148.156L22.3787 148.063C22.3024 148.065 22.227 148.081 22.157 148.111C22.087 148.142 22.0237 148.186 21.9707 148.241C21.9183 148.297 21.8781 148.363 21.8526 148.435C21.827 148.508 21.8168 148.585 21.8224 148.661C22.1971 153.707 21.7538 165.641 9.57333 167.485C4.44726 168.268 0.770698 173.391 1.20239 179.147C1.21291 179.287 1.27588 179.418 1.37869 179.513C1.48151 179.609 1.61656 179.662 1.75683 179.662L30.7954 179.68ZM49.0604 178.568H42.4611L42.5325 163.884C42.5331 163.766 42.4965 163.652 42.4279 163.556C42.3593 163.461 42.2623 163.39 42.1507 163.353C42.0391 163.316 41.9187 163.315 41.8068 163.351C41.6949 163.387 41.5972 163.457 41.5277 163.552L30.513 178.568L2.2842 178.549C2.14048 173.581 5.33659 169.257 9.73948 168.584C15.0539 167.78 18.8531 165.072 21.0302 160.536C22.9791 156.474 23.1132 151.885 22.9691 149.178L49.0964 149.266L49.0604 178.568Z" fill="#202124"/>
<path d="M5.13862 165.524C8.50421 165.524 17.2302 164.256 18.3241 164.096C18.4392 164.079 18.5462 164.026 18.6299 163.945C18.7135 163.864 18.7697 163.759 18.7905 163.645C18.8112 163.53 18.7955 163.412 18.7456 163.307C18.6956 163.202 18.614 163.115 18.5121 163.059C17.429 162.46 7.86947 157.201 5.74257 156.816C5.17467 156.713 4.59209 156.723 4.02809 156.845C3.46407 156.968 2.92969 157.2 2.45543 157.529C1.98117 157.858 1.57632 158.277 1.26401 158.762C0.951704 159.248 0.73805 159.79 0.635238 160.358C0.532429 160.925 0.542475 161.508 0.664812 162.072C0.787151 162.636 1.01939 163.17 1.34825 163.645C1.67711 164.119 2.09616 164.524 2.58148 164.836C3.06681 165.149 3.6089 165.362 4.17679 165.465C4.49523 165.511 4.81694 165.531 5.13862 165.524ZM16.5077 163.23C12.5581 163.778 5.78114 164.624 4.37483 164.369C3.94897 164.295 3.54212 164.136 3.17764 163.904C2.81316 163.671 2.49825 163.369 2.25099 163.014C2.00373 162.659 1.829 162.259 1.73683 161.836C1.64467 161.414 1.6369 160.977 1.71395 160.552C1.791 160.127 1.95136 159.72 2.18582 159.357C2.42029 158.994 2.72422 158.68 3.08017 158.435C3.43612 158.189 3.83707 158.017 4.25999 157.927C4.6829 157.837 5.11944 157.831 5.54453 157.91C6.96289 158.167 13.0055 161.333 16.5077 163.23Z" fill="#FFDA2D"/>
<path d="M18.2431 164.101C18.334 164.101 18.4235 164.079 18.5037 164.036C18.584 163.994 18.6527 163.932 18.7036 163.857C18.7546 163.782 18.7864 163.695 18.7962 163.605C18.806 163.515 18.7936 163.423 18.7599 163.339C18.3014 162.189 14.24 152.054 12.8335 150.423C12.2686 149.761 11.5198 149.282 10.6823 149.047C9.84471 148.811 8.95608 148.83 8.12904 149.1C7.302 149.37 6.5738 149.88 6.03679 150.564C5.49978 151.249 5.17816 152.077 5.11269 152.945C5.06647 153.517 5.13448 154.092 5.31276 154.637C5.49103 155.182 5.77602 155.687 6.1511 156.121C7.54054 157.749 16.8941 163.384 17.9563 164.021C18.0428 164.074 18.142 164.101 18.2431 164.101ZM9.48219 150.001C9.95837 150.001 10.4291 150.103 10.8621 150.301C11.2951 150.499 11.6801 150.789 11.9909 151.15C12.9272 152.235 15.5946 158.514 17.1007 162.202C13.6991 160.123 7.92179 156.483 6.99779 155.399L6.99574 155.396C6.71622 155.073 6.50386 154.697 6.37104 154.291C6.23822 153.885 6.18759 153.457 6.22212 153.031C6.28253 152.207 6.65225 151.437 7.25698 150.875C7.86171 150.313 8.65667 150.001 9.48219 150.001Z" fill="#FFDA2D"/>
<path d="M17.5649 95.27C18.3649 90.47 36.8983 68.6034 46.0649 58.27L78.0649 53.27L84.5649 61.77L83.0649 67.77L90.0649 69.77L93.0649 73.27C92.8983 73.9367 92.8649 75.57 94.0649 76.77C95.5649 78.27 97.5649 85.27 98.0649 87.77C98.4649 89.77 99.8983 90.27 100.565 90.27C100.565 92.27 111.565 100.77 115.065 105.27C118.565 109.77 115.565 116.27 122.065 118.27C127.265 119.87 135.898 132.27 139.565 138.27L111.565 156.27C107.732 151.103 99.9649 140.07 99.5649 137.27C99.0649 133.77 94.5649 127.77 91.0649 125.77C87.5649 123.77 83.5649 117.27 83.5649 114.77C83.5649 112.27 78.5649 106.27 75.0649 104.27C71.5649 102.27 63.5649 90.27 63.5649 91.27C63.5649 92.07 54.8983 102.603 50.5649 107.77V150.77H16.5649C16.5649 134.27 16.7649 100.07 17.5649 95.27Z" fill="white" stroke="#3C4043"/>
<path d="M102.855 74.1754C103.689 79.0257 106.871 99.0871 103.447 99.2011L84.8735 69.2231L102.855 74.1754Z" fill="#FCEAED"/>
<path d="M103.447 99.7564H103.466C103.68 99.7471 103.889 99.6905 104.079 99.5908C104.268 99.4911 104.433 99.3506 104.562 99.1795C104.956 98.6955 106.156 97.2235 105.182 87.0861C104.646 81.5084 103.685 75.7215 103.404 74.0805C103.386 73.9764 103.339 73.8795 103.268 73.8012C103.197 73.7228 103.105 73.6663 103.003 73.6383L85.021 68.686C84.9132 68.6563 84.7989 68.6597 84.693 68.696C84.5872 68.7322 84.4947 68.7995 84.4277 68.889C84.3607 68.9786 84.3223 69.0863 84.3174 69.198C84.3125 69.3098 84.3414 69.4204 84.4003 69.5155L102.975 99.4931C103.025 99.5736 103.094 99.64 103.177 99.6861C103.26 99.7322 103.353 99.7564 103.447 99.7564ZM102.367 74.6168C104.16 85.1761 105.259 96.5628 103.7 98.4763C103.691 98.4873 103.681 98.4978 103.673 98.5077L86.0935 70.1359L102.367 74.6168Z" fill="#202124"/>
<path d="M50.4839 107.266L50.9002 107.635L45.263 113.995L44.8467 113.626L50.4839 107.266Z" fill="#202124"/>
<path d="M99.3862 136.12C99.4024 136.12 99.4187 136.12 99.4352 136.118C99.5821 136.105 99.718 136.035 99.8129 135.922C99.9077 135.809 99.9538 135.663 99.941 135.516L99.1251 126.17C99.1109 126.024 99.0396 125.889 98.9269 125.796C98.8142 125.702 98.6691 125.657 98.5232 125.67C98.3772 125.682 98.2422 125.752 98.1474 125.864C98.0525 125.976 98.0056 126.12 98.0168 126.266L98.8327 135.612C98.8448 135.751 98.9083 135.88 99.0107 135.974C99.1132 136.068 99.2471 136.12 99.3862 136.12Z" fill="#202124"/>
<path d="M118.041 119.598C118.073 119.598 118.106 119.595 118.138 119.589C118.283 119.564 118.412 119.482 118.497 119.361C118.582 119.24 118.615 119.09 118.589 118.945L117.05 110.211C117.024 110.066 116.942 109.937 116.821 109.852C116.701 109.768 116.551 109.735 116.406 109.76C116.261 109.786 116.132 109.868 116.047 109.989C115.962 110.11 115.929 110.259 115.954 110.404L117.494 119.138C117.516 119.267 117.583 119.384 117.684 119.468C117.784 119.552 117.91 119.598 118.041 119.598Z" fill="#202124"/>
<path d="M83.2162 113.943C83.2973 113.943 83.3775 113.925 83.4511 113.891C83.5247 113.857 83.5899 113.807 83.6422 113.745C83.6945 113.683 83.7326 113.61 83.7538 113.532C83.775 113.454 83.7789 113.372 83.7651 113.292L82.0777 103.501C82.0663 103.428 82.0406 103.358 82.0019 103.295C81.9633 103.232 81.9125 103.177 81.8525 103.134C81.7926 103.091 81.7247 103.06 81.6527 103.044C81.5808 103.027 81.5062 103.025 81.4335 103.038C81.3607 103.05 81.2912 103.077 81.2289 103.117C81.1667 103.157 81.1129 103.208 81.0709 103.269C81.0288 103.33 80.9992 103.398 80.9838 103.47C80.9685 103.543 80.9676 103.617 80.9814 103.69L82.6688 113.481C82.6911 113.61 82.7582 113.727 82.8583 113.811C82.9584 113.896 83.0852 113.942 83.2162 113.943Z" fill="#202124"/>
<path d="M63.6162 91.4308C63.7191 91.4307 63.82 91.4021 63.9077 91.3481C63.9953 91.2941 64.0663 91.2169 64.1126 91.125C64.159 91.0331 64.1789 90.9301 64.1702 90.8275C64.1616 90.725 64.1246 90.6268 64.0634 90.544L60.0396 85.0922C59.952 84.9735 59.8208 84.8944 59.6749 84.8724C59.6026 84.8615 59.529 84.865 59.4581 84.8825C59.3871 84.9001 59.3204 84.9315 59.2616 84.9749C59.2028 85.0183 59.1532 85.0728 59.1155 85.1354C59.0777 85.198 59.0527 85.2674 59.0418 85.3396C59.0309 85.4118 59.0344 85.4855 59.052 85.5564C59.0696 85.6274 59.1009 85.6941 59.1443 85.7529L63.1682 91.2047C63.2199 91.2749 63.2874 91.3319 63.3652 91.3711C63.4431 91.4104 63.529 91.4308 63.6162 91.4308Z" fill="#202124"/>
<path d="M45.9329 59.21L30.6285 75.5769C27.7395 77.8099 24.1922 79.0228 20.541 79.026C17.9841 79.0178 15.4619 78.4347 13.1608 77.32C10.3717 75.9508 8.0236 73.8253 6.38426 71.1859C4.74492 68.5465 3.88037 65.4995 3.88923 62.3924V37.2658H26.141V51.0252L47.9307 32.7948C49.5309 31.4437 51.2773 30.2758 53.1371 29.3128L62.6657 27.7661C63.008 27.8032 63.3494 27.8342 63.6907 27.8479L102.168 29.4033C103.839 29.4706 105.473 29.9136 106.95 30.6996C108.426 31.4855 109.706 32.5941 110.695 33.9429C111.684 35.2917 112.356 36.8461 112.662 38.4904C112.967 40.1348 112.898 41.8269 112.459 43.4408L103.985 74.4828L82.4937 68.6416L87.2964 51.0808L76.9422 50.6591C77.4573 51.9487 77.8025 53.2997 77.9692 54.6783L46.4458 58.4426" fill="#FFED96"/>
<path d="M20.5407 79.5809C24.3158 79.5853 27.9847 78.3311 30.9671 76.0164C30.9912 75.998 31.0137 75.9776 31.0344 75.9554L46.3389 59.5884C46.4116 59.5107 46.4606 59.4137 46.4798 59.3089C46.4991 59.2041 46.4879 59.096 46.4475 58.9975C46.4689 58.9974 46.4902 58.9961 46.5115 58.9936L78.0349 55.2292C78.1075 55.2205 78.1777 55.1976 78.2415 55.1617C78.3053 55.1259 78.3614 55.0778 78.4065 55.0202C78.4517 54.9627 78.4851 54.8967 78.5047 54.8263C78.5244 54.7558 78.5299 54.6821 78.5211 54.6095C78.3821 53.4653 78.1248 52.3386 77.7534 51.2475L86.5751 51.6067L81.9568 68.4935C81.9375 68.564 81.9323 68.6376 81.9415 68.7102C81.9507 68.7827 81.9741 68.8527 82.0104 68.9162C82.0467 68.9797 82.0951 69.0354 82.153 69.0802C82.2108 69.1249 82.2769 69.1578 82.3475 69.177L103.839 75.0182C103.981 75.0569 104.133 75.0375 104.261 74.9643C104.389 74.8911 104.483 74.7701 104.521 74.6279L112.996 43.5859C113.456 41.8911 113.529 40.1142 113.208 38.3874C112.888 36.6607 112.182 35.0284 111.144 33.612C110.105 32.1956 108.761 31.0315 107.21 30.2063C105.66 29.3811 103.944 28.916 102.189 28.8455L63.7129 27.2903C63.421 27.2784 63.1074 27.2532 62.7262 27.2113C62.6762 27.2058 62.6258 27.2072 62.5762 27.2154L53.0478 28.7619C52.991 28.771 52.9361 28.789 52.885 28.8151C50.988 29.7977 49.2064 30.9888 47.5734 32.3662L26.697 49.8328V37.2643C26.697 37.1168 26.6384 36.9753 26.5341 36.871C26.4297 36.7666 26.2882 36.708 26.1407 36.708H3.88887C3.74134 36.708 3.59985 36.7666 3.49553 36.871C3.39119 36.9753 3.33258 37.1168 3.33258 37.2643V62.3909C3.32387 65.6016 4.21738 68.75 5.91125 71.4774C7.60512 74.2048 10.0312 76.4014 12.9129 77.8168C15.2923 78.9658 17.8984 79.5685 20.5407 79.5809ZM30.2532 75.1617C27.4711 77.309 24.055 78.472 20.5407 78.4683C18.0678 78.4566 15.6287 77.8927 13.4015 76.8179C10.7071 75.4936 8.43891 73.439 6.85539 70.8883C5.27187 68.3375 4.43673 65.3933 4.44517 62.3909V37.8207H25.5844V51.0237C25.5844 51.1295 25.6146 51.2331 25.6715 51.3224C25.7283 51.4116 25.8094 51.4828 25.9053 51.5276C26.0012 51.5724 26.1078 51.5889 26.2127 51.5752C26.3177 51.5614 26.4165 51.5181 26.4977 51.4502L48.2874 33.22C49.8342 31.9153 51.5193 30.784 53.3126 29.8465L62.6808 28.326C63.0544 28.3658 63.37 28.3903 63.6682 28.4024L102.145 29.9576C103.733 30.0215 105.285 30.4425 106.688 31.1891C108.09 31.9357 109.307 32.9889 110.246 34.2702C111.185 35.5516 111.824 37.0282 112.114 38.5904C112.404 40.1525 112.339 41.7599 111.922 43.2932L103.594 73.799L83.1769 68.2496L87.8327 51.2266C87.855 51.1458 87.8587 51.0611 87.8436 50.9787C87.8285 50.8963 87.795 50.8183 87.7456 50.7507C87.6961 50.6831 87.6321 50.6275 87.5582 50.588C87.4843 50.5486 87.4024 50.5264 87.3187 50.523L76.9646 50.1015C76.8718 50.0978 76.7796 50.1173 76.6963 50.1583C76.613 50.1993 76.5413 50.2604 76.4877 50.3362C76.4342 50.412 76.4004 50.5 76.3895 50.5922C76.3787 50.6844 76.391 50.7779 76.4255 50.864C76.8535 51.9354 77.16 53.0514 77.3393 54.1911L46.3795 57.8884C46.2943 57.8985 46.2127 57.9282 46.141 57.9751C46.0692 58.022 46.0093 58.0848 45.9658 58.1587C45.9224 58.2326 45.8966 58.3155 45.8904 58.401C45.8843 58.4865 45.898 58.5723 45.9305 58.6516C45.8547 58.6518 45.7797 58.6676 45.7101 58.6979C45.6406 58.7282 45.578 58.7725 45.5263 58.828L30.2532 75.1617Z" fill="#202124"/>
<path d="M46.4461 58.9962C46.4681 58.9962 46.4901 58.995 46.5119 58.9925C46.5845 58.984 46.6546 58.9613 46.7184 58.9256C46.7822 58.89 46.8383 58.8421 46.8836 58.7848C46.9288 58.7274 46.9624 58.6617 46.9822 58.5914C47.0021 58.5211 47.008 58.4476 46.9994 58.375C46.7525 56.3025 46.9291 54.2013 47.5186 52.1991C48.3502 49.4046 48.4619 46.4452 47.8433 43.596C47.8114 43.4519 47.7235 43.3265 47.599 43.2472C47.5374 43.208 47.4686 43.1812 47.3967 43.1686C47.3247 43.1559 47.251 43.1575 47.1797 43.1734C47.1083 43.1892 47.0408 43.2189 46.981 43.2608C46.9211 43.3027 46.8702 43.356 46.8309 43.4177C46.7917 43.4793 46.7649 43.548 46.7523 43.62C46.7396 43.692 46.7412 43.7657 46.757 43.837C47.335 46.5029 47.2298 49.2716 46.4513 51.8859C45.8194 54.0321 45.6301 56.2844 45.895 58.5059C45.9111 58.6409 45.9761 58.7652 46.0776 58.8556C46.1791 58.9459 46.3102 58.9959 46.4461 58.9962Z" fill="#202124"/>
<path d="M29.6821 54.0837C29.8 54.0837 29.9149 54.0463 30.0102 53.9768C30.1054 53.9073 30.1761 53.8093 30.2121 53.697C30.248 53.5846 30.2473 53.4638 30.2101 53.3519C30.1729 53.24 30.1011 53.1428 30.0051 53.0744L26.4634 50.5524C26.4039 50.5089 26.3364 50.4775 26.2648 50.4603C26.1931 50.443 26.1188 50.4402 26.046 50.4519C25.9733 50.4636 25.9035 50.4897 25.8409 50.5286C25.7783 50.5675 25.7241 50.6184 25.6813 50.6784C25.6386 50.7385 25.6082 50.8064 25.5919 50.8783C25.5756 50.9501 25.5738 51.0245 25.5865 51.0971C25.5993 51.1697 25.6263 51.2391 25.666 51.3011C25.7058 51.3632 25.7575 51.4168 25.8181 51.4587L29.3598 53.9806C29.4538 54.0478 29.5665 54.0838 29.6821 54.0837Z" fill="#202124"/>
<path d="M76.9307 51.2094C77.0782 51.2125 77.2209 51.1567 77.3274 51.0546C77.4338 50.9524 77.4954 50.8121 77.4984 50.6645C77.5014 50.517 77.4457 50.3743 77.3435 50.2678C77.2413 50.1614 77.1011 50.0999 76.9536 50.0968L72.0767 49.8928C71.9308 49.889 71.7891 49.9428 71.6824 50.0425C71.5757 50.1422 71.5124 50.2798 71.5063 50.4257C71.5002 50.5716 71.5517 50.714 71.6497 50.8223C71.7477 50.9305 71.8843 50.9959 72.0301 51.0043L76.9069 51.2083C76.9153 51.2094 76.9233 51.2094 76.9307 51.2094Z" fill="#202124"/>
<path d="M87.3143 51.6165C87.4409 51.6164 87.5636 51.5731 87.6622 51.4938C87.7609 51.4145 87.8295 51.304 87.8569 51.1804L88.543 48.0836C88.575 47.9396 88.5484 47.7887 88.4691 47.6642C88.3899 47.5398 88.2644 47.4519 88.1204 47.4199C87.9763 47.388 87.8255 47.4145 87.701 47.4938C87.5766 47.573 87.4887 47.6985 87.4567 47.8425L86.7706 50.9393C86.7525 51.0207 86.7529 51.1051 86.7718 51.1864C86.7907 51.2676 86.8276 51.3435 86.8798 51.4085C86.932 51.4735 86.9982 51.526 87.0734 51.562C87.1486 51.598 87.2309 51.6166 87.3143 51.6165Z" fill="#202124"/>
<path d="M60.6846 16.3425C60.7849 17.0442 60.8043 17.7552 60.7423 18.4613C60.6903 19.0341 60.5866 19.6011 60.4324 20.1553L62.1701 26.1013L62.541 27.5106C62.7353 28.0762 62.8048 28.6772 62.745 29.2722C62.6484 30.3861 62.166 31.4312 61.381 32.2273C60.596 33.0233 59.5577 33.5203 58.4453 33.6325C57.333 33.7446 56.2164 33.4648 55.2884 32.8414C54.3603 32.218 53.679 31.2901 53.3621 30.2179L52.8986 28.7345L52.3641 26.8933C50.7269 27.0496 49.0775 26.7681 47.5848 26.0774C46.0921 25.3868 44.8098 24.3118 43.8691 22.9627C42.9284 21.6135 42.3631 20.0386 42.2311 18.3992C42.0992 16.7597 42.4052 15.1146 43.118 13.6324C43.007 13.233 42.9231 12.8267 42.8667 12.4161C42.7736 11.7278 42.755 11.0315 42.8111 10.3392C42.8428 9.94563 42.9048 9.55505 42.9965 9.17098L47.787 3.94873L60.6846 16.3425Z" fill="#FFF1ED"/>
<path d="M45.2399 19.2589C45.3612 19.259 45.4792 19.2195 45.5759 19.1463C45.6726 19.0731 45.7428 18.9704 45.7757 18.8536C45.8086 18.7369 45.8025 18.6126 45.7583 18.4997C45.714 18.3868 45.6341 18.2914 45.5306 18.2281L43.9901 17.2866L45.7776 14.178C45.8514 14.0501 45.8713 13.8982 45.8331 13.7556C45.7948 13.613 45.7015 13.4915 45.5737 13.4177C45.4458 13.344 45.2939 13.324 45.1513 13.3623C45.0087 13.4005 44.8872 13.4938 44.8134 13.6217L42.7551 17.2006C42.6829 17.3263 42.6626 17.4752 42.6985 17.6156C42.7344 17.7561 42.8237 17.877 42.9474 17.9525L44.9501 19.1764C45.0371 19.2303 45.1375 19.2588 45.2399 19.2589Z" fill="#202124"/>
<path d="M47.9103 15.3443C47.6132 15.1092 47.5629 14.6777 47.798 14.3805C48.0332 14.0833 48.4647 14.0331 48.7618 14.2682C49.059 14.5033 49.1093 14.9348 48.8741 15.232C48.639 15.5291 48.2075 15.5794 47.9103 15.3443Z" fill="#202124"/>
<path d="M42.819 15.3267C42.5219 15.0916 42.4716 14.6601 42.7067 14.3629C42.9418 14.0658 43.3733 14.0155 43.6705 14.2506C43.9677 14.4857 44.0179 14.9172 43.7828 15.2144C43.5477 15.5116 43.1162 15.5618 42.819 15.3267Z" fill="#202124"/>
<path d="M46.623 22.0082C46.7465 22.0082 46.8696 21.9992 46.9918 21.9813C47.3389 21.9307 47.6716 21.8081 47.9686 21.6213C48.2656 21.4346 48.5203 21.1878 48.7163 20.8968L48.7626 20.8349C48.8065 20.7765 48.8383 20.71 48.8565 20.6392C48.8746 20.5684 48.8786 20.4948 48.8683 20.4224C48.858 20.3501 48.8335 20.2805 48.7963 20.2177C48.759 20.1548 48.7098 20.0999 48.6514 20.0561C48.5929 20.0122 48.5264 19.9803 48.4557 19.9622C48.3849 19.9441 48.3112 19.9401 48.2389 19.9504C48.1666 19.9607 48.097 19.9852 48.0342 20.0224C47.9713 20.0596 47.9164 20.1089 47.8726 20.1673L47.817 20.2415C47.8105 20.2502 47.8039 20.26 47.7984 20.2686C47.6901 20.4337 47.5478 20.5737 47.3809 20.6792C47.214 20.7848 47.0264 20.8534 46.8308 20.8805C46.6286 20.9097 46.4224 20.896 46.2259 20.8402C46.0293 20.7845 45.8466 20.688 45.6898 20.5569L45.4191 20.322C45.3076 20.2254 45.1623 20.177 45.0151 20.1875C44.8679 20.1981 44.731 20.2667 44.6344 20.3782C44.5377 20.4897 44.4894 20.635 44.4999 20.7822C44.5105 20.9294 44.5791 21.0663 44.6906 21.1629L44.9687 21.404C45.4321 21.7934 46.0178 22.0073 46.623 22.0082Z" fill="#202124"/>
<path d="M52.3978 27.2888C52.4163 27.2888 52.4349 27.2888 52.4534 27.2862C54.1897 27.1093 55.8491 26.4795 57.2655 25.4598C57.3837 25.3731 57.4628 25.2433 57.4858 25.0985C57.5087 24.9538 57.4737 24.8059 57.3882 24.6868C57.3027 24.5678 57.1737 24.4873 57.0292 24.4629C56.8847 24.4384 56.7364 24.4719 56.6165 24.5562C55.3585 25.462 53.8847 26.0216 52.3425 26.1789C52.2005 26.1932 52.0694 26.2615 51.9764 26.3697C51.8833 26.4779 51.8354 26.6178 51.8425 26.7603C51.8497 26.9029 51.9113 27.0372 52.0147 27.1356C52.1182 27.2339 52.2555 27.2888 52.3982 27.2888H52.3978Z" fill="#202124"/>
<path d="M57.9795 34.0269C58.4844 34.0267 58.9867 33.9546 59.4713 33.8129C60.5028 33.5037 61.4185 32.8932 62.1007 32.06C62.7829 31.2267 63.2005 30.2085 63.3001 29.1362C63.3661 28.4707 63.2893 27.7988 63.0748 27.1654L62.7089 25.7746L61.0109 19.964C61.1513 19.4268 61.2471 18.8788 61.2972 18.3258C61.3628 17.5769 61.3423 16.8228 61.236 16.0785C61.2262 16.0058 61.202 15.9357 61.165 15.8723C61.1279 15.8089 61.0787 15.7534 61.0201 15.7092C60.9615 15.6649 60.8947 15.6327 60.8236 15.6144C60.7525 15.596 60.6784 15.592 60.6057 15.6024C60.533 15.6128 60.4631 15.6375 60.4001 15.6751C60.337 15.7127 60.2819 15.7624 60.2382 15.8213C60.1944 15.8803 60.1627 15.9473 60.1449 16.0186C60.1272 16.0899 60.1237 16.1639 60.1347 16.2365C60.2288 16.8961 60.247 17.5642 60.1889 18.2279C60.1398 18.7669 60.0421 19.3004 59.897 19.8218C59.8695 19.9215 59.8702 20.027 59.8992 20.1264L61.6369 26.0724L62.0039 27.4671C62.0072 27.4803 62.0113 27.4934 62.0158 27.5064C62.1838 27.9968 62.244 28.5177 62.1921 29.0335C62.108 30.019 61.6823 30.9441 60.9885 31.649C60.2947 32.3539 59.3764 32.7943 58.3923 32.8939C57.4083 32.9935 56.4204 32.7462 55.5993 32.1947C54.7783 31.6432 54.1758 30.8222 53.8959 29.8735L53.4303 28.3837L52.8992 26.5533C52.8632 26.4292 52.785 26.3215 52.6782 26.2487C52.5714 26.1759 52.4426 26.1425 52.314 26.1544C51.7907 26.2026 51.2643 26.2042 50.7408 26.1592C48.4338 25.9605 46.3002 24.8534 44.8094 23.0816C43.3186 21.3098 42.5927 19.0183 42.7913 16.7112C42.8844 15.6622 43.1653 14.6384 43.6205 13.6886C43.6787 13.5673 43.6909 13.4289 43.6548 13.2992C43.5507 12.9239 43.4718 12.542 43.4186 12.1562C43.3306 11.5074 43.3131 10.8509 43.3665 10.1984C43.3952 9.83549 43.4522 9.47539 43.5369 9.12136C43.556 9.05003 43.5608 8.9756 43.5509 8.90241C43.5409 8.82922 43.5165 8.75874 43.4791 8.69509C43.4416 8.63143 43.3919 8.57587 43.3327 8.53165C43.2736 8.48742 43.2062 8.45542 43.1345 8.43751C43.0629 8.4196 42.9884 8.41613 42.9154 8.42731C42.8424 8.4385 42.7723 8.46411 42.7093 8.50265C42.6463 8.54119 42.5916 8.59189 42.5484 8.65179C42.5052 8.7117 42.4744 8.7796 42.4577 8.85155C42.3585 9.26324 42.2917 9.68206 42.2578 10.1042C42.1977 10.8388 42.2174 11.5777 42.3166 12.3081C42.3669 12.6743 42.4379 13.0373 42.5293 13.3955C42.0677 14.4128 41.7816 15.5009 41.683 16.6137C41.5718 17.9017 41.7154 19.199 42.1056 20.4316C42.4958 21.6641 43.1249 22.8077 43.9571 23.797C44.7893 24.7864 45.8081 25.6022 46.9556 26.1977C48.103 26.7933 49.3565 27.157 50.6445 27.2681C51.0805 27.3058 51.5185 27.3146 51.9557 27.2945L52.3651 28.7049L52.8319 30.1993C53.1661 31.3049 53.8469 32.2738 54.7738 32.963C55.7006 33.6522 56.8245 34.0251 57.9795 34.0269Z" fill="#202124"/>
<path d="M58.5231 17.3983C59.2617 17.2463 59.942 16.888 60.4852 16.3649C61.0283 15.8418 61.412 15.1754 61.5916 14.443C61.7713 13.7107 61.7395 12.9424 61.5001 12.2273C61.2607 11.5123 60.8234 10.8798 60.239 10.4033C59.6545 9.92676 58.947 9.62575 58.1984 9.5352C57.4498 9.44465 56.6908 9.56826 56.0097 9.89169C55.3285 10.2151 54.753 10.7251 54.35 11.3624C53.947 11.9998 53.733 12.7384 53.7329 13.4924" fill="#FFF1ED"/>
<path d="M58.5231 17.9548C58.5604 17.9547 58.5977 17.9509 58.6343 17.9435C59.476 17.7704 60.2514 17.3622 60.8704 16.7661C61.4895 16.1701 61.9268 15.4107 62.1316 14.5761C62.3364 13.7415 62.3003 12.866 62.0275 12.0511C61.7546 11.2362 61.2563 10.5154 60.5903 9.97233C59.9243 9.42927 59.118 9.08625 58.2649 8.98307C57.4118 8.87988 56.5469 9.02078 55.7706 9.3894C54.9944 9.75802 54.3386 10.3392 53.8794 11.0656C53.4202 11.7919 53.1764 12.6336 53.1763 13.493C53.1763 13.6405 53.2349 13.782 53.3393 13.8864C53.4436 13.9907 53.5851 14.0493 53.7326 14.0493C53.8802 14.0493 54.0217 13.9907 54.126 13.8864C54.2303 13.782 54.2889 13.6405 54.2889 13.493C54.2891 12.8442 54.4732 12.2087 54.82 11.6603C55.1667 11.1119 55.6619 10.6731 56.248 10.3948C56.8341 10.1165 57.4871 10.0101 58.1312 10.088C58.7753 10.1659 59.3842 10.4249 59.887 10.8348C60.3899 11.2448 60.7662 11.789 60.9723 12.4043C61.1783 13.0195 61.2057 13.6806 61.0512 14.3107C60.8967 14.9409 60.5666 15.5143 60.0993 15.9645C59.6321 16.4146 59.0467 16.723 58.4112 16.8538C58.2761 16.8813 58.1559 16.958 58.0741 17.0691C57.9922 17.1802 57.9546 17.3177 57.9685 17.4549C57.9823 17.5922 58.0467 17.7194 58.1491 17.8119C58.2515 17.9043 58.3845 17.9555 58.5225 17.9553L58.5231 17.9548Z" fill="#202124"/>
<path d="M56.7015 15.4265C56.7452 15.4266 56.7888 15.4215 56.8313 15.4113L59.6091 14.7489C59.7513 14.7135 59.8738 14.6233 59.95 14.4981C60.0262 14.3728 60.0498 14.2226 60.0158 14.08C59.9818 13.9374 59.8929 13.814 59.7684 13.7366C59.6439 13.6592 59.4939 13.6341 59.3509 13.6667L57.8473 14.0253L58.8412 12.3427C58.8792 12.2797 58.9044 12.2099 58.9153 12.1371C58.9262 12.0644 58.9225 11.9903 58.9046 11.9189C58.8866 11.8476 58.8547 11.7806 58.8107 11.7217C58.7666 11.6628 58.7113 11.6132 58.648 11.5758C58.5847 11.5384 58.5146 11.5139 58.4418 11.5038C58.3689 11.4937 58.2948 11.4981 58.2237 11.5168C58.1526 11.5355 58.0859 11.5681 58.0274 11.6128C57.969 11.6574 57.92 11.7132 57.8832 11.7769L56.2232 14.5874C56.1734 14.6718 56.1467 14.768 56.146 14.8661C56.1453 14.9642 56.1706 15.0607 56.2192 15.1459C56.2678 15.2311 56.3381 15.302 56.4229 15.3512C56.5078 15.4005 56.6041 15.4264 56.7022 15.4265H56.7015Z" fill="#202124"/>
<path d="M100.334 91.2054C100.39 91.2054 100.44 91.2026 100.482 91.1987C101.553 91.1004 102.434 90.084 102.446 88.9332C102.446 87.2038 101.871 79.9065 101.57 77.4191C101.562 77.346 101.54 77.2753 101.504 77.211C101.468 77.1468 101.42 77.0902 101.363 77.0446C101.305 76.9989 101.239 76.9652 101.168 76.9453C101.097 76.9254 101.023 76.9197 100.95 76.9286C100.877 76.9374 100.807 76.9606 100.743 76.9969C100.679 77.0332 100.623 77.0817 100.578 77.1398C100.533 77.1979 100.499 77.2643 100.48 77.3353C100.461 77.4062 100.456 77.4803 100.466 77.5532C100.765 80.0176 101.333 87.2309 101.333 88.9275C101.327 89.4984 100.882 90.0447 100.38 90.0907C99.8196 90.1463 99.0862 89.5092 98.7081 87.5782C97.5532 81.5927 95.9889 79.6106 94.7319 78.0179C93.9004 76.9642 93.2438 76.1322 92.9443 74.2997C92.9325 74.2276 92.9067 74.1585 92.8682 74.0964C92.8297 74.0343 92.7794 73.9803 92.7201 73.9377C92.6608 73.895 92.5936 73.8645 92.5225 73.8477C92.4514 73.831 92.3777 73.8285 92.3056 73.8403C92.2335 73.852 92.1644 73.8779 92.1023 73.9164C92.0402 73.9548 91.9863 74.0052 91.9436 74.0645C91.9009 74.1238 91.8704 74.1909 91.8537 74.262C91.8369 74.3332 91.8344 74.4069 91.8462 74.479C92.192 76.5956 92.9643 77.5739 93.8585 78.7069C95.0408 80.2051 96.5122 82.0695 97.6159 87.7905C98.218 90.8608 99.7015 91.2054 100.334 91.2054Z" fill="#202124"/>
<path d="M5.02055 36.3818C5.02055 36.3818 4.38216 24.5251 4.13016 21.5567C3.81097 18.1355 4.78534 16.5087 6.17973 16.4584C8.56529 16.3578 8.90129 25.2294 8.95169 26.5878C8.91809 25.0617 8.78369 13.9428 11.8916 13.7751C15.302 13.5907 14.042 25.5984 14.042 25.5984C14.0549 25.5972 14.0669 25.5912 14.0756 25.5816C14.0926 25.2837 14.1262 24.9869 14.1764 24.6928C14.714 21.8585 15.9908 20.0473 17.822 18.9908C19.5187 18.0181 21.5347 17.6827 23.8531 18.5044C24.1336 18.603 24.3919 18.7559 24.6132 18.9544C24.8344 19.1529 25.0141 19.393 25.1421 19.661C25.2701 19.929 25.3438 20.2197 25.359 20.5162C25.3742 20.8127 25.3306 21.1093 25.2307 21.389C25.0698 21.8438 24.7702 22.2367 24.3739 22.5126C24.4678 22.4922 24.5634 22.481 24.6595 22.4791C25.2583 22.4474 25.8454 22.6536 26.2924 23.0527C26.7394 23.4518 27.01 24.0113 27.045 24.6089C27.0799 25.3136 27.063 26.0198 26.9946 26.722C26.7258 28.9693 25.3147 30.9985 22.9123 32.4575C22.2833 32.9067 21.7729 33.5015 21.4247 34.1908C21.0765 34.8801 20.9009 35.6435 20.9131 36.4154L5.02055 36.3818ZM22.3411 22.7642C21.3331 22.412 20.5603 22.3784 20.0563 22.6635C19.4179 23.0325 18.8971 24.0723 18.6115 25.5481C18.5367 25.9205 18.5733 26.3067 18.7167 26.6586C18.8601 27.0104 19.1039 27.3124 19.4179 27.527C19.7003 27.7213 20.0284 27.8389 20.3701 27.8683C20.7118 27.8977 21.0552 27.8378 21.3667 27.6947C21.6693 27.5644 21.9317 27.3558 22.1266 27.0904C22.3215 26.8251 22.4419 26.5127 22.4755 26.1853C22.5214 25.7397 22.5326 25.2911 22.5091 24.8437C22.4863 24.4537 22.5657 24.0646 22.7396 23.7146C22.9134 23.3647 23.1756 23.066 23.5003 22.848C23.1136 22.9285 22.7121 22.8994 22.3411 22.7642Z" fill="#FFF1ED"/>
<path d="M20.9124 36.9183H20.915C20.9811 36.918 21.0466 36.9046 21.1076 36.8791C21.1687 36.8535 21.2241 36.8162 21.2706 36.7691C21.3172 36.7222 21.3541 36.6666 21.3791 36.6054C21.4042 36.5443 21.4169 36.4788 21.4166 36.4128C21.407 35.7241 21.5633 35.0433 21.8724 34.4276C22.1816 33.812 22.6344 33.2794 23.1928 32.875C25.678 31.3591 27.2051 29.1959 27.4936 26.7813C27.5649 26.0519 27.5828 25.3183 27.547 24.5864C27.5146 23.9992 27.2956 23.4377 26.9219 22.9831C26.5481 22.5286 26.0391 22.2048 25.4685 22.0585C25.5628 21.8996 25.6416 21.7319 25.7037 21.5579C25.9461 20.8673 25.9053 20.109 25.5901 19.4483C25.2749 18.7875 24.711 18.2779 24.0211 18.0304C21.7502 17.2254 19.5799 17.4017 17.5699 18.5543C16.392 19.2355 15.4263 20.2294 14.7802 21.4255C14.8121 18.5941 14.5641 15.1814 13.3186 13.8738C13.1359 13.6722 12.9106 13.5136 12.6589 13.4095C12.4073 13.3055 12.1356 13.2587 11.8636 13.2724C10.2532 13.3595 9.23226 15.4335 8.74221 19.6134C8.73599 19.6666 8.72977 19.7201 8.7239 19.773C8.39815 18.2701 7.93565 17.0029 7.27912 16.3972C7.13236 16.2509 6.95711 16.1364 6.76421 16.0604C6.5713 15.9844 6.36483 15.9487 6.15756 15.9556C5.85182 15.9667 5.55176 16.0413 5.27659 16.1748C5.00142 16.3083 4.75721 16.4977 4.55957 16.7309C3.73941 17.6628 3.41718 19.3471 3.62751 21.6031C3.87565 24.5257 4.51017 36.2899 4.51656 36.4086C4.51941 36.475 4.53545 36.5403 4.56373 36.6006C4.59202 36.6608 4.63198 36.7147 4.68132 36.7595C4.73067 36.8042 4.78841 36.8387 4.8512 36.861C4.91399 36.8834 4.98059 36.893 5.04714 36.8894C5.11369 36.8859 5.17887 36.8692 5.23891 36.8403C5.29894 36.8114 5.35265 36.7708 5.3969 36.7211C5.44116 36.6713 5.4751 36.6133 5.49675 36.5504C5.5184 36.4875 5.52733 36.4209 5.52304 36.3545C5.51665 36.2359 4.88128 24.4561 4.63147 21.514C4.38636 18.8856 4.9557 17.8054 5.31673 17.3952C5.42378 17.2641 5.5578 17.1575 5.70971 17.0826C5.86161 17.0077 6.02787 16.9663 6.19721 16.9611C6.27221 16.9604 6.34649 16.9757 6.41509 17.0059C6.4837 17.0362 6.54505 17.0807 6.59503 17.1365C7.55362 18.0204 8.26325 21.649 8.44721 26.6062C8.45117 26.7396 8.50807 26.866 8.60539 26.9576C8.70271 27.0492 8.83248 27.0984 8.96615 27.0944C9.09982 27.0904 9.22644 27.0336 9.31815 26.9365C9.40987 26.8393 9.45916 26.7098 9.45519 26.5764C9.32214 20.538 10.1255 14.3741 11.9185 14.2775C12.045 14.2706 12.1715 14.2932 12.2878 14.3434C12.4041 14.3937 12.5071 14.4703 12.5886 14.5671C14.1423 16.1979 13.8024 23.0452 13.5404 25.5458C13.533 25.6159 13.5405 25.6868 13.5624 25.7538C13.5842 25.8208 13.6199 25.8825 13.6672 25.9349C13.7173 25.9852 13.7769 26.0251 13.8426 26.0523C13.9082 26.0796 13.9785 26.0937 14.0496 26.0938C14.1207 26.094 14.1911 26.0801 14.2568 26.0531C14.3225 26.026 14.3823 25.9863 14.4326 25.9362C14.5197 25.8488 14.5716 25.7324 14.5784 25.6092C14.5944 25.3297 14.6261 25.0512 14.6732 24.7752C15.1577 22.2195 16.2707 20.4663 18.0733 19.4266C19.8156 18.4277 21.7035 18.2769 23.6844 18.9786C23.9031 19.0543 24.1046 19.1727 24.2771 19.3268C24.4496 19.4809 24.5898 19.6677 24.6893 19.8764C24.7889 20.085 24.8459 20.3113 24.8571 20.5422C24.8683 20.773 24.8334 21.0038 24.7545 21.221C24.629 21.5763 24.395 21.8832 24.0854 22.0986C24.0196 22.1443 23.9656 22.205 23.928 22.2757C23.8904 22.3464 23.8703 22.425 23.8692 22.505C23.809 22.4404 23.7328 22.3927 23.6484 22.3666C23.5639 22.3405 23.4741 22.337 23.3879 22.3564C23.0936 22.4163 22.7884 22.3927 22.5069 22.2883C21.3534 21.8858 20.4451 21.8642 19.8072 22.2249C19.0314 22.6732 18.4321 23.8181 18.1161 25.4516C18.0302 25.8962 18.0688 26.3559 18.2277 26.7801C18.3866 27.2043 18.6596 27.5765 19.0167 27.8558C19.3738 28.135 19.8011 28.3107 20.2517 28.3633C20.7023 28.4158 21.1587 28.3433 21.5706 28.1536C21.953 27.9857 22.2842 27.7201 22.5309 27.3837C22.7777 27.0472 22.9312 26.6518 22.9761 26.2373C23.0239 25.7683 23.0359 25.2963 23.0121 24.8255C22.9924 24.5202 23.0535 24.2151 23.1891 23.9408C23.3247 23.6665 23.5302 23.4325 23.7849 23.2623C23.8516 23.2168 23.9063 23.1559 23.9445 23.0848C23.9827 23.0136 24.0032 22.9345 24.0043 22.8538C24.0629 22.9168 24.1366 22.9637 24.2186 22.9901C24.3005 23.0166 24.3879 23.0216 24.4723 23.0047C24.5431 22.9917 24.6147 22.9836 24.6867 22.9803C25.1524 22.9541 25.6096 23.1138 25.9574 23.424C26.3053 23.7343 26.5155 24.1699 26.5417 24.6348C26.5751 25.3133 26.5589 25.9932 26.4933 26.6693C26.2413 28.7686 24.877 30.674 22.6504 32.0264C22.6376 32.0341 22.6253 32.0424 22.6134 32.0513C21.9207 32.5478 21.3584 33.204 20.9745 33.9642C20.5905 34.7244 20.3964 35.5661 20.4084 36.4173C20.409 36.5504 20.4624 36.6777 20.5568 36.7716C20.6513 36.8655 20.7791 36.9183 20.9124 36.9183ZM22.3873 23.3043C22.1033 23.7768 21.9699 24.3244 22.0049 24.8743C22.0257 25.2906 22.0154 25.7079 21.9742 26.1227C21.9508 26.3638 21.863 26.5942 21.7199 26.7899C21.5768 26.9855 21.3837 27.1391 21.1607 27.2348C20.9283 27.3426 20.6717 27.3881 20.4163 27.3668C20.1609 27.3455 19.9154 27.2583 19.704 27.1135C19.4711 26.9539 19.2902 26.7298 19.1837 26.4687C19.0772 26.2075 19.0498 25.9209 19.1049 25.6444C19.3569 24.3392 19.807 23.3881 20.3076 23.0988C20.6668 22.8952 21.3309 22.9444 22.1734 23.2389H22.1744C22.2457 23.2638 22.3167 23.2853 22.3878 23.3043H22.3873Z" fill="#202124"/>
<path d="M12.5623 33.4806C12.6586 33.4806 12.7529 33.4531 12.8341 33.4013C12.9152 33.3495 12.9798 33.2756 13.0201 33.1883C15.0705 28.7567 18.6401 28.4483 19.8133 28.3468C19.9464 28.3353 20.0696 28.2714 20.1556 28.1693C20.2416 28.0671 20.2834 27.935 20.2719 27.8021C20.2604 27.6691 20.1964 27.5462 20.094 27.4604C19.9917 27.3745 19.8594 27.3327 19.7262 27.3442C18.4091 27.4581 14.4007 27.8046 12.105 32.7665C12.0696 32.8431 12.054 32.9275 12.0597 33.0117C12.0655 33.0959 12.0924 33.1773 12.1379 33.2485C12.1835 33.3196 12.2462 33.3781 12.3204 33.4187C12.3945 33.4593 12.4777 33.4805 12.5623 33.4806Z" fill="#202124"/>
<path d="M45.0649 4.88669C44.2008 5.75096 43.2453 7.78357 42.771 9.19512C42.7064 9.3874 42.9321 9.5195 43.0755 9.37606L45.5649 6.88648C46.7649 8.48648 52.0649 12.4362 54.0649 13.7695C53.0649 12.7695 56.0649 7.88648 59.5649 10.3865C63.89 13.4758 60.5649 16.8865 60.5649 17.3865C60.5649 17.716 60.3387 19.1995 60.1658 20.271C60.1348 20.4631 60.3687 20.5828 60.5062 20.4452L60.5649 20.3865C61.7649 16.3865 64.8983 23.7695 66.5649 27.7695L94.5649 28.7695C95.3983 27.1029 97.6649 23.6865 100.065 22.8865C102.465 22.0865 105.065 24.2198 106.065 25.3865C115.565 36.8865 132.065 28.3865 129.565 16.3865C127.065 4.38648 115.565 3.88648 110.565 6.88673C105.565 9.88699 106.565 10.8865 102.565 12.8865C99.3649 14.4865 98.5649 10.6367 94.0649 6.88673C85.0649 -0.613266 80.5649 0.769531 76.5649 1.88669C72.2041 3.10462 67.5649 8.88648 64.0649 8.88648C60.5649 8.88648 57.5649 1.88648 52.5649 1.88648C49.0294 1.88648 46.5649 3.38648 45.0649 4.88669Z" fill="#3C4043" stroke="#202124"/>
<path d="M33.5409 94.6417C33.1942 93.1744 32.3134 91.8879 31.0695 91.0324C29.8256 90.1768 28.3074 89.8132 26.8099 90.0122C26.4304 90.0621 26.0445 90.0147 25.6885 89.8745C25.3325 89.7342 25.0182 89.5058 24.7752 89.2108C24.6591 89.0704 24.5405 88.9446 24.4359 88.8336L24.4207 88.8174C24.2276 88.6213 24.0214 88.4384 23.8035 88.27C23.3374 88.8206 22.8835 89.3816 22.4053 89.9227C22.57 90.0426 22.7251 90.1751 22.8693 90.3191C22.9535 90.4086 23.0335 90.4929 23.1091 90.5846C23.5843 91.1619 24.1991 91.6087 24.8955 91.8827C25.5919 92.1568 26.3468 92.2492 27.0889 92.151C28.0911 92.0197 29.1056 92.2775 29.9229 92.8711C30.7402 93.4646 31.298 94.3487 31.481 95.3408C31.664 96.3329 31.4584 97.3573 30.9065 98.2024C30.3546 99.0476 29.4986 99.649 28.5152 99.8825C27.8373 100.045 27.2075 100.365 26.6774 100.816C26.1472 101.268 25.7318 101.839 25.465 102.481C25.1943 103.137 24.7509 103.708 24.1818 104.133C23.6127 104.559 22.939 104.822 22.2319 104.897C21.5249 104.971 20.8108 104.854 20.1653 104.556C19.5198 104.259 18.9668 103.793 18.5649 103.208C18.636 104.285 18.7963 105.355 19.0443 106.407C19.9062 106.849 20.8615 107.079 21.8306 107.079C23.0387 107.078 24.2194 106.719 25.2223 106.047C26.2253 105.375 27.0052 104.42 27.4627 103.304C27.5987 102.977 27.8103 102.687 28.0802 102.457C28.3502 102.227 28.6708 102.064 29.0159 101.981C30.5904 101.605 31.9512 100.621 32.7995 99.2454C33.6479 97.8694 33.9145 96.2137 33.5409 94.6417Z" fill="#F1E9FB"/>
<path d="M46.4249 124.523C46.5774 124.476 46.7298 124.426 46.8836 124.372C48.1675 123.929 49.2641 123.067 49.9967 121.924C50.0545 121.037 50.1168 120.151 50.1943 119.265C50.0853 118.078 49.9071 116.894 49.8403 115.703C49.8285 115.533 49.8577 115.362 49.9256 115.205C49.1723 114.091 48.0736 113.256 46.7992 112.828C45.5249 112.4 44.1459 112.403 42.8754 112.837L42.8741 112.839C42.8628 112.842 42.852 112.846 42.8408 112.849C42.471 112.975 42.0753 113.005 41.6902 112.937C41.3052 112.869 40.9433 112.706 40.6378 112.461C39.4349 111.459 37.8937 110.956 36.3327 111.057C34.7717 111.158 33.3103 111.854 32.2507 113.003C31.191 114.151 30.6141 115.664 30.6393 117.228C30.6644 118.792 31.2896 120.288 32.3857 121.406C32.6341 121.66 32.819 121.969 32.9253 122.307C33.0316 122.646 33.0563 123.005 32.9974 123.354C32.7436 124.888 33.0856 126.462 33.9535 127.754C34.8215 129.047 36.1498 129.96 37.6668 130.307C39.1837 130.654 40.7748 130.408 42.1145 129.621C43.4541 128.833 44.4413 127.563 44.8739 126.07C44.9778 125.704 45.1733 125.37 45.4422 125.1C45.711 124.83 46.0442 124.633 46.4105 124.528L46.4249 124.523ZM46.167 122.334C46.0407 122.379 45.9181 122.419 45.7954 122.457C45.081 122.663 44.4313 123.048 43.907 123.574C43.3828 124.101 43.0013 124.753 42.7982 125.468C42.5181 126.431 41.8803 127.251 41.0152 127.759C40.1501 128.267 39.123 128.425 38.1436 128.201C37.1642 127.977 36.3066 127.388 35.7458 126.554C35.1849 125.72 34.9633 124.704 35.1262 123.714C35.2408 123.029 35.1918 122.326 34.983 121.662C34.7743 120.999 34.4118 120.393 33.9251 119.896C33.2168 119.172 32.8135 118.204 32.7988 117.193C32.7841 116.181 33.1591 115.204 33.8461 114.462C34.5332 113.721 35.4796 113.273 36.4893 113.211C37.4991 113.149 38.4948 113.478 39.2702 114.129C39.856 114.604 40.5516 114.923 41.2927 115.058C42.0338 115.193 42.7966 115.139 43.5108 114.902L43.5194 114.9C43.5347 114.895 43.5498 114.89 43.5649 114.885C44.0537 114.715 44.5715 114.643 45.0885 114.674C45.6055 114.704 46.1118 114.836 46.5782 115.061C47.0447 115.287 47.4624 115.603 47.8073 115.99C48.1523 116.376 48.4177 116.827 48.5886 117.316C48.7594 117.806 48.8323 118.323 48.8031 118.84C48.7739 119.357 48.6431 119.863 48.4182 120.329C48.1934 120.795 47.8788 121.212 47.4925 121.556C47.1063 121.9 46.6558 122.164 46.167 122.334Z" fill="#F1E9FB"/>
<path d="M51.4249 85.523C51.5774 85.4761 51.7298 85.4264 51.8836 85.3723C53.1675 84.9292 54.2641 84.0668 54.9967 82.9238C55.0545 82.037 55.1168 81.1507 55.1943 80.2654C55.0853 79.0777 54.9071 77.8938 54.8403 76.7033C54.8285 76.5326 54.8577 76.3617 54.9256 76.2049C54.1723 75.091 53.0736 74.2556 51.7992 73.8277C50.5249 73.3997 49.1459 73.4032 47.8754 73.8375L47.8741 73.8389C47.8628 73.8423 47.852 73.8458 47.8408 73.8493C47.471 73.9748 47.0753 74.005 46.6902 73.9373C46.3052 73.8695 45.9433 73.7059 45.6378 73.4615C44.4349 72.4589 42.8937 71.956 41.3327 72.0568C39.7717 72.1575 38.3103 72.8542 37.2507 74.0028C36.191 75.1513 35.6141 76.664 35.6393 78.228C35.6644 79.792 36.2896 81.2878 37.3857 82.4062C37.6341 82.6599 37.819 82.9687 37.9253 83.3073C38.0316 83.6459 38.0563 84.0046 37.9974 84.3542C37.7436 85.8881 38.0856 87.4621 38.9535 88.7544C39.8215 90.0467 41.1498 90.9597 42.6668 91.3066C44.1837 91.6535 45.7748 91.4081 47.1145 90.6206C48.4541 89.8331 49.4413 88.563 49.8739 87.0701C49.9778 86.7035 50.1733 86.3696 50.4422 86.0998C50.711 85.8301 51.0442 85.6333 51.4105 85.5282L51.4249 85.523ZM51.167 83.3343C51.0407 83.3789 50.9181 83.4191 50.7954 83.4566C50.081 83.6631 49.4313 84.0477 48.907 84.5744C48.3828 85.1011 48.0013 85.7526 47.7982 86.4678C47.5181 87.4313 46.8803 88.2509 46.0152 88.7589C45.1501 89.267 44.123 89.4252 43.1436 89.2013C42.1642 88.9774 41.3066 88.3883 40.7458 87.5543C40.1849 86.7203 39.9633 85.7044 40.1262 84.714C40.2408 84.0286 40.1918 83.3255 39.983 82.662C39.7743 81.9985 39.4118 81.3934 38.9251 80.8961C38.2168 80.1723 37.8135 79.2043 37.7988 78.1928C37.7841 77.1813 38.1591 76.2037 38.8461 75.4625C39.5332 74.7212 40.4796 74.2732 41.4893 74.2112C42.4991 74.1492 43.4948 74.4779 44.2702 75.1293C44.856 75.6036 45.5516 75.923 46.2927 76.058C47.0338 76.1931 47.7966 76.1395 48.5108 75.9021L48.5194 75.8997C48.5347 75.8951 48.5498 75.8902 48.5649 75.885C49.0537 75.7152 49.5715 75.6433 50.0885 75.6736C50.6055 75.7039 51.1118 75.8357 51.5782 76.0615C52.0447 76.2873 52.4624 76.6026 52.8073 76.9895C53.1523 77.3764 53.4177 77.8273 53.5886 78.3165C53.7594 78.8056 53.8323 79.3234 53.8031 79.8403C53.7739 80.3571 53.6431 80.863 53.4182 81.329C53.1934 81.7949 52.8788 82.2118 52.4925 82.5559C52.1063 82.9 51.6558 83.1645 51.167 83.3343Z" fill="#F1E9FB"/>
<path d="M92.4249 98.523C92.5774 98.4761 92.7298 98.4264 92.8836 98.3723C94.1675 97.9292 95.2641 97.0668 95.9967 95.9238C96.0545 95.037 96.1168 94.1507 96.1943 93.2654C96.0853 92.0777 95.9071 90.8938 95.8403 89.7033C95.8285 89.5326 95.8577 89.3617 95.9256 89.2049C95.1723 88.091 94.0736 87.2556 92.7992 86.8277C91.5249 86.3997 90.1459 86.4032 88.8754 86.8375L88.8741 86.8389C88.8628 86.8423 88.852 86.8458 88.8408 86.8493C88.471 86.9748 88.0753 87.005 87.6902 86.9373C87.3052 86.8695 86.9433 86.7059 86.6378 86.4615C85.4349 85.4589 83.8937 84.956 82.3327 85.0568C80.7717 85.1575 79.3103 85.8542 78.2507 87.0028C77.191 88.1513 76.6141 89.664 76.6393 91.228C76.6644 92.792 77.2896 94.2878 78.3857 95.4062C78.6341 95.6599 78.819 95.9687 78.9253 96.3073C79.0316 96.6459 79.0563 97.0046 78.9974 97.3542C78.7436 98.8881 79.0856 100.462 79.9535 101.754C80.8215 103.047 82.1498 103.96 83.6668 104.307C85.1837 104.654 86.7748 104.408 88.1145 103.621C89.4541 102.833 90.4413 101.563 90.8739 100.07C90.9778 99.7035 91.1733 99.3696 91.4422 99.0998C91.711 98.8301 92.0442 98.6333 92.4105 98.5282L92.4249 98.523ZM92.167 96.3343C92.0407 96.3789 91.9181 96.4191 91.7954 96.4566C91.081 96.6631 90.4313 97.0477 89.907 97.5744C89.3828 98.1011 89.0013 98.7526 88.7982 99.4678C88.5181 100.431 87.8803 101.251 87.0152 101.759C86.1501 102.267 85.123 102.425 84.1436 102.201C83.1642 101.977 82.3066 101.388 81.7458 100.554C81.1849 99.7203 80.9633 98.7044 81.1262 97.714C81.2408 97.0286 81.1918 96.3255 80.983 95.662C80.7743 94.9985 80.4118 94.3934 79.9251 93.8961C79.2168 93.1723 78.8135 92.2043 78.7988 91.1928C78.7841 90.1813 79.1591 89.2037 79.8461 88.4625C80.5332 87.7212 81.4796 87.2732 82.4893 87.2112C83.4991 87.1492 84.4948 87.4779 85.2702 88.1293C85.856 88.6036 86.5516 88.923 87.2927 89.058C88.0338 89.1931 88.7966 89.1395 89.5108 88.9021L89.5194 88.8997C89.5347 88.8951 89.5498 88.8902 89.5649 88.885C90.0537 88.7152 90.5715 88.6433 91.0885 88.6736C91.6055 88.7039 92.1118 88.8357 92.5782 89.0615C93.0447 89.2873 93.4624 89.6026 93.8073 89.9895C94.1523 90.3764 94.4177 90.8273 94.5886 91.3165C94.7594 91.8056 94.8323 92.3234 94.8031 92.8403C94.7739 93.3571 94.6431 93.863 94.4182 94.329C94.1934 94.7949 93.8788 95.2118 93.4925 95.5559C93.1063 95.9 92.6558 96.1645 92.167 96.3343Z" fill="#F1E9FB"/>
<path d="M76.4249 71.523C76.5774 71.4761 76.7298 71.4264 76.8836 71.3723C78.1675 70.9292 79.2641 70.0668 79.9967 68.9238C80.0545 68.037 80.1168 67.1507 80.1943 66.2654C80.0853 65.0777 79.9071 63.8938 79.8403 62.7033C79.8285 62.5326 79.8577 62.3617 79.9256 62.2049C79.1723 61.091 78.0736 60.2556 76.7992 59.8277C75.5249 59.3997 74.1459 59.4032 72.8754 59.8375L72.8741 59.8389C72.8628 59.8423 72.852 59.8458 72.8408 59.8493C72.471 59.9748 72.0753 60.005 71.6902 59.9373C71.3052 59.8695 70.9433 59.7059 70.6378 59.4615C69.4349 58.4589 67.8937 57.956 66.3327 58.0568C64.7717 58.1575 63.3103 58.8542 62.2507 60.0028C61.191 61.1513 60.6141 62.664 60.6393 64.228C60.6644 65.792 61.2896 67.2878 62.3857 68.4062C62.6341 68.6599 62.819 68.9687 62.9253 69.3073C63.0316 69.6459 63.0563 70.0046 62.9974 70.3542C62.7436 71.8881 63.0856 73.4621 63.9535 74.7544C64.8215 76.0467 66.1498 76.9597 67.6668 77.3066C69.1837 77.6535 70.7748 77.4081 72.1145 76.6206C73.4541 75.8331 74.4413 74.563 74.8739 73.0701C74.9778 72.7035 75.1733 72.3696 75.4422 72.0998C75.711 71.8301 76.0442 71.6333 76.4105 71.5282L76.4249 71.523ZM76.167 69.3343C76.0407 69.3789 75.9181 69.4191 75.7954 69.4566C75.081 69.6631 74.4313 70.0477 73.907 70.5744C73.3828 71.1011 73.0013 71.7526 72.7982 72.4678C72.5181 73.4313 71.8803 74.2509 71.0152 74.7589C70.1501 75.267 69.123 75.4252 68.1436 75.2013C67.1642 74.9774 66.3066 74.3883 65.7458 73.5543C65.1849 72.7203 64.9633 71.7044 65.1262 70.714C65.2408 70.0286 65.1918 69.3255 64.983 68.662C64.7743 67.9985 64.4118 67.3934 63.9251 66.8961C63.2168 66.1723 62.8135 65.2043 62.7988 64.1928C62.7841 63.1813 63.1591 62.2037 63.8461 61.4625C64.5332 60.7212 65.4796 60.2732 66.4893 60.2112C67.4991 60.1492 68.4948 60.4779 69.2702 61.1293C69.856 61.6036 70.5516 61.923 71.2927 62.058C72.0338 62.1931 72.7966 62.1395 73.5108 61.9021L73.5194 61.8997C73.5347 61.8951 73.5498 61.8902 73.5649 61.885C74.0537 61.7152 74.5715 61.6433 75.0885 61.6736C75.6055 61.7039 76.1118 61.8357 76.5782 62.0615C77.0447 62.2873 77.4624 62.6026 77.8073 62.9895C78.1523 63.3764 78.4177 63.8273 78.5886 64.3165C78.7594 64.8056 78.8323 65.3234 78.8031 65.8403C78.7739 66.3571 78.6431 66.863 78.4182 67.329C78.1934 67.7949 77.8788 68.2118 77.4925 68.5559C77.1063 68.9 76.6558 69.1645 76.167 69.3343Z" fill="#F1E9FB"/>
<path d="M30.2428 138.736C29.8851 138.602 29.5676 138.38 29.3203 138.089C29.0729 137.798 28.904 137.45 28.8294 137.076C28.7955 136.907 28.7542 136.736 28.7071 136.567C28.7038 136.556 28.7004 136.546 28.6971 136.534C28.3403 135.402 27.6602 134.399 26.7404 133.648C25.8205 132.897 24.7009 132.43 23.5189 132.304C22.3369 132.179 21.1438 132.4 20.0862 132.942C19.0286 133.483 18.1523 134.321 17.5649 135.352C18.108 135.912 18.6317 136.489 19.1497 137.071C19.421 136.291 19.9315 135.615 20.6089 135.141C21.2863 134.666 22.0962 134.416 22.9239 134.426C23.7515 134.437 24.5549 134.707 25.2201 135.198C25.8854 135.69 26.3787 136.378 26.6302 137.165C26.6614 137.277 26.6884 137.39 26.7106 137.501V137.502C26.8567 138.235 27.1876 138.918 27.6721 139.487C28.1566 140.056 28.7786 140.492 29.4792 140.755C30.4275 141.11 31.2021 141.817 31.6427 142.727C32.0833 143.637 32.1559 144.682 31.8456 145.644C31.5353 146.607 30.8659 147.413 29.976 147.896C29.0862 148.379 28.0441 148.502 27.0659 148.239C27.0538 148.236 27.0415 148.234 27.0294 148.231C27.7678 148.936 28.4601 149.689 29.1521 150.441C30.4697 150.209 31.6743 149.551 32.5807 148.568C33.4871 147.586 34.0451 146.334 34.169 145.004C34.2929 143.674 33.9758 142.341 33.2664 141.209C32.557 140.077 31.4946 139.208 30.2426 138.737L30.2428 138.736Z" fill="#F1E9FB"/>
<path d="M109.161 122.047C108.808 121.903 108.498 121.672 108.259 121.375C108.02 121.079 107.861 120.727 107.796 120.352C107.768 120.183 107.733 120.013 107.686 119.828C107.385 118.669 106.748 117.624 105.854 116.825C104.961 116.025 103.851 115.506 102.664 115.334C101.476 115.161 100.264 115.342 99.1791 115.854C98.0942 116.365 97.1849 117.185 96.5649 118.211C96.8973 119.169 97.4398 120.042 97.8616 120.964C97.9541 120.047 98.3667 119.192 99.0274 118.547C99.688 117.903 100.555 117.511 101.476 117.439C102.397 117.368 103.314 117.622 104.066 118.157C104.818 118.692 105.358 119.474 105.592 120.366C105.622 120.485 105.645 120.596 105.663 120.705L105.665 120.716C105.791 121.451 106.102 122.143 106.57 122.725C107.038 123.306 107.646 123.76 108.338 124.042C109.275 124.425 110.027 125.153 110.441 126.075C110.854 126.997 110.897 128.042 110.56 128.994C110.223 129.946 109.532 130.733 108.63 131.191C107.729 131.649 106.685 131.744 105.715 131.455C105.045 131.261 104.338 131.227 103.652 131.357C102.966 131.486 102.32 131.776 101.767 132.201C101.751 132.214 101.734 132.224 101.718 132.236C101.904 132.954 102.148 133.655 102.449 134.332C102.671 134.204 102.885 134.063 103.089 133.908C103.371 133.69 103.7 133.542 104.05 133.475C104.4 133.409 104.761 133.425 105.104 133.524C106.605 133.969 108.22 133.821 109.615 133.112C111.01 132.402 112.079 131.184 112.599 129.71C113.12 128.237 113.054 126.619 112.414 125.193C111.774 123.767 110.609 122.641 109.16 122.047L109.161 122.047Z" fill="#F1E9FB"/>
<path d="M132.336 139.085C131.691 139.096 131.053 138.947 130.479 138.653C129.858 138.338 129.172 138.173 128.475 138.173C127.778 138.173 127.091 138.338 126.47 138.653C125.569 139.113 124.526 139.209 123.556 138.922C122.586 138.635 121.763 137.987 121.259 137.112C120.754 136.237 120.605 135.202 120.844 134.221C121.082 133.239 121.689 132.387 122.54 131.84C123.166 131.42 123.676 130.85 124.023 130.182C124.37 129.514 124.544 128.769 124.528 128.017V128.001C124.527 127.246 124.743 126.507 125.15 125.871C125.558 125.235 126.139 124.73 126.826 124.414C126.593 123.719 126.438 123 126.364 122.27C125.19 122.703 124.177 123.485 123.462 124.51C122.747 125.535 122.365 126.755 122.366 128.004V128.028C122.366 128.036 122.366 128.044 122.366 128.052C122.376 128.443 122.288 128.829 122.109 129.177C121.931 129.525 121.668 129.823 121.344 130.043C120.032 130.893 119.097 132.214 118.733 133.733C118.368 135.251 118.602 136.852 119.386 138.203C120.17 139.555 121.444 140.554 122.945 140.995C124.446 141.437 126.059 141.286 127.452 140.574C127.768 140.413 128.118 140.33 128.473 140.33C128.828 140.33 129.177 140.413 129.493 140.574C130.651 141.167 131.97 141.373 133.254 141.162C132.927 140.48 132.618 139.789 132.336 139.085Z" fill="#F1E9FB"/>
</svg>
