<svg width="40" height="40" viewBox="0 0 40 40" fill="none" xmlns="http://www.w3.org/2000/svg">
<path d="M30 19.1665C31.3807 19.1665 32.5 18.0472 32.5 16.6665C32.5 15.2858 31.3807 14.1665 30 14.1665C28.6193 14.1665 27.5 15.2858 27.5 16.6665C27.5 18.0472 28.6193 19.1665 30 19.1665Z" fill="#85B7FE"/>
<path d="M30 12.5C31.3807 12.5 32.5 11.3807 32.5 10C32.5 8.61929 31.3807 7.5 30 7.5C28.6193 7.5 27.5 8.61929 27.5 10C27.5 11.3807 28.6193 12.5 30 12.5Z" fill="#0D6EFD"/>
<path d="M30 32.5C31.3807 32.5 32.5 31.3807 32.5 30C32.5 28.6193 31.3807 27.5 30 27.5C28.6193 27.5 27.5 28.6193 27.5 30C27.5 31.3807 28.6193 32.5 30 32.5Z" fill="#85B7FE"/>
<path d="M30 25.8335C31.3807 25.8335 32.5 24.7142 32.5 23.3335C32.5 21.9528 31.3807 20.8335 30 20.8335C28.6193 20.8335 27.5 21.9528 27.5 23.3335C27.5 24.7142 28.6193 25.8335 30 25.8335Z" fill="#0D6EFD"/>
<path d="M23.3335 19.1665C24.7142 19.1665 25.8335 18.0472 25.8335 16.6665C25.8335 15.2858 24.7142 14.1665 23.3335 14.1665C21.9528 14.1665 20.8335 15.2858 20.8335 16.6665C20.8335 18.0472 21.9528 19.1665 23.3335 19.1665Z" fill="#0D6EFD"/>
<path d="M23.3335 12.5C24.7142 12.5 25.8335 11.3807 25.8335 10C25.8335 8.61929 24.7142 7.5 23.3335 7.5C21.9528 7.5 20.8335 8.61929 20.8335 10C20.8335 11.3807 21.9528 12.5 23.3335 12.5Z" fill="#85B7FE"/>
<path d="M23.3335 32.5C24.7142 32.5 25.8335 31.3807 25.8335 30C25.8335 28.6193 24.7142 27.5 23.3335 27.5C21.9528 27.5 20.8335 28.6193 20.8335 30C20.8335 31.3807 21.9528 32.5 23.3335 32.5Z" fill="#0D6EFD"/>
<path d="M23.3335 25.8335C24.7142 25.8335 25.8335 24.7142 25.8335 23.3335C25.8335 21.9528 24.7142 20.8335 23.3335 20.8335C21.9528 20.8335 20.8335 21.9528 20.8335 23.3335C20.8335 24.7142 21.9528 25.8335 23.3335 25.8335Z" fill="#85B7FE"/>
<path d="M16.6665 19.1665C18.0472 19.1665 19.1665 18.0472 19.1665 16.6665C19.1665 15.2858 18.0472 14.1665 16.6665 14.1665C15.2858 14.1665 14.1665 15.2858 14.1665 16.6665C14.1665 18.0472 15.2858 19.1665 16.6665 19.1665Z" fill="#85B7FE"/>
<path d="M16.6665 12.5C18.0472 12.5 19.1665 11.3807 19.1665 10C19.1665 8.61929 18.0472 7.5 16.6665 7.5C15.2858 7.5 14.1665 8.61929 14.1665 10C14.1665 11.3807 15.2858 12.5 16.6665 12.5Z" fill="#0D6EFD"/>
<path d="M16.6665 32.5C18.0472 32.5 19.1665 31.3807 19.1665 30C19.1665 28.6193 18.0472 27.5 16.6665 27.5C15.2858 27.5 14.1665 28.6193 14.1665 30C14.1665 31.3807 15.2858 32.5 16.6665 32.5Z" fill="#85B7FE"/>
<path d="M16.6665 25.8335C18.0472 25.8335 19.1665 24.7142 19.1665 23.3335C19.1665 21.9528 18.0472 20.8335 16.6665 20.8335C15.2858 20.8335 14.1665 21.9528 14.1665 23.3335C14.1665 24.7142 15.2858 25.8335 16.6665 25.8335Z" fill="#0D6EFD"/>
<path d="M10 19.1665C11.3807 19.1665 12.5 18.0472 12.5 16.6665C12.5 15.2858 11.3807 14.1665 10 14.1665C8.61929 14.1665 7.5 15.2858 7.5 16.6665C7.5 18.0472 8.61929 19.1665 10 19.1665Z" fill="#0D6EFD"/>
<path d="M10 12.5C11.3807 12.5 12.5 11.3807 12.5 10C12.5 8.61929 11.3807 7.5 10 7.5C8.61929 7.5 7.5 8.61929 7.5 10C7.5 11.3807 8.61929 12.5 10 12.5Z" fill="#85B7FE"/>
<path d="M10 32.5C11.3807 32.5 12.5 31.3807 12.5 30C12.5 28.6193 11.3807 27.5 10 27.5C8.61929 27.5 7.5 28.6193 7.5 30C7.5 31.3807 8.61929 32.5 10 32.5Z" fill="#0D6EFD"/>
<path d="M10 25.8335C11.3807 25.8335 12.5 24.7142 12.5 23.3335C12.5 21.9528 11.3807 20.8335 10 20.8335C8.61929 20.8335 7.5 21.9528 7.5 23.3335C7.5 24.7142 8.61929 25.8335 10 25.8335Z" fill="#85B7FE"/>
</svg>
