<svg width="16" height="16" viewBox="0 0 16 16" fill="none" xmlns="http://www.w3.org/2000/svg">
<path d="M5.69526 6.47437C5.69526 4.48186 7.67206 3.57438 9.12761 4.29465C10.047 4.74963 10.6076 5.8399 10.4232 6.73246C10.2861 7.39563 9.99929 7.78355 9.42064 8.25668L9.19742 8.43373C8.63243 8.87698 8.47376 9.10671 8.47376 9.63892C8.47376 9.89685 8.26468 10.1059 8.00675 10.1059C7.74883 10.1059 7.53974 9.89685 7.53974 9.63892C7.53974 8.8012 7.8206 8.35044 8.50337 7.79287L8.72365 7.61833C9.22562 7.22362 9.41718 6.98507 9.50847 6.5434C9.60526 6.0751 9.25908 5.40183 8.71335 5.13178C7.82816 4.69375 6.62928 5.24411 6.62928 6.47437C6.62928 6.73229 6.42019 6.94138 6.16227 6.94138C5.90434 6.94138 5.69526 6.73229 5.69526 6.47437Z" fill="#5F6368"/>
<path d="M8.61408 11.3814C8.61408 11.6958 8.35925 11.9506 8.04491 11.9506C7.73057 11.9506 7.47574 11.6958 7.47574 11.3814C7.47574 11.0671 7.73057 10.8123 8.04491 10.8123C8.35925 10.8123 8.61408 11.0671 8.61408 11.3814Z" fill="#5F6368"/>
<path fill-rule="evenodd" clip-rule="evenodd" d="M7.99978 0.888889C4.07242 0.888889 0.888672 4.07264 0.888672 8C0.888672 11.9274 4.07242 15.1111 7.99978 15.1111C11.9271 15.1111 15.1109 11.9274 15.1109 8C15.1109 4.07264 11.9271 0.888889 7.99978 0.888889ZM7.99978 1.94239C11.3453 1.94239 14.0574 4.65447 14.0574 8C14.0574 11.3455 11.3453 14.0576 7.99978 14.0576C4.65426 14.0576 1.94217 11.3455 1.94217 8C1.94217 4.65447 4.65426 1.94239 7.99978 1.94239Z" fill="#5F6368"/>
</svg>
