<svg width="18" height="18" viewBox="0 0 18 18" fill="none" xmlns="http://www.w3.org/2000/svg">
<path d="M8.14 2.64981V14.828C7.17693 14.4129 5.38312 13.9152 2.3 13.9005V1.22071C5.5268 1.24348 7.2782 2.05161 8.14 2.64981ZM17.42 3.6257C17.4707 3.70633 17.5 3.80174 17.5 3.90396V15.8965C17.5 16.1866 17.2659 16.4202 16.9763 16.4202H10.9913H10.7362L10.5865 16.6267C10.3617 16.9367 9.83787 17.5002 9 17.5002C8.16213 17.5002 7.63834 16.9367 7.41354 16.6267L7.26381 16.4202H7.00875H1.02375C0.73458 16.4202 0.5 16.1856 0.5 15.8965V3.90396C0.5 3.80174 0.529317 3.70633 0.58 3.6257V14.0402C0.58 14.9112 1.28901 15.6202 2.16 15.6202C6.19403 15.6202 7.69213 16.4854 7.93103 16.6432L7.98835 16.6923L8.00738 16.7086L8.02793 16.723C8.08673 16.7639 8.11225 16.7932 8.1592 16.8469C8.18845 16.8804 8.22602 16.9234 8.28514 16.9848C8.43164 17.1367 8.65329 17.3077 9.01125 17.3077C9.37272 17.3077 9.60802 17.1251 9.75667 16.9742C9.80507 16.925 9.8571 16.8653 9.89506 16.8218C9.90677 16.8083 9.91715 16.7964 9.92566 16.7869C9.97154 16.7352 10.0026 16.7042 10.0305 16.6821L10.0531 16.6642L10.0736 16.6438L10.0837 16.6337C10.3648 16.4535 11.8838 15.6202 15.84 15.6202C16.711 15.6202 17.42 14.9112 17.42 14.0402V3.6257ZM15.7 13.9005C12.6176 13.9152 10.8233 14.413 9.86 14.8281V2.64981C10.7218 2.05161 12.4732 1.24348 15.7 1.22071V13.9005Z" stroke="#121314"/>
</svg>
