<svg width="20" height="20" viewBox="0 0 20 20" fill="none" xmlns="http://www.w3.org/2000/svg">
<path d="M2.4 0.799805C2.17969 0.799805 2 0.979492 2 1.1998V15.5998C2 15.8217 2.17969 15.9998 2.4 15.9998C7.22344 15.9998 9.12969 17.0732 9.6 17.3998V2.6623C8.6125 1.89824 6.4875 0.799805 2.4 0.799805ZM17.6 0.799805C13.5125 0.799805 11.3875 1.89824 10.4 2.6623V17.3998C10.8703 17.0732 12.7781 15.9998 17.6 15.9998C17.8219 15.9998 18 15.8217 18 15.5998V1.1998C18 0.979492 17.8219 0.799805 17.6 0.799805ZM1.1375 3.1998C0.509375 3.1998 0 3.70918 0 4.3373V17.6623C0 18.2904 0.509375 18.7998 1.1375 18.7998H7.7875C8.07188 19.192 8.79844 19.9998 10 19.9998C11.2016 19.9998 11.9281 19.192 12.2125 18.7998H18.8625C19.4906 18.7998 20 18.292 20 17.6623V4.3373C20 3.70918 19.4906 3.1998 18.8625 3.1998H18.8V15.5998C18.8 16.2607 18.2609 16.7998 17.6 16.7998C12.9 16.7998 11.1516 17.8404 10.85 18.0498L10.8 18.0998C10.5219 18.3201 10.3938 18.6748 10.0125 18.6748C9.63125 18.6748 9.56719 18.3545 9.2375 18.1248L9.15 18.0498C8.84844 17.8404 7.10313 16.7998 2.4 16.7998C1.73906 16.7998 1.2 16.2607 1.2 15.5998V3.1998H1.1375Z" fill="white"/>
</svg>
