<svg width="12" height="13" viewBox="0 0 12 13" fill="none" xmlns="http://www.w3.org/2000/svg">
<path d="M4.84987 2.68797C4.61378 2.68797 4.42239 2.49658 4.42239 2.26049C4.42239 2.03751 4.59311 1.85441 4.81096 1.83475L4.84987 1.83301H7.27226C7.50836 1.83301 7.69975 2.0244 7.69975 2.26049C7.69975 2.48346 7.52903 2.66657 7.31117 2.68622L7.27226 2.68797H4.84987Z" fill="#5F6368"/>
<path d="M3.81679 4.00643C3.81679 4.24252 4.00818 4.43391 4.24427 4.43391H7.87786L7.91677 4.43216C8.13463 4.41251 8.30534 4.22941 8.30534 4.00643C8.30534 3.77034 8.11395 3.57895 7.87786 3.57895H4.24427L4.20537 3.5807C3.98751 3.60035 3.81679 3.78346 3.81679 4.00643Z" fill="#5F6368"/>
<path d="M3.81679 7.97805C3.81679 8.21414 4.00818 8.40553 4.24427 8.40553H7.87786L7.91677 8.40378C8.13463 8.38412 8.30534 8.20102 8.30534 7.97805C8.30534 7.74196 8.11395 7.55057 7.87786 7.55057H4.24427L4.20537 7.55231C3.98751 7.57197 3.81679 7.75507 3.81679 7.97805Z" fill="#5F6368"/>
<path fill-rule="evenodd" clip-rule="evenodd" d="M3.03308 11.1663H9.08906C9.65963 11.1663 10.1221 10.7039 10.1221 10.133V6.49997C10.1221 5.92901 9.65963 5.4666 9.08906 5.4666H3.03308C2.46251 5.4666 2 5.92901 2 6.49997V10.133C2 10.7039 2.46251 11.1663 3.03308 11.1663ZM9.08906 10.3114H3.03308C2.93465 10.3114 2.85496 10.2317 2.85496 10.133V6.49997C2.85496 6.40123 2.93465 6.32156 3.03308 6.32156H9.08906C9.18749 6.32156 9.26718 6.40123 9.26718 6.49997V10.133C9.26718 10.2317 9.18749 10.3114 9.08906 10.3114Z" fill="#5F6368"/>
</svg>
