<svg width="17" height="16" viewBox="0 0 17 16" fill="none" xmlns="http://www.w3.org/2000/svg">
<path d="M3.67725 2C2.85303 2 2.17725 2.67578 2.17725 3.5V11.5C2.17725 12.3242 2.85303 13 3.67725 13H5.17725V13.5C5.17725 14.3242 5.85303 15 6.67725 15H12.6772C13.5015 15 14.1772 14.3242 14.1772 13.5V5.5C14.1772 4.67578 13.5015 4 12.6772 4H11.1772V3.5C11.1772 2.67578 10.5015 2 9.67725 2H3.67725ZM3.67725 3H9.67725C9.9585 3 10.1772 3.21875 10.1772 3.5V11.5C10.1772 11.7812 9.9585 12 9.67725 12H3.67725C3.396 12 3.17725 11.7812 3.17725 11.5V3.5C3.17725 3.21875 3.396 3 3.67725 3ZM11.1772 5H12.6772C12.9585 5 13.1772 5.21875 13.1772 5.5V13.5C13.1772 13.7812 12.9585 14 12.6772 14H6.67725C6.396 14 6.17725 13.7812 6.17725 13.5V13H9.67725C10.5015 13 11.1772 12.3242 11.1772 11.5V5Z" fill="white"/>
</svg>
