<?xml version="1.0" encoding="UTF-8"?>
<svg width="96px" height="30px" viewBox="0 0 96 30" version="1.1" xmlns="http://www.w3.org/2000/svg" xmlns:xlink="http://www.w3.org/1999/xlink">
    <title>Group 8 Copy</title>
    <g id="product" stroke="none" stroke-width="1" fill="none" fill-rule="evenodd">
        <g id="Group-8-Copy" fill-rule="nonzero">
            <g id="Group-5" transform="translate(32.000000, 0.000000)">
                <path d="M3.25568182,13 L3.25568182,8.05681818 L8.09090909,8.05681818 L8.09090909,6.28977273 L3.25568182,6.28977273 L3.25568182,3.13068182 L8.60227273,3.13068182 L8.60227273,1.36363636 L1.14772727,1.36363636 L1.14772727,13 L3.25568182,13 Z M11.4602273,3.03409091 C11.7859848,3.03409091 12.0653409,2.92518939 12.2982955,2.70738636 C12.53125,2.48958333 12.6477273,2.22727273 12.6477273,1.92045455 C12.6477273,1.60984848 12.53125,1.34564394 12.2982955,1.12784091 C12.0653409,0.910037879 11.7859848,0.801136364 11.4602273,0.801136364 C11.1344697,0.801136364 10.8541667,0.910037879 10.6193182,1.12784091 C10.3844697,1.34564394 10.2670455,1.60984848 10.2670455,1.92045455 C10.2670455,2.22727273 10.3835227,2.48958333 10.6164773,2.70738636 C10.8494318,2.92518939 11.1306818,3.03409091 11.4602273,3.03409091 Z M12.4829545,13 L12.4829545,4.27272727 L10.4261364,4.27272727 L10.4261364,13 L12.4829545,13 Z M16.6534091,13 L16.6534091,7.88636364 C16.6534091,7.46590909 16.7320076,7.10795455 16.8892045,6.8125 C17.0464015,6.51704545 17.2642045,6.2907197 17.5426136,6.13352273 C17.8210227,5.97632576 18.1401515,5.89772727 18.5,5.89772727 C19.030303,5.89772727 19.4460227,6.0625 19.7471591,6.39204545 C20.0482955,6.72159091 20.1988636,7.1780303 20.1988636,7.76136364 L20.1988636,7.76136364 L20.1988636,13 L22.2556818,13 L22.2556818,7.44318182 C22.2594697,6.74621212 22.1373106,6.15340909 21.8892045,5.66477273 C21.6410985,5.17613636 21.2926136,4.8030303 20.84375,4.54545455 C20.3948864,4.28787879 19.8693182,4.15909091 19.2670455,4.15909091 C18.6155303,4.15909091 18.0691288,4.3030303 17.6278409,4.59090909 C17.186553,4.87878788 16.8655303,5.26704545 16.6647727,5.75568182 L16.6647727,5.75568182 L16.5625,5.75568182 L16.5625,4.27272727 L14.5965909,4.27272727 L14.5965909,13 L16.6534091,13 Z M27.5909091,13.1534091 C28.0909091,13.1534091 28.5056818,13.0700758 28.8352273,12.9034091 C29.1647727,12.7367424 29.4299242,12.5350379 29.6306818,12.2982955 C29.8314394,12.061553 29.9848485,11.8371212 30.0909091,11.625 L30.0909091,11.625 L30.2159091,11.625 L30.2159091,13 L32.2386364,13 L32.2386364,1.36363636 L30.1761364,1.36363636 L30.1761364,5.71590909 L30.0909091,5.71590909 C29.9848485,5.50378788 29.8352273,5.27746212 29.6420455,5.03693182 C29.4488636,4.79640152 29.1875,4.58996212 28.8579545,4.41761364 C28.5284091,4.24526515 28.1079545,4.15909091 27.5965909,4.15909091 C26.9261364,4.15909091 26.3181818,4.33049242 25.7727273,4.67329545 C25.2272727,5.01609848 24.7945076,5.5217803 24.4744318,6.19034091 C24.1543561,6.85890152 23.9943182,7.6780303 23.9943182,8.64772727 C23.9943182,9.60606061 24.1515152,10.4204545 24.4659091,11.0909091 C24.780303,11.7613636 25.2083333,12.2727273 25.75,12.625 C26.2916667,12.9772727 26.905303,13.1534091 27.5909091,13.1534091 Z M28.1647727,11.4659091 C27.7140152,11.4659091 27.3342803,11.34375 27.0255682,11.0994318 C26.7168561,10.8551136 26.4839015,10.5198864 26.3267045,10.09375 C26.1695076,9.66761364 26.0909091,9.18181818 26.0909091,8.63636364 C26.0909091,8.09469697 26.1685606,7.61363636 26.3238636,7.19318182 C26.4791667,6.77272727 26.7102273,6.44318182 27.0170455,6.20454545 C27.3238636,5.96590909 27.7064394,5.84659091 28.1647727,5.84659091 C28.6079545,5.84659091 28.9820076,5.96212121 29.2869318,6.19318182 C29.5918561,6.42424242 29.8229167,6.74810606 29.9801136,7.16477273 C30.1373106,7.58143939 30.2159091,8.0719697 30.2159091,8.63636364 C30.2159091,9.20075758 30.1363636,9.69507576 29.9772727,10.1193182 C29.8181818,10.5435606 29.5852273,10.874053 29.2784091,11.1107955 C28.9715909,11.3475379 28.6003788,11.4659091 28.1647727,11.4659091 Z M36.4943182,13 L36.4943182,1.36363636 L34.4375,1.36363636 L34.4375,13 L36.4943182,13 Z M39.8863636,16.2556818 C40.4242424,16.2556818 40.8873106,16.1676136 41.2755682,15.9914773 C41.6638258,15.8153409 41.9924242,15.5625 42.2613636,15.2329545 C42.530303,14.9034091 42.7462121,14.5113636 42.9090909,14.0568182 L42.9090909,14.0568182 L46.4147727,4.28409091 L44.2159091,4.27272727 L42.1988636,10.8636364 L42.1079545,10.8636364 L40.0965909,4.27272727 L37.9147727,4.27272727 L41.0795455,13.1818182 L40.9034091,13.6534091 C40.7064394,14.1344697 40.4554924,14.4176136 40.1505682,14.5028409 C39.8456439,14.5880682 39.469697,14.5662879 39.0227273,14.4375 L39.0227273,14.4375 L38.5454545,16.0340909 C38.6856061,16.094697 38.874053,16.1467803 39.1107955,16.1903409 C39.3475379,16.2339015 39.6060606,16.2556818 39.8863636,16.2556818 Z M49.1022727,13.125 C49.3257576,13.125 49.53125,13.0691288 49.71875,12.9573864 C49.90625,12.8456439 50.0577652,12.6950758 50.1732955,12.5056818 C50.2888258,12.3162879 50.3484848,12.1060606 50.3522727,11.875 C50.3484848,11.5340909 50.2225379,11.2424242 49.9744318,11 C49.7263258,10.7575758 49.4356061,10.6363636 49.1022727,10.6363636 C48.7575758,10.6363636 48.4621212,10.7575758 48.2159091,11 C47.969697,11.2424242 47.8484848,11.5340909 47.8522727,11.875 C47.8484848,12.2234848 47.969697,12.5189394 48.2159091,12.7613636 C48.4621212,13.0037879 48.7575758,13.125 49.1022727,13.125 Z M54.9943182,13.1761364 C55.4488636,13.1761364 55.8456439,13.1126894 56.1846591,12.9857955 C56.5236742,12.8589015 56.8058712,12.6903409 57.03125,12.4801136 C57.2566288,12.2698864 57.4318182,12.0435606 57.5568182,11.8011364 L57.5568182,11.8011364 L57.625,11.8011364 L57.625,13 L59.6022727,13 L59.6022727,7.15909091 C59.6022727,6.57954545 59.4971591,6.09659091 59.2869318,5.71022727 C59.0767045,5.32386364 58.7992424,5.01799242 58.4545455,4.79261364 C58.1098485,4.56723485 57.7291667,4.40530303 57.3125,4.30681818 C56.8958333,4.20833333 56.4772727,4.15909091 56.0568182,4.15909091 C55.4469697,4.15909091 54.8901515,4.24905303 54.3863636,4.42897727 C53.8825758,4.60890152 53.4564394,4.87784091 53.1079545,5.23579545 C52.7594697,5.59375 52.5094697,6.03787879 52.3579545,6.56818182 L52.3579545,6.56818182 L54.2784091,6.84090909 C54.3806818,6.54166667 54.5785985,6.28219697 54.8721591,6.0625 C55.1657197,5.84280303 55.5643939,5.73295455 56.0681818,5.73295455 C56.5454545,5.73295455 56.9109848,5.85037879 57.1647727,6.08522727 C57.4185606,6.32007576 57.5454545,6.65151515 57.5454545,7.07954545 L57.5454545,7.07954545 L57.5454545,7.11363636 C57.5454545,7.31060606 57.4725379,7.45549242 57.3267045,7.54829545 C57.1808712,7.64109848 56.9488636,7.7092803 56.6306818,7.75284091 C56.3125,7.79640152 55.8977273,7.84469697 55.3863636,7.89772727 C54.9621212,7.94318182 54.5520833,8.01609848 54.15625,8.11647727 C53.7604167,8.21685606 53.405303,8.36363636 53.0909091,8.55681818 C52.7765152,8.75 52.5284091,9.00757576 52.3465909,9.32954545 C52.1647727,9.65151515 52.0738636,10.0587121 52.0738636,10.5511364 C52.0738636,11.1231061 52.2017045,11.6041667 52.4573864,11.9943182 C52.7130682,12.3844697 53.061553,12.6789773 53.5028409,12.8778409 C53.9441288,13.0767045 54.4412879,13.1761364 54.9943182,13.1761364 Z M55.5284091,11.6647727 C55.1003788,11.6647727 54.7481061,11.5681818 54.4715909,11.375 C54.1950758,11.1818182 54.0568182,10.8958333 54.0568182,10.5170455 C54.0568182,10.2518939 54.1268939,10.0350379 54.2670455,9.86647727 C54.407197,9.69791667 54.5984848,9.56628788 54.8409091,9.47159091 C55.0833333,9.37689394 55.3579545,9.30871212 55.6647727,9.26704545 C55.8011364,9.24810606 55.9621212,9.22537879 56.1477273,9.19886364 C56.3333333,9.17234848 56.5208333,9.14204545 56.7102273,9.10795455 C56.8996212,9.07386364 57.0710227,9.03409091 57.2244318,8.98863636 C57.3778409,8.94318182 57.4867424,8.89393939 57.5511364,8.84090909 L57.5511364,8.84090909 L57.5511364,9.86931818 C57.5511364,10.1912879 57.46875,10.4886364 57.3039773,10.7613636 C57.1392045,11.0340909 56.905303,11.2528409 56.6022727,11.4176136 C56.2992424,11.5823864 55.9412879,11.6647727 55.5284091,11.6647727 Z M62.7102273,3.03409091 C63.0359848,3.03409091 63.3153409,2.92518939 63.5482955,2.70738636 C63.78125,2.48958333 63.8977273,2.22727273 63.8977273,1.92045455 C63.8977273,1.60984848 63.78125,1.34564394 63.5482955,1.12784091 C63.3153409,0.910037879 63.0359848,0.801136364 62.7102273,0.801136364 C62.3844697,0.801136364 62.1041667,0.910037879 61.8693182,1.12784091 C61.6344697,1.34564394 61.5170455,1.60984848 61.5170455,1.92045455 C61.5170455,2.22727273 61.6335227,2.48958333 61.8664773,2.70738636 C62.0994318,2.92518939 62.3806818,3.03409091 62.7102273,3.03409091 Z M63.7329545,13 L63.7329545,4.27272727 L61.6761364,4.27272727 L61.6761364,13 L63.7329545,13 Z" id="Findly.ai" fill="#FFFFFF"></path>
                <path d="M3.38068182,27.1136364 C3.83522727,27.1136364 4.23650568,26.9982244 4.58451705,26.7674006 C4.93252841,26.5365767 5.2047822,26.2098722 5.40127841,25.7872869 C5.59777462,25.3647017 5.69602273,24.8645833 5.69602273,24.2869318 C5.69602273,23.7140152 5.59777462,23.2168561 5.40127841,22.7954545 C5.2047822,22.374053 4.9313447,22.0485322 4.58096591,21.818892 C4.23058712,21.5892519 3.82575758,21.4744318 3.36647727,21.4744318 C3.01136364,21.4744318 2.73023201,21.5330256 2.52308239,21.6502131 C2.31593277,21.7674006 2.15731534,21.8999763 2.04723011,22.0479403 C1.93714489,22.1959044 1.85132576,22.3172348 1.78977273,22.4119318 L1.78977273,22.4119318 L1.71875,22.4119318 L1.71875,19.7272727 L0.880681818,19.7272727 L0.880681818,27 L1.69034091,27 L1.69034091,26.1619318 L1.78977273,26.1619318 C1.85132576,26.2613636 1.93892045,26.3862453 2.05255682,26.5365767 C2.16619318,26.6869081 2.32836174,26.8206676 2.5390625,26.9378551 C2.74976326,27.0550426 3.03030303,27.1136364 3.38068182,27.1136364 Z M3.26704545,26.3607955 C2.93087121,26.3607955 2.6467803,26.2726089 2.41477273,26.0962358 C2.18276515,25.9198627 2.00639205,25.6748343 1.88565341,25.3611506 C1.76491477,25.0474669 1.70454545,24.6846591 1.70454545,24.2727273 C1.70454545,23.8655303 1.76373106,23.5086411 1.88210227,23.2020597 C2.00047348,22.8954782 2.17566288,22.6563684 2.40767045,22.4847301 C2.63967803,22.3130919 2.92613636,22.2272727 3.26704545,22.2272727 C3.62215909,22.2272727 3.91749527,22.3178267 4.15305398,22.4989347 C4.38861269,22.6800426 4.5649858,22.925071 4.6821733,23.2340199 C4.7993608,23.5429688 4.85795455,23.8892045 4.85795455,24.2727273 C4.85795455,24.6609848 4.79817708,25.0131392 4.67862216,25.3291903 C4.55906723,25.6452415 4.38151042,25.8961884 4.1459517,26.0820312 C3.91039299,26.2678741 3.61742424,26.3607955 3.26704545,26.3607955 Z M7.51420455,29.0454545 C7.76751894,29.0454545 7.99538352,29.0004735 8.1977983,28.9105114 C8.40021307,28.8205492 8.57836174,28.6826468 8.73224432,28.496804 C8.88612689,28.3109612 9.01515152,28.077178 9.11931818,27.7954545 L9.11931818,27.7954545 L11.4417614,21.5596591 L10.5255682,21.5454545 L9.01988636,25.8920455 L8.96306818,25.8920455 L7.45738636,21.5454545 L6.54829545,21.5454545 L8.56534091,27.0284091 L8.40909091,27.4545455 C8.30729167,27.7315341 8.19543087,27.9321733 8.07350852,28.0564631 C7.95158617,28.1807528 7.8125,28.25 7.65625,28.2642045 C7.5,28.2784091 7.32007576,28.2594697 7.11647727,28.2073864 L7.11647727,28.2073864 L6.90340909,28.9460227 C6.94602273,28.9673295 7.02296402,28.9892282 7.13423295,29.0117188 C7.24550189,29.0342093 7.37215909,29.0454545 7.51420455,29.0454545 Z M16.7649148,27 L16.7649148,24.9332386 L17.5213068,24.0099432 L19.5134943,27 L21.352983,27 L18.6221591,22.9836648 L21.3210227,19.7272727 L19.477983,19.7272727 L16.8607955,22.9339489 L16.7649148,22.9339489 L16.7649148,19.7272727 L15.2272727,19.7272727 L15.2272727,27 L16.7649148,27 Z M24.5582234,27.1065341 C25.1098332,27.1065341 25.5862774,26.9887547 25.9875558,26.753196 C26.3888342,26.5176373 26.6983749,26.1885653 26.9161779,25.7659801 C27.133981,25.3433949 27.2428825,24.8527462 27.2428825,24.2940341 C27.2428825,23.7305871 27.133981,23.237571 26.9161779,22.8149858 C26.6983749,22.3924006 26.3888342,22.0633286 25.9875558,21.8277699 C25.5862774,21.5922112 25.1098332,21.4744318 24.5582234,21.4744318 C24.0066135,21.4744318 23.5301694,21.5922112 23.128891,21.8277699 C22.7276126,22.0633286 22.4180719,22.3924006 22.2002688,22.8149858 C21.9824658,23.237571 21.8735643,23.7305871 21.8735643,24.2940341 C21.8735643,24.8527462 21.9824658,25.3433949 22.2002688,25.7659801 C22.4180719,26.1885653 22.7276126,26.5176373 23.128891,26.753196 C23.5301694,26.9887547 24.0066135,27.1065341 24.5582234,27.1065341 Z M24.5653257,25.9346591 C24.3120113,25.9346591 24.0995349,25.8630445 23.9278967,25.7198153 C23.7562584,25.5765862 23.6272338,25.3806818 23.5408228,25.1321023 C23.4544118,24.8835227 23.4112063,24.6006155 23.4112063,24.2833807 C23.4112063,23.9661458 23.4544118,23.6832386 23.5408228,23.4346591 C23.6272338,23.1860795 23.7562584,22.9895833 23.9278967,22.8451705 C24.0995349,22.7007576 24.3120113,22.6285511 24.5653257,22.6285511 C24.8162726,22.6285511 25.0257897,22.7007576 25.1938768,22.8451705 C25.3619639,22.9895833 25.489213,23.1860795 25.5756239,23.4346591 C25.6620349,23.6832386 25.7052404,23.9661458 25.7052404,24.2833807 C25.7052404,24.6006155 25.6620349,24.8835227 25.5756239,25.1321023 C25.489213,25.3806818 25.3619639,25.5765862 25.1938768,25.7198153 C25.0257897,25.8630445 24.8162726,25.9346591 24.5653257,25.9346591 Z M29.7428755,27 L29.7428755,23.9140625 C29.7428755,23.6915246 29.7931833,23.4950284 29.8937988,23.3245739 C29.9944144,23.1541193 30.131725,23.0209517 30.3057306,22.925071 C30.4797363,22.8291903 30.6780081,22.78125 30.900546,22.78125 C31.0047127,22.78125 31.1195327,22.789536 31.2450062,22.806108 C31.3704797,22.8226799 31.4687278,22.8416193 31.5397505,22.8629261 L31.5397505,22.8629261 L31.5397505,21.5205966 C31.4734627,21.5040246 31.3965214,21.4910038 31.3089267,21.4815341 C31.221332,21.4720644 31.1396558,21.4673295 31.0638983,21.4673295 C30.7585005,21.4673295 30.4886142,21.5543324 30.2542392,21.7283381 C30.0198642,21.9023438 29.8529608,22.1586174 29.7535289,22.4971591 L29.7535289,22.4971591 L29.6967108,22.4971591 L29.6967108,21.5454545 L28.2300914,21.5454545 L28.2300914,27 L29.7428755,27 Z M34.8039402,27.1065341 C35.2537508,27.1065341 35.6508862,27.0372869 35.9953464,26.8987926 C36.3398066,26.7602983 36.6215301,26.5661695 36.8405169,26.3164062 C37.0595036,26.066643 37.2045083,25.7736742 37.2755311,25.4375 L37.2755311,25.4375 L35.8763833,25.3451705 C35.8243,25.4824811 35.7485424,25.5984848 35.6491106,25.6931818 C35.5496788,25.7878788 35.4301239,25.8589015 35.2904458,25.90625 C35.1507678,25.9535985 34.9968852,25.9772727 34.8287981,25.9772727 C34.5754837,25.9772727 34.356497,25.9240057 34.1718379,25.8174716 C33.9871788,25.7109375 33.8445415,25.5594223 33.743926,25.3629261 C33.6433104,25.1664299 33.5930027,24.9332386 33.5930027,24.6633523 L33.5930027,24.6633523 L33.593,24.66 L37.3074913,24.6598011 L37.3074913,24.2443182 C37.3074913,23.780303 37.2423871,23.3748816 37.1121788,23.028054 C36.9819705,22.6812263 36.8002707,22.3929924 36.5670794,22.1633523 C36.3338881,21.9337121 36.0616343,21.761482 35.750318,21.6466619 C35.4390017,21.5318419 35.1034193,21.4744318 34.7435708,21.4744318 C34.208533,21.4744318 33.7427422,21.592803 33.3461987,21.8295455 C32.9496551,22.0662879 32.6424818,22.3965436 32.4246788,22.8203125 C32.2068758,23.2440814 32.0979743,23.7365057 32.0979743,24.2975852 C32.0979743,24.8728693 32.2068758,25.3706203 32.4246788,25.7908381 C32.6424818,26.2110559 32.9532063,26.535393 33.3568521,26.7638494 C33.7604979,26.9923059 34.2428606,27.1065341 34.8039402,27.1065341 Z M33.603878,23.6141025 C33.6238532,23.45985 33.6711277,23.3165838 33.7457015,23.184304 C33.8451333,23.0079309 33.9830358,22.8670691 34.1594089,22.7617188 C34.335782,22.6563684 34.5387887,22.6036932 34.7684288,22.6036932 C34.9885993,22.6036932 35.1821362,22.6516335 35.3490396,22.7475142 C35.515943,22.8433949 35.6467432,22.9753788 35.7414402,23.1434659 C35.8361371,23.311553 35.8834856,23.5044981 35.8834856,23.7223011 L35.8834856,23.7223011 L33.596,23.723 L33.603878,23.6141025 Z M39.1796442,27.0923295 C39.3335267,27.0923295 39.4743885,27.0538589 39.6022294,26.9769176 C39.7300703,26.8999763 39.8336451,26.7969934 39.9129538,26.6679688 C39.9922625,26.5389441 40.0319169,26.3963068 40.0319169,26.2400568 C40.0319169,26.0080492 39.9466896,25.8091856 39.7762351,25.6434659 C39.6057805,25.4777462 39.4069169,25.3948864 39.1796442,25.3948864 C38.9452692,25.3948864 38.7446299,25.4777462 38.5777265,25.6434659 C38.4108231,25.8091856 38.3273714,26.0080492 38.3273714,26.2400568 C38.3273714,26.4744318 38.4108231,26.675071 38.5777265,26.8419744 C38.7446299,27.0088778 38.9452692,27.0923295 39.1796442,27.0923295 Z M42.8280726,27.102983 C43.097959,27.102983 43.3358851,27.0668797 43.541851,26.9946733 C43.747817,26.9224669 43.9241901,26.8218513 44.0709704,26.6928267 C44.2177507,26.5638021 44.3349382,26.4140625 44.4225329,26.243608 L44.4225329,26.243608 L44.4651465,26.243608 L44.4651465,27 L45.8998056,27 L45.8998056,23.3210227 C45.8998056,22.9966856 45.8370688,22.7179214 45.7115954,22.4847301 C45.5861219,22.2515388 45.4150755,22.0603693 45.1984562,21.9112216 C44.9818368,21.7620739 44.734441,21.6519886 44.4562687,21.5809659 C44.1780963,21.5099432 43.887495,21.4744318 43.5844647,21.4744318 C43.1488586,21.4744318 42.7659277,21.5401278 42.4356721,21.6715199 C42.1054164,21.8029119 41.8361219,21.9899384 41.6277885,22.2325994 C41.4194552,22.4752604 41.2797772,22.7623106 41.2087545,23.09375 L41.2087545,23.09375 L42.6079022,23.2073864 C42.6599855,23.0274621 42.7665196,22.8777225 42.9275045,22.7581676 C43.0884893,22.6386127 43.3051086,22.5788352 43.5773624,22.5788352 C43.8354116,22.5788352 44.0348671,22.6403883 44.1757289,22.7634943 C44.3165906,22.8866004 44.3870215,23.0606061 44.3870215,23.2855114 L44.3870215,23.2855114 L44.3870215,23.3068182 C44.3870215,23.422822 44.3432241,23.5104167 44.2556295,23.5696023 C44.1680348,23.6287879 44.027173,23.6731771 43.8330442,23.7027699 C43.6389154,23.7323627 43.3832336,23.7637311 43.0659988,23.796875 C42.7961124,23.8229167 42.538655,23.8678977 42.2936266,23.9318182 C42.0485982,23.9957386 41.8302033,24.0904356 41.638442,24.2159091 C41.4466806,24.3413826 41.2951654,24.5071023 41.1838965,24.7130682 C41.0726276,24.9190341 41.0169931,25.1735322 41.0169931,25.4765625 C41.0169931,25.836411 41.0957099,26.136482 41.2531437,26.3767756 C41.4105774,26.6170691 41.6254211,26.7981771 41.8976749,26.9200994 C42.1699287,27.0420218 42.4800613,27.102983 42.8280726,27.102983 Z M43.2613113,26.0589489 C43.0293037,26.0589489 42.8381342,26.00509 42.6878027,25.8973722 C42.5374713,25.7896544 42.4623056,25.6328125 42.4623056,25.4268466 C42.4623056,25.2848011 42.4990007,25.1658381 42.5723908,25.0699574 C42.645781,24.9740767 42.7487639,24.8977273 42.8813397,24.8409091 C43.0139154,24.7840909 43.1689817,24.742661 43.3465385,24.7166193 C43.4293984,24.7047822 43.5217279,24.6911695 43.6235272,24.6757812 C43.7253264,24.660393 43.8271257,24.6426373 43.9289249,24.6225142 C44.0307241,24.6023911 44.1224618,24.5799006 44.204138,24.5550426 C44.2858141,24.5301847 44.3503264,24.5023674 44.3976749,24.4715909 L44.3976749,24.4715909 L44.3976749,25.0504261 C44.3976749,25.2421875 44.3491427,25.4138258 44.2520783,25.5653409 C44.1550139,25.7168561 44.0212545,25.8370028 43.8507999,25.9257812 C43.6803454,26.0145597 43.4838491,26.0589489 43.2613113,26.0589489 Z M47.837299,20.8423295 C48.0622043,20.8423295 48.2545575,20.7671638 48.4143587,20.6168324 C48.5741598,20.4665009 48.6540604,20.2859848 48.6540604,20.0752841 C48.6540604,19.8669508 48.5741598,19.6876184 48.4143587,19.5372869 C48.2545575,19.3869555 48.0610206,19.3117898 47.8337479,19.3117898 C47.61121,19.3117898 47.4194486,19.3869555 47.2584638,19.5372869 C47.0974789,19.6876184 47.0169865,19.8669508 47.0169865,20.0752841 C47.0169865,20.2859848 47.0974789,20.4665009 47.2584638,20.6168324 C47.4194486,20.7671638 47.6123937,20.8423295 47.837299,20.8423295 Z M48.5865888,27 L48.5865888,21.5454545 L47.0738047,21.5454545 L47.0738047,27 L48.5865888,27 Z" id="byKore.ai" fill="#9299A4"></path>
            </g>
            <g id="Group-57-Copy" transform="translate(11.000000, 14.000000) rotate(-360.000000) translate(-11.000000, -14.000000) translate(0.000000, 3.000000)">
                <g id="icons8-search" transform="translate(11.000000, 11.000000) scale(-1, 1) translate(-11.000000, -11.000000) ">
                    <path d="M17.5768642,15.6341379 L15.6335884,17.5774138 L19.9586961,21.9025216 C20.0658621,22.0096875 20.2400754,22.0096875 20.3472414,21.9025216 L21.9014224,20.3483405 C22.0085884,20.2411746 22.0085884,20.0669612 21.9014224,19.9597953 L17.5768642,15.6341379 Z" id="Path" fill="#009DAB"></path>
                    <circle id="Oval" fill="#FFDC5C" cx="8.79310345" cy="8.79310345" r="8.79310345"></circle>
                </g>
            </g>
        </g>
    </g>
</svg>