<svg xmlns="http://www.w3.org/2000/svg" width="16" height="16" viewBox="0 0 16 16">
    <g fill="none" fill-rule="evenodd">
        <path fill="#D8D8D8" fill-opacity="0" d="M0 0H16V16H0z"/>
        <path fill="#26344A" d="M11.806 2c.718 0 1.3.581 1.3 1.3v9.4c0 .719-.582 1.3-1.3 1.3H3.967c-.718 0-1.3-.581-1.3-1.3V3.3c0-.719.582-1.3 1.3-1.3zm0 1.033H3.967c-.148 0-.267.12-.267.267v9.4c0 .148.12.267.267.267h7.839c.148 0 .267-.12.267-.267V3.3c0-.148-.12-.267-.267-.267zm-1.568 6.806c.285 0 .516.231.516.516 0 .27-.206.49-.469.515l-.047.002H5.535c-.285 0-.517-.232-.517-.517 0-.27.207-.49.47-.514l.047-.002h4.703zm0-2.352c.285 0 .516.231.516.517 0 .269-.206.49-.469.514l-.047.002H5.535c-.285 0-.517-.231-.517-.516 0-.27.207-.491.47-.515l.047-.002h4.703zM8.67 5.136c.285 0 .517.23.517.516 0 .27-.207.49-.47.514l-.047.002H5.535c-.285 0-.517-.23-.517-.516 0-.27.207-.49.47-.514l.047-.002H8.67z"/>
    </g>
</svg>
