<svg xmlns="http://www.w3.org/2000/svg" width="16" height="16" viewBox="0 0 16 16">
    <g fill="none" fill-rule="evenodd">
        <path fill="#D8D8D8" fill-opacity="0" d="M0 0H16V16H0z"/>
        <path fill="#26344A" d="M7.758 1.118l.037.034 1.853 1.851c.191.191.202.493.034.697l-.034.037L7.795 5.59c-.202.202-.53.202-.733 0-.19-.191-.202-.493-.034-.697l.034-.037.964-.964-.167.004c-2.682.114-4.821 2.324-4.821 5.031 0 2.781 2.256 5.036 5.04 5.036 2.782 0 5.039-2.255 5.039-5.036 0-.286.232-.518.519-.518.286 0 .518.232.518.518 0 3.354-2.721 6.074-6.077 6.074C4.722 15 2 12.28 2 8.926c0-3.338 2.696-6.048 6.03-6.073l-.968-.967c-.19-.19-.202-.493-.034-.697l.034-.037c.19-.19.493-.202.696-.034z"/>
    </g>
</svg>
