<svg width="16" height="16" viewBox="0 0 16 16" fill="none" xmlns="http://www.w3.org/2000/svg">
<rect width="16" height="16" fill="#D8D8D8" fill-opacity="0.01"/>
<path fill-rule="evenodd" clip-rule="evenodd" d="M7.29765 1.7998C4.26141 1.7998 1.80005 4.26774 1.80005 7.31209C1.80005 10.3564 4.26141 12.8244 7.29765 12.8244C8.62542 12.8244 9.84326 12.3524 10.7934 11.5667L13.3422 14.0909L13.3802 14.1252C13.5895 14.2962 13.898 14.2828 14.0916 14.0863C14.2973 13.8775 14.2952 13.5411 14.087 13.3349L11.5426 10.8151C12.3252 9.86273 12.7952 8.64244 12.7952 7.31209C12.7952 4.26774 10.3339 1.7998 7.29765 1.7998ZM7.29765 2.86241C9.74859 2.86241 11.7355 4.8546 11.7355 7.31209C11.7355 9.76957 9.74859 11.7618 7.29765 11.7618C4.84671 11.7618 2.85983 9.76957 2.85983 7.31209C2.85983 4.8546 4.84671 2.86241 7.29765 2.86241Z" fill="#BDC1C6"/>
</svg>
