<svg xmlns="http://www.w3.org/2000/svg" width="16" height="16" viewBox="0 0 16 16">
    <g fill="none" fill-rule="evenodd">
        <path fill="#D8D8D8" fill-opacity="0" d="M0 0H16V16H0z"/>
        <path fill="#26344A" d="M9.463.889c.25 0 .467.177.516.424l.081.408.253 1.23.04.019c.308.14.605.312.891.512l.051.037 1.263-.422.407-.126c.234-.073.487.025.61.237l.21.359 1.043 1.746.211.363c.128.219.082.497-.109.663l-.314.274-.942.802.01.065c.029.186.041.315.044.463V8c0 .173-.012.311-.044.52l-.01.064.947.807.31.27c.19.166.236.444.108.663l-.214.367-1.037 1.737-.212.364c-.124.213-.378.311-.612.238l-.417-.13-1.252-.419-.05.037c-.287.2-.584.371-.892.512l-.04.018-.252 1.228-.082.411c-.049.247-.265.424-.516.424H6.536c-.251 0-.468-.178-.516-.425l-.08-.407-.254-1.231-.04-.018c-.308-.14-.605-.312-.891-.512l-.052-.037-1.261.422-.407.127c-.235.074-.49-.026-.612-.239l-.207-.357-1.045-1.748-.21-.363c-.127-.218-.082-.496.108-.662l.314-.274.942-.803-.016-.105c-.024-.163-.035-.284-.038-.419V8c0-.138.01-.269.03-.422l.024-.162-.948-.807-.308-.27c-.19-.166-.235-.444-.109-.662l.214-.369 1.038-1.736.21-.363c.124-.212.378-.311.612-.238l.418.13 1.251.418.052-.037c.286-.2.583-.371.891-.512l.04-.018.253-1.227.08-.41c.05-.248.266-.426.517-.426zM9.03 1.943H6.97l-.308 1.494c-.033.16-.138.295-.283.367l-.045.02c-.424.161-.828.396-1.212.697-.14.11-.324.141-.492.085L3.123 4.1l-1.034 1.73 1.147.976c.128.109.196.272.184.439l-.006.05-.044.258c-.032.194-.046.322-.046.446 0 .12.01.225.042.417l.048.29c.03.183-.038.367-.178.486l-1.147.976 1.034 1.729 1.507-.504c.151-.05.316-.03.449.055l.043.03c.384.301.788.536 1.212.698.168.064.292.21.328.386l.307 1.494H9.03l.307-1.494c.033-.16.138-.295.283-.367l.045-.02c.424-.161.828-.396 1.212-.697.14-.11.324-.141.492-.085l1.507.504 1.033-1.73-1.146-.975c-.128-.109-.195-.272-.184-.438l.006-.05.054-.323c.02-.131.031-.22.034-.307L12.675 8c0-.114-.01-.213-.036-.382l-.054-.324c-.03-.182.037-.367.178-.487l1.146-.976-1.032-1.73-1.508.505c-.151.05-.316.03-.449-.055l-.043-.03c-.384-.301-.788-.536-1.212-.698-.168-.064-.292-.21-.328-.386L9.03 1.943zM8 5.595c1.33 0 2.408 1.079 2.408 2.408 0 1.33-1.079 2.408-2.408 2.408-1.33 0-2.408-1.078-2.408-2.408 0-1.33 1.079-2.408 2.408-2.408zm0 1.054c-.748 0-1.354.607-1.354 1.354 0 .747.606 1.354 1.354 1.354.748 0 1.354-.607 1.354-1.354 0-.747-.606-1.354-1.354-1.354z"/>
    </g>
</svg>
