<svg width="14" height="13" viewBox="0 0 14 13" fill="none" xmlns="http://www.w3.org/2000/svg">
<path d="M1.5 0C0.675781 0 0 0.675781 0 1.5V9.5C0 10.3242 0.675781 11 1.5 11H3V11.5C3 12.3242 3.67578 13 4.5 13H12.5C13.3242 13 14 12.3242 14 11.5V3.5C14 2.67578 13.3242 2 12.5 2H11V1.5C11 0.675781 10.3242 0 9.5 0H1.5ZM1.5 1H9.5C9.78125 1 10 1.21875 10 1.5V9.5C10 9.78125 9.78125 10 9.5 10H1.5C1.21875 10 1 9.78125 1 9.5V1.5C1 1.21875 1.21875 1 1.5 1ZM11 3H12.5C12.7812 3 13 3.21875 13 3.5V11.5C13 11.7812 12.7812 12 12.5 12H4.5C4.21875 12 4 11.7812 4 11.5V11H9.5C10.3242 11 11 10.3242 11 9.5V3Z" fill="black"/>
<path d="M3.5 7.50781V3.50781L7.5 5.5L3.5 7.50781Z" fill="black"/>
</svg>
