<svg width="14" height="13" viewBox="0 0 14 13" fill="none" xmlns="http://www.w3.org/2000/svg">
<path d="M6.99997 2.95516e-06C6.91608 -0.000285419 6.83347 0.0205359 6.75974 0.0605498L1.25974 3.06055C1.18065 3.10349 1.11461 3.16699 1.0686 3.24433C1.02258 3.32168 0.998291 3.41 0.998291 3.5C0.998291 3.59 1.02258 3.67833 1.0686 3.75568C1.11461 3.83302 1.18065 3.89651 1.25974 3.93946L3.2031 5L1.25974 6.06055C1.18065 6.10349 1.11461 6.16699 1.0686 6.24433C1.02258 6.32168 0.998291 6.41001 0.998291 6.5C0.998291 6.59 1.02258 6.67833 1.0686 6.75568C1.11461 6.83302 1.18065 6.89651 1.25974 6.93946L3.2031 8L1.25974 9.06055C1.18065 9.10349 1.11461 9.16699 1.0686 9.24433C1.02258 9.32168 0.998291 9.41 0.998291 9.5C0.998291 9.59 1.02258 9.67833 1.0686 9.75568C1.11461 9.83302 1.18065 9.89651 1.25974 9.93946L6.75974 12.9395C6.83338 12.9798 6.916 13.0009 6.99997 13.0009C7.08394 13.0009 7.16656 12.9798 7.24021 12.9395L12.7402 9.93946C12.8193 9.89651 12.8853 9.83302 12.9314 9.75568C12.9774 9.67833 13.0017 9.59 13.0017 9.5C13.0017 9.41 12.9774 9.32168 12.9314 9.24433C12.8853 9.16699 12.8193 9.10349 12.7402 9.06055L10.7968 8L12.7402 6.93946C12.8193 6.89651 12.8853 6.83302 12.9314 6.75568C12.9774 6.67833 13.0017 6.59 13.0017 6.5C13.0017 6.41001 12.9774 6.32168 12.9314 6.24433C12.8853 6.16699 12.8193 6.10349 12.7402 6.06055L10.7968 5L12.7402 3.93946C12.8193 3.89651 12.8853 3.83302 12.9314 3.75568C12.9774 3.67833 13.0017 3.59 13.0017 3.5C13.0017 3.41 12.9774 3.32168 12.9314 3.24433C12.8853 3.16699 12.8193 3.10349 12.7402 3.06055L7.24021 0.0605498C7.16648 0.0205359 7.08386 -0.000285419 6.99997 2.95516e-06ZM6.99997 1.07032L11.4551 3.5L9.50974 4.56055L6.99997 5.92969L2.5449 3.5L6.99997 1.07032ZM4.24997 5.57032L6.75974 6.93946C6.83338 6.9798 6.916 7.00094 6.99997 7.00094C7.08394 7.00094 7.16656 6.9798 7.24021 6.93946L9.74997 5.57032L11.4551 6.5L9.51169 7.56055L6.99997 8.92969L4.48435 7.5586L2.5449 6.5L4.24997 5.57032ZM4.24997 8.57032L6.75974 9.93946C6.83338 9.9798 6.916 10.0009 6.99997 10.0009C7.08394 10.0009 7.16656 9.9798 7.24021 9.93946L9.74997 8.57032L11.4551 9.5L6.99997 11.9297L2.5449 9.5L4.24997 8.57032Z" fill="#0D6EFD"/>
</svg>
