<svg width="14" height="13" viewBox="0 0 14 13" fill="none" xmlns="http://www.w3.org/2000/svg">
<path d="M1.58532 0C0.75708 0 0.0780029 0.675781 0.0780029 1.5V11.5C0.0780029 12.3242 0.75708 13 1.58532 13H11.6341C12.4623 13 13.1414 12.3242 13.1414 11.5V1.5C13.1414 0.675781 12.4623 0 11.6341 0H1.58532ZM1.58532 1H4.09752V4H1.08288V1.5C1.08288 1.21875 1.3027 1 1.58532 1ZM5.10239 1H8.11703V4H5.10239V1ZM9.12191 1H11.6341C11.9167 1 12.1365 1.21875 12.1365 1.5V4H9.12191V1ZM1.08288 5H4.09752V8H1.08288V5ZM5.10239 5H8.11703V8H5.10239V5ZM9.12191 5H12.1365V8H9.12191V5ZM1.08288 9H4.09752V12H1.58532C1.3027 12 1.08288 11.7812 1.08288 11.5V9ZM5.10239 9H8.11703V12H5.10239V9ZM9.12191 9H12.1365V11.5C12.1365 11.7812 11.9167 12 11.6341 12H9.12191V9Z" fill="#0D6EFD"/>
</svg>
