<svg width="14" height="13" viewBox="0 0 14 13" fill="none" xmlns="http://www.w3.org/2000/svg">
<path d="M1.58538 0C0.757141 0 0.078064 0.675781 0.078064 1.5V11.5C0.078064 12.3242 0.757141 13 1.58538 13H11.6342C12.4624 13 13.1415 12.3242 13.1415 11.5V1.5C13.1415 0.675781 12.4624 0 11.6342 0H1.58538ZM1.58538 1H4.09758V4H1.08294V1.5C1.08294 1.21875 1.30276 1 1.58538 1ZM5.10245 1H8.11709V4H5.10245V1ZM9.12197 1H11.6342C11.9168 1 12.1366 1.21875 12.1366 1.5V4H9.12197V1ZM1.08294 5H4.09758V8H1.08294V5ZM5.10245 5H8.11709V8H5.10245V5ZM9.12197 5H12.1366V8H9.12197V5ZM1.08294 9H4.09758V12H1.58538C1.30276 12 1.08294 11.7812 1.08294 11.5V9ZM5.10245 9H8.11709V12H5.10245V9ZM9.12197 9H12.1366V11.5C12.1366 11.7812 11.9168 12 11.6342 12H9.12197V9Z" fill="#202124"/>
</svg>
