<svg width="10" height="13" viewBox="0 0 10 13" fill="none" xmlns="http://www.w3.org/2000/svg">
<path d="M1.5 0C0.675781 0 0 0.675781 0 1.5V11.8099C0 11.9355 0.0200041 12.0621 0.0827946 12.1709C0.355592 12.6434 0.937182 13 1.5 13H9.5C9.77614 13 10 12.7761 10 12.5C10 12.2239 9.77614 12 9.5 12H1.5C1.21875 12 1 11.7812 1 11.5C1 11.2188 1.21875 11 1.5 11H9.5C9.77614 11 10 10.7761 10 10.5C10 10.2239 9.77614 10 9.5 10H1.5C1.21875 10 1 9.78125 1 9.5C1 9.21875 1.21875 9 1.5 9H9.5C9.77614 9 10 8.77614 10 8.5V0.5C10 0.223858 9.77614 0 9.5 0H1.5ZM1.5 1H8.5C8.77614 1 9 1.22386 9 1.5V7.5C9 7.77614 8.77614 8 8.5 8H1.5C1.32422 8 1.15625 8.03906 1 8.09375V1.5C1 1.21875 1.21875 1 1.5 1ZM2.5 3C2.22386 3 2 3.22386 2 3.5C2 3.77614 2.22386 4 2.5 4H7.5C7.77614 4 8 3.77614 8 3.5C8 3.22386 7.77614 3 7.5 3H2.5Z" fill="#202124"/>
</svg>
