<?xml version="1.0" encoding="UTF-8"?>
<svg width="13px" height="13px" viewBox="0 0 13 13" version="1.1" xmlns="http://www.w3.org/2000/svg" xmlns:xlink="http://www.w3.org/1999/xlink">
    <!-- Generator: Sketch 53.2 (72643) - https://sketchapp.com -->
    <title>ml</title>
    <desc>Created with Sketch.</desc>
    <g id="Page-1" stroke="none" stroke-width="1" fill="none" fill-rule="evenodd">
        <g id="ml" fill="#3C4043" fill-rule="nonzero">
            <path d="M10.7536,0.5 L1.42025,0.5 C0.683581,0.5 0.0869141,1.09667 0.0869141,1.83333 L0.0869141,11.1667 C0.0869141,11.9033 0.683581,12.5 1.42025,12.5 L10.7536,12.5 C11.4902,12.5 12.0869,11.9033 12.0869,11.1667 L12.0869,1.83333 C12.0869,1.09667 11.4902,0.5 10.7536,0.5 Z M10.7536,11.1667 L1.42025,11.1667 L1.42025,1.83333 L10.7536,1.83333 L10.7536,11.1667 Z" id="Shape"></path>
            <path d="M9.89166,9.36208 L8.28766,7.75808 C8.579,7.29608 8.75366,6.75341 8.75366,6.16675 C8.75366,4.51008 7.41033,3.16675 5.75366,3.16675 C4.097,3.16675 2.75366,4.51008 2.75366,6.16675 C2.75366,7.82341 4.097,9.16675 5.75366,9.16675 C6.34033,9.16675 6.883,8.99208 7.345,8.70075 L8.949,10.3047 L9.89166,9.36208 Z M5.75366,7.83342 C4.833,7.83342 4.087,7.08741 4.087,6.16675 C4.087,5.24608 4.833,4.50008 5.75366,4.50008 C6.67433,4.50008 7.42033,5.24608 7.42033,6.16675 C7.42033,7.08741 6.67433,7.83342 5.75366,7.83342 Z" id="Shape"></path>
            <path d="M0.753662,1.16675 L0.753662,11.8334 L11.4203,11.8334 L11.4203,1.16675 L0.753662,1.16675 Z M5.75366,8.50008 C4.465,8.50008 3.42033,7.45541 3.42033,6.16675 C3.42033,4.87808 4.465,3.83341 5.75366,3.83341 C7.04233,3.83341 8.087,4.87808 8.087,6.16675 C8.087,7.45541 7.04233,8.50008 5.75366,8.50008 Z" id="Shape" opacity="0.3"></path>
        </g>
    </g>
</svg>