<svg width="14" height="9" viewBox="0 0 14 9" fill="none" xmlns="http://www.w3.org/2000/svg">
<path d="M3.9375 0C2.73096 0 1.75 0.980957 1.75 2.1875C1.75 3.01465 2.21484 3.72559 2.8916 4.09473C1.23047 4.55957 0 6.06689 0 7.875V8.06996C0 8.30865 0.191317 8.50329 0.429972 8.5074C0.674506 8.51161 0.875 8.31453 0.875 8.06996V7.875C0.875 6.18652 2.24902 4.8125 3.9375 4.8125C5.04834 4.8125 6.07373 5.42773 6.61719 6.42236L7 7.12646L7.38281 6.42236C7.92627 5.42773 8.95166 4.8125 10.0625 4.8125C11.751 4.8125 13.125 6.18652 13.125 7.875V8.0825C13.125 8.32412 13.3209 8.52 13.5625 8.52C13.8041 8.52 14 8.32412 14 8.0825V7.875C14 6.06689 12.7695 4.55957 11.1084 4.09473C11.7852 3.72559 12.25 3.01465 12.25 2.1875C12.25 0.980957 11.269 0 10.0625 0C8.85596 0 7.875 0.980957 7.875 2.1875C7.875 3.00781 8.33643 3.71875 9.00635 4.09131C8.22021 4.31348 7.51611 4.7749 7 5.4209C6.48389 4.7749 5.77979 4.31348 4.99365 4.09131C5.66357 3.71875 6.125 3.00781 6.125 2.1875C6.125 0.980957 5.14404 0 3.9375 0ZM3.9375 0.875C4.66211 0.875 5.25 1.46289 5.25 2.1875C5.25 2.91211 4.66211 3.5 3.9375 3.5C3.21289 3.5 2.625 2.91211 2.625 2.1875C2.625 1.46289 3.21289 0.875 3.9375 0.875ZM10.0625 0.875C10.7871 0.875 11.375 1.46289 11.375 2.1875C11.375 2.91211 10.7871 3.5 10.0625 3.5C9.33789 3.5 8.75 2.91211 8.75 2.1875C8.75 1.46289 9.33789 0.875 10.0625 0.875Z" fill="#202124"/>
</svg>
