<svg width="14" height="13" viewBox="0 0 14 13" fill="none" xmlns="http://www.w3.org/2000/svg">
<path d="M2.59026 0C1.20855 0 0.0780651 1.125 0.0780651 2.5C0.0780651 3.875 1.20855 5 2.59026 5C3.97197 5 5.10246 3.875 5.10246 2.5C5.10246 1.125 3.97197 0 2.59026 0ZM7.61465 0C7.33595 0 7.11221 0.222656 7.11221 0.5V4.5C7.11221 4.77734 7.33595 5 7.61465 5H11.6342C11.9129 5 12.1366 4.77734 12.1366 4.5V0.5C12.1366 0.222656 11.9129 0 11.6342 0H7.61465ZM2.59026 1C3.43028 1 4.09758 1.66406 4.09758 2.5C4.09758 3.33594 3.43028 4 2.59026 4C1.75025 4 1.08294 3.33594 1.08294 2.5C1.08294 1.66406 1.75025 1 2.59026 1ZM8.11709 1H11.1317V4H8.11709V1ZM3.10055 7C2.92391 6.99609 2.75905 7.08594 2.66877 7.23438L0.156571 11.2344C0.0584388 11.3867 0.0505877 11.582 0.14087 11.7422C0.231152 11.9023 0.396015 12 0.580504 12H5.60489C5.78938 12 5.95425 11.9023 6.04453 11.7422C6.13481 11.582 6.12696 11.3867 6.02883 11.2344L3.51663 7.23438C3.42635 7.08984 3.26934 7 3.10055 7ZM8.57242 7C8.35261 7 8.16027 7.14063 8.09354 7.35156L7.13576 10.4414C7.07296 10.6406 7.14361 10.8594 7.30848 10.9883L9.8246 12.8945C10.0012 13.0312 10.2525 13.0312 10.4291 12.8945L12.9413 10.9883C13.1101 10.8594 13.1807 10.6406 13.1219 10.4414L12.1602 7.35156C12.0934 7.14063 11.9011 7 11.6813 7H8.57242ZM8.94533 8H11.3084L12.0581 10.4062L10.1268 11.875L8.1956 10.4062L8.94533 8ZM3.0927 8.44141L4.69815 11H1.48725L3.0927 8.44141Z" fill="black"/>
</svg>
