<svg width="13" height="13" viewBox="0 0 13 13" fill="none" xmlns="http://www.w3.org/2000/svg">
<path d="M6.5 0C10.0859 0 13 2.91406 13 6.5C13 10.0859 10.0859 13 6.5 13C2.91406 13 0 10.0859 0 6.5C0 6.22386 0.223858 6 0.5 6C0.776142 6 1 6.22386 1 6.5C1 9.54297 3.45703 12 6.5 12C9.54297 12 12 9.54297 12 6.5C12 3.45703 9.54297 1 6.5 1C4.85938 1 3.40234 1.72266 2.39453 2.85938L3.02302 3.48787C3.21201 3.67686 3.07816 4 2.81089 4H0.3C0.134315 4 0 3.86569 0 3.7V1.18911C0 0.921837 0.323143 0.787987 0.512132 0.976976L1.6875 2.15234C2.87891 0.835938 4.58984 0 6.5 0ZM6.5 2C6.77614 2 7 2.22386 7 2.5V6H8.5C8.77614 6 9 6.22386 9 6.5C9 6.77614 8.77614 7 8.5 7H6.27273C6.1221 7 6 6.8779 6 6.72727V2.5C6 2.22386 6.22386 2 6.5 2Z" fill="#0D6EFD"/>
</svg>
