<svg width="32" height="32" viewBox="0 0 32 32" fill="none" xmlns="http://www.w3.org/2000/svg">
<path d="M32 8.53333V29.8667C32 30.4325 31.7752 30.9751 31.3752 31.3752C30.9751 31.7752 30.4325 32 29.8667 32H8.53333C6.27015 32 4.09967 31.101 2.49936 29.5006C0.899045 27.9003 0 25.7298 0 23.4667V8.53333C0 6.27015 0.899045 4.09967 2.49936 2.49936C4.09967 0.899045 6.27015 0 8.53333 0L23.4667 0C25.7298 0 27.9003 0.899045 29.5006 2.49936C31.101 4.09967 32 6.27015 32 8.53333Z" fill="#FAB900"/>
<path d="M24.5333 22.4L21.1733 19.04C21.9794 17.8225 22.4063 16.3934 22.4 14.9333C22.4 13.4565 21.9621 12.0129 21.1417 10.7851C20.3212 9.55717 19.1551 8.60015 17.7907 8.03502C16.4264 7.46988 14.9251 7.32202 13.4767 7.61012C12.0283 7.89822 10.6978 8.60935 9.65361 9.65359C8.60938 10.6978 7.89825 12.0283 7.61015 13.4766C7.32205 14.925 7.46991 16.4263 8.03504 17.7907C8.60018 19.155 9.5572 20.3212 10.7851 21.1416C12.013 21.9621 13.4566 22.4 14.9333 22.4C16.3934 22.4063 17.8226 21.9794 19.04 21.1733L22.4 24.5333C22.6829 24.8162 23.0666 24.9751 23.4667 24.9751C23.8668 24.9751 24.2504 24.8162 24.5333 24.5333C24.8162 24.2504 24.9752 23.8667 24.9752 23.4666C24.9752 23.0666 24.8162 22.6829 24.5333 22.4ZM19.616 17.4826C19.1221 18.3821 18.3821 19.1221 17.4827 19.616C16.7018 20.0454 15.8245 20.2693 14.9333 20.2666C13.8785 20.2666 12.8474 19.9539 11.9703 19.3678C11.0932 18.7818 10.4097 17.9488 10.006 16.9743C9.60232 15.9998 9.4967 14.9274 9.70249 13.8928C9.90828 12.8583 10.4162 11.908 11.1621 11.1621C11.908 10.4162 12.8583 9.90825 13.8929 9.70246C14.9274 9.49667 15.9998 9.60229 16.9743 10.006C17.9489 10.4096 18.7818 11.0932 19.3678 11.9703C19.9539 12.8473 20.2667 13.8785 20.2667 14.9333C20.2693 15.8245 20.0454 16.7017 19.616 17.4826Z" fill="white"/>
<path d="M15.6906 15.6907C15.5414 15.8411 15.3508 15.9437 15.1431 15.9854C14.9353 16.0271 14.7199 16.0059 14.5242 15.9247C14.3286 15.8434 14.1615 15.7058 14.0444 15.5292C13.9273 15.3527 13.8654 15.1452 13.8666 14.9334C13.8666 14.6505 13.7542 14.3791 13.5542 14.1791C13.3542 13.9791 13.0828 13.8667 12.7999 13.8667C12.517 13.8667 12.2457 13.9791 12.0457 14.1791C11.8457 14.3791 11.7333 14.6505 11.7333 14.9334C11.7338 15.5658 11.9218 16.184 12.2735 16.7097C12.6251 17.2354 13.1247 17.6451 13.7091 17.8871C14.2934 18.1291 14.9364 18.1924 15.5568 18.0692C16.1772 17.946 16.7471 17.6416 17.1946 17.1947C17.3694 16.9906 17.4607 16.7282 17.4503 16.4597C17.4399 16.1912 17.3286 15.9366 17.1387 15.7466C16.9487 15.5567 16.6941 15.4454 16.4256 15.435C16.1571 15.4246 15.8947 15.5159 15.6906 15.6907Z" fill="white"/>
</svg>
