<svg width="16" height="16" viewBox="0 0 16 16" fill="none" xmlns="http://www.w3.org/2000/svg">
<path d="M1.33333 0.666626C0.596667 0.666626 0 1.26329 0 1.99996V3.99996V14.6666C1.76779e-05 14.8434 0.0702612 15.013 0.195282 15.138C0.320302 15.263 0.489861 15.3333 0.666667 15.3333H15.3333C15.5101 15.3333 15.6797 15.263 15.8047 15.138C15.9297 15.013 16 14.8434 16 14.6666V3.33329V1.99996C16 1.26329 15.4033 0.666626 14.6667 0.666626H1.33333ZM1.33333 3.99996H14.6667V14H1.33333V3.99996ZM3.33333 5.99996C3.24499 5.99871 3.15728 6.01503 3.0753 6.04797C2.99333 6.08092 2.91871 6.12982 2.8558 6.19185C2.79289 6.25388 2.74293 6.3278 2.70883 6.4093C2.67473 6.49081 2.65717 6.57828 2.65717 6.66663C2.65717 6.75498 2.67473 6.84245 2.70883 6.92395C2.74293 7.00546 2.79289 7.07937 2.8558 7.1414C2.91871 7.20343 2.99333 7.25234 3.0753 7.28528C3.15728 7.31822 3.24499 7.33454 3.33333 7.33329H6C6.08834 7.33454 6.17605 7.31822 6.25803 7.28528C6.34001 7.25234 6.41462 7.20343 6.47753 7.1414C6.54045 7.07937 6.5904 7.00546 6.6245 6.92395C6.6586 6.84245 6.67616 6.75498 6.67616 6.66663C6.67616 6.57828 6.6586 6.49081 6.6245 6.4093C6.5904 6.3278 6.54045 6.25388 6.47753 6.19185C6.41462 6.12982 6.34001 6.08092 6.25803 6.04797C6.17605 6.01503 6.08834 5.99871 6 5.99996H3.33333ZM8.66667 5.99996C8.29867 5.99996 8 6.29863 8 6.66663V12C8 12.368 8.29867 12.6666 8.66667 12.6666H12.6667C13.0347 12.6666 13.3333 12.368 13.3333 12V6.66663C13.3333 6.29863 13.0347 5.99996 12.6667 5.99996H8.66667ZM3.33333 8.66663C3.24499 8.66538 3.15728 8.6817 3.0753 8.71464C2.99333 8.74758 2.91871 8.79649 2.8558 8.85852C2.79289 8.92055 2.74293 8.99446 2.70883 9.07597C2.67473 9.15747 2.65717 9.24494 2.65717 9.33329C2.65717 9.42164 2.67473 9.50911 2.70883 9.59062C2.74293 9.67212 2.79289 9.74604 2.8558 9.80807C2.91871 9.8701 2.99333 9.919 3.0753 9.95195C3.15728 9.98489 3.24499 10.0012 3.33333 9.99996H6C6.08834 10.0012 6.17605 9.98489 6.25803 9.95195C6.34001 9.919 6.41462 9.8701 6.47753 9.80807C6.54045 9.74604 6.5904 9.67212 6.6245 9.59062C6.6586 9.50911 6.67616 9.42164 6.67616 9.33329C6.67616 9.24494 6.6586 9.15747 6.6245 9.07597C6.5904 8.99446 6.54045 8.92055 6.47753 8.85852C6.41462 8.79649 6.34001 8.74758 6.25803 8.71464C6.17605 8.6817 6.08834 8.66538 6 8.66663H3.33333ZM3.33333 11.3333C3.24499 11.332 3.15728 11.3484 3.0753 11.3813C2.99333 11.4142 2.91871 11.4632 2.8558 11.5252C2.79289 11.5872 2.74293 11.6611 2.70883 11.7426C2.67473 11.8241 2.65717 11.9116 2.65717 12C2.65717 12.0883 2.67473 12.1758 2.70883 12.2573C2.74293 12.3388 2.79289 12.4127 2.8558 12.4747C2.91871 12.5368 2.99333 12.5857 3.0753 12.6186C3.15728 12.6516 3.24499 12.6679 3.33333 12.6666H6C6.08834 12.6679 6.17605 12.6516 6.25803 12.6186C6.34001 12.5857 6.41462 12.5368 6.47753 12.4747C6.54045 12.4127 6.5904 12.3388 6.6245 12.2573C6.6586 12.1758 6.67616 12.0883 6.67616 12C6.67616 11.9116 6.6586 11.8241 6.6245 11.7426C6.5904 11.6611 6.54045 11.5872 6.47753 11.5252C6.41462 11.4632 6.34001 11.4142 6.25803 11.3813C6.17605 11.3484 6.08834 11.332 6 11.3333H3.33333Z" fill="#07377F"/>
</svg>
