<svg width="14" height="12" viewBox="0 0 14 12" fill="none" xmlns="http://www.w3.org/2000/svg">
<path d="M3.48834 0.809897L0.940817 3.22473L0.907783 3.25899C0.731122 3.45954 0.73365 3.7654 0.921074 3.96312L0.955329 3.99616C1.15588 4.17282 1.46174 4.17029 1.65947 3.98287L3.38168 2.35009V10.8608L3.38382 10.9083C3.40784 11.1745 3.63156 11.3831 3.90399 11.3831C4.19246 11.3831 4.4263 11.1492 4.4263 10.8608V2.45723L6.03585 3.98287L6.07183 4.01402C6.28153 4.17972 6.58682 4.16085 6.77425 3.96312C6.9727 3.75377 6.96386 3.42318 6.7545 3.22473L4.20698 0.809897L4.17029 0.778176C3.96876 0.61957 3.67797 0.630144 3.48834 0.809897Z" fill="#202124"/>
<path d="M9.68647 9.9799V1.46927L9.68861 1.42173C9.71262 1.15555 9.93634 0.946964 10.2088 0.946964C10.4972 0.946964 10.7311 1.18081 10.7311 1.46927V9.8728L12.3406 8.34737L12.3766 8.31622C12.5863 8.15052 12.8916 8.16939 13.079 8.36712C13.2775 8.57647 13.2686 8.90706 13.0593 9.10551L10.5118 11.5203L10.4751 11.5521C10.2735 11.7107 9.98275 11.7001 9.79312 11.5203L7.2456 9.10551L7.21257 9.07125C7.03591 8.8707 7.03844 8.56484 7.22586 8.36712L7.26012 8.33408C7.46067 8.15742 7.76653 8.15995 7.96425 8.34737L9.68647 9.9799Z" fill="#202124"/>
</svg>
