<svg width="193" height="193" viewBox="0 0 193 193" fill="none" xmlns="http://www.w3.org/2000/svg">
<g filter="url(#filter0_d_220_11165)">
<circle cx="96.5" cy="91.5" r="69.5" fill="#FEF8E6" stroke="url(#paint0_linear_220_11165)" stroke-width="2"/>
<path opacity="0.4" d="M116.148 64.9181V132.721H148.508V64.9181L132.328 48.7378L116.148 64.9181Z" fill="url(#paint1_linear_220_11165)"/>
<g clip-path="url(#clip0_220_11165)">
<path d="M76.4523 124.387H69.4925C69.4474 124.387 69.4041 124.369 69.3722 124.337C69.3403 124.305 69.3223 124.262 69.3223 124.217C69.3223 124.172 69.3403 124.128 69.3722 124.096C69.4041 124.064 69.4474 124.047 69.4925 124.047H76.4523C76.4974 124.047 76.5407 124.064 76.5726 124.096C76.6045 124.128 76.6224 124.172 76.6224 124.217C76.6224 124.262 76.6045 124.305 76.5726 124.337C76.5407 124.369 76.4974 124.387 76.4523 124.387ZM96.4225 121.099H89.8124C89.7673 121.099 89.724 121.081 89.6921 121.049C89.6602 121.017 89.6422 120.974 89.6422 120.928C89.6422 120.883 89.6602 120.84 89.6921 120.808C89.724 120.776 89.7673 120.758 89.8124 120.758H96.4225C96.4676 120.758 96.5109 120.776 96.5428 120.808C96.5747 120.84 96.5926 120.883 96.5926 120.928C96.5926 120.974 96.5747 121.017 96.5428 121.049C96.5109 121.081 96.4676 121.099 96.4225 121.099Z" fill="#9B3C82"/>
<path d="M96.3875 112.551H110.237V124.077H96.3875V112.551Z" fill="#FFCF2D"/>
<path d="M110.237 124.247H96.3875C96.3424 124.247 96.2991 124.229 96.2672 124.197C96.2353 124.165 96.2174 124.122 96.2174 124.077V112.551C96.2174 112.505 96.2353 112.462 96.2672 112.43C96.2991 112.398 96.3424 112.38 96.3875 112.38H110.237C110.282 112.38 110.326 112.398 110.358 112.43C110.389 112.462 110.407 112.505 110.407 112.551V124.077C110.407 124.122 110.389 124.165 110.358 124.197C110.326 124.229 110.282 124.247 110.237 124.247ZM96.5577 123.907H110.067V112.721H96.5577V123.907Z" fill="#E6F8EF"/>
<path d="M103.283 119.68L101.6 117.367C101.594 117.359 101.591 117.349 101.59 117.339C101.589 117.328 101.591 117.318 101.596 117.309C101.6 117.3 101.607 117.292 101.616 117.287C101.625 117.281 101.635 117.279 101.645 117.279L102.64 117.276C102.67 117.276 102.699 117.283 102.726 117.297C102.753 117.311 102.776 117.33 102.794 117.355L103.336 118.1C103.343 118.109 103.352 118.117 103.363 118.123C103.373 118.128 103.385 118.131 103.397 118.132C103.408 118.132 103.42 118.13 103.431 118.125C103.442 118.12 103.451 118.113 103.459 118.104L104.634 116.699C104.655 116.674 104.681 116.654 104.71 116.641C104.74 116.627 104.772 116.62 104.804 116.62L105.822 116.623C105.835 116.623 105.847 116.627 105.858 116.634C105.869 116.641 105.877 116.651 105.883 116.662C105.888 116.674 105.89 116.686 105.888 116.699C105.887 116.712 105.881 116.724 105.873 116.733L103.406 119.684C103.398 119.693 103.388 119.7 103.378 119.705C103.367 119.71 103.355 119.712 103.343 119.711C103.332 119.711 103.32 119.708 103.31 119.702C103.299 119.697 103.29 119.689 103.283 119.68Z" fill="#04AF5F"/>
<path d="M76.1744 116.771H90.0241V128.297H76.1744V116.771Z" fill="#E6F8EF"/>
<path d="M90.0241 128.468H76.1744C76.1292 128.468 76.086 128.45 76.054 128.418C76.0221 128.386 76.0042 128.343 76.0042 128.297V116.771C76.0042 116.726 76.0221 116.683 76.054 116.651C76.086 116.619 76.1292 116.601 76.1744 116.601H90.0241C90.0692 116.601 90.1125 116.619 90.1444 116.651C90.1763 116.683 90.1943 116.726 90.1943 116.771V128.297C90.1943 128.343 90.1763 128.386 90.1444 128.418C90.1125 128.45 90.0692 128.468 90.0241 128.468ZM76.3445 128.127H89.854V116.941H76.3445V128.127Z" fill="#FFCF2D"/>
<path d="M82.8658 124.036L81.1829 121.724C81.1769 121.715 81.1733 121.705 81.1725 121.695C81.1717 121.685 81.1737 121.675 81.1784 121.666C81.183 121.656 81.1901 121.649 81.1988 121.643C81.2076 121.638 81.2176 121.635 81.2279 121.635L82.2224 121.633C82.2525 121.633 82.2822 121.64 82.309 121.653C82.3358 121.667 82.3591 121.687 82.3768 121.711L82.9191 122.456C82.926 122.466 82.9351 122.474 82.9455 122.479C82.956 122.485 82.9675 122.488 82.9793 122.488C82.9911 122.489 83.0029 122.486 83.0137 122.482C83.0245 122.477 83.034 122.47 83.0416 122.46L84.2166 121.056C84.2374 121.031 84.2635 121.011 84.293 120.997C84.3225 120.983 84.3546 120.976 84.3871 120.976L85.405 120.98C85.4177 120.98 85.4301 120.983 85.4408 120.99C85.4515 120.997 85.46 121.007 85.4654 121.019C85.4707 121.03 85.4727 121.043 85.471 121.055C85.4694 121.068 85.4642 121.08 85.456 121.09L82.9882 124.04C82.9806 124.049 82.9711 124.056 82.9603 124.061C82.9495 124.066 82.9378 124.068 82.926 124.068C82.9142 124.068 82.9026 124.064 82.8922 124.059C82.8818 124.053 82.8728 124.046 82.8658 124.036Z" fill="#04AF5F"/>
<path d="M55.757 120.447H69.6067V131.973H55.757V120.447Z" fill="#E6F8EF"/>
<path d="M69.6068 132.144H55.757C55.7119 132.144 55.6686 132.126 55.6367 132.094C55.6048 132.062 55.5869 132.019 55.5869 131.973V120.447C55.5869 120.402 55.6048 120.359 55.6367 120.327C55.6686 120.295 55.7119 120.277 55.757 120.277H69.6068C69.6519 120.277 69.6952 120.295 69.7271 120.327C69.759 120.359 69.7769 120.402 69.7769 120.447V131.973C69.7769 132.019 69.759 132.062 69.7271 132.094C69.6952 132.126 69.6519 132.144 69.6068 132.144ZM55.9272 131.803H69.4366V120.617H55.9272V131.803Z" fill="#FFCF2D"/>
<path d="M62.4485 127.712L60.7656 125.4C60.7596 125.391 60.756 125.381 60.7552 125.371C60.7544 125.361 60.7564 125.351 60.7611 125.342C60.7657 125.332 60.7728 125.325 60.7815 125.319C60.7903 125.314 60.8003 125.311 60.8106 125.311L61.8051 125.309C61.8351 125.309 61.8648 125.316 61.8917 125.329C61.9185 125.343 61.9417 125.363 61.9595 125.387L62.5018 126.132C62.5087 126.142 62.5178 126.15 62.5282 126.155C62.5386 126.161 62.5502 126.164 62.562 126.164C62.5738 126.165 62.5856 126.162 62.5963 126.158C62.6071 126.153 62.6167 126.146 62.6243 126.136L63.7992 124.732C63.8201 124.707 63.8462 124.687 63.8757 124.673C63.9052 124.659 63.9373 124.652 63.9698 124.652L64.9876 124.656C65.0003 124.656 65.0128 124.66 65.0235 124.666C65.0342 124.673 65.0427 124.683 65.0481 124.695C65.0534 124.706 65.0554 124.719 65.0537 124.732C65.052 124.744 65.0468 124.756 65.0387 124.766L62.5709 127.716C62.5633 127.725 62.5537 127.732 62.543 127.737C62.5322 127.742 62.5204 127.744 62.5087 127.744C62.4969 127.744 62.4853 127.74 62.4749 127.735C62.4645 127.729 62.4554 127.722 62.4485 127.712Z" fill="#04AF5F"/>
</g>
<g clip-path="url(#clip1_220_11165)">
<path d="M89.4137 53.2785C89.3826 53.3373 89.3445 53.3961 89.3029 53.4583C89.1575 53.6693 88.9532 53.8803 88.7038 54.0774C88.6588 54.112 88.6103 54.1501 88.5619 54.1846C88.3472 54.3403 88.1013 54.4821 87.8312 54.6066C87.8104 54.617 87.7896 54.6239 87.7688 54.6343C87.7377 54.6481 87.703 54.6619 87.6719 54.6758C87.4122 54.7865 87.1524 54.866 86.9031 54.9213C86.8442 54.9352 86.7854 54.9455 86.73 54.9559C86.4183 55.0113 86.1239 55.0216 85.8677 54.9905C85.795 54.9801 85.7257 54.9698 85.6599 54.9525C85.3344 54.8764 85.0954 54.7138 84.9881 54.4752L84.7457 53.9356L84.5691 53.5379L84.5448 53.486C84.2574 52.8392 85.0331 51.8673 86.2832 51.3105C87.5334 50.7537 88.7766 50.8228 89.064 51.4661L89.0882 51.518L89.2648 51.9158L89.5072 52.4588C89.6146 52.6974 89.573 52.9845 89.4137 53.2785Z" fill="#FFCF2D"/>
<path d="M87.8312 54.6032L87.4433 53.7351C87.7065 53.614 87.9524 53.4722 88.174 53.3166L88.5619 54.1812L88.7038 54.074L88.316 53.2093C88.548 53.0295 88.7489 52.8358 88.9082 52.6318C88.9151 52.6248 88.9185 52.6179 88.9255 52.6075L89.3029 53.4549C89.3445 53.3961 89.3826 53.3373 89.4137 53.2751L89.0398 52.445C89.154 52.2651 89.2302 52.0853 89.2614 51.9158L89.0848 51.5181C89.1644 51.8051 89.0571 52.1579 88.7696 52.528C88.4407 52.9499 87.9212 53.3339 87.3083 53.6071C86.6953 53.8803 86.0616 54.0118 85.5283 53.9737C85.0677 53.9426 84.7318 53.7869 84.5691 53.5379L84.7457 53.9357C84.8946 54.0221 85.0781 54.0844 85.2894 54.1224L85.6634 54.956C85.7292 54.9698 85.7984 54.9836 85.8711 54.994L85.4902 54.1432C85.5006 54.1432 85.5075 54.1432 85.5179 54.1466C85.5803 54.1501 85.6461 54.1536 85.7084 54.1536C85.9092 54.1536 86.1239 54.1328 86.3421 54.0913L86.73 54.956L86.9031 54.9214L86.5153 54.0567C86.7681 53.9979 87.0278 53.9149 87.2806 53.8077L87.6684 54.6758L87.8312 54.6032Z" fill="#9B3C82"/>
<path d="M87.8381 51.4938C87.8069 51.4592 87.7515 51.4523 87.7169 51.4869L87.4676 51.7047C87.4329 51.6702 87.3983 51.6356 87.3602 51.6079C87.3291 51.5837 87.284 51.5837 87.2529 51.6114L85.8504 52.7596L85.8331 52.7769C85.8053 52.815 85.8157 52.8703 85.8573 52.898C85.8642 52.9049 85.9162 52.9395 85.9958 52.981L85.7603 53.185C85.743 53.2023 85.7292 53.2266 85.7292 53.2508C85.7292 53.2992 85.7673 53.3372 85.8157 53.3372C85.8365 53.3372 85.8573 53.3303 85.8711 53.3165L86.1586 53.0675C86.3144 53.1366 86.5083 53.2023 86.6919 53.2023C86.8235 53.2058 86.9516 53.1643 87.0555 53.0813C87.1455 53.0121 87.1975 52.9049 87.194 52.7908C87.1905 52.6628 87.1178 52.5348 87.0278 52.4311C87.1247 52.4484 87.2286 52.4449 87.3256 52.4207C87.4468 52.3861 87.5507 52.3031 87.6095 52.1924C87.6511 52.1198 87.6719 52.0022 87.5715 51.8431L87.8277 51.6217C87.8658 51.5837 87.8693 51.5284 87.8381 51.4938ZM86.9447 52.9464C86.7196 53.1297 86.2902 52.9499 86.0512 52.815L86.6607 52.3135C86.7854 52.4103 87.0139 52.6213 87.0208 52.7942C87.0243 52.8565 86.9931 52.9118 86.9447 52.9464ZM87.4572 52.1025C87.3187 52.3515 86.9828 52.2547 86.8165 52.1855L87.3048 51.7843C87.3948 51.8708 87.5091 52.0126 87.4572 52.1025Z" fill="#9B3C82"/>
<path d="M88.8874 51.5181C88.7593 51.2379 88.4199 51.0753 87.9247 51.0684C87.4537 51.065 86.8893 51.1964 86.3386 51.4385C85.1682 51.9642 84.4479 52.8185 84.7007 53.3892C84.8357 53.6866 85.2063 53.8388 85.7015 53.8388C86.1482 53.8388 86.6919 53.7178 87.2459 53.4687C88.4199 52.943 89.1402 52.0853 88.8874 51.5181ZM87.1767 53.3096C86.1274 53.7766 85.0677 53.7835 84.86 53.3165C84.6522 52.8531 85.3621 52.0645 86.4114 51.5976C86.9239 51.3693 87.4468 51.2414 87.89 51.2414H87.9247C88.1325 51.2448 88.3125 51.2759 88.4476 51.3382C88.5861 51.397 88.6831 51.4835 88.7315 51.5872C88.9359 52.0541 88.226 52.8393 87.1767 53.3096Z" fill="#9B3C82"/>
<path d="M96.8868 56.9032C96.8556 56.962 96.8176 57.0208 96.776 57.0796C96.6306 57.2906 96.4262 57.5015 96.1734 57.6987C96.1284 57.7333 96.0799 57.7713 96.0315 57.8059C95.8168 57.9615 95.5709 58.1034 95.3008 58.2279C95.28 58.2382 95.2592 58.2452 95.2384 58.2555C95.2073 58.2694 95.1726 58.2832 95.1415 58.297C94.8818 58.4077 94.622 58.4873 94.3727 58.5461C94.3138 58.5599 94.255 58.5703 94.1996 58.5806C93.8879 58.636 93.5935 58.6464 93.3373 58.6152C93.2646 58.6083 93.1953 58.5945 93.1295 58.5772C92.804 58.5011 92.5616 58.3385 92.4542 58.0964L92.2118 57.5569L92.0317 57.1591L92.0075 57.1073C91.7201 56.4639 92.4958 55.4886 93.7459 54.9318C94.9926 54.3749 96.2392 54.4441 96.5267 55.0909L96.5509 55.1427L96.731 55.5405L96.9734 56.0835C97.0877 56.3256 97.0461 56.6092 96.8868 56.9032Z" fill="#FFCF2D"/>
<path d="M96.8868 56.9032C96.8556 56.962 96.8176 57.0208 96.776 57.0796L96.3985 56.2323C96.3916 56.2392 96.3881 56.2461 96.3812 56.2565C96.2219 56.4605 96.0211 56.6542 95.7891 56.8341L96.1769 57.6987L96.0349 57.8059L95.6471 56.9413C95.4254 57.0969 95.1796 57.2387 94.9164 57.3598L95.3042 58.2279L95.1449 58.2971L94.7571 57.429C94.5008 57.5362 94.2446 57.6192 93.9918 57.678L94.3796 58.5426L94.2065 58.5772L93.8186 57.7126C93.6005 57.7541 93.3858 57.7748 93.1849 57.7748C93.1191 57.7748 93.0568 57.7714 92.9944 57.7679C92.9841 57.7679 92.9771 57.7679 92.9667 57.7644L93.3442 58.6118C93.2715 58.6049 93.2022 58.5911 93.1364 58.5738L92.7624 57.7471C92.5512 57.7126 92.3677 57.6503 92.2187 57.5604L92.0387 57.1626C92.198 57.4151 92.5373 57.5708 93.0014 57.6019C93.5347 57.6399 94.1684 57.5085 94.7813 57.2353C95.3943 56.962 95.9137 56.5781 96.2427 56.1562C96.5301 55.7895 96.6375 55.4333 96.5578 55.1462L96.7379 55.544C96.7033 55.7135 96.6306 55.8933 96.5163 56.0732L96.8868 56.9032Z" fill="#9B3C82"/>
<path d="M95.4912 56.0454L95.1103 56.0592C94.9822 55.7998 94.7536 55.4816 94.4316 55.4816H94.4281C94.3138 55.4781 94.2065 55.53 94.1372 55.62C94.061 55.7237 94.0368 55.8655 94.0368 56.0039C93.971 55.9278 93.8914 55.8655 93.7979 55.824C93.6801 55.7721 93.5485 55.7721 93.4342 55.824C93.3581 55.8551 93.2646 55.9312 93.2438 56.118L92.9044 56.1284C92.8559 56.1284 92.8178 56.1699 92.8178 56.2148C92.8178 56.2633 92.8594 56.3013 92.9044 56.3013H92.9079L93.2403 56.2909C93.2438 56.3394 93.2507 56.3878 93.2611 56.4362C93.2715 56.4742 93.3061 56.5019 93.3442 56.5019L95.1588 56.4915C95.1657 56.4915 95.1761 56.4915 95.183 56.4881C95.2281 56.4742 95.2558 56.4258 95.2419 56.3809C95.2384 56.3705 95.2211 56.3117 95.1865 56.2287L95.4982 56.2183C95.5466 56.2183 95.5847 56.1768 95.5813 56.1284C95.5778 56.0834 95.5397 56.0454 95.4912 56.0454ZM93.4135 56.329C93.3961 56.2148 93.3927 56.0246 93.4931 55.9866C93.5312 55.9693 93.5693 55.9624 93.6109 55.9624C93.7147 55.9624 93.8152 56.0212 93.9121 56.1353C93.9606 56.1941 94.0056 56.2598 94.0403 56.3255L93.4135 56.329ZM94.2446 56.3255C94.2099 56.1733 94.1649 55.8621 94.2688 55.7272C94.3069 55.6788 94.3623 55.6545 94.4246 55.658H94.4281C94.7155 55.658 94.9372 56.0696 95.0341 56.3221L94.2446 56.3255Z" fill="#9B3C82"/>
<path d="M96.3604 55.1462C96.1076 54.579 94.9891 54.5444 93.8152 55.0667C92.6412 55.5924 91.9209 56.4467 92.1772 57.0139C92.3122 57.3113 92.6828 57.4635 93.178 57.4635C93.6247 57.4635 94.1684 57.339 94.7225 57.0934C95.7371 56.6404 96.4124 55.9383 96.4124 55.3918C96.4124 55.3019 96.3951 55.2223 96.3604 55.1462ZM94.6497 56.9343C93.6005 57.4013 92.5408 57.4047 92.333 56.9413C92.1252 56.4778 92.8352 55.6892 93.8844 55.2223C94.4108 54.9871 94.9441 54.8695 95.3666 54.8695C95.7856 54.8695 96.0973 54.9837 96.2011 55.2154C96.4089 55.6789 95.699 56.4674 94.6497 56.9343Z" fill="#9B3C82"/>
<path d="M104.876 54.088L104.848 54.1364L104.627 54.5099L104.322 55.0184C104.187 55.2432 103.93 55.3746 103.598 55.4161C103.532 55.423 103.46 55.4265 103.39 55.4299C103.134 55.4299 102.843 55.385 102.538 55.2951C102.483 55.2778 102.428 55.2605 102.369 55.2397C102.116 55.1532 101.86 55.0357 101.603 54.8869C101.583 54.8766 101.565 54.8627 101.544 54.8523C101.513 54.8351 101.486 54.8178 101.454 54.797C101.216 54.6483 100.997 54.4823 100.81 54.3128C100.765 54.2713 100.724 54.2332 100.682 54.1917C100.457 53.9669 100.277 53.7352 100.156 53.5069C100.121 53.4447 100.094 53.379 100.066 53.3167C99.9411 53.0054 99.9342 52.7184 100.069 52.4901L100.374 51.9817L100.596 51.6081L100.627 51.5597C100.987 50.9544 102.234 51.0271 103.408 51.7257C104.578 52.4244 105.236 53.4827 104.876 54.088Z" fill="#FFCF2D"/>
<path d="M104.848 54.1363L104.627 54.5099C104.467 54.5791 104.28 54.6206 104.066 54.6309L103.598 55.416C103.532 55.423 103.46 55.4264 103.39 55.4299L103.865 54.6344H103.837C103.577 54.6206 103.304 54.5687 103.023 54.4822L102.538 55.295C102.483 55.2777 102.428 55.2604 102.369 55.2397L102.853 54.4269C102.597 54.3369 102.341 54.2159 102.088 54.0706L101.6 54.8869L101.593 54.9007L101.444 54.8142L101.451 54.8004L101.939 53.9842C101.704 53.8389 101.486 53.6763 101.295 53.5034L100.81 54.3197L100.682 54.1986L101.167 53.3858C100.959 53.1818 100.779 52.9639 100.648 52.7425C100.644 52.7356 100.637 52.7252 100.634 52.7183L100.159 53.5138C100.125 53.4515 100.097 53.3858 100.069 53.3236L100.537 52.5385C100.443 52.3448 100.391 52.1615 100.377 51.9885L100.599 51.615C100.346 52.2306 101.001 53.2267 102.119 53.8942C102.698 54.2366 103.311 54.4407 103.844 54.4649C104.304 54.4822 104.658 54.3681 104.848 54.1363Z" fill="#9B3C82"/>
<path d="M103.494 53.7835L103.266 53.4792C103.404 53.2232 103.536 52.8532 103.342 52.5869C103.279 52.49 103.176 52.4312 103.061 52.4278C102.933 52.4243 102.802 52.4866 102.687 52.5661C102.712 52.4693 102.715 52.369 102.698 52.2687C102.673 52.1441 102.597 52.0369 102.49 51.9712C102.421 51.9263 102.303 51.8951 102.137 51.9851L101.932 51.7153C101.905 51.6772 101.849 51.6703 101.811 51.698C101.773 51.7257 101.766 51.781 101.794 51.819L101.995 52.0854C101.957 52.1165 101.922 52.1511 101.891 52.1857C101.863 52.2168 101.863 52.2617 101.884 52.2929L102.937 53.7697C102.954 53.7905 102.978 53.8043 103.006 53.8043H103.009C103.037 53.8043 103.061 53.7939 103.079 53.7697C103.086 53.7628 103.124 53.7144 103.172 53.6383L103.359 53.8873C103.376 53.9081 103.401 53.9219 103.428 53.9219C103.446 53.9219 103.466 53.915 103.48 53.9046C103.515 53.8769 103.522 53.8216 103.494 53.7835ZM102.431 52.7632L102.064 52.2514C102.157 52.1649 102.306 52.0646 102.393 52.1199C102.632 52.2721 102.511 52.6007 102.431 52.7632ZM103.006 53.5691L102.549 52.9258C102.653 52.8117 102.874 52.6007 103.047 52.6007H103.054C103.113 52.6041 103.169 52.6353 103.2 52.6872C103.369 52.9223 103.158 53.3408 103.006 53.5691Z" fill="#9B3C82"/>
<path d="M103.331 51.8501C102.227 51.1929 101.112 51.0961 100.793 51.6322C100.474 52.1683 101.091 53.1021 102.196 53.7592C102.819 54.1328 103.449 54.323 103.934 54.323C104.308 54.323 104.595 54.2089 104.734 53.9771C105.052 53.441 104.436 52.5072 103.331 51.8501ZM104.585 53.8872C104.325 54.323 103.273 54.195 102.282 53.6071C101.295 53.0191 100.682 52.1544 100.942 51.7186C101.046 51.5422 101.278 51.4592 101.583 51.4592C102.036 51.4592 102.653 51.646 103.241 51.9988C104.232 52.5868 104.845 53.4514 104.585 53.8872Z" fill="#9B3C82"/>
</g>
<g clip-path="url(#clip2_220_11165)">
<path d="M74.6821 65.2418C74.4681 65.632 74.1161 65.9877 74.1161 65.9877L75.8142 78.8331C75.8142 78.8331 85.4645 78.7261 90.9248 76.8096C90.9248 76.8096 85.1056 62.1513 79.8559 65.2039L74.6821 65.2418Z" fill="#66B0F0"/>
<path d="M78.9343 54.2956C78.4822 54.2196 78.0231 54.3647 77.6987 54.6824C76.8565 53.4393 75.1135 54.2335 75.186 55.3523C73.6363 54.7756 72.5249 56.6541 73.3912 57.6451C73.7088 58.0077 74.2921 58.795 74.3197 59.5685C75.0169 59.6617 76.6218 60.8116 76.6218 60.8116C76.6218 60.8116 78.4891 57.3481 79.4417 56.7128C80.629 55.9186 79.8938 54.4821 78.9343 54.2956Z" fill="#5B2448"/>
<path d="M77.1603 55.5318C77.1603 55.5801 77.1982 55.6181 77.2466 55.6181C77.2949 55.6181 77.3328 55.5801 77.3328 55.5318C77.3397 55.1209 77.5572 54.817 77.7505 54.6306C77.7332 54.6478 77.716 54.6616 77.6987 54.6789C77.6642 54.6306 77.6297 54.5822 77.5951 54.5408C77.3846 54.7549 77.1672 55.0829 77.1603 55.5318Z" fill="#9B3C82"/>
<path d="M81.7715 60.5389C81.9268 60.9049 81.8543 61.3642 81.5333 61.7164C80.6946 62.6349 79.2381 62.7696 79.2381 62.7696C79.2381 62.7696 79.4659 64.0334 79.8593 65.2074C79.849 65.8152 79.7765 66.4229 79.6453 67.0169C78.2958 67.0169 75.8487 66.378 74.6786 65.242C74.6786 65.242 75.3172 64.1059 75.469 62.1169C74.7097 62.2585 73.3326 61.8718 73.1876 60.8255C73.1048 60.2316 73.55 59.5755 74.1851 59.5513C74.8029 59.5271 75.1308 59.793 75.7521 60.1383C76.3285 60.4595 76.3664 60.1591 76.4631 59.5099C76.5459 58.9919 76.7254 58.4947 76.9946 58.0423C77.4571 57.2896 78.6306 56.889 79.4382 56.7129C79.635 57.3068 79.8662 57.8835 80.1389 58.4463C80.6152 59.4305 81.4125 59.6825 81.7715 60.5389Z" fill="#F4ADA2"/>
<path d="M77.0705 58.6224L77.0533 58.5602C77.0498 58.5395 77.0429 58.5222 77.0395 58.505C77.0326 58.467 77.0291 58.429 77.0257 58.391C77.0222 58.315 77.0291 58.2391 77.0429 58.1631C77.074 58.0077 77.1396 57.8592 77.2396 57.7315C77.2914 57.6659 77.3501 57.6037 77.4191 57.5554C77.4882 57.5036 77.5641 57.4656 77.6435 57.4345C77.7229 57.4069 77.8057 57.3931 77.8885 57.3931C77.9714 57.3931 78.0507 57.4069 78.1267 57.4414C78.2233 57.4828 78.2682 57.5968 78.2233 57.6935C78.2164 57.7107 78.2061 57.728 78.1923 57.7418L78.1681 57.7695C78.1198 57.8212 78.0784 57.8592 78.0438 57.8972C78.0059 57.9317 77.9748 57.9663 77.9472 57.9974C77.8885 58.0595 77.8402 58.1148 77.7815 58.1735C77.7263 58.2356 77.6711 58.3047 77.609 58.3841L77.5123 58.5119C77.4951 58.5326 77.4778 58.5568 77.4605 58.5809C77.4191 58.6362 77.3674 58.6811 77.3052 58.7087C77.2742 58.7225 77.2362 58.7294 77.2017 58.726C77.1534 58.7225 77.1119 58.6914 77.0878 58.65C77.0774 58.6396 77.074 58.6327 77.0705 58.6224ZM77.5399 59.0333C77.6987 58.94 78.0818 58.7294 78.3994 58.4117C78.4442 58.3668 78.5167 58.3668 78.5581 58.4117C78.672 58.5257 78.8239 58.7467 78.5788 58.9331C78.2785 59.1645 77.6987 59.237 77.533 59.13C77.5054 59.1127 77.4985 59.0747 77.5192 59.0505C77.5261 59.0436 77.533 59.0367 77.5399 59.0333ZM79.7523 57.9317C79.5867 58.0112 79.4555 58.0388 79.1276 58.1044C79.0655 58.1148 79.0241 58.1769 79.0379 58.2356C79.0689 58.3945 79.1932 58.5257 79.4486 58.4704C79.7316 58.4117 79.8386 58.1527 79.8352 57.9835C79.8352 57.9525 79.8076 57.9248 79.7765 57.9248C79.7696 57.9248 79.7592 57.9283 79.7523 57.9317Z" fill="#5B2448"/>
<path d="M76.0385 62.0582C76.0799 62.0305 76.0903 61.9787 76.0627 61.9373C76.0351 61.8959 75.9833 61.8855 75.9419 61.9131C75.7969 62.0098 75.6382 62.0789 75.469 62.1203C75.4656 62.1825 75.4587 62.2412 75.4552 62.2999C75.6623 62.255 75.8591 62.1756 76.0385 62.0582C76.0351 62.0582 76.0351 62.0582 76.0385 62.0582Z" fill="#9B3C82"/>
<path d="M78.8515 56.9753C78.8066 57.034 78.7721 57.0996 78.7514 57.1721C78.7272 57.2654 78.7825 57.3586 78.8757 57.3828C78.8929 57.3862 78.9102 57.3897 78.9274 57.3862L78.9585 57.3828C79.0206 57.3793 79.0724 57.369 79.1173 57.3655C79.1621 57.3586 79.2035 57.3552 79.245 57.3517C79.3209 57.3448 79.3865 57.3379 79.4624 57.3344C79.5211 57.331 79.5867 57.331 79.6591 57.331C79.5798 57.1273 79.5073 56.9201 79.4382 56.7129C79.314 56.7405 79.1828 56.7716 79.0482 56.8096C79.0379 56.8165 79.0275 56.8199 79.0172 56.8268C78.955 56.8683 78.8998 56.9166 78.8515 56.9753ZM77.6676 62.4726C77.5227 62.6384 77.892 63.8711 79.4486 63.8262H79.4693C79.3209 63.2185 79.2415 62.7696 79.2415 62.7696C79.2381 62.7661 78.2751 62.7868 77.6676 62.4726Z" fill="#5B2448"/>
<path opacity="0.52" d="M77.609 61.1915C78.0283 61.1915 78.3683 60.8514 78.3683 60.4318C78.3683 60.0122 78.0283 59.6721 77.609 59.6721C77.1896 59.6721 76.8496 60.0122 76.8496 60.4318C76.8496 60.8514 77.1896 61.1915 77.609 61.1915Z" fill="#E57281"/>
<path d="M80.1285 60.1174C80.1009 60.183 80.063 60.2417 80.0112 60.2935C79.9629 60.3419 79.9042 60.3799 79.8421 60.4109C79.7178 60.4731 79.5763 60.5007 79.4348 60.4869C79.3658 60.4765 79.2967 60.4593 79.2312 60.4317C79.1656 60.404 79.1069 60.3661 79.0551 60.3177C78.9481 60.2245 78.8791 60.0967 78.8584 59.9586C78.8549 59.9172 78.8826 59.8792 78.9274 59.8723C78.9619 59.8688 78.993 59.8861 79.0068 59.9172L79.0103 59.9206C79.0724 60.0553 79.1863 60.1623 79.3278 60.2141C79.3727 60.2314 79.421 60.2452 79.4693 60.2486C79.566 60.259 79.666 60.2452 79.7558 60.2107C79.849 60.1796 79.9318 60.1209 79.9974 60.0484L80.0008 60.0449C80.0285 60.0104 80.0768 60.0069 80.1113 60.0346C80.1285 60.0484 80.1389 60.0864 80.1285 60.1174ZM75.5036 61.1326C75.4759 61.1326 75.4483 61.1188 75.4345 61.0981C74.8271 60.2452 74.0574 60.5525 74.0263 60.5663C73.9814 60.5836 73.9331 60.5629 73.9124 60.518C73.8952 60.4731 73.9159 60.4248 73.9573 60.4075C73.9676 60.404 74.8823 60.0311 75.5726 60.998C75.6002 61.0359 75.5898 61.0912 75.5519 61.1188C75.5415 61.1292 75.5243 61.1326 75.5036 61.1326Z" fill="#9B3C82"/>
<path d="M79.6557 59.3442C79.6177 59.3442 79.5867 59.3131 79.5867 59.2751C79.5867 59.2613 79.5901 59.244 79.6005 59.2337C79.704 59.0956 79.7489 58.9989 79.7351 58.9333C79.7213 58.8607 79.6246 58.8055 79.4728 58.7261C79.0482 58.4982 79.0448 58.2323 79.0448 58.2185C79.0448 58.1805 79.0758 58.1494 79.1138 58.1494C79.1518 58.1494 79.1828 58.1805 79.1828 58.2185C79.1828 58.2254 79.1966 58.4188 79.5383 58.6018C79.7006 58.6881 79.8421 58.7641 79.8697 58.9022C79.8938 59.0092 79.8455 59.137 79.7109 59.3166C79.7006 59.3338 79.6799 59.3442 79.6557 59.3442ZM67.7998 112.974C65.9188 111.838 64.6624 109.908 64.2862 108.039C63.9307 106.265 63.4958 102.618 61.4491 103.392C59.568 104.103 60.3481 109.711 67.7998 112.974Z" fill="#5B2448"/>
<path d="M67.7998 112.977C67.289 113.25 66.8127 113.495 66.3813 113.709C65.1318 114.327 64.2897 114.683 64.2897 114.683C64.2897 114.683 58.933 114.327 59.8545 112.445C60.5482 111.727 61.5595 110.843 62.5536 110.018C62.6709 109.918 62.7917 109.821 62.9091 109.724L63.2922 109.414C63.6891 109.092 64.0688 108.792 64.407 108.526C64.942 108.105 65.3734 107.777 65.6116 107.594C65.7427 107.494 65.8152 107.438 65.8152 107.438L66.3295 108.875L67.7998 112.977Z" fill="#F4ADA2"/>
<path d="M104.016 102.362C102.563 102.646 99.7364 102.376 97.8761 101.157C96.033 99.9487 94.252 99.0198 93.6308 100.135C92.9508 101.371 95.964 105.166 104.016 102.362Z" fill="#5B2448"/>
<path d="M104.016 102.362C103.902 102.87 103.764 103.398 103.623 103.913C103.619 103.927 103.616 103.94 103.612 103.951C103.143 105.629 102.615 107.141 102.598 107.19C102.58 107.238 102.594 107.19 102.591 107.19H102.57C102.166 107.2 97.776 107.286 98.1108 105.774C98.1108 105.767 98.0073 105.539 98.0073 105.532C98.1281 105 98.2351 104.407 98.3283 103.813C98.3524 103.664 98.3731 103.512 98.3973 103.364C98.418 103.229 98.4352 103.098 98.4525 102.967C98.4594 102.929 98.4629 102.891 98.4663 102.853C98.5284 102.397 98.5768 101.958 98.6147 101.568C98.663 101.092 98.6907 100.684 98.6976 100.408V100.384C98.701 100.29 98.701 100.201 98.6941 100.107C98.5768 98.6814 103.947 102.317 104.016 102.362Z" fill="#F4ADA2"/>
<path d="M104.016 102.363C101.756 103.15 99.8918 103.416 98.3938 103.367C98.4145 103.233 98.4318 103.101 98.449 102.97C98.456 102.932 98.4594 102.894 98.4628 102.856C98.525 102.401 98.5733 101.962 98.6113 101.572C100.423 102.438 102.746 102.611 104.016 102.363ZM67.7998 112.977C65.6426 112.031 64.0446 110.888 62.9056 109.724L63.2887 109.414C63.6857 109.093 64.0653 108.792 64.4036 108.526C64.8799 110.236 66.081 111.938 67.7998 112.977Z" fill="#9B3C82"/>
<path d="M103.612 103.951C103.143 105.629 102.615 107.142 102.598 107.19C102.58 107.238 102.594 107.19 102.591 107.19H102.57C102.166 107.2 97.776 107.287 98.1108 105.774C98.1108 105.767 98.0073 105.539 98.0073 105.532C98.1281 105.001 98.2351 104.407 98.3282 103.813L103.612 103.951ZM66.3813 113.706C65.1318 114.324 64.2897 114.68 64.2897 114.68C64.2897 114.68 58.933 114.324 59.8545 112.442C60.5482 111.724 61.5595 110.84 62.5536 110.014L66.3468 113.647L66.3813 113.706Z" fill="#66B0F0"/>
<path d="M65.6219 114.075L61.7839 110.664C61.6941 110.74 61.6079 110.815 61.5216 110.891L65.2837 114.237C65.3872 114.186 65.5011 114.13 65.6219 114.075ZM103.398 104.697L98.1971 104.59C98.1764 104.707 98.1557 104.821 98.1315 104.935L103.295 105.042C103.329 104.928 103.364 104.811 103.398 104.697ZM98.0073 105.532C98.0073 105.532 97.0339 109.821 96.5956 112.235C96.5956 112.235 104.078 112.539 106.74 112.318C108.182 112.197 108.876 111.655 109.207 111.264L109.204 111.261C109.204 111.257 109.2 111.254 109.2 111.251C109.125 111.068 108.313 109.258 105.694 107.939C105.286 107.732 103.971 107.159 102.46 106.979C101.424 106.855 100.544 106.903 99.8814 106.682C99.0393 106.402 98.4801 105.515 98.0073 105.532Z" fill="white"/>
<path d="M98.0418 105.463C98.7769 105.639 99.0565 106.337 99.9539 106.665C100.537 106.879 102.194 106.755 103.398 107.083C103.443 107.093 103.485 107.107 103.53 107.117C103.54 107.121 103.554 107.124 103.564 107.128C103.82 107.2 104.065 107.276 104.296 107.356C104.344 107.373 104.389 107.387 104.434 107.404L104.631 107.477C104.682 107.497 104.731 107.515 104.779 107.535C104.82 107.552 104.862 107.566 104.9 107.584C104.924 107.594 104.948 107.604 104.976 107.615C105.034 107.639 105.093 107.663 105.152 107.691H105.155C105.176 107.701 105.197 107.708 105.217 107.718C105.283 107.749 105.352 107.777 105.418 107.808L105.459 107.829C105.538 107.867 105.614 107.905 105.69 107.943L105.908 108.057C105.935 108.07 105.963 108.084 105.987 108.102L106.225 108.236L106.28 108.267C106.298 108.278 106.315 108.288 106.336 108.298C106.37 108.319 106.405 108.34 106.436 108.361C106.47 108.381 106.508 108.405 106.543 108.426L106.595 108.457C106.712 108.533 106.826 108.609 106.933 108.685C106.978 108.72 107.023 108.751 107.067 108.785C107.098 108.806 107.126 108.83 107.154 108.851C107.168 108.861 107.181 108.872 107.199 108.885C107.243 108.92 107.288 108.954 107.333 108.992C107.344 109.003 107.354 109.01 107.364 109.017C107.433 109.072 107.499 109.127 107.561 109.182C107.575 109.193 107.585 109.203 107.599 109.213L107.671 109.276C107.685 109.286 107.699 109.3 107.709 109.31C107.734 109.331 107.758 109.355 107.778 109.376C107.789 109.386 107.803 109.396 107.813 109.407C107.823 109.417 107.837 109.428 107.847 109.438C107.858 109.448 107.872 109.459 107.882 109.469C107.916 109.5 107.948 109.535 107.979 109.566L108.01 109.597L108.041 109.628L108.103 109.69L108.134 109.721C108.155 109.742 108.172 109.762 108.193 109.783C108.213 109.804 108.231 109.825 108.248 109.845C108.265 109.866 108.286 109.887 108.303 109.907C108.313 109.918 108.324 109.928 108.331 109.942C108.365 109.98 108.396 110.018 108.427 110.056C108.445 110.077 108.458 110.094 108.476 110.115C108.493 110.135 108.507 110.153 108.52 110.173C108.534 110.194 108.552 110.211 108.565 110.229C108.7 110.401 108.81 110.56 108.897 110.698L108.917 110.729C106.619 112.352 104.31 111.482 102.984 110.926C101.842 110.446 101.528 111.078 100.596 110.774C99.8158 110.522 99.6778 109.869 98.6872 109.749C97.7587 109.635 96.9407 110.229 96.9407 110.229C96.9407 110.229 97.317 108.053 98.0418 105.463Z" fill="#5B2448"/>
<path d="M97.3825 108.996C97.3411 108.996 97.3032 108.992 97.2617 108.989C97.2065 108.979 97.1685 108.923 97.1789 108.868C97.1893 108.813 97.2445 108.775 97.2997 108.785C97.3101 108.785 97.8347 108.868 98.5353 108.274C98.5975 108.222 98.6527 108.174 98.7079 108.126C99.2187 107.684 99.5294 107.414 100.544 107.38C100.603 107.376 100.648 107.421 100.651 107.48C100.655 107.539 100.61 107.584 100.551 107.587C99.6087 107.618 99.3533 107.839 98.8425 108.281C98.7873 108.329 98.7286 108.378 98.6699 108.43C98.0797 108.93 97.5965 108.996 97.3825 108.996Z" fill="white"/>
<path d="M106.101 111.727C104.838 111.727 103.737 111.261 103.002 110.954C102.398 110.698 102.025 110.764 101.662 110.826C101.352 110.878 101.031 110.933 100.589 110.791C100.244 110.681 100.013 110.498 99.7917 110.322C99.4983 110.087 99.2222 109.869 98.6768 109.804C97.7967 109.697 97.0443 110.242 97.0339 110.249C96.996 110.277 96.9407 110.27 96.9131 110.229C96.8855 110.191 96.8924 110.139 96.9304 110.108C96.9615 110.084 97.7449 109.514 98.6941 109.631C99.2878 109.704 99.5949 109.949 99.8952 110.187C100.113 110.36 100.32 110.525 100.637 110.629C101.038 110.76 101.324 110.709 101.628 110.657C102.014 110.591 102.415 110.522 103.064 110.795C103.668 111.05 104.582 111.434 105.611 111.534C106.802 111.648 107.861 111.361 108.855 110.657C108.897 110.629 108.948 110.643 108.976 110.681C109.004 110.722 108.99 110.774 108.952 110.802C107.979 111.492 106.998 111.727 106.101 111.727Z" fill="#5B2448"/>
<path d="M98.5526 111.927C97.9141 111.927 97.4136 111.62 97.4136 111.223C97.4136 110.826 97.9141 110.519 98.5526 110.519C99.1911 110.519 99.6916 110.826 99.6916 111.223C99.6916 111.62 99.1911 111.927 98.5526 111.927ZM98.5526 110.695C98.028 110.695 97.5862 110.936 97.5862 111.226C97.5862 111.516 98.028 111.758 98.5526 111.758C99.0772 111.758 99.519 111.516 99.519 111.226C99.519 110.936 99.0738 110.695 98.5526 110.695Z" fill="#6D2A53"/>
<path d="M102.784 112.507C99.8089 112.507 96.5611 112.418 96.5128 112.418C96.4644 112.418 96.4265 112.376 96.4299 112.328V112.314C96.8648 109.921 97.9313 105.574 97.9417 105.532C97.952 105.487 98.0003 105.456 98.0452 105.47C98.0901 105.48 98.1212 105.529 98.1073 105.574C98.097 105.615 97.0615 109.842 96.6163 112.248C97.524 112.273 104.268 112.442 106.729 112.238C107.471 112.176 108.483 111.955 109.104 111.254C108.962 110.94 108.124 109.265 105.652 108.022C105.628 108.012 105.601 107.998 105.573 107.98C105.138 107.759 104.116 107.238 102.415 107.107C102.366 107.103 102.332 107.062 102.332 107.017C102.335 106.969 102.377 106.934 102.422 106.934H102.425C104.158 107.069 105.2 107.601 105.649 107.829C105.676 107.842 105.704 107.856 105.728 107.867C108.344 109.186 109.18 110.992 109.273 111.216C109.273 111.216 109.273 111.219 109.276 111.219C109.28 111.223 109.28 111.23 109.28 111.233L109.283 111.24C109.294 111.271 109.29 111.302 109.269 111.327C108.614 112.103 107.533 112.345 106.743 112.411C105.835 112.483 104.348 112.507 102.784 112.507Z" fill="#5B2448"/>
<path d="M102.163 109.389C102.021 109.389 101.904 109.272 101.904 109.13C101.904 109.089 101.914 109.051 101.932 109.013C101.963 108.954 102.684 107.563 104.389 107.162C104.527 107.131 104.669 107.217 104.7 107.355C104.731 107.494 104.644 107.635 104.506 107.666C103.04 108.008 102.398 109.234 102.391 109.248C102.353 109.334 102.263 109.389 102.163 109.389ZM103.336 109.842C103.195 109.842 103.077 109.724 103.077 109.583C103.077 109.541 103.088 109.503 103.105 109.465C103.136 109.407 103.847 108.039 105.535 107.646C105.673 107.611 105.815 107.697 105.849 107.835C105.884 107.974 105.797 108.115 105.659 108.15H105.656C104.21 108.485 103.578 109.69 103.571 109.7C103.523 109.786 103.436 109.842 103.336 109.842ZM104.693 110.201C104.551 110.201 104.434 110.083 104.434 109.942C104.434 109.9 104.444 109.859 104.465 109.821C104.493 109.769 105.145 108.585 106.684 108.246C106.822 108.215 106.96 108.305 106.991 108.443C107.023 108.581 106.933 108.719 106.795 108.751C105.497 109.037 104.927 110.056 104.921 110.066C104.872 110.149 104.786 110.201 104.693 110.201Z" fill="#FFCF2D"/>
<path d="M60.386 111.91C60.386 111.91 57.3694 114.572 56.1234 117.328C56.1234 117.328 63.2162 119.731 65.8325 120.27C67.251 120.564 68.069 120.239 68.497 119.956V119.942C68.4763 119.745 68.2071 117.78 66.0672 115.778C65.7324 115.467 64.6348 114.545 63.237 113.947C62.2774 113.537 61.7287 113.557 61.2075 113.088C60.7795 112.704 60.9176 112.407 60.386 111.91Z" fill="white"/>
<path d="M60.4205 111.876C60.8451 112.193 60.776 112.656 61.2731 113.119C61.7287 113.54 63.0402 113.651 64.1033 114.303C64.1412 114.327 64.1792 114.352 64.2172 114.372L64.2482 114.393C64.4726 114.535 64.6866 114.676 64.8868 114.818C64.9282 114.845 64.9662 114.876 65.0076 114.904C65.0628 114.946 65.1215 114.987 65.1732 115.028C65.2147 115.059 65.2595 115.094 65.3009 115.125C65.3355 115.153 65.37 115.18 65.4045 115.204L65.4666 115.256C65.5184 115.298 65.5667 115.339 65.615 115.377C65.615 115.377 65.6185 115.377 65.6185 115.381L65.6703 115.422C65.7255 115.47 65.7807 115.519 65.8359 115.564C65.8463 115.574 65.8601 115.584 65.8704 115.595C65.936 115.653 65.9981 115.712 66.0603 115.767C66.119 115.823 66.1811 115.881 66.2363 115.937C66.257 115.957 66.2812 115.978 66.3019 116.002C66.3675 116.068 66.4296 116.133 66.4917 116.196L66.5331 116.24C66.5469 116.254 66.5607 116.271 66.5745 116.285C66.6022 116.313 66.6298 116.344 66.6539 116.372L66.7368 116.465C66.7506 116.479 66.7644 116.496 66.7747 116.51C66.8679 116.617 66.9542 116.72 67.0336 116.824L67.1371 116.959C67.1613 116.986 67.182 117.017 67.2027 117.045C67.2131 117.059 67.2234 117.073 67.2338 117.09C67.2683 117.138 67.3028 117.183 67.3339 117.228C67.3408 117.238 67.3477 117.249 67.358 117.263C67.4064 117.335 67.4547 117.404 67.4995 117.477C67.5099 117.49 67.5168 117.504 67.5272 117.518C67.5444 117.546 67.5617 117.573 67.5789 117.597C67.5893 117.611 67.5962 117.629 67.6065 117.642C67.6238 117.67 67.6411 117.698 67.6549 117.725C67.6618 117.739 67.6721 117.753 67.679 117.767C67.6859 117.78 67.6963 117.794 67.7032 117.808C67.7101 117.822 67.7204 117.836 67.7273 117.85C67.7515 117.891 67.7722 117.929 67.7929 117.97L67.8136 118.008C67.8205 118.022 67.8274 118.036 67.8343 118.046C67.8481 118.074 67.862 118.098 67.8758 118.122C67.8827 118.136 67.8896 118.147 67.8965 118.16C67.9103 118.184 67.9206 118.212 67.9344 118.236L67.9724 118.312C67.9862 118.336 67.9966 118.361 68.0069 118.385C68.0138 118.399 68.0207 118.412 68.0242 118.426C68.0449 118.475 68.0656 118.519 68.0863 118.564C68.0967 118.589 68.107 118.609 68.1174 118.633C68.1277 118.658 68.1346 118.678 68.145 118.702C68.1553 118.727 68.1622 118.747 68.1726 118.768C68.252 118.972 68.3141 119.155 68.359 119.31C68.3624 119.324 68.3659 119.334 68.3693 119.348C65.7048 120.256 63.734 118.772 62.6191 117.863C61.6596 117.08 61.1799 117.597 60.3688 117.045C59.6923 116.586 59.7441 115.919 58.826 115.522C57.9665 115.153 57.1554 115.522 57.1554 115.522C57.1554 115.522 58.681 113.295 60.4205 111.876Z" fill="#5B2448"/>
<path d="M58.1943 114.496C57.8699 114.496 57.6904 114.407 57.6766 114.4C57.6248 114.372 57.6041 114.31 57.6317 114.262C57.6594 114.21 57.7215 114.189 57.7698 114.217C57.7767 114.22 58.2599 114.448 59.1021 114.075C59.1746 114.044 59.2436 114.013 59.3092 113.982C59.9235 113.702 60.2963 113.533 61.28 113.785C61.3352 113.799 61.3697 113.854 61.3559 113.913C61.3421 113.968 61.2869 114.003 61.2282 113.989C60.317 113.754 60.0098 113.896 59.3955 114.175C59.3299 114.206 59.2608 114.237 59.1849 114.269C58.7776 114.441 58.4428 114.496 58.1943 114.496Z" fill="white"/>
<path d="M66.7471 119.721C64.8557 119.721 63.4648 118.585 62.6329 117.905C62.1256 117.49 61.7494 117.446 61.3835 117.404C61.0694 117.366 60.7484 117.328 60.3619 117.069C60.0616 116.865 59.8925 116.624 59.7302 116.392C59.5163 116.085 59.3126 115.798 58.8087 115.581C57.9976 115.232 57.2176 115.588 57.2107 115.591C57.1658 115.612 57.1175 115.591 57.0968 115.55C57.0761 115.505 57.0968 115.457 57.1382 115.436C57.1727 115.419 57.9941 115.042 58.8777 115.422C59.4265 115.66 59.6543 115.981 59.8718 116.296C60.0305 116.524 60.1824 116.741 60.4585 116.928C60.8071 117.166 61.097 117.2 61.4008 117.235C61.7908 117.28 62.1946 117.328 62.7399 117.774C63.2473 118.188 64.017 118.816 64.9765 119.2C66.0844 119.642 67.1855 119.669 68.3383 119.276C68.3831 119.262 68.4314 119.286 68.4453 119.331C68.4591 119.376 68.4349 119.424 68.39 119.438C67.862 119.624 67.3063 119.718 66.7471 119.721Z" fill="#5B2448"/>
<path d="M58.5809 117.656C58.4118 117.656 58.2461 117.629 58.0873 117.584C57.473 117.404 57.083 116.966 57.1934 116.589C57.2486 116.399 57.4212 116.261 57.6732 116.199C57.9113 116.14 58.1978 116.154 58.4843 116.237C59.0986 116.417 59.4886 116.855 59.3782 117.231C59.323 117.421 59.1504 117.559 58.8984 117.622C58.7949 117.646 58.6879 117.656 58.5809 117.656ZM57.9872 116.33C57.8941 116.33 57.8043 116.341 57.7146 116.361C57.5213 116.41 57.3936 116.506 57.3591 116.634C57.2797 116.91 57.6352 117.269 58.1357 117.414C58.3911 117.49 58.6465 117.501 58.857 117.449C59.0503 117.401 59.178 117.304 59.2125 117.176C59.2919 116.9 58.9364 116.541 58.4359 116.396C58.291 116.354 58.1391 116.334 57.9872 116.33Z" fill="#6D2A53"/>
<path d="M66.8783 120.467C66.5193 120.463 66.1638 120.425 65.8152 120.353C63.2266 119.821 56.0682 117.497 55.9957 117.477C55.9509 117.463 55.9267 117.414 55.9405 117.369C55.9405 117.366 55.944 117.363 55.944 117.359C57.3729 114.396 60.2825 111.889 60.3135 111.865C60.3515 111.834 60.4067 111.841 60.4343 111.879C60.462 111.914 60.4585 111.965 60.424 111.996C60.3964 112.021 57.5696 114.455 56.1407 117.345C57.0001 117.622 63.4302 119.69 65.8463 120.187C66.578 120.339 67.6065 120.408 68.4004 119.914C68.3555 119.573 68.0207 117.729 66.0016 115.84C65.9809 115.822 65.9602 115.802 65.936 115.778C65.5805 115.443 64.7487 114.652 63.1541 114.048C63.1093 114.03 63.0885 113.982 63.1024 113.937C63.1196 113.892 63.1679 113.872 63.2128 113.885C64.8384 114.503 65.6875 115.308 66.0534 115.65C66.0775 115.671 66.0982 115.691 66.1155 115.709C68.2554 117.711 68.5453 119.68 68.573 119.921V119.942C68.5764 119.973 68.5626 120.004 68.535 120.021C68.0345 120.36 67.4409 120.467 66.8783 120.467Z" fill="#5B2448"/>
<path d="M62.343 116.178C62.2015 116.178 62.0842 116.061 62.0842 115.919C62.0842 115.854 62.1083 115.791 62.1532 115.743C62.1981 115.695 63.2818 114.562 65.0317 114.662C65.1732 114.669 65.2837 114.793 65.2768 114.935C65.2699 115.077 65.1456 115.187 65.0041 115.18C63.5027 115.094 62.5398 116.092 62.5294 116.099C62.4811 116.147 62.4121 116.178 62.343 116.178ZM63.3405 116.941C63.199 116.941 63.0816 116.824 63.0816 116.682C63.0816 116.617 63.1058 116.551 63.1507 116.506C63.1955 116.458 64.2655 115.346 65.9947 115.446C66.1362 115.456 66.2467 115.577 66.2363 115.722C66.2259 115.864 66.1051 115.971 65.9636 115.964C64.4726 115.878 63.5372 116.855 63.5269 116.862C63.482 116.914 63.413 116.941 63.3405 116.941ZM64.5382 117.67C64.3967 117.67 64.2793 117.552 64.2793 117.411C64.2793 117.342 64.3069 117.276 64.3552 117.228C64.3967 117.186 65.3562 116.233 66.9266 116.344C67.0681 116.354 67.1751 116.479 67.1682 116.62C67.1613 116.762 67.0336 116.869 66.8921 116.862C65.5529 116.769 64.7315 117.587 64.7246 117.594C64.6728 117.642 64.6072 117.67 64.5382 117.67Z" fill="#FFCF2D"/>
<path d="M89.5269 81.6199C92.9853 82.3485 98.9392 83.5709 102.563 88.0253C106.584 92.9667 104.016 102.362 104.016 102.362C104.016 102.362 100.989 103.091 98.5491 101.568C96.071 100.021 94.2969 98.8852 93.5859 100.232C93.5859 100.232 94.0173 99.3756 95.574 96.9653C97.3825 94.1614 93.5514 91.1089 85.5715 90.294C84.7535 98.0703 76.9877 108.54 67.7998 112.974C65.8118 111.838 64.6072 109.745 64.2172 108.077C63.8272 106.409 63.5441 102.791 61.4491 103.391C64.0757 101.938 67.6756 102.214 70.9545 100.27C74.9617 97.8908 73.2635 90.4356 74.2023 86.5854L89.5269 81.6199Z" fill="#21A0AA"/>
<path d="M74.6959 97.3588C74.727 97.3174 74.7201 97.2656 74.6821 97.2345C74.6441 97.2069 74.5889 97.2138 74.5613 97.2518C74.0712 97.8768 73.1117 98.7124 72.059 99.4341C71.983 99.4859 71.9106 99.5343 71.8381 99.5826C71.5827 99.8416 71.2893 100.073 70.9614 100.266C70.6784 100.432 70.3953 100.584 70.1089 100.722C71.5999 100.125 73.8192 98.4776 74.6959 97.3588ZM85.7993 87.6384C85.751 87.6384 85.7131 87.6799 85.7165 87.7282C85.72 88.588 85.6647 89.4409 85.5715 90.2938C85.6302 90.3007 85.6854 90.3042 85.7441 90.3111C85.8373 89.4513 85.8925 88.5915 85.8891 87.7248C85.8856 87.673 85.8477 87.6384 85.7993 87.6384ZM96.4265 92.9493C96.3609 92.0204 96.1435 91.4437 96.1331 91.4195C96.1158 91.3781 96.0675 91.3539 96.0227 91.3712C95.9778 91.3885 95.9536 91.4368 95.9709 91.4817C95.9778 91.5024 96.6129 93.2013 96.0088 95.4286C96.0296 95.7359 95.9881 96.0467 95.8777 96.3574C96.3195 95.2766 96.5059 94.1129 96.4265 92.9493Z" fill="#6CE0DC"/>
<path d="M75.8142 78.8333C75.8142 78.8333 73.3947 81.171 72.3731 83.1634C71.3514 85.1558 70.6335 87.2104 71.096 87.421C72.2695 87.9632 74.8926 83.1634 75.8142 78.8333Z" fill="#5B2448"/>
<path d="M74.1851 65.9879C73.053 65.4043 69.7154 66.5887 67.6203 72.8733C65.5253 79.1579 67.0543 83.0944 68.3314 84.4066C68.2278 84.7346 68.2554 85.0903 68.4038 85.4011C68.6592 85.9466 69.6464 87.0344 71.0995 87.4246C70.5679 86.8583 72.128 82.2415 75.8176 78.8368C77.3777 74.2925 76.5252 67.193 74.1851 65.9879Z" fill="#66B0F0"/>
<path d="M81.0225 66.0636C80.9258 65.9462 80.8292 65.8392 80.7395 65.746C80.4875 65.4801 80.2528 65.2694 80.0354 65.1106C79.9801 65.1382 79.9215 65.1693 79.8662 65.2004C80.094 65.3523 80.3425 65.5699 80.6048 65.8461C80.6083 65.853 80.6118 65.8599 80.6187 65.8668C81.1364 66.3848 81.8232 67.4656 81.9647 67.842C82.0786 68.1458 82.02 68.1942 82.02 68.1976C82.0131 68.2011 81.9509 68.2425 81.6714 68.101C81.4539 67.9905 81.1812 67.8144 80.9707 67.6693C80.9707 67.6693 80.9673 67.6693 80.9673 67.6659C80.9258 67.6382 80.8741 67.6521 80.8465 67.69C80.8188 67.728 80.8326 67.7833 80.8706 67.8109C81.4505 68.2045 81.7784 68.3772 81.9751 68.3772C82.0269 68.3807 82.0786 68.3634 82.1201 68.3323C82.234 68.2425 82.2098 68.0595 82.1615 67.8938C83.8769 70.5181 85.7096 74.4132 86.5034 77.4864C86.5621 77.4795 86.6208 77.476 86.676 77.4691C86.0996 75.235 84.9227 72.3897 83.511 69.8206C82.6378 68.2356 81.7749 66.9407 81.0225 66.0636ZM76.5183 70.5354C76.3008 69.3164 75.9626 68.2253 75.5381 67.3793C75.4759 67.2584 75.4138 67.141 75.3517 67.0305C75.7866 67.4621 76.4458 68.0837 77.5192 69.016C78.2647 69.6617 78.8066 69.976 79.1863 69.976C79.276 69.976 79.3658 69.9553 79.4451 69.9138C79.9663 69.6376 79.8317 68.5153 79.6971 67.4345C79.6799 67.2895 79.6626 67.1514 79.6488 67.0167C79.5936 67.0167 79.5349 67.0167 79.4762 67.0132C79.4935 67.1548 79.5107 67.3033 79.528 67.4552C79.6419 68.3841 79.7834 69.5374 79.3658 69.7619C78.9965 69.9587 78.2199 69.3924 77.6331 68.8848C76.1904 67.6382 75.5035 66.9407 75.0928 66.5264C74.7442 66.1741 74.5751 66.0015 74.3024 65.8496C74.2886 65.8426 74.2783 65.8357 74.2645 65.8288C74.2127 65.8875 74.1678 65.9359 74.1437 65.9601C74.1713 65.9739 74.1989 65.9877 74.223 66.0015C75.1239 66.5436 75.9453 68.2874 76.3526 70.5664C76.8255 73.2219 76.6667 76.1397 75.9143 78.6225C74.8236 78.5983 71.8312 79.1128 70.2642 80.0175C70.2366 80.0313 70.2193 80.0624 70.2228 80.0935C70.2228 80.1418 70.2607 80.1798 70.3091 80.1798C70.3229 80.1798 70.3401 80.1763 70.3505 80.1694C71.6551 79.4132 73.9642 78.9367 75.293 78.8227C74.0401 79.2509 72.6319 79.9761 71.4135 80.829C69.85 81.9236 68.7179 83.1356 68.2071 84.2613C68.2485 84.3097 68.2934 84.358 68.3348 84.3995C68.818 83.2807 69.9432 82.0686 71.5136 80.9706C72.8701 80.0141 74.4681 79.2268 75.8142 78.8366C75.8901 78.8124 75.966 78.7917 76.042 78.7709C76.8289 76.2398 77.0015 73.2529 76.5183 70.5354Z" fill="#B0DCF7"/>
<path d="M79.6453 67.0168C80.6049 67.2309 81.0984 67.6246 81.3469 67.9388C81.6299 68.2945 81.5782 68.7365 81.5782 68.7365C81.5782 68.7365 86.0306 74.6102 88.4432 81.9928L86.6415 84.3409C86.5276 84.4894 86.3412 84.5654 86.1548 84.5377L83.1555 84.0854C83.1555 84.0854 82.3409 77.3795 81.7715 74.9278C81.202 72.4762 80.1769 69.3546 80.1769 69.3546C79.7868 69.106 79.8593 68.8573 79.7868 68.2185C79.7213 67.6177 79.6453 67.0168 79.6453 67.0168Z" fill="#F94F46"/>
<path d="M80.1458 69.541C80.1009 69.541 80.0526 69.5376 80.0077 69.5341C79.9594 69.5272 79.9249 69.4858 79.9318 69.4374C79.9387 69.3891 79.9801 69.3546 80.0284 69.3615H80.0319C80.5703 69.4305 81.3607 69.0093 81.6541 68.6156C81.6817 68.5776 81.7369 68.5707 81.7749 68.5983C81.8129 68.626 81.8198 68.6812 81.7922 68.7192C81.485 69.1232 80.736 69.541 80.1458 69.541Z" fill="#66B0F0"/>
<path d="M96.071 78.6917C95.9709 78.7643 95.8673 78.8333 95.7603 78.9058C94.328 79.8485 92.2329 80.7152 89.5269 81.6199C89.2508 81.7132 88.9678 81.8064 88.6779 81.8996C88.6606 81.9066 88.6434 81.91 88.6227 81.9169C88.5053 81.9549 88.388 81.9929 88.2672 82.0309C88.1291 82.0758 87.9876 82.1206 87.8426 82.1724C87.4457 82.3106 87.0315 82.4694 86.6001 82.6421C86.1997 82.8009 85.7855 82.977 85.361 83.1566C85.3437 83.1635 85.3265 83.1704 85.3127 83.1773C81.5609 84.7761 76.86 86.9895 72.6561 86.5337C72.6216 86.5302 72.5836 86.5268 72.5491 86.5199C72.4835 86.513 72.4214 86.5026 72.3558 86.4957C71.9382 86.437 71.524 86.3507 71.1167 86.2333C71.5343 84.5136 73.0944 81.3472 75.8142 78.8333C75.8832 78.8126 75.9522 78.7919 76.0213 78.7746C76.0282 78.7712 76.0385 78.7712 76.0454 78.7677C78.458 78.0875 81.5195 77.8665 84.1116 77.68C85.0366 77.6144 85.9029 77.5522 86.6588 77.4728C86.8486 77.4521 87.0281 77.4314 87.2041 77.4107C88.6606 77.2311 90.7522 76.6061 91.8153 75.9569C92.975 75.249 93.2373 75.5322 92.6298 76.3126C91.2803 78.0529 93.3995 76.9583 95.36 76.3471C96.9546 75.8499 96.2815 76.6648 96.1055 76.8098C96.637 76.5612 97.4895 76.3851 96.637 77.4141C97.2065 77.0964 97.3239 77.7939 96.071 78.6917Z" fill="#F4ADA2"/>
<path d="M76.0489 78.7676C75.3551 79.472 72.9805 82.7386 72.5456 86.5197C72.48 86.5128 72.4179 86.5025 72.3523 86.4956C71.9347 86.4369 71.5205 86.3505 71.1133 86.2331C71.5343 84.5135 73.0944 81.347 75.8142 78.8332C75.8832 78.8125 75.9522 78.7918 76.0213 78.7745C76.0316 78.771 76.0385 78.7676 76.0489 78.7676Z" fill="#9B3C82"/>
<path d="M89.527 81.6199C91.0007 81.9237 98.556 83.9438 102.812 78.9058C103.806 78.1944 105.224 77.8975 104.337 77.7006C104.02 77.6281 103.523 77.6661 103.523 77.6661C103.523 77.6661 103.913 76.6716 104.054 75.9258C104.196 75.1799 103.878 75.1799 103.343 76.0328C103.485 75.2524 103.343 74.5791 102.563 76.0328C102.636 75.1799 102.529 74.7206 101.321 76.6371C101.393 76.0328 101.321 75.7151 100.361 76.9928C99.4017 78.2704 97.9831 78.9092 97.9831 78.9092H95.7465L89.527 81.6199Z" fill="#F4ADA2"/>
<path d="M95.7534 78.9092C94.2658 79.731 92.7506 80.4458 89.5373 81.6233C89.6236 81.6406 89.7271 81.6647 89.8514 81.6924C93.0958 80.4976 94.6006 79.7759 96.1435 78.9092H95.7879H95.7534ZM93.6239 78.2497C93.6239 78.298 93.6618 78.336 93.7102 78.336C93.7205 78.336 93.7309 78.3325 93.7378 78.3325C94.4867 78.0632 95.5843 77.5487 96.5645 76.6474C96.4196 76.6785 96.247 76.7407 96.1089 76.8063C95.2392 77.5141 94.3314 77.9354 93.6791 78.1702C93.648 78.1806 93.6239 78.2117 93.6239 78.2497ZM94.1209 79.0646C94.1209 79.1129 94.1588 79.1509 94.2072 79.1509C94.2175 79.1509 94.2279 79.1475 94.2382 79.144C95.0838 78.8056 96.4437 77.9458 96.9338 77.3449V77.3415C96.8614 77.3208 96.7613 77.3415 96.6336 77.414L96.637 77.4106C96.1055 77.9389 94.9941 78.6571 94.1727 78.9852C94.145 78.999 94.1209 79.03 94.1209 79.0646ZM96.9925 79.7138C96.9856 79.7241 96.9822 79.7379 96.9822 79.7517C96.9822 79.8001 97.0201 79.8381 97.0685 79.8381C97.0995 79.8381 97.1306 79.8208 97.1444 79.7897C97.1478 79.7863 97.3998 79.3028 97.9831 78.9092H97.6966C97.2169 79.2959 97.0029 79.6965 96.9925 79.7138ZM100.365 78.6744C100.365 78.7227 100.403 78.7607 100.451 78.7607C100.479 78.7607 100.506 78.7469 100.52 78.7227C100.554 78.6744 101.369 77.5176 101.593 76.2192C101.511 76.3436 101.417 76.4782 101.321 76.6336C101.02 77.711 100.385 78.6157 100.378 78.626C100.372 78.6398 100.365 78.6571 100.365 78.6744ZM101.535 78.7089C101.535 78.7573 101.573 78.7952 101.621 78.7952C101.652 78.7952 101.683 78.778 101.697 78.7469C102.077 78.001 102.694 76.5507 102.836 75.5701C102.757 75.6909 102.66 75.8498 102.563 76.0328C102.335 76.9444 101.859 78.0459 101.545 78.6675C101.538 78.6813 101.535 78.6951 101.535 78.7089ZM102.387 78.7089C102.387 78.7573 102.425 78.7952 102.473 78.7952C102.505 78.7952 102.536 78.778 102.549 78.7503C103.019 77.8802 103.402 76.5784 103.602 75.6633C103.523 75.76 103.436 75.8808 103.343 76.0293C103.343 76.0328 103.34 76.05 103.343 76.0293C103.133 76.8926 102.805 77.9182 102.398 78.6675C102.391 78.6813 102.387 78.6951 102.387 78.7089ZM103.523 77.6661C103.319 78.1012 103.081 78.519 102.805 78.9126C102.808 78.9092 102.808 78.9057 102.812 78.9057C102.926 78.8229 103.046 78.7469 103.171 78.6744C103.378 78.3463 103.557 78.0079 103.716 77.6557C103.612 77.6557 103.537 77.6661 103.523 77.6661Z" fill="#9B3C82"/>
<path d="M87.8806 82.5072L86.5966 82.6385L86.0962 82.6902L85.4611 82.7559C85.4197 82.3415 85.3541 81.9168 85.2782 81.4886C85.2506 81.3401 85.2195 81.1882 85.1884 81.0397C84.933 79.8449 84.5568 78.664 84.1081 77.6798C85.0331 77.6142 85.8994 77.5521 86.6553 77.4727C87.0039 78.3705 87.2835 79.289 87.4975 80.2282C87.5251 80.3525 87.5527 80.4803 87.5803 80.6046C87.6631 80.9913 87.7322 81.3781 87.7874 81.7648C87.8012 81.8512 87.8116 81.934 87.8219 82.0204C87.8288 82.0687 87.8357 82.117 87.8392 82.1654C87.8564 82.2828 87.8702 82.3933 87.8806 82.5072Z" fill="#5B2448"/>
<path d="M87.2336 83.1386C88.3155 82.7227 88.9575 81.7736 88.6676 81.0188C88.3777 80.264 87.2656 79.9892 86.1837 80.4051C85.1018 80.821 84.4598 81.7701 84.7497 82.5249C85.0396 83.2798 86.1517 83.5545 87.2336 83.1386Z" fill="#5B2448"/>
<path d="M86.1169 80.2421C85.7372 80.3871 85.4093 80.5943 85.147 80.836L85.1884 81.0328C85.4473 80.7773 85.7821 80.5563 86.179 80.4044C86.6208 80.2352 87.0798 80.173 87.4975 80.2213L87.4561 80.0452C87.0281 80.0038 86.5656 80.0694 86.1169 80.2421Z" fill="white"/>
<path d="M87.2422 83.1596C88.2921 82.756 88.9414 81.9035 88.6925 81.2555C88.4436 80.6075 87.3908 80.4093 86.3409 80.8129C85.291 81.2165 84.6417 82.069 84.8906 82.717C85.1395 83.365 86.1923 83.5632 87.2422 83.1596Z" fill="white"/>
<path d="M86.8313 82.2067C86.7934 82.2067 86.7623 82.1826 86.7485 82.148L86.4965 81.4091C86.4827 81.3642 86.5069 81.3158 86.5518 81.2986C86.5966 81.2848 86.645 81.3089 86.6588 81.3504L86.8831 82.0065L87.9427 81.6197C87.9876 81.6024 88.0359 81.6266 88.0532 81.6715C88.0704 81.7164 88.0463 81.7647 88.0014 81.782L86.8589 82.1998C86.852 82.2033 86.8417 82.2067 86.8313 82.2067Z" fill="#5B2448"/>
</g>
<g clip-path="url(#clip3_220_11165)">
<path d="M102.812 67.2082V75.5968C102.736 75.7109 102.653 75.8526 102.563 76.0221C102.635 75.168 102.528 74.7081 101.319 76.6272C101.388 76.0221 101.319 75.704 100.359 76.9833C99.3986 78.2627 97.9789 78.9024 97.9789 78.9024H95.7508C95.8579 78.8332 95.9615 78.7606 96.0617 78.688C97.3156 77.789 97.1982 77.0905 96.6282 77.4086C97.4815 76.3782 96.6282 76.5546 96.0963 76.8035C96.1446 76.7655 96.1861 76.7205 96.2275 76.6721C96.4452 76.4093 96.6593 75.9356 95.3536 76.3436C95.3501 76.3436 95.3467 76.3471 95.3398 76.3471C95.281 76.3644 95.2258 76.3817 95.167 76.4024C93.2602 77.0214 91.312 77.993 92.6177 76.3091C93.2222 75.5276 92.9597 75.2441 91.8025 75.9529C91.4743 76.1465 91.1289 76.316 90.7731 76.4577C89.8508 76.8346 88.7005 77.1562 87.7195 77.3291V67.2082L87.7402 67.1909H102.794L102.812 67.2082Z" fill="#FFCF2D"/>
<path d="M102.812 67.2151V75.5933C102.736 75.7074 102.656 75.8492 102.563 76.0186C102.635 75.1645 102.528 74.7047 101.319 76.6237C101.388 76.0186 101.319 75.7005 100.359 76.9799C99.3986 78.2592 97.9789 78.8989 97.9789 78.8989H95.7508C95.8579 78.8298 95.9615 78.7572 96.0617 78.6846C97.3156 77.7855 97.1982 77.0871 96.6282 77.4052C97.4815 76.3748 96.6282 76.5511 96.0963 76.8001C96.1446 76.7586 96.1861 76.7171 96.2275 76.6687C98.8943 74.9847 100.708 72.6092 101.744 70.4965C102.366 69.231 102.711 68.0623 102.794 67.1909L102.812 67.2151Z" fill="#FFBD11"/>
<path d="M95.3536 67.1909V67.4606L95.3432 76.3471C95.2845 76.3644 95.2292 76.3817 95.1705 76.4024L95.1809 67.471V67.1909H95.2672H95.3536Z" fill="#9B3C82"/>
<path d="M95.3916 67.2083L92.2688 71.081H87.7229V67.6336L95.3916 67.2083Z" fill="#9B3C82"/>
<path d="M102.812 67.6334V71.0808H98.2656L95.1774 67.2427L102.812 67.6334Z" fill="#9B3C82"/>
<path d="M95.2672 67.1909L95.2396 67.2186L95.2119 67.2462L95.1947 67.2635L95.1809 67.2774L91.9303 70.4965H84.4033L87.7229 67.2082L87.7402 67.1909H95.2672ZM106.131 70.4965H98.6041L95.3536 67.2774L95.3432 67.267L95.3294 67.2532L95.2914 67.2151L95.2672 67.1909H102.794L102.812 67.2082L106.131 70.4965Z" fill="#FFCF2D"/>
</g>
<g clip-path="url(#clip4_220_11165)">
<path d="M91.1165 65.1492C91.0982 65.1492 91.0803 65.1434 91.0656 65.1327C91.0508 65.1219 91.0398 65.1068 91.0342 65.0894C91.0199 65.0456 89.6009 60.6777 88.3032 58.0887C88.2931 58.0682 88.2916 58.0446 88.2989 58.023C88.3062 58.0015 88.3218 57.9836 88.3422 57.9734C88.3626 57.9632 88.3863 57.9615 88.408 57.9686C88.4297 57.9758 88.4477 57.9912 88.458 58.0114C89.7615 60.6123 91.1846 64.9924 91.1988 65.0363C91.203 65.0493 91.2041 65.063 91.202 65.0765C91.1998 65.0899 91.1945 65.1027 91.1865 65.1137C91.1784 65.1247 91.1679 65.1337 91.1557 65.1398C91.1436 65.146 91.1301 65.1492 91.1165 65.1492ZM91.7569 62.9838C91.7382 62.9837 91.7199 62.9776 91.7049 62.9664C91.6899 62.9551 91.679 62.9393 91.6738 62.9213C91.6675 62.8991 91.027 60.6874 90.4402 59.2876C90.4321 59.2667 90.4326 59.2434 90.4414 59.2228C90.4503 59.2021 90.4668 59.1857 90.4876 59.1771C90.5083 59.1684 90.5317 59.1681 90.5526 59.1763C90.5736 59.1845 90.5905 59.2005 90.5998 59.221C91.1905 60.6302 91.8336 62.8511 91.8401 62.8735C91.8438 62.8863 91.8444 62.8999 91.842 62.913C91.8396 62.9262 91.8341 62.9386 91.8261 62.9493C91.818 62.96 91.8076 62.9687 91.7956 62.9747C91.7836 62.9806 91.7704 62.9838 91.757 62.9838H91.7569ZM95.2009 64.6299C95.1783 64.63 95.1566 64.6211 95.1404 64.6054C95.1243 64.5896 95.1149 64.5682 95.1144 64.5457C95.0747 62.8843 94.7734 61.1391 94.5276 59.9675C94.5252 59.9563 94.5251 59.9449 94.5272 59.9337C94.5293 59.9225 94.5335 59.9119 94.5398 59.9024C94.546 59.8929 94.554 59.8847 94.5634 59.8783C94.5728 59.8718 94.5834 59.8673 94.5945 59.865C94.6057 59.8627 94.6172 59.8626 94.6284 59.8647C94.6396 59.8668 94.6502 59.8711 94.6597 59.8773C94.6693 59.8836 94.6775 59.8916 94.6839 59.901C94.6903 59.9104 94.6947 59.921 94.697 59.9321C94.9443 61.1107 95.2475 62.8672 95.2874 64.5415C95.2879 64.5644 95.2794 64.5866 95.2635 64.6032C95.2477 64.6198 95.2259 64.6294 95.203 64.6299H95.2009ZM98.838 64.7942H98.8345C98.8116 64.7933 98.79 64.7834 98.7744 64.7666C98.7588 64.7498 98.7505 64.7275 98.7514 64.7047C98.8234 62.8008 99.2664 59.531 100.069 56.851C100.075 56.8291 100.09 56.8106 100.111 56.7997C100.131 56.7888 100.154 56.7864 100.176 56.7929C100.199 56.7995 100.217 56.8145 100.228 56.8346C100.239 56.8548 100.241 56.8785 100.235 56.9004C99.4367 59.566 98.9961 62.8178 98.9245 64.7112C98.9237 64.7335 98.9142 64.7546 98.898 64.7701C98.8819 64.7856 98.8603 64.7942 98.838 64.7942ZM100.325 63.2829C100.323 63.2829 100.321 63.2829 100.319 63.2827C100.307 63.2819 100.296 63.2789 100.286 63.2738C100.276 63.2688 100.267 63.2618 100.259 63.2532C100.252 63.2446 100.246 63.2347 100.243 63.2239C100.239 63.2132 100.238 63.2018 100.238 63.1905C100.343 61.6996 100.724 59.5519 101.107 58.3012C101.114 58.2794 101.129 58.2612 101.15 58.2505C101.17 58.2399 101.193 58.2376 101.215 58.2443C101.237 58.2509 101.255 58.266 101.266 58.2861C101.277 58.3062 101.279 58.3297 101.273 58.3516C100.893 59.5919 100.514 61.7227 100.411 63.2025C100.409 63.2243 100.4 63.2447 100.384 63.2596C100.368 63.2745 100.347 63.2828 100.325 63.2829Z" fill="#90C6F5"/>
</g>
<g clip-path="url(#clip5_220_11165)">
<path d="M96.071 78.6917C95.9709 78.7643 95.8673 78.8333 95.7603 78.9058C94.3279 79.8485 92.2329 80.7152 89.5269 81.6199C89.2508 81.7132 88.9678 81.8064 88.6779 81.8996C88.6606 81.9066 88.6434 81.91 88.6226 81.9169C88.5053 81.9549 88.3879 81.9929 88.2671 82.0309C88.1291 82.0758 87.9876 82.1206 87.8426 82.1724C87.4457 82.3106 87.0315 82.4694 86.6001 82.6421C86.1997 82.8009 85.7855 82.977 85.361 83.1566C85.3437 83.1635 85.3265 83.1704 85.3127 83.1773C81.5609 84.7761 76.86 86.9895 72.6561 86.5337C72.6215 86.5302 72.5836 86.5268 72.5491 86.5199C72.4835 86.513 72.4214 86.5026 72.3558 86.4957C71.9382 86.437 71.524 86.3507 71.1167 86.2333C71.5343 84.5136 73.0944 81.3472 75.8142 78.8333C75.8832 78.8126 75.9522 78.7919 76.0213 78.7746C76.0282 78.7712 76.0385 78.7712 76.0454 78.7677C78.458 78.0875 81.5195 77.8665 84.1115 77.68C85.0365 77.6144 85.9029 77.5522 86.6587 77.4728C86.8486 77.4521 87.0281 77.4314 87.2041 77.4107C88.6606 77.2311 90.7522 76.6061 91.8153 75.9569C92.975 75.249 93.2373 75.5322 92.6298 76.3126C91.2803 78.0529 93.3995 76.9583 95.3599 76.3471C96.9545 75.8499 96.2815 76.6648 96.1055 76.8098C96.637 76.5612 97.4895 76.3851 96.637 77.4141C97.2065 77.0964 97.3238 77.7939 96.071 78.6917Z" fill="#F4ADA2"/>
<path d="M89.5269 81.6199C91.0007 81.9237 98.556 83.9438 102.812 78.9058C103.806 78.1944 105.224 77.8975 104.337 77.7006C104.02 77.6281 103.523 77.6661 103.523 77.6661C103.523 77.6661 103.913 76.6716 104.054 75.9258C104.196 75.1799 103.878 75.1799 103.343 76.0328C103.485 75.2524 103.343 74.5791 102.563 76.0328C102.636 75.1799 102.529 74.7206 101.321 76.6371C101.393 76.0328 101.321 75.7151 100.361 76.9928C99.4016 78.2704 97.9831 78.9092 97.9831 78.9092H95.7465L89.5269 81.6199Z" fill="#F4ADA2"/>
<path d="M95.7534 78.9094C94.2658 79.7313 92.7506 80.4461 89.5373 81.6235C89.6236 81.6408 89.7271 81.665 89.8514 81.6926C93.0958 80.4978 94.6006 79.7762 96.1434 78.9094H95.7879H95.7534ZM93.6238 78.2499C93.6238 78.2982 93.6618 78.3362 93.7101 78.3362C93.7205 78.3362 93.7308 78.3328 93.7378 78.3328C94.4867 78.0634 95.5843 77.5489 96.5645 76.6477C96.4196 76.6787 96.247 76.7409 96.1089 76.8065C95.2391 77.5144 94.3314 77.9357 93.6791 78.1705C93.648 78.1808 93.6238 78.2119 93.6238 78.2499ZM94.1209 79.0648C94.1209 79.1132 94.1588 79.1511 94.2072 79.1511C94.2175 79.1511 94.2279 79.1477 94.2382 79.1442C95.0838 78.8058 96.4437 77.946 96.9338 77.3452V77.3417C96.8613 77.321 96.7613 77.3417 96.6335 77.4143L96.637 77.4108C96.1055 77.9391 94.9941 78.6574 94.1726 78.9854C94.145 78.9992 94.1209 79.0303 94.1209 79.0648ZM96.9925 79.714C96.9856 79.7244 96.9821 79.7382 96.9821 79.752C96.9821 79.8003 97.0201 79.8383 97.0684 79.8383C97.0995 79.8383 97.1306 79.821 97.1444 79.79C97.1478 79.7865 97.3998 79.3031 97.9831 78.9094H97.6966C97.2168 79.2962 97.0029 79.6967 96.9925 79.714ZM100.365 78.6746C100.365 78.723 100.403 78.761 100.451 78.761C100.479 78.761 100.506 78.7471 100.52 78.723C100.554 78.6746 101.369 77.5178 101.593 76.2195C101.51 76.3438 101.417 76.4785 101.321 76.6339C101.02 77.7112 100.385 78.6159 100.378 78.6263C100.372 78.6401 100.365 78.6574 100.365 78.6746ZM101.535 78.7092C101.535 78.7575 101.573 78.7955 101.621 78.7955C101.652 78.7955 101.683 78.7782 101.697 78.7471C102.077 78.0013 102.694 76.551 102.836 75.5703C102.756 75.6912 102.66 75.85 102.563 76.033C102.335 76.9446 101.859 78.0462 101.545 78.6677C101.538 78.6815 101.535 78.6953 101.535 78.7092ZM102.387 78.7092C102.387 78.7575 102.425 78.7955 102.473 78.7955C102.505 78.7955 102.536 78.7782 102.549 78.7506C103.019 77.8804 103.402 76.5786 103.602 75.6635C103.523 75.7602 103.436 75.8811 103.343 76.0296C103.343 76.033 103.34 76.0503 103.343 76.0296C103.133 76.8928 102.805 77.9184 102.398 78.6677C102.391 78.6815 102.387 78.6953 102.387 78.7092ZM103.523 77.6663C103.319 78.1014 103.081 78.5192 102.805 78.9129C102.808 78.9094 102.808 78.906 102.812 78.906C102.926 78.8231 103.046 78.7471 103.171 78.6746C103.378 78.3466 103.557 78.0082 103.716 77.656C103.612 77.656 103.537 77.6663 103.523 77.6663Z" fill="#9B3C82"/>
</g>
</g>
<defs>
<filter id="filter0_d_220_11165" x="0" y="0" width="193" height="193" filterUnits="userSpaceOnUse" color-interpolation-filters="sRGB">
<feFlood flood-opacity="0" result="BackgroundImageFix"/>
<feColorMatrix in="SourceAlpha" type="matrix" values="0 0 0 0 0 0 0 0 0 0 0 0 0 0 0 0 0 0 127 0" result="hardAlpha"/>
<feOffset dy="5"/>
<feGaussianBlur stdDeviation="13"/>
<feColorMatrix type="matrix" values="0 0 0 0 0.12549 0 0 0 0 0.129412 0 0 0 0 0.141176 0 0 0 0.25 0"/>
<feBlend mode="normal" in2="BackgroundImageFix" result="effect1_dropShadow_220_11165"/>
<feBlend mode="normal" in="SourceGraphic" in2="effect1_dropShadow_220_11165" result="shape"/>
</filter>
<linearGradient id="paint0_linear_220_11165" x1="96.5" y1="21" x2="96.5" y2="162" gradientUnits="userSpaceOnUse">
<stop stop-color="#FFCF2D"/>
<stop offset="0.286458"/>
<stop offset="0.510417" stop-color="#FFCF2D"/>
<stop offset="0.661458"/>
<stop offset="1" stop-color="#FFCF2D"/>
</linearGradient>
<linearGradient id="paint1_linear_220_11165" x1="132.328" y1="48.7378" x2="132.328" y2="109.607" gradientUnits="userSpaceOnUse">
<stop stop-color="#F2B705"/>
<stop offset="1" stop-color="#F2B705" stop-opacity="0"/>
</linearGradient>
<clipPath id="clip0_220_11165">
<rect width="54.8205" height="19.7631" fill="white" transform="translate(55.5869 112.38)"/>
</clipPath>
<clipPath id="clip1_220_11165">
<rect width="20.6877" height="7.78197" fill="white" transform="translate(84.3648 50.9336)"/>
</clipPath>
<clipPath id="clip2_220_11165">
<rect width="53.3566" height="66.4164" fill="white" transform="translate(55.9336 54.054)"/>
</clipPath>
<clipPath id="clip3_220_11165">
<rect width="21.7279" height="11.7115" fill="white" transform="translate(84.4033 67.1909)"/>
</clipPath>
<clipPath id="clip4_220_11165">
<rect width="12.9828" height="8.35984" fill="white" transform="translate(88.2943 56.7893)"/>
</clipPath>
<clipPath id="clip5_220_11165">
<rect width="2.08032" height="1.11721" fill="white" transform="translate(93.5303 75.9722)"/>
</clipPath>
</defs>
</svg>
