<svg width="16" height="16" viewBox="0 0 16 16" fill="none" xmlns="http://www.w3.org/2000/svg">
<path d="M3.5 2C2.67578 2 2 2.67578 2 3.5V11.5C2 12.3242 2.67578 13 3.5 13H5V13.5C5 14.3242 5.67578 15 6.5 15H12.5C13.3242 15 14 14.3242 14 13.5V5.5C14 4.67578 13.3242 4 12.5 4H11V3.5C11 2.67578 10.3242 2 9.5 2H3.5ZM3.5 3H9.5C9.78125 3 10 3.21875 10 3.5V11.5C10 11.7812 9.78125 12 9.5 12H3.5C3.21875 12 3 11.7812 3 11.5V3.5C3 3.21875 3.21875 3 3.5 3ZM11 5H12.5C12.7812 5 13 5.21875 13 5.5V13.5C13 13.7812 12.7812 14 12.5 14H6.5C6.21875 14 6 13.7812 6 13.5V13H9.5C10.3242 13 11 12.3242 11 11.5V5Z" fill="white"/>
</svg>
