<svg width="80" height="63" viewBox="0 0 80 63" fill="none" xmlns="http://www.w3.org/2000/svg">
<path d="M72.6251 37.3441C72.8917 36.7966 73.1282 36.2206 73.3326 35.617C75.6731 28.7104 72.1335 20.4366 64.6811 18.4393C63.8757 8.32103 56.7646 1.3797 48.7335 0.194811C39.5415 -1.16074 31.1211 4.67837 28.3193 13.9593C24.9424 12.7628 21.6517 12.9086 18.5504 14.721C17.1433 15.3717 15.8562 16.3317 14.7015 17.5948C13.0064 19.449 11.9042 21.7895 11.4553 24.257C10.7904 24.3619 10.1371 24.4668 9.52108 24.6873C5.92996 25.9753 3.66419 28.6259 3.04285 32.6188C2.65619 35.105 3.43663 37.585 3.87219 38.5868C5.59219 42.5468 9.58063 44.7913 13.6331 44.1975C13.8349 44.1681 14.1282 44.2588 14.3015 44.4046C14.5157 50.7335 17.5886 56.3308 22.1984 59.5281C29.5949 64.6588 39.1113 63.0784 45.1149 56.0428C47.6873 58.6739 50.7486 59.9521 54.3451 59.4881C57.9211 59.0268 60.698 57.0535 62.7237 53.8446C63.6597 54.0961 64.5469 54.4588 65.4642 54.5593C69.0571 54.9521 71.9744 53.5237 74.1149 50.2926C74.9344 49.0561 75.7086 47.4535 75.7086 44.6446C75.7095 41.7504 74.5602 39.113 72.6251 37.3441Z" fill="#E7F1FF"/>
<path fill-rule="evenodd" clip-rule="evenodd" d="M61.7389 3.59299H53.1913C52.946 3.59299 52.7469 3.39388 52.7469 3.14855C52.7469 2.90321 52.946 2.7041 53.1913 2.7041H61.7389C61.9842 2.7041 62.1833 2.90321 62.1833 3.14855C62.1833 3.39388 61.9851 3.59299 61.7389 3.59299ZM48.4589 6.90766H57.3745C57.6207 6.90766 57.8189 6.70855 57.8189 6.46321C57.8189 6.21788 57.6198 6.01877 57.3745 6.01877H48.4589C48.2136 6.01877 48.0145 6.21788 48.0145 6.46321C48.0145 6.70855 48.2136 6.90766 48.4589 6.90766ZM11.074 26.9494H12.1913C12.4376 26.9494 12.6358 26.7503 12.6358 26.505C12.6358 26.2597 12.4367 26.0605 12.1913 26.0605H11.074C10.8287 26.0605 10.6296 26.2597 10.6296 26.505C10.6296 26.7503 10.8287 26.9494 11.074 26.9494ZM12.1913 28.6072H7.7229C7.47756 28.6072 7.27845 28.4081 7.27845 28.1628C7.27845 27.9174 7.47756 27.7183 7.7229 27.7183H12.1913C12.4367 27.7183 12.6358 27.9174 12.6358 28.1628C12.6358 28.4081 12.4376 28.6072 12.1913 28.6072ZM1.18956 30.2659H10.106C10.3513 30.2659 10.5496 30.0668 10.5496 29.8214C10.5496 29.5761 10.3505 29.377 10.1051 29.377H1.18956C0.944228 29.377 0.745117 29.5761 0.745117 29.8214C0.745117 30.0668 0.944228 30.2659 1.18956 30.2659ZM11.3816 30.2659H12.666C12.9122 30.2659 13.1105 30.0668 13.1105 29.8214C13.1105 29.5761 12.9113 29.377 12.666 29.377H11.3816C11.1362 29.377 10.9371 29.5761 10.9371 29.8214C10.9371 30.0668 11.1362 30.2659 11.3816 30.2659ZM16.2705 30.2659H14.0073C13.762 30.2659 13.5629 30.0668 13.5629 29.8214C13.5629 29.5761 13.762 29.377 14.0073 29.377H16.2705C16.5158 29.377 16.7149 29.5761 16.7149 29.8214C16.7149 30.0668 16.5167 30.2659 16.2705 30.2659ZM7.7229 31.9228H16.2705C16.5167 31.9228 16.7149 31.7237 16.7149 31.4783C16.7149 31.233 16.5158 31.0339 16.2705 31.0339H7.7229C7.47756 31.0339 7.27845 31.233 7.27845 31.4783C7.27845 31.7237 7.47756 31.9228 7.7229 31.9228ZM6.18334 31.9228H5.66778C5.42245 31.9228 5.22334 31.7237 5.22334 31.4783C5.22334 31.233 5.42245 31.0339 5.66778 31.0339H6.18334C6.42867 31.0339 6.62778 31.233 6.62778 31.4783C6.62778 31.7237 6.42956 31.9228 6.18334 31.9228ZM2.77712 31.9228H4.07134C4.31667 31.9228 4.51578 31.7237 4.51578 31.4783C4.51578 31.233 4.31667 31.0339 4.07134 31.0339H2.77712C2.53178 31.0339 2.33267 31.233 2.33267 31.4783C2.33267 31.7237 2.53178 31.9228 2.77712 31.9228ZM9.28645 33.5805H7.7229C7.47756 33.5805 7.27845 33.3814 7.27845 33.1361C7.27845 32.8908 7.47756 32.6917 7.7229 32.6917H9.28645C9.53178 32.6917 9.7309 32.8908 9.7309 33.1361C9.7309 33.3814 9.53178 33.5805 9.28645 33.5805ZM59.9353 6.90766H58.6509C58.4056 6.90766 58.2065 6.70855 58.2065 6.46321C58.2065 6.21788 58.4056 6.01877 58.6509 6.01877H59.9353C60.1807 6.01877 60.3798 6.21788 60.3798 6.46321C60.3798 6.70855 60.1816 6.90766 59.9353 6.90766ZM61.2767 6.90766H63.5398C63.7851 6.90766 63.9842 6.70855 63.9842 6.46321C63.9842 6.21788 63.7851 6.01877 63.5398 6.01877H61.2767C61.0313 6.01877 60.8322 6.21788 60.8322 6.46321C60.8322 6.70855 61.0313 6.90766 61.2767 6.90766ZM51.1371 3.59299H51.6527C51.898 3.59299 52.0971 3.39388 52.0971 3.14855C52.0971 2.90321 51.898 2.7041 51.6527 2.7041H51.1371C50.8918 2.7041 50.6927 2.90321 50.6927 3.14855C50.6927 3.39388 50.8918 3.59299 51.1371 3.59299ZM49.5398 3.59299H48.2456C48.0002 3.59299 47.8011 3.39388 47.8011 3.14855C47.8011 2.90321 48.0002 2.7041 48.2456 2.7041H49.5398C49.7851 2.7041 49.9842 2.90321 49.9842 3.14855C49.9842 3.39388 49.7851 3.59299 49.5398 3.59299ZM54.9922 5.24988H59.4607C59.706 5.24988 59.9051 5.05077 59.9051 4.80543C59.9051 4.5601 59.706 4.36099 59.4607 4.36099H54.9922C54.7469 4.36099 54.5478 4.5601 54.5478 4.80543C54.5478 5.05077 54.7469 5.24988 54.9922 5.24988Z" fill="white"/>
<path fill-rule="evenodd" clip-rule="evenodd" d="M58.3434 3.59299H59.4607C59.706 3.59299 59.9051 3.39388 59.9051 3.14855C59.9051 2.90321 59.706 2.7041 59.4607 2.7041H58.3434C58.098 2.7041 57.8989 2.90321 57.8989 3.14855C57.8989 3.39388 58.098 3.59299 58.3434 3.59299ZM52.1354 5.24988H53.6989C53.9443 5.24988 54.1434 5.05077 54.1434 4.80543C54.1434 4.5601 53.9443 4.36099 53.6989 4.36099H52.1354C51.89 4.36099 51.6909 4.5601 51.6909 4.80543C51.6909 5.05077 51.89 5.24988 52.1354 5.24988Z" fill="white"/>
<path d="M26.5994 47.05C26.3541 47.05 26.155 46.8509 26.155 46.6056V31.666C26.155 29.4864 24.3817 27.7131 22.2021 27.7131H19.963C19.7177 27.7131 19.5186 27.514 19.5186 27.2687C19.5186 27.0233 19.7177 26.8242 19.963 26.8242H22.2021C24.8723 26.8242 27.0439 28.9958 27.0439 31.666V46.6064C27.0439 46.8518 26.8457 47.05 26.5994 47.05Z" fill="#202124"/>
<path fill-rule="evenodd" clip-rule="evenodd" d="M18.0857 29.6978C16.9621 29.6978 16.0483 28.7849 16.0483 27.6614C16.0483 26.5378 16.9621 25.624 18.0857 25.624C19.2092 25.624 20.1221 26.5378 20.1221 27.6614C20.1221 28.7849 19.2092 29.6978 18.0857 29.6978ZM18.0857 26.5129C17.4519 26.5129 16.9372 27.0276 16.9372 27.6614C16.9372 28.2942 17.4519 28.8089 18.0857 28.8089C18.7186 28.8089 19.2332 28.2942 19.2332 27.6614C19.2332 27.0276 18.7186 26.5129 18.0857 26.5129ZM42.5772 50.6445C42.5772 50.8898 42.7763 51.0889 43.0217 51.0889C43.267 51.0889 43.4661 50.8907 43.4661 50.6445V39.3485C43.4661 39.1031 43.267 38.904 43.0217 38.904C42.7763 38.904 42.5772 39.1031 42.5772 39.3485V50.6445Z" fill="#202124"/>
<path d="M54.3886 51.0891H32.1842C31.9389 51.0891 31.7397 50.89 31.7397 50.6447C31.7397 50.3993 31.9389 50.2002 32.1842 50.2002H54.3877C55.0313 50.2002 55.554 49.6775 55.554 49.034V39.6473C55.554 39.402 55.7531 39.2029 55.9984 39.2029C56.2437 39.2029 56.4429 39.402 56.4429 39.6473V49.0349C56.4429 50.1673 55.5211 51.0891 54.3886 51.0891Z" fill="#202124"/>
<path d="M42.96 48.6855C42.0582 48.6855 41.3271 49.4166 41.3271 50.3184C41.3271 51.2203 42.0582 51.9513 42.96 51.9513C43.5434 51.9513 44.0825 51.6401 44.3742 51.1349C44.6658 50.6297 44.6658 50.0072 44.3742 49.502C44.0825 48.9968 43.5434 48.6855 42.96 48.6855Z" fill="#F2F3F5"/>
<path fill-rule="evenodd" clip-rule="evenodd" d="M40.9951 50.3183C40.9951 51.4027 41.8769 52.2845 42.9613 52.2845C44.044 52.2845 44.9267 51.4027 44.9267 50.3183C44.9267 49.2338 44.0449 48.3521 42.9613 48.3521C41.8769 48.3521 40.9951 49.2338 40.9951 50.3183ZM41.6618 50.3183C41.6618 49.6018 42.2449 49.0187 42.9613 49.0187C43.6769 49.0187 44.26 49.6018 44.26 50.3183C44.26 51.0347 43.6778 51.6178 42.9613 51.6178C42.2449 51.6178 41.6618 51.0347 41.6618 50.3183Z" fill="#202124"/>
<path d="M41.7158 36.4047L41.7363 38.2438C41.7158 38.9034 42.2483 39.3487 43.0563 39.3487C43.8643 39.3487 44.33 38.7816 44.3283 38.2465V36.4038H41.7158V36.4047Z" fill="#F1BC19"/>
<path fill-rule="evenodd" clip-rule="evenodd" d="M41.6875 39.2802C42.0084 39.6109 42.4946 39.7931 43.0564 39.7931C43.556 39.7931 44.0075 39.6162 44.3293 39.2953C44.612 39.01 44.7738 38.6286 44.7729 38.2473V36.4046C44.7729 36.1593 44.5738 35.9602 44.3284 35.9602H41.716C41.5978 35.9602 41.484 36.0082 41.4004 36.0918C41.3169 36.1753 41.2698 36.29 41.2715 36.4091L41.292 38.2295C41.2786 38.6358 41.4155 39.0002 41.6875 39.2802ZM42.1809 38.2384L42.1649 36.8491V36.8482H43.884V38.2482C43.8849 38.3958 43.8173 38.5486 43.6991 38.6669C43.5915 38.7744 43.3924 38.9042 43.0564 38.9042C42.7373 38.9042 42.4778 38.8189 42.3266 38.6615C42.2244 38.5558 42.1755 38.4206 42.1809 38.2384Z" fill="#472B29"/>
<path d="M45.1906 17.8615C44.6928 17.8615 44.2893 17.4899 44.2893 17.0321V16.2552C44.2893 15.0997 43.2564 14.1548 41.9941 14.1548H31.9328C30.6706 14.1548 29.6377 15.0997 29.6377 16.2552V17.929V18.3841L29.6768 35.3619C31.4697 35.4419 31.6208 36.0561 34.0439 36.0561H51.6137C54.0315 36.0561 56.0093 34.2392 56.0093 32.0197V18.6908C56.0093 18.233 55.6057 17.8615 55.1079 17.8615H45.1906Z" fill="#FFED96"/>
<path fill-rule="evenodd" clip-rule="evenodd" d="M34.0448 36.5005H51.6146C54.283 36.5005 56.4537 34.4898 56.4528 32.0196V18.6916C56.4528 17.9894 55.8493 17.417 55.107 17.417H45.1897C44.9364 17.417 44.7319 17.2436 44.7319 17.0321V16.2552C44.7319 14.8525 43.5035 13.7112 41.9933 13.7112H31.9319C30.4217 13.7112 29.1924 14.8525 29.1924 16.2552L29.2324 35.3627C29.2333 35.601 29.4199 35.7947 29.6573 35.8054C30.3958 35.8382 30.8161 35.9633 31.3023 36.1079L31.3044 36.1085C31.9248 36.2925 32.6279 36.5005 34.0448 36.5005ZM31.5577 35.2561C31.1479 35.1343 30.7284 35.0098 30.1213 34.9485L30.0822 16.2543C30.0822 15.3414 30.9124 14.5992 31.9328 14.5992H41.9942C43.0137 14.5992 43.8439 15.3414 43.8439 16.2543V17.0312C43.8439 17.7334 44.4484 18.305 45.1906 18.305H55.1079C55.3604 18.305 55.5648 18.4783 55.5648 18.6907V32.0187C55.5648 34.0001 53.7924 35.6116 51.6146 35.6116H34.0448C32.7577 35.6116 32.147 35.4312 31.5577 35.2561Z" fill="#202124"/>
<path d="M54.9871 36.4224H30.796C30.1782 36.4224 29.6777 35.9202 29.6777 35.3016L33.2182 20.3069H59.5488L56.0084 35.3993C56.0075 35.9638 55.5506 36.4224 54.9871 36.4224Z" fill="white"/>
<path fill-rule="evenodd" clip-rule="evenodd" d="M37.6782 16.2367H31.3902C31.2676 16.2367 31.168 16.1371 31.168 16.0145C31.168 15.8918 31.2676 15.7922 31.3902 15.7922H37.6782C37.8009 15.7922 37.9005 15.8918 37.9005 16.0145C37.9005 16.1371 37.8009 16.2367 37.6782 16.2367ZM30.7956 36.8669H54.9867C55.776 36.8669 56.4214 36.2385 56.4507 35.4536L59.9796 20.4073C60.0107 20.2749 59.9796 20.1362 59.8951 20.0296C59.8107 19.9229 59.6818 19.8616 59.5467 19.8616H33.2169C33.0116 19.8616 32.832 20.0029 32.7849 20.2038L29.2454 35.1985C29.2374 35.2322 29.2329 35.266 29.2329 35.3007C29.2329 36.1647 29.9334 36.8669 30.7956 36.8669ZM30.7956 35.978C30.4391 35.978 30.1467 35.698 30.1236 35.346L33.5689 20.7513H58.9867L55.5751 35.2971C55.5671 35.33 55.5627 35.3647 55.5627 35.3985C55.5627 35.7176 55.304 35.978 54.9867 35.978H30.7956ZM38.8702 16.2367H40.1582C40.2809 16.2367 40.3805 16.1371 40.3805 16.0145C40.3805 15.8918 40.2809 15.7922 40.1582 15.7922H38.8702C38.7476 15.7922 38.648 15.8918 38.648 16.0145C38.648 16.1371 38.7476 16.2367 38.8702 16.2367Z" fill="#202124"/>
<path fill-rule="evenodd" clip-rule="evenodd" d="M50.2314 20.2401C50.2047 20.2401 50.1763 20.2313 50.1532 20.2144C50.0936 20.1717 50.0803 20.0881 50.1238 20.0286L51.4927 18.1361C51.5363 18.0757 51.6198 18.0641 51.6785 18.1068C51.7381 18.1495 51.7514 18.233 51.7078 18.2926L50.3389 20.185C50.3132 20.2215 50.2723 20.2401 50.2314 20.2401ZM51.4412 20.2144C51.4643 20.2313 51.4927 20.2401 51.5194 20.2401C51.5603 20.2401 51.6012 20.2215 51.6269 20.185L52.9958 18.2926C53.0394 18.233 53.0261 18.1495 52.9665 18.1068C52.9087 18.0641 52.8243 18.0757 52.7807 18.1361L51.4118 20.0286C51.3683 20.0881 51.3816 20.1717 51.4412 20.2144ZM52.8083 20.2401C52.7816 20.2401 52.7532 20.2313 52.7301 20.2144C52.6705 20.1717 52.6572 20.0881 52.7007 20.0286L54.0696 18.1361C54.1132 18.0757 54.1976 18.0641 54.2554 18.1068C54.3149 18.1495 54.3283 18.233 54.2847 18.2926L52.9158 20.185C52.8892 20.2215 52.8492 20.2401 52.8083 20.2401ZM54.0972 20.2401C54.0705 20.2401 54.042 20.2313 54.0189 20.2144C53.9594 20.1717 53.9461 20.0881 53.9896 20.0286L55.3585 18.1361C55.4021 18.0757 55.4865 18.0641 55.5443 18.1068C55.6038 18.1495 55.6172 18.233 55.5736 18.2926L54.2047 20.185C54.1789 20.2215 54.1381 20.2401 54.0972 20.2401ZM49.5496 19.2686C49.5727 19.2855 49.6012 19.2944 49.6278 19.2944C49.6678 19.2944 49.7087 19.2748 49.7354 19.2393L50.4198 18.2935C50.4634 18.2339 50.4501 18.1504 50.3905 18.1077C50.3327 18.065 50.2483 18.0766 50.2047 18.137L49.5203 19.0828C49.4767 19.1424 49.4901 19.2259 49.5496 19.2686Z" fill="#202124"/>
<path d="M65.6952 48.305C65.6952 48.305 75.2774 48.305 75.3361 48.305C77.5485 48.305 79.3423 46.5112 79.3423 44.2979C79.3423 42.3672 77.977 40.7565 76.1592 40.3761C76.1805 40.2072 76.1947 40.0356 76.1947 39.8614C76.1947 37.5699 74.337 35.7112 72.0454 35.7112C70.6925 35.7112 69.4943 36.3619 68.737 37.3645C68.5432 34.8134 66.2641 32.8454 63.5983 33.1707C61.649 33.409 60.0365 34.9165 59.6774 36.8472C59.5627 37.4667 59.5743 38.0676 59.689 38.6321C59.1663 38.0694 58.4223 37.7147 57.5939 37.7147C56.0774 37.7147 54.8392 38.8952 54.7414 40.3876C54.0525 40.2356 53.3041 40.2454 52.5147 40.5414C51.0072 41.1076 49.9325 42.5272 49.8703 44.137C49.7814 46.4232 51.6081 48.3041 53.8739 48.3041C54.0454 48.3041 54.6507 48.3041 54.7903 48.3041H63.1103" fill="white"/>
<path d="M75.3363 48.7487H65.6963C65.451 48.7487 65.2519 48.5496 65.2519 48.3042C65.2519 48.0589 65.451 47.8598 65.6963 47.8598H75.3372C77.3008 47.8598 78.899 46.2616 78.899 44.2971C78.899 42.6189 77.7088 41.1531 76.0688 40.8109C75.843 40.7638 75.6901 40.5513 75.7185 40.3211C75.7372 40.17 75.7505 40.0171 75.7505 39.8607C75.7505 37.8171 74.0883 36.1549 72.0448 36.1549C70.8777 36.1549 69.8003 36.6927 69.0901 37.6313C68.979 37.778 68.7861 37.842 68.611 37.7896C68.4332 37.7371 68.307 37.5816 68.2928 37.3976C68.2083 36.2776 67.6599 35.2269 66.7897 34.5131C65.9097 33.7913 64.7932 33.4722 63.6528 33.6118C61.8928 33.8269 60.4377 35.1905 60.115 36.9273C60.0145 37.4696 60.0181 38.0136 60.1257 38.5425C60.1648 38.738 60.0705 38.9353 59.8928 39.0269C59.7185 39.1185 59.5008 39.0802 59.3639 38.9336C58.8999 38.434 58.2714 38.1585 57.5941 38.1585C56.3265 38.1585 55.2688 39.1496 55.1852 40.4162C55.1763 40.546 55.1123 40.6642 55.0083 40.7416C54.9043 40.8198 54.7692 40.8482 54.6465 40.8207C53.9612 40.6705 53.3168 40.7149 52.6714 40.9558C51.3168 41.4642 50.3692 42.7496 50.315 44.1531C50.2759 45.1336 50.6288 46.0607 51.3061 46.7647C51.9843 47.4705 52.8963 47.858 53.8741 47.858H63.1105C63.3559 47.858 63.555 48.0571 63.555 48.3025C63.555 48.5478 63.3559 48.7469 63.1105 48.7469H53.8723C52.6501 48.7469 51.5114 48.2616 50.6643 47.3807C49.8172 46.5007 49.3772 45.3416 49.4243 44.1176C49.4937 42.3602 50.6723 40.7558 52.3577 40.1238C53.0083 39.8802 53.6803 39.7967 54.3648 39.8731C54.6892 38.3789 56.0234 37.2687 57.5932 37.2687C58.1399 37.2687 58.6768 37.4065 59.1523 37.6625C59.155 37.3638 59.1843 37.0633 59.2412 36.7638C59.6332 34.6491 61.4039 32.9896 63.5452 32.7282C64.9337 32.5576 66.2848 32.9469 67.3532 33.8233C68.1674 34.49 68.7488 35.3993 69.0208 36.4038C69.8519 35.6713 70.9141 35.2642 72.0457 35.2642C74.5799 35.2642 76.6403 37.3247 76.6403 39.8589C76.6403 39.9185 76.6385 39.978 76.6359 40.0367C78.4839 40.6011 79.7879 42.3318 79.7879 44.2945C79.787 46.7522 77.7905 48.7487 75.3363 48.7487Z" fill="#202124"/>
<path d="M63.3733 39.4783C61.8915 39.3814 60.6151 40.4045 60.5244 41.7645C60.5129 41.9334 60.5209 42.0996 60.5449 42.2614C60.2587 41.9387 59.8355 41.7192 59.3502 41.6872C58.4613 41.6285 57.6933 42.2161 57.5822 43.0143C57.4204 42.9698 57.2515 42.9405 57.0773 42.9289C55.7804 42.8436 54.664 43.7396 54.584 44.9289" fill="#FDFCEF"/>
<path d="M54.5833 45.152C54.5779 45.152 54.5735 45.152 54.5681 45.1511C54.4455 45.1431 54.353 45.0374 54.3619 44.9147C54.4508 43.6045 55.6704 42.6071 57.0917 42.7085C57.1966 42.7147 57.3041 42.728 57.4126 42.7485C57.6446 41.9565 58.4455 41.3956 59.3646 41.4667C59.7006 41.488 60.0233 41.5947 60.3006 41.768C60.3015 41.7618 60.3015 41.7565 60.3024 41.7503C60.4019 40.2703 61.7806 39.1414 63.3886 39.2569C63.5113 39.2649 63.6037 39.3707 63.5948 39.4934C63.5877 39.6151 63.4979 39.7254 63.3584 39.6996C62.001 39.6267 60.8286 40.544 60.745 41.7796C60.7353 41.928 60.7415 42.0791 60.7637 42.2285C60.7788 42.3254 60.7273 42.4214 60.6375 42.4631C60.5486 42.504 60.4428 42.4827 60.377 42.4089C60.1201 42.1183 59.7406 41.936 59.3344 41.9094C58.5637 41.8685 57.897 42.3583 57.801 43.0454C57.7913 43.1085 57.7566 43.1654 57.7033 43.2C57.6508 43.2356 57.5868 43.248 57.5237 43.2294C57.3637 43.1867 57.2126 43.1618 57.0606 43.1511C55.9086 43.0916 54.8748 43.8783 54.8028 44.9449C54.7966 45.0614 54.6997 45.152 54.5833 45.152Z" fill="#202124"/>
<path d="M76.9586 40.8465C75.5657 40.1896 73.955 40.6545 73.3612 41.8847C73.2874 42.0376 73.2332 42.1949 73.1968 42.3549" fill="#FDFCEF"/>
<path d="M73.1967 42.5761C73.1798 42.5761 73.1638 42.5743 73.147 42.5707C73.027 42.5432 72.9523 42.4241 72.9798 42.3041C73.0216 42.1227 73.083 41.9494 73.1621 41.7867C73.8092 40.4499 75.555 39.9396 77.0536 40.6445C77.1647 40.6979 77.2127 40.8294 77.1603 40.9405C77.107 41.0525 76.9736 41.097 76.8643 41.0472C75.5834 40.4419 74.1016 40.8605 73.5621 41.9805C73.4972 42.113 73.4465 42.2561 73.4136 42.4036C73.3896 42.5067 73.2981 42.5761 73.1967 42.5761Z" fill="#202124"/>
<path fill-rule="evenodd" clip-rule="evenodd" d="M31.0084 51.5318H34.1559C36.2733 51.5318 37.9968 49.8412 37.9959 47.7612C37.9959 46.1176 36.8946 44.666 35.3257 44.1727C35.3266 44.1416 35.3275 44.1114 35.3275 44.0812C35.3275 41.938 33.5506 40.194 31.3657 40.194C30.4262 40.194 29.5417 40.5132 28.8386 41.0892C28.6004 40.2954 28.1293 39.5878 27.4644 39.0429C26.5391 38.2847 25.3631 37.9407 24.1515 38.0909C22.3079 38.3105 20.7835 39.7114 20.4448 41.4989C20.4039 41.7149 20.3799 41.9292 20.3719 42.1434C19.9835 41.9576 19.5533 41.8572 19.1151 41.8572C17.7755 41.8572 16.6333 42.7709 16.3275 44.0118C15.7586 43.9594 15.1977 44.0296 14.6564 44.2287C13.2004 44.7638 12.1817 46.1229 12.1231 47.6118C12.0831 48.6332 12.4528 49.6047 13.1666 50.3478C13.8902 51.0998 14.9079 51.5309 15.9613 51.5309H23.7906C24.0359 51.5309 24.2351 51.3318 24.2351 51.0865C24.2351 50.8412 24.0359 50.642 23.7906 50.642H15.9613C15.1364 50.642 14.3719 50.3185 13.8075 49.7318C13.2626 49.1656 12.9808 48.4252 13.0119 47.6465C13.0555 46.514 13.8404 45.4758 14.9631 45.0643C15.4973 44.866 16.0333 44.8305 16.6031 44.9532C16.7293 44.9825 16.8617 44.9514 16.9639 44.874C17.0671 44.7958 17.1311 44.6776 17.1399 44.5487C17.2066 43.5389 18.0742 42.7469 19.1142 42.7469C19.6715 42.7469 20.1879 42.9674 20.5675 43.3683C20.7062 43.5132 20.9213 43.5487 21.0964 43.4572C21.2724 43.3647 21.3666 43.1674 21.3257 42.9727C21.2368 42.5452 21.2342 42.106 21.3177 41.6652C21.5853 40.2554 22.7942 39.1487 24.2573 38.9745C25.2208 38.8616 26.1631 39.1274 26.9008 39.7327C27.6155 40.3194 28.0475 41.1407 28.1177 42.0474C28.1311 42.2305 28.2573 42.3852 28.4333 42.4385C28.6075 42.4892 28.7995 42.4296 28.9115 42.2838C29.4999 41.5212 30.3942 41.0847 31.3648 41.0847C33.0591 41.0847 34.4377 42.4296 34.4377 44.0829C34.4377 44.21 34.4271 44.3336 34.4119 44.4554C34.3835 44.6856 34.5373 44.8989 34.7639 44.946C36.1222 45.2243 37.1071 46.4083 37.1071 47.7629C37.1071 49.3514 35.7835 50.6429 34.1559 50.6429H31.0084C30.7631 50.6429 30.5639 50.842 30.5639 51.0874C30.5639 51.3327 30.7631 51.5318 31.0084 51.5318ZM25.2519 51.5318H25.5711C25.8164 51.5318 26.0155 51.3327 26.0155 51.0874C26.0155 50.842 25.8164 50.6429 25.5711 50.6429H25.2519C25.0066 50.6429 24.8075 50.842 24.8075 51.0874C24.8075 51.3327 25.0066 51.5318 25.2519 51.5318Z" fill="#202124"/>
<path fill-rule="evenodd" clip-rule="evenodd" d="M32.5885 46.3682C32.6054 46.3718 32.6214 46.3735 32.6374 46.3735C32.7387 46.3735 32.8311 46.3033 32.8551 46.1984C32.88 46.0855 32.9191 45.9762 32.9707 45.8722C33.4009 44.9993 34.6205 44.6891 35.6934 45.1842C35.8027 45.2358 35.936 45.1878 35.9876 45.0758C36.04 44.9647 35.9911 44.8331 35.8791 44.7815C34.592 44.186 33.1085 44.5887 32.5707 45.6767C32.504 45.8127 32.4534 45.9558 32.4205 46.1024C32.3929 46.2224 32.4685 46.3415 32.5885 46.3682ZM27.0685 51.5318H28.0516C28.2969 51.5318 28.496 51.3327 28.496 51.0873C28.496 50.842 28.2969 50.6429 28.0516 50.6429H27.0685C26.8231 50.6429 26.624 50.842 26.624 51.0873C26.624 51.3327 26.8231 51.5318 27.0685 51.5318Z" fill="#202124"/>
</svg>
