<svg width="76" height="76" viewBox="0 0 76 76" fill="none" xmlns="http://www.w3.org/2000/svg">
<path d="M6.3335 60.1667V23.75H69.6668V60.1667C69.6668 61.9083 68.2418 63.3333 66.5002 63.3333H9.50016C7.7585 63.3333 6.3335 61.9083 6.3335 60.1667Z" fill="#FFDA2D"/>
<path d="M62.5415 36.4167H41.9582C41.5212 36.4167 41.1665 36.062 41.1665 35.625V34.0417C41.1665 33.6047 41.5212 33.25 41.9582 33.25H62.5415C62.9785 33.25 63.3332 33.6047 63.3332 34.0417V35.625C63.3332 36.062 62.9785 36.4167 62.5415 36.4167Z" fill="#FFFBEA"/>
<path d="M62.5415 42.75H41.9582C41.5212 42.75 41.1665 42.3954 41.1665 41.9584V40.375C41.1665 39.938 41.5212 39.5834 41.9582 39.5834H62.5415C62.9785 39.5834 63.3332 39.938 63.3332 40.375V41.9584C63.3332 42.3954 62.9785 42.75 62.5415 42.75Z" fill="#FFFBEA"/>
<path d="M62.5415 49.0833H41.9582C41.5212 49.0833 41.1665 48.7286 41.1665 48.2916V46.7083C41.1665 46.2713 41.5212 45.9166 41.9582 45.9166H62.5415C62.9785 45.9166 63.3332 46.2713 63.3332 46.7083V48.2916C63.3332 48.7286 62.9785 49.0833 62.5415 49.0833Z" fill="#FFFBEA"/>
<path d="M57.7915 55.4167H41.9582C41.5212 55.4167 41.1665 55.062 41.1665 54.625V53.0417C41.1665 52.6047 41.5212 52.25 41.9582 52.25H57.7915C58.2285 52.25 58.5832 52.6047 58.5832 53.0417V54.625C58.5832 55.062 58.2285 55.4167 57.7915 55.4167Z" fill="#FFFBEA"/>
<path d="M69.6668 15.8333V23.75H6.3335V15.8333C6.3335 14.0916 7.7585 12.6666 9.50016 12.6666H66.5002C68.2418 12.6666 69.6668 14.0916 69.6668 15.8333Z" fill="#806D16"/>
<path d="M26.1252 20.5834H65.7085C66.1455 20.5834 66.5002 20.2287 66.5002 19.7917V16.625C66.5002 16.188 66.1455 15.8334 65.7085 15.8334H26.1252C25.6882 15.8334 25.3335 16.188 25.3335 16.625V19.7917C25.3335 20.2287 25.6882 20.5834 26.1252 20.5834Z" fill="#FFED96"/>
<path d="M11.875 20.5834C13.1867 20.5834 14.25 19.5201 14.25 18.2084C14.25 16.8967 13.1867 15.8334 11.875 15.8334C10.5633 15.8334 9.5 16.8967 9.5 18.2084C9.5 19.5201 10.5633 20.5834 11.875 20.5834Z" fill="#FFED96"/>
<path d="M19.7915 20.5834C21.1032 20.5834 22.1665 19.5201 22.1665 18.2084C22.1665 16.8967 21.1032 15.8334 19.7915 15.8334C18.4798 15.8334 17.4165 16.8967 17.4165 18.2084C17.4165 19.5201 18.4798 20.5834 19.7915 20.5834Z" fill="#FFED96"/>
<path d="M33.6013 33.25H13.8983C13.2175 33.25 12.6665 33.801 12.6665 34.4818V54.1848C12.6665 54.8657 13.2175 55.4167 13.8983 55.4167H33.6013C34.2822 55.4167 34.8332 54.8657 34.8332 54.1848V34.4818C34.8332 33.801 34.2822 33.25 33.6013 33.25Z" fill="#806D16"/>
<path d="M28.7154 43.757C28.0077 43.0492 26.8661 43.0334 26.1393 43.7221L20.0562 49.4855V55.4166H33.6032C34.2824 55.4166 34.8334 54.8656 34.8334 54.1848V49.875L28.7154 43.757Z" fill="#FFED96"/>
<path d="M30.0833 39.5833C30.9578 39.5833 31.6667 38.8744 31.6667 38C31.6667 37.1255 30.9578 36.4166 30.0833 36.4166C29.2089 36.4166 28.5 37.1255 28.5 38C28.5 38.8744 29.2089 39.5833 30.0833 39.5833Z" fill="#FFDA2D"/>
<path d="M13.8983 55.4167H33.6013C34.1017 55.4167 34.5292 55.1174 34.7223 54.6899L21.3273 41.2949C20.6196 40.5872 19.478 40.5714 18.7513 41.2601L12.6665 47.0234V54.1849C12.6665 54.8657 13.2175 55.4167 13.8983 55.4167Z" fill="#FFED96"/>
</svg>
