<svg width="14" height="14" viewBox="0 0 14 14" fill="none" xmlns="http://www.w3.org/2000/svg">
<path d="M1.07692 1.61538C1.07692 1.31831 1.31831 1.07692 1.61538 1.07692H12.3846C12.6817 1.07692 12.9231 1.31831 12.9231 1.61538V4.30769H14V1.61538C14 0.723539 13.2765 0 12.3846 0H1.61538C0.723539 0 0 0.723539 0 1.61538V12.3846C0 13.2765 0.723539 14 1.61538 14H12.3846C13.2765 14 14 13.2765 14 12.3846V9.69231H12.9231V12.3846C12.9231 12.6817 12.6817 12.9231 12.3846 12.9231H1.61538C1.31831 12.9231 1.07692 12.6817 1.07692 12.3846V1.61538Z" fill="black"/>
<path d="M6.14616 7.53846H14V6.46154H6.14624L8.59237 4.01541L7.83087 3.25391L4.08474 7.00004L7.83087 10.7462L8.59237 9.98468L6.14616 7.53846Z" fill="black"/>
</svg>
