<svg width="16" height="16" viewBox="0 0 16 16" fill="none" xmlns="http://www.w3.org/2000/svg">
<path fill-rule="evenodd" clip-rule="evenodd" d="M0.888885 7.99978C0.888885 4.07242 4.07264 0.888672 8 0.888672C11.9274 0.888672 15.1111 4.07242 15.1111 7.99978C15.1111 11.9271 11.9274 15.1109 8 15.1109C4.07264 15.1109 0.888885 11.9271 0.888885 7.99978ZM14.0576 7.99978C14.0576 4.65426 11.3455 1.94217 8 1.94217C4.65447 1.94217 1.94238 4.65426 1.94238 7.99978C1.94238 11.3453 4.65447 14.0574 8 14.0574C11.3455 14.0574 14.0576 11.3453 14.0576 7.99978ZM8 6.9166C8.27475 6.9166 8.50037 7.12696 8.52459 7.3954L8.52675 7.44335V11.369C8.52675 11.6599 8.29091 11.8957 8 11.8957C7.72524 11.8957 7.49962 11.6853 7.4754 11.4169L7.47325 11.369V7.44335C7.47325 7.15243 7.70908 6.9166 8 6.9166ZM8 5.73716C8.35703 5.73716 8.64646 5.44772 8.64646 5.09069C8.64646 4.73366 8.35703 4.44423 8 4.44423C7.64296 4.44423 7.35353 4.73366 7.35353 5.09069C7.35353 5.44772 7.64296 5.73716 8 5.73716Z" fill="#9AA0A6"/>
</svg>
