<svg width="21" height="21" viewBox="0 0 21 21" fill="none" xmlns="http://www.w3.org/2000/svg">
<rect width="21" height="21" rx="10.5" fill="#135423"/>
<path d="M9.3871 5C6.96169 5 5 6.91673 5 9.28653C5 11.6563 6.96169 13.5731 9.3871 13.5731C10.253 13.5731 11.0544 13.3249 11.7339 12.9033L14.9032 16L16 14.9284L12.871 11.8789C13.4335 11.158 13.7742 10.2646 13.7742 9.28653C13.7742 6.91673 11.8125 5 9.3871 5ZM9.3871 6.0086C11.245 6.0086 12.7419 7.47126 12.7419 9.28653C12.7419 11.1018 11.245 12.5645 9.3871 12.5645C7.52923 12.5645 6.03226 11.1018 6.03226 9.28653C6.03226 7.47126 7.52923 6.0086 9.3871 6.0086Z" fill="#EAF6EC"/>
</svg>
