<svg width="16" height="11" viewBox="0 0 16 11" fill="none" xmlns="http://www.w3.org/2000/svg">
<path fill-rule="evenodd" clip-rule="evenodd" d="M8.00003 2.85921C6.61818 2.85921 5.49797 3.97942 5.49797 5.36127C5.49797 6.74312 6.61818 7.86333 8.00003 7.86333C9.38188 7.86333 10.5021 6.74312 10.5021 5.36127C10.5021 3.97942 9.38188 2.85921 8.00003 2.85921ZM8.00003 3.91271C8.80004 3.91271 9.44859 4.56125 9.44859 5.36127C9.44859 6.16129 8.80004 6.80983 8.00003 6.80983C7.20001 6.80983 6.55147 6.16129 6.55147 5.36127C6.55147 4.56125 7.20001 3.91271 8.00003 3.91271Z" fill="#202124"/>
<path fill-rule="evenodd" clip-rule="evenodd" d="M8.00003 0.554688C5.06686 0.554688 2.70501 2.15023 0.956117 5.27204C0.858196 5.44683 0.867911 5.66204 0.981183 5.82729C2.97868 8.74152 5.32544 10.2286 8.00003 10.2286C10.6746 10.2286 13.0214 8.74152 15.0189 5.82729C15.1321 5.66204 15.1419 5.44683 15.0439 5.27204C13.295 2.15023 10.9332 0.554688 8.00003 0.554688ZM8.13011 1.60941C10.5069 1.65422 12.4385 2.93189 13.9605 5.50152L13.9545 5.51031C12.188 7.97144 10.2096 9.17512 8.00003 9.17512L7.87751 9.17388C5.75881 9.13095 3.85396 7.97175 2.14581 5.64833L2.03962 5.50149C3.58925 2.88517 5.56357 1.60819 8.00003 1.60819L8.13011 1.60941Z" fill="#202124"/>
</svg>
