<svg width="14" height="14" viewBox="0 0 14 14" fill="none" xmlns="http://www.w3.org/2000/svg">
<path fill-rule="evenodd" clip-rule="evenodd" d="M0.777771 6.99957C0.777771 3.56313 3.56355 0.777344 6.99999 0.777344C10.4364 0.777344 13.2222 3.56313 13.2222 6.99957C13.2222 10.436 10.4364 13.2218 6.99999 13.2218C3.56355 13.2218 0.777771 10.436 0.777771 6.99957ZM12.3004 6.99957C12.3004 4.07223 9.92733 1.69915 6.99999 1.69915C4.07266 1.69915 1.69958 4.07223 1.69958 6.99957C1.69958 9.9269 4.07266 12.3 6.99999 12.3C9.92733 12.3 12.3004 9.9269 12.3004 6.99957ZM6.99999 6.05178C7.2404 6.05178 7.43782 6.23584 7.45901 6.47074L7.4609 6.51269V9.94759C7.4609 10.2021 7.25454 10.4085 6.99999 10.4085C6.75958 10.4085 6.56216 10.2244 6.54097 9.98955L6.53909 9.94759V6.51269C6.53909 6.25814 6.74544 6.05178 6.99999 6.05178ZM6.99999 5.01977C7.3124 5.01977 7.56565 4.76652 7.56565 4.45411C7.56565 4.14171 7.3124 3.88845 6.99999 3.88845C6.68759 3.88845 6.43434 4.14171 6.43434 4.45411C6.43434 4.76652 6.68759 5.01977 6.99999 5.01977Z" fill="#202124"/>
</svg>
