<svg width="8" height="10" viewBox="0 0 8 10" fill="none" xmlns="http://www.w3.org/2000/svg">
<path d="M3.60003 0C3.49773 0 3.39542 0.0389875 3.31722 0.117187L0.117215 3.31719C0.00281523 3.43159 -0.0315035 3.60352 0.0304965 3.75312C0.0920965 3.90272 0.238428 4 0.400028 4H6.80003C6.96163 4 7.10796 3.90272 7.16956 3.75312C7.23156 3.60352 7.19724 3.43159 7.08284 3.31719L3.88284 0.117187C3.80464 0.0389875 3.70233 0 3.60003 0ZM0.400028 5.6C0.238428 5.6 0.0920965 5.69727 0.0304965 5.84687C-0.0315035 5.99647 0.00281527 6.16841 0.117215 6.28281L3.31722 9.48281C3.39522 9.56081 3.49763 9.6 3.60003 9.6C3.70243 9.6 3.80484 9.56081 3.88284 9.48281L7.08284 6.28281C7.19724 6.16841 7.23156 5.99647 7.16956 5.84687C7.10796 5.69727 6.96163 5.6 6.80003 5.6H0.400028Z" fill="#8A959F"/>
</svg>
