<svg width="16" height="11" viewBox="0 0 16 11" fill="none" xmlns="http://www.w3.org/2000/svg">
<path fill-rule="evenodd" clip-rule="evenodd" d="M7.99978 2.86019C6.61793 2.86019 5.49773 3.9804 5.49773 5.36225C5.49773 6.7441 6.61793 7.86431 7.99978 7.86431C9.38163 7.86431 10.5018 6.7441 10.5018 5.36225C10.5018 3.9804 9.38163 2.86019 7.99978 2.86019ZM7.99978 3.91369C8.7998 3.91369 9.44834 4.56223 9.44834 5.36225C9.44834 6.16227 8.7998 6.81081 7.99978 6.81081C7.19977 6.81081 6.55122 6.16227 6.55122 5.36225C6.55122 4.56223 7.19977 3.91369 7.99978 3.91369Z" fill="#202124"/>
<path fill-rule="evenodd" clip-rule="evenodd" d="M7.99978 0.555664C5.06661 0.555664 2.70477 2.1512 0.955873 5.27301C0.857952 5.4478 0.867667 5.66301 0.980939 5.82827C2.97843 8.74249 5.3252 10.2296 7.99978 10.2296C10.6744 10.2296 13.0211 8.74249 15.0186 5.82827C15.1319 5.66301 15.1416 5.4478 15.0437 5.27301C13.2948 2.1512 10.933 0.555664 7.99978 0.555664ZM8.12987 1.61038C10.5066 1.6552 12.4382 2.93287 13.9603 5.50249L13.9543 5.51129C12.1878 7.97242 10.2093 9.1761 7.99978 9.1761L7.87727 9.17486C5.75856 9.13192 3.85371 7.97273 2.14556 5.64931L2.03938 5.50246C3.58901 2.88615 5.56332 1.60916 7.99978 1.60916L8.12987 1.61038Z" fill="#202124"/>
</svg>
