<svg width="180" height="180" viewBox="0 0 180 180" fill="none" xmlns="http://www.w3.org/2000/svg">
<g clip-path="url(#clip0_117_4044)">
<path d="M13.6081 169.992C18.1413 169.992 21.8162 169.041 21.8162 167.868C21.8162 166.695 18.1413 165.744 13.6081 165.744C9.0749 165.744 5.40002 166.695 5.40002 167.868C5.40002 169.041 9.0749 169.992 13.6081 169.992Z" fill="#5B2448"/>
</g>
<g clip-path="url(#clip1_117_4044)">
<path d="M172.807 27.2051L172.872 127.393C172.872 127.393 172.807 127.407 172.807 127.415L172.302 129.605C171.401 131.117 169.96 132.299 168.072 132.299L102.23 132.342C101.358 132.342 100.789 132.263 100.025 131.845C99.6 131.607 99.2541 131.326 98.9081 130.98C97.9352 130.015 97.474 128.992 97.474 127.616L97.4235 80.9225L97.3226 27.3924L172.807 27.2051Z" fill="white"/>
<path d="M173.174 29.287L173.167 23.4665C173.16 20.5995 170.847 18.2871 167.985 18.2871L113.56 18.3303V18.3591L102.231 18.3663C99.3694 18.3736 97.056 20.6931 97.056 23.553L97.0632 29.3447L97.0921 80.8074L97.1209 127.595C97.1209 128.971 97.6686 130.289 98.6415 131.254C98.9875 131.6 99.3766 131.895 99.809 132.133C100.573 132.551 101.431 132.774 102.31 132.767L168.065 132.688C169.953 132.688 171.61 131.672 172.511 130.159C172.973 129.381 173.239 128.474 173.239 127.508L173.174 29.287ZM172.504 127.501C172.504 129.958 170.515 131.946 168.058 131.953L113.56 131.996V132.032H102.303C99.8451 132.032 97.8488 130.044 97.8488 127.588L97.7911 30.5621C97.7911 29.9426 98.2884 29.4455 98.9082 29.4455L160.044 29.4167V29.3951L171.329 29.3879C171.949 29.3879 172.446 29.8849 172.446 30.5045L172.504 127.501Z" fill="#66B0F0"/>
<path d="M168.758 24.5918C169.155 23.8705 168.892 22.9636 168.171 22.5663C167.449 22.1689 166.542 22.4315 166.144 23.1529C165.747 23.8742 166.01 24.7811 166.731 25.1785C167.453 25.5758 168.36 25.3132 168.758 24.5918Z" fill="white"/>
<path d="M163.69 24.5938C164.087 23.8725 163.825 22.9656 163.103 22.5682C162.381 22.1709 161.474 22.4335 161.077 23.1548C160.679 23.8762 160.942 24.7831 161.663 25.1804C162.385 25.5778 163.292 25.3151 163.69 24.5938Z" fill="white"/>
<path d="M158.619 24.6016C159.016 23.8803 158.754 22.9734 158.032 22.576C157.31 22.1787 156.403 22.4413 156.005 23.1627C155.608 23.884 155.871 24.7909 156.592 25.1882C157.314 25.5856 158.221 25.323 158.619 24.6016Z" fill="white"/>
<path d="M154.17 122.292C154.484 122.292 154.739 122.038 154.739 121.723C154.739 121.409 154.484 121.154 154.17 121.154C153.856 121.154 153.601 121.409 153.601 121.723C153.601 122.038 153.856 122.292 154.17 122.292Z" fill="white"/>
<path d="M158.948 122.292C159.263 122.292 159.517 122.038 159.517 121.723C159.517 121.409 159.263 121.154 158.948 121.154C158.634 121.154 158.379 121.409 158.379 121.723C158.379 122.038 158.634 122.292 158.948 122.292Z" fill="white"/>
<rect x="110.5" y="77.5" width="50" height="9" rx="1.5" fill="#C2E3FF" stroke="#66B0F0"/>
<rect width="20" height="3" rx="1.5" transform="matrix(1 0 0 -1 110 74)" fill="#C2E3FF"/>
<rect width="20" height="3" rx="1.5" transform="matrix(1 0 0 -1 110 97)" fill="#C2E3FF"/>
<rect x="110.5" y="99.5" width="50" height="9" rx="1.5" fill="#C2E3FF" stroke="#66B0F0"/>
<g clip-path="url(#clip2_117_4044)">
<path d="M141.264 115.364C138.533 112.633 134.095 112.633 131.364 115.364C128.633 118.095 128.633 122.533 131.364 125.263C134.095 127.994 138.533 127.994 141.264 125.263C143.994 122.533 143.994 118.095 141.264 115.364ZM136.314 124.121L135.552 123.36L138.054 120.858L132.545 120.852L132.545 119.775L138.066 119.781L135.552 117.268L136.314 116.506L140.121 120.314L136.314 124.121Z" fill="#C2E3FF"/>
</g>
<circle cx="116" cy="104" r="2" fill="#66B0F0"/>
<circle cx="123" cy="104" r="2" fill="#66B0F0"/>
<circle cx="130" cy="104" r="2" fill="#66B0F0"/>
<circle cx="137" cy="104" r="2" fill="#66B0F0"/>
<path d="M115.25 80.3636L115.983 81.603H116.012L116.749 80.3636H117.617L116.507 82.1818L117.642 84H116.758L116.012 82.7589H115.983L115.238 84H114.357L115.495 82.1818L114.378 80.3636H115.25Z" fill="#66B0F0"/>
<path d="M122.25 80.3636L122.983 81.603H123.012L123.749 80.3636H124.617L123.507 82.1818L124.642 84H123.758L123.012 82.7589H122.983L122.238 84H121.357L122.495 82.1818L121.378 80.3636H122.25Z" fill="#66B0F0"/>
<path d="M129.25 80.3636L129.983 81.603H130.012L130.749 80.3636H131.617L130.507 82.1818L131.642 84H130.758L130.012 82.7589H129.983L129.238 84H128.357L129.495 82.1818L128.378 80.3636H129.25Z" fill="#66B0F0"/>
<path d="M136.25 80.3636L136.983 81.603H137.012L137.749 80.3636H138.617L137.507 82.1818L138.642 84H137.758L137.012 82.7589H136.983L136.238 84H135.357L136.495 82.1818L135.378 80.3636H136.25Z" fill="#66B0F0"/>
</g>
<path d="M135 39C127.836 39 122 44.8359 122 52C122 59.1641 127.836 65 135 65C142.164 65 148 59.1641 148 52C148 44.8359 142.164 39 135 39ZM135 41C141.086 41 146 45.9141 146 52C146 54.6797 145.047 57.125 143.469 59.0312C142.61 56.5938 140.75 54.6328 138.375 53.6641C139.368 52.75 140 51.4453 140 50C140 47.25 137.75 45 135 45C132.25 45 130 47.25 130 50C130 51.4453 130.633 52.75 131.625 53.6641C129.25 54.6328 127.399 56.5938 126.539 59.0312C124.953 57.125 124 54.6797 124 52C124 45.9141 128.914 41 135 41ZM135 47C136.672 47 138 48.3281 138 50C138 51.6719 136.672 53 135 53C133.328 53 132 51.6719 132 50C132 48.3281 133.328 47 135 47ZM135 55C138.399 55 141.188 57.4141 141.836 60.6172C139.953 62.1094 137.586 63 135 63C132.414 63 130.047 62.1094 128.172 60.6172C128.813 57.4141 131.602 55 135 55Z" fill="#6CE0DC"/>
<g clip-path="url(#clip3_117_4044)">
<path d="M86.0768 68.3206L95.0815 47.125L106.739 47.298L97.6769 68.4936L86.0768 68.3206Z" fill="#66B0F0"/>
<path d="M107.28 47.1461C107.28 46.8939 107.078 46.6921 106.826 46.6921L95.1103 46.584C94.9301 46.584 94.7642 46.6921 94.6921 46.8578L85.5721 68.176C85.5432 68.2409 85.536 68.3129 85.536 68.385V68.4138C85.536 68.6661 85.7379 68.8679 85.9902 68.8679L97.7057 68.976C97.886 68.976 98.0518 68.8679 98.1239 68.7021L107.244 47.384C107.273 47.3191 107.28 47.247 107.28 47.175C107.28 47.1677 107.28 47.1533 107.28 47.1461ZM95.5284 47.4921L106.141 47.6002L97.2876 68.0679L86.6751 67.9598L95.5284 47.4921Z" fill="#5B2448"/>
</g>
<g clip-path="url(#clip4_117_4044)">
<path d="M47.9677 141.836C45.7586 143.883 48.0316 148.645 57.5618 149.157C65.2845 149.577 71.3093 146.799 71.3093 146.799C71.3093 146.799 52.9336 137.229 47.9677 141.836Z" fill="#5B2448"/>
<path d="M72.0031 142.402C71.857 143.536 71.1724 147.658 70.9077 149.166C70.8346 149.577 70.7616 149.998 70.6794 150.418C70.5882 150.903 68.1326 152.447 68.0322 152.941C67.4845 155.792 69.228 157.648 68.7351 159.659C68.7259 159.668 68.1508 160.253 67.0372 160.829C67.0006 160.847 66.9641 160.865 66.9276 160.883C65.6588 161.514 64.0247 162.108 62.7285 161.916C61.7974 161.779 59.707 157.63 59.5974 157.2C59.5974 157.173 59.5974 157.145 59.5974 157.127C59.6796 155.189 60.492 153.306 60.4555 151.542C60.4464 151.049 59.6339 150.564 59.6157 150.089C59.5792 149.175 59.7709 143.49 59.5974 142.411L72.0031 142.402Z" fill="#FCB6B1"/>
<path d="M59.6796 151.524C59.6796 151.697 59.6887 151.871 59.6887 152.054L70.3143 152.374C70.4421 151.716 70.5699 151.067 70.6886 150.418L59.6431 150.07C59.6522 150.546 59.6705 151.03 59.6796 151.524Z" fill="#66B0F0"/>
<path d="M59.6978 153.554C59.6978 154.705 59.6704 155.894 59.6156 157.109V157.182C59.7251 157.612 61.8247 161.762 62.7467 161.899L66.9458 160.866C66.9823 160.848 67.0188 160.829 67.0553 160.811C68.169 160.244 68.7441 159.659 68.7533 159.641C69.1732 157.895 69.7026 155.473 70.1956 152.996L59.7069 152.686C59.6978 152.978 59.6978 153.261 59.6978 153.554Z" fill="#66B0F0"/>
<path d="M59.6978 152.694L70.1865 153.005C70.2322 152.795 70.2687 152.585 70.3143 152.375L59.6887 152.055C59.6887 152.265 59.6978 152.475 59.6978 152.694Z" fill="white"/>
<path d="M59.6613 147.374C59.6613 147.374 68.0047 148.644 71.3184 146.798C71.0263 146.707 59.6613 144.047 59.6613 144.047V147.374Z" fill="#9B3C82"/>
<path d="M18.7654 127.715C17.5878 127.898 14.9771 130.64 21.4218 137.952C27.7114 145.09 32.0931 145.117 32.4673 144.898C32.8234 144.67 26.2782 127.715 18.7654 127.715Z" fill="#5B2448"/>
<path d="M35.5529 142.723C34.6309 143.399 31.1986 145.776 29.9206 146.626C26.8808 148.664 23.2294 150.958 20.8742 152.338C20.8651 152.347 20.0435 152.329 18.8568 151.927C18.8203 151.908 18.7838 151.899 18.7381 151.89C17.4054 151.406 15.8444 150.647 15.0867 149.578C14.5481 148.81 16.0726 144.432 16.3099 144.048C16.3282 144.03 16.3465 144.012 16.3647 143.993C17.1132 143.326 17.8435 142.659 18.5464 142.001C19.1946 141.379 21.212 142.878 21.212 142.878C21.212 142.878 21.1115 139.469 21.4402 139.131C22.07 138.473 26.2965 134.661 26.9538 133.793L35.5529 142.723Z" fill="#FCB6B1"/>
<path d="M16.3737 143.993C16.3555 144.011 16.3372 144.029 16.319 144.048C16.0816 144.431 14.5572 148.81 15.0957 149.577L18.7472 151.89C18.7837 151.899 18.8293 151.908 18.8658 151.926C19.9339 152.292 20.7098 152.338 20.8558 152.338H20.8832C22.4351 151.433 24.5346 150.135 26.6616 148.764L19.6144 140.977C18.592 141.973 17.5057 142.987 16.3737 143.993Z" fill="#66B0F0"/>
<path d="M20.0526 140.538L27.1911 148.416C27.748 148.051 28.3048 147.694 28.8525 147.329L21.4493 139.121C21.1206 139.468 20.7738 139.807 20.4269 140.163C20.3082 140.291 20.1804 140.41 20.0526 140.538Z" fill="#66B0F0"/>
<path d="M19.6053 140.986L26.6526 148.773C26.8351 148.654 27.0086 148.544 27.1912 148.426L20.0526 140.547C19.9066 140.684 19.7605 140.83 19.6053 140.986Z" fill="white"/>
<path d="M63.5255 25.2909L59.496 24.0723C59.496 24.0723 54.5287 30.7806 51.2751 32.2197C47.8246 33.7517 45.1962 33.3107 40.3099 33.949C34.4163 34.715 30.4679 39.752 30.7458 45.6363C30.9079 49.0716 30.3868 50.6965 29.4721 52.1008C28.7542 53.2034 26.9016 55.5014 26.369 56.4647C18.5648 70.7749 32.6447 80.0249 42.0467 77.9823C42.2088 77.9474 42.3941 78.1563 42.5446 78.1099C42.7762 78.0519 42.973 77.7385 43.193 77.6689C43.2393 77.6573 43.2625 77.6109 43.2857 77.5644C43.6562 76.7752 47.4077 68.7323 48.8551 61.4669C48.8667 61.4321 48.8782 61.3856 48.9014 61.3624C54.9571 53.8533 60.9202 41.4117 62.1592 33.9838C62.9118 33.8213 63.6528 33.6588 64.4055 33.4964C64.7413 29.7592 64.5097 26.7765 63.5255 25.2909Z" fill="#5B2448"/>
<path d="M77.1422 26.9974C76.8759 26.8117 76.6096 26.5912 76.4707 26.301C76.3317 25.9993 76.2854 25.5931 76.2391 25.2681C76.2044 25.0128 76.1696 24.769 76.1465 24.5137C76.1117 24.1655 76.077 23.8057 76.0307 23.4576V23.446C75.9959 23.1906 75.9496 22.9237 75.9033 22.6684C75.7296 21.8211 75.4633 20.9971 75.1275 20.2079C74.5138 18.8384 73.5296 17.6894 72.2676 16.9466C72.0012 16.7841 71.7118 16.6448 71.4223 16.5288C71.1791 16.4359 70.936 16.3431 70.6813 16.2734C69.7781 16.0297 68.8402 15.9485 67.9139 16.0181H67.9023C67.8444 16.0181 67.7865 16.0297 67.7171 16.0297C65.0192 16.2618 63.1434 17.8286 62.1824 19.7901C62.1824 19.7901 62.1824 19.8017 62.1708 19.8017C61.2445 21.7051 61.175 23.9798 62.055 25.7904C62.0666 25.8136 62.0782 25.8484 62.1013 25.8716C62.1013 25.8716 62.1013 25.8832 62.1129 25.8832C62.1129 25.8948 62.1245 25.9064 62.1245 25.918C62.1476 25.918 62.275 25.9296 62.2982 25.9296C62.3213 25.9296 62.3445 25.9413 62.3676 25.9413C62.3792 25.9413 64.2897 26.0689 64.5676 26.0805C64.6255 26.0805 64.6718 26.0921 64.7297 26.0805C64.5213 26.7653 63.1434 28.7615 63.1087 28.8544C63.074 28.924 63.0276 29.0052 62.9697 29.1213C62.0087 30.9783 57.2266 37.6169 56.6709 38.1624C56.2424 38.5918 57.1919 44.035 57.1919 44.035C62.9929 47.3428 66.5244 42.8512 66.5244 42.8512C66.2813 40.0194 68.1107 36.5143 68.7128 35.5626C69.2918 34.6458 69.6971 33.578 69.9286 33.578C70.056 33.6128 70.1949 33.6593 70.3455 33.7057C71.5612 34.1003 73.4139 34.7038 74.1317 34.4137C76.1349 33.6244 76.378 29.5739 76.5286 28.2973C77.0265 28.1 77.7212 27.3804 77.1422 26.9974Z" fill="#F4ADA2"/>
<path d="M76.1233 24.5248C70.9938 26.405 66.2697 26.1148 66.2697 26.1148L73.0664 24.2695L75.8106 23.5151L76.0075 23.457V23.4686C76.0538 23.8168 76.0885 24.1766 76.1233 24.5248Z" fill="#9B3C82"/>
<path opacity="0.52" d="M71.6852 29.397C71.818 28.5614 71.2549 27.7769 70.4276 27.6448C69.6003 27.5127 68.8219 28.083 68.6891 28.9186C68.5564 29.7543 69.1194 30.5387 69.9468 30.6708C70.7741 30.8029 71.5524 30.2326 71.6852 29.397Z" fill="#E57281"/>
<path d="M70.3454 33.6946C69.8475 34.1124 69.5001 34.5186 68.7012 35.5631C67.138 34.7739 66.4549 33.1723 66.7907 32.8125C67.0917 32.4759 67.7749 32.8125 68.2033 32.9634C69.0254 33.2767 69.3496 33.3928 70.3454 33.6946Z" fill="#5B2448"/>
<path d="M72.5222 24.665C71.6538 24.9784 71.2022 25.7444 71.3991 26.1506C71.5959 26.5568 72.4527 26.58 73.2517 26.1042C74.0622 25.6283 74.5717 24.9784 74.3748 24.6186C74.1664 24.2588 73.379 24.3517 72.5222 24.665Z" fill="#5B2448"/>
<path d="M74.8033 30.9327C74.6875 30.9907 74.5601 31.0256 74.4328 31.0256C74.3054 31.0372 74.1896 31.0139 74.0622 30.9791C73.8191 30.9211 73.5991 30.7818 73.437 30.5961C73.3559 30.5033 73.2865 30.3988 73.2286 30.2828C73.1822 30.1667 73.1475 30.0507 73.1359 29.923C73.1012 29.6793 73.1707 29.4239 73.3096 29.215C73.3559 29.1454 73.4486 29.1338 73.518 29.1802C73.5643 29.215 73.5875 29.2731 73.5759 29.3311C73.5296 29.4936 73.5296 29.6677 73.5643 29.8301C73.5875 29.9114 73.6107 29.9926 73.657 30.0623C73.6917 30.1319 73.738 30.2015 73.7959 30.2596C73.9117 30.3872 74.0507 30.4801 74.2128 30.5497C74.3633 30.6193 74.537 30.6426 74.7107 30.6309H74.7222C74.8033 30.6193 74.8728 30.6774 74.8843 30.7586C74.8843 30.8399 74.8496 30.9095 74.8033 30.9327Z" fill="#9B3C82"/>
<path d="M73.1822 26.718C73.5296 26.5323 74.3748 26.1028 75.0811 25.4413C75.1738 25.3484 75.3243 25.3484 75.4169 25.4529C75.6485 25.7082 75.9611 26.1957 75.4285 26.5787C74.7685 27.0545 73.518 27.1706 73.1706 26.9269C73.1127 26.892 73.1011 26.8108 73.1359 26.7644C73.159 26.7412 73.1706 26.7296 73.1822 26.718Z" fill="#5B2448"/>
<path d="M62.055 26C62.055 26 50.4645 22.4602 51.1014 20.3131C51.4372 19.1641 58.095 19.4891 60.9781 19.698C61.7423 19.756 62.2286 19.7908 62.2286 19.7908L62.0434 25.9536L62.055 26Z" fill="#F94F46"/>
<path d="M62.1129 26.0459C61.835 25.895 59.9708 23.1676 60.9898 19.709C61.754 19.767 62.2403 19.8018 62.2403 19.8018L62.1129 26.0459Z" fill="#5B2448"/>
<path d="M76.0075 23.4692C75.7412 23.6084 75.3823 23.7825 75.0696 23.9218H75.0581C74.5486 24.1423 73.9349 24.3744 73.2518 24.6066C73.1939 24.6298 73.136 24.6414 73.1012 24.653C70.8781 25.4074 68.076 26.1037 66.2813 26.0921C65.6792 26.0921 65.1697 26.0805 64.7182 26.0689C64.6603 26.0689 64.6139 26.0573 64.556 26.0689C64.2782 26.0573 64.035 26.0457 63.815 26.0457H63.7224C63.7224 26.0457 63.3866 26.0225 63.3171 26.0225C63.294 26.0225 63.2592 26.0225 63.2361 26.0109C62.9466 25.9877 62.715 25.9645 62.5298 25.9529C62.495 25.9529 62.4719 25.9413 62.4487 25.9413C62.4255 25.9413 62.0666 25.9993 62.0666 25.9993C59.8319 21.7399 62.3329 16.4939 67.7171 16.0297C67.775 16.0297 67.8329 16.0181 67.9023 16.0181H67.9139C68.8402 15.9485 69.7781 16.0297 70.6813 16.2734C72.7076 16.8421 74.2707 18.3045 75.116 20.2079C75.1738 20.3355 75.2317 20.4748 75.2896 20.6141C75.5444 21.2872 75.7528 21.972 75.9033 22.68C75.9265 22.9469 75.9728 23.2022 76.0075 23.4692Z" fill="#F94F46"/>
<path d="M66.2697 26.1147L66.0613 30.2813C65.4476 30.1768 64.8686 29.9679 64.3244 29.6778L64.2434 29.6314C63.9192 29.4457 63.6413 29.2484 63.3866 29.0395C63.2823 28.9582 63.1897 28.877 63.1087 28.7841C62.1245 27.8324 61.8234 26.7647 62.0666 26.0103C62.0781 25.9639 62.0897 25.929 62.1129 25.8826C62.1129 25.8826 62.1129 25.871 62.1245 25.871C62.2981 25.4764 62.6455 25.1747 63.1202 25.047C64.7876 24.5943 66.1192 25.9523 66.2697 26.1147C66.2697 26.1147 66.2697 26.1031 66.2697 26.1147Z" fill="#F4ADA2"/>
<path d="M76.0075 23.4684C75.7412 23.6076 75.3822 23.7817 75.0696 23.921H75.058C74.5485 24.1415 73.9349 24.3736 73.2517 24.6058C73.1938 24.629 73.1359 24.6406 73.1012 24.6522C72.7885 24.0487 72.638 22.8765 73.0201 22.0872C73.4022 21.298 74.1549 20.7642 75.2664 20.6133C75.5212 21.2864 75.7296 21.9712 75.8801 22.6792C75.9264 22.9461 75.9727 23.2014 76.0075 23.4684Z" fill="#5B2448"/>
<path d="M63.5255 26.4746C63.4445 26.4746 63.375 26.5442 63.3634 26.6371C63.3634 26.7299 63.4329 26.7996 63.5255 26.7996C63.595 26.7996 65.1234 26.8112 65.8413 28.5057C65.8529 28.5405 65.876 28.5637 65.9107 28.5869C65.9571 28.6101 66.0034 28.6101 66.0497 28.5985C66.1307 28.5637 66.1655 28.4708 66.1307 28.3896C65.3318 26.4746 63.5487 26.4746 63.5255 26.4746Z" fill="#9B3C82"/>
<path d="M64.3128 29.6654C64.3128 29.6886 64.3013 29.7118 64.2897 29.7234C64.2434 29.8046 64.1507 29.8279 64.0697 29.793C63.7455 29.619 63.1781 29.2708 62.9465 29.1083C62.9813 29.0154 63.1086 28.7949 63.1086 28.7949C63.1086 28.7949 63.2823 28.9342 63.3981 29.0038C63.6181 29.1663 63.8844 29.3288 64.2202 29.5029C64.2897 29.5493 64.3244 29.6073 64.3128 29.6654Z" fill="#9B3C82"/>
<path d="M59.5792 155.261C59.5792 155.261 58.5477 163.067 58.146 168.304L78.2014 168.651C78.2014 168.651 81.9258 168.377 83.1764 166.677C83.1764 166.677 80.4105 160.316 71.5741 158.195C67.4754 157.208 64.5725 159.539 61.9161 156.504C60.6198 155.015 59.5792 155.261 59.5792 155.261Z" fill="white"/>
<path d="M77.4985 168.844C77.4346 168.844 77.3615 168.844 77.2976 168.844L58.146 168.515C58.0273 168.515 57.936 168.415 57.936 168.305V168.296C58.3286 163.104 59.3601 155.317 59.3783 155.244C59.3875 155.125 59.497 155.043 59.6066 155.061C59.7252 155.07 59.8074 155.18 59.7891 155.29V155.299C59.78 155.372 58.7759 162.94 58.3742 168.104L77.3068 168.433C78.32 168.451 79.3333 168.332 80.3192 168.067C81.5515 167.729 82.4461 167.245 82.9391 166.66C82.7382 166.23 81.8984 164.594 80.1184 162.885C78.2105 161.048 74.7964 158.735 69.365 158.15C69.2463 158.132 69.1641 158.032 69.1824 157.913C69.1915 157.803 69.3011 157.721 69.4106 157.73C74.9699 158.333 78.4661 160.701 80.4196 162.592C82.5465 164.64 83.3407 166.523 83.3772 166.605C83.4046 166.669 83.3955 166.751 83.3499 166.806C82.8204 167.519 81.8436 168.086 80.4287 168.47C79.4702 168.716 78.4843 168.844 77.4985 168.844Z" fill="#5B2448"/>
<path d="M62.4546 163.663C63.2306 163.8 63.7783 164.239 64.3534 164.696C64.9376 165.162 65.5401 165.637 66.4164 165.829C67.1285 165.984 67.6762 165.856 68.2056 165.738C68.6164 165.646 68.9998 165.555 69.4288 165.61C69.6662 165.637 70.0952 165.811 70.6429 166.039C72.0396 166.606 74.2943 167.511 76.9325 167.511C78.7399 167.511 80.7208 167.081 82.72 165.829C82.6561 165.719 82.583 165.601 82.5009 165.473C77.7449 168.452 73.0803 166.569 70.7981 165.646C70.2048 165.409 69.7757 165.235 69.4836 165.189C68.9815 165.125 68.5342 165.226 68.1143 165.326C67.6123 165.445 67.1285 165.555 66.5077 165.418C65.7318 165.253 65.1932 164.824 64.6181 164.367C64.0248 163.9 63.4131 163.407 62.5368 163.252C60.8663 162.95 59.3601 163.718 58.5294 164.275C58.5111 164.458 58.4929 164.65 58.4746 164.833C59.1319 164.339 60.7202 163.352 62.4546 163.663Z" fill="#5B2448"/>
<path d="M60.1543 162.264C60.8115 162.264 61.5692 162.091 62.4729 161.414C62.6555 161.277 62.8289 161.131 63.0115 160.976C63.614 160.464 64.2347 159.924 65.1567 159.879H65.1658C65.2845 159.87 65.3666 159.769 65.3575 159.659C65.3484 159.541 65.248 159.458 65.1384 159.467C64.0795 159.531 63.3675 160.135 62.7468 160.665C62.5733 160.82 62.3999 160.957 62.2356 161.085C60.9393 162.054 59.9991 161.88 59.1775 161.734C59.0497 161.716 58.931 161.689 58.8124 161.67C58.7941 161.807 58.785 161.944 58.7667 162.091C58.8763 162.109 58.9858 162.127 59.1045 162.146C59.4422 162.219 59.7982 162.264 60.1543 162.264Z" fill="#5B2448"/>
<path d="M61.9161 167.602C60.7111 167.602 59.7617 167.035 59.7617 166.323C59.7617 165.601 60.7111 165.043 61.9161 165.043C63.121 165.043 64.0704 165.61 64.0704 166.323C64.0704 167.035 63.1301 167.602 61.9161 167.602ZM61.9161 165.454C61.0945 165.454 60.1816 165.811 60.1816 166.313C60.1816 166.816 61.0945 167.173 61.9161 167.173C62.7376 167.173 63.6505 166.816 63.6505 166.313C63.6505 165.811 62.7376 165.454 61.9161 165.454Z" fill="#5B2448"/>
<path d="M69.2736 162.382C68.9997 162.382 68.7715 162.153 68.7715 161.879C68.7715 161.815 68.7806 161.751 68.808 161.687C68.8536 161.577 69.9856 158.936 73.2992 157.784C73.564 157.693 73.8469 157.83 73.9382 158.095C74.0295 158.36 73.8926 158.643 73.6279 158.735C70.7615 159.731 69.7482 162.053 69.7391 162.08C69.6661 162.263 69.4835 162.382 69.2736 162.382Z" fill="#FFCF2D"/>
<path d="M71.5558 163.16C71.2819 163.16 71.0537 162.931 71.0537 162.657C71.0537 162.584 71.072 162.502 71.1085 162.438C71.1633 162.319 72.5417 159.577 75.7823 158.718C76.047 158.645 76.33 158.791 76.403 159.065C76.4761 159.33 76.33 159.614 76.0561 159.687C76.047 159.687 76.0379 159.687 76.0379 159.696C73.2354 160.436 72.0305 162.858 72.0122 162.886C71.9209 163.05 71.7475 163.16 71.5558 163.16Z" fill="#FFCF2D"/>
<path d="M74.13 163.754C73.8561 163.754 73.6279 163.525 73.6279 163.251C73.6279 163.169 73.6462 163.086 73.6918 163.013C73.7466 162.904 75.1524 160.408 77.9001 159.97C78.1739 159.924 78.4295 160.116 78.4752 160.39C78.5208 160.664 78.3291 160.92 78.0553 160.966C75.7823 161.331 74.5773 163.479 74.5682 163.498C74.486 163.653 74.3126 163.754 74.13 163.754Z" fill="#FFCF2D"/>
<path d="M18.1813 142.156C18.1813 142.156 12.1291 145.529 7.40961 147.741L16.9215 165.271C16.9215 165.271 18.9846 168.352 21.0659 168.607C21.0659 168.607 25.2011 163.096 22.7181 154.413C21.5588 150.391 18.6286 149.212 19.231 145.255C19.4866 143.546 18.1813 142.156 18.1813 142.156Z" fill="white"/>
<path d="M21.0659 168.817C21.0567 168.817 21.0476 168.817 21.0385 168.817C20.1621 168.707 19.1945 168.131 18.1721 167.108C17.4327 166.358 16.812 165.508 16.3099 164.585L7.21789 147.85C7.16311 147.749 7.19963 147.621 7.30004 147.566C7.30004 147.566 7.30917 147.566 7.30917 147.557C11.9647 145.373 18.0078 142.009 18.0626 141.973C18.163 141.918 18.2908 141.954 18.3456 142.055C18.4003 142.156 18.3638 142.283 18.2634 142.338C18.1995 142.375 12.3207 145.647 7.68344 147.841L16.6659 164.384C17.1406 165.271 17.7522 166.093 18.4551 166.806C19.3497 167.702 20.2078 168.241 20.9472 168.378C21.2302 167.958 22.3073 166.267 22.9281 163.735C23.5945 161.039 23.8683 156.816 21.4127 151.99C21.358 151.89 21.4036 151.762 21.504 151.707C21.6044 151.652 21.7322 151.698 21.787 151.798C24.2974 156.752 24.0144 161.085 23.3297 163.854C22.5903 166.852 21.2667 168.652 21.2119 168.735C21.1937 168.79 21.1298 168.817 21.0659 168.817Z" fill="#5B2448"/>
<path d="M13.5166 149.202C13.7722 149.942 13.6718 150.627 13.5531 151.349C13.4345 152.081 13.3158 152.839 13.5805 153.689C13.7905 154.375 14.1739 154.786 14.539 155.188C14.822 155.499 15.0867 155.782 15.251 156.185C15.3423 156.404 15.3971 156.861 15.4792 157.446C15.8079 159.941 16.4834 165.041 21.568 167.802C21.6319 167.692 21.6958 167.564 21.7688 167.436C16.8668 164.776 16.2095 159.822 15.89 157.4C15.8079 156.77 15.744 156.313 15.6344 156.038C15.4427 155.572 15.1415 155.234 14.8494 154.914C14.5025 154.53 14.1739 154.174 13.9822 153.571C13.7448 152.812 13.8544 152.136 13.9639 151.423C14.0826 150.682 14.2012 149.915 13.9091 149.074C13.3067 147.364 11.7365 146.423 10.8693 146.012C10.7142 146.094 10.5498 146.176 10.3947 146.259C11.061 146.533 12.8959 147.428 13.5166 149.202Z" fill="#5B2448"/>
<path d="M13.0784 145.255C13.407 146.05 13.7539 146.863 15.251 147.458C15.4153 147.522 15.5887 147.586 15.7713 147.65C16.5563 147.924 17.3597 148.207 17.8891 149.021C17.9256 149.085 17.9986 149.121 18.0625 149.121C18.0991 149.121 18.1447 149.112 18.1721 149.085C18.2725 149.021 18.2999 148.893 18.236 148.792C17.6335 147.851 16.7207 147.531 15.9082 147.247C15.7348 147.183 15.5613 147.129 15.4061 147.065C14.0734 146.534 13.7904 145.858 13.4618 145.081L13.407 144.953V144.944C13.3614 144.834 13.2336 144.789 13.1331 144.844C13.0236 144.889 12.978 145.017 13.0327 145.118L13.0784 145.255Z" fill="#5B2448"/>
<path d="M11.5996 152.008C11.0245 152.008 10.3307 151.496 9.85602 150.664C9.60042 150.225 9.45436 149.732 9.42698 149.22C9.41785 148.726 9.59129 148.352 9.91079 148.169C10.2303 147.986 10.6319 148.032 11.061 148.297C11.49 148.58 11.8369 148.955 12.0743 149.403C12.3298 149.841 12.4759 150.335 12.5033 150.847C12.5124 151.34 12.339 151.715 12.0195 151.898C11.8917 151.971 11.7548 152.008 11.5996 152.008ZM10.3398 148.489C10.2668 148.489 10.1938 148.507 10.1207 148.544C9.9473 148.644 9.84689 148.891 9.84689 149.22C9.86515 149.659 9.99295 150.088 10.2212 150.463C10.6228 151.176 11.3714 151.788 11.8095 151.542C11.983 151.441 12.0834 151.194 12.0834 150.865C12.0651 150.426 11.9373 149.997 11.7091 149.622C11.4992 149.238 11.207 148.909 10.8419 148.662C10.6958 148.562 10.5224 148.498 10.3398 148.489Z" fill="#5B2448"/>
<path d="M23.5762 156.596C23.4575 156.596 23.3389 156.551 23.2476 156.468C20.9837 154.476 18.4916 154.732 18.4642 154.741C18.1904 154.768 17.9439 154.576 17.9074 154.293C17.88 154.019 18.0717 153.772 18.3456 153.735C18.4642 153.717 21.3032 153.416 23.914 155.71C24.1239 155.893 24.1422 156.212 23.9596 156.423C23.8592 156.532 23.7223 156.596 23.5762 156.596Z" fill="#FFCF2D"/>
<path d="M23.9505 159.165C23.8136 159.165 23.6858 159.111 23.5945 159.01C21.6045 156.963 18.9024 157.091 18.875 157.091C18.6012 157.109 18.3638 156.899 18.3456 156.615C18.3273 156.332 18.5373 156.103 18.8203 156.085C18.9481 156.076 21.997 155.921 24.3156 158.306C24.5073 158.507 24.5073 158.827 24.3065 159.019C24.2061 159.111 24.0783 159.165 23.9505 159.165Z" fill="#FFCF2D"/>
<path d="M23.8866 161.577C23.7314 161.577 23.5854 161.504 23.4941 161.385C22.0792 159.612 19.6236 159.612 19.6053 159.612C19.3315 159.612 19.1033 159.393 19.0941 159.109C19.085 158.826 19.3132 158.607 19.5962 158.598C19.7149 158.598 22.5538 158.589 24.2883 160.755C24.4617 160.974 24.4252 161.285 24.2061 161.458C24.1148 161.532 24.0053 161.577 23.8866 161.577Z" fill="#FFCF2D"/>
<path d="M47.8216 75.5246C59.6157 78.0472 68.7168 77.2063 70.8985 75.4789C69.4562 73.5503 55.4987 68.7153 51.61 67.911C47.7212 67.1066 31.5728 64.2092 31.655 69.2911C31.6459 69.282 31.4451 73.2761 47.8216 75.5246Z" fill="#5B2448"/>
<path d="M32.4582 144.889C32.4582 144.889 27.3645 142.083 24.1512 136.571L26.4242 134.387L32.4582 144.889Z" fill="#9B3C82"/>
<path d="M48.8714 70.709C48.8714 70.709 43.3212 73.1676 40.6101 83.0389C39.4599 87.2524 40.6009 98.4489 40.537 100.697C40.5462 104.71 39.7337 110.212 39.7337 110.212C37.269 115.166 32.4674 121.089 18.5555 127.734C24.7995 127.176 26.616 140.575 32.4674 144.889C32.4674 144.889 46.3245 138.309 53.463 121.875C56.731 114.353 57.297 107.753 57.297 107.753C57.297 107.753 58.7302 111.455 58.7484 120.504C58.7576 124.973 53.7004 137.157 47.9677 141.837C52.7327 138.738 58.8854 148.088 71.3093 146.8C77.9731 121.875 77.9731 96.237 70.0496 75.8457L48.8714 70.709Z" fill="#F94F46"/>
<path d="M54.0929 95.6598C54.0746 95.5684 53.9924 95.5044 53.9012 95.5227C53.8099 95.5409 53.746 95.6232 53.7642 95.7146C54.2389 98.612 55.1335 101.656 56.0098 104.599C56.4389 106.043 56.8497 107.45 57.1783 108.73C57.2422 108.282 57.2696 107.971 57.2878 107.834C57.0049 106.774 56.6671 105.659 56.3293 104.507C55.4621 101.573 54.5584 98.5389 54.0929 95.6598Z" fill="#FCB6B1"/>
<path d="M42.3902 104.361C42.4267 104.27 42.3902 104.169 42.2989 104.142C42.2167 104.105 42.1163 104.151 42.0798 104.233L41.9885 104.443C41.2765 106.116 40.601 107.715 39.8616 109.223C39.7794 109.845 39.7338 110.22 39.7338 110.22C39.7155 110.247 39.7064 110.275 39.6881 110.302C40.6283 108.511 41.4408 106.6 42.2989 104.571L42.3902 104.361Z" fill="#FCB6B1"/>
<path d="M60.6198 114.835C60.6381 114.744 60.5833 114.653 60.492 114.634C60.4007 114.616 60.3095 114.671 60.2912 114.762C59.7526 117.23 59.214 119.214 58.7393 120.74C58.7211 121.252 58.6481 121.846 58.5203 122.504C59.0862 120.868 59.8622 118.327 60.6198 114.835C60.6198 114.845 60.6198 114.845 60.6198 114.835Z" fill="#FCB6B1"/>
<path d="M31.445 69.1995C31.1711 68.3952 31.2898 67.6 31.7553 67.079C32.2118 66.5672 32.9512 66.3844 33.8275 66.5672C33.9279 66.5855 34.001 66.686 33.9827 66.7865C33.9645 66.8871 33.864 66.9602 33.7545 66.9419H33.7454C33.006 66.7865 32.4035 66.9328 32.0383 67.3349C31.6641 67.7554 31.5728 68.4043 31.801 69.0807C32.367 70.7716 37.9719 77.2701 42.4814 78.0105C42.4814 78.0105 42.454 78.0745 42.4266 78.1293C42.3718 78.239 42.2988 78.3852 42.2988 78.3852C38.6474 77.8277 32.7869 72.4716 31.445 69.1995Z" fill="#21A0AA"/>
<path d="M62.1808 70.2427L61.5965 69.7491L61.1219 67.0894L60.8389 65.5081L60.7658 65.1151L60.6654 64.5484L56.0646 38.9473L56.0555 38.9564C55.9825 39.0478 55.9095 39.1483 55.8182 39.258C55.5717 39.5779 55.2522 39.9892 54.8688 40.4736C50.6697 45.784 39.0582 60.0241 31.9927 66.87C24.9272 73.7159 31.9927 66.87 31.9836 66.8791C31.9014 66.9523 31.8284 67.0345 31.7463 67.1076C31.7463 67.1076 31.7463 67.1076 31.7371 67.1168C31.728 67.1259 31.7189 67.1351 31.7097 67.1442H31.7189C32.3305 66.7877 32.933 66.742 33.572 66.9157H33.5811C36.2466 67.6652 39.4781 72.3997 46.0233 75.6261C54.1477 79.6386 66.3799 78.7977 70.8894 77.6369L62.1808 70.2427Z" fill="#21A0AA"/>
<path d="M73.0072 62.8477C69.6479 65.8639 65.8322 68.3682 62.1716 70.2328C61.0488 70.8086 59.9443 71.3204 58.8671 71.7683C52.2763 74.5103 46.9087 74.8393 46.8357 71.8414C46.8357 71.7957 46.8448 71.7409 46.8448 71.6952L47 70.772L47.4838 70.3973C47.5751 70.2968 47.6116 70.2419 47.7212 70.1414C47.7212 70.1414 47.7851 70.0865 47.7851 70.0774C49.6199 68.3408 53.8555 66.8601 58.3468 65.6993L58.3559 65.6902C59.1501 65.4891 59.9534 65.2972 60.7476 65.1052C63.9426 64.3649 67.0645 63.7891 69.3558 63.4052C71.574 63.0487 73.0072 62.8477 73.0072 62.8477Z" fill="#5B2448"/>
<path d="M101.99 62.0333C101.999 62.1339 101.99 62.2436 101.972 62.3807C101.926 62.8377 101.735 63.4775 101.169 64.1812C101.141 64.2087 101.123 64.2452 101.096 64.2726C101.077 64.3001 101.05 64.3275 101.023 64.3549C101.013 64.364 101.004 64.3732 100.995 64.3823C100.995 64.3823 100.995 64.3823 101.004 64.3915C101.013 64.4006 101.023 64.4097 101.032 64.428C101.041 64.4463 101.05 64.4554 101.068 64.4829C101.096 64.5286 101.123 64.5834 101.141 64.6657V64.6839C101.15 64.7114 101.15 64.7388 101.16 64.7662C101.205 65.0587 101.15 65.5248 100.74 66.2377C100.685 66.3383 100.621 66.4297 100.557 66.5394C100.557 66.5485 100.548 66.5485 100.548 66.5576C100.548 66.5576 100.566 66.6033 100.584 66.6765C100.594 66.6947 100.594 66.7222 100.594 66.7496C100.594 66.777 100.603 66.7953 100.603 66.8227V66.8867C100.603 67.0238 100.584 67.1974 100.493 67.3985C100.493 67.4077 100.484 67.4077 100.484 67.4168C100.256 67.9012 99.626 68.5045 98.0102 68.9432C98.0102 68.9432 98.0011 68.9432 97.992 68.9432C97.499 69.0803 91.9397 70.7986 90.3057 71.5024C89.1738 71.9868 80.0909 75.7616 76.9051 76.7396C73.564 77.7633 62.3451 79.7193 57.9268 70.0308C57.8173 69.7841 59.497 68.1389 59.497 68.1389C59.497 68.1389 57.2605 68.3582 57.1144 67.8647C56.9775 67.4259 56.8588 66.9781 56.7584 66.5028C56.7584 66.4937 56.7584 66.4845 56.7493 66.4754L61.3044 64.1995L71.8387 58.9349C71.9209 59.1999 72.003 59.4833 72.0943 59.7758C72.1491 59.9677 72.213 60.1596 72.2678 60.3516C72.3317 60.5618 72.3956 60.7812 72.4595 61.0005C73.0711 63.0113 73.6827 65.0587 73.6827 65.0587C75.7275 64.3275 85.9971 62.1247 87.9232 61.6312C89.758 61.165 94.0119 59.7483 97.1978 58.9349C98.5123 58.5967 100.247 58.2402 101.306 58.2402C101.415 58.2402 101.497 58.2585 101.552 58.2768C101.652 58.3225 101.698 58.3956 101.671 58.5053C101.643 58.6241 101.552 58.7795 101.388 58.9897C101.324 59.0811 101.242 59.1725 101.141 59.2822C101.105 59.3279 101.059 59.3736 101.013 59.4193C100.968 59.465 100.922 59.5198 100.877 59.5655C100.877 59.5655 100.877 59.5655 100.867 59.5747C100.877 59.5747 100.895 59.5655 100.904 59.5564C101.908 59.1725 102.273 58.8161 102.474 58.487C102.83 59.3736 102.949 60.507 101.917 61.622V61.6403C101.917 61.6495 101.917 61.6495 101.926 61.6586C101.935 61.686 101.935 61.7226 101.945 61.7683C101.954 61.7957 101.954 61.8323 101.954 61.878C101.981 61.9419 101.981 61.9876 101.99 62.0333Z" fill="#F4ADA2"/>
<path d="M101.99 62.0343C101.981 62.0434 101.972 62.0434 101.972 62.0526C100.95 62.7838 99.4891 63.3322 98.8683 63.5515C98.8501 63.5607 98.8318 63.5607 98.8044 63.5607C98.7405 63.5607 98.6857 63.515 98.6584 63.451C98.631 63.3687 98.6766 63.2773 98.7588 63.2408C99.4525 62.994 100.119 62.7198 100.685 62.4364C101.187 62.1805 101.625 61.9155 101.945 61.6687C101.954 61.6595 101.963 61.6595 101.963 61.6504C101.954 61.6595 101.954 61.6687 101.945 61.6687C101.954 61.7144 101.981 61.8423 101.99 62.0343Z" fill="#9B3C82"/>
<path d="M101.141 64.6676C100.393 65.1885 99.3613 65.5541 98.7314 65.7369C98.7131 65.7461 98.6949 65.7461 98.6766 65.7461C98.6127 65.7461 98.5488 65.7004 98.5306 65.6273C98.5032 65.545 98.5579 65.4536 98.6401 65.4262C99.2608 65.2434 100.292 64.8778 100.995 64.3659C101.004 64.3568 101.014 64.3568 101.014 64.3477C101.004 64.3568 100.995 64.3659 100.986 64.3751C100.986 64.3751 100.986 64.3751 100.995 64.3842C101.004 64.3934 101.014 64.4025 101.023 64.4208C101.032 64.4391 101.041 64.4482 101.059 64.4756C101.096 64.5305 101.123 64.5853 101.141 64.6676Z" fill="#9B3C82"/>
<path d="M100.612 66.8975C100.584 66.9158 100.557 66.934 100.521 66.9523C99.8359 67.3636 99.0965 67.583 98.5579 67.7109C98.5396 67.7109 98.5305 67.7109 98.5122 67.7109C98.4392 67.7109 98.3753 67.6561 98.3662 67.583C98.3479 67.5007 98.4027 67.4093 98.4849 67.391C99.0508 67.2631 99.8541 67.0163 100.557 66.541C100.557 66.5502 100.548 66.5502 100.548 66.5593C100.548 66.5593 100.566 66.605 100.584 66.6781C100.603 66.733 100.612 66.8061 100.612 66.8975Z" fill="#9B3C82"/>
<path d="M101.397 59.0098C101.333 59.1012 101.014 59.549 101.014 59.549L100.886 59.5947C99.3978 60.2345 97.8916 60.6184 96.7505 60.6458H96.7414C96.6592 60.6458 96.5862 60.5727 96.5862 60.4904C96.5862 60.399 96.6592 60.3259 96.7505 60.3259C97.7638 60.2985 99.4708 59.942 101.397 59.0098Z" fill="#9B3C82"/>
<path d="M71.145 60.1699L67.1832 61.7968L61.3227 64.2007L56.6762 66.1018L54.668 66.9244C54.8049 67.3448 54.9418 67.7653 55.0879 68.1766C55.7269 68.076 56.4024 67.9755 57.1418 67.8567C57.3791 68.6336 57.6439 69.3556 57.9451 70.0137C59.3509 69.511 60.6837 69.0357 61.6787 68.5879C64.1434 67.4911 67.2379 65.6722 69.9491 62.9942C70.5425 62.4092 71.1176 61.7877 71.6562 61.1296C71.8752 60.8828 71.145 60.1699 71.145 60.1699Z" fill="#9B3C82"/>
<path d="M50.7884 59.1728C52.0025 53.1678 52.5867 48.5339 53.5361 44.8779C53.6639 44.3752 53.8008 43.8999 53.9468 43.4337C54.2937 42.3369 54.6863 41.3315 55.1701 40.4084C55.3344 40.0976 55.5078 39.796 55.6904 39.5035L56.0464 38.9551C59.6157 33.8459 64.0156 37.7943 66.4803 42.4192C66.7359 42.9036 72.4686 61.0282 72.4686 61.0282C72.4686 61.0282 71.145 62.2165 69.94 63.0391C67.3932 64.7939 63.2762 66.9693 57.7534 67.801C57.5983 67.8193 57.4522 67.8467 57.3061 67.865C57.2605 67.8741 57.2057 67.8833 57.1601 67.8833C57.151 67.8833 57.1418 67.8833 57.1327 67.8833C56.3933 67.9929 55.7178 68.1026 55.0788 68.2032C50.5145 68.9252 48.4606 69.4005 47.5204 70.3054C47.5112 70.3145 47.493 70.3328 47.4838 70.3419C47.1643 70.6618 46.927 71.0366 46.7718 71.457C46.7718 71.4661 46.7718 71.4753 46.7627 71.4753C46.7627 71.457 46.7718 71.4479 46.7718 71.4296C46.7718 71.4204 46.7718 71.4204 46.7718 71.4113C46.7992 71.3016 46.8266 71.1919 46.8631 71.064C46.8631 71.0548 46.8722 71.0457 46.8722 71.0366" fill="#21A0AA"/>
<path d="M55.8091 39.2578C55.7817 39.3127 55.7543 39.3675 55.7269 39.4223C55.7178 39.4406 55.7086 39.4589 55.6995 39.4863C55.024 40.8208 54.3576 43.3708 53.9651 44.9063C53.4083 47.036 52.9792 49.5038 52.4772 52.3646C52.1211 54.3937 51.7195 56.6878 51.2174 59.2013L51.1444 59.5669C50.5328 62.5831 49.3461 65.6085 48.3967 68.0397C48.0681 68.8806 47.7668 69.6392 47.5386 70.2973C47.5295 70.3247 47.5204 70.3521 47.5112 70.3795C47.1461 70.8 46.9179 71.2387 46.8722 71.6866C46.8722 71.6866 46.8266 71.2844 47.0457 70.5532C47.0548 70.5349 47.0548 70.5166 47.0639 70.4984C47.3104 69.7672 47.6573 68.8806 48.0407 67.9026C48.9901 65.4896 50.1585 62.4826 50.7701 59.4938L50.8431 59.1282C51.3452 56.6238 51.7469 54.3297 52.1029 52.3097C52.605 49.4398 53.034 46.9628 53.5908 44.8241C53.6912 44.4219 53.819 43.9558 53.956 43.4531V43.4439C53.956 43.4348 53.956 43.4348 53.956 43.4257C54.2207 42.4568 54.5311 41.3874 54.8688 40.4734C55.2431 39.9982 55.5626 39.5869 55.8091 39.2578Z" fill="#6CE0DC"/>
</g>
<g clip-path="url(#clip5_117_4044)">
<path d="M100.543 54.4799C99.5586 55.9275 97.6638 56.5936 96.2901 55.9735C94.9022 55.3469 94.5548 53.6396 95.5354 52.1538C96.525 50.6546 98.473 49.9735 99.8649 50.6387C101.242 51.297 101.537 53.0192 100.543 54.4799Z" fill="white"/>
<path d="M97.0726 54.9375C96.9789 54.9285 96.8908 54.8887 96.822 54.8244C96.7531 54.7601 96.7073 54.6748 96.6917 54.5817L96.3354 52.4574C96.3261 52.4018 96.3278 52.3449 96.3404 52.29C96.3529 52.235 96.3762 52.1831 96.4088 52.1372C96.4746 52.0444 96.5744 51.9816 96.6864 51.9626C96.7983 51.9436 96.9131 51.97 97.0056 52.036C97.098 52.1019 97.1606 52.2021 97.1794 52.3143L97.4212 53.7541L99.5942 52.1631C99.6396 52.1299 99.6911 52.1059 99.7457 52.0926C99.8003 52.0793 99.857 52.077 99.9126 52.0856C99.9681 52.0943 100.021 52.1139 100.069 52.1432C100.117 52.1726 100.159 52.2111 100.192 52.2566C100.225 52.3021 100.249 52.3538 100.262 52.4086C100.276 52.4633 100.278 52.5202 100.269 52.5759C100.26 52.6316 100.241 52.685 100.212 52.7332C100.182 52.7813 100.144 52.8232 100.099 52.8564L97.3663 54.8569C97.2815 54.9189 97.177 54.9476 97.0726 54.9375Z" fill="#6CE0DC"/>
</g>
<defs>
<clipPath id="clip0_117_4044">
<rect width="16.416" height="4.248" fill="white" transform="translate(5.40002 165.744)"/>
</clipPath>
<clipPath id="clip1_117_4044">
<rect width="76.176" height="114.48" fill="white" transform="translate(97.056 18.2871)"/>
</clipPath>
<clipPath id="clip2_117_4044">
<rect width="16" height="16" fill="white" transform="translate(136.314 109) rotate(45)"/>
</clipPath>
<clipPath id="clip3_117_4044">
<rect width="21.744" height="22.392" fill="white" transform="translate(85.536 46.584)"/>
</clipPath>
<clipPath id="clip4_117_4044">
<rect width="95.472" height="152.784" fill="white" transform="translate(7.20001 15.9844)"/>
</clipPath>
<clipPath id="clip5_117_4044">
<rect width="6.264" height="6.336" fill="white" transform="translate(95.2856 49.8262) rotate(5.49232)"/>
</clipPath>
</defs>
</svg>
