<svg width="170" height="170" viewBox="0 0 170 170" fill="none" xmlns="http://www.w3.org/2000/svg">
<g clip-path="url(#clip0_117_4285)">
<path d="M132.239 133.915C131.184 136.064 124.413 132.993 124.413 132.993C124.413 132.993 129.483 130.69 131.558 132.49C131.635 132.567 132.63 133.13 132.239 133.915Z" fill="#5B2448"/>
<path d="M122.865 141.866L68.0008 141.064C67.0056 141.047 66.5208 139.844 67.2268 139.136L84.8598 121.624C85.8551 120.635 87.2075 120.089 88.611 120.106L137.368 120.78C138.193 120.788 138.669 121.727 138.193 122.409L125.366 140.595C124.787 141.405 123.852 141.883 122.865 141.866Z" fill="#FFCF2D"/>
<path d="M122.287 138.863L72.0497 138.471C71.2927 138.462 70.9269 137.541 71.4628 137.012L86.425 122.613C87.3436 121.718 88.577 121.231 89.8529 121.248L134.535 122.033C134.969 122.042 135.224 122.537 134.969 122.895L124.081 137.95C123.673 138.53 123.001 138.871 122.287 138.863Z" fill="white"/>
<path d="M128.615 127.185L125.128 132.004C124.838 132.405 125.136 132.96 125.629 132.943C126.999 132.883 129.253 132.806 130.903 132.806C131.822 132.806 132.256 133.378 132.239 133.77V133.915L136.432 127.756C136.772 127.262 136.696 126.622 136.253 126.178C135.956 125.888 135.547 125.752 135.131 125.769L129.61 126.579C129.21 126.639 128.853 126.852 128.615 127.185Z" fill="#9B3C82"/>
</g>
<g clip-path="url(#clip1_117_4285)">
<path d="M64.3254 80.246C63.7401 78.1897 62.5779 76.7101 61.9675 74.7959C60.8639 71.3185 60.312 67.674 60.0612 64.6815C61.6582 64.623 63.0461 64.3387 63.8906 63.7035C66.5076 61.5301 64.8772 55.52 64.4424 53.5472C65.1113 52.9955 65.7886 51.5912 64.7351 51.2819C64.2418 51.1315 63.7485 50.9476 63.3889 50.5631C63.0294 50.1786 62.7619 49.6101 62.5194 49.142C62.3438 48.791 62.1766 48.4232 62.0177 48.0554C61.792 47.5455 61.5662 47.0439 61.3154 46.5424C61.3154 46.5424 61.3154 46.534 61.307 46.534C61.1314 46.1579 60.9308 45.7984 60.7301 45.439C60.0528 44.2604 59.2502 43.1486 58.3388 42.1288C56.1147 39.7047 53.0462 38.2837 49.7352 38.4258C48.272 38.501 46.8172 38.8354 45.4543 39.4038C45.4459 39.4038 45.4459 39.4121 45.4376 39.4121C45.3456 39.4539 45.262 39.479 45.17 39.5208C37.3523 42.8644 36.9008 52.3853 41.3322 57.1583C41.4242 57.1416 41.6667 57.0831 41.7001 57.0831C41.7503 57.0747 43.3473 56.4896 44.267 56.2138C50.6549 67.9749 46.4743 79.7361 46.4743 79.7361L58.6565 85.579L64.3254 80.246Z" fill="#F4ADA2"/>
<path d="M54.8857 54.7266C56.3405 54.7266 57.5278 55.9052 57.5278 57.368C57.5278 58.8225 56.3489 60.0095 54.8857 60.0095C53.4225 60.0095 52.2435 58.8308 52.2435 57.368C52.2519 55.9052 53.4308 54.7266 54.8857 54.7266Z" fill="#E57281"/>
<path d="M57.0261 48.5153C55.8806 49.4098 55.5796 50.789 56.0813 51.2905C56.583 51.7837 57.879 51.3992 58.8405 50.3042C59.8271 49.1841 60.2619 47.9636 59.7853 47.529C59.292 47.0943 58.1549 47.6293 57.0261 48.5153Z" fill="#5B2448"/>
<path d="M62.9207 57.3327C62.7535 57.5501 62.5361 57.7173 62.2936 57.8176C62.0511 57.9262 61.7836 57.9847 61.516 57.9764C61.3906 57.968 61.2485 57.9429 61.1314 57.9095C61.006 57.8677 60.8889 57.8176 60.7635 57.7507C60.5294 57.6169 60.3371 57.4163 60.2033 57.1823L60.195 57.1739C60.1281 57.0652 59.9859 57.0235 59.8772 57.0987C59.7853 57.1488 59.7518 57.2491 59.7685 57.3411C59.8438 57.7256 60.0612 58.0767 60.3873 58.3191C60.5461 58.4361 60.7217 58.5364 60.9057 58.6033C61.0896 58.6702 61.2903 58.712 61.4826 58.7203C61.8756 58.7287 62.2685 58.6284 62.603 58.4278C62.7702 58.3275 62.9207 58.2021 63.0545 58.06C63.1883 57.9095 63.2886 57.734 63.3471 57.5501C63.3889 57.4247 63.3053 57.2909 63.1883 57.2659C63.0879 57.2324 62.9876 57.2742 62.9291 57.3578L62.9207 57.3327Z" fill="#9B3C82"/>
<path d="M58.7067 52.8107C59.1414 52.3593 60.1949 51.306 60.9224 49.977C61.0227 49.7931 61.2568 49.7178 61.4407 49.8181C61.9257 50.0856 62.6197 50.654 62.0093 51.4983C61.2484 52.5432 59.4341 53.3289 58.7819 53.1283C58.6732 53.0949 58.623 52.9778 58.6565 52.8859C58.6816 52.8608 58.6899 52.8357 58.7067 52.8107Z" fill="#5B2448"/>
<path d="M48.0797 55.2697C48.4977 55.6542 51.4325 54.0075 52.2519 53.1716C57.787 47.571 58.3304 42.589 58.0294 41.8117C56.1064 39.7052 52.6783 38.1755 49.0914 38.2507C45.3958 38.3343 41.3991 40.2903 39.267 43.4584C36.4661 47.5627 35.9978 52.2521 37.9794 58.1201C41.6667 67.6745 36.4075 70.224 32.5196 73.8184C28.6317 77.4127 23.1719 80.8734 23.7822 90.4946C24.4093 100.434 19.0749 99.8902 18.1803 107.823C16.9094 119.208 32.4778 127.55 41.3155 119.617C45.9392 115.463 37.0932 87.5021 42.9292 82.7876C48.7653 78.0648 49.2335 70.4831 46.767 60.0009C46.767 60.0176 46.7586 54.8016 48.0797 55.2697Z" fill="#5B2448"/>
<path d="M48.0379 55.3183C48.0379 55.3183 45.1951 53.6883 42.7703 55.2598C40.4794 56.7477 41.7587 60.5176 46.7252 61.5875C47.7285 61.7882 48.7653 61.8049 49.7853 61.6628L48.0379 55.3183Z" fill="#F4ADA2"/>
<path d="M48.7653 59.2225C48.8991 59.2559 49.0412 59.1556 49.0663 59.0135C49.0747 58.9383 49.0579 58.8547 49.0078 58.7962C46.7335 56.2801 44.2168 57.1662 44.1081 57.1996C43.9744 57.2497 43.8991 57.4002 43.9493 57.534C43.9995 57.6677 44.15 57.7429 44.2837 57.6928C44.3841 57.651 46.5914 56.8987 48.6148 59.1389C48.6566 59.1807 48.7151 59.2141 48.7653 59.2225Z" fill="#9B3C82"/>
<path d="M57.6281 64.5142C56.9258 64.4139 55.7552 64.1297 55.404 64.7483C55.0445 65.3835 56.4241 67.6656 60.496 68.4346C60.2953 67.0553 60.1615 65.7681 60.0696 64.6897C59.8187 64.7065 58.9157 64.6981 57.6281 64.5142Z" fill="#5B2448"/>
<path d="M49.4927 62.2408C49.6265 62.2325 49.7268 62.1238 49.7268 61.9817C49.7185 61.848 49.6098 61.7393 49.4676 61.7477C48.6232 61.7811 47.8707 61.7393 47.1432 61.6641C47.1767 61.8312 47.2018 61.9817 47.2436 62.174C47.762 62.2241 48.272 62.2576 48.8489 62.2576C49.0663 62.2492 49.2753 62.2492 49.4927 62.2408Z" fill="#9B3C82"/>
<path d="M41.4409 120.194C41.4409 120.194 44.0496 129.573 38.2553 137.748C39.5178 136.644 41.1232 137.681 42.9794 139.227C46.2653 141.952 49.5763 144.962 56.5913 144.92C76.9507 144.786 52.3522 117.828 52.3522 117.828L41.4409 120.194Z" fill="#FFCF2D"/>
<path d="M34.5681 129.572C34.5681 129.572 36.6667 119.123 67.7618 108.549C46.0061 133.609 33.9995 134.244 34.5681 129.572Z" fill="#5B2448"/>
<path d="M68.3137 107.438C68.3137 107.438 66.9424 115.086 46.675 125.234C46.675 125.234 44.1249 121.631 42.9209 118.864C41.7252 116.097 68.3137 107.438 68.3137 107.438Z" fill="#9B3C82"/>
<path d="M117.603 107.688C117.36 106.877 116.808 106.768 116.532 105.974C116.449 105.74 97.193 104.946 80.9055 103.491C72.4942 102.747 69.3755 113.614 67.6197 118.404C65.9725 122.893 67.3939 127.482 72.5109 127.189C92.7031 126.036 109.124 121.513 120.111 115.345C119.124 112.845 118.38 110.271 117.603 107.688Z" fill="#F4ADA2"/>
<path d="M77.2183 98.3516L83.4975 107.103V120.043L72.6782 120.378L69.8103 111.726L77.2183 98.3516Z" fill="#F4ADA2"/>
<path d="M33.849 132.556C33.1216 130.642 33.2386 128.201 32.8958 126.203C30.5464 99.1033 39.5262 75.8234 47.1683 76.8014C53.1967 76.1243 57.2518 81.5661 60.4207 98.4847C60.7719 100.382 55.6047 116.34 55.6047 116.34L58.4057 121.831L33.849 132.556Z" fill="#F4ADA2"/>
<path d="M107.586 134.747C108.698 135.549 110.671 136.661 113.965 139.578C119.985 144.911 112.552 142.354 112.427 142.312C117.519 147.745 105.721 141.927 105.721 141.927C114.358 149.099 103.422 143.883 92.5359 142.186C91.474 142.019 90.4038 141.885 89.3586 141.802C89.2834 141.793 89.2081 141.793 89.1329 141.785C80.0025 141.158 66.0729 146.475 52.3021 145.028C52.2603 145.028 52.2268 145.02 52.185 145.012C48.2385 144.585 44.3088 143.607 40.5128 141.768C32.8457 138.057 31.3574 131.119 32.5363 124.097C33.339 119.341 35.8557 114.51 37.7119 110.79C38.0045 110.205 38.2888 109.645 38.5731 109.11C39.1165 108.081 39.6349 107.162 40.0781 106.376C40.1282 106.284 40.1784 106.192 40.2369 106.109C40.4042 105.825 40.5547 105.565 40.6968 105.323C40.747 105.239 40.7888 105.164 40.8306 105.089C40.8557 105.039 40.8891 104.989 40.9142 104.939C40.956 104.872 40.9894 104.805 41.0312 104.746C41.048 104.713 41.0647 104.688 41.0898 104.654C41.165 104.763 41.2403 104.88 41.3155 104.989L41.3239 104.997C41.349 105.039 41.3824 105.081 41.4075 105.122C41.5078 105.273 41.6082 105.432 41.7168 105.591C42.3523 106.543 43.0379 107.563 43.8322 108.591C43.9242 108.717 44.0245 108.842 44.1249 108.968C44.2252 109.093 44.3255 109.218 44.4259 109.344C44.5262 109.469 44.6349 109.594 44.7436 109.72C44.8523 109.845 44.961 109.971 45.0697 110.096C45.1784 110.221 45.2954 110.347 45.4125 110.472C45.4376 110.506 45.471 110.531 45.4961 110.564C45.5379 110.606 45.5797 110.656 45.6215 110.698C45.6633 110.74 45.7051 110.79 45.7469 110.832C45.9476 111.041 46.1483 111.241 46.3656 111.442C46.3907 111.459 46.4074 111.484 46.4325 111.5C46.5078 111.567 46.5747 111.634 46.6499 111.701C46.6499 111.701 46.6499 111.709 46.6583 111.709C47.3021 112.303 47.9961 112.855 48.6984 113.373C48.7904 113.44 48.874 113.507 48.966 113.565L49.2168 113.741C49.6934 114.075 50.1867 114.393 50.6716 114.702L51.2486 115.053C51.3405 115.111 51.4409 115.17 51.5328 115.22C51.6415 115.287 51.7502 115.345 51.8589 115.404C51.9258 115.446 51.9927 115.479 52.0596 115.521C52.1014 115.546 52.1432 115.563 52.1766 115.588C52.394 115.705 52.6114 115.822 52.8204 115.939C52.9208 115.989 53.0211 116.048 53.1131 116.098C53.2301 116.156 53.3472 116.223 53.4643 116.282C53.5646 116.332 53.6649 116.382 53.7736 116.432C53.8238 116.457 53.8823 116.482 53.9325 116.507C54.0412 116.566 54.1499 116.616 54.2586 116.666C54.3589 116.716 54.4592 116.767 54.5596 116.808C54.6599 116.858 54.7602 116.9 54.8606 116.95C54.9609 117.001 55.0612 117.042 55.1616 117.084C55.2452 117.126 55.3288 117.159 55.4124 117.201C55.5295 117.251 55.6465 117.302 55.7636 117.36H55.7719C55.8137 117.377 55.8639 117.402 55.9057 117.419C55.9392 117.435 55.9726 117.452 56.006 117.46C56.0228 117.469 56.0311 117.469 56.0478 117.477C56.1482 117.519 56.2402 117.561 56.3321 117.602C56.3488 117.611 56.3572 117.611 56.3739 117.619C56.4074 117.636 56.4408 117.653 56.4743 117.661C56.4993 117.669 56.5244 117.686 56.5495 117.694C56.5662 117.703 56.5913 117.711 56.608 117.719C56.6833 117.753 56.7502 117.778 56.8171 117.811C56.884 117.836 56.9508 117.87 57.0177 117.895C57.0679 117.912 57.1097 117.928 57.1515 117.954C57.1933 117.97 57.2351 117.987 57.2769 118.004C57.4442 118.071 57.603 118.137 57.7619 118.196C57.8455 118.229 57.9375 118.263 58.0211 118.296C58.0629 118.313 58.113 118.33 58.1549 118.346C58.1967 118.363 58.2301 118.38 58.2719 118.388C58.4642 118.463 58.6565 118.53 58.8321 118.597C58.8906 118.614 58.9408 118.639 58.991 118.656C59.0411 118.672 59.0913 118.689 59.1415 118.706C59.1666 118.714 59.1916 118.723 59.2167 118.731C59.2418 118.739 59.2669 118.748 59.292 118.756C59.501 118.831 59.7017 118.898 59.8773 118.957C59.9107 118.965 59.9441 118.982 59.9776 118.99L60.0528 119.015C60.0863 119.023 60.1114 119.032 60.1448 119.04C60.1866 119.057 60.2284 119.065 60.2619 119.082C60.2869 119.09 60.3037 119.099 60.3288 119.107C60.3622 119.115 60.404 119.132 60.4374 119.14C60.613 119.199 60.7552 119.241 60.8471 119.266C60.8639 119.274 60.8806 119.274 60.8973 119.283C60.9224 119.291 60.9475 119.299 60.9642 119.299H60.9809H60.9893H60.9976L60.9893 119.308L60.9809 119.316C60.9809 119.316 58.6565 122.651 58.69 122.651C68.021 121.807 87.5526 124.95 101.616 129.029C101.624 129.029 101.633 129.029 101.641 129.021C103.364 128.762 104.902 128.285 106.524 127.8C110.295 126.664 110.688 127.441 107.16 130.801C110.997 132.122 113.455 133.368 115.111 134.638C121.775 139.745 111.633 136.151 107.586 134.747Z" fill="#F4ADA2"/>
<path d="M58.4893 118.104C53.5646 122.334 39.7603 122.51 32.1768 128.804L32.3273 115.104L58.2552 116.934L58.4893 118.104Z" fill="#9B3C82"/>
<path d="M62.0762 75.1133L63.5227 79.0086C63.8822 80.1036 61.5829 85.1943 46.3656 75.9575C42.762 76.3421 35.3624 83.8903 33.3306 100.801C32.2186 109.678 32.1851 122.133 32.1851 122.133C32.1851 122.133 39.3088 121.489 42.9459 121.272C52.7034 120.703 56.2318 119.6 58.2134 118.288L58.8488 124.264C58.8488 124.264 75.3871 125.828 85.0443 125.125C84.0576 123.353 78.8236 105.181 79.7015 102.832C76.9758 98.8696 73.0544 90.427 71.4825 86.7825C67.118 76.6513 64.8103 75.1634 62.0762 75.1133Z" fill="#21A0AA"/>
<path d="M80.245 110.013C80.245 110.138 80.362 110.247 80.4875 110.247C80.6212 110.238 80.7299 110.13 80.7299 110.004C80.6547 107.33 80.8135 104.621 80.8888 103.493L80.4457 102.857C80.4373 102.874 80.4373 102.891 80.4373 102.908C80.4457 102.949 80.1447 106.502 80.245 110.013Z" fill="#9B3C82"/>
<path d="M115.036 134.57C113.38 133.3 110.922 132.054 107.084 130.734C110.613 127.373 110.211 126.596 106.449 127.733C104.835 128.217 103.297 128.694 101.566 128.953C101.558 128.953 101.549 128.961 101.541 128.961C87.4774 124.882 67.9458 121.731 58.6147 122.583C58.6064 122.583 43.0128 122.441 35.655 132.397C34.9025 133.417 34.6099 134.696 34.0999 135.849C35.3373 138.19 39.8272 144.016 52.1181 144.944C52.1599 144.944 52.1934 144.952 52.2352 144.961C66.0143 146.407 79.944 141.09 89.066 141.717C89.1413 141.717 89.2165 141.726 89.2918 141.734C90.3369 141.818 91.3988 141.951 92.469 142.119C103.364 143.815 114.292 149.031 105.655 141.859C105.655 141.859 117.452 147.677 112.36 142.244C112.486 142.286 119.927 144.844 113.899 139.511C110.604 136.593 108.631 135.481 107.519 134.679C111.574 136.083 121.708 139.678 115.036 134.57Z" fill="#F4ADA2"/>
<path d="M105.186 137.371C105.136 137.479 105.186 137.596 105.287 137.647C107.603 138.708 109.969 140.43 112.444 142.319C112.644 142.386 113.062 142.52 113.547 142.637C110.738 140.48 108.079 138.466 105.454 137.262C105.353 137.22 105.228 137.262 105.186 137.371Z" fill="#9B3C82"/>
<path d="M103.272 140.213C103.221 140.313 103.263 140.439 103.364 140.497C103.38 140.505 104.584 141.116 105.797 141.968C106.148 142.135 106.716 142.403 107.394 142.704C105.889 141.308 103.648 140.171 103.547 140.121C103.447 140.071 103.322 140.113 103.272 140.213Z" fill="#9B3C82"/>
<path d="M107.544 130.433C106.7 130.157 104.559 129.471 102.435 128.803C102.143 128.861 101.842 128.911 101.541 128.962C103.782 129.664 106.148 130.433 107.201 130.767C107.31 130.658 107.435 130.533 107.544 130.433Z" fill="#9B3C82"/>
<path d="M91.265 126.462C91.2566 126.462 91.2482 126.462 91.2315 126.462L85.0108 125.292C84.9189 125.275 84.8603 125.191 84.8771 125.099C84.8938 125.008 84.9858 124.949 85.0694 124.966L91.2901 126.136C91.382 126.153 91.4406 126.236 91.4238 126.328C91.4071 126.412 91.3402 126.462 91.265 126.462Z" fill="#9B3C82"/>
<path d="M52.8372 125.234C52.787 125.234 52.7452 125.217 52.7117 125.175C52.6532 125.1 52.6616 125 52.7368 124.941C52.8539 124.849 55.6131 122.592 58.5729 122.266C58.6649 122.258 58.7485 122.325 58.7569 122.417C58.7652 122.509 58.6983 122.592 58.6064 122.601C55.7385 122.918 52.9709 125.175 52.9459 125.2C52.9124 125.225 52.879 125.234 52.8372 125.234Z" fill="#9B3C82"/>
<path d="M133.012 104.128C132.602 104.429 132.193 104.747 131.817 105.081C131.808 105.09 131.808 105.098 131.8 105.098C128.322 110.155 123.873 113.591 119.099 115.898C105.554 122.443 89.4255 119.877 85.4707 119.467L109.2 105.449L114.743 105.742L115.629 105.541C115.629 105.541 115.863 105.449 116.273 105.232C116.884 104.906 117.87 104.304 118.974 103.317C120.086 102.331 121.315 100.977 122.427 99.138C125.378 94.2563 125.746 95.3597 125.713 97.533C125.713 97.533 125.713 97.533 125.713 97.5247C126.006 96.9395 126.281 96.4213 126.524 95.9365C126.524 95.9365 126.524 95.9365 126.524 95.9281C129.4 90.5449 129.86 92.1247 129.91 94.9334L129.919 94.9167L129.927 94.8832C129.96 94.7996 129.994 94.716 130.036 94.6324C130.044 94.6241 130.044 94.6157 130.044 94.6074C130.278 94.064 130.495 93.6126 130.688 93.2281C130.696 93.2114 130.704 93.1947 130.713 93.178C132.293 90.1938 132.845 92.0662 132.703 94.4235V94.4402C132.703 94.5154 132.694 94.5823 132.686 94.6492V94.6575C132.912 94.1978 133.163 93.7547 133.43 93.3284C133.447 93.3034 133.464 93.2783 133.48 93.2532C133.982 92.4925 134.4 92.1164 134.701 92.1164C135.102 92.1164 135.286 92.7684 135.178 94.0306C134.935 96.7306 133.898 100.409 133.898 100.409H133.915C133.982 100.4 134.241 100.358 134.601 100.308C135.219 100.233 136.123 100.158 136.816 100.241C139.668 100.584 136.139 101.846 133.012 104.128Z" fill="#F4ADA2"/>
<path d="M116.256 105.23C116.006 105.439 115.771 105.648 115.562 105.857C114.124 107.253 113.472 108.549 113.472 108.566C113.414 108.725 113.23 108.808 113.071 108.741C112.912 108.683 112.828 108.499 112.895 108.34C112.92 108.273 113.472 107.12 114.693 105.791C114.71 105.774 114.726 105.757 114.743 105.74L115.211 105.632C115.546 105.556 115.863 105.439 116.164 105.281C116.19 105.264 116.223 105.247 116.256 105.23Z" fill="#9B3C82"/>
<path d="M126.532 95.9355C126.198 100.642 123.581 105.189 123.48 105.381C123.397 105.532 123.213 105.582 123.062 105.498C122.97 105.448 122.912 105.356 122.903 105.256C122.895 105.189 122.912 105.13 122.945 105.072C122.97 105.03 125.027 101.461 125.713 97.5238C126.005 96.947 126.281 96.4204 126.532 95.9355Z" fill="#9B3C82"/>
<path d="M130.696 93.2363C130.621 95.0001 130.052 97.3155 129.484 99.4471C128.982 101.345 128.372 103.217 127.669 105.056C127.611 105.215 127.427 105.29 127.268 105.232C127.159 105.19 127.084 105.089 127.076 104.972C127.067 104.922 127.076 104.872 127.093 104.83C127.996 102.515 129.442 98.2685 129.919 94.9416C130.395 91.6147 129.919 94.9332 129.927 94.9332C129.969 94.8329 130.011 94.7326 130.044 94.6406C130.052 94.6323 130.052 94.6239 130.052 94.6156C130.286 94.0722 130.504 93.6125 130.696 93.2363Z" fill="#9B3C82"/>
<path d="M133.439 93.3359C133.255 94.9158 132.87 96.8718 132.452 98.7944C132 100.918 131.415 103.049 130.696 104.763C130.629 104.922 130.445 104.997 130.295 104.93C130.194 104.888 130.119 104.788 130.111 104.679C130.102 104.629 130.111 104.579 130.136 104.529C131.315 101.72 132.243 97.8164 132.686 94.665C132.92 94.2053 133.171 93.7622 133.439 93.3359Z" fill="#9B3C82"/>
<path d="M134.584 100.316C134.141 101.62 133.539 102.958 132.92 104.195C132.51 104.496 132.101 104.88 131.724 105.215C131.716 105.223 131.716 105.232 131.708 105.232C132.544 103.727 133.338 102.038 133.907 100.417C133.974 100.408 134.032 100.392 134.408 100.341" fill="#9B3C82"/>
<path d="M47.578 75.498L50.8305 132.289L76.1647 125.694C76.1647 125.694 71.6414 119.5 66.4825 109.695C62.6364 102.397 53.4224 79.7277 53.4224 79.7277L47.578 75.498Z" fill="#B0DCF7"/>
<path d="M62.0679 75.0789L63.5227 79.0077L84.6764 124.849L85.5794 126.813C85.5794 126.813 93.1546 125.317 99.877 123.419C107.502 121.263 112.879 118.838 112.879 118.838C112.879 118.838 109.969 115.938 108.915 112.193C107.954 108.774 109.091 105.406 109.091 105.406C109.45 105.481 80.8972 103.508 80.8972 103.508C80.8972 103.508 72.5527 87.5506 67.7618 78.9157C65.4374 74.7028 62.0679 75.0789 62.0679 75.0789Z" fill="#B0DCF7"/>
<path d="M44.384 75.9989C48.0797 74.1515 51.4492 77.3698 52.1014 77.9967C56.8003 82.5273 56.9007 97.9664 56.9007 98.8107C56.909 113.941 58.6565 122.492 58.6565 122.492C58.6565 122.492 68.8237 122.3 77.536 123.445C85.8971 124.54 95.571 127.373 95.571 127.373C95.571 127.373 93.2716 129.864 92.1345 134.002C90.9138 138.458 91.5242 142.044 91.5242 142.044C91.5242 142.044 88.5309 141.943 85.0108 142.186C77.1012 142.729 63.4391 145.128 61.3906 145.237C53.4224 145.663 43.1884 144.702 37.8373 140.965C33.3473 137.831 30.9728 132.832 30.9728 122.442C30.9811 115.654 32.1768 82.0926 44.384 75.9989Z" fill="#B0DCF7"/>
<path d="M100.981 114.107C101.75 117.326 103.121 120.134 104.752 121.923C104.869 121.881 104.986 121.848 105.103 121.806C103.464 120.076 102.076 117.267 101.307 114.024C100.42 110.337 100.538 106.952 101.591 104.904C101.474 104.896 101.349 104.887 101.231 104.879C100.195 107.01 100.094 110.421 100.981 114.107Z" fill="#66B0F0"/>
<path d="M105.596 117.904C105.069 118.129 104.827 118.748 105.052 119.275C105.22 119.667 105.604 119.901 106.014 119.901C106.156 119.901 106.29 119.876 106.424 119.818C106.95 119.592 107.193 118.974 106.967 118.447C106.741 117.912 106.131 117.67 105.596 117.904ZM106.298 119.509C105.939 119.667 105.521 119.5 105.362 119.141C105.287 118.965 105.287 118.773 105.353 118.597C105.42 118.422 105.554 118.28 105.73 118.205C105.822 118.163 105.914 118.146 106.014 118.146C106.29 118.146 106.549 118.305 106.666 118.572C106.825 118.932 106.658 119.35 106.298 119.509Z" fill="#66B0F0"/>
<path d="M79.6932 106.776C79.7851 106.776 79.8604 106.701 79.8604 106.609C79.9106 105.347 80.6798 104.118 81.1229 103.516C80.9808 103.508 80.9055 103.5 80.9055 103.5C80.9055 103.5 80.8804 103.449 80.8303 103.357C80.3621 104.009 79.5761 105.263 79.5259 106.601C79.5259 106.693 79.5928 106.776 79.6932 106.776Z" fill="#66B0F0"/>
<path d="M58.2385 122.123C55.6716 122.274 52.8205 124.121 52.2268 127.907C52.2101 127.999 52.277 128.083 52.369 128.1H52.394C52.4776 128.1 52.5445 128.041 52.5613 127.958C53.1215 124.355 55.8305 122.6 58.2552 122.449C58.3472 122.441 58.4141 122.365 58.4141 122.274C58.4057 122.19 58.3304 122.123 58.2385 122.123Z" fill="#66B0F0"/>
<path d="M58.088 122.133C58.0462 122.133 54.2669 122.216 51.0395 125.359C50.9727 125.426 50.9727 125.527 51.0395 125.593C51.073 125.627 51.1148 125.644 51.1566 125.644C51.1984 125.644 51.2402 125.627 51.2737 125.593C54.4007 122.551 58.0545 122.467 58.088 122.467C58.18 122.467 58.2552 122.392 58.2552 122.3C58.2552 122.208 58.18 122.133 58.088 122.133Z" fill="#66B0F0"/>
<path d="M86.8838 125.149C86.8754 125.183 86.8587 125.225 86.8253 125.25C86.75 125.308 86.6831 125.367 86.6079 125.434C85.1029 126.813 83.8654 129.78 83.2467 133.467C82.6698 136.986 82.7868 140.505 83.5477 142.235C83.556 142.252 83.5644 142.269 83.5644 142.285C83.4473 142.302 83.3387 142.311 83.2216 142.319C81.6831 138.725 82.7868 128.744 86.2149 125.35C86.3152 125.25 86.4156 125.158 86.5159 125.074C86.6413 125.099 86.7667 125.124 86.8838 125.149Z" fill="#66B0F0"/>
<path d="M85.2784 138.373C84.7015 138.373 84.2333 138.841 84.2333 139.418C84.2333 139.995 84.7015 140.463 85.2784 140.463C85.8553 140.463 86.3236 139.995 86.3236 139.418C86.3236 138.841 85.8553 138.373 85.2784 138.373ZM85.2784 140.12C84.8854 140.12 84.5677 139.802 84.5677 139.41C84.5677 139.017 84.8854 138.699 85.2784 138.699C85.6714 138.699 85.9891 139.017 85.9891 139.41C85.9891 139.802 85.6714 140.12 85.2784 140.12Z" fill="#66B0F0"/>
<path d="M95.5793 127.365C95.5793 127.365 95.5292 127.415 95.4539 127.507C94.2332 127.164 90.7466 126.337 86.6078 125.434C86.474 125.409 86.3486 125.376 86.2149 125.351C83.4139 124.749 80.3453 124.122 77.5025 123.604C67.1264 121.714 57.3856 122.517 57.2853 122.525C57.2435 122.534 57.1933 122.517 57.1599 122.483C57.1264 122.45 57.1097 122.408 57.1097 122.358C57.1097 122.274 57.3689 113.773 56.7335 98.819C56.7335 98.7688 56.7251 98.6685 56.7335 98.5013C56.6331 93.7033 55.9977 82.3183 52.3271 78.1973C53.7653 79.727 54.8188 82.2263 55.588 84.943C56.7251 89.7829 57.001 95.4587 57.0679 98.5013C57.0763 98.6434 57.0763 98.7438 57.0763 98.7939C57.6616 112.536 57.4943 120.845 57.4609 122.166C58.8656 122.065 67.9541 121.514 77.5778 123.269C80.4958 123.804 83.6563 124.456 86.5159 125.075C86.6413 125.1 86.7583 125.125 86.8837 125.158C89.5593 125.735 91.9422 126.287 93.6145 126.696C94.8435 127.098 95.5793 127.365 95.5793 127.365Z" fill="#66B0F0"/>
</g>
<g clip-path="url(#clip2_117_4285)">
<path d="M117.007 75.9052C115.081 75.9052 113.307 73.5478 112.013 69.2673C110.755 65.1098 110.063 59.5884 110.063 53.7201C110.063 47.8519 110.755 42.3304 112.013 38.173C113.308 33.8925 115.081 31.5352 117.007 31.5352C118.933 31.5352 120.707 33.8925 122.001 38.173C123.259 42.3305 123.951 47.8519 123.951 53.7202C123.951 59.5884 123.259 65.1098 122.001 69.2674C120.707 73.5478 118.933 75.9052 117.007 75.9052ZM117.007 32.2052C115.426 32.2052 113.84 34.4509 112.655 38.3667C111.416 42.463 110.734 47.9157 110.734 53.7201C110.734 59.5246 111.416 64.9772 112.655 69.0736C113.84 72.9893 115.426 75.2351 117.007 75.2351C118.589 75.2351 120.175 72.9893 121.359 69.0736C122.598 64.9771 123.28 59.5245 123.28 53.7201C123.28 47.9156 122.598 42.463 121.359 38.3667C120.175 34.4509 118.589 32.2052 117.007 32.2052Z" fill="#FFCF2D"/>
<path d="M131.903 67.1883C130.612 67.1883 129.038 66.9371 127.22 66.4316C123.03 65.2661 117.987 62.894 113.023 59.7523C108.058 56.6104 103.757 53.0704 100.913 49.7843C97.9849 46.4011 96.94 43.6434 97.9712 42.0195C99.0022 40.3955 101.946 40.1621 106.261 41.3621C110.451 42.5277 115.494 44.8998 120.458 48.0415C125.423 51.1833 129.724 54.7233 132.568 58.0094C135.496 61.3927 136.541 64.1504 135.51 65.7743C134.913 66.7142 133.676 67.1883 131.903 67.1883ZM101.56 41.2714C100.052 41.2714 99.0053 41.6422 98.5381 42.3783C97.6914 43.7115 98.7423 46.2513 101.421 49.3463C104.223 52.5841 108.471 56.0787 113.382 59.1864C118.293 62.2939 123.271 64.6378 127.4 65.7862C131.347 66.884 134.097 66.7491 134.943 65.4156C135.79 64.0823 134.739 61.5426 132.06 58.4475C129.258 55.2097 125.01 51.7151 120.099 48.6075C115.188 45.5 110.21 43.1561 106.081 42.0077C104.313 41.5158 102.784 41.2714 101.56 41.2714Z" fill="#FFCF2D"/>
<path d="M101.579 67.1883C99.8052 67.1883 98.5679 66.7143 97.9711 65.7743C96.94 64.1504 97.9848 61.3928 100.913 58.0094C103.757 54.7234 108.058 51.1833 113.023 48.0415C117.988 44.8998 123.03 42.5277 127.22 41.3621C131.535 40.1621 134.479 40.3955 135.51 42.0195C136.541 43.6434 135.496 46.401 132.568 49.7843C129.724 53.0703 125.423 56.6104 120.458 59.7522C115.494 62.894 110.451 65.2661 106.261 66.4316C104.444 66.9371 102.869 67.1883 101.579 67.1883ZM113.202 48.3245L113.382 48.6074C108.471 51.7151 104.223 55.2096 101.421 58.4474C98.7423 61.5425 97.6914 64.0823 98.5381 65.4155C99.3846 66.7489 102.134 66.8838 106.081 65.7861C110.21 64.6377 115.188 62.2938 120.099 59.1862C125.01 56.0786 129.258 52.584 132.06 49.3462C134.739 46.2512 135.79 43.7114 134.943 42.3782C134.097 41.0448 131.348 40.9097 127.4 42.0076C123.271 43.156 118.293 45.4999 113.382 48.6074L113.202 48.3245Z" fill="#FFCF2D"/>
<path d="M119.529 53.5438C119.529 55.0954 118.269 56.3533 116.715 56.3533C115.16 56.3533 113.9 55.0954 113.9 53.5438C113.9 51.9923 115.16 50.7344 116.715 50.7344C118.269 50.7344 119.529 51.9923 119.529 53.5438Z" fill="#F94F46"/>
<path d="M102.74 48.6367C102.74 49.943 101.679 51.002 100.371 51.002C99.0621 51.002 98.0015 49.943 98.0015 48.6367C98.0015 47.3304 99.0621 46.2715 100.371 46.2715C101.679 46.2715 102.74 47.3304 102.74 48.6367Z" fill="#9B3C82"/>
<path d="M136.51 47.625C136.51 48.9313 135.449 49.9903 134.141 49.9903C132.832 49.9903 131.771 48.9313 131.771 47.625C131.771 46.3187 132.832 45.2598 134.141 45.2598C135.449 45.2598 136.51 46.3187 136.51 47.625Z" fill="#9B3C82"/>
<path d="M123.616 71.3203C123.616 72.6266 122.555 73.6856 121.247 73.6856C119.938 73.6856 118.878 72.6266 118.878 71.3203C118.878 70.014 119.938 68.9551 121.247 68.9551C122.555 68.9551 123.616 70.014 123.616 71.3203Z" fill="#9B3C82"/>
</g>
<g clip-path="url(#clip3_117_4285)">
<path d="M141.881 119.266L143.922 118.59L144.205 119.444L142.165 120.119L141.881 119.266Z" fill="#5B2448"/>
<path d="M142.614 120.439L124.617 126.403C124.227 126.53 121.898 126.878 121.737 126.411C121.584 125.944 123.657 124.833 124.048 124.706L142.053 118.742C142.444 118.615 142.886 118.886 143.039 119.362C143.2 119.828 143.005 120.312 142.614 120.439Z" fill="#66B0F0"/>
<path d="M144.041 118.081C144.228 118.022 144.424 118.124 144.483 118.302L144.823 119.337C144.882 119.524 144.78 119.719 144.602 119.778C144.415 119.837 144.22 119.736 144.16 119.558L143.82 118.523C143.752 118.344 143.854 118.141 144.041 118.081Z" fill="#F94F46"/>
<path d="M135.718 120.836L136.549 120.561L137.113 122.26L136.282 122.535L135.718 120.836Z" fill="#F94F46"/>
<path d="M122.655 126.649C122.17 126.666 121.779 126.573 121.728 126.412C121.677 126.251 121.941 125.954 122.34 125.674L122.655 126.649Z" fill="#9B3C82"/>
</g>
<defs>
<clipPath id="clip0_117_4285">
<rect width="71.485" height="21.76" fill="white" transform="translate(66.895 120.105)"/>
</clipPath>
<clipPath id="clip1_117_4285">
<rect width="119.765" height="107.355" fill="white" transform="translate(18.105 38.25)"/>
</clipPath>
<clipPath id="clip2_117_4285">
<rect width="38.93" height="44.37" fill="white" transform="translate(97.58 31.5352)"/>
</clipPath>
<clipPath id="clip3_117_4285">
<rect width="23.12" height="8.585" fill="white" transform="translate(121.72 118.064)"/>
</clipPath>
</defs>
</svg>
