<svg width="200" height="200" viewBox="0 0 200 200" fill="none" xmlns="http://www.w3.org/2000/svg">
<g clip-path="url(#clip0_179_3497)">
<path d="M124.067 54.131C123.564 54.1312 123.073 53.9764 122.66 53.6877L91.7282 32.0928C91.4616 31.9085 91.234 31.6734 91.0585 31.4009C90.8831 31.1285 90.7632 30.824 90.7057 30.5051C90.6483 30.1862 90.6544 29.859 90.7238 29.5425C90.7931 29.226 90.9244 28.9262 91.11 28.6605C91.2955 28.3949 91.5318 28.1684 91.8051 27.9943C92.0785 27.8202 92.3836 27.7017 92.7028 27.6458C93.0221 27.5899 93.3493 27.5976 93.6655 27.6684C93.9818 27.7393 94.281 27.8719 94.5459 28.0587L125.478 49.6536C125.908 49.9534 126.23 50.3824 126.399 50.8781C126.568 51.3739 126.574 51.9106 126.416 52.4101C126.259 52.9096 125.946 53.3458 125.524 53.6553C125.101 53.9648 124.591 54.1315 124.067 54.131Z" fill="#66B0F0"/>
<path d="M48.3485 53.0596L91.841 28.0025L94.2983 32.2656L50.8058 57.3227L48.3485 53.0596Z" fill="#66B0F0"/>
<path d="M47.2588 55.0386L52.1802 55.0074L52.5665 115.969L47.6451 116L47.2588 55.0386Z" fill="#66B0F0"/>
<path d="M49.8942 68.1881C57.0375 68.1881 62.8284 62.3986 62.8284 55.2569C62.8284 48.1152 57.0375 42.3257 49.8942 42.3257C42.7508 42.3257 36.96 48.1152 36.96 55.2569C36.96 62.3986 42.7508 68.1881 49.8942 68.1881Z" fill="#B0DCF7"/>
<path d="M49.8942 62.3657C48.4878 62.3657 47.113 61.9487 45.9437 61.1676C44.7743 60.3864 43.8629 59.2761 43.3247 57.9771C42.7865 56.6781 42.6457 55.2487 42.9201 53.8696C43.1945 52.4906 43.8717 51.2239 44.8661 50.2297C45.8606 49.2354 47.1276 48.5584 48.5069 48.2841C49.8863 48.0098 51.316 48.1505 52.6153 48.6886C53.9147 49.2267 55.0252 50.1379 55.8065 51.307C56.5879 52.476 57.0049 53.8505 57.0049 55.2566C57.0028 57.1414 56.2529 58.9484 54.9199 60.2811C53.5868 61.6139 51.7794 62.3635 49.8942 62.3657ZM49.8942 48.4845C48.5545 48.4845 47.2449 48.8817 46.1309 49.6258C45.017 50.3699 44.1488 51.4276 43.6362 52.665C43.1235 53.9024 42.9893 55.2641 43.2507 56.5777C43.5121 57.8914 44.1572 59.0981 45.1045 60.0452C46.0518 60.9922 47.2588 61.6372 48.5727 61.8985C49.8867 62.1598 51.2486 62.0257 52.4863 61.5132C53.7241 61.0006 54.782 60.1326 55.5263 59.0189C56.2706 57.9053 56.6678 56.596 56.6678 55.2566C56.6658 53.4611 55.9515 51.7398 54.6816 50.4702C53.4118 49.2006 51.69 48.4865 49.8942 48.4845Z" fill="white"/>
<path d="M92.6866 37.2895C96.6445 37.2895 99.853 34.0817 99.853 30.1247C99.853 26.1677 96.6445 22.96 92.6866 22.96C88.7287 22.96 85.5201 26.1677 85.5201 30.1247C85.5201 34.0817 88.7287 37.2895 92.6866 37.2895Z" fill="#B0DCF7"/>
<path d="M92.6865 33.9575C91.9283 33.9575 91.1871 33.7327 90.5567 33.3116C89.9262 32.8904 89.4349 32.2918 89.1447 31.5915C88.8546 30.8911 88.7786 30.1205 88.9266 29.377C89.0745 28.6335 89.4396 27.9506 89.9758 27.4146C90.5119 26.8785 91.195 26.5135 91.9387 26.3656C92.6823 26.2178 93.4532 26.2937 94.1537 26.5838C94.8542 26.8739 95.4529 27.3651 95.8741 27.9954C96.2954 28.6257 96.5202 29.3668 96.5202 30.1248C96.519 31.141 96.1147 32.1152 95.396 32.8337C94.6773 33.5522 93.7029 33.9564 92.6865 33.9575ZM92.6865 26.629C91.995 26.629 91.319 26.834 90.744 27.2181C90.169 27.6023 89.7208 28.1482 89.4562 28.787C89.1915 29.4257 89.1223 30.1286 89.2572 30.8067C89.3921 31.4848 89.7251 32.1077 90.2141 32.5966C90.7031 33.0855 91.3261 33.4184 92.0044 33.5533C92.6826 33.6882 93.3857 33.619 94.0246 33.3544C94.6635 33.0898 95.2096 32.6418 95.5938 32.0669C95.978 31.4921 96.1831 30.8162 96.1831 30.1248C96.1821 29.198 95.8134 28.3094 95.1579 27.654C94.5023 26.9987 93.6136 26.63 92.6865 26.629Z" fill="white"/>
<path d="M124.451 55.9328C126.527 55.9328 128.211 54.2498 128.211 52.1737C128.211 50.0976 126.527 48.4146 124.451 48.4146C122.374 48.4146 120.691 50.0976 120.691 52.1737C120.691 54.2498 122.374 55.9328 124.451 55.9328Z" fill="#B0DCF7"/>
<path d="M147.726 62.4298L145.515 63.2011C145.099 62.7228 144.617 62.3066 144.083 61.9653L144.527 59.6649C144.547 59.584 144.535 59.4987 144.495 59.4259C144.454 59.3531 144.388 59.2981 144.309 59.2719L142.382 58.6331C142.303 58.6069 142.217 58.6113 142.141 58.6456C142.065 58.6798 142.005 58.7414 141.972 58.818L140.953 60.9277C140.321 60.8826 139.686 60.9284 139.067 61.0638L137.754 59.1244C137.711 59.0534 137.642 59.0012 137.562 58.9784C137.482 58.9555 137.396 58.9635 137.322 59.0009L135.507 59.9116C135.433 59.949 135.375 60.013 135.346 60.0908C135.316 60.1687 135.317 60.2548 135.348 60.332L136.12 62.5431C135.641 62.9585 135.225 63.4404 134.884 63.974L132.583 63.5306C132.502 63.511 132.417 63.5226 132.344 63.5629C132.271 63.6033 132.216 63.6696 132.19 63.7486L131.551 65.6756C131.525 65.7546 131.529 65.8406 131.563 65.9165C131.598 65.9924 131.659 66.0527 131.736 66.0853L133.846 67.1039C133.801 67.7356 133.847 68.3706 133.982 68.9893L132.042 70.3019C131.971 70.3453 131.919 70.4138 131.896 70.4938C131.873 70.5739 131.881 70.6596 131.919 70.734L132.829 72.548C132.867 72.6225 132.931 72.6801 133.009 72.7096C133.087 72.739 133.173 72.7381 133.25 72.707L135.462 71.9358C135.877 72.4141 136.359 72.8303 136.893 73.1716L136.449 75.4719C136.43 75.5528 136.441 75.6381 136.482 75.7109C136.522 75.7837 136.588 75.8386 136.667 75.8649L138.594 76.5037C138.673 76.5299 138.76 76.5255 138.835 76.4912C138.911 76.457 138.972 76.3954 139.004 76.3188L140.023 74.2091C140.655 74.2542 141.29 74.2084 141.909 74.0729L143.222 76.0126C143.266 76.0837 143.334 76.1358 143.414 76.1587C143.494 76.1816 143.58 76.1735 143.654 76.1362L145.469 75.2255C145.543 75.1881 145.601 75.1241 145.63 75.0462C145.659 74.9683 145.659 74.8822 145.627 74.805L144.856 72.5939C145.334 72.1785 145.751 71.6967 146.092 71.1631L148.393 71.6065C148.474 71.6261 148.559 71.6145 148.632 71.5741C148.705 71.5337 148.76 71.4675 148.786 71.3885L149.425 69.4618C149.451 69.3827 149.447 69.2967 149.413 69.2208C149.378 69.1449 149.317 69.0846 149.24 69.052L147.13 68.0334C147.175 67.4017 147.129 66.7668 146.994 66.1481L148.934 64.8355C149.005 64.7921 149.057 64.7236 149.08 64.6435C149.103 64.5635 149.095 64.4778 149.057 64.4034L148.146 62.5893C148.109 62.5148 148.045 62.4572 147.967 62.4276C147.889 62.3981 147.803 62.3989 147.726 62.4298Z" fill="#FFCF2D"/>
<path d="M140.556 69.8789C141.832 69.8789 142.867 68.8444 142.867 67.5684C142.867 66.2923 141.832 65.2578 140.556 65.2578C139.28 65.2578 138.245 66.2923 138.245 67.5684C138.245 68.8444 139.28 69.8789 140.556 69.8789Z" fill="#9B3C82"/>
<path d="M140.556 71.9183H140.552C139.398 71.9178 138.292 71.4591 137.477 70.643C136.661 69.827 136.203 68.7204 136.204 67.5669C136.204 66.4133 136.663 65.3072 137.479 64.4919C138.295 63.6765 139.402 63.2187 140.556 63.2192H140.56C141.714 63.2197 142.82 63.6784 143.636 64.4945C144.451 65.3105 144.909 66.417 144.909 67.5706C144.908 68.7241 144.449 69.8303 143.633 70.6456C142.817 71.461 141.71 71.9188 140.556 71.9183ZM140.556 63.5562C139.492 63.5558 138.471 63.9781 137.718 64.7303C136.965 65.4824 136.542 66.5029 136.541 67.567C136.541 68.6312 136.963 69.652 137.715 70.4048C138.468 71.1576 139.488 71.5808 140.553 71.5813H140.556C141.621 71.5817 142.642 71.1594 143.395 70.4072C144.148 69.6551 144.571 68.6346 144.572 67.5704C144.572 66.5063 144.15 65.4855 143.397 64.7327C142.645 63.9799 141.624 63.5567 140.56 63.5562H140.556Z" fill="white"/>
<path d="M122.979 67.0247L133.973 80.4773L136.027 78.4274L128.33 64.1257L137.014 55.4585L151.306 63.1789L153.36 61.1291L139.924 50.1136C139.238 49.5515 138.368 49.2642 137.482 49.3075C136.596 49.3508 135.758 49.7216 135.131 50.3479L123.221 62.2335C122.594 62.8598 122.221 63.6969 122.177 64.5823C122.132 65.4677 122.418 66.3382 122.979 67.0247Z" fill="#B0DCF7"/>
<path d="M125.236 65.9656C124.945 65.9656 124.661 65.8794 124.419 65.7177C124.177 65.5561 123.988 65.3264 123.877 65.0577C123.765 64.7889 123.736 64.4932 123.793 64.2079C123.85 63.9225 123.99 63.6605 124.196 63.4548C124.367 63.2837 124.577 63.1575 124.809 63.0873C125.04 63.0171 125.286 63.005 125.523 63.0522C125.76 63.0994 125.982 63.2043 126.169 63.3578C126.356 63.5112 126.503 63.7084 126.595 63.9319C126.688 64.1554 126.724 64.3982 126.7 64.6389C126.676 64.8796 126.594 65.1108 126.459 65.3119C126.325 65.513 126.143 65.6779 125.929 65.7919C125.716 65.906 125.478 65.9656 125.236 65.9656ZM125.236 63.3609C125.087 63.3605 124.939 63.3897 124.802 63.4467C124.664 63.5037 124.539 63.5875 124.434 63.6931C124.249 63.8786 124.133 64.1226 124.107 64.3836C124.082 64.6446 124.147 64.9064 124.293 65.1245C124.439 65.3425 124.656 65.5033 124.907 65.5794C125.158 65.6555 125.428 65.6423 125.67 65.5419C125.912 65.4415 126.112 65.2602 126.236 65.0289C126.36 64.7976 126.399 64.5306 126.348 64.2734C126.297 64.0162 126.158 63.7846 125.955 63.6183C125.752 63.4519 125.498 63.3609 125.236 63.3609Z" fill="white"/>
<path d="M137.817 53.8411C137.477 53.8408 137.148 53.7226 136.885 53.5068C136.622 53.291 136.443 52.9907 136.377 52.6573C136.31 52.3239 136.362 51.9779 136.523 51.6782C136.683 51.3785 136.942 51.1438 137.257 51.0139C137.571 50.884 137.92 50.867 138.246 50.9658C138.571 51.0647 138.852 51.2732 139.041 51.5559C139.229 51.8386 139.314 52.178 139.281 52.5162C139.247 52.8545 139.098 53.1707 138.857 53.411C138.721 53.5476 138.558 53.656 138.38 53.7298C138.201 53.8036 138.01 53.8414 137.817 53.8411ZM137.817 51.2377C137.555 51.2379 137.301 51.3289 137.098 51.4953C136.896 51.6617 136.757 51.8932 136.706 52.1503C136.655 52.4074 136.695 52.6741 136.819 52.9052C136.942 53.1363 137.142 53.3173 137.385 53.4175C137.627 53.5176 137.896 53.5307 138.147 53.4545C138.398 53.3783 138.615 53.2175 138.76 52.9995C138.906 52.7816 138.971 52.5199 138.945 52.2591C138.92 51.9983 138.804 51.7545 138.619 51.5692C138.514 51.4639 138.389 51.3803 138.251 51.3234C138.113 51.2666 137.966 51.2374 137.817 51.2377Z" fill="white"/>
<path d="M125.974 55.8623L128.722 53.1148C129.316 52.5215 130.121 52.1881 130.96 52.1881C131.8 52.1881 132.605 52.5215 133.198 53.1148L134.357 54.2734L127.133 61.4955L125.974 60.3369C125.381 59.7436 125.047 58.9388 125.047 58.0996C125.047 57.2605 125.381 56.4557 125.974 55.8623Z" fill="#B0DCF7"/>
</g>
<g clip-path="url(#clip1_179_3497)">
<path d="M175.664 167.12H45.4561C44.0303 167.12 42.6628 166.555 41.6546 165.55C40.6464 164.545 40.08 163.181 40.08 161.76C40.08 160.338 40.6464 158.975 41.6546 157.97C42.6628 156.965 44.0303 156.4 45.4561 156.4H175.664C177.09 156.4 178.457 156.965 179.465 157.97C180.474 158.975 181.04 160.338 181.04 161.76C181.04 162.464 180.901 163.161 180.631 163.811C180.361 164.461 179.965 165.052 179.465 165.55C178.966 166.048 178.373 166.443 177.721 166.712C177.069 166.981 176.37 167.12 175.664 167.12Z" fill="#FFCF2D"/>
<path d="M45.9821 165.344C47.9675 165.344 49.577 163.739 49.577 161.76C49.577 159.78 47.9675 158.176 45.9821 158.176C43.9967 158.176 42.3872 159.78 42.3872 161.76C42.3872 163.739 43.9967 165.344 45.9821 165.344Z" fill="#FFBD11"/>
<path d="M120.971 165.071C122.806 164.314 123.677 162.217 122.917 160.388C122.157 158.56 120.054 157.691 118.22 158.449C116.386 159.206 115.515 161.303 116.274 163.132C117.034 164.96 119.137 165.829 120.971 165.071Z" fill="#FFBD11"/>
<path d="M101.063 165.344C103.048 165.344 104.658 163.739 104.658 161.76C104.658 159.78 103.048 158.176 101.063 158.176C99.0773 158.176 97.4678 159.78 97.4678 161.76C97.4678 163.739 99.0773 165.344 101.063 165.344Z" fill="#FFBD11"/>
<path d="M82.5298 165.344C84.5152 165.344 86.1247 163.739 86.1247 161.76C86.1247 159.78 84.5152 158.176 82.5298 158.176C80.5444 158.176 78.9349 159.78 78.9349 161.76C78.9349 163.739 80.5444 165.344 82.5298 165.344Z" fill="#FFBD11"/>
<path d="M63.997 165.344C65.9824 165.344 67.5919 163.739 67.5919 161.76C67.5919 159.78 65.9824 158.176 63.997 158.176C62.0116 158.176 60.4021 159.78 60.4021 161.76C60.4021 163.739 62.0116 165.344 63.997 165.344Z" fill="#FFBD11"/>
<path d="M174.856 165.344C176.841 165.344 178.45 163.739 178.45 161.76C178.45 159.78 176.841 158.176 174.856 158.176C172.87 158.176 171.261 159.78 171.261 161.76C171.261 163.739 172.87 165.344 174.856 165.344Z" fill="#FFBD11"/>
<path d="M156.614 165.344C158.6 165.344 160.209 163.739 160.209 161.76C160.209 159.78 158.6 158.176 156.614 158.176C154.629 158.176 153.019 159.78 153.019 161.76C153.019 163.739 154.629 165.344 156.614 165.344Z" fill="#FFBD11"/>
<path d="M138.081 165.344C140.067 165.344 141.676 163.739 141.676 161.76C141.676 159.78 140.067 158.176 138.081 158.176C136.096 158.176 134.486 159.78 134.486 161.76C134.486 163.739 136.096 165.344 138.081 165.344Z" fill="#FFBD11"/>
</g>
<g clip-path="url(#clip2_179_3497)">
<path d="M135.922 122.842C129.122 128.863 114.354 156.36 121.644 156.367C127.08 156.374 135.922 145.965 135.922 122.842Z" fill="#5B2448"/>
<path d="M50.3402 138.775C42.0824 134.79 26.3528 125.86 22.6573 130.227C17.7993 135.953 50.3402 138.775 50.3402 138.775Z" fill="#5B2448"/>
<path d="M135.922 122.843C135.889 122.87 135.862 122.896 135.828 122.923C135.794 122.95 135.761 122.984 135.727 123.017C134.699 123.985 133.167 125.927 131.461 128.413C130.527 129.771 129.532 131.296 128.538 132.909C128.497 132.969 128.457 133.036 128.424 133.097C128.215 133.44 128.007 133.782 127.799 134.132C126.932 135.583 126.072 137.095 125.252 138.607C123.505 141.86 121.966 145.145 120.979 148.001C120.864 148.331 120.757 148.653 120.663 148.962C120.656 148.989 120.649 149.003 120.649 149.016C120.649 149.023 120.643 149.023 120.643 149.029C119.447 152.893 119.44 155.776 121.597 156.361C121.61 156.367 121.624 156.367 121.63 156.374H57.6641L58.4502 152.947L60.3047 144.843L60.3383 144.709C60.3383 144.709 60.298 144.689 60.224 144.641C59.9687 144.487 59.2901 144.084 58.2889 143.506C57.8723 143.264 57.4087 142.995 56.8913 142.699C56.159 142.283 55.3258 141.812 54.4187 141.308C54.3179 141.255 54.2171 141.194 54.1096 141.134C53.3705 140.724 52.5776 140.287 51.7512 139.844C51.5496 139.729 51.3413 139.622 51.133 139.508C50.6492 139.246 50.152 138.983 49.6414 138.715C49.4129 138.594 49.1912 138.473 48.9627 138.359C45.032 136.296 40.5772 134.105 36.4449 132.398H36.4382C30.0953 129.784 24.4983 128.313 22.6707 130.207C22.6639 130.214 22.6639 130.214 22.6572 130.221C23.0133 129.764 32.3395 117.897 44.0846 108.462C49.8295 103.846 56.159 99.8141 62.3003 97.9864C63.9062 97.4958 65.5591 97.1733 67.2254 97.0187C67.7495 96.9717 68.2736 96.9515 68.791 96.9448H68.9388H69.1337C70.6858 96.9583 72.2312 97.1867 73.7228 97.6302C73.8841 97.6773 74.0521 97.731 74.2133 97.7848C74.2469 97.7982 74.2805 97.8049 74.3141 97.8184C74.4619 97.8654 74.6031 97.9192 74.7442 97.9729C74.8517 98.0133 74.9524 98.0536 75.06 98.1006C76.4441 98.6651 77.7409 99.4244 78.9168 100.352C78.9436 100.372 78.9638 100.385 78.9907 100.405L79.4677 100.419L98.5165 100.889C99.0675 100.526 99.6454 100.197 100.243 99.9082L100.371 99.8477C100.472 99.8007 100.579 99.7537 100.68 99.7066C100.855 99.626 101.036 99.5454 101.218 99.4714C102.091 99.1153 102.992 98.8331 103.905 98.6248C103.993 98.6046 104.087 98.5844 104.174 98.5643C104.194 98.5576 104.208 98.5576 104.228 98.5508C104.423 98.5105 104.611 98.4769 104.806 98.4433C104.859 98.4299 104.913 98.4232 104.974 98.4164C105.101 98.3963 105.236 98.3761 105.363 98.356C105.384 98.356 105.41 98.3492 105.437 98.3492C105.639 98.3224 105.847 98.2955 106.055 98.2753C107.09 98.1678 108.125 98.1477 109.166 98.2149C109.301 98.2216 109.435 98.235 109.576 98.2417L109.798 98.2619C110.04 98.282 110.289 98.3089 110.53 98.3425C113.796 98.7726 117.297 100.063 120.804 102.536C123.371 104.343 125.944 106.789 128.43 109.995C129.425 111.271 130.399 112.676 131.367 114.208C131.797 114.893 132.227 115.606 132.65 116.351C133.302 117.494 133.947 118.703 134.578 119.973C134.867 120.565 135.156 121.169 135.445 121.788C135.532 121.969 135.613 122.151 135.694 122.339C135.768 122.493 135.841 122.668 135.922 122.843Z" fill="#F94F46"/>
<path d="M88.6395 115.995C88.9363 115.995 89.177 115.754 89.177 115.458C89.177 115.161 88.9363 114.92 88.6395 114.92C88.3426 114.92 88.1019 115.161 88.1019 115.458C88.1019 115.754 88.3426 115.995 88.6395 115.995Z" fill="#FCB6B1"/>
<path d="M88.9955 123.333C89.2924 123.333 89.5331 123.092 89.5331 122.795C89.5331 122.498 89.2924 122.258 88.9955 122.258C88.6987 122.258 88.458 122.498 88.458 122.795C88.458 123.092 88.6987 123.333 88.9955 123.333Z" fill="#FCB6B1"/>
<path d="M98.9467 100.613C98.8056 100.701 98.6644 100.788 98.5233 100.882C99.9545 105.095 99.3565 112.655 97.3542 115.047C96.8839 115.612 96.3598 115.854 95.8088 115.753C94.5792 115.538 92.5366 113.65 89.7616 105.902L89.2509 104.471L89.2912 105.989C89.3987 109.806 86.6103 115.551 83.9629 115.652C82.5049 115.706 81.5171 113.945 80.946 112.46C79.9516 109.86 79.2998 105.801 79.0042 100.398H78.984C78.8228 100.271 78.6615 100.15 78.5002 100.029V100.062V100.069C78.7824 105.7 79.4544 109.927 80.4891 112.635C81.376 114.96 82.5183 116.143 83.8823 116.143H83.9764C85.3605 116.089 86.8454 114.752 88.0549 112.474C88.7604 111.15 89.2778 109.658 89.5533 108.254C90.0706 112.669 91.1121 122.291 90.709 124.993C90.3327 127.499 87.262 127.936 87.2284 127.936C87.0941 127.956 87 128.077 87.0201 128.211C87.0336 128.332 87.1411 128.426 87.262 128.42H87.2956C87.3292 128.413 90.7627 127.929 91.1927 125.067C91.616 122.224 90.5275 112.312 90.0169 107.978C92.0461 113.139 93.961 115.914 95.7215 116.23C95.829 116.25 95.9365 116.257 96.044 116.257C96.6487 116.257 97.2265 115.948 97.7238 115.357C98.7652 114.107 99.4909 111.614 99.7194 108.502C99.9478 105.552 99.6589 102.616 98.9467 100.613Z" fill="#FCB6B1"/>
<path d="M120.65 149.029C121.637 150.03 122.699 150.958 123.828 151.798C124.09 151.999 124.365 152.201 124.654 152.402C127.496 154.412 131.575 156.522 135.929 156.448C141.949 156.354 148.655 148.673 153.708 137.404C157.652 128.601 159.05 122.93 168.282 115.74C177.353 108.67 172.656 109.134 171.198 109.813C179.973 102.428 173.435 104.081 173.435 104.081C180.43 96.6017 169.061 101.554 169.061 101.554C169.061 101.554 175.646 95.0159 167.509 98.154C160.709 100.775 156.631 103.597 156.631 103.597C154.205 102.817 140.478 116.149 135.707 122.318C135.398 122.715 135.123 123.084 134.874 123.413C133.994 124.589 133.161 125.738 132.381 126.861C132.368 126.874 132.361 126.894 132.348 126.914C130.836 129.085 129.505 131.141 128.336 133.056C122.383 142.793 120.65 149.029 120.65 149.029Z" fill="#F4ADA2"/>
<path d="M120.65 149.029C121.637 150.03 122.699 150.958 123.828 151.798C124.09 151.999 124.365 152.201 124.654 152.402C125.084 152.705 123.74 142.148 128.316 133.063C122.383 142.793 120.65 149.029 120.65 149.029Z" fill="#9B3C82"/>
<path d="M155.529 110.995C155.401 111.029 155.32 111.163 155.361 111.291C156.436 115.195 154.601 119.415 153.352 121.29C153.278 121.404 153.305 121.552 153.419 121.626C153.459 121.653 153.506 121.666 153.553 121.666C153.634 121.666 153.708 121.626 153.755 121.559C155.052 119.61 156.946 115.236 155.824 111.157C155.791 111.036 155.656 110.962 155.529 110.995Z" fill="#9B3C82"/>
<path d="M165.943 112.487C165.836 112.561 165.802 112.716 165.883 112.823C165.93 112.891 166.004 112.931 166.084 112.931C166.132 112.931 166.179 112.918 166.219 112.891C166.4 112.77 166.582 112.635 166.777 112.501C167.865 111.742 169.242 110.774 171.198 109.813C171.675 109.41 172.112 109.034 172.501 108.684C169.686 109.88 167.865 111.15 166.501 112.104C166.306 112.239 166.125 112.366 165.943 112.487Z" fill="#9B3C82"/>
<path d="M165.359 108.509C165.251 108.59 165.224 108.738 165.305 108.845C165.352 108.912 165.426 108.946 165.5 108.946C165.554 108.946 165.601 108.932 165.641 108.899C165.843 108.751 166.078 108.576 166.34 108.375C167.663 107.373 169.76 105.801 173.442 104.074C173.744 103.751 174.027 103.442 174.262 103.16C169.901 105.082 167.502 106.883 166.051 107.985C165.782 108.193 165.56 108.361 165.359 108.509Z" fill="#9B3C82"/>
<path d="M163.672 104.847C163.578 104.941 163.585 105.096 163.679 105.19C163.726 105.23 163.786 105.257 163.847 105.257C163.914 105.257 163.975 105.23 164.022 105.183C164.035 105.163 165.466 103.691 169.054 101.554C169.128 101.48 169.612 100.99 170.136 100.372C165.507 102.945 163.746 104.766 163.672 104.847Z" fill="#9B3C82"/>
<path d="M99.6655 68.5269C99.6185 68.5537 99.5715 68.5806 99.5244 68.6008C95.8423 70.5629 87.786 82.477 87.786 82.477C87.786 82.477 82.3838 77.7127 79.8843 77.1281C80.0657 74.3125 78.2314 71.2483 77.2101 69.8103C76.9279 69.4206 76.7196 68.9838 76.5785 68.5269H99.6655Z" fill="#5B2448"/>
<path d="M106.613 83.324C107.043 84.7083 106.62 86.3479 105.323 87.5104C101.95 90.541 96.6151 90.5007 96.6151 90.5007C96.6151 90.5007 97.5557 97.4825 98.5233 100.883C98.5233 100.883 88.9082 112.83 78.9974 100.399C78.9974 100.399 81.9001 93.9479 83.17 86.7847C80.3614 87.0266 75.5102 85.1182 75.3556 81.2745C75.2683 79.0839 77.1161 76.8663 79.4409 77.0075C81.6985 77.1419 82.787 78.2304 84.9103 79.7088C86.8857 81.0796 87.1276 80.0045 87.7189 77.6862C88.243 75.6232 89.3113 73.6812 90.1781 72.5456C92.1267 69.9853 96.5344 68.9505 99.5312 68.6011C100.028 70.8186 100.667 73.0092 101.453 75.1394C102.803 78.8957 105.612 80.0918 106.613 83.324Z" fill="#F4ADA2"/>
<path d="M90.2319 74.6753L90.1849 74.4468C90.1714 74.3729 90.1647 74.3057 90.158 74.2385C90.1445 74.0974 90.1445 73.963 90.1513 73.8219C90.1647 73.5464 90.2117 73.2709 90.2924 73.0088C90.4603 72.451 90.756 71.9403 91.1591 71.517C91.3674 71.2953 91.6093 71.1004 91.8714 70.9391C92.1401 70.7778 92.4291 70.6569 92.7247 70.583C93.0203 70.509 93.3227 70.4889 93.6251 70.5158C93.9207 70.5426 94.2096 70.63 94.4717 70.7711C94.8076 70.9593 94.9219 71.3826 94.7337 71.7186C94.7001 71.7791 94.6531 71.8395 94.5993 71.8866L94.5053 71.9739C94.3171 72.1487 94.1492 72.2629 94.0081 72.3906C93.8602 72.5048 93.7393 72.619 93.6183 72.7198C93.3832 72.9281 93.1816 73.1029 92.9599 73.3045C92.7381 73.506 92.5097 73.7412 92.2544 74.01L91.8579 74.4401C91.7907 74.514 91.7168 74.5946 91.6429 74.6686C91.4817 74.8567 91.2666 74.9911 91.0315 75.0717C90.9105 75.1121 90.7761 75.1255 90.6485 75.0986C90.4738 75.065 90.3327 74.9441 90.2588 74.7828C90.2521 74.7492 90.2386 74.7156 90.2319 74.6753Z" fill="#5B2448"/>
<path d="M91.7974 76.3422C92.4022 76.0667 93.8804 75.4417 95.1436 74.4002C95.3183 74.2523 95.5803 74.2792 95.7214 74.4539V74.4606C96.091 74.9176 96.568 75.771 95.6139 76.369C94.4448 77.1015 92.3081 77.1552 91.7437 76.705C91.6563 76.6311 91.6429 76.4967 91.7168 76.4094C91.737 76.3758 91.7638 76.3556 91.7974 76.3422Z" fill="#5B2448"/>
<path d="M100.217 73.1433C99.5917 73.3718 99.1012 73.4256 97.885 73.5465C97.6565 73.5667 97.4886 73.7683 97.5087 73.9967C97.5625 74.5881 97.9723 75.1055 98.913 74.998C99.9612 74.8837 100.438 73.9833 100.499 73.3651C100.512 73.2508 100.425 73.1433 100.304 73.1299C100.277 73.1299 100.25 73.1299 100.217 73.1433Z" fill="#5B2448"/>
<path d="M85.3134 86.3882C85.253 86.2673 85.1051 86.2202 84.9842 86.2807C84.3257 86.6167 83.6941 86.7847 83.1499 86.872C83.1163 87.04 83.0894 87.208 83.0558 87.376C83.8016 87.2819 84.5273 87.0535 85.1992 86.7108C85.3269 86.6503 85.3739 86.5025 85.3134 86.3882Z" fill="#9B3C82"/>
<path d="M97.2937 69.3534C97.1055 69.5416 96.9577 69.7768 96.8636 70.0254C96.7427 70.3479 96.9107 70.7108 97.2332 70.8318C97.2937 70.8519 97.3609 70.8654 97.428 70.8721L97.5423 70.8788C97.7707 70.8855 97.9521 70.8721 98.1268 70.8721C98.2948 70.8654 98.4494 70.8721 98.5905 70.8721C98.8727 70.8788 99.1146 70.8788 99.39 70.8855C99.6118 70.8922 99.8469 70.9124 100.109 70.9393C99.9007 70.1665 99.7058 69.3937 99.5311 68.6143C99.0742 68.668 98.5837 68.7352 98.0731 68.8293C98.0328 68.8494 97.9992 68.8629 97.9589 68.883C97.7103 68.9906 97.4818 69.1518 97.2937 69.3534Z" fill="#5B2448"/>
<path d="M91.0113 88.8608C90.4267 89.4051 91.3204 94.0216 96.9846 94.4113C97.0652 94.4181 97.1392 94.4181 97.2063 94.4248C96.8502 92.2476 96.6151 90.5005 96.6151 90.5005C96.6083 90.5005 93.1009 90.2317 91.0113 88.8608Z" fill="#5B2448"/>
<path opacity="0.52" d="M94.2762 81.8852C94.5211 80.3759 93.4963 78.9538 91.9871 78.7088C90.4779 78.4639 89.056 79.4889 88.811 80.9981C88.5661 82.5074 89.591 83.9295 91.1001 84.1745C92.6093 84.4194 94.0313 83.3945 94.2762 81.8852Z" fill="#E57281"/>
<path d="M100.378 80.7297C100.116 81.0053 99.7865 81.1934 99.417 81.2875C99.0541 81.3883 98.6779 81.4017 98.3083 81.3345C97.9455 81.2539 97.6095 81.0792 97.3273 80.8305C97.0451 80.5752 96.8368 80.2526 96.7293 79.8898V79.8831C96.6957 79.7688 96.5748 79.7016 96.4605 79.7352C96.3665 79.7621 96.2993 79.8562 96.306 79.9503C96.3396 80.4475 96.5479 80.9112 96.8906 81.274C97.0585 81.4555 97.2534 81.61 97.4751 81.731C98.1269 82.1006 98.9198 82.1543 99.6186 81.8788C99.847 81.7982 100.062 81.6772 100.257 81.5294C100.458 81.3816 100.62 81.1867 100.741 80.9717C100.794 80.8641 100.754 80.7365 100.647 80.676C100.559 80.6357 100.452 80.6558 100.378 80.7297Z" fill="#9B3C82"/>
<path d="M83.674 83.1556C83.8083 83.1556 83.9158 83.0481 83.9158 82.9137C83.9158 82.8734 83.9024 82.8331 83.8822 82.7927C81.759 79.0835 78.3457 80.0914 78.3121 80.0981C78.1844 80.1384 78.1105 80.2728 78.1508 80.4005C78.1911 80.5282 78.3255 80.5954 78.4532 80.5618C78.5808 80.5215 81.5305 79.6681 83.4589 83.0347C83.506 83.1086 83.5866 83.1556 83.674 83.1556Z" fill="#9B3C82"/>
<path d="M99.39 78.1767C99.4438 78.1767 99.4975 78.1565 99.5311 78.1162C100.069 77.5383 100.29 77.1083 100.243 76.7252C100.19 76.2347 99.7193 75.9189 99.1683 75.556C97.9454 74.7295 97.9857 73.9836 97.9857 73.9769C97.9924 73.8694 97.9185 73.7753 97.811 73.7686C97.7035 73.7551 97.6094 73.8358 97.6027 73.9433C97.596 73.9836 97.5154 74.9176 98.9533 75.8853C99.4908 76.2481 99.8201 76.49 99.8536 76.779C99.8805 77.0343 99.6789 77.3905 99.2422 77.8609C99.1683 77.9415 99.175 78.0625 99.2556 78.1364C99.2892 78.1565 99.3363 78.1767 99.39 78.1767Z" fill="#5B2448"/>
<path d="M120.34 156.381H58.4233C63.2141 145.145 68.6096 133.171 69.1874 127.083C82.8475 130.698 96.3396 130.698 109.67 127.083C110.524 130.778 111.545 134.468 112.741 138.143C114.784 144.386 117.31 150.467 120.3 156.313C120.32 156.34 120.327 156.36 120.34 156.381Z" fill="#66B0F0"/>
<path d="M67.091 137.082C66.4997 137.149 65.9152 137.216 65.344 137.283C60.8556 137.834 57.0728 138.58 54.795 139.077C54.7143 139.098 54.6337 139.111 54.5531 139.131C53.2227 139.427 52.4701 139.622 52.4701 139.622H52.4634H52.4567C46.6312 137.391 38.38 134.77 29.2017 133.977C29.9005 132.768 30.6194 131.692 31.1032 131.021C30.653 131.625 29.9677 132.653 29.2017 133.977C26.9844 137.801 24.0682 144.077 24.0682 149.681C24.0682 154.923 26.6215 159.586 34.6912 161.098C40.4496 162.18 48.62 159.754 56.3404 157.16C56.6427 157.059 56.9384 156.959 57.2407 156.858C59.3237 156.152 61.3596 155.447 63.3014 154.802C63.6038 154.701 63.9061 154.6 64.2018 154.506C66.4863 153.76 72.2379 151.711 74.1193 151.287C75.4295 150.992 76.8876 150.494 77.9223 150.447C83.264 154.136 81.1072 149.003 80.1329 146.671C80.1329 146.671 80.1665 146.194 80.6906 145.508C81.087 144.991 87.2015 147.175 87.0335 146.341C87.3493 146.046 87.6046 145.69 87.786 145.3C87.8465 145.179 90.9104 141.725 90.9508 141.591C85.6628 135.039 71.4182 136.988 67.091 137.082Z" fill="#F4ADA2"/>
<path d="M31.466 130.543C31.3719 130.664 31.251 130.819 31.1099 131.014C30.6261 131.686 29.9072 132.768 29.2084 133.971C38.38 134.763 46.6312 137.384 52.4634 139.615H52.4701C52.114 139.326 38.9982 132.526 31.466 130.543Z" fill="#9B3C82"/>
<path d="M56.0582 138.661V138.714V138.802C56.0582 139.185 56.0582 139.568 56.0649 139.958V140.132C56.0851 141.127 56.1389 142.135 56.2128 143.149C56.2396 143.546 56.28 143.949 56.3136 144.346C56.71 148.532 57.5499 152.712 58.7123 156.354C59.0147 156.253 59.317 156.152 59.6127 156.051C61.6956 155.346 63.7315 154.64 65.6733 153.995C64.6789 150.85 63.96 147.161 63.624 143.485C63.5837 143.049 63.5501 142.612 63.5165 142.175C63.4359 141.006 63.4023 139.843 63.409 138.708L61.4806 138.694L56.5622 138.667H56.3001L56.0582 138.661Z" fill="#5B2448"/>
<path d="M60.4162 144.657C63.8821 144.1 66.3767 141.688 65.988 139.269C65.5993 136.851 62.4746 135.342 59.0086 135.899C55.5427 136.457 53.0481 138.869 53.4368 141.287C53.8255 143.705 56.9503 145.214 60.4162 144.657Z" fill="#5B2448"/>
<path d="M58.9272 145.3C59.4513 145.3 59.9754 145.259 60.4861 145.172C61.6754 144.984 62.7639 144.587 63.6777 144.05C63.6575 143.875 63.6441 143.694 63.6239 143.519C62.7168 144.084 61.6216 144.5 60.4054 144.695C58.9608 144.93 57.5364 144.816 56.3202 144.393C56.3403 144.567 56.3538 144.749 56.3739 144.923C57.1735 145.172 58.0336 145.3 58.9272 145.3Z" fill="white"/>
<path d="M60.2084 143.347C63.5754 142.806 66.0346 140.686 65.7013 138.612C65.368 136.538 62.3683 135.296 59.0013 135.837C55.6343 136.379 53.175 138.499 53.5083 140.572C53.8417 142.646 56.8414 143.889 60.2084 143.347Z" fill="white"/>
<path d="M59.149 139.776H59.1826L62.8379 139.319C62.9722 139.299 63.0663 139.178 63.0462 139.044C63.026 138.916 62.9118 138.822 62.7774 138.835L59.3641 139.265L59.1423 137.162C59.1289 137.028 59.0079 136.934 58.8736 136.947C58.7459 136.961 58.6518 137.075 58.6585 137.202V137.209L58.9072 139.561C58.9206 139.682 59.0214 139.776 59.149 139.776Z" fill="#5B2448"/>
<path d="M52.5104 139.629C46.9806 141.134 41.2559 143.291 36.6532 145.629C36.6196 145.649 36.5793 145.656 36.5457 145.656C36.4113 145.656 36.3038 145.549 36.3038 145.414C36.3038 145.32 36.3576 145.24 36.4382 145.199C41.0005 142.881 46.4565 140.805 51.8721 139.299C52.235 139.487 52.4567 139.602 52.5104 139.629Z" fill="#9B3C82"/>
<path d="M92.8993 148.546C92.6977 148.546 92.4962 148.512 92.308 148.445C92.0863 148.364 91.8713 148.27 91.663 148.143C91.6563 148.136 91.6495 148.136 91.6428 148.129C91.8511 148.935 91.5286 149.607 90.4132 149.964C90.1848 150.031 89.9429 150.064 89.701 150.051C89.5061 150.044 89.3113 150.017 89.1231 149.97C89.1164 149.97 89.1097 149.97 89.1097 149.964C89.4725 151.072 89.1366 151.879 87.6987 151.919C87.4165 151.926 87.1343 151.906 86.8588 151.852C86.637 151.811 86.4153 151.751 86.207 151.67C86.207 151.67 86.2003 151.67 86.2003 151.664C86.3884 152.651 86.0458 153.458 84.9102 153.794C83.5933 154.184 80.6973 153.088 79.844 152.766C78.3053 152.195 77.2101 151.697 76.4172 151.247C76.1753 151.106 75.9603 150.972 75.7722 150.837C74.4821 149.93 74.3477 149.13 74.1327 148.095L78.05 146.086C77.2705 145.609 76.5986 145.213 76.1552 144.937L78.9705 144.534L85.058 142.935C85.2193 142.982 85.3738 143.036 85.5351 143.096C84.1913 142.209 82.8878 141.436 82.1218 140.858L87.7054 138.99C92.5835 141.557 97.0047 148.391 92.8993 148.546Z" fill="#F4ADA2"/>
<path d="M92.308 148.445C92.0863 148.364 91.8511 148.256 91.6428 148.129C91.6227 148.068 91.6159 148.021 91.5958 147.961C91.5555 147.86 91.5219 147.766 91.4816 147.672C89.8018 143.68 86.8789 143.028 86.6505 142.988C86.5094 142.995 86.3884 142.887 86.3817 142.746C86.3817 142.686 86.3952 142.632 86.4287 142.585C86.5295 142.444 86.6841 142.477 86.7781 142.498C86.9394 142.524 90.6148 143.304 92.308 148.445Z" fill="#9B3C82"/>
<path d="M89.7078 150.051C89.5129 150.044 89.2979 150.017 89.1098 149.97C89.0762 149.876 89.056 149.789 89.0157 149.702C88.9216 149.486 88.8208 149.278 88.7133 149.09C88.6999 149.056 88.6797 149.023 88.6596 148.996C88.4446 148.606 88.196 148.243 87.9138 147.901C86.3146 145.972 84.2787 145.67 84.1174 145.65C83.9763 145.663 83.8554 145.555 83.8419 145.414C83.8352 145.287 83.9159 145.172 84.0435 145.146C84.1577 145.119 84.7154 145.186 85.468 145.488C86.7984 146.019 88.7066 147.282 89.7078 150.051Z" fill="#9B3C82"/>
<path d="M86.8655 151.852C86.6438 151.811 86.4086 151.751 86.2003 151.67C85.6225 150.535 84.7691 149.58 83.7008 148.888C82.7198 148.263 81.9001 148.089 81.8933 148.089C81.759 148.055 81.6716 147.921 81.7052 147.779C81.7388 147.645 81.8665 147.564 81.9941 147.585C82.1285 147.625 85.2664 148.29 86.8655 151.852Z" fill="#9B3C82"/>
<path d="M83.0759 152.611C82.9751 152.712 82.8139 152.712 82.7131 152.611C80.946 150.857 77.8619 151.052 76.424 151.253C76.1821 151.112 75.9872 150.991 75.7991 150.857C76.639 150.696 77.4654 150.608 78.3188 150.608C80.3748 150.629 82.0143 151.193 83.0759 152.241C83.1767 152.349 83.1767 152.51 83.0759 152.611Z" fill="#9B3C82"/>
<path d="M103.67 69.0241C99.4035 69.817 93.3966 71.2282 88.4311 73.8421H88.4244C88.1758 73.99 87.8331 74.1848 87.3897 74.4133L87.1679 74.5275L86.9328 74.6418C85.1723 75.4952 82.1958 76.6577 77.8821 77.4372C75.6983 77.8673 75.7454 75.5758 76.4778 75.2734C76.4442 75.1054 76.4173 74.9442 76.3837 74.7829C76.1888 73.7279 76.041 72.7334 75.9469 71.8061C75.9268 71.6313 75.9133 71.4633 75.8932 71.2954C75.6043 68.1438 75.8529 65.6978 76.5315 63.8029C76.592 63.6349 76.6592 63.4669 76.7264 63.3056C77.1026 62.385 77.6469 61.5383 78.3255 60.8126C78.4599 60.6715 78.5943 60.5371 78.7354 60.4027C79.1856 59.9928 79.6761 59.6299 80.2002 59.3208C80.2405 59.3006 80.2808 59.2738 80.3211 59.2536C80.5966 59.0923 80.8855 58.9512 81.1744 58.8168C81.1879 58.8101 81.208 58.8034 81.2215 58.7967C81.2618 58.7765 81.3021 58.7563 81.3491 58.7429C81.5978 58.6354 81.8531 58.5279 82.1151 58.4338C82.1286 58.4271 82.142 58.4271 82.1554 58.4203C82.4309 58.3196 82.7131 58.2188 83.0021 58.1381C84.0301 57.8223 85.0984 57.6274 86.1735 57.5602C88.2564 57.4393 90.158 57.5669 91.3943 58.5682C91.3943 58.5682 91.3943 58.5682 91.401 58.5749C91.7168 58.5883 91.9654 58.6085 92.1871 58.6421C92.3887 58.669 92.5903 58.716 92.7919 58.7698C94.6531 59.2805 98.3352 61.2225 99.0541 65.0998C99.0541 65.1132 99.0608 65.1199 99.0608 65.1266C99.0676 65.167 99.0743 65.2073 99.081 65.2543C99.0877 65.3014 99.0944 65.3484 99.1012 65.3954C99.1146 65.4626 99.1213 65.5365 99.128 65.597C99.128 65.6105 99.128 65.6172 99.1348 65.6306V65.6575C99.1348 65.6575 99.1415 65.6642 99.1482 65.6777L103.885 68.3521C104.04 68.5201 104.026 68.7755 103.858 68.93C103.811 68.9703 103.744 69.0106 103.67 69.0241Z" fill="#FFCF2D"/>
<path d="M86.2138 67.2838L86.2205 67.304C82.5855 70.2472 78.5876 71.3762 75.9537 71.8062C75.9335 71.6315 75.9201 71.4635 75.8999 71.2955C78.4061 70.8789 82.1622 69.8239 85.6292 67.1226C84.3862 64.2532 82.2495 62.2373 79.2662 61.1218C78.9504 61.0009 78.6346 60.9001 78.3322 60.8127C78.4666 60.6716 78.601 60.5372 78.7421 60.4028C78.9638 60.47 79.1923 60.5507 79.4207 60.638C81.6515 61.4713 84.6483 63.2923 86.2407 67.2704L86.2138 67.2838Z" fill="#FFBD11"/>
<path d="M96.5815 66.0005L96.0842 66.1282C96.0507 65.9871 96.0103 65.8459 95.97 65.7115C95.0764 62.7213 92.9666 60.1611 91.4077 58.5752C91.7235 58.5886 91.9721 58.6088 92.1939 58.6424C93.7325 60.282 95.6139 62.7213 96.4672 65.5906C96.5076 65.7183 96.5479 65.8594 96.5815 66.0005Z" fill="#FFBD11"/>
<path d="M92.0729 67.3575L91.5757 67.4785C91.5622 67.4247 91.5488 67.371 91.5354 67.3172C90.6216 63.8162 88.5386 61.2157 85.3403 59.5895C84.319 59.0721 83.2372 58.6824 82.1218 58.427C82.1353 58.4203 82.1487 58.4203 82.1621 58.4136C82.4376 58.3128 82.7198 58.212 83.0088 58.1313C83.889 58.3867 84.7423 58.716 85.5553 59.1326C87.8398 60.2884 90.7895 62.6 91.999 67.0686C92.0259 67.1627 92.0527 67.2635 92.0729 67.3575Z" fill="#FFBD11"/>
<path d="M86.9462 70.6169C86.4825 71.5442 86.5161 72.5992 87.0402 73.7483C87.1477 73.9767 87.262 74.1985 87.3963 74.4135L87.1746 74.5277L86.9394 74.642C86.805 74.4269 86.6908 74.2052 86.5833 73.9767C85.992 72.6933 85.9584 71.4501 86.4893 70.3884C87.8532 67.6535 94.774 65.8458 99.0675 65.1201C99.0742 65.1604 99.1414 65.6107 99.1414 65.6241C94.5186 66.4103 88.1422 68.2246 86.9462 70.6169Z" fill="#FFBD11"/>
<path d="M120.307 156.32H85.6964C99.4102 154.68 110.981 151.327 112.748 138.15C114.79 144.393 117.317 150.467 120.307 156.32Z" fill="#649FE3"/>
<path d="M109.791 98.2485V131.679H104.181V98.5576C104.201 98.5509 104.214 98.5509 104.235 98.5442C104.429 98.5039 104.618 98.4703 104.812 98.4367C104.866 98.4232 104.92 98.4165 104.98 98.4098C105.108 98.3896 105.242 98.3695 105.37 98.3493C105.39 98.3493 105.417 98.3426 105.444 98.3426C105.646 98.3157 105.854 98.2888 106.062 98.2687C107.097 98.1612 108.132 98.141 109.173 98.2082C109.308 98.2149 109.442 98.2284 109.583 98.2351C109.643 98.2351 109.717 98.2418 109.791 98.2485Z" fill="#66B0F0"/>
<path d="M74.7509 97.9661V129.535H69.1404V96.938C70.6925 96.9514 72.2379 97.1799 73.7296 97.6234C73.8908 97.6704 74.0588 97.7242 74.2201 97.778C74.2537 97.7914 74.2873 97.7981 74.3209 97.8116C74.462 97.8586 74.6098 97.9124 74.7509 97.9661Z" fill="#66B0F0"/>
<path d="M106.989 132.963C108.032 132.963 108.877 132.117 108.877 131.074C108.877 130.031 108.032 129.186 106.989 129.186C105.947 129.186 105.101 130.031 105.101 131.074C105.101 132.117 105.947 132.963 106.989 132.963Z" fill="#FFBD11"/>
<path d="M71.949 132.848C72.9918 132.848 73.8371 132.003 73.8371 130.96C73.8371 129.917 72.9918 129.072 71.949 129.072C70.9062 129.072 70.0609 129.917 70.0609 130.96C70.0609 132.003 70.9062 132.848 71.949 132.848Z" fill="#FFBD11"/>
</g>
<g clip-path="url(#clip3_179_3497)">
<path d="M99.8485 143.741L99.0617 144.103L94.3721 146.261C93.6985 144.515 92.529 143.051 91.3647 141.92L96.8882 139.378L97.6757 139.016L98.3167 140.409L99.2081 142.347L99.8485 143.741Z" fill="#FFCF2D"/>
<path d="M120.899 130.488L121.459 131.707C121.525 131.85 121.538 132.012 121.494 132.165C121.451 132.317 121.355 132.45 121.223 132.539L115.566 136.366C115.485 136.42 115.393 136.457 115.296 136.473C115.2 136.489 115.101 136.484 115.007 136.459C114.913 136.433 114.826 136.387 114.752 136.325C114.678 136.262 114.619 136.184 114.578 136.096L113.065 132.808C113.025 132.719 113.004 132.623 113.005 132.526C113.006 132.428 113.028 132.332 113.07 132.244C113.113 132.155 113.174 132.077 113.249 132.014C113.325 131.952 113.414 131.906 113.509 131.881L120.118 130.124C120.271 130.083 120.433 130.098 120.576 130.164C120.719 130.23 120.833 130.345 120.899 130.488Z" fill="#B0DCF7"/>
<path d="M115.272 132.607L116.164 134.545L98.5346 142.657L97.643 140.719L115.272 132.607Z" fill="#B0DCF7"/>
<path d="M99.2332 144.475C99.5541 145.172 100.386 145.475 101.091 145.15C101.796 144.826 102.107 143.998 101.786 143.3L99.2705 137.831C98.9496 137.134 98.1179 136.831 97.4129 137.156C96.7079 137.48 96.3965 138.309 96.7174 139.006L99.2332 144.475Z" fill="#FFCF2D"/>
</g>
<g clip-path="url(#clip4_179_3497)">
<path d="M170.645 135.18L170.47 137.972L170.467 138.017C170.161 137.991 169.858 137.934 169.564 137.846C168.91 137.659 168.294 137.36 167.741 136.964C167.622 136.88 167.503 136.787 167.383 136.688C166.587 136.013 165.967 135.154 165.576 134.186C165.504 134.014 165.438 133.839 165.379 133.663C165.04 132.662 164.898 131.614 164.864 130.639C164.856 130.411 164.854 130.187 164.856 129.969C164.859 129.77 164.865 129.576 164.875 129.386C164.931 128.28 164.787 127.285 164.443 126.4C164.384 126.245 164.316 126.093 164.243 125.945C163.901 125.247 163.423 124.624 162.838 124.112C162.771 124.051 162.702 123.992 162.631 123.935C162.569 123.883 162.504 123.831 162.439 123.782C162.374 123.733 162.31 123.685 162.244 123.638C162.243 123.638 162.243 123.637 162.242 123.637C161.907 123.399 161.554 123.188 161.186 123.006C160.591 122.702 159.96 122.473 159.309 122.324L159.82 119.527C160.285 119.624 160.741 119.755 161.186 119.921C162.146 120.264 163.056 120.735 163.89 121.321C164.051 121.436 164.213 121.559 164.377 121.691C164.399 121.708 164.42 121.726 164.442 121.744C164.565 121.844 164.689 121.951 164.811 122.063C164.828 122.079 164.846 122.094 164.863 122.112C165.787 122.956 166.518 123.991 167.006 125.145C167.077 125.313 167.143 125.486 167.206 125.664C167.548 126.652 167.749 127.797 167.726 129.122C167.724 129.256 167.719 129.393 167.712 129.531L167.709 129.599C167.659 130.674 167.746 131.617 167.963 132.408C168.005 132.568 168.056 132.725 168.114 132.88C168.366 133.562 168.732 134.11 169.206 134.507C169.279 134.569 169.352 134.624 169.425 134.674C169.787 134.935 170.205 135.108 170.645 135.18Z" fill="#FFCF2D"/>
<path d="M140.01 138.415H151.157V145.96H140.01V138.415Z" fill="#5B2448"/>
<path d="M163.218 153.042V154.076C163.218 154.735 162.956 155.366 162.491 155.832C162.026 156.298 161.395 156.559 160.737 156.559H135.122V145.595H154.876V145.599C155.484 145.585 156.076 145.797 156.538 146.192L162.348 151.153C162.621 151.386 162.84 151.675 162.99 152.002C163.14 152.328 163.218 152.683 163.218 153.042Z" fill="#9B3C82"/>
<path d="M129.392 156.559H140.668C141.326 156.559 141.957 156.298 142.423 155.832C142.888 155.366 143.149 154.735 143.149 154.076V153.042C143.149 152.683 143.072 152.328 142.921 152.002C142.771 151.676 142.552 151.386 142.279 151.153L136.469 146.192C136.011 145.802 135.428 145.59 134.826 145.598C134.224 145.606 133.646 145.833 133.199 146.235L127.732 151.157C127.473 151.39 127.267 151.675 127.125 151.993C126.984 152.311 126.91 152.655 126.911 153.003V154.076C126.911 154.735 127.172 155.366 127.637 155.832C128.103 156.298 128.734 156.559 129.392 156.559Z" fill="#5B2448"/>
<path d="M133.613 153.581C134.012 152.617 133.555 151.511 132.591 151.112C131.628 150.712 130.523 151.17 130.124 152.135C129.725 153.099 130.183 154.204 131.146 154.604C132.109 155.003 133.214 154.545 133.613 153.581Z" fill="#9B3C82"/>
<path d="M138.083 154.748C139.126 154.748 139.972 153.902 139.972 152.858C139.972 151.814 139.126 150.968 138.083 150.968C137.041 150.968 136.195 151.814 136.195 152.858C136.195 153.902 137.041 154.748 138.083 154.748Z" fill="#9B3C82"/>
<path d="M159.268 153.238V154.346C159.269 154.768 159.177 155.185 158.999 155.567C158.822 155.95 158.563 156.289 158.24 156.56H157.486C157.898 156.356 158.245 156.04 158.487 155.649C158.729 155.257 158.856 154.806 158.854 154.346V153.238C158.855 152.885 158.781 152.535 158.635 152.213C158.49 151.891 158.277 151.604 158.011 151.371L154.876 148.702L152.642 146.8L151.229 145.595H151.866L152.952 146.52L154.876 148.158L158.28 151.057C158.591 151.329 158.84 151.664 159.011 152.04C159.181 152.417 159.269 152.825 159.268 153.238Z" fill="#5B2448"/>
<path d="M154.213 153.238V154.346C154.214 154.768 154.123 155.185 153.945 155.567C153.767 155.95 153.508 156.289 153.185 156.56H152.432C152.845 156.356 153.191 156.04 153.433 155.649C153.675 155.257 153.802 154.806 153.8 154.346V153.238C153.801 152.885 153.727 152.535 153.581 152.213C153.435 151.891 153.222 151.604 152.956 151.371L150.185 149.011L146.174 145.595H146.812L150.496 148.732L153.226 151.057C153.537 151.329 153.786 151.664 153.956 152.04C154.127 152.417 154.214 152.825 154.213 153.238Z" fill="#5B2448"/>
<path d="M148.906 153.238V154.346C148.907 155.034 148.663 155.7 148.216 156.224C148.113 156.345 147.999 156.458 147.877 156.56H147.124C147.41 156.421 147.665 156.226 147.875 155.987C148.274 155.533 148.494 154.95 148.492 154.346V153.238C148.493 152.885 148.419 152.535 148.273 152.213C148.127 151.891 147.914 151.604 147.648 151.371L147.616 151.343L140.867 145.595H141.504L147.915 151.055L147.918 151.057C148.229 151.329 148.478 151.664 148.649 152.041C148.819 152.417 148.907 152.825 148.906 153.238Z" fill="#5B2448"/>
<path d="M161.186 112.992V139.67C161.186 139.996 161.121 140.319 160.997 140.62C160.872 140.922 160.689 141.195 160.459 141.426C160.228 141.656 159.955 141.839 159.654 141.964C159.353 142.089 159.03 142.153 158.704 142.153H130.088C129.762 142.153 129.439 142.089 129.138 141.964C128.837 141.839 128.564 141.656 128.333 141.426C128.103 141.195 127.92 140.922 127.795 140.62C127.671 140.319 127.607 139.996 127.607 139.67V112.992C127.607 112.334 127.868 111.702 128.333 111.237C128.799 110.771 129.43 110.509 130.088 110.509H158.704C159.362 110.509 159.993 110.771 160.459 111.237C160.924 111.702 161.185 112.334 161.186 112.992Z" fill="#9B3C82"/>
<path d="M140.694 94.0928H141.438V102.823H140.694V94.0928Z" fill="#5B2448"/>
<path d="M148.145 94.0928H148.889V102.823H148.145V94.0928Z" fill="#5B2448"/>
<path d="M154.577 110.526H135.285V104.202C135.285 103.653 135.393 103.11 135.603 102.604C135.812 102.097 136.12 101.636 136.507 101.249C136.895 100.861 137.355 100.553 137.861 100.343C138.367 100.133 138.91 100.025 139.458 100.025H150.404C150.952 100.025 151.495 100.133 152.001 100.343C152.507 100.553 152.967 100.861 153.355 101.249C153.742 101.636 154.05 102.097 154.259 102.604C154.469 103.11 154.577 103.653 154.577 104.202V110.526Z" fill="#5B2448"/>
<path d="M141.066 94.6317C142.057 94.6317 142.861 93.8277 142.861 92.8359C142.861 91.8441 142.057 91.04 141.066 91.04C140.075 91.04 139.272 91.8441 139.272 92.8359C139.272 93.8277 140.075 94.6317 141.066 94.6317Z" fill="#FFBD11"/>
<path d="M148.633 94.6317C149.624 94.6317 150.427 93.8277 150.427 92.8359C150.427 91.8441 149.624 91.04 148.633 91.04C147.642 91.04 146.838 91.8441 146.838 92.8359C146.838 93.8277 147.642 94.6317 148.633 94.6317Z" fill="#FFBD11"/>
<path d="M141.226 108.407H149.826C150.26 108.407 150.676 108.234 150.983 107.927C151.29 107.62 151.463 107.203 151.463 106.769V105.597C151.463 105.382 151.42 105.169 151.338 104.97C151.256 104.771 151.135 104.591 150.983 104.439C150.831 104.287 150.651 104.166 150.452 104.084C150.254 104.001 150.041 103.959 149.826 103.959H141.226C141.011 103.959 140.798 104.001 140.599 104.084C140.401 104.166 140.22 104.287 140.068 104.439C139.916 104.591 139.796 104.771 139.714 104.97C139.631 105.169 139.589 105.382 139.589 105.597V106.769C139.589 107.203 139.762 107.62 140.068 107.927C140.375 108.234 140.792 108.407 141.226 108.407Z" fill="#FFCF2D"/>
<path d="M142.174 107.216C142.744 107.216 143.205 106.753 143.205 106.183C143.205 105.613 142.744 105.15 142.174 105.15C141.604 105.15 141.142 105.613 141.142 106.183C141.142 106.753 141.604 107.216 142.174 107.216Z" fill="#F94F46"/>
<path d="M148.878 107.216C149.448 107.216 149.91 106.753 149.91 106.183C149.91 105.613 149.448 105.15 148.878 105.15C148.308 105.15 147.846 105.613 147.846 106.183C147.846 106.753 148.308 107.216 148.878 107.216Z" fill="#F94F46"/>
<path d="M136.176 117.195H157.88V124.084H136.176V117.195Z" fill="#5B2448"/>
<path d="M137.942 118.486H142.657V122.918H137.942V118.486Z" fill="#FFCF2D"/>
<path d="M144.586 118.487H149.301V122.919H144.586V118.487Z" fill="#FFCF2D"/>
<path d="M151.23 118.487H155.945V122.919H151.23V118.487Z" fill="#FFCF2D"/>
<path d="M136.126 127.024H157.93V128.495H136.126V127.024Z" fill="#F94F46"/>
<path d="M136.118 142.153H130.067C129.412 142.148 128.786 141.884 128.326 141.418C127.865 140.953 127.606 140.325 127.606 139.67V112.993C127.606 112.334 127.868 111.702 128.333 111.237C128.799 110.771 129.43 110.509 130.088 110.509V110.5H136.139C135.571 110.569 135.04 110.815 134.619 111.204C134.199 111.592 133.912 112.103 133.798 112.665V140.085C133.928 140.625 134.22 141.113 134.635 141.482C135.049 141.852 135.567 142.086 136.118 142.153Z" fill="#5B2448"/>
<path d="M169.929 141.865C169.722 141.865 169.523 141.783 169.376 141.636C169.229 141.489 169.147 141.29 169.147 141.082V138.539C169.149 138.333 169.232 138.136 169.379 137.99C169.525 137.845 169.723 137.764 169.929 137.764C170.136 137.764 170.333 137.845 170.48 137.99C170.626 138.136 170.71 138.333 170.712 138.539V141.082C170.712 141.185 170.691 141.287 170.652 141.382C170.613 141.477 170.555 141.563 170.483 141.636C170.41 141.709 170.324 141.766 170.229 141.806C170.134 141.845 170.032 141.865 169.929 141.865Z" fill="#FFCF2D"/>
<path d="M173.091 140.529C172.988 140.529 172.886 140.509 172.791 140.47C172.696 140.43 172.61 140.373 172.537 140.3L170.766 138.527C170.622 138.38 170.541 138.182 170.542 137.975C170.543 137.769 170.625 137.571 170.771 137.425C170.917 137.279 171.115 137.197 171.321 137.196C171.527 137.195 171.725 137.275 171.872 137.42L173.644 139.193C173.753 139.302 173.828 139.442 173.858 139.594C173.888 139.745 173.872 139.903 173.813 140.046C173.754 140.189 173.654 140.311 173.525 140.397C173.396 140.483 173.245 140.529 173.09 140.529H173.091Z" fill="#FFCF2D"/>
<path d="M174.178 137.266H172.063C171.96 137.267 171.858 137.248 171.762 137.209C171.666 137.17 171.579 137.112 171.505 137.039C171.432 136.967 171.374 136.88 171.334 136.785C171.294 136.689 171.274 136.587 171.274 136.483C171.274 136.38 171.294 136.277 171.334 136.182C171.374 136.086 171.432 136 171.505 135.927C171.579 135.854 171.666 135.797 171.762 135.758C171.858 135.719 171.96 135.699 172.063 135.7H174.178C174.281 135.699 174.384 135.719 174.479 135.758C174.575 135.797 174.662 135.854 174.736 135.927C174.809 136 174.867 136.086 174.907 136.182C174.947 136.277 174.967 136.38 174.967 136.483C174.967 136.587 174.947 136.689 174.907 136.785C174.867 136.88 174.809 136.967 174.736 137.039C174.662 137.112 174.575 137.17 174.479 137.209C174.384 137.248 174.281 137.267 174.178 137.266Z" fill="#FFCF2D"/>
<path d="M172.203 138.977C173.225 137.954 173.225 136.295 172.203 135.272C171.181 134.249 169.524 134.249 168.502 135.272C167.479 136.295 167.479 137.954 168.502 138.977C169.524 140 171.181 140 172.203 138.977Z" fill="#FFBD11"/>
<path d="M167.205 125.664C166.719 125.552 166.214 125.56 165.732 125.689C165.251 125.817 164.808 126.061 164.443 126.401C164.383 126.245 164.316 126.094 164.243 125.945C164.621 125.625 165.063 125.388 165.539 125.25C166.015 125.113 166.514 125.077 167.005 125.145C167.076 125.313 167.143 125.486 167.205 125.664Z" fill="#FFBD11"/>
<path d="M164.862 122.111C164.391 122.262 163.963 122.522 163.611 122.869C163.259 123.217 162.994 123.643 162.838 124.112C162.771 124.051 162.702 123.992 162.631 123.935C162.569 123.882 162.504 123.831 162.439 123.782C162.617 123.324 162.887 122.908 163.231 122.558C163.576 122.207 163.987 121.93 164.441 121.744C164.564 121.844 164.688 121.951 164.811 122.063C164.827 122.079 164.845 122.094 164.862 122.111Z" fill="#FFBD11"/>
<path d="M167.726 129.122C167.723 129.257 167.718 129.393 167.711 129.531L167.709 129.6C167.185 129.51 166.647 129.558 166.148 129.741C165.649 129.923 165.206 130.233 164.863 130.639C164.856 130.411 164.854 130.187 164.856 129.969C165.243 129.626 165.701 129.373 166.197 129.226C166.693 129.08 167.215 129.044 167.726 129.122Z" fill="#FFBD11"/>
<path d="M168.113 132.88C167.759 132.876 167.407 132.933 167.073 133.05C166.466 133.259 165.941 133.657 165.575 134.186C165.503 134.013 165.438 133.839 165.378 133.663C165.697 133.284 166.092 132.976 166.537 132.76C166.982 132.544 167.468 132.424 167.962 132.408C168.005 132.568 168.055 132.725 168.113 132.88Z" fill="#FFBD11"/>
<path d="M131.086 120.538C131.086 121.342 130.644 121.994 130.098 121.997H127.771V119.081H130.098C130.644 119.084 131.086 119.735 131.086 120.538Z" fill="#FFCF2D"/>
<path d="M127.787 121.998C128.332 121.998 128.774 121.345 128.774 120.539C128.774 119.733 128.332 119.08 127.787 119.08C127.242 119.08 126.8 119.733 126.8 120.539C126.8 121.345 127.242 121.998 127.787 121.998Z" fill="#FFBD11"/>
</g>
<defs>
<clipPath id="clip0_179_3497">
<rect width="116.4" height="93.04" fill="white" transform="translate(36.96 22.96)"/>
</clipPath>
<clipPath id="clip1_179_3497">
<rect width="140.96" height="10.72" fill="white" transform="translate(40.08 156.4)"/>
</clipPath>
<clipPath id="clip2_179_3497">
<rect width="153.6" height="103.84" fill="white" transform="translate(22.16 57.52)"/>
</clipPath>
<clipPath id="clip3_179_3497">
<rect width="8.8" height="31.6" fill="white" transform="translate(119.268 126.984) rotate(65.0431)"/>
</clipPath>
<clipPath id="clip4_179_3497">
<rect width="48.16" height="65.52" fill="white" transform="translate(126.8 91.04)"/>
</clipPath>
</defs>
</svg>
