<svg width="200" height="200" viewBox="0 0 200 200" fill="none" xmlns="http://www.w3.org/2000/svg">
<g clip-path="url(#clip0_108_7092)">
<path d="M52.8958 98.0691C49.8569 95.2177 45.0827 95.3728 42.225 98.4051C39.3674 101.437 39.5228 106.201 42.5617 109.053C45.6007 111.904 50.3749 111.749 53.2325 108.717C56.0901 105.684 55.9347 100.921 52.8958 98.0691ZM44.2884 107.226C42.2596 105.331 42.1646 102.152 44.0639 100.128C45.9633 98.1036 49.1489 98.0088 51.1777 99.9041C53.2066 101.799 53.3015 104.978 51.4022 107.003C49.4943 109.018 46.3086 109.122 44.2884 107.226Z" fill="#5B2448"/>
<path d="M59.6555 117.797C59.4656 118.322 59.1721 118.813 58.7663 119.244L56.1504 122.018C56.1418 122.027 56.1332 122.035 56.1332 122.044L45.1775 133.682C43.589 135.371 40.9386 135.448 39.2465 133.872L18.1727 114.127C16.4805 112.542 16.4028 109.897 17.9827 108.209L28.947 96.5531L28.9556 96.5445L31.5629 93.7705C31.9686 93.3398 32.4435 93.0125 32.9615 92.7971C34.4464 92.1596 36.2421 92.4094 37.4939 93.5896L58.5677 113.334C59.8282 114.506 60.1994 116.272 59.6555 117.797Z" fill="#F94F46"/>
<path d="M55.9001 121.785C54.3806 123.396 51.8338 123.482 50.2194 121.966L29.3959 102.454C27.7815 100.938 27.7038 98.3966 29.2146 96.7856L32.9614 92.8057C32.4521 93.021 31.9686 93.3484 31.5629 93.7791L28.9556 96.553L28.947 96.5616C27.3067 98.3104 27.4016 101.067 29.1455 102.712L49.969 122.225C50.8151 123.009 51.8856 123.405 52.9561 123.405C54.113 123.405 55.2612 122.948 56.1159 122.052C56.1245 122.044 56.1332 122.035 56.1332 122.027L58.7404 119.253C59.1462 118.822 59.4483 118.322 59.6296 117.805L55.9001 121.785Z" fill="#FCB6B1"/>
<path d="M31.5457 107.39C31.1313 107.003 31.1054 106.348 31.5025 105.926L32.6249 104.728C33.0134 104.315 33.6695 104.289 34.0925 104.685C34.5069 105.073 34.5328 105.728 34.1357 106.15L33.0134 107.347C32.6162 107.761 31.9687 107.787 31.5457 107.39Z" fill="#FFCF2D"/>
<path d="M45.333 120.304C44.9187 119.916 44.8928 119.261 45.2899 118.839L46.4122 117.642C46.8007 117.228 47.4568 117.202 47.8799 117.599C48.2943 117.986 48.3202 118.641 47.923 119.063L46.8007 120.261C46.4036 120.674 45.7474 120.7 45.333 120.304Z" fill="#FFCF2D"/>
</g>
<g clip-path="url(#clip1_108_7092)">
<path d="M37.5278 166.407L25.7255 178.365C25.3197 178.77 25.6156 179.461 26.1905 179.461H154.638C174.15 179.512 182.351 166.196 178.868 149.957C178.8 149.645 178.555 149.401 178.251 149.316L158.324 143.889C157.893 143.771 157.571 144.243 157.817 144.614C162.822 152.451 159.778 164.25 149.506 164.663C149.514 164.663 54.445 165.109 40.4361 165.177C39.337 165.185 38.2887 165.623 37.5278 166.407Z" fill="white"/>
<path d="M154.739 179.63C154.705 179.63 154.671 179.63 154.638 179.63H26.1904C25.8523 179.63 25.5648 179.436 25.438 179.132C25.3112 178.821 25.3704 178.483 25.6071 178.248L37.4094 166.289L37.5277 166.407L37.4094 166.289C38.2041 165.488 39.3032 165.025 40.436 165.017C55.7469 164.941 148.906 164.511 149.506 164.502C153.539 164.342 156.76 162.353 158.561 158.924C159.634 156.867 160.133 154.449 159.989 151.92C159.846 149.342 159.042 146.856 157.681 144.715C157.529 144.479 157.538 144.184 157.698 143.965C157.859 143.754 158.112 143.662 158.374 143.737L178.293 149.156C178.673 149.257 178.952 149.552 179.037 149.923C180.863 158.435 179.46 166.087 175.097 171.447C170.735 176.798 163.692 179.63 154.739 179.63ZM149.506 164.831C149.481 164.831 149.455 164.831 149.43 164.831L145.389 164.848L134.432 164.899L100.225 165.059C74.7101 165.177 47.4447 165.303 40.436 165.337C39.3962 165.345 38.3816 165.767 37.6546 166.508L25.8438 178.483C25.6832 178.652 25.6832 178.863 25.7423 179.006C25.8015 179.149 25.9453 179.301 26.182 179.301H154.638H154.739C163.591 179.301 170.54 176.511 174.827 171.244C179.13 165.96 180.5 158.418 178.699 149.999C178.648 149.755 178.454 149.552 178.2 149.485L158.281 144.049C158.155 144.015 158.036 144.058 157.969 144.159C157.91 144.243 157.867 144.386 157.96 144.53C159.355 146.721 160.175 149.266 160.319 151.895C160.463 154.482 159.955 156.968 158.848 159.075C156.988 162.623 153.665 164.671 149.506 164.831Z" fill="#66B0F0"/>
<path d="M56.6008 174.784C63.2311 174.784 68.606 173.784 68.606 172.551C68.606 171.317 63.2311 170.317 56.6008 170.317C49.9705 170.317 44.5956 171.317 44.5956 172.551C44.5956 173.784 49.9705 174.784 56.6008 174.784Z" fill="#FFCF2D"/>
<path d="M111.402 175.627C122.197 175.627 130.948 174.023 130.948 172.045C130.948 170.067 122.197 168.463 111.402 168.463C100.607 168.463 91.8555 170.067 91.8555 172.045C91.8555 174.023 100.607 175.627 111.402 175.627Z" fill="#FFCF2D"/>
<path d="M153.851 171.286C153.792 170.671 156.058 169.98 156.92 169.635C159.178 168.716 161.274 167.519 162.999 165.918C164.724 164.309 166.059 162.311 167.133 160.129C167.539 159.294 168.359 157.103 169.002 157.187C169.796 157.289 169.864 160.28 169.754 161.283C169.416 164.275 167.936 167.031 165.857 168.969C163.768 170.907 160.919 172.197 157.901 172.323C156.793 172.357 153.927 172.045 153.851 171.286Z" fill="#FFCF2D"/>
</g>
<g clip-path="url(#clip2_108_7092)">
<path d="M63.3334 172.222C68.4472 172.222 72.5928 171.144 72.5928 169.815C72.5928 168.485 68.4472 167.407 63.3334 167.407C58.2196 167.407 54.0741 168.485 54.0741 169.815C54.0741 171.144 58.2196 172.222 63.3334 172.222Z" fill="#5B2448"/>
</g>
<g clip-path="url(#clip3_108_7092)">
<path d="M132.103 148.268C128.775 147.742 123.298 144.703 120.284 140.654C117.295 136.638 113.092 134.482 110.893 136.384C107.039 139.592 112.668 152.385 132.103 148.268Z" fill="#5B2448"/>
<path d="M84.6486 145.637C81.3202 145.11 81.6344 135.976 78.6202 131.927C75.6315 127.911 70.2993 127.215 66.8182 128.319C63.5917 130.102 64.9502 142.496 84.6486 145.637Z" fill="#5B2448"/>
<path d="M124.64 157.818C124.64 157.818 121.931 159.601 121.923 159.601C121.006 159.635 114.578 162.284 115.3 158.837C115.3 158.82 114.459 157.122 114.791 155.611C116.998 149.754 122.364 140.195 122.347 139.991C122.033 136.749 136.272 139.737 135.338 142.368C134.744 145.764 124.64 158.124 124.64 157.818Z" fill="#F4ADA2"/>
<path d="M131.178 149.584C125.404 149.075 121.982 147.029 119.46 145.594C119.605 145.322 120.802 143.005 121.184 142.198C124.368 145.45 128.715 147.886 131.178 149.584Z" fill="#9B3C82"/>
<path d="M118.255 149.202L117.737 149.015C117.677 149.134 117.626 149.244 117.567 149.363C117.329 149.847 117.1 150.339 116.871 150.823L127.408 154.558C127.798 154.066 128.214 153.54 128.639 152.98L118.255 149.202Z" fill="#66B0F0"/>
<path d="M114.807 155.569C116.404 157.249 119.978 158.701 122.126 159.465C122.755 159.058 124.64 157.818 124.64 157.818C124.64 157.912 125.548 156.859 126.839 155.263L116.506 151.596C115.852 152.996 115.266 154.363 114.807 155.569Z" fill="#66B0F0"/>
<path d="M116.497 151.596L126.83 155.263C127.009 155.042 127.195 154.805 127.391 154.558L116.854 150.823C116.743 151.078 116.616 151.341 116.497 151.596Z" fill="white"/>
<path d="M115.359 154.27C115.359 154.27 111.318 164.032 110.392 169.533C110.392 169.533 127.408 170.009 133.445 169.431C136.722 169.117 138.276 167.869 139.023 166.969C139.023 166.969 139.023 166.969 139.014 166.961C139.014 166.952 139.006 166.944 139.006 166.935C138.828 166.52 136.934 162.436 130.94 159.516C130.006 159.058 127.009 157.793 123.57 157.436C121.218 157.19 119.214 157.317 117.703 156.834C115.775 156.214 116.429 154.21 115.359 154.27Z" fill="white"/>
<path d="M115.436 154.109C117.117 154.482 115.818 156.061 117.864 156.783C119.197 157.25 122.95 156.927 125.701 157.632C125.803 157.657 125.896 157.683 125.998 157.708C126.024 157.716 126.049 157.725 126.083 157.725C126.661 157.878 127.221 158.048 127.756 158.217C127.866 158.251 127.968 158.285 128.07 158.319C128.223 158.37 128.367 158.421 128.52 158.48C128.639 158.523 128.749 158.565 128.86 158.608C128.953 158.642 129.046 158.676 129.14 158.718C129.199 158.744 129.25 158.761 129.31 158.786C129.445 158.837 129.581 158.896 129.717 158.956H129.726C129.768 158.973 129.819 158.998 129.862 159.015C130.014 159.083 130.167 159.151 130.32 159.211C130.354 159.228 130.388 159.244 130.413 159.253C130.592 159.338 130.77 159.423 130.948 159.499C131.118 159.584 131.279 159.66 131.441 159.745C131.5 159.779 131.568 159.805 131.628 159.839C131.814 159.932 131.993 160.034 132.171 160.136L132.298 160.204C132.341 160.229 132.383 160.255 132.417 160.272C132.494 160.314 132.57 160.365 132.646 160.407C132.731 160.458 132.808 160.509 132.893 160.56C132.935 160.586 132.969 160.611 133.012 160.628C133.283 160.798 133.538 160.968 133.784 161.138C133.895 161.214 133.996 161.282 134.098 161.358C134.166 161.409 134.234 161.452 134.302 161.503C134.336 161.528 134.37 161.554 134.404 161.579C134.506 161.655 134.616 161.74 134.718 161.817C134.744 161.834 134.769 161.859 134.795 161.876C134.947 161.995 135.1 162.122 135.245 162.241C135.27 162.267 135.304 162.292 135.33 162.318C135.389 162.36 135.44 162.411 135.491 162.462C135.525 162.487 135.55 162.513 135.584 162.538C135.635 162.589 135.695 162.632 135.746 162.683L135.822 162.759C135.822 162.759 135.873 162.81 135.898 162.827C135.924 162.852 135.949 162.878 135.975 162.895C136.051 162.971 136.128 163.039 136.196 163.107L136.272 163.175L136.34 163.243C136.391 163.294 136.433 163.336 136.476 163.387C136.501 163.413 136.518 163.438 136.544 163.455C136.586 163.506 136.637 163.548 136.68 163.591C136.722 163.633 136.764 163.684 136.807 163.727C136.849 163.769 136.892 163.82 136.934 163.863C136.96 163.888 136.977 163.913 137.002 163.939C137.079 164.024 137.155 164.109 137.231 164.194C137.265 164.236 137.308 164.278 137.342 164.321C137.376 164.363 137.41 164.406 137.444 164.448L137.546 164.576C137.851 164.966 138.106 165.314 138.31 165.628C138.327 165.654 138.344 165.679 138.361 165.696C133.181 169.448 127.909 167.538 124.877 166.307C122.262 165.246 121.575 166.689 119.443 166.036C117.669 165.484 117.338 164.007 115.079 163.761C112.965 163.531 111.377 164.907 111.377 164.907C111.377 164.907 112.838 160.195 115.436 154.109Z" fill="#5B2448"/>
<path d="M112.608 161.613C113.109 161.502 113.848 161.205 114.68 160.475C114.816 160.356 114.943 160.246 115.071 160.136C116.217 159.117 116.913 158.497 119.223 158.387C119.35 158.378 119.46 158.48 119.469 158.608C119.477 158.735 119.375 158.845 119.248 158.854C117.108 158.956 116.531 159.465 115.393 160.484C115.266 160.594 115.139 160.704 115.003 160.832C113.992 161.706 113.118 162.012 112.54 162.114C112.354 162.139 112.167 161.706 112.608 161.613Z" fill="white"/>
<path d="M131.976 168.098C129.106 168.132 126.593 167.114 124.911 166.434C123.536 165.874 122.687 166.027 121.863 166.18C121.159 166.307 120.428 166.443 119.426 166.129C118.637 165.883 118.11 165.475 117.609 165.085C116.939 164.567 116.302 164.075 115.062 163.939C113.058 163.718 111.7 164.728 111.683 164.745C111.598 164.813 111.471 164.788 111.411 164.703C111.352 164.618 111.36 164.499 111.445 164.431C111.522 164.372 112.94 163.319 115.105 163.548C116.455 163.693 117.168 164.244 117.847 164.779C118.348 165.17 118.824 165.535 119.545 165.755C120.462 166.036 121.108 165.917 121.795 165.789C122.67 165.628 123.578 165.458 125.064 166.061C126.448 166.621 128.537 167.47 130.872 167.665C133.58 167.886 135.983 167.207 138.225 165.586C138.318 165.526 138.437 165.552 138.496 165.637C138.556 165.73 138.53 165.849 138.446 165.908C136.229 167.513 134.013 168.073 131.976 168.098Z" fill="#5B2448"/>
<path d="M114.824 168.769C113.373 168.786 112.226 168.098 112.218 167.207C112.209 166.316 113.339 165.594 114.782 165.577C116.234 165.56 117.38 166.248 117.389 167.139C117.397 168.031 116.276 168.752 114.824 168.769ZM114.79 165.968C113.602 165.985 112.6 166.545 112.608 167.199C112.617 167.852 113.627 168.387 114.816 168.379C116.005 168.37 117.007 167.801 116.998 167.148C116.99 166.494 115.979 165.951 114.79 165.968Z" fill="#6D2A53"/>
<path d="M124.461 169.966C117.703 170.051 110.316 169.941 110.206 169.941C110.095 169.941 110.01 169.847 110.01 169.745C110.01 169.737 110.01 169.728 110.01 169.72C111.394 162.92 115.181 154.372 115.198 154.27C115.224 154.168 115.325 154.1 115.436 154.125C115.538 154.151 115.606 154.253 115.58 154.363C115.555 154.465 111.98 163.514 110.435 169.559C112.498 169.584 127.832 169.779 133.411 169.244C135.1 169.083 137.384 168.548 138.777 166.944C138.446 166.231 136.493 162.453 130.838 159.703C130.787 159.677 130.719 159.643 130.66 159.618C129.666 159.126 127.323 157.971 123.459 157.725C123.349 157.716 123.264 157.631 123.273 157.521C123.281 157.411 123.366 157.326 123.476 157.334H123.485C127.425 157.589 129.81 158.769 130.829 159.27C130.897 159.304 130.957 159.329 131.008 159.355C136.994 162.275 138.938 166.35 139.159 166.859C139.159 166.859 139.159 166.868 139.167 166.868C139.176 166.876 139.176 166.884 139.176 166.893L139.184 166.901C139.21 166.969 139.201 167.046 139.15 167.097C137.681 168.879 135.236 169.457 133.445 169.626C131.398 169.822 128.01 169.924 124.461 169.966Z" fill="#5B2448"/>
<path d="M122.959 162.903C122.636 162.903 122.364 162.648 122.364 162.317C122.364 162.224 122.381 162.139 122.424 162.054C122.492 161.918 124.088 158.735 127.96 157.784C128.274 157.708 128.596 157.903 128.673 158.217C128.749 158.531 128.554 158.854 128.24 158.93C124.92 159.754 123.494 162.555 123.485 162.58C123.383 162.776 123.179 162.903 122.959 162.903Z" fill="#FFCF2D"/>
<path d="M125.642 163.896C125.319 163.896 125.047 163.642 125.047 163.311C125.047 163.217 125.064 163.124 125.107 163.048C125.175 162.912 126.754 159.788 130.575 158.845C130.889 158.769 131.211 158.956 131.288 159.27C131.364 159.584 131.178 159.907 130.863 159.983H130.855C127.586 160.789 126.176 163.54 126.16 163.565C126.066 163.769 125.862 163.888 125.642 163.896Z" fill="#FFCF2D"/>
<path d="M128.724 164.677C128.401 164.677 128.129 164.423 128.129 164.092C128.129 163.998 128.155 163.896 128.197 163.811C128.257 163.693 129.709 160.985 133.19 160.17C133.504 160.093 133.827 160.288 133.895 160.611C133.971 160.925 133.776 161.248 133.453 161.316C130.507 162.003 129.25 164.329 129.233 164.355C129.14 164.55 128.944 164.669 128.724 164.677Z" fill="#FFCF2D"/>
<path d="M82.8656 146.825C81.8128 147.36 78.4335 148.82 77.3297 149.321C77.3042 149.338 77.2787 149.346 77.2448 149.355C73.6362 150.976 70.2315 152.258 70.1211 152.292C70.0107 152.326 70.1211 152.283 70.1126 152.275C70.1041 152.266 70.1041 152.258 70.0956 152.249C70.0871 152.241 70.0871 152.241 70.0871 152.232C69.4843 151.545 62.938 144.007 66.0626 142.394C66.0711 142.385 66.3258 141.867 66.3343 141.859C67.4381 141.29 68.6267 140.619 69.7985 139.923C70.0956 139.745 70.3843 139.567 70.6815 139.389C70.9447 139.227 71.1994 139.066 71.4541 138.913C71.5306 138.871 71.5985 138.82 71.6749 138.777C72.5579 138.217 73.3985 137.665 74.1372 137.173C75.0372 136.562 75.7844 136.018 76.2853 135.628C76.3023 135.619 76.3108 135.602 76.3278 135.594C76.4891 135.467 76.6504 135.331 76.8033 135.186C79.1127 132.911 82.8656 146.825 82.8656 146.825Z" fill="#F4ADA2"/>
<path d="M77.2448 149.355C73.6362 150.976 70.2315 152.258 70.1211 152.292C70.0107 152.326 70.1211 152.283 70.1126 152.275C70.1041 152.266 70.1041 152.258 70.0956 152.249C70.0871 152.241 70.0871 152.241 70.0871 152.232C69.4843 151.545 62.938 144.007 66.0626 142.394C66.0711 142.385 66.3258 141.867 66.3343 141.859C67.4381 141.29 68.6267 140.619 69.7985 139.923L77.2448 149.355Z" fill="#66B0F0"/>
<path d="M75.6315 150.068L68.2362 140.832C67.9984 140.968 67.7692 141.095 67.5399 141.222L74.8759 150.39C75.1306 150.28 75.3768 150.17 75.6315 150.068Z" fill="white"/>
<path d="M66.3257 141.876C66.3257 141.876 57.4275 146.417 52.5793 149.168C52.5793 149.168 62.938 162.665 67.2003 166.986C69.5097 169.329 71.4626 169.745 72.6258 169.754C72.6258 169.754 72.6258 169.754 72.6343 169.745C72.6343 169.737 72.6428 169.737 72.6428 169.72C72.8466 169.321 74.8249 165.271 73.3136 158.786C73.0758 157.776 72.1673 154.652 70.2824 151.748C68.9918 149.762 67.6333 148.293 67.0475 146.816C66.3173 144.949 67.0475 142.682 66.3257 141.876Z" fill="white"/>
<path d="M66.4956 141.842C67.2597 143.378 66.4531 144.881 67.1833 146.927C67.6588 148.251 70.2824 150.967 71.4711 153.54C71.5136 153.633 71.556 153.726 71.5985 153.82C71.607 153.845 71.6239 153.871 71.6324 153.896C71.8787 154.448 72.0994 154.983 72.3032 155.509C72.3457 155.611 72.3796 155.721 72.4221 155.823C72.473 155.976 72.5325 156.12 72.5834 156.265C72.6258 156.383 72.6598 156.494 72.7023 156.613C72.7362 156.706 72.7617 156.799 72.7957 156.893C72.8126 156.952 72.8296 157.012 72.8551 157.071C72.8975 157.215 72.94 157.351 72.9825 157.487V157.496C72.9994 157.546 73.0079 157.589 73.0249 157.64C73.0674 157.801 73.1183 157.962 73.1608 158.115L73.1862 158.217C73.2372 158.412 73.2796 158.599 73.3306 158.786C73.373 158.964 73.4155 159.151 73.4494 159.329C73.4664 159.397 73.4749 159.465 73.4919 159.533C73.5343 159.737 73.5683 159.94 73.6023 160.144L73.6277 160.288C73.6362 160.339 73.6447 160.382 73.6532 160.424C73.6702 160.518 73.6787 160.603 73.6957 160.687C73.7127 160.781 73.7211 160.874 73.7381 160.968C73.7466 161.01 73.7466 161.061 73.7551 161.103C73.7976 161.417 73.823 161.723 73.8485 162.029C73.857 162.156 73.8655 162.283 73.874 162.411C73.8825 162.496 73.8825 162.58 73.891 162.657C73.891 162.699 73.891 162.742 73.8994 162.784C73.9079 162.912 73.9079 163.047 73.9079 163.175V163.268V163.854V163.964C73.9079 164.041 73.9079 164.108 73.8994 164.176C73.8994 164.219 73.8994 164.253 73.891 164.295C73.891 164.372 73.8825 164.44 73.8825 164.516C73.8825 164.55 73.8825 164.584 73.874 164.626C73.874 164.66 73.8655 164.694 73.8655 164.728C73.8655 164.762 73.857 164.796 73.857 164.83C73.8485 164.932 73.84 165.042 73.8315 165.144L73.823 165.246C73.823 165.28 73.8145 165.314 73.8145 165.348C73.8061 165.416 73.7976 165.484 73.7891 165.543C73.7891 165.577 73.7806 165.611 73.7806 165.637C73.7721 165.704 73.7636 165.764 73.7551 165.823C73.7466 165.883 73.7381 165.951 73.7296 166.01C73.7211 166.069 73.7127 166.137 73.7042 166.197C73.6957 166.231 73.6957 166.265 73.6872 166.299C73.6702 166.418 73.6532 166.528 73.6277 166.638C73.6193 166.698 73.6108 166.749 73.5938 166.808C73.5853 166.867 73.5683 166.918 73.5598 166.969C73.5513 167.02 73.5343 167.08 73.5259 167.131C73.424 167.614 73.3051 168.039 73.1947 168.387C73.1862 168.412 73.1777 168.438 73.1693 168.472C66.9965 166.825 65.1456 161.528 64.1861 158.404C63.3625 155.713 61.8002 156.078 60.9682 154.015C60.2719 152.292 61.2144 151.103 59.9747 149.193C58.82 147.411 56.5955 146.85 56.5955 146.85C56.5955 146.85 60.9257 144.338 66.4956 141.842Z" fill="#5B2448"/>
<path d="M59.3719 145.823C59.3124 145.755 59.2615 145.679 59.2105 145.602C59.1511 145.492 59.1851 145.348 59.3039 145.28C59.4143 145.22 59.5586 145.254 59.6266 145.373C59.6351 145.39 60.2634 146.426 62.3181 146.782C62.4964 146.816 62.6662 146.842 62.8276 146.867C64.3474 147.113 65.2644 147.266 66.8012 148.981C66.8861 149.074 66.8776 149.227 66.7842 149.312C66.6908 149.397 66.538 149.389 66.4531 149.295C65.0266 147.699 64.271 147.572 62.7596 147.326C62.5983 147.3 62.4285 147.275 62.2417 147.241C60.5096 146.952 59.686 146.205 59.3719 145.823Z" fill="white"/>
<path d="M67.3107 165.017C65.4767 162.818 64.6786 160.212 64.1521 158.489C63.7191 157.063 63.0568 156.502 62.42 155.959C61.8766 155.492 61.3078 155.017 60.9172 154.032C60.6115 153.268 60.5945 152.597 60.5776 151.961C60.5606 151.112 60.5436 150.314 59.8643 149.261C58.769 147.572 56.7228 147.054 56.6973 147.046C56.5954 147.02 56.5275 146.91 56.553 146.808C56.5785 146.706 56.6803 146.638 56.7907 146.664C56.8841 146.689 59.0068 147.224 60.1955 149.049C60.9342 150.187 60.9511 151.086 60.9766 151.952C60.9936 152.589 61.0021 153.183 61.2823 153.888C61.6389 154.779 62.1398 155.204 62.6748 155.662C63.354 156.239 64.0587 156.842 64.5257 158.37C64.9587 159.796 65.621 161.952 66.9456 163.888C68.4824 166.129 70.5286 167.564 73.2032 168.277C73.3051 168.311 73.3645 168.421 73.339 168.523C73.3051 168.625 73.1947 168.684 73.0928 168.659C70.4522 167.946 68.6182 166.579 67.3107 165.017Z" fill="#5B2448"/>
<path d="M55.9671 152.131C55.0331 151.018 54.8463 149.694 55.5341 149.117C56.2218 148.54 57.4869 148.964 58.4209 150.085C59.3464 151.197 59.5417 152.521 58.8539 153.098C58.1662 153.667 56.9011 153.243 55.9671 152.131ZM58.1237 150.331C57.3596 149.414 56.2898 148.998 55.7888 149.414C55.2879 149.83 55.5086 150.959 56.2728 151.876C57.0369 152.793 58.1068 153.209 58.6077 152.793C59.1002 152.377 58.8794 151.248 58.1237 150.331Z" fill="#6D2A53"/>
<path d="M61.1209 160.356C56.7907 155.17 52.2142 149.372 52.1463 149.278C52.0784 149.193 52.0953 149.066 52.1802 149.007C52.1887 148.998 52.1972 148.998 52.2057 148.99C57.0114 146.265 66.1474 141.799 66.2323 141.757C66.3257 141.706 66.4446 141.748 66.4955 141.85C66.5465 141.952 66.504 142.063 66.4021 142.113C66.3087 142.156 57.436 146.502 52.5963 149.227C53.8699 150.84 63.3964 162.861 67.3361 166.85C68.5248 168.056 70.3842 169.491 72.5069 169.558C72.855 168.854 74.5447 164.949 73.1182 158.837C73.1013 158.777 73.0928 158.709 73.0758 158.642C72.8296 157.555 72.2522 155.017 70.0022 151.859C69.9342 151.774 69.9512 151.647 70.0446 151.587C70.138 151.528 70.2569 151.536 70.3163 151.63C70.3163 151.63 70.3163 151.638 70.3248 151.638C72.6173 154.855 73.2031 157.453 73.4579 158.557C73.4749 158.625 73.4918 158.693 73.5003 158.752C75.0117 165.238 73.0758 169.321 72.8211 169.813C72.8211 169.813 72.8211 169.822 72.8126 169.822C72.8041 169.83 72.8041 169.839 72.7956 169.847L72.7871 169.856C72.7531 169.915 72.6852 169.957 72.6173 169.957C70.3078 169.94 68.3125 168.412 67.0474 167.131C65.604 165.645 63.3964 163.09 61.1209 160.356Z" fill="#5B2448"/>
<path d="M65.655 154.745C65.4513 154.499 65.4852 154.126 65.7315 153.913C65.7994 153.854 65.8843 153.811 65.9777 153.794C66.122 153.761 69.6032 152.996 72.7872 155.39C73.0504 155.586 73.1014 155.951 72.9061 156.214C72.7108 156.477 72.3457 156.528 72.0825 156.333C69.3485 154.278 66.2749 154.94 66.2494 154.94C66.0201 154.991 65.7994 154.915 65.655 154.745Z" fill="#FFCF2D"/>
<path d="M66.5805 157.445C66.3767 157.199 66.4107 156.825 66.6569 156.613C66.7248 156.553 66.8097 156.511 66.9031 156.494C67.0475 156.46 70.4777 155.713 73.6107 158.081C73.874 158.277 73.9249 158.642 73.7296 158.905C73.5343 159.168 73.1692 159.219 72.906 159.024C72.906 159.024 72.8975 159.024 72.8975 159.015C70.206 156.986 67.1918 157.632 67.1578 157.632C66.9456 157.691 66.7163 157.615 66.5805 157.445Z" fill="#FFCF2D"/>
<path d="M67.9135 160.331C67.7097 160.085 67.7437 159.711 67.9899 159.499C68.0663 159.44 68.1512 159.397 68.2446 159.372C68.372 159.346 71.3862 158.76 74.222 160.951C74.4768 161.146 74.5277 161.519 74.3239 161.774C74.1286 162.029 73.7551 162.08 73.5003 161.876C71.1145 160.025 68.5078 160.518 68.4823 160.518C68.2701 160.577 68.0578 160.501 67.9135 160.331Z" fill="#FFCF2D"/>
<path d="M81.3372 147.589C77.8561 146.655 73.0164 140.883 71.9126 138.59C72.2013 138.489 77.8815 134.431 78.7051 134.091C78.9174 138.633 79.4778 145.305 81.3372 147.589Z" fill="#9B3C82"/>
<path d="M116.149 91.9009C122.857 95.0843 142.674 105.636 146.121 118.692C149.432 131.256 131.178 149.584 131.178 149.584C131.178 149.584 126.253 148.183 122.347 143.514C118.433 138.828 114.196 135.11 110.885 136.383C115.894 131.969 121.243 129.338 123.451 123.565C121.328 122.037 115.13 119.371 111.394 117.079C114.706 136.265 100.187 139.066 81.3373 147.589C78.2806 145.636 76.5995 141.273 74.4598 134.686C73.3561 131.29 69.7051 127.3 66.8182 128.319C72.507 125.942 78.4505 126.536 88.3845 121.188C88.6647 114.711 82.2118 101.298 88.6393 83.4543L116.149 91.9009Z" fill="#21A0AA"/>
<path d="M124.453 118.896C124.334 118.888 124.232 118.964 124.215 119.083C124.215 119.1 123.986 120.908 123.052 123.293C123.179 123.378 123.332 123.48 123.451 123.565C124.427 121.086 124.64 119.159 124.64 119.134C124.648 119.015 124.572 118.913 124.453 118.896Z" fill="#6CE0DC"/>
<path d="M110.706 99.5242C110.723 99.4054 110.647 99.3035 110.528 99.2865C110.409 99.2696 110.307 99.346 110.29 99.4648C109.679 103.998 110.223 107.86 110.851 112.343C111.055 113.82 111.199 115.356 111.394 117.08C111.539 117.173 111.691 117.258 111.844 117.351C111.64 115.492 111.479 113.845 111.267 112.283C110.647 107.835 110.104 103.998 110.706 99.5242Z" fill="#6CE0DC"/>
<path d="M92.7402 117.758C92.6638 117.674 92.528 117.674 92.4431 117.758C92.4176 117.784 91.093 119.151 88.393 120.704C88.393 120.865 88.3845 121.027 88.3845 121.188C91.2798 119.55 92.7148 118.073 92.7402 118.056C92.8251 117.979 92.8251 117.843 92.7402 117.758Z" fill="#6CE0DC"/>
<path d="M149.356 64.091C149.356 64.091 153.848 44.8379 150.884 41.3914C149.713 40.0246 144.958 41.0178 143.608 40.5255C141.91 39.8973 145.476 38.4966 146.597 38.1061C146.885 37.1808 144.508 36.9007 141.74 36.0348C140.271 35.5764 140.339 34.7954 142.3 34.6086C141.663 34.1587 142.767 33.522 144.202 33.6579C143.404 32.2657 151.504 31.6375 155.563 34.2521C159.205 36.5951 161.676 41.9431 163.009 50.7717C163.688 55.2709 163.934 70.3644 162.075 74.7108C159.647 80.4069 149.356 64.091 149.356 64.091Z" fill="#F4ADA2"/>
<path d="M124.614 50.6868C124.614 50.6868 136.866 47.2996 147.989 62.5799C148.414 62.2403 149.339 61.0518 152.999 63.8532C156.607 66.6206 164.13 71.7735 163.094 74.8974C162.338 77.181 156.48 86.434 142.98 81.2557C138.369 79.49 133.64 76.7565 130.329 74.04C122.211 67.3762 124.614 50.6868 124.614 50.6868Z" fill="#66B0F0"/>
<path d="M138.114 29.8293C137.41 29.1841 136.433 28.9125 135.491 29.1077C135.414 25.9583 131.432 25.381 130.286 27.4354C128.206 24.6595 124.105 26.7053 124.504 29.4388C124.648 30.4405 124.784 32.4948 123.952 33.887C125.081 34.8463 126.601 38.7003 126.601 38.7003C126.601 38.7003 133.852 34.7105 136.255 34.668C139.269 34.6171 139.6 31.247 138.114 29.8293Z" fill="#5B2448"/>
<path d="M133.589 29.9991C133.58 30.0076 133.572 30.0161 133.572 30.0246C133.538 30.1095 133.572 30.2113 133.657 30.2538C133.733 30.2877 133.827 30.2623 133.878 30.1859C134.319 29.5237 134.964 29.2266 135.491 29.0993C135.491 28.9804 135.482 28.8616 135.465 28.7512C134.862 28.887 134.107 29.2181 133.589 29.9991Z" fill="#9B3C82"/>
<path d="M136.034 44.0739C135.89 44.8973 135.245 45.6274 134.277 45.882C131.746 46.5527 129.029 45.1265 129.029 45.1265C129.029 45.1265 127.79 48.259 127.144 50.7887C127.144 50.7887 123.536 62.6139 117.202 46.0773C117.202 46.0773 120.776 42.2487 123.111 39.702C121.609 39.0908 119.622 36.8412 120.547 34.8293C121.074 33.6833 122.61 33.0297 123.765 33.7088C124.886 34.3709 125.158 35.2113 125.862 36.5271C126.516 37.7496 126.924 37.2657 127.832 36.23C128.571 35.4066 129.454 34.736 130.439 34.2436C132.112 33.4456 134.642 34.0653 136.272 34.6765C135.941 35.9414 135.703 37.2317 135.542 38.5306C135.245 40.8056 136.374 42.1554 136.034 44.0739Z" fill="#F4ADA2"/>
<path d="M130.261 35.5254L130.286 35.398C130.295 35.3556 130.312 35.3216 130.32 35.2792C130.345 35.2028 130.379 35.1264 130.413 35.0585C130.481 34.9142 130.575 34.7868 130.677 34.6595C130.889 34.4048 131.169 34.2011 131.475 34.0738C131.636 34.0058 131.806 33.9549 131.984 33.9294C132.162 33.904 132.341 33.9125 132.519 33.9379C132.689 33.9634 132.859 34.0228 133.012 34.1077C133.164 34.1926 133.292 34.303 133.402 34.4388C133.538 34.6171 133.504 34.8632 133.326 34.9991C133.292 35.0245 133.258 35.0415 133.215 35.0585L133.147 35.0839C133.012 35.1349 132.893 35.1519 132.791 35.1858C132.689 35.2113 132.596 35.2452 132.511 35.2707C132.341 35.3301 132.196 35.3726 132.027 35.4235C131.865 35.4744 131.687 35.5508 131.492 35.6357L131.186 35.7716C131.135 35.797 131.076 35.8225 131.016 35.8395C130.889 35.8989 130.745 35.9244 130.6 35.9074C130.524 35.8989 130.456 35.8734 130.388 35.831C130.303 35.7716 130.252 35.6782 130.252 35.5763C130.252 35.5763 130.261 35.5508 130.261 35.5254Z" fill="#5B2448"/>
<path d="M130.278 36.5865C130.66 36.6119 131.577 36.6883 132.502 36.5016C132.629 36.4761 132.757 36.561 132.782 36.6883C132.85 37.0194 132.859 37.5797 132.213 37.6306C131.424 37.6901 130.32 37.1383 130.159 36.7563C130.133 36.6968 130.167 36.6204 130.227 36.595C130.235 36.595 130.261 36.5865 130.278 36.5865Z" fill="#5B2448"/>
<path d="M135.491 36.4931C135.117 36.5695 134.829 36.5695 134.132 36.5441C133.996 36.5356 133.886 36.6374 133.878 36.7733C133.861 37.1128 134.056 37.4439 134.599 37.4524C135.211 37.4694 135.55 36.994 135.627 36.6459C135.644 36.578 135.601 36.5101 135.533 36.5016C135.525 36.4846 135.508 36.4846 135.491 36.4931Z" fill="#5B2448"/>
<path d="M124.342 40.05C124.342 39.9566 124.266 39.8802 124.173 39.8802C123.748 39.8802 123.349 39.7868 123.026 39.668C123.052 39.6765 123.086 39.6934 123.111 39.7019C123.026 39.7953 122.942 39.8802 122.865 39.9736C123.29 40.1349 123.723 40.2198 124.173 40.2198C124.266 40.2198 124.342 40.1434 124.342 40.05Z" fill="#9B3C82"/>
<path d="M134.913 34.4643C134.769 34.5153 134.633 34.5917 134.514 34.6935C134.37 34.8294 134.361 35.0586 134.497 35.2029C134.523 35.2284 134.557 35.2538 134.582 35.2708L134.642 35.3048C134.761 35.3727 134.854 35.4066 134.947 35.4576C135.032 35.5 135.117 35.5424 135.185 35.5764C135.329 35.6528 135.448 35.7122 135.593 35.7886C135.703 35.8565 135.83 35.9329 135.958 36.0093C136.051 35.5594 136.153 35.118 136.272 34.6766C136.009 34.5832 135.728 34.4813 135.431 34.3879C135.414 34.3879 135.397 34.3879 135.38 34.3879C135.219 34.3879 135.066 34.4134 134.913 34.4643Z" fill="#5B2448"/>
<path d="M126.584 42.8174C126.143 42.9447 125.387 45.5424 128.189 47.2317C128.206 47.2402 128.223 47.2487 128.24 47.2656C128.673 46.0347 129.029 45.1264 129.029 45.1264C129.029 45.1264 127.297 44.0653 126.584 42.8174Z" fill="#5B2448"/>
<path opacity="0.52" d="M128.8 40.7546C129.682 40.7546 130.396 40.0401 130.396 39.1587C130.396 38.2773 129.682 37.5627 128.8 37.5627C127.919 37.5627 127.204 38.2773 127.204 39.1587C127.204 40.0401 127.919 40.7546 128.8 40.7546Z" fill="#E57281"/>
<path d="M133.606 41.4508C133.487 41.5357 133.343 41.5952 133.198 41.6206C133.054 41.6461 132.91 41.6546 132.765 41.6376C132.477 41.6036 132.196 41.4933 131.967 41.3065C131.857 41.2132 131.755 41.1028 131.678 40.9839C131.602 40.8651 131.534 40.7293 131.5 40.585C131.415 40.3048 131.441 39.9992 131.56 39.7361C131.594 39.6597 131.687 39.6257 131.763 39.6681C131.823 39.6936 131.857 39.7615 131.848 39.8294V39.8379C131.789 40.2539 131.95 40.6783 132.281 40.95C132.443 41.0773 132.638 41.1707 132.842 41.2132C133.045 41.2641 133.258 41.2556 133.462 41.1962H133.47C133.546 41.1707 133.64 41.2132 133.665 41.2896C133.682 41.3405 133.657 41.4169 133.606 41.4508Z" fill="#9B3C82"/>
<path d="M124.317 38.0042C124.258 37.9788 124.224 37.9193 124.215 37.8599C124.113 35.6613 122.398 35.3217 122.322 35.3132C122.228 35.2962 122.169 35.2113 122.186 35.118C122.203 35.0246 122.288 34.9652 122.381 34.9821C122.398 34.9821 124.436 35.3726 124.555 37.8514C124.563 37.9448 124.487 38.0297 124.393 38.0297C124.368 38.0212 124.343 38.0127 124.317 38.0042Z" fill="#9B3C82"/>
<path d="M133.996 39.4388C133.928 39.4133 133.886 39.3369 133.911 39.269C133.92 39.2351 133.945 39.2096 133.979 39.1926C134.548 38.904 134.455 38.9804 134.514 38.7427C134.548 38.5899 134.421 38.3947 134.209 38.0975C133.614 37.2741 133.852 36.7733 133.861 36.7563C133.894 36.6884 133.979 36.6629 134.047 36.6969C134.115 36.7308 134.141 36.8072 134.107 36.8751C134.098 36.8836 133.945 37.2741 134.429 37.9363C134.65 38.2504 134.845 38.522 134.778 38.8021C134.727 39.0229 134.514 39.2181 134.098 39.4303C134.064 39.4473 134.03 39.4473 133.996 39.4388Z" fill="#5B2448"/>
<path d="M64.3559 61.1367C62.9974 62.5798 66.9031 66.0603 85.1326 70.4746C85.1326 70.4746 71.8277 57.4864 64.3559 61.1367Z" fill="#5B2448"/>
<path d="M58.0728 84.6599C56.6124 86.6973 53.4114 90.2882 51.518 91.986C48.4613 94.7279 46.0245 97.2237 46.3217 99.2865C46.4321 100.059 47.1793 100.373 47.5274 100.229C47.4849 101.315 48.5123 101.621 48.9623 101.528C48.9623 102.631 50.1934 103.319 50.7453 102.767C50.9067 104.057 52.7322 104.703 52.8001 103.769C53.0039 100.942 53.9208 100.28 54.5831 100.798C55.118 101.214 55.3982 102.682 55.3048 103.871C55.6954 103.811 57.1558 103.582 59.1681 99.5242C61.5115 94.7958 63.6936 92.7839 65.604 90.789C78.4504 77.3849 85.5061 68.9807 85.5061 68.9807C85.192 68.1573 73.305 57.911 72.8126 57.4526C65.5361 65.3984 61.8257 79.3883 58.0728 84.6599Z" fill="#F4ADA2"/>
<path d="M67.6672 64.8719L70.1295 60.2878C70.1295 60.2878 81.974 69.7786 82.9929 71.9008C82.9929 71.9008 77.2617 69.0315 67.6672 64.8719Z" fill="#9B3C82"/>
<path d="M118.442 44.7869C117.805 45.2283 116.913 46.0008 116.217 46.2724C114.281 46.196 112.583 46.0263 112.583 46.0263C112.583 46.0263 106.393 43.9804 95.3469 54.6341C90.5072 59.3031 90.2525 62.2403 87.9685 83.9637C90.4308 86.2557 106.223 91.9434 118.28 91.0096L118.951 89.9485C123.281 87.996 128.8 82.2234 130.328 73.9891C146.885 85.5002 139.014 52.2742 127.28 50.2623L125.243 53.7428C125.243 53.7428 119.97 48.8616 118.442 44.7869Z" fill="#66B0F0"/>
<path d="M118.696 93.0895C106.436 95.2712 89.2591 89.5157 87.3402 87.8858L88.0449 82.8857C99.2356 89.3374 119.189 89.8552 119.189 89.8552L118.696 93.0895Z" fill="#5B2448"/>
<path d="M85.1581 70.8143C95.0922 68.3525 114.247 58.8023 114.791 49.422C115.275 41.1452 83.6298 40.7632 71.6579 54.8549C71.6579 54.8549 69.2721 54.422 68.0919 55.7887C66.7588 57.3337 65.8843 58.5901 64.356 61.1368C67.7522 59.5239 78.7476 68.0808 82.993 71.9009C82.993 71.9009 84.5638 71.7481 85.1581 70.8143Z" fill="#66B0F0"/>
<path d="M156.701 81.4766C154.756 72.6055 151.428 67.1131 148.329 62.3083C148.329 62.3083 148.32 62.3084 148.32 62.3168C148.21 62.3932 148.125 62.4696 148.049 62.5291C148.049 62.5291 148.04 62.5291 148.04 62.5376C149.229 66.1878 150.536 70.7719 151.122 74.7533C151.139 74.8381 151.207 74.8976 151.292 74.8976C151.3 74.8976 151.309 74.8976 151.309 74.9061C151.402 74.8891 151.47 74.8042 151.453 74.7108C150.918 71.1115 149.806 67.0282 148.719 63.5817C151.606 68.1233 154.586 73.429 156.369 81.6294C156.488 81.5784 156.59 81.5275 156.701 81.4766Z" fill="#B0DCF7"/>
<path d="M121.829 68.6157C122.158 68.6157 122.424 68.3497 122.424 68.0215C122.424 67.6933 122.158 67.4272 121.829 67.4272C121.501 67.4272 121.235 67.6933 121.235 68.0215C121.235 68.3497 121.501 68.6157 121.829 68.6157Z" fill="#B0DCF7"/>
<path d="M115.037 84.9145C115.365 84.9145 115.631 84.6485 115.631 84.3203C115.631 83.9921 115.365 83.7261 115.037 83.7261C114.708 83.7261 114.442 83.9921 114.442 84.3203C114.442 84.6485 114.708 84.9145 115.037 84.9145Z" fill="#B0DCF7"/>
<path d="M119.197 77.1894C119.525 77.1894 119.791 76.9234 119.791 76.5952C119.791 76.267 119.525 76.001 119.197 76.001C118.869 76.001 118.603 76.267 118.603 76.5952C118.603 76.9234 118.869 77.1894 119.197 77.1894Z" fill="#B0DCF7"/>
<path d="M114.145 47.911C113.95 47.2404 113.644 46.6291 113.22 46.0943C113.016 46.0689 112.846 46.0519 112.727 46.0349C113.245 46.5952 113.619 47.2573 113.831 47.9959C114.68 50.967 112.948 54.8974 109.076 58.7939C106.614 61.2642 103.184 63.6666 99.1423 65.7294C95.9837 67.3424 92.6554 68.6242 89.5818 69.4561C89.5648 69.575 89.5563 69.7023 89.5393 69.8211C95.729 68.1573 104.092 64.2693 109.314 59.0316C113.271 55.0587 115.037 51.001 114.145 47.911Z" fill="#B0DCF7"/>
<path d="M125.506 59.5238C125.506 59.4304 125.429 59.354 125.336 59.354C125.243 59.354 125.166 59.4304 125.166 59.5238C125.209 61.5442 124.894 66.4678 123.442 72.0621C121.558 79.3287 118.467 85.3559 114.247 89.9739C114.179 90.0418 114.188 90.1522 114.256 90.2116C114.281 90.2371 114.324 90.254 114.366 90.254C114.408 90.254 114.459 90.2371 114.502 90.2116C118.756 85.5596 121.88 79.4815 123.774 72.1554C125.234 66.5187 125.548 61.5611 125.506 59.5238Z" fill="#B0DCF7"/>
<path d="M121.524 59.0741C121.591 59.0825 121.659 59.091 121.727 59.091C122.797 59.091 123.926 57.4187 125.098 54.108C125.141 53.9806 125.183 53.8533 125.226 53.726C125.2 53.709 125.107 53.6156 124.954 53.4713C124.894 53.6496 124.835 53.8194 124.776 53.9976C123.638 57.2404 122.508 58.9213 121.591 58.743C119.978 58.4204 117.779 51.018 116.54 46.1113C116.438 46.1708 116.336 46.2217 116.234 46.2726C116.574 47.6309 117.024 49.3372 117.541 51.035C119.104 56.2218 120.403 58.8533 121.524 59.0741Z" fill="#B0DCF7"/>
<path d="M127.807 58.5987C127.705 58.6496 127.611 58.6411 127.501 58.5902C126.626 58.1657 125.676 55.1351 125.387 54.0061C125.37 53.9212 125.276 53.8618 125.183 53.8873C125.098 53.9042 125.039 53.9976 125.064 54.091C125.064 54.0995 125.336 55.1436 125.743 56.2472C126.295 57.7498 126.839 58.6411 127.357 58.8873C127.459 58.9382 127.569 58.9637 127.671 58.9637C127.764 58.9637 127.858 58.9467 127.951 58.9128C128.698 58.5647 128.613 56.3321 128.409 54.5155C128.257 53.1827 128.002 51.7141 127.688 50.3304C127.569 50.3049 127.442 50.2879 127.323 50.2625C127.654 51.6801 127.917 53.1827 128.07 54.5494C128.376 57.3083 128.121 58.4544 127.807 58.5987Z" fill="#B0DCF7"/>
<path d="M130.345 59.0909C129.675 55.551 128.732 52.5459 127.832 50.3557C127.696 50.3302 127.56 50.3048 127.433 50.2793C128.35 52.4695 129.335 55.551 130.014 59.1503C130.753 63.0723 131.211 68.4288 130.32 74.0401C130.422 74.108 130.515 74.2014 130.626 74.2862C131.551 68.5731 131.101 63.0722 130.345 59.0909Z" fill="#B0DCF7"/>
<path d="M124.19 56.1112C123.612 57.3931 123.035 57.8684 123.493 58.7683C123.493 58.7683 123.825 59.1163 125.166 59.3285C125.752 59.4219 125.837 59.1673 125.837 59.1673C125.837 59.1673 126.346 58.6579 126.346 57.3846C126.227 56.5187 126.007 55.517 125.268 53.6833C125.268 53.6833 124.733 54.9058 124.19 56.1112Z" fill="#F94F46"/>
<path d="M127.272 58.9297C126.278 59.3371 124.326 59.2522 123.383 58.5307C123.375 58.5307 123.375 58.5307 123.375 58.5307C123.29 58.4628 123.179 58.4797 123.111 58.5646C123.043 58.6495 123.06 58.7684 123.145 58.8278C123.23 58.8872 123.315 58.9466 123.4 58.9976C124.512 59.6512 126.389 59.7022 127.416 59.2777C127.51 59.2353 127.56 59.1249 127.518 59.0315C127.476 58.9381 127.365 58.8872 127.272 58.9297Z" fill="#66B0F0"/>
<path d="M108.694 88.9128L107.777 93.3271C109.84 93.5224 111.921 93.6158 113.95 93.5563L114.969 89.6005C113.245 89.4646 111.089 89.2439 108.694 88.9128Z" fill="#FFCF2D"/>
<path d="M125.667 59.5154C125.073 62.9959 117.253 74.4137 98.2422 73.5308C97.8347 73.5138 97.4356 73.4459 97.0875 73.2337L92.545 70.4663C92.1968 70.254 91.9846 69.872 92.0016 69.4561L92.6553 64.5579C92.7318 63.9552 93.3176 63.5477 93.912 63.6835C96.2639 64.2183 96.629 65.0248 105.196 64.855C115.334 64.6513 123.281 58.9297 123.281 58.9297C124.393 59.5154 125.667 59.5154 125.667 59.5154Z" fill="#F94F46"/>
<path d="M53.0039 88.378L54.9737 86.3576L55.7379 85.5767L56.7143 84.575C57.3681 85.2116 58.0643 85.8398 58.7945 86.4425C59.0493 86.6548 59.3125 86.867 59.5757 87.0707C61.6729 88.7261 63.2521 90.0673 65.3748 91.0945C64.2965 92.1556 62.8786 93.794 61.8851 95.0844C60.0427 94.0657 58.4974 92.9366 56.8247 91.6633C56.604 91.4935 56.3747 91.3237 56.1539 91.1454C55.4747 90.6106 54.8209 90.0504 54.1841 89.4816C54.0398 89.3543 53.9039 89.2269 53.7681 89.0996C53.6917 89.0232 53.6152 88.9553 53.5388 88.8789C53.3605 88.7261 53.1822 88.5563 53.0039 88.378Z" fill="#5B2448"/>
<path d="M58.8209 89.5353C60.0584 87.321 59.8071 84.8252 58.2597 83.9607C56.7123 83.0962 54.4546 84.1905 53.2171 86.4048C51.9796 88.619 52.2309 91.1149 53.7783 91.9793C55.3257 92.8438 57.5834 91.7496 58.8209 89.5353Z" fill="#5B2448"/>
<path d="M59.1427 89.7108C59.5757 88.9383 59.8389 88.1318 59.9408 87.3678C59.822 87.2745 59.7116 87.1896 59.5927 87.0962C59.5163 87.8857 59.2616 88.7261 58.8116 89.5325C58.3106 90.4324 57.6229 91.1794 56.8502 91.6803C56.9521 91.7567 57.0625 91.8416 57.1644 91.918C57.9455 91.3916 58.6248 90.6276 59.1427 89.7108Z" fill="white"/>
<path d="M57.9791 89.0677C59.18 86.919 59.0783 84.5763 57.7519 83.8354C56.4255 83.0944 54.3768 84.2356 53.1759 86.3844C51.975 88.5332 52.0767 90.8758 53.4031 91.6168C54.7294 92.3578 56.7782 91.2165 57.9791 89.0677Z" fill="white"/>
<path d="M54.303 91.969C53.9549 91.969 53.6323 91.8841 53.3351 91.7228C52.6558 91.3408 52.2568 90.5598 52.2143 89.5326C52.1719 88.5225 52.469 87.3849 53.0634 86.3238C53.6577 85.2627 54.4728 84.4053 55.3559 83.9129C56.2559 83.4121 57.1304 83.3441 57.8097 83.7177C58.4889 84.0997 58.888 84.8807 58.9304 85.9078C58.9729 86.918 58.6757 88.0556 58.0814 89.1167C57.487 90.1778 56.6719 91.0352 55.7889 91.5276C55.2795 91.8247 54.77 91.969 54.303 91.969ZM56.8502 83.7346C56.4257 83.7346 55.9587 83.8705 55.4832 84.1336C54.6426 84.6005 53.8615 85.424 53.2926 86.4426C52.7238 87.4613 52.4351 88.5564 52.4775 89.5157C52.52 90.458 52.8681 91.1625 53.4709 91.4936C54.0738 91.8332 54.8549 91.7653 55.6785 91.2984C56.5191 90.8315 57.3002 90.008 57.8691 88.9894C58.438 87.9707 58.7267 86.8756 58.6842 85.9163C58.6418 84.974 58.2936 84.2695 57.6908 83.9384C57.4361 83.811 57.1474 83.7346 56.8502 83.7346Z" fill="#5B2448"/>
<path d="M55.1945 87.4187C55.2539 87.3677 55.3473 87.3592 55.4152 87.4017L56.8756 88.2845C56.9605 88.344 56.9945 88.4543 56.9351 88.5477C56.8841 88.6326 56.7652 88.6581 56.6803 88.6071L55.3813 87.8261L54.1416 89.9654C54.0907 90.0588 53.9718 90.0842 53.8869 90.0333C53.802 89.9824 53.768 89.8635 53.819 89.7786L55.152 87.4781C55.1605 87.4526 55.1775 87.4356 55.1945 87.4187Z" fill="#5B2448"/>
<path d="M51.0766 100.415C50.9917 100.373 50.8898 100.407 50.8473 100.492C50.8134 100.551 50.3804 101.426 50.3973 102.945C50.5417 102.92 50.6521 102.86 50.7455 102.767C50.7624 101.409 51.136 100.662 51.153 100.645C51.1955 100.56 51.1615 100.458 51.0766 100.415Z" fill="#9B3C82"/>
<path d="M49.5737 99.0317C49.4888 98.9892 49.3869 99.0147 49.336 99.0911C49.3275 99.1081 48.7501 100.067 48.6143 101.527C48.7416 101.553 48.869 101.544 48.9624 101.527C49.0982 100.169 49.6162 99.2779 49.6331 99.2609C49.6756 99.1845 49.6501 99.0826 49.5737 99.0317Z" fill="#9B3C82"/>
<path d="M48.1048 97.9791C48.0284 97.9281 47.9265 97.9621 47.8756 98.0385C47.8331 98.0979 47.3407 98.9638 47.1624 100.246C47.2897 100.28 47.4341 100.271 47.5275 100.229C47.7058 99.0232 48.1558 98.2167 48.1643 98.1998C48.2152 98.1319 48.1812 98.03 48.1048 97.9791Z" fill="#9B3C82"/>
<path d="M150.188 35.084C150.282 35.084 150.358 35.0076 150.375 34.9312C150.375 34.8378 150.307 34.7614 150.214 34.7529C148.235 34.6256 145.162 34.4473 144.202 33.6578C144.041 33.6409 143.888 33.6409 143.735 33.6409C144.448 34.6256 147.191 34.8888 150.188 35.084Z" fill="#9B3C82"/>
<path d="M148.023 36.1876C148.116 36.1876 148.193 36.1112 148.193 36.0178C148.193 35.9244 148.116 35.848 148.023 35.848C147.437 35.865 146.011 35.6952 144.644 35.3896C143.514 35.135 142.725 34.8803 142.3 34.6086C142.13 34.6256 141.986 34.6426 141.842 34.6681C142.835 35.5934 146.817 36.1876 147.972 36.1876H148.023Z" fill="#9B3C82"/>
<path d="M152.769 40.4746C152.727 40.3897 152.625 40.3557 152.54 40.3982C151.691 40.8311 151.156 41.0518 150.621 41.1622C150.672 41.1876 150.791 41.298 150.918 41.4338C151.411 41.298 151.98 41.0603 152.693 40.7038C152.778 40.6613 152.812 40.5594 152.769 40.4746Z" fill="#9B3C82"/>
<path d="M150.969 37.3251C150.969 37.2402 150.893 37.1638 150.8 37.1638C150.791 37.1638 150.791 37.1638 150.791 37.1638C149.084 37.2232 147.624 37.5034 146.571 37.7665C146.622 37.8684 146.631 37.9788 146.597 38.1061C146.58 38.1146 146.614 38.0976 146.597 38.1061C147.633 37.8345 149.059 37.5628 150.808 37.5034C150.901 37.4949 150.969 37.4185 150.969 37.3251Z" fill="#9B3C82"/>
<path d="M157.677 39.6935C157.609 39.7529 157.601 39.8633 157.66 39.9312C157.694 39.9737 157.736 39.9906 157.787 39.9906C157.821 39.9906 157.864 39.9737 157.898 39.9397C158.619 39.337 158.993 38.6494 159.027 37.9448C158.891 37.7241 158.755 37.5118 158.611 37.3081C158.662 37.4864 158.687 37.6731 158.687 37.8514C158.687 38.5051 158.348 39.1248 157.677 39.6935Z" fill="#9B3C82"/>
<path d="M154.102 37.4015C153.177 36.9516 152.676 35.7462 152.667 35.7377C152.633 35.6528 152.532 35.6103 152.447 35.6443C152.362 35.6782 152.319 35.7801 152.353 35.865C152.37 35.9159 152.905 37.1978 153.95 37.6986C153.975 37.7071 154 37.7156 154.026 37.7156C154.085 37.7156 154.145 37.6817 154.179 37.6307C154.221 37.5458 154.187 37.444 154.102 37.4015Z" fill="#9B3C82"/>
<path d="M77.7373 58.7769C75.6825 56.9008 73.6448 55.4917 71.9127 54.5579C71.8363 54.6428 71.7344 54.7701 71.658 54.855C73.7042 55.9585 75.9033 57.5545 77.508 59.0231C81.3288 62.5291 83.9949 66.6972 85.1581 70.8143C85.2685 70.7889 85.3789 70.7549 85.4893 70.7294C83.9949 65.4153 80.4967 61.3066 77.7373 58.7769Z" fill="#B0DCF7"/>
<path d="M79.7071 55.9925C79.6307 56.0434 79.6137 56.1538 79.6646 56.2302C79.7156 56.2981 84.5383 63.3525 85.2854 70.7804C85.3958 70.7549 85.5147 70.7209 85.6251 70.6955C84.8524 63.1997 79.9958 56.1113 79.9448 56.0349C79.8939 55.9585 79.7835 55.9416 79.7071 55.9925Z" fill="#B0DCF7"/>
</g>
<defs>
<clipPath id="clip0_108_7092">
<rect width="53.8889" height="54.0741" fill="white" transform="translate(16.8518 80.926)"/>
</clipPath>
<clipPath id="clip1_108_7092">
<rect width="154.444" height="35.9259" fill="white" transform="translate(25.3704 143.704)"/>
</clipPath>
<clipPath id="clip2_108_7092">
<rect width="18.5185" height="4.81481" fill="white" transform="translate(54.0741 167.407)"/>
</clipPath>
<clipPath id="clip3_108_7092">
<rect width="117.222" height="143.889" fill="white" transform="translate(46.2963 26.1111)"/>
</clipPath>
</defs>
</svg>
