<svg width="170" height="170" viewBox="0 0 170 170" fill="none" xmlns="http://www.w3.org/2000/svg">
<g clip-path="url(#clip0_418_3598)">
<path d="M127.59 160.595L85.787 157.606L43.9836 160.595C43.2748 160.646 42.7654 159.922 43.0534 159.263L46.9221 146.098C47.3503 145.136 48.3028 144.522 49.3512 144.53L85.9272 144.796L122.23 144.53C123.279 144.522 124.231 145.136 124.659 146.098L128.521 159.271C128.808 159.922 128.299 160.646 127.59 160.595Z" fill="#219DA7"/>
<path d="M85.7869 160.706C87.5321 160.706 88.9469 159.288 88.9469 157.54C88.9469 155.792 87.5321 154.374 85.7869 154.374C84.0417 154.374 82.627 155.792 82.627 157.54C82.627 159.288 84.0417 160.706 85.7869 160.706Z" fill="#219DA7"/>
<path d="M85.787 156.504C91.9002 152.333 124.903 158.982 124.903 158.982L121.248 149.234H85.9273C85.9273 149.234 85.787 156.482 85.787 156.504Z" fill="white"/>
<path d="M124.903 159.278C124.881 159.278 124.866 159.278 124.844 159.271C124.763 159.256 116.501 157.599 107.597 156.467C95.8724 154.981 88.3933 155.077 85.9495 156.741C85.8609 156.8 85.7427 156.808 85.6467 156.756C85.5508 156.704 85.4917 156.601 85.4917 156.497C85.4917 156.475 85.5803 151.926 85.632 149.219C85.632 149.056 85.7649 148.93 85.9273 148.93H121.248C121.374 148.93 121.484 149.004 121.521 149.123L125.176 158.879C125.213 158.982 125.191 159.093 125.124 159.174C125.073 159.241 124.991 159.278 124.903 159.278ZM93.9675 154.833C97.541 154.833 102.111 155.188 107.678 155.89C115.32 156.859 122.489 158.213 124.445 158.598L121.049 149.53H86.2152C86.1931 150.632 86.1193 154.552 86.0897 155.987C87.6033 155.217 90.2317 154.833 93.9675 154.833Z" fill="#66ADED"/>
<path d="M85.787 156.504C87.8247 153.598 93.1701 149.936 125.73 156.867L121.78 144.796H85.9273L85.787 156.504Z" fill="white"/>
<path d="M125.73 157.17C125.708 157.17 125.685 157.17 125.671 157.163C111.392 154.123 100.849 152.821 94.3367 153.294C88.8289 153.694 87.0495 155.232 86.0307 156.675C85.9568 156.778 85.8239 156.822 85.6984 156.785C85.5729 156.748 85.4917 156.63 85.4917 156.497L85.632 144.796C85.632 144.633 85.7649 144.5 85.9273 144.5H121.772C121.898 144.5 122.016 144.581 122.053 144.707L126.003 156.785C126.033 156.889 126.01 157 125.944 157.074C125.892 157.133 125.811 157.17 125.73 157.17ZM97.1571 152.606C103.684 152.606 113.127 153.901 125.294 156.475L121.566 145.092H86.2226L86.0897 155.646C87.2563 154.359 89.3826 153.058 94.285 152.703C95.171 152.636 96.1308 152.606 97.1571 152.606Z" fill="#66ADED"/>
<path d="M85.75 156.504C79.6368 152.333 46.6342 158.982 46.6342 158.982L50.2888 149.234H85.6097C85.6097 149.234 85.75 156.482 85.75 156.504Z" fill="white"/>
<path d="M46.6342 159.278C46.5456 159.278 46.4644 159.241 46.4127 159.174C46.3463 159.093 46.3241 158.982 46.361 158.879L50.0157 149.13C50.06 149.012 50.1707 148.938 50.2889 148.938H85.6098C85.7722 148.938 85.9051 149.063 85.9051 149.226C85.9568 151.933 86.0454 156.482 86.0454 156.504C86.0454 156.615 85.9863 156.711 85.8904 156.763C85.7944 156.815 85.6763 156.808 85.5877 156.748C83.1512 155.084 75.6647 154.988 63.9403 156.475C55.0362 157.599 46.7745 159.263 46.6933 159.278C46.6711 159.278 46.6564 159.278 46.6342 159.278ZM50.4956 149.529L47.0994 158.597C49.0559 158.22 56.2249 156.859 63.8665 155.89C75.2439 154.448 82.4941 154.485 85.4474 155.987C85.4178 154.559 85.344 150.632 85.3219 149.529H50.4956Z" fill="#66ADED"/>
<path d="M85.7501 156.504C81.7779 150.358 73.0584 150.217 46.1395 156.201L49.9714 144.796H86.1044L85.7501 156.504Z" fill="white"/>
<path d="M85.7501 156.8C85.6541 156.8 85.5581 156.748 85.499 156.667C81.5934 150.624 72.7779 150.587 46.1986 156.497C46.0952 156.519 45.9845 156.482 45.918 156.408C45.8516 156.334 45.8221 156.216 45.859 156.12L49.6982 144.7C49.7351 144.581 49.8459 144.5 49.9714 144.5H86.1045C86.1857 144.5 86.2595 144.53 86.3186 144.589C86.3776 144.648 86.4072 144.722 86.3998 144.803L86.0454 156.512C86.038 156.645 85.9568 156.756 85.8313 156.785C85.8091 156.8 85.7796 156.8 85.7501 156.8ZM50.1855 145.092L46.5899 155.802C60.4185 152.74 68.7984 151.46 74.5572 151.512C79.9765 151.564 83.3062 152.799 85.4843 155.617L85.8017 145.092H50.1855Z" fill="#66ADED"/>
</g>
<g clip-path="url(#clip1_418_3598)">
<path d="M46.2315 123.317C37.6245 119.161 21.227 109.832 17.3723 114.393C14.2826 118.896 24.7949 125.425 46.2315 123.317Z" fill="#5B2448"/>
<path d="M142.725 126.11C137.296 124.503 123.253 116.641 120.877 126.036C119.406 122.669 125.659 128.011 122.679 131.224C123.032 134.51 123.135 144.635 122.929 144.643H49.2403L52.6022 137.347L56.6335 129.64L56.6629 129.5C56.6629 129.5 56.6261 129.477 56.5452 129.426C56.2804 129.264 55.5742 128.844 54.5295 128.24C54.0955 127.989 53.61 127.709 53.073 127.399C52.3079 126.965 51.4399 126.471 50.4909 125.948C50.3879 125.889 50.2775 125.83 50.1746 125.771C49.4021 125.344 48.5782 124.894 47.7175 124.422C47.5042 124.305 47.2908 124.187 47.0775 124.076C46.5699 123.803 46.055 123.523 45.5253 123.243C45.2899 123.118 45.0545 122.993 44.8117 122.868C40.7142 120.716 36.0723 118.424 31.7615 116.641H31.7541C25.1407 113.907 19.3071 112.374 17.4091 114.357C17.4018 114.364 17.4018 114.364 17.3944 114.371C17.7622 113.892 27.6051 103.053 39.8535 93.2005C55.3902 80.6513 68.3228 79.9881 74.9951 85.2053C75.0245 85.2274 75.4659 85.2421 75.5615 85.2053C79.2103 85.1905 95.3135 84.3799 95.3135 84.3799C104.347 79.6639 130.117 92.5741 142.725 126.11Z" fill="#F64F46"/>
<path d="M91.8118 43.2026C90.0463 43.0111 88.2881 43.6153 87.0816 44.9196C83.6094 40.233 76.9813 43.6153 77.4447 47.9482C71.3389 45.966 67.337 53.4454 70.8608 57.1519C72.1555 58.5152 74.5463 61.4701 74.7817 64.4692C77.5036 64.705 83.9184 68.92 83.9184 68.92C83.9184 68.92 90.6127 56.2603 94.1953 53.6296C98.6606 50.3431 95.7916 43.6448 91.8118 43.2026Z" fill="#5B2448"/>
<path d="M102.582 68.5076C103.119 69.9224 102.795 71.6541 101.522 72.9584C98.2192 76.348 92.6651 76.6649 92.6651 76.6649C92.6651 76.6649 93.2756 79.8261 95.3134 84.3727C94.9088 85.5149 92.209 89.1404 87.008 89.8773C81.373 90.6805 77.1063 87.2392 75.5614 85.2054C76.6134 83.1716 77.5256 79.3103 78.4378 73.7026C75.5394 74.1447 70.3604 72.4867 69.9338 68.4928C69.691 66.2158 71.4713 63.7767 73.8915 63.7694C76.2456 63.762 77.452 64.8157 79.7619 66.2085C81.91 67.5054 82.0866 66.3706 82.55 63.9094C82.9546 61.7282 83.933 59.6281 84.7569 58.3901C86.6107 55.5899 91.1276 54.2119 94.2173 53.6445C94.8794 55.9215 95.6959 58.1543 96.6596 60.3281C98.3221 64.1525 101.324 65.2063 102.582 68.5076Z" fill="#F1AA9F"/>
<path d="M85.4338 61.2269L85.3234 61.0059C85.294 60.9395 85.2646 60.8732 85.2352 60.7995C85.1837 60.6669 85.1469 60.5269 85.1101 60.3869C85.0513 60.1069 85.0218 59.8195 85.0292 59.5247C85.0439 58.9131 85.1984 58.3162 85.4779 57.7857C85.6251 57.4983 85.809 57.2404 86.0297 57.0046C86.2503 56.7688 86.5078 56.5698 86.7874 56.4077C87.0669 56.2529 87.3612 56.1424 87.6775 56.0908C87.9865 56.0319 88.2954 56.0392 88.597 56.1129C88.9869 56.2087 89.2223 56.5993 89.1267 56.9898C89.112 57.0635 89.0826 57.1372 89.0384 57.1961L88.9649 57.3067C88.8251 57.5351 88.6927 57.6972 88.5823 57.8593C88.4646 58.0141 88.3763 58.1688 88.2807 58.3015C88.1042 58.5741 87.9497 58.8099 87.7805 59.0752C87.6113 59.3405 87.4494 59.6426 87.2729 59.9816L86.9933 60.5269C86.9492 60.6227 86.8904 60.7185 86.8389 60.8216C86.7285 61.0574 86.552 61.2564 86.3386 61.3964C86.2283 61.4701 86.0959 61.5217 85.9634 61.5364C85.7795 61.5512 85.603 61.4701 85.4853 61.3301C85.4779 61.3006 85.4559 61.2638 85.4338 61.2269Z" fill="#5B2448"/>
<path d="M86.9565 62.2513C87.5818 61.9418 89.0899 61.227 90.3625 60.0996C90.5391 59.9449 90.8113 59.9596 90.9731 60.1364V60.1438C91.3777 60.6081 91.9 61.4776 90.9363 62.1334C89.7446 62.944 87.523 63.0766 86.9197 62.6271C86.8241 62.5534 86.8094 62.4134 86.8829 62.3176C86.905 62.2882 86.9271 62.266 86.9565 62.2513Z" fill="#5B2448"/>
<path d="M95.203 58.2868C94.5777 58.5889 94.0775 58.6994 92.8269 58.95C92.5915 58.9942 92.437 59.2226 92.4812 59.4584C92.5989 60.0627 93.077 60.5564 94.0481 60.35C95.1295 60.1216 95.5194 59.1342 95.5194 58.4857C95.5194 58.3604 95.4164 58.2646 95.2987 58.2646C95.2619 58.2646 95.2325 58.272 95.203 58.2868Z" fill="#5B2448"/>
<path d="M80.6374 73.0615C80.5639 72.9436 80.4094 72.8993 80.2917 72.973C79.6296 73.3636 78.9896 73.592 78.4231 73.7099C78.4011 73.8868 78.379 74.0636 78.3569 74.2479C79.1294 74.1005 79.865 73.8131 80.5418 73.4078C80.6668 73.3341 80.7036 73.1794 80.6374 73.0615Z" fill="#983C80"/>
<path d="M92.3194 54.7203C92.1428 54.9487 92.0104 55.2066 91.9221 55.4793C91.8339 55.7446 91.7971 56.0246 91.8265 56.3046C91.8633 56.6657 92.1796 56.9236 92.5401 56.8941C92.6063 56.8867 92.6725 56.872 92.7387 56.8425L92.849 56.791C93.0697 56.6952 93.2316 56.592 93.3934 56.5183C93.5479 56.4372 93.695 56.3709 93.8274 56.3046C94.0923 56.1793 94.3203 56.0688 94.5778 55.9583C94.6808 55.9141 94.7911 55.8698 94.9015 55.8256C94.6587 55.1108 94.4307 54.3813 94.2173 53.6592C94.004 53.696 93.7907 53.7402 93.57 53.7845C93.3493 53.8729 93.1433 53.9834 92.952 54.1234C92.7093 54.2782 92.4959 54.4845 92.3194 54.7203Z" fill="#5B2448"/>
<path d="M86.7285 75.3384C86.1621 75.95 87.398 80.6882 93.3125 80.7177C93.5185 80.7177 93.7024 80.7103 93.8716 80.6956C93.1286 78.4849 92.6652 76.6648 92.6652 76.6648C92.6652 76.6648 89.0017 76.6206 86.7285 75.3384Z" fill="#5B2448"/>
<path opacity="0.52" d="M86.78 70.4603C88.3726 70.4603 89.6637 69.167 89.6637 67.5717C89.6637 65.9764 88.3726 64.6831 86.78 64.6831C85.1873 64.6831 83.8962 65.9764 83.8962 67.5717C83.8962 69.167 85.1873 70.4603 86.78 70.4603Z" fill="#E27280"/>
<path d="M78.7174 69.8855C78.8572 69.8781 78.9602 69.7529 78.9528 69.6129C78.9528 69.5687 78.9381 69.5244 78.9087 69.4876C76.4443 65.7663 72.9647 67.0485 72.9279 67.0632C72.7955 67.1148 72.7293 67.2622 72.7808 67.3948C72.8323 67.5275 72.9794 67.5864 73.1045 67.5422C73.2295 67.4906 76.2457 66.4 78.482 69.775C78.5408 69.8487 78.6218 69.8929 78.7174 69.8855Z" fill="#983C80"/>
<path d="M94.7175 63.6292C94.7764 63.6292 94.8279 63.5998 94.8646 63.5555C95.3869 62.9145 95.5856 62.4502 95.512 62.0523C95.4237 61.5512 94.9088 61.2491 94.3203 60.9027C92.9888 60.129 92.9814 59.3479 92.9814 59.3405C92.9814 59.23 92.8931 59.1342 92.7828 59.1342C92.6724 59.1268 92.5768 59.2153 92.5768 59.3258C92.5768 59.37 92.5547 60.3427 94.1143 61.2565C94.7028 61.5954 95.0633 61.8239 95.1148 62.126C95.1589 62.3913 94.975 62.7744 94.5483 63.2976C94.4748 63.3861 94.4895 63.5113 94.5777 63.585C94.6219 63.6219 94.666 63.6366 94.7175 63.6292Z" fill="#5B2448"/>
<path d="M50.8366 128.298C50.7778 128.298 50.7263 128.284 50.6748 128.247C50.5423 128.158 50.4982 127.974 50.5938 127.842C50.6453 127.761 55.9567 119.699 59.8997 112.706C59.9806 112.566 60.1572 112.514 60.2969 112.595C60.4367 112.676 60.4882 112.853 60.4073 113.001C56.4569 120.016 51.1382 128.092 51.0794 128.173C51.0279 128.254 50.9322 128.298 50.8366 128.298Z" fill="#F9B3AE"/>
<path d="M53.5658 145.475C42.5459 145.586 31.0111 145.335 25.1333 136.353C20.2266 128.859 23.125 119.058 25.3246 114.379C26.8253 114.762 33.0488 117.179 35.5794 118.129C42.3032 120.657 50.3511 122.956 51.1162 123.302C77.9376 125.55 89.7079 130.038 98.5282 134.945C107.863 140.14 113.094 147.782 107.981 146.448C109.033 148.128 107.628 149.042 105.252 148.276C105.671 150.103 102.449 149.816 100.698 148.976C97.4762 151.363 89.1414 146.028 80.1078 145.328C71.0079 144.628 67.5062 145.328 53.5658 145.475Z" fill="#F1AA9F"/>
<path d="M23.662 118.741C30.8051 119.515 44.6057 121.895 50.763 123.162C49.2917 122.249 31.7614 116.073 25.2804 114.342C24.9346 115.108 24.3608 116.707 23.662 118.741Z" fill="#983C80"/>
<path d="M95.8578 84.1147C95.6813 84.2032 95.4974 84.2916 95.3208 84.3874C95.3208 84.3874 95.3135 84.4021 95.3061 84.439C95.8358 87.9539 96.336 93.5027 94.6955 95.6913C94.2836 96.2439 93.7686 96.5239 93.1213 96.5681C90.4215 96.7376 88.8472 93.4216 88.0012 90.6141C87.9129 90.3193 87.832 90.0246 87.7511 89.7372C87.5598 89.7667 87.3685 89.8035 87.1699 89.8256C87.2508 90.1425 87.3391 90.4594 87.4348 90.7762C88.0012 92.6626 88.7001 94.1585 89.5019 95.2196C90.4803 96.5092 91.6279 97.165 92.9153 97.165C92.9962 97.165 93.0771 97.165 93.158 97.1577C93.9746 97.1061 94.6514 96.7303 95.1663 96.045C96.976 93.6132 96.4096 87.696 95.8578 84.1147Z" fill="#F9B3AE"/>
<path d="M87.1625 89.8109C87.0963 89.8182 87.0375 89.8256 86.9713 89.833C86.8535 89.8477 86.7432 89.8625 86.6329 89.8698C86.6108 89.8698 86.5961 89.8772 86.574 89.8772C86.3827 89.8993 86.1915 89.914 86.0076 89.9288C85.3455 92.5595 84.1317 95.2859 82.5574 96.4723C81.7335 97.0913 80.8728 97.2461 79.9974 96.9218C76.4295 95.6175 75.6865 88.8529 75.5615 85.2053C75.3849 85.2422 75.1863 85.2348 74.9877 85.2053C75.0245 86.3696 75.1201 87.8507 75.3555 89.3687C76.047 93.9153 77.5403 96.6418 79.7988 97.4671C80.1666 97.5998 80.5344 97.6735 80.8949 97.6735C81.5864 97.6735 82.2632 97.4303 82.9105 96.9366C84.6025 95.6544 85.8899 92.8174 86.5814 90.0688L86.9639 103.34V103.362C86.9639 103.362 87.0816 104.482 86.7873 105.632C86.4122 107.098 85.5515 107.938 84.242 108.115C84.0802 108.137 83.9698 108.285 83.9919 108.447C84.014 108.594 84.139 108.705 84.2862 108.705H84.3303C85.8825 108.491 86.9345 107.474 87.3685 105.764C87.6701 104.571 87.5745 103.451 87.5598 103.311L87.1625 89.8109Z" fill="#F9B3AE"/>
<path d="M84.9482 99.7958C85.2976 99.7958 85.5809 99.512 85.5809 99.162C85.5809 98.812 85.2976 98.5283 84.9482 98.5283C84.5988 98.5283 84.3156 98.812 84.3156 99.162C84.3156 99.512 84.5988 99.7958 84.9482 99.7958Z" fill="#F9B3AE"/>
<path d="M85.3602 48.4789C85.3676 48.6336 85.5 48.7589 85.6545 48.7589H85.6692C85.831 48.7515 85.9561 48.6115 85.9487 48.4494C85.9487 48.4199 85.8605 46.4377 86.9933 44.905C86.8683 44.7355 86.7432 44.5807 86.6108 44.4333C86.1841 44.9713 85.8605 45.605 85.6471 46.3345C85.3087 47.4841 85.3602 48.442 85.3602 48.4789Z" fill="#983C80"/>
<path d="M108.18 113.399C108.106 113.251 107.937 113.192 107.79 113.259C107.643 113.332 107.584 113.502 107.65 113.649L118.243 135.682C118.295 135.785 118.398 135.852 118.508 135.852C118.552 135.852 118.596 135.844 118.633 135.822C118.78 135.749 118.839 135.579 118.773 135.432L108.18 113.399Z" fill="#F9B3AE"/>
<path d="M97.1599 77.0922C93.9746 77.2838 95.1663 84.7927 99.8303 85.4264C99.8303 85.4264 101.11 89.3614 104.546 94.1806C111.417 103.804 109.548 122.986 116.654 137.222C125.055 154.06 146.463 149.639 146.389 132.69C146.337 120.421 132.559 104.468 126.549 96.5092C118.471 85.8169 115.205 78.9712 110.666 74.3657C107.775 71.4329 104.553 70.7623 103.325 72.8109C102.39 72.4498 100.566 73.3562 100.176 74.8889C99.0358 74.5646 97.2703 75.4563 97.1599 77.0922Z" fill="#F1AA9F"/>
<path d="M85.0733 105.072C85.4227 105.072 85.706 104.788 85.706 104.438C85.706 104.088 85.4227 103.804 85.0733 103.804C84.7239 103.804 84.4407 104.088 84.4407 104.438C84.4407 104.788 84.7239 105.072 85.0733 105.072Z" fill="#F9B3AE"/>
<path d="M99.7861 138.615C99.639 138.541 99.4624 138.6 99.3888 138.748C99.3153 138.895 99.3741 139.072 99.5213 139.146C102.596 140.686 106.311 143.803 107.981 146.448C108.268 146.522 108.518 146.573 108.739 146.588C107.15 143.729 103.163 140.31 99.7861 138.615Z" fill="#983C80"/>
<path d="M97.0422 141.135C96.895 141.069 96.7185 141.135 96.6523 141.282C96.5861 141.43 96.6523 141.607 96.7994 141.673C96.8215 141.688 99.3815 142.845 101.699 144.458C103.199 145.505 104.781 146.883 105.252 148.276C105.48 148.349 105.701 148.416 105.914 148.452C105.097 144.812 97.4173 141.305 97.0422 141.135Z" fill="#983C80"/>
<path d="M97.7631 145.468C96.0491 144.591 94.3056 143.935 94.2909 143.935C94.1364 143.876 93.9672 143.957 93.9157 144.112C93.8569 144.267 93.9378 144.436 94.0923 144.488C96.6817 145.453 100.787 147.45 100.794 148.71C100.794 148.806 100.75 148.895 100.698 148.976C100.868 149.057 101.066 149.145 101.265 149.211C101.346 149.049 101.39 148.887 101.39 148.703C101.368 147.767 100.183 146.713 97.7631 145.468Z" fill="#983C80"/>
<path d="M40.8245 125.02C40.8686 125.137 40.979 125.211 41.0967 125.211C41.1335 125.211 41.1629 125.204 41.1997 125.189C44.7675 123.855 48.3648 123.398 51.278 123.31C51.2265 123.303 51.1676 123.303 51.1161 123.295C50.9469 123.222 50.432 123.045 49.6522 122.802C47.026 122.993 44.0025 123.509 40.9937 124.629C40.8466 124.695 40.7657 124.865 40.8245 125.02Z" fill="#983C80"/>
<path d="M98.7267 81.0567C98.5649 81.0641 98.4399 81.2041 98.4472 81.3662C98.4546 81.4546 98.5208 82.8326 99.1828 85.2791C99.3888 85.338 99.6095 85.3896 99.8376 85.4191C99.1166 82.8252 99.0357 81.3588 99.0357 81.3441C99.0284 81.1746 98.8886 81.0493 98.7267 81.0567Z" fill="#983C80"/>
<path d="M107.356 96.4504C107.481 96.4504 107.591 96.3693 107.635 96.2514C107.687 96.0967 107.606 95.9272 107.451 95.8756C106.436 95.5366 105.348 94.8145 104.531 94.166C104.605 94.2692 105.134 95.0355 105.362 95.4482C105.973 95.8461 106.606 96.2219 107.26 96.443C107.29 96.443 107.326 96.4504 107.356 96.4504Z" fill="#983C80"/>
<path d="M107.429 74.8889C106.157 73.5551 104.656 72.7372 103.192 72.5456C103.001 72.5235 102.817 72.5161 102.648 72.5161C102.405 72.5161 102.177 72.5308 101.956 72.5603C100.875 72.7224 100.154 73.3193 99.8744 74.3804C99.8744 74.3878 99.8744 74.3878 99.867 74.3952V74.4025H99.8597C99.7861 74.4247 99.7052 74.4541 99.6316 74.4836C99.1167 74.6752 98.6606 74.9036 98.2781 75.1836C98.462 75.1173 98.6459 75.0731 98.8445 75.0363C99.0725 74.9921 99.3006 74.9699 99.536 74.9626C98.5429 75.5668 97.7043 75.7953 97.6895 75.7953C97.6748 75.8026 97.6528 75.8026 97.6381 75.81C97.4909 76.0163 97.3659 76.2374 97.2776 76.4879C97.2261 76.6279 97.1893 76.768 97.1599 76.9227C97.1525 76.9669 97.1452 77.0111 97.1378 77.0627V77.0922C97.2408 77.0848 97.4762 77.0848 97.4762 77.0848C98.5576 77.0996 100.132 77.4827 101.537 79.2807C101.596 79.3544 101.684 79.3913 101.765 79.3913C101.831 79.3913 101.89 79.3692 101.949 79.325C102.074 79.2218 102.096 79.0376 102 78.9123C100.595 77.129 99.0284 76.6206 97.9544 76.51C97.925 76.51 97.8955 76.5027 97.8587 76.5027C97.8882 76.4437 97.9176 76.3848 97.9544 76.3332C98.3001 76.23 99.3889 75.8542 100.507 75.0363C101.831 75.2721 103.199 76.0384 104.428 77.269C104.487 77.328 104.56 77.3575 104.634 77.3575C104.708 77.3575 104.781 77.328 104.84 77.269C104.958 77.1511 104.958 76.9669 104.84 76.849C103.67 75.6774 102.368 74.8963 101.081 74.5573C101.53 74.152 101.964 73.6657 102.324 73.0835C103.876 73.0098 105.612 73.8204 107.01 75.2868C107.069 75.3458 107.143 75.3752 107.223 75.3752C107.297 75.3752 107.371 75.3458 107.429 75.2942C107.532 75.191 107.54 75.0068 107.429 74.8889ZM100.323 74.4247C100.176 74.4025 100.022 74.3952 99.8744 74.3878C99.8818 74.3804 99.8891 74.3731 99.8965 74.3583C100.257 73.7983 100.816 73.4077 101.515 73.2235C101.154 73.6951 100.742 74.0931 100.323 74.4247Z" fill="#983C80"/>
<path d="M86.7653 75.3827C92.9961 78.1165 101.405 76.5027 102.765 70.6224L95.3796 69.8855L86.7653 75.3827Z" fill="#F1AA9F"/>
<path d="M95.4385 67.1001C95.4311 67.1001 95.4238 67.1001 95.4164 67.1001C95.3281 67.0927 95.284 67.019 95.2766 66.9379C95.2104 66.1937 95.512 65.5231 95.8799 65.1252C96.7185 64.1967 97.8514 64.182 97.8661 64.182C97.9544 64.1599 98.05 64.2041 98.0721 64.2778C98.1015 64.3515 98.05 64.4399 97.9617 64.462C97.8808 64.4841 95.9093 65.022 95.6077 66.9822C95.593 67.0485 95.5194 67.1001 95.4385 67.1001Z" fill="#983C80"/>
</g>
<g clip-path="url(#clip2_418_3598)">
<path d="M138.056 50.2854C151.501 50.2195 162.359 41.6885 162.308 31.2309C162.257 20.7733 151.316 12.3492 137.87 12.4151C124.425 12.481 113.567 21.012 113.618 31.4696C113.669 41.9272 124.61 50.3513 138.056 50.2854Z" fill="white"/>
<path d="M137.896 50.5797C131.391 50.5797 125.268 48.6214 120.638 45.0582C115.951 41.4508 113.353 36.6213 113.331 31.4679C113.309 26.3145 115.848 21.4702 120.506 17.8113C125.135 14.1745 131.302 12.1499 137.867 12.1204C144.431 12.091 150.621 14.0493 155.287 17.642C159.975 21.2494 162.572 26.0789 162.594 31.2323C162.617 36.3857 160.07 41.2373 155.419 44.8889C150.79 48.5257 144.623 50.5503 138.051 50.5797C138.007 50.5797 137.948 50.5797 137.896 50.5797ZM138.029 12.7094C137.977 12.7094 137.926 12.7094 137.874 12.7094C131.435 12.7389 125.393 14.7192 120.867 18.2751C116.363 21.8162 113.89 26.4985 113.912 31.4679C113.934 36.4299 116.451 41.0901 120.992 44.5944C125.555 48.1061 131.611 50.0276 138.051 49.9981C144.49 49.9687 150.525 47.9883 155.058 44.4324C159.562 40.8913 162.035 36.209 162.013 31.2397C161.991 26.2776 159.474 21.6175 154.933 18.1131C150.407 14.6235 144.409 12.7094 138.029 12.7094Z" fill="#66ADED"/>
<path d="M127.431 38.4396C127.269 38.4396 127.137 38.3071 127.137 38.1451C127.137 37.9831 127.269 37.8506 127.431 37.8506L147.912 37.7476C148.074 37.7476 148.207 37.8801 148.207 38.042C148.207 38.204 148.074 38.3365 147.912 38.3365L127.431 38.4396Z" fill="#FFCC2D"/>
<path d="M128.307 21.4628C128.248 21.4628 128.182 21.4407 128.13 21.4039C127.998 21.3082 127.976 21.1242 128.071 20.9916L129.102 19.6002C129.161 19.5266 129.242 19.4824 129.337 19.4824C129.426 19.4824 129.521 19.5266 129.573 19.6002L130.618 20.9843C130.714 21.1168 130.691 21.3008 130.559 21.3966C130.427 21.4923 130.243 21.4702 130.147 21.3377L129.337 20.2702L128.543 21.345C128.491 21.4186 128.395 21.4628 128.307 21.4628Z" fill="#FFCC2D"/>
<path d="M146.867 39.3746C146.779 39.3746 146.691 39.3377 146.632 39.2568C146.536 39.1242 146.558 38.9402 146.691 38.8445L147.758 38.0347L146.683 37.2396C146.551 37.1439 146.522 36.9598 146.617 36.8273C146.713 36.6948 146.897 36.6653 147.029 36.761L148.428 37.7843C148.501 37.8359 148.545 37.9242 148.545 38.0199C148.545 38.1156 148.501 38.204 148.428 38.2555L147.051 39.3083C146.993 39.3525 146.926 39.3746 146.867 39.3746Z" fill="#FFCC2D"/>
<path d="M129.426 40.8544C129.264 40.8544 129.131 40.7219 129.131 40.5599L129.028 20.0713C129.028 19.9094 129.161 19.7769 129.323 19.7769C129.484 19.7769 129.617 19.9094 129.617 20.0713L129.713 40.5599C129.72 40.7145 129.588 40.847 129.426 40.8544Z" fill="#FFCC2D"/>
<path d="M129.426 38.425C129.352 38.425 129.271 38.3956 129.212 38.3367C129.102 38.2189 129.102 38.0348 129.212 37.917L146.551 20.8592C146.669 20.7488 146.853 20.7488 146.97 20.8592C147.081 20.977 147.081 21.161 146.97 21.2788L129.639 38.344C129.58 38.3956 129.507 38.425 129.426 38.425Z" fill="#FFCC2D"/>
<path d="M120.69 60.2018C123.519 60.2018 125.812 58.4186 125.812 56.2189C125.812 54.0193 123.519 52.2361 120.69 52.2361C117.861 52.2361 115.568 54.0193 115.568 56.2189C115.568 58.4186 117.861 60.2018 120.69 60.2018Z" fill="white"/>
<path d="M120.69 60.489C117.702 60.489 115.273 58.5748 115.273 56.219C115.273 53.8631 117.702 51.9417 120.69 51.9417C123.678 51.9417 126.106 53.8631 126.106 56.219C126.106 58.5748 123.678 60.489 120.69 60.489ZM120.69 52.5306C118.026 52.5306 115.862 54.1871 115.862 56.219C115.862 58.2509 118.026 59.9074 120.69 59.9074C123.354 59.9074 125.518 58.2509 125.518 56.219C125.518 54.1871 123.354 52.5306 120.69 52.5306Z" fill="#66ADED"/>
<path d="M107.421 61.4092C108.774 61.4092 109.872 60.5555 109.872 59.5025C109.872 58.4494 108.774 57.5957 107.421 57.5957C106.068 57.5957 104.97 58.4494 104.97 59.5025C104.97 60.5555 106.068 61.4092 107.421 61.4092Z" fill="white"/>
<path d="M107.421 61.7038C105.912 61.7038 104.676 60.7173 104.676 59.5025C104.676 58.2878 105.912 57.3013 107.428 57.3013C108.944 57.3013 110.181 58.2878 110.181 59.5025C110.181 60.7173 108.937 61.7038 107.421 61.7038ZM107.421 57.8829C106.229 57.8829 105.265 58.6043 105.265 59.4952C105.265 60.386 106.236 61.1074 107.428 61.1074C108.621 61.1074 109.592 60.386 109.592 59.4952C109.592 58.6043 108.613 57.8829 107.421 57.8829Z" fill="#66ADED"/>
<path d="M126.85 25.4161C126.762 25.4161 126.673 25.3793 126.622 25.3057L124.664 22.8173C124.561 22.6922 124.583 22.5008 124.716 22.4051C124.841 22.302 125.032 22.3241 125.128 22.4566L127.085 24.945C127.188 25.0701 127.166 25.2615 127.034 25.3572C126.982 25.4014 126.916 25.4161 126.85 25.4161Z" fill="#FFCC2D"/>
<path d="M124.9 25.4162C124.833 25.4162 124.774 25.3941 124.716 25.3499C124.59 25.2468 124.568 25.0628 124.664 24.9376L126.622 22.4493C126.725 22.3241 126.909 22.302 127.034 22.3977C127.159 22.5008 127.181 22.6848 127.085 22.81L125.128 25.2984C125.069 25.3794 124.981 25.4162 124.9 25.4162Z" fill="#FFCC2D"/>
<path d="M144.844 42.4372C144.755 42.4372 144.667 42.4004 144.608 42.3194L144.601 42.3121L143.622 41.0679C143.519 40.9427 143.541 40.7513 143.673 40.6556C143.806 40.5599 143.983 40.5746 144.086 40.7072L145.072 41.9661C145.167 42.0986 145.145 42.2826 145.02 42.3783C144.969 42.4151 144.902 42.4372 144.844 42.4372Z" fill="#FFCC2D"/>
<path d="M144.829 42.4371C144.763 42.4371 144.704 42.415 144.652 42.3782C144.52 42.2825 144.498 42.0911 144.601 41.9659L144.608 41.9586L145.587 40.7144C145.69 40.5892 145.874 40.5672 145.999 40.6629C146.124 40.7659 146.146 40.95 146.051 41.0751L145.064 42.3267C145.005 42.3929 144.917 42.4371 144.829 42.4371Z" fill="#FFCC2D"/>
<path d="M144.836 43.674C144.674 43.674 144.542 43.5415 144.542 43.3795V42.128C144.542 41.966 144.674 41.8335 144.836 41.8335C144.998 41.8335 145.131 41.966 145.131 42.128V43.3795C145.131 43.5489 144.998 43.674 144.836 43.674Z" fill="#FFCC2D"/>
</g>
<g clip-path="url(#clip3_418_3598)">
<path d="M45.0119 49.3206L43.4083 51.9062C43.1425 52.3347 42.5789 52.4672 42.1494 52.202L40.805 51.3721C39.7444 50.7211 38.8487 49.8347 38.1875 48.7821C37.7548 48.0905 37.4731 47.3159 37.3606 46.5085C36.9764 43.8596 36.7337 42.6406 36.643 42.2994C35.8569 40.6631 33.8901 39.9724 32.25 40.7566C31.7096 41.015 31.2501 41.4156 30.921 41.9153C30.9047 41.9399 30.8888 41.9648 30.8733 41.9899C30.1481 43.1553 30.2248 44.6476 31.0656 45.7329C31.3264 46.0703 31.3173 46.543 31.0439 46.8701L29.0704 49.2432C28.7491 49.6311 28.1735 49.6857 27.7847 49.3651C27.756 49.3415 27.7288 49.3161 27.7033 49.2892C25.1823 46.6012 24.7812 42.5605 26.725 39.4315C26.7634 39.3694 26.8025 39.3083 26.8428 39.247C29.3197 35.4831 34.3859 34.4352 38.1585 36.9064C39.4502 37.7525 40.475 38.9467 41.1139 40.3503C41.2769 40.7023 41.523 41.2342 42.1869 45.8118C42.2033 45.9463 42.2474 46.0761 42.3161 46.193C42.5827 46.6165 42.9435 46.973 43.3706 47.2347L44.7151 48.0646C45.1446 48.3297 45.2775 48.892 45.0119 49.3206C45.0119 49.3205 45.0119 49.3206 45.0119 49.3206Z" fill="#FFCC2D"/>
<path d="M47.4226 55.4283L45.6698 54.3475C45.2401 54.0826 45.107 53.5201 45.3726 53.0914L46.9753 50.5043C47.2408 50.0755 47.8046 49.9427 48.2344 50.2077L49.9871 51.2885C50.4169 51.5535 50.55 52.116 50.2843 52.5447L48.6817 55.1318C48.416 55.5605 47.8524 55.6933 47.4226 55.4283Z" fill="#FFCC2D"/>
<path d="M65.6644 28.9443L63.4643 29.533C63.0997 29.6305 62.7249 29.4148 62.6271 29.051C62.6271 29.051 62.6271 29.051 62.6271 29.051L62.3205 27.9122C62.0771 27.0159 62.0442 26.0758 62.2244 25.1647C62.3437 24.5672 62.5879 24.0015 62.941 23.5045C64.0913 21.866 64.5847 21.0782 64.7105 20.8461C65.1223 19.5536 64.4059 18.1727 63.1104 17.7619C62.6835 17.6265 62.2278 17.61 61.7922 17.7139C61.7706 17.7191 61.7492 17.7244 61.7278 17.7302C60.7348 17.9944 60.0108 18.8463 59.9118 19.8668C59.8806 20.1836 59.6331 20.4364 59.3163 20.4749L57.0238 20.7586C56.6496 20.8057 56.3082 20.5412 56.2611 20.168C56.2576 20.1405 56.2558 20.1129 56.2557 20.0853C56.2629 17.3339 58.1186 14.9291 60.783 14.2186C60.8358 14.2046 60.8884 14.1912 60.9418 14.1783C64.2222 13.3943 67.5184 15.4119 68.3042 18.6846C68.5732 19.805 68.5184 20.9787 68.1459 22.0693C68.054 22.3442 67.9151 22.7597 65.9272 25.591C65.8671 25.6727 65.8244 25.7659 65.8017 25.8647C65.7295 26.2315 65.7431 26.6101 65.8414 26.9709L66.1475 28.1097C66.2448 28.4731 66.0286 28.8467 65.6644 28.9443Z" fill="#FFCC2D"/>
<path d="M63.8474 33.512L63.4485 32.0282C63.3508 31.6644 63.567 31.2905 63.9316 31.1929L66.1318 30.6042C66.4964 30.5067 66.8713 30.7225 66.969 31.0862L67.3679 32.57C67.4657 32.9338 67.2494 33.3078 66.8848 33.4053L64.6846 33.994C64.3201 34.0915 63.9452 33.8757 63.8474 33.512Z" fill="#FFCC2D"/>
</g>
<defs>
<clipPath id="clip0_418_3598">
<rect width="85.6296" height="16.213" fill="white" transform="translate(42.9722 144.5)"/>
</clipPath>
<clipPath id="clip1_418_3598">
<rect width="129.546" height="107.667" fill="white" transform="translate(16.8427 42.6575)"/>
</clipPath>
<clipPath id="clip2_418_3598">
<rect width="57.9259" height="49.5833" fill="white" transform="translate(104.676 12.1204)"/>
</clipPath>
<clipPath id="clip3_418_3598">
<rect width="42.9722" height="41.5556" fill="white" transform="translate(25.5 14.0093)"/>
</clipPath>
</defs>
</svg>
