<svg width="100" height="100" viewBox="0 0 100 100" fill="none" xmlns="http://www.w3.org/2000/svg">
<g clip-path="url(#clip0_103_2526)">
<path d="M75.2275 49.243L83.4541 31.4607L92.1223 31.5114L83.8406 49.2936L75.2275 49.243Z" fill="#66B0F0"/>
<path d="M83.8937 49.5781C83.666 49.5781 83.4813 49.4085 83.4814 49.1996C83.4814 49.1479 83.493 49.0968 83.5154 49.0494L91.6799 31.7168H83.4463L75.2502 49.2981C75.1606 49.4903 74.9182 49.5794 74.7088 49.4972C74.4994 49.4149 74.4023 49.1926 74.4918 49.0004L82.7949 31.1895C82.8599 31.0502 83.0092 30.9599 83.1743 30.96H92.3072C92.535 30.96 92.7197 31.1294 92.7196 31.3384C92.7196 31.3901 92.7081 31.4412 92.6857 31.4885L84.2727 49.3498C84.2074 49.4885 84.0584 49.5783 83.8937 49.5781Z" fill="#FFCF2D"/>
<path d="M60.2894 49.8221C59.9185 49.7394 59.69 49.393 59.779 49.0483C59.8535 48.7595 60.1317 48.5559 60.4513 48.5562L83.7594 48.5498C84.1408 48.5497 84.4501 48.837 84.4502 49.1914C84.4503 49.5459 84.1412 49.8333 83.7597 49.8334L60.4512 49.8398C60.3968 49.8398 60.3424 49.8339 60.2894 49.8221Z" fill="#9B3C82"/>
<path d="M82.9019 49.4585C83.0393 49.4585 83.1506 49.3564 83.1506 49.2303C83.1506 49.1043 83.0393 49.0022 82.9019 49.0022C82.7646 49.0022 82.6533 49.1043 82.6533 49.2303C82.6533 49.3564 82.7646 49.4585 82.9019 49.4585Z" fill="#FFCF2D"/>
<path d="M81.9679 49.2928C81.9336 49.3644 81.8527 49.4079 81.7674 49.4079H81.7613L80.0215 49.3975C79.9241 49.397 79.8336 49.3417 79.8047 49.2564C79.756 49.1127 79.8723 48.9813 80.0213 48.9822L81.7642 48.9926C81.9215 48.993 82.0408 49.1405 81.9679 49.2928Z" fill="#FFCF2D"/>
</g>
<g clip-path="url(#clip1_103_2526)">
<path d="M88.9788 35.7865H82.1152L82.53 34.9812H89.3784L88.9788 35.7865Z" fill="#5B2448"/>
<path d="M88.9791 35.8878H82.1155C82.0801 35.8878 82.0498 35.8675 82.0295 35.8371C82.0093 35.8067 82.0093 35.7713 82.0245 35.7358L82.4392 34.9356C82.4544 34.9001 82.4898 34.8799 82.5303 34.8799H89.3787C89.4141 34.8799 89.4444 34.9001 89.4647 34.9255C89.4849 34.9508 89.4849 34.9913 89.4697 35.0217L89.0702 35.827C89.055 35.8675 89.0196 35.8878 88.9791 35.8878ZM82.2824 35.6852H88.9184L89.2168 35.0825H82.591L82.2824 35.6852Z" fill="#5B2448"/>
<path d="M88.9488 35.6549C87.5478 35.9233 82.0296 39.5193 78.9493 41.9555C76.1877 44.1435 73.9066 47.5875 71.7418 48.018C67.9939 48.7626 66.3045 43.8041 65.5863 42.695C64.0234 40.2841 60.5385 38.2886 58.4496 40.2841C58.4496 40.2841 54.3072 44.0624 55.516 44.0371C57.5341 43.9966 60.3868 44.498 61.9446 47.1824C63.7048 50.2111 67.4173 46.0732 71.5951 42.3809C74.4275 39.8789 80.3605 36.0702 82.1662 35.584" fill="white"/>
<path d="M89.0499 35.6347C89.0398 35.5789 88.9892 35.5435 88.9335 35.5536C88.2811 35.6752 86.6727 36.5362 84.5281 37.9037C82.5505 39.1648 80.3907 40.6843 78.8885 41.8745C77.8415 42.7051 76.8755 43.7029 75.9398 44.6652C74.4477 46.1998 73.0416 47.6534 71.7265 47.9168C71.6254 47.937 71.5242 47.9522 71.4281 47.9624C70.9173 47.9877 70.1737 47.8763 69.8197 47.7446C68.9244 47.4052 68.2821 46.7417 67.7459 45.977C68.449 45.3793 69.1824 44.7057 69.9512 44.0068C70.5076 43.4952 71.0842 42.9735 71.6709 42.4569C74.4881 39.9701 80.3857 36.1563 82.2015 35.6802C82.3077 35.6549 82.5757 35.584 82.5757 35.584L82.4392 35.4067C82.4392 35.4067 82.1964 35.4675 82.1458 35.4827C80.3149 35.9791 74.3668 39.803 71.5343 42.2999C70.9527 42.8165 70.371 43.3433 69.8146 43.8548C69.0661 44.5335 68.3327 45.2071 67.6296 45.8048C67.1896 45.1413 66.8153 44.4069 66.4258 43.7333C64.7769 40.8818 63.0927 40.0005 62.2278 39.6612C61.2819 39.2914 59.5622 39.2053 59.5622 39.2053C59.5622 39.2053 57.0636 39.2458 55.2984 40.9577C52.9819 43.2116 52.7998 45.7136 52.7998 45.7136C52.7998 45.7136 55.1416 43.2065 59.1121 45.8453C60.8925 47.0304 62.9409 48.56 63.563 48.56H71.4939C71.4939 48.56 71.8327 48.717 73.5474 47.2077C74.3718 46.5797 75.2165 45.7085 76.0864 44.807C77.0171 43.8447 77.9781 42.857 79.015 42.0315C82.1306 39.5649 87.6235 36.0094 88.969 35.7511C89.0246 35.7461 89.06 35.6904 89.0499 35.6347Z" fill="#5B2448"/>
<path d="M85.7773 36.6932L81.1695 36.6071C81.1139 36.6071 81.0684 36.5615 81.0684 36.5058C81.0684 36.4501 81.1189 36.4045 81.1695 36.4045L85.7722 36.4906C85.8279 36.4906 85.8734 36.5362 85.8734 36.5919C85.8784 36.6527 85.8329 36.6932 85.7773 36.6932Z" fill="#5B2448"/>
<path d="M83.2685 38.0253L78.6607 37.9392C78.6051 37.9392 78.5596 37.8936 78.5596 37.8379C78.5596 37.7822 78.6051 37.7366 78.6607 37.7366L83.2634 37.8227C83.3191 37.8227 83.3646 37.8683 83.3646 37.924C83.3696 37.9797 83.3241 38.0253 83.2685 38.0253Z" fill="#5B2448"/>
<path d="M80.578 39.5195L76.4102 39.4384C76.3546 39.4384 76.3091 39.3928 76.3091 39.3371C76.3091 39.2814 76.3546 39.2358 76.4102 39.2358L80.578 39.3118C80.6336 39.3118 80.6791 39.3574 80.6791 39.4131C80.6791 39.4739 80.6336 39.5195 80.578 39.5195Z" fill="#5B2448"/>
<path d="M79.202 40.3752L75.0899 40.2941C75.0343 40.2941 74.9888 40.2486 74.9888 40.1928C74.9888 40.1371 75.0343 40.0916 75.0899 40.0916L79.202 40.1726C79.2576 40.1726 79.3032 40.2182 79.3032 40.2739C79.3032 40.3296 79.2576 40.3752 79.202 40.3752Z" fill="#5B2448"/>
<path d="M77.7811 41.1502L74.1495 41.0793C74.0939 41.0793 74.0483 41.0337 74.0483 40.978C74.0483 40.9223 74.0939 40.8767 74.1495 40.8767L77.7811 40.9476C77.8367 40.9476 77.8822 40.9932 77.8822 41.0489C77.8822 41.1097 77.8367 41.1502 77.7811 41.1502Z" fill="#5B2448"/>
<path d="M75.7932 43.6927L71.1348 43.6066C71.0792 43.6066 71.0337 43.5611 71.0337 43.5053C71.0337 43.4496 71.0792 43.4041 71.1348 43.4041L75.7881 43.4902C75.8438 43.4902 75.8893 43.5357 75.8893 43.5914C75.8893 43.6472 75.8488 43.6927 75.7932 43.6927Z" fill="#5B2448"/>
<path d="M73.8712 44.5233L70.189 44.4523C70.1334 44.4523 70.0879 44.4068 70.0879 44.3511C70.0879 44.2953 70.1334 44.2498 70.189 44.2498L73.8712 44.3207C73.9268 44.3207 73.9724 44.3662 73.9724 44.422C73.9724 44.4777 73.9268 44.5233 73.8712 44.5233Z" fill="#5B2448"/>
</g>
<g clip-path="url(#clip2_103_2526)">
<path d="M17.8455 90.1796C19.7485 90.1796 21.2911 89.885 21.2911 89.5216C21.2911 89.1581 19.7485 88.8635 17.8455 88.8635C15.9426 88.8635 14.3999 89.1581 14.3999 89.5216C14.3999 89.885 15.9426 90.1796 17.8455 90.1796Z" fill="#5B2448"/>
</g>
<g clip-path="url(#clip3_103_2526)">
<path d="M73.4881 50.1294H92.7676C92.8303 50.1294 92.8797 50.1787 92.8797 50.2415V85.3183C92.8797 85.3811 92.8303 85.4305 92.7676 85.4305H73.4881C73.4253 85.4305 73.376 85.3811 73.376 85.3183V50.2415C73.376 50.1787 73.4253 50.1294 73.4881 50.1294Z" fill="#FFCF2D"/>
<path d="M92.7676 85.4305H73.4881C73.4253 85.4305 73.376 85.3811 73.376 85.3183V50.2415C73.376 50.1787 73.4253 50.1294 73.4881 50.1294H92.7676C92.8303 50.1294 92.8797 50.1787 92.8797 50.2415V85.3183C92.8797 85.3811 92.8303 85.4305 92.7676 85.4305ZM73.6002 85.2062H92.6555V50.3537H73.6002V85.2062Z" fill="#FFCF2D"/>
<path d="M73.376 67.6677H92.8797V67.892H73.376V67.6677Z" fill="white"/>
<path d="M92.8797 58.8984L73.376 58.9433V59.1676L92.8797 59.1227V58.8984Z" fill="white"/>
<path d="M73.376 76.4146H92.8797V76.6388H73.376V76.4146Z" fill="white"/>
<path d="M92.7676 50.4658H50.3527C49.9806 50.4658 49.6802 50.1652 49.6802 49.7929C49.6802 49.4206 49.9806 49.1201 50.3527 49.1201H92.7676C93.1398 49.1201 93.4402 49.4206 93.4402 49.7929C93.4402 50.1652 93.1398 50.4658 92.7676 50.4658Z" fill="#5B2448"/>
<path d="M76.6041 89.4C77.7482 89.4 78.6756 88.4722 78.6756 87.3277C78.6756 86.1832 77.7482 85.2554 76.6041 85.2554C75.4601 85.2554 74.5327 86.1832 74.5327 87.3277C74.5327 88.4722 75.4601 89.4 76.6041 89.4Z" fill="#5B2448"/>
<path d="M89.7096 89.4C90.8536 89.4 91.781 88.4722 91.781 87.3277C91.781 86.1832 90.8536 85.2554 89.7096 85.2554C88.5656 85.2554 87.6382 86.1832 87.6382 87.3277C87.6382 88.4722 88.5656 89.4 89.7096 89.4Z" fill="#5B2448"/>
<path d="M83.1504 55.3998C83.5837 55.3998 83.935 55.0483 83.935 54.6148C83.935 54.1813 83.5837 53.8298 83.1504 53.8298C82.717 53.8298 82.3657 54.1813 82.3657 54.6148C82.3657 55.0483 82.717 55.3998 83.1504 55.3998Z" fill="white"/>
<path d="M83.1504 64.0121C83.5837 64.0121 83.935 63.6606 83.935 63.2271C83.935 62.7936 83.5837 62.4421 83.1504 62.4421C82.717 62.4421 82.3657 62.7936 82.3657 63.2271C82.3657 63.6606 82.717 64.0121 83.1504 64.0121Z" fill="white"/>
<path d="M83.1504 72.6241C83.5837 72.6241 83.935 72.2727 83.935 71.8392C83.935 71.4056 83.5837 71.0542 83.1504 71.0542C82.717 71.0542 82.3657 71.4056 82.3657 71.8392C82.3657 72.2727 82.717 72.6241 83.1504 72.6241Z" fill="white"/>
<path d="M83.1504 81.2364C83.5837 81.2364 83.935 80.885 83.935 80.4515C83.935 80.0179 83.5837 79.6665 83.1504 79.6665C82.717 79.6665 82.3657 80.0179 82.3657 80.4515C82.3657 80.885 82.717 81.2364 83.1504 81.2364Z" fill="white"/>
</g>
<g clip-path="url(#clip4_103_2526)">
<path d="M33.5791 85.0476C32.2576 84.6846 31.1557 83.9273 30.3046 82.8025C29.5654 81.8256 28.9921 80.5394 28.6024 78.9755C27.8767 76.085 27.8767 72.7644 27.8767 70.34C27.8767 70.2146 27.7781 70.116 27.6527 70.116C27.5273 70.116 27.4287 70.2146 27.4287 70.34C27.4287 72.7868 27.4287 76.1388 28.1679 79.083C28.4187 80.0868 28.7457 80.9876 29.1444 81.7673H24.8172C25.2114 80.9876 25.5384 80.0868 25.7937 79.083C26.5328 76.1388 26.5328 72.7868 26.5328 70.34C26.5328 70.2146 26.4343 70.116 26.3089 70.116C26.1834 70.116 26.0849 70.2146 26.0849 70.34C26.0849 72.7644 26.0849 76.0806 25.3592 78.9755C24.965 80.5394 24.3917 81.8256 23.657 82.8025C22.8059 83.9273 21.704 84.6846 20.3825 85.0476C20.284 85.0745 20.2168 85.1641 20.2168 85.2627C20.2168 85.3882 20.3153 85.4868 20.4408 85.4868C20.4587 85.4868 20.4811 85.4823 20.499 85.4778C21.919 85.0879 23.1016 84.2768 24.0109 83.0714C24.2125 82.807 24.4006 82.5202 24.5753 82.2154H29.3863C29.561 82.5202 29.7491 82.807 29.9507 83.0714C30.86 84.2768 32.0426 85.0879 33.4626 85.4778C33.4805 85.4823 33.5029 85.4868 33.5208 85.4868C33.6238 85.4868 33.709 85.4196 33.7358 85.321C33.7672 85.2045 33.7 85.079 33.5791 85.0476Z" fill="#5B2448"/>
<path d="M32.8266 90.0801C34.2466 90.0801 35.3978 88.9284 35.3978 87.5078C35.3978 86.0872 34.2466 84.9355 32.8266 84.9355C31.4065 84.9355 30.2554 86.0872 30.2554 87.5078C30.2554 88.9284 31.4065 90.0801 32.8266 90.0801Z" fill="#FFCF2D"/>
<path d="M32.8268 89.3181C33.8263 89.3181 34.6365 88.5076 34.6365 87.5077C34.6365 86.5078 33.8263 85.6973 32.8268 85.6973C31.8273 85.6973 31.0171 86.5078 31.0171 87.5077C31.0171 88.5076 31.8273 89.3181 32.8268 89.3181Z" fill="#9B3C82"/>
<path d="M21.0453 90.0801C22.4654 90.0801 23.6166 88.9284 23.6166 87.5078C23.6166 86.0872 22.4654 84.9355 21.0453 84.9355C19.6253 84.9355 18.4741 86.0872 18.4741 87.5078C18.4741 88.9284 19.6253 90.0801 21.0453 90.0801Z" fill="#FFCF2D"/>
<path d="M21.0455 89.3181C22.045 89.3181 22.8553 88.5076 22.8553 87.5077C22.8553 86.5078 22.045 85.6973 21.0455 85.6973C20.0461 85.6973 19.2358 86.5078 19.2358 87.5077C19.2358 88.5076 20.0461 89.3181 21.0455 89.3181Z" fill="#9B3C82"/>
<path d="M23.3298 72.1281C23.1686 72.1281 22.9939 72.1236 22.8057 72.1102C22.743 72.1057 22.6982 72.0564 22.6982 71.9937C22.7027 71.9309 22.752 71.8861 22.8147 71.8861H22.8192C23.8136 71.9488 24.4273 71.8413 24.7454 71.5455C25.0231 71.2901 25.0858 70.8957 25.0948 70.3401C25.0948 70.2773 25.1485 70.228 25.2067 70.228C25.2695 70.228 25.3187 70.2818 25.3187 70.3401C25.3098 70.954 25.2336 71.3976 24.8977 71.7069C24.5931 71.9937 24.0958 72.1281 23.3298 72.1281Z" fill="#5B2448"/>
<path d="M23.0837 72.6703H21.0679C20.6961 72.6703 20.396 72.3701 20.396 71.9981C20.396 71.6262 20.6961 71.3259 21.0679 71.3259H23.0837C23.4555 71.3259 23.7556 71.6262 23.7556 71.9981C23.7556 72.3701 23.4555 72.6703 23.0837 72.6703Z" fill="#9B3C82"/>
<path d="M15.8268 67.3375C15.7148 67.3375 15.6207 67.2568 15.6073 67.1493C14.7472 61.5253 13.1884 54.1849 11.858 51.0256C11.8087 50.9091 11.8669 50.7792 11.9789 50.7343C12.0909 50.685 12.2208 50.7388 12.2701 50.8553C13.6095 54.046 15.1862 61.4357 16.0463 67.0866C16.0642 67.2076 15.9791 67.3241 15.8581 67.342C15.8492 67.3375 15.8357 67.3375 15.8268 67.3375Z" fill="#5B2448"/>
<path d="M27.0125 65.4151C28.6654 65.442 30.3094 65.4061 31.9309 65.2896C33.0284 65.2448 36.8359 64.6488 36.8359 64.6488C37.9065 64.474 38.9189 65.2 39.0936 66.271C39.228 67.0777 38.8069 67.8126 38.135 68.2921C37.7005 68.5654 35.7698 69.5872 32.6028 70.2414C31.6622 70.4207 29.2074 70.7075 26.9229 70.7075C25.0325 70.6761 23.1512 70.47 21.3011 70.0891C20.3739 69.8964 17.4936 69.1794 15.9079 68.2921C14.9358 67.8036 14.5416 66.6161 15.0299 65.6436C15.3972 64.9087 16.1811 64.483 16.9964 64.5681C17.0009 64.5681 25.3595 65.3882 27.0125 65.4151Z" fill="#FFCF2D"/>
<path d="M12.8394 52.9213C11.7733 53.0647 11.0521 52.2625 10.7699 51.3125C10.1607 49.2959 9.68136 47.2524 9.03632 45.2403C8.51222 43.6002 7.97468 41.9645 7.30276 40.3781C6.91305 39.455 6.37103 38.2719 7.02504 37.3488C7.32516 36.9231 7.78655 36.6407 8.30168 36.5735C10.3891 36.5601 11.827 39.7597 12.1272 40.3468C13.2829 42.6502 14.1474 46.2531 14.3221 47.481C14.6043 50.2056 15.0657 52.5359 12.8394 52.9213Z" fill="#FFCF2D"/>
</g>
<g clip-path="url(#clip5_103_2526)">
<path d="M63.0987 76.0283C60.9105 77.1435 59.7901 77.4594 55.3707 77.1435C50.9513 76.8276 49.2371 78.6176 49.6968 79.8237C50.4964 81.92 57.736 80.9819 63.0987 76.0283Z" fill="#5B2448"/>
<path d="M50.4056 79.6416C50.4056 79.6416 45.4403 78.8902 42.8116 75.8462C40.3409 72.989 37.9517 70.5193 36.4674 71.4718C34.0973 72.989 39.1918 81.3837 50.4056 79.6416Z" fill="#5B2448"/>
<path d="M50.4055 79.6418L49.4143 81.025L47.8151 83.2601C47.8151 83.2601 43.0318 84.6911 41.3799 81.025C41.5523 80.5464 41.8348 79.7758 42.1268 78.9765C42.1939 78.7994 42.2561 78.6271 42.3231 78.4501V78.4453C42.8115 77.1291 43.2808 75.8847 43.2951 75.8464L50.4055 79.6418Z" fill="#F4ADA2"/>
<path d="M63.3193 83.1213C63.3193 83.1213 58.421 84.2125 56.7165 82.1258C56.7021 82.1066 56.6877 82.0923 56.6734 82.0731C56.659 82.054 56.6446 82.0348 56.6303 82.0205C56.6159 82.0013 56.6063 81.987 56.592 81.9678C56.5872 81.9631 56.5872 81.9583 56.5824 81.9535C56.5728 81.9391 56.5632 81.9248 56.5537 81.9056C56.5297 81.8673 56.5058 81.8243 56.4818 81.786C56.3909 81.2547 56.276 80.6947 56.1515 80.1539C56.1132 79.9816 56.0701 79.8093 56.0318 79.6418C56.0222 79.5939 56.0078 79.5509 55.9982 79.5078C55.9887 79.4743 55.9839 79.4408 55.9743 79.4073C55.6631 78.1438 55.3662 77.1435 55.3662 77.1435L63.0942 76.0283C63.0942 76.0283 63.166 77.4354 63.2331 79.1632C63.2331 79.2063 63.2379 79.2446 63.2379 79.2876C63.281 80.5224 63.3193 81.987 63.3193 83.1213Z" fill="#F4ADA2"/>
<path d="M63.0986 76.0283C61.1786 77.7705 57.9275 78.8042 55.9787 79.4121C55.6675 78.1486 55.3706 77.1483 55.3706 77.1483L63.0986 76.0283Z" fill="#9B3C82"/>
<path d="M50.4056 79.6418C47.1353 79.8428 43.6112 78.8282 42.3232 78.4501V78.4453C42.8116 77.1291 43.2809 75.8847 43.2952 75.8464L50.4056 79.6418Z" fill="#9B3C82"/>
<path d="M49.4143 81.0296L47.8151 83.2647C47.8151 83.2647 43.0318 84.6958 41.3799 81.0296C41.5523 80.551 41.8348 79.7805 42.1268 78.9812L49.4143 81.0296Z" fill="#66B0F0"/>
<path d="M48.7344 81.982L41.7533 80.0054C41.7006 80.1537 41.648 80.2925 41.6001 80.4265L48.4567 82.3649L48.7344 81.982Z" fill="white"/>
<path d="M63.3192 83.1259C63.3192 83.1259 58.4209 84.2171 56.7164 82.1304C56.702 82.1112 56.6876 82.0969 56.6733 82.0777C56.6589 82.0586 56.6445 82.0394 56.6302 82.0251C56.6158 82.0059 56.6062 81.9916 56.5919 81.9724C56.5871 81.9676 56.5871 81.9628 56.5823 81.9581C56.5727 81.9437 56.5631 81.9293 56.5536 81.9102C56.5296 81.8719 56.5057 81.8288 56.4817 81.7905C56.3908 81.2593 56.2759 80.6993 56.1514 80.1585L63.233 79.1582C63.233 79.2013 63.2378 79.2396 63.2378 79.2826C63.2809 80.527 63.3192 81.9916 63.3192 83.1259Z" fill="#66B0F0"/>
<path d="M63.2662 80.1394L56.333 80.9961C56.3617 81.1445 56.3905 81.2881 56.4192 81.4364L63.2806 80.5893C63.2758 80.4361 63.271 80.2878 63.2662 80.1394Z" fill="white"/>
<path d="M71.9091 88.4145C71.4973 88.9074 70.6354 89.5871 68.8255 89.7498C65.4978 90.0417 56.6398 89.879 56.6398 89.879C56.6589 88.2326 56.6637 86.5623 56.635 85.1121V85.1073C56.6015 83.5279 56.4195 82.2357 56.4626 81.8815C56.9989 81.6135 58.0906 82.5133 58.9668 82.8196C60.3554 83.303 63.2905 83.0876 63.4389 83.1019C64.6838 83.279 65.9 83.6093 67.0587 84.0831L67.1305 84.1118C67.1401 84.1166 67.1545 84.1214 67.164 84.1262C67.2933 84.1836 67.4034 84.2362 67.4896 84.2793C67.6429 84.3559 67.7961 84.4325 67.9397 84.5138C67.9876 84.5425 68.0355 84.5665 68.0834 84.5904C68.1552 84.6335 68.227 84.6718 68.2988 84.7148C68.318 84.7292 68.3419 84.7388 68.3611 84.7531C68.8159 85.0259 69.2469 85.3275 69.6586 85.6625C69.6922 85.6912 69.7257 85.7199 69.7592 85.7439C69.7688 85.7534 69.7831 85.763 69.7927 85.7726C69.8023 85.7821 69.8167 85.7917 69.8262 85.8013L69.8358 85.8109C69.8406 85.8156 69.8502 85.8204 69.855 85.8252L69.8597 85.83C69.8693 85.8396 69.8789 85.8491 69.8885 85.8539C69.9076 85.8731 69.9316 85.8874 69.9507 85.9066C69.9603 85.9114 69.9651 85.9209 69.9747 85.9257L70.0225 85.9688L70.0417 85.9879C70.0608 86.0071 70.0848 86.0262 70.1039 86.0454L70.1087 86.0502L70.1279 86.0693C70.1327 86.0741 70.1422 86.0837 70.1518 86.0884C70.1662 86.1028 70.1806 86.1172 70.1949 86.1267C70.2045 86.1315 70.2093 86.1411 70.2189 86.1459L70.2284 86.1555C70.2284 86.1555 70.2332 86.1602 70.238 86.165C70.2572 86.1842 70.2811 86.2033 70.3003 86.2272C70.329 86.256 70.3577 86.2847 70.3864 86.3086L70.4008 86.323C70.4056 86.3278 70.4152 86.3373 70.42 86.3421C70.4343 86.3565 70.4487 86.3708 70.4631 86.3852C70.4774 86.3995 70.487 86.4139 70.5014 86.4235L70.5157 86.4378L70.5397 86.4665C70.554 86.4857 70.5732 86.5001 70.5875 86.5192C70.5971 86.5288 70.6067 86.5383 70.6115 86.5479L70.6594 86.5958C70.6689 86.6101 70.6833 86.6197 70.6929 86.6341C70.7312 86.6723 70.7647 86.7106 70.7982 86.7537C70.8126 86.7729 70.8317 86.792 70.8461 86.8064C70.8748 86.8351 70.8988 86.8638 70.9227 86.8973L70.985 86.9691C70.9945 86.9787 71.0041 86.993 71.0137 87.0026C71.0233 87.0122 71.0328 87.0265 71.0424 87.0361L71.0999 87.1079C71.1382 87.1557 71.1765 87.2036 71.21 87.2515C71.2244 87.2658 71.2339 87.285 71.2435 87.2993C71.3153 87.395 71.3824 87.486 71.4398 87.5769C71.4542 87.5961 71.4638 87.6104 71.4733 87.6296C71.4925 87.6583 71.5116 87.6918 71.5308 87.7205C71.5356 87.7253 71.5356 87.7301 71.5404 87.7349C71.5643 87.7731 71.5883 87.8114 71.6122 87.8497C71.6266 87.8689 71.6361 87.888 71.6457 87.9072C71.7319 88.0555 71.7941 88.1752 71.8372 88.2613C71.842 88.2709 71.8468 88.2853 71.8516 88.2948C71.8755 88.3427 71.8899 88.3714 71.8947 88.3906C71.8995 88.3953 71.8995 88.4001 71.8995 88.4049C71.9091 88.4097 71.9091 88.4097 71.9091 88.4145Z" fill="white"/>
<path d="M71.5355 87.7398C68.6674 89.7834 65.852 88.8645 64.1906 88.1753C62.7589 87.5818 62.711 88.1944 61.5427 87.8259C60.566 87.5148 60.2595 86.8208 59.0146 86.6725C58.2677 86.5863 57.176 86.9261 56.6828 87.4622C56.6972 86.8878 56.6732 86.0168 56.6301 85.1074V85.1026C56.5487 83.3414 56.4386 81.7859 56.4578 81.7859C57.492 81.8146 57.9947 82.3267 58.871 82.633C60.2547 83.1164 62.6679 83.0351 63.4293 83.0925C64.9519 83.2121 66.3021 83.7578 67.0491 84.0736L67.1209 84.1023C67.1305 84.1071 67.1448 84.1119 67.1544 84.1167C67.2837 84.1741 67.3938 84.2268 67.48 84.2699C67.6332 84.3464 67.7864 84.423 67.9301 84.5044C67.978 84.5331 68.0258 84.557 68.0737 84.581C68.1455 84.624 68.2174 84.6623 68.2892 84.7054C68.3083 84.7198 68.3323 84.7293 68.3514 84.7437C68.8063 85.0165 69.2372 85.318 69.649 85.653C69.6825 85.6818 69.716 85.7105 69.7496 85.7344C69.7591 85.744 69.7735 85.7535 69.7831 85.7631C69.7927 85.7727 69.807 85.7823 69.8166 85.7918L69.8262 85.8014C69.831 85.8062 69.8405 85.811 69.8453 85.8158L69.8501 85.8205C69.8597 85.8301 69.8693 85.8397 69.8788 85.8445C69.898 85.8636 69.9219 85.878 69.9411 85.8971C69.9507 85.9019 69.9554 85.9115 69.965 85.9163L70.0129 85.9593L70.0321 85.9785C70.0512 85.9976 70.0751 86.0168 70.0943 86.0359L70.0991 86.0407L70.1182 86.0599C70.123 86.0646 70.1326 86.0742 70.1422 86.079C70.1565 86.0934 70.1709 86.1077 70.1853 86.1173C70.1948 86.1221 70.1996 86.1316 70.2092 86.1364L70.2188 86.146C70.2236 86.1508 70.2236 86.1508 70.2284 86.1556C70.2475 86.1747 70.2715 86.1939 70.2906 86.213C70.3193 86.2417 70.3481 86.2704 70.3768 86.2944L70.3912 86.3087C70.396 86.3135 70.4055 86.3231 70.4103 86.3279C70.4247 86.3422 70.439 86.3566 70.4534 86.3709C70.4678 86.3853 70.4773 86.3997 70.4917 86.4092L70.5061 86.4236L70.53 86.4523L70.5444 86.4667L70.5827 86.505C70.5923 86.5145 70.6018 86.5241 70.6066 86.5337L70.6545 86.5815C70.6641 86.5959 70.6784 86.6055 70.688 86.6198C70.7263 86.6581 70.7598 86.6964 70.7934 86.7395C70.8077 86.7586 70.8269 86.7778 70.8412 86.7921C70.87 86.8208 70.8939 86.8496 70.9179 86.8831L70.9801 86.9548C70.9897 86.9644 70.9993 86.9788 71.0088 86.9883C71.0184 87.0027 71.028 87.0123 71.0376 87.0219L71.095 87.0936C71.1333 87.1415 71.1716 87.1894 71.2051 87.2372C71.2195 87.2516 71.2291 87.2707 71.2387 87.2851C71.3105 87.3808 71.3727 87.4717 71.435 87.5627C71.4493 87.5818 71.4589 87.5962 71.4685 87.6153C71.4876 87.644 71.5068 87.6728 71.5259 87.7063C71.5307 87.7302 71.5355 87.735 71.5355 87.7398Z" fill="#5B2448"/>
<path d="M56.8504 85.7726C56.7977 85.7726 56.769 85.7678 56.7594 85.7678C56.6876 85.763 56.6301 85.696 56.6397 85.6194C56.6445 85.5476 56.7115 85.4902 56.7881 85.4998C56.7977 85.4998 57.559 85.562 58.5119 84.8824C58.7225 84.734 58.8949 84.5952 59.0481 84.4803C59.6419 84.0209 59.9675 83.7624 61.1645 83.6045C61.2363 83.5949 61.3081 83.6428 61.3177 83.7193C61.3273 83.7911 61.2794 83.8629 61.2028 83.8725C61.2028 83.8725 61.2028 83.8725 61.198 83.8725C60.0776 84.0209 59.7855 84.2458 59.2109 84.6909C59.0577 84.8106 58.8806 84.9494 58.6651 85.1025C57.8128 85.7151 57.0994 85.7726 56.8504 85.7726Z" fill="white"/>
<path d="M67.7576 89.1324C66.4839 89.1324 65.3204 88.7543 64.3293 88.3427C63.5201 88.0077 63.0892 88.0173 62.6678 88.0268C62.3518 88.0364 62.0214 88.0412 61.557 87.9072C61.1117 87.7779 60.8292 87.5578 60.5563 87.3472C60.2115 87.0792 59.8811 86.8255 59.23 86.7633C57.7361 86.6197 56.8215 87.553 56.812 87.5626C56.7689 87.6056 56.697 87.6104 56.654 87.5674C56.6109 87.5243 56.6061 87.4525 56.6492 87.4094C56.6875 87.3663 57.6451 86.39 59.2491 86.5431C59.9673 86.6101 60.336 86.8973 60.6903 87.1749C60.9585 87.3855 61.2122 87.5817 61.6192 87.6966C62.0502 87.821 62.347 87.8162 62.663 87.8067C63.1083 87.7971 63.568 87.7875 64.4155 88.1369C66.2972 88.917 68.8014 89.5679 71.4971 87.6487C71.5498 87.6152 71.6168 87.6296 71.6503 87.6774C71.6838 87.7301 71.6695 87.7971 71.6216 87.8306C70.2665 88.7974 68.9642 89.1324 67.7576 89.1324Z" fill="#5B2448"/>
<path d="M59.024 87.5674H59.0097C58.641 87.5674 58.2914 87.6583 58.0329 87.8115C57.7504 87.979 57.5972 88.2039 57.5972 88.448C57.5972 88.9362 58.2196 89.3191 59.0097 89.3191H59.024C59.3927 89.3191 59.7422 89.2329 60.0008 89.075C60.2833 88.9075 60.4365 88.6825 60.4365 88.4337C60.4317 87.9455 59.8141 87.5674 59.024 87.5674ZM59.8907 88.8788C59.6608 89.0176 59.3496 89.0941 59.0144 89.0941C58.3633 89.0989 57.8078 88.7974 57.8031 88.4385C57.8031 88.2757 57.918 88.113 58.1334 87.9886C58.3633 87.8498 58.6745 87.7732 59.0097 87.7732H59.0192C59.6656 87.7732 60.2163 88.0699 60.2163 88.4289C60.2211 88.5916 60.1061 88.7543 59.8907 88.8788Z" fill="#5B2448"/>
<path d="M72.0239 88.3666C72.0239 88.3619 72.0239 88.3619 72.0239 88.3666C72.0239 88.3619 72.0191 88.3571 72.0191 88.3571C72.0095 88.3379 71.9951 88.2996 71.9712 88.2518C71.9664 88.2422 71.9616 88.2278 71.9568 88.2183C71.8994 88.1034 71.8371 87.9838 71.7605 87.8593C71.7509 87.8402 71.7366 87.821 71.727 87.8019C71.7031 87.7588 71.6743 87.7157 71.6456 87.6679C71.6264 87.6392 71.6073 87.6057 71.5881 87.5769C71.5786 87.5578 71.5642 87.5387 71.5498 87.5243C71.4876 87.4286 71.4206 87.3376 71.3535 87.2467C71.344 87.2323 71.3296 87.2132 71.32 87.1988C71.2817 87.1462 71.2434 87.0983 71.2099 87.0553C71.1812 87.0218 71.1524 86.9835 71.1237 86.95L71.095 86.9165C71.0806 86.8973 71.0662 86.883 71.0519 86.8638L71.0327 86.8399C71.0088 86.8112 70.9801 86.7777 70.9561 86.7489L70.9418 86.7346C70.9322 86.7202 70.9178 86.7059 70.9082 86.6963C70.8747 86.658 70.8364 86.6149 70.8029 86.5766C70.7885 86.5623 70.779 86.5479 70.7694 86.5384C70.755 86.5192 70.7359 86.5049 70.7215 86.4857C70.7119 86.4761 70.7071 86.4714 70.6976 86.4618L70.6497 86.4091C70.6257 86.3804 70.597 86.3565 70.5683 86.3278L70.5539 86.3134C70.5443 86.3038 70.5348 86.2943 70.53 86.2847L70.4917 86.2464C70.4629 86.2177 70.4342 86.189 70.4055 86.1603C70.3768 86.1363 70.3528 86.1076 70.3241 86.0837C70.3001 86.0645 70.281 86.0406 70.257 86.0215L70.2331 86.0023C70.2044 85.9736 70.1709 85.9449 70.1421 85.921C70.1326 85.9162 70.1278 85.9066 70.123 85.9018C70.099 85.8779 70.0751 85.8587 70.0512 85.8348L70.0464 85.83C70.0176 85.8061 69.9889 85.7822 69.9602 85.7582L69.9554 85.7534C69.9362 85.7343 69.9123 85.7152 69.8932 85.7008C69.8788 85.6912 69.8692 85.6769 69.8548 85.6673C69.8213 85.6386 69.7878 85.6099 69.7543 85.5811C69.3473 85.2509 68.9164 84.9494 68.4663 84.6766C68.4615 84.6718 68.4567 84.667 68.4471 84.667C68.428 84.6574 68.4088 84.6431 68.3897 84.6335L68.3801 84.6287C68.3083 84.5856 68.2365 84.5426 68.1646 84.5043C68.1168 84.4756 68.0689 84.4516 68.021 84.4229C67.9252 84.3703 67.8391 84.3224 67.7529 84.2793C67.6906 84.2458 67.6284 84.2171 67.5709 84.1884C67.4656 84.1357 67.3555 84.0831 67.2405 84.0352C67.1831 84.0113 67.116 83.9826 67.0299 83.9491C66.824 83.8677 66.5367 83.7672 66.168 83.6619C65.943 83.5949 65.6892 83.5279 65.4019 83.4657C65.287 83.437 65.1673 83.4131 65.038 83.3891C64.8178 83.3413 64.5784 83.2982 64.3246 83.2599C64.2671 83.2503 64.2049 83.2408 64.1474 83.2312C63.9559 83.2025 63.7596 83.1738 63.5489 83.1498H63.5441C63.4819 83.145 63.4292 83.1881 63.4196 83.2503C63.4148 83.3125 63.4579 83.3652 63.5202 83.3748C63.6926 83.3939 63.8601 83.4178 64.0181 83.4418C64.4203 83.4992 64.7842 83.5662 65.1098 83.638C65.3828 83.6954 65.6269 83.7576 65.8472 83.8151C66.2829 83.9299 66.6181 84.0448 66.8575 84.1357C66.9772 84.1788 67.073 84.2219 67.1448 84.2506C67.2597 84.2985 67.365 84.3511 67.4656 84.399C67.4704 84.399 67.4704 84.4038 67.4752 84.4038C67.614 84.4708 67.7577 84.5474 67.9109 84.6287C67.9588 84.6574 68.0066 84.6814 68.0497 84.7053C68.1216 84.7436 68.1886 84.7867 68.2556 84.8249L68.2604 84.8297L68.27 84.8345C68.2843 84.8441 68.3035 84.8537 68.3227 84.8632C68.7727 85.1313 69.1989 85.4328 69.6059 85.763C69.6394 85.7917 69.6729 85.8157 69.7064 85.8444C69.716 85.854 69.7256 85.8635 69.7399 85.8731C69.7591 85.8922 69.783 85.9066 69.8022 85.9257L69.807 85.9305C69.8357 85.9545 69.8596 85.9784 69.8884 86.0023L69.8932 86.0071C69.9171 86.0262 69.941 86.0502 69.965 86.0741L69.9841 86.0933C70.0129 86.1172 70.0416 86.1459 70.0703 86.1746L70.0943 86.1938C70.1134 86.2129 70.1373 86.2321 70.1565 86.256C70.1852 86.2799 70.2092 86.3086 70.2379 86.3326C70.2666 86.3613 70.2954 86.3852 70.3241 86.4139C70.3337 86.4235 70.348 86.4379 70.3576 86.4522C70.3672 86.4618 70.3768 86.4666 70.3815 86.4761L70.4007 86.4953L70.4773 86.5719L70.5252 86.6197C70.5348 86.6293 70.5443 86.6389 70.5539 86.6484C70.5683 86.6628 70.5826 86.6819 70.6018 86.7011C70.6114 86.7107 70.6209 86.725 70.6353 86.7394C70.6688 86.7777 70.7071 86.816 70.7406 86.8542C70.7502 86.8638 70.7598 86.8782 70.7742 86.8925L70.7885 86.9069C70.8125 86.9356 70.8412 86.9643 70.8651 86.993L70.8843 87.017C70.8987 87.0361 70.913 87.0505 70.9274 87.0648L70.9561 87.1031C70.9848 87.1366 71.0136 87.1749 71.0375 87.2084C71.0758 87.2563 71.1093 87.3041 71.1476 87.352C71.1572 87.3663 71.1716 87.3807 71.1812 87.3951C71.2482 87.486 71.3104 87.5769 71.3727 87.6679C71.3823 87.6822 71.3966 87.7014 71.4062 87.7205C71.411 87.7253 71.411 87.7301 71.4158 87.7349C71.4301 87.7588 71.4493 87.7827 71.4637 87.8067C71.4637 87.8115 71.4684 87.8162 71.4684 87.8162C71.4924 87.8545 71.5115 87.888 71.5355 87.9215C71.5403 87.9263 71.5403 87.9311 71.5451 87.9359C71.5546 87.955 71.569 87.9742 71.5786 87.9933C71.6504 88.113 71.7126 88.2278 71.7653 88.3379L71.7797 88.3666C71.7892 88.3858 71.794 88.4001 71.8036 88.4145C71.0327 89.2904 69.7734 89.5727 68.8446 89.6541C65.7658 89.9269 57.8367 89.8216 56.7737 89.8025C56.8216 89.1276 56.8503 88.3762 56.8551 87.5482C56.8551 87.4764 56.8551 87.4046 56.8551 87.3328V87.2515C56.8551 86.7872 56.8456 86.2991 56.836 85.7917C56.8312 85.7008 56.8312 85.6146 56.8264 85.5237C56.7929 84.5138 56.7354 83.4178 56.654 82.2453C56.6492 82.1591 56.6445 82.0825 56.6397 82.0251V82.0203C56.6349 81.9724 56.6349 81.9342 56.6349 81.9246C56.6349 81.8959 56.6301 81.8719 56.6109 81.8528C56.5966 81.8336 56.5726 81.8145 56.5439 81.8097C56.5391 81.8097 56.5343 81.8097 56.5295 81.8049C56.52 81.8049 56.5104 81.8049 56.5008 81.8049C56.5008 81.8049 56.5008 81.8049 56.496 81.8049C56.4864 81.8049 56.4817 81.8097 56.4721 81.8145C56.4386 81.8289 56.4098 81.8624 56.405 81.9054C56.4003 81.9294 56.405 81.9581 56.4242 82.2596C56.5678 84.241 56.6349 85.9927 56.6253 87.5004C56.6205 88.3858 56.5918 89.1898 56.5343 89.903V89.9078C56.5343 89.97 56.5822 90.0178 56.6445 90.0226C56.6875 90.0226 58.8422 90.0561 61.4182 90.0561C64.0804 90.0561 67.1831 90.0178 68.8589 89.8695C69.8453 89.7833 71.1955 89.4722 72.0143 88.4959C72.043 88.4528 72.0478 88.4049 72.0239 88.3666Z" fill="#5B2448"/>
<path d="M62.5051 85.9257C62.3184 85.9257 62.1699 85.7773 62.1699 85.5907C62.1699 85.5476 62.1795 85.5045 62.1939 85.4614C62.2226 85.3897 62.9743 83.6475 65.0045 82.9344C65.1769 82.8722 65.3684 82.9631 65.4306 83.1354C65.4929 83.3077 65.4019 83.4992 65.2295 83.5614C65.2295 83.5614 65.2295 83.5614 65.2247 83.5614C63.4867 84.174 62.8163 85.7008 62.8115 85.7151C62.7636 85.8443 62.6439 85.9257 62.5051 85.9257Z" fill="#FFCF2D"/>
<path d="M64.0036 86.4044C63.8169 86.4044 63.6685 86.2561 63.6685 86.0694C63.6685 86.0216 63.678 85.9785 63.6972 85.9354C63.7307 85.8588 64.5255 84.0976 66.6084 83.4849C66.7855 83.4323 66.9723 83.5328 67.0249 83.7099C67.0776 83.887 66.977 84.0736 66.7999 84.1263C65.0235 84.648 64.3196 86.1891 64.3101 86.2034C64.2574 86.3279 64.1377 86.4044 64.0036 86.4044Z" fill="#FFCF2D"/>
<path d="M65.7229 86.7585C65.5361 86.7585 65.3877 86.6101 65.3877 86.4234C65.3877 86.3756 65.3973 86.3277 65.4212 86.2799C65.4499 86.2129 66.1873 84.6861 68.0882 84.1501C68.2653 84.1022 68.4521 84.2027 68.5 84.3846C68.5478 84.5664 68.4473 84.7483 68.2653 84.7962C66.6565 85.2461 66.0293 86.5479 66.0245 86.5622C65.9718 86.6867 65.8521 86.7585 65.7229 86.7585Z" fill="#FFCF2D"/>
<path d="M55.2226 88.3953C54.806 88.8835 53.9394 89.5583 52.1343 89.7067C48.8065 89.9795 38.3589 89.6923 38.3589 89.6923C38.627 88.2182 41.3945 81.0295 41.3993 81.0295C42.3809 81.3406 42.6059 82.3696 43.7216 82.6377C44.8803 82.9153 45.5123 82.9296 46.8051 83.0828C48.3948 83.2742 49.7929 83.7576 50.5063 84.0735C50.6356 84.1309 50.7457 84.1836 50.8319 84.2266C50.9851 84.3032 51.1336 84.3846 51.2772 84.4612C51.3251 84.4899 51.373 84.5138 51.4161 84.5425C51.4879 84.5856 51.5597 84.6287 51.6315 84.667C51.6555 84.6813 51.6746 84.6909 51.6938 84.7052C52.1439 84.9781 52.5748 85.2844 52.9866 85.6194C53.0201 85.6481 53.0536 85.6768 53.0871 85.7055C53.0967 85.7151 53.1111 85.7247 53.1206 85.7343C53.1302 85.7438 53.1446 85.7534 53.1541 85.763C53.1589 85.7678 53.1589 85.7678 53.1637 85.7725C53.1685 85.7773 53.1733 85.7821 53.1829 85.7869L53.1877 85.7917C53.2164 85.8156 53.2451 85.8443 53.2786 85.8683C53.2882 85.873 53.293 85.8826 53.3026 85.8874C53.3169 85.9018 53.3361 85.9161 53.3505 85.9305C53.3552 85.9353 53.3648 85.9448 53.3696 85.9496C53.3888 85.9688 53.4127 85.9879 53.4319 86.0071L53.4366 86.0118L53.4558 86.031C53.4654 86.0358 53.4702 86.0453 53.4797 86.0501C53.4941 86.0645 53.5085 86.0788 53.5228 86.0884C53.5324 86.0932 53.5372 86.1028 53.5468 86.1076L53.5563 86.1171C53.5563 86.1171 53.5611 86.1219 53.5659 86.1267C53.5851 86.1459 53.609 86.165 53.6282 86.1889C53.6569 86.2176 53.6856 86.2464 53.7096 86.2703C53.7239 86.2799 53.7335 86.2942 53.7431 86.3086C53.7574 86.3229 53.7718 86.3373 53.7862 86.3517C53.8101 86.3804 53.8388 86.4043 53.8628 86.433C53.8772 86.4522 53.8963 86.4665 53.9107 86.4857C53.9202 86.4952 53.925 86.5048 53.9346 86.5144C53.949 86.5287 53.9633 86.5479 53.9777 86.5622C53.9873 86.5766 54.0016 86.5862 54.0112 86.6005C54.0495 86.6388 54.083 86.6819 54.1166 86.7202C54.1309 86.7393 54.1501 86.7585 54.1644 86.7728C54.1884 86.8015 54.2171 86.835 54.241 86.8638L54.2985 86.9356L54.3272 86.9738C54.3368 86.9834 54.3464 86.9978 54.356 87.0073L54.4134 87.0791C54.4517 87.127 54.49 87.1749 54.5235 87.2227C54.5331 87.2371 54.5475 87.2562 54.5571 87.2706C54.6289 87.3663 54.6911 87.462 54.7486 87.5482C54.7582 87.5673 54.7725 87.5817 54.7821 87.6008C54.8013 87.6295 54.8204 87.663 54.8396 87.6918C54.8683 87.7348 54.897 87.7827 54.921 87.821C54.9305 87.8401 54.9449 87.8593 54.9545 87.8784C55.0407 88.0268 55.1029 88.1464 55.1412 88.2326C55.146 88.2422 55.1508 88.2565 55.1556 88.2661C55.1747 88.3139 55.1891 88.3474 55.1987 88.3666C55.2035 88.3714 55.2035 88.3762 55.2035 88.3809C55.2226 88.3905 55.2226 88.3905 55.2226 88.3953Z" fill="white"/>
<path d="M54.844 87.7207C51.9664 89.7452 48.6003 88.654 46.9436 87.9552C45.512 87.3521 45.038 88.1179 43.8697 87.7398C42.8977 87.4239 42.5912 86.7252 41.3511 86.572C40.6042 86.4811 39.5125 86.9788 39.0576 87.3761C39.0528 87.3809 41.3799 80.9915 41.3799 80.9915C42.4093 81.3935 42.4955 82.1545 43.4818 82.5086C44.3054 82.8054 45.4737 82.8772 46.7713 83.0351C48.3609 83.2266 49.7734 83.7626 50.4868 84.0833C50.6161 84.1407 50.7262 84.1933 50.8124 84.2364C50.9657 84.313 51.1141 84.3944 51.2577 84.4709C51.3056 84.4996 51.3535 84.5236 51.3966 84.5523C51.4684 84.5954 51.5402 84.6384 51.612 84.6767C51.636 84.6911 51.6551 84.7007 51.6743 84.715C52.1244 84.9878 52.5553 85.2941 52.9671 85.6292C53.0006 85.6579 53.0341 85.6866 53.0676 85.7153C53.0772 85.7249 53.0916 85.7345 53.1011 85.744C53.1107 85.7536 53.1251 85.7632 53.1347 85.7727L53.1442 85.7823C53.149 85.7871 53.1538 85.7919 53.1634 85.7967L53.1682 85.8015C53.1778 85.8062 53.1825 85.8158 53.1921 85.8206C53.2161 85.8397 53.2352 85.8589 53.2592 85.878C53.2687 85.8828 53.2735 85.8924 53.2831 85.8972C53.2975 85.9115 53.3166 85.9259 53.331 85.9403L53.3501 85.9594C53.3693 85.9785 53.3932 85.9977 53.4124 86.0168L53.4172 86.0216L53.4363 86.0408C53.4459 86.0455 53.4507 86.0551 53.4603 86.0599C53.4746 86.0743 53.489 86.0886 53.5034 86.0982C53.5129 86.103 53.5177 86.1126 53.5273 86.1173C53.5321 86.1221 53.5321 86.1221 53.5369 86.1269C53.5417 86.1317 53.5417 86.1317 53.5464 86.1365C53.5656 86.1556 53.5895 86.1748 53.6087 86.1987L53.6901 86.2801L53.7045 86.2944C53.7092 86.2992 53.7188 86.3088 53.7236 86.3136L53.7667 86.3566C53.7859 86.3758 53.8002 86.3901 53.8194 86.4093L53.8433 86.438C53.8481 86.4428 53.8529 86.4476 53.8577 86.4524C53.872 86.4667 53.8816 86.4811 53.896 86.4907C53.9056 86.5002 53.9103 86.5098 53.9199 86.5194C53.9343 86.5337 53.9486 86.5529 53.963 86.5672C53.9726 86.5816 53.987 86.5912 53.9965 86.6055C54.0348 86.6438 54.0683 86.6869 54.1019 86.7252C54.1162 86.7443 54.1354 86.7635 54.1497 86.7778C54.1737 86.8065 54.2024 86.84 54.2264 86.8688L54.2838 86.9405L54.3125 86.9788C54.3221 86.9884 54.3317 87.0028 54.3413 87.0123C54.3604 87.0363 54.3796 87.0602 54.3987 87.0841C54.437 87.132 54.4753 87.1798 54.5089 87.2277C54.5184 87.2421 54.5328 87.2612 54.5424 87.2756C54.6142 87.3713 54.6764 87.467 54.7339 87.5532C54.7435 87.5723 54.7578 87.5867 54.7674 87.6058C54.7866 87.6345 54.8057 87.668 54.8249 87.6967C54.8392 87.7063 54.844 87.7111 54.844 87.7207Z" fill="#5B2448"/>
<path d="M39.9388 85.5716C39.8814 85.5716 39.8478 85.5668 39.8383 85.5668C39.7664 85.5572 39.7138 85.4902 39.7186 85.4184C39.7281 85.3466 39.7904 85.294 39.8622 85.2987C39.8766 85.2987 40.6379 85.361 41.5907 84.6909C41.8014 84.5425 41.9786 84.4085 42.1318 84.2889C42.7303 83.8294 43.0559 83.5805 44.2529 83.4274C44.3247 83.4178 44.3918 83.4705 44.4013 83.5423C44.4109 83.614 44.3582 83.6811 44.2864 83.6906C43.166 83.8342 42.8739 84.0544 42.2946 84.4995C42.1413 84.6191 41.9642 84.7531 41.7439 84.9063C40.9012 85.5093 40.1926 85.5716 39.9388 85.5716Z" fill="white"/>
<path d="M51.0568 88.9937C50.8509 88.9937 50.6402 88.9842 50.4295 88.9698C49.3235 88.8837 48.1408 88.5773 46.9007 88.0557C46.1155 87.7254 45.6079 87.7924 45.1099 87.8594C44.7317 87.9121 44.3391 87.9647 43.8555 87.8211C43.3958 87.6823 43.0894 87.4622 42.7925 87.2468C42.4382 86.9932 42.1078 86.7491 41.5284 86.6581C40.0489 86.4236 39.2397 87.3808 39.2062 87.4191C39.1679 87.467 39.0961 87.4718 39.0482 87.4335C39.0003 87.3952 38.9955 87.3234 39.0338 87.2755C39.0721 87.2325 39.9532 86.1795 41.562 86.4332C42.1988 86.5337 42.5675 86.8017 42.9266 87.0602C43.2186 87.2707 43.4964 87.4718 43.9177 87.601C44.3534 87.7302 44.703 87.6823 45.0764 87.6345C45.5744 87.5675 46.1394 87.4909 46.9821 87.8451C48.1983 88.3572 49.3618 88.6587 50.4391 88.7401C52.0814 88.8645 53.5418 88.4912 54.7771 87.6201C54.8298 87.5866 54.8968 87.601 54.9304 87.6536C54.9639 87.7063 54.9495 87.7733 54.8968 87.8068C53.7908 88.5965 52.498 88.9937 51.0568 88.9937Z" fill="#5B2448"/>
<path d="M41.3176 87.4429C40.9489 87.4429 40.5994 87.529 40.336 87.6822C40.0535 87.8497 39.8955 88.0746 39.8955 88.3187C39.8955 88.5628 40.0487 88.7925 40.3312 88.9553C40.5946 89.1084 40.9441 89.1946 41.3128 89.1946H41.3176C41.6863 89.1946 42.031 89.1084 42.2944 88.9553C42.5768 88.7878 42.7301 88.5628 42.7349 88.3187C42.7349 87.8258 42.1124 87.4429 41.3176 87.4429ZM42.1986 88.7734C41.964 88.9122 41.648 88.984 41.3128 88.984C40.9776 88.984 40.6616 88.9074 40.427 88.7686C40.2115 88.6394 40.0918 88.4815 40.0918 88.3139C40.0918 88.1464 40.2115 87.9837 40.427 87.8593C40.6616 87.7205 40.9776 87.6487 41.3128 87.6487H41.3176C41.9783 87.6487 42.5385 87.955 42.5385 88.3187C42.5385 88.4862 42.4188 88.6442 42.1986 88.7734Z" fill="#5B2448"/>
<path d="M55.3084 88.3476C55.3036 88.3428 55.3036 88.338 55.3036 88.338V88.3332C55.294 88.314 55.2797 88.2758 55.2557 88.2327C55.2509 88.2231 55.2462 88.2088 55.2414 88.1992C55.1839 88.0843 55.1217 87.9647 55.0498 87.8402C55.0403 87.8211 55.0259 87.8019 55.0163 87.7828C54.9924 87.7397 54.9637 87.6966 54.9349 87.6488C54.9158 87.6201 54.8966 87.5866 54.8775 87.5579C54.8679 87.5387 54.8535 87.5196 54.8392 87.5052C54.7769 87.4095 54.7099 87.3138 54.6428 87.2276C54.6333 87.2085 54.6189 87.1941 54.6045 87.1797C54.5662 87.1271 54.5279 87.0792 54.4944 87.0362C54.4657 87.0027 54.437 86.9644 54.4082 86.9309L54.3795 86.8926C54.3651 86.8734 54.3508 86.8591 54.3364 86.8399L54.3173 86.816C54.2933 86.7873 54.2694 86.7538 54.2406 86.7251L54.2263 86.7107C54.2167 86.6964 54.2023 86.682 54.1928 86.6724C54.1592 86.6341 54.1257 86.5911 54.0874 86.5528C54.0779 86.5384 54.0635 86.5241 54.0539 86.5145C54.0395 86.4953 54.0204 86.481 54.006 86.4618C53.9965 86.4523 53.9917 86.4427 53.9821 86.4331L53.9342 86.3805C53.9103 86.3518 53.8815 86.3278 53.8576 86.2991L53.8432 86.28C53.8337 86.2704 53.8241 86.2608 53.8193 86.2513C53.8049 86.2369 53.7954 86.2273 53.781 86.213C53.7523 86.1842 53.7235 86.1555 53.6948 86.1268L53.69 86.122C53.6661 86.0981 53.6373 86.0694 53.6134 86.0455C53.5943 86.0263 53.5703 86.0024 53.5464 85.9832L53.5224 85.9641C53.4937 85.9354 53.4602 85.9067 53.4315 85.8827C53.4219 85.8732 53.4171 85.8684 53.4123 85.8636C53.3884 85.8396 53.3644 85.8205 53.3357 85.7966C53.307 85.7726 53.2782 85.7439 53.2495 85.72L53.2447 85.7152C53.2256 85.6961 53.2016 85.6769 53.1825 85.6626C53.1681 85.653 53.1585 85.6386 53.1442 85.6291C53.1107 85.6003 53.0771 85.5716 53.0436 85.5429C52.7324 85.2845 52.4068 85.0452 52.0668 84.825C51.9615 84.7532 51.8514 84.6862 51.7413 84.6192C51.7221 84.6096 51.7029 84.5953 51.6838 84.5857L51.6742 84.5809C51.6024 84.5378 51.5306 84.4948 51.4588 84.4517C51.4109 84.423 51.363 84.399 51.3151 84.3703C51.3151 84.3703 51.3151 84.3703 51.3103 84.3703C51.1523 84.2842 51.0039 84.2076 50.8602 84.1358C50.798 84.1023 50.731 84.0736 50.6639 84.0401C50.6208 84.0209 50.573 83.997 50.5251 83.9779C50.3144 83.8821 50.0511 83.7816 49.7302 83.6716C49.5196 83.5998 49.2802 83.528 49.0216 83.461C48.6817 83.37 48.2986 83.2839 47.8677 83.2073C47.8629 83.2073 47.8581 83.2073 47.8581 83.2073C47.7336 83.1834 47.6043 83.1642 47.4703 83.1403C47.3027 83.1116 47.1255 83.0877 46.9436 83.0637C46.9101 83.0589 46.8765 83.0733 46.8526 83.0924C46.8334 83.1116 46.8239 83.1307 46.8191 83.1594C46.8095 83.2217 46.8574 83.2743 46.9148 83.2839C47.092 83.3078 47.2692 83.3317 47.432 83.3557C47.475 83.3605 47.5181 83.37 47.5612 83.3748C47.9539 83.4418 48.313 83.5136 48.6338 83.5902C48.9211 83.6572 49.1796 83.729 49.4142 83.8008C49.8164 83.9252 50.142 84.0497 50.3958 84.1597C50.4102 84.1645 50.4245 84.1693 50.4341 84.1789C50.5442 84.2267 50.6544 84.2794 50.7549 84.332C50.8411 84.3751 50.9321 84.423 51.0278 84.4708C51.0853 84.4996 51.1427 84.5331 51.2002 84.5618C51.2481 84.5905 51.296 84.6144 51.3391 84.6431C51.4109 84.6862 51.4827 84.7245 51.5497 84.7676L51.5593 84.7771C51.5737 84.7867 51.5928 84.7963 51.612 84.8059C51.6742 84.8441 51.7365 84.8824 51.7939 84.9207C52.1722 85.16 52.5409 85.428 52.8904 85.7152C52.9239 85.7439 52.9574 85.7726 52.991 85.8014C53.0005 85.8109 53.0101 85.8205 53.0245 85.8301C53.0436 85.8492 53.0628 85.8636 53.0867 85.8827L53.0915 85.8875C53.1202 85.9114 53.149 85.9354 53.1777 85.9641C53.2016 85.9832 53.2256 86.0072 53.2495 86.0311L53.2687 86.0502C53.2974 86.079 53.3261 86.1029 53.3548 86.1316L53.3788 86.1507C53.3979 86.1699 53.4219 86.189 53.4458 86.213C53.4698 86.2369 53.4985 86.2608 53.5224 86.2895L53.5272 86.2943L53.6086 86.3757C53.6182 86.3853 53.6326 86.3996 53.6421 86.414C53.6517 86.4236 53.6613 86.4283 53.6661 86.4379L53.6852 86.4571C53.7092 86.4858 53.7379 86.5097 53.7618 86.5336L53.8097 86.5815C53.8193 86.5911 53.8289 86.6006 53.8384 86.6102C53.8528 86.6246 53.8672 86.6437 53.8863 86.6629C53.8959 86.6724 53.9103 86.6868 53.9198 86.7011C53.9534 86.7394 53.9869 86.7777 54.0252 86.816C54.0348 86.8304 54.0491 86.8399 54.0587 86.8543L54.0731 86.8687C54.097 86.8974 54.1257 86.9261 54.1497 86.9548L54.1688 86.9787C54.1832 86.9979 54.1976 87.0122 54.2071 87.0266L54.2359 87.0649C54.2646 87.0984 54.2933 87.1367 54.3173 87.1702C54.3508 87.2133 54.3891 87.2611 54.4274 87.3138C54.437 87.3281 54.4513 87.3425 54.4609 87.3568C54.5279 87.4478 54.5902 87.5387 54.6524 87.6296C54.662 87.644 54.6764 87.6631 54.6859 87.6823C54.6907 87.6871 54.6907 87.6919 54.6955 87.6966C54.7099 87.7206 54.729 87.7445 54.7434 87.7684C54.7482 87.7732 54.753 87.7828 54.7578 87.7876C54.7769 87.8211 54.7961 87.8546 54.8152 87.8833C54.82 87.8881 54.82 87.8929 54.8248 87.8977C54.8344 87.9168 54.8487 87.936 54.8583 87.9551C54.9301 88.0747 54.9924 88.1896 55.045 88.2997L55.0594 88.3284C55.069 88.3476 55.0738 88.3619 55.0834 88.3763C54.6428 88.8692 53.7762 89.4627 52.1147 89.6015C49.4286 89.8217 42.0022 89.7499 39.3161 89.7116C38.9187 89.7068 38.6266 89.702 38.4686 89.702C38.5069 89.5536 38.5692 89.3431 38.6458 89.0894C38.7846 88.6539 38.9762 88.0843 39.1964 87.4478C39.2203 87.3712 39.2491 87.2946 39.2778 87.218C39.3017 87.1462 39.3305 87.0697 39.3544 86.9931C39.5172 86.5336 39.6848 86.055 39.862 85.5716C39.8955 85.4807 39.9242 85.3945 39.9577 85.3036C40.3503 84.2124 40.743 83.1499 41.0255 82.3793C41.3271 81.5609 41.4277 81.2785 41.466 81.1732C41.4803 81.1302 41.4851 81.1158 41.4851 81.1062C41.4899 81.0871 41.4851 81.0631 41.4755 81.0488C41.4612 81.0201 41.4372 81.0009 41.4085 80.9914C41.4037 80.9914 41.3989 80.9866 41.3941 80.9866C41.3367 80.977 41.2744 81.0153 41.2649 81.0727C41.2314 81.1302 41.0446 81.6471 40.8052 82.3027C40.1061 84.2124 38.9091 87.4717 38.4207 89.032C38.3154 89.3718 38.2388 89.635 38.2148 89.7834V89.8025C38.2148 89.8647 38.2627 89.9126 38.325 89.9174C38.3393 89.9174 38.4926 89.9174 38.7607 89.9222C39.7662 89.9365 42.3853 89.97 45.1145 89.97C47.8437 89.97 50.6783 89.9365 52.1339 89.8169C53.1202 89.7355 54.4753 89.434 55.2988 88.4624C55.3228 88.4337 55.3323 88.3858 55.3084 88.3476Z" fill="#5B2448"/>
<path d="M46.1296 85.6817C45.9429 85.6817 45.7944 85.5333 45.7944 85.3467C45.7944 85.294 45.804 85.2462 45.828 85.1983C45.8615 85.1265 46.7138 83.4323 48.7774 82.8388C48.9546 82.7861 49.1413 82.8914 49.1892 83.0685C49.2419 83.2456 49.1365 83.4323 48.9594 83.4801C47.1878 83.9922 46.4313 85.4807 46.4265 85.4951C46.3738 85.6099 46.2541 85.6817 46.1296 85.6817Z" fill="#FFCF2D"/>
<path d="M47.5949 86.2512C47.4082 86.2512 47.2598 86.1029 47.2598 85.9162C47.2598 85.8636 47.2741 85.8109 47.2981 85.7631C47.3364 85.6913 48.2318 83.9731 50.3481 83.4849C50.53 83.4418 50.7072 83.5567 50.7503 83.7338C50.7934 83.9156 50.6785 84.0927 50.5013 84.1358C48.6962 84.5522 47.9062 86.0502 47.8966 86.0646C47.8391 86.1795 47.7194 86.2512 47.5949 86.2512Z" fill="#FFCF2D"/>
<path d="M49.2898 86.7012C49.103 86.7012 48.9546 86.5528 48.9546 86.3662C48.9546 86.3135 48.969 86.2561 48.9929 86.2082C49.0264 86.146 49.8452 84.6575 51.7796 84.2364C51.9615 84.1981 52.1387 84.313 52.177 84.49C52.2153 84.6719 52.1004 84.849 51.9232 84.8873C50.3048 85.2414 49.5914 86.5098 49.5866 86.5241C49.5244 86.6342 49.4142 86.7012 49.2898 86.7012Z" fill="#FFCF2D"/>
<path d="M15.2417 56.9125C16.6733 63.0291 24.9376 72.6779 45.0477 64.4602C45.0477 64.4602 43.3048 66.6953 40.9347 68.4374C39.278 69.6579 37.4059 70.5816 36.4674 71.4766C37.1808 71.0315 38.9716 71.2755 41.9163 75.1379C44.7748 78.8902 50.4056 79.6512 50.4056 79.6512L51.9713 77.732C51.9713 77.732 53.3263 77.0619 55.9933 77.2869C58.1384 77.4639 61.174 77.1959 63.0989 76.0377C63.0989 76.0377 62.5961 59.4396 53.2689 53.9308C45.402 49.274 30.6594 51.0161 23.4198 52.6673C21.5812 53.0885 17.1617 54.3663 15.2417 56.9125Z" fill="#21A0AA"/>
<path d="M57.5302 58.5256C57.2956 57.8986 56.9939 57.3052 56.63 56.7452C56.1704 56.2235 55.6772 55.7306 55.1505 55.2759C55.1553 55.2902 55.1649 55.3046 55.1792 55.319C56.1273 56.2475 56.8551 57.3674 57.3243 58.607C57.8749 60.0476 58.1096 61.6653 58.0138 63.417C57.7935 67.6144 55.749 72.4387 51.9473 77.7609L51.976 77.7273C51.976 77.7273 52.1005 77.6651 52.3447 77.5886C56.0315 72.3478 58.0138 67.5809 58.2341 63.4218C58.3298 61.6414 58.0904 59.9902 57.5302 58.5256Z" fill="#6CE0DC"/>
<path d="M47.408 61.0383C47.3553 61.0048 47.2883 61.0191 47.2548 61.0718C47.2404 61.0957 45.6939 63.5318 44.5591 64.6566C44.7219 64.5943 44.8847 64.5273 45.0475 64.4603C45.0475 64.4603 45.0331 64.4795 44.9996 64.5178C46.1009 63.3069 47.3841 61.2872 47.4415 61.1914C47.475 61.1388 47.4559 61.0718 47.408 61.0383Z" fill="#6CE0DC"/>
<path d="M46.7235 49.3171C45.7994 49.9249 44.8226 50.5519 43.7836 51.1789C43.5538 51.3177 43.3192 51.4565 43.0845 51.5905C43.0606 51.6048 43.0367 51.6192 43.0127 51.6335C42.96 51.6623 42.9122 51.6958 42.8595 51.7245C40.8102 52.9066 38.5502 54.0553 36.0652 55.0364C26.3262 58.8797 23.4198 52.6673 23.4198 52.6673L23.4102 52.6721C23.4006 52.6721 23.3958 52.6769 23.391 52.6769C23.3432 52.6865 23.2953 52.7008 23.2426 52.7152C23.233 52.7152 23.2235 52.72 23.2139 52.7248C23.166 52.7343 23.1181 52.7487 23.0702 52.7631C23.0224 52.7726 22.9793 52.787 22.9314 52.8013C22.8979 52.8109 22.8644 52.8205 22.8356 52.8253C22.7877 52.8396 22.7446 52.8492 22.6968 52.8636C22.6585 52.8731 22.6249 52.8827 22.5866 52.8923C22.5388 52.9066 22.4909 52.921 22.4382 52.9354C22.3712 52.9545 22.3041 52.9736 22.2371 52.9976C22.1797 53.0167 22.127 53.0311 22.0695 53.0502C21.9642 53.0837 21.8636 53.1172 21.7631 53.1507C21.72 53.1651 21.6721 53.1794 21.629 53.1938C21.5955 53.2034 21.562 53.2177 21.5333 53.2273C21.471 53.2464 21.4088 53.2704 21.3513 53.2895C21.3465 53.2895 21.3417 53.2895 21.3417 53.2943C21.2891 53.3135 21.2412 53.3278 21.1885 53.347C21.1502 53.3613 21.1119 53.3757 21.0736 53.39C21.0114 53.414 20.9491 53.4379 20.8917 53.457C20.8438 53.4762 20.7911 53.4953 20.7432 53.5145C20.6522 53.5528 20.5565 53.5863 20.4655 53.6245C20.4176 53.6437 20.3697 53.6628 20.3219 53.682C20.2692 53.7059 20.2117 53.7298 20.1591 53.749C20.1112 53.7681 20.0681 53.7873 20.025 53.8064C19.8431 53.8878 19.6659 53.9644 19.4935 54.0457C19.4552 54.0649 19.4169 54.084 19.3786 54.0984C19.3068 54.1319 19.235 54.1702 19.1631 54.2037C19.1057 54.2324 19.053 54.2611 18.9956 54.2898C18.9429 54.3185 18.8854 54.3425 18.8328 54.3712C18.828 54.376 18.8184 54.376 18.8136 54.3807C18.7609 54.4095 18.7083 54.4382 18.6556 54.4621C18.4018 54.5961 18.1672 54.7301 17.9422 54.8641C17.8991 54.8929 17.8512 54.9168 17.8081 54.9455C17.7794 54.9646 17.7506 54.979 17.7219 54.9981C17.6836 55.0221 17.6453 55.046 17.6022 55.0699C17.5735 55.0891 17.5448 55.1082 17.516 55.1274C17.4729 55.1561 17.4251 55.1848 17.382 55.2135C17.3389 55.2422 17.2958 55.271 17.2527 55.2997C17.2096 55.3284 17.1713 55.3571 17.1282 55.381C17.0899 55.405 17.0516 55.4289 17.0181 55.4576C16.975 55.4863 16.9319 55.515 16.8936 55.5438C16.8553 55.5725 16.817 55.5964 16.7835 55.6251C16.6015 55.7543 16.4339 55.8836 16.2807 55.9984C16.252 56.0224 16.2232 56.0463 16.1945 56.0702C16.1658 56.0942 16.1371 56.1181 16.1083 56.1372C16.0844 56.1564 16.0604 56.1755 16.0365 56.1947C16.0078 56.2186 15.979 56.2425 15.9503 56.2665C15.9264 56.2856 15.9024 56.3095 15.8785 56.3287C15.596 56.568 15.4093 56.7499 15.3183 56.8456C15.3087 56.8551 15.3039 56.8599 15.2991 56.8647C15.2848 56.8791 15.2752 56.8886 15.2704 56.8982C15.2608 56.9078 15.2608 56.9126 15.256 56.9126V56.9174C15.0645 56.1229 14.9113 55.3236 14.7964 54.5195C14.6623 53.5719 14.5809 52.6195 14.5474 51.6623C14.5139 50.6907 14.533 49.7143 14.6001 48.7428C15.2704 38.9935 20.8964 29.5171 29.0745 25.4681C29.1463 25.4298 29.2182 25.3963 29.2948 25.3628C30.0705 24.9895 30.8653 24.6688 31.684 24.396L37.5399 28.2584L37.7171 28.3732C37.7171 28.3732 37.7219 28.378 37.7219 28.3828C37.7219 28.3828 37.7219 28.3876 37.7266 28.3876C37.741 28.4115 37.7506 28.4354 37.7649 28.4594C37.7793 28.4881 37.7937 28.5168 37.8128 28.5455L37.8559 28.6317L37.9421 28.804C37.9565 28.8327 37.966 28.8566 37.9804 28.8853C38.0187 28.9715 38.0618 29.0624 38.0953 29.1486C38.1049 29.1773 38.1193 29.206 38.1288 29.2347C38.1384 29.2634 38.1528 29.2921 38.1624 29.3209C38.1719 29.3496 38.1815 29.3735 38.1959 29.4022C38.2533 29.5506 38.3012 29.6942 38.3491 29.833C38.3587 29.8569 38.3635 29.8808 38.373 29.9C38.3826 29.9287 38.3874 29.9526 38.397 29.9766C38.4066 30.0005 38.4113 30.0292 38.4209 30.0531C38.4353 30.1058 38.4496 30.1536 38.464 30.2063C38.4688 30.2302 38.4784 30.2542 38.4832 30.2829C38.4975 30.3307 38.5071 30.3834 38.5215 30.4312C38.531 30.4743 38.5406 30.5174 38.5502 30.5605C38.555 30.57 38.555 30.5844 38.5598 30.594C38.5741 30.6562 38.5885 30.7136 38.5981 30.771V30.7758C38.6172 30.862 38.6316 30.9433 38.646 31.0247C38.6555 31.0869 38.6651 31.1444 38.6747 31.2018V31.2066C38.6938 31.3167 38.7034 31.422 38.713 31.5129C38.713 31.5272 38.7178 31.5416 38.7178 31.5607C38.7226 31.5895 38.7226 31.6182 38.7274 31.6421C38.7274 31.6708 38.7321 31.6948 38.7321 31.7187C38.7321 31.733 38.7321 31.7426 38.7369 31.757C38.7417 31.8479 38.7465 31.9197 38.7465 31.9676V31.9819V32.0298C39.9483 33.7336 41.2651 37.9262 41.447 38.5245C41.4422 38.5293 41.4374 38.5341 41.4422 38.5436C41.538 38.8978 41.6242 39.252 41.7056 39.6061C41.7822 39.9507 42.0455 41.1712 42.0599 41.2478V41.2525C42.0647 41.2525 42.0695 41.2478 42.0742 41.2478C42.2275 41.2095 43.6783 40.7883 44.588 40.5346L44.6886 40.5059C44.7795 40.482 44.8705 40.4581 44.9567 40.4293V40.4437V40.4916V40.5394V40.616C44.9519 41.5636 45.0141 45.2681 46.2399 48.2785C46.2447 48.2833 46.2447 48.2881 46.2495 48.2976C46.3883 48.6518 46.5463 48.9916 46.7235 49.3171Z" fill="#66B0F0"/>
<path d="M45.2295 12.4739C44.6788 12.115 43.9894 12.0432 43.3765 12.2825C42.9743 10.1671 40.2211 10.2245 39.6801 11.7369C37.9659 10.0953 35.4282 11.9379 36.0076 13.7375C36.2183 14.3979 36.5151 15.5897 36.1081 16.6235C36.9796 17.1404 38.4639 19.7488 38.4639 19.7488C38.4639 19.7488 42.0837 15.7715 43.726 15.8098C46.3116 15.8673 46.393 13.2636 45.2295 12.4739Z" fill="#5B2448"/>
<path d="M42.2467 12.9478C42.2323 12.9669 42.2275 12.9861 42.2275 13.01C42.2275 13.0722 42.2754 13.1201 42.3377 13.1201C42.376 13.1201 42.4095 13.1009 42.4286 13.0722C43.1469 12.0049 44.1907 12.1581 44.2338 12.1629C44.2577 12.1676 44.2816 12.1629 44.3008 12.1533C43.9896 12.1246 43.6735 12.1676 43.3719 12.2825C43.3575 12.2059 43.3384 12.1341 43.3192 12.0671C42.9745 12.1964 42.5771 12.4548 42.2467 12.9478Z" fill="#9B3C82"/>
<path d="M45.4644 22.1754C45.4596 22.745 45.1052 23.3097 44.4828 23.5921C42.8548 24.3292 40.8582 23.6735 40.8582 23.6735C40.8582 23.6735 38.2726 25.8368 37.7268 28.3734C37.6933 28.3686 37.5783 28.359 37.5448 28.359C36.817 28.2825 33.9346 27.7656 31.689 24.3962C31.689 24.3962 34.4996 22.5775 35.7876 20.596C34.7055 20.3519 33.5803 19.1363 33.9777 17.6765C34.2075 16.8437 35.1603 16.346 36.0222 16.5614C36.908 16.7815 37.4347 17.5712 38.0572 18.3753C38.761 19.2894 39.0579 18.605 39.4457 17.7435C39.6947 17.1931 39.982 16.5661 40.4416 16.2455C41.4806 15.518 43.7311 15.8052 43.7311 15.8052C43.7311 15.8052 43.7167 16.1019 43.7215 16.4752C43.7311 16.9682 43.7789 17.5952 43.9561 17.8536C44.2625 18.3083 44.6073 18.2604 44.5977 18.5428C44.5881 18.7869 44.2961 19.0549 44.1285 19.1698C44.1045 20.8305 45.4787 20.8449 45.4644 22.1754Z" fill="#F4ADA2"/>
<path d="M37.2908 20.821C37.3482 20.8018 37.3817 20.7396 37.3626 20.6822C37.3434 20.6247 37.2812 20.5912 37.2237 20.6104C36.7018 20.7731 36.0985 20.6822 35.7825 20.6104C35.7394 20.6774 35.6963 20.7444 35.6484 20.8066C35.9501 20.8832 36.2565 20.9215 36.563 20.9263C36.8072 20.9263 37.0514 20.8928 37.2908 20.821Z" fill="#9B3C82"/>
<path d="M39.0337 22.1753C38.7512 22.3093 38.3633 23.927 39.7519 24.7693C40.3552 24.0945 40.8579 23.6829 40.8579 23.6781C40.8579 23.6733 39.6418 23.1612 39.0337 22.1753Z" fill="#5B2448"/>
<path d="M40.6092 16.8054L40.6188 16.7144C40.6235 16.6857 40.6283 16.6618 40.6331 16.6331C40.6475 16.5804 40.6619 16.5278 40.681 16.4799C40.7193 16.3794 40.772 16.2837 40.8342 16.1975C40.9635 16.0109 41.1359 15.8577 41.3322 15.7476C41.4375 15.6902 41.5477 15.6471 41.6626 15.6184C41.7775 15.5897 41.902 15.5801 42.0217 15.5849C42.1414 15.5897 42.2563 15.6184 42.3664 15.6615C42.4718 15.7046 42.5723 15.7668 42.6537 15.8529C42.7543 15.9534 42.7495 16.1162 42.6489 16.2119C42.625 16.2358 42.601 16.2502 42.5723 16.2645L42.5292 16.2837C42.4382 16.322 42.3616 16.3459 42.2898 16.3698C42.218 16.3938 42.1557 16.4225 42.0983 16.4416C41.9834 16.4895 41.8828 16.5326 41.7679 16.5804C41.6578 16.6331 41.5429 16.6953 41.4136 16.7719L41.2125 16.8915C41.179 16.9107 41.1407 16.9346 41.1071 16.9537C41.088 16.9633 41.0688 16.9729 41.0497 16.9872C41.0305 16.9968 41.0114 17.0064 40.9922 17.0112L40.839 17.0351C40.7241 17.0542 40.6188 16.9777 40.5996 16.8628C40.6044 16.8484 40.6044 16.8245 40.6092 16.8054Z" fill="#5B2448"/>
<path d="M41.653 17.7051C41.902 17.6285 42.51 17.4562 43.0559 17.1116C43.1325 17.0637 43.233 17.0877 43.2809 17.1643C43.4054 17.3605 43.5443 17.7194 43.1421 17.9013C42.6489 18.131 41.811 18.0449 41.6147 17.8391C41.5812 17.8056 41.5859 17.7529 41.6195 17.7194C41.629 17.7146 41.6434 17.7099 41.653 17.7051Z" fill="#5B2448"/>
<path opacity="0.52" d="M40.3363 21.1703C40.9815 21.1703 41.5046 20.6475 41.5046 20.0025C41.5046 19.3576 40.9815 18.8347 40.3363 18.8347C39.691 18.8347 39.168 19.3576 39.168 20.0025C39.168 20.6475 39.691 21.1703 40.3363 21.1703Z" fill="#E57281"/>
<path d="M43.5729 20.6676C43.4963 20.7299 43.4053 20.7777 43.3095 20.8064C43.2138 20.8352 43.118 20.8447 43.0175 20.8399C42.7158 20.8399 42.4285 20.7012 42.2418 20.4618C42.1795 20.3853 42.1317 20.2991 42.0934 20.2034C42.0215 20.0167 42.0167 19.8109 42.079 19.6243C42.0981 19.5716 42.1556 19.5477 42.2083 19.5669C42.2514 19.5812 42.2753 19.6243 42.2753 19.6674V19.6721C42.2657 19.8157 42.2945 19.9641 42.3615 20.0933C42.395 20.1555 42.4333 20.2178 42.4812 20.2704C42.5291 20.3231 42.5817 20.3709 42.6392 20.414C42.7589 20.4906 42.8978 20.5432 43.0414 20.5576C43.185 20.5815 43.3335 20.5624 43.4628 20.5049H43.4675C43.5202 20.481 43.5777 20.5049 43.6016 20.5528C43.6208 20.5911 43.6112 20.6389 43.5729 20.6676Z" fill="#9B3C82"/>
<path d="M36.9079 19.385C36.8553 19.385 36.8122 19.3467 36.7978 19.2989C36.477 17.82 35.28 17.7865 35.2273 17.7865C35.1651 17.7865 35.1172 17.7338 35.1172 17.6716C35.1172 17.6094 35.1651 17.5615 35.2273 17.5615C35.2417 17.5615 36.6542 17.5902 37.0133 19.251C37.0276 19.3132 36.9893 19.3707 36.9271 19.385C36.9223 19.3802 36.9127 19.385 36.9079 19.385Z" fill="#9B3C82"/>
<path d="M63.9892 42.6167C63.4769 42.1428 62.5576 41.4536 62.0213 41.0995C62.6916 41.3244 65.9523 42.0375 63.6301 40.3863C63.5822 40.3528 63.0603 39.9939 62.8544 39.8551C60.1779 38.0842 56.922 37.5817 53.7762 38.2135C53.1681 38.3331 46.1583 40.0705 46.1583 40.0705L44.9517 40.4294C44.9517 40.4294 44.7793 45.742 46.7185 49.3172C47.7479 48.6375 48.7103 47.9771 49.6009 47.3644C50.5538 46.7135 51.4252 46.1153 52.22 45.6127C53.5224 44.7847 54.6237 44.2008 55.5382 43.9998C57.6641 43.5356 59.4261 44.7608 61.2552 45.3399C63.0843 45.919 62.9071 45.115 60.9009 43.8227C61.0014 43.8658 65.5741 45.8999 64.0275 43.9998C64.0371 44.0046 66.2683 44.7177 63.9892 42.6167Z" fill="#F4ADA2"/>
<path d="M42.0646 41.2574C42.0646 41.2574 41.8922 39.7976 41.5571 38.6346C41.0687 36.926 40.0392 33.8629 38.7464 32.0346C38.7464 32.0346 38.7464 30.2494 37.7218 28.3733C37.6787 30.3834 37.7218 32.6377 37.7218 32.6377C37.7218 32.6377 38.4783 39.6253 38.0282 42.5305L42.0646 41.2574Z" fill="#F94F46"/>
<path d="M23.4056 52.6721C17.8753 54.0122 15.2419 56.9125 15.2419 56.9125C15.0504 56.118 14.8971 55.3188 14.7822 54.5147C14.787 54.5099 14.7918 54.5051 14.7918 54.5051C17.6072 51.5569 22.5916 50.6523 22.5916 50.6523C22.5916 50.6523 23.4104 52.6673 23.4056 52.6721Z" fill="#5B2448"/>
<path d="M38.876 32.226C38.8329 32.159 38.7898 32.0968 38.7467 32.0346C38.7467 32.0346 38.7467 32.0346 38.7467 32.0298C38.5025 32.36 38.0907 32.6903 37.7412 32.8721C37.746 32.9391 37.7556 33.0157 37.7652 33.1067C38.1386 32.9296 38.5887 32.5898 38.876 32.226Z" fill="#66B0F0"/>
<path d="M42.0216 41.2669C39.5127 42.0088 36.2328 42.9995 35.8258 43.1239C35.9264 42.6453 36.0078 42.1523 36.0844 41.6498C36.4387 39.1898 36.4674 36.5431 36.161 34.0017C36.0557 33.1449 35.9024 32.3505 35.7061 31.623C36.4627 32.9727 36.9463 33.7576 37.3341 33.7576C37.3628 33.7576 37.3868 33.7528 37.4155 33.748C37.7698 33.6427 38.0571 32.9391 37.7267 28.3684C37.7171 28.3684 37.6597 28.3637 37.5448 28.3541C37.6788 30.1824 37.7171 31.4938 37.674 32.3552C37.6214 33.3507 37.4586 33.547 37.3676 33.5757C37.2766 33.6044 37.0851 33.5135 36.6925 32.9344C36.3813 32.4749 36.0126 31.8048 35.6199 31.0965C35.5625 30.9912 35.505 30.8859 35.4476 30.7806C34.7102 28.6891 33.5371 27.3107 32.0576 26.8704C31.9666 26.8417 31.8709 26.8178 31.7751 26.7986C31.7703 26.7843 31.7607 26.7747 31.7464 26.7651C30.7744 26.0663 29.9029 25.6069 29.3044 25.3628C29.2326 25.3963 29.156 25.4346 29.0842 25.4681C29.6157 25.6643 30.4488 26.0807 31.4016 26.7364C29.9125 26.5737 27.71 27.2485 24.8802 30.5892C21.7057 34.3367 21.0928 39.1706 21.1407 42.5687C21.1982 46.7613 23.2523 52.7104 23.2523 52.7104L23.4342 52.6673C23.4342 52.6673 21.3801 46.7374 21.3227 42.5687C21.2796 39.2041 21.8829 34.4133 25.0191 30.7088C26.331 29.1581 27.6238 28.0621 28.8496 27.4543C29.9843 26.8943 31.0473 26.7555 32.0097 27.0427C33.0392 27.3538 33.9154 28.1291 34.6144 29.3592C35.2944 30.5605 35.7732 32.1734 35.9934 34.0304C36.2951 36.5574 36.2711 39.185 35.9168 41.6307C35.8354 42.1811 35.7396 42.7219 35.6295 43.2436V43.2531C35.1747 45.3973 34.4612 47.283 33.4988 48.872C33.4749 48.9151 33.4844 48.9677 33.5275 48.9964C33.5706 49.0204 33.6233 49.0108 33.652 48.9677C34.5474 47.4888 35.2273 45.761 35.687 43.8131C35.9695 47.0246 35.1076 49.9824 35.098 50.0159C35.0933 50.0254 35.0933 50.0302 35.0933 50.0398C35.0933 50.0876 35.1316 50.1307 35.1842 50.1307C35.2225 50.1307 35.2608 50.1068 35.2704 50.0685C35.28 50.035 36.2376 46.7518 35.821 43.3297C36.252 43.1957 38.5694 42.4874 41.0257 41.7599C40.7863 44.33 41.1933 49.0012 42.8691 51.7341C42.9218 51.7053 42.9745 51.6718 43.0224 51.6431C42.0695 50.1068 41.6099 48.0775 41.3896 46.6369C41.1311 44.933 41.0592 43.0904 41.1981 41.6977C41.3465 41.6546 42.3233 41.3435 43.2522 41.0755C44.1236 40.8266 44.9568 40.616 44.9568 40.616V40.4294C44.952 40.4294 43.6496 40.7883 42.0216 41.2669Z" fill="#B0DCF7"/>
<path d="M59.7949 40.1088C59.7758 40.1662 59.8093 40.2285 59.8715 40.2476C59.8859 40.2524 61.0638 40.6113 62.031 41.1043C62.189 41.157 62.4811 41.2335 62.8114 41.3005C61.8107 40.6066 60.0152 40.0562 59.9386 40.0322C59.8763 40.0131 59.8141 40.0466 59.7949 40.1088Z" fill="#9B3C82"/>
<path d="M64.3535 43.9808C63.1852 42.9039 61.0018 41.7361 59.3835 41.3197C59.326 41.3053 59.2638 41.3388 59.2494 41.4011C59.235 41.4585 59.2685 41.5207 59.3308 41.5399C60.8247 41.9227 62.8836 43.0044 64.0471 44.0095C64.0854 44.0191 64.229 44.0621 64.3918 44.0908C64.3918 44.0908 64.3918 44.0908 64.3918 44.0861C64.4014 44.0478 64.3822 44.0095 64.3535 43.9808Z" fill="#9B3C82"/>
<path d="M58.9043 42.7795C58.8804 42.8369 58.9139 42.9039 58.9713 42.923C58.9857 42.9278 60.1636 43.3729 61.0446 43.8803C61.2217 43.9568 61.5521 44.0956 61.94 44.244C61.2074 43.5213 59.1389 42.746 59.0527 42.7124C58.9905 42.6933 58.9235 42.722 58.9043 42.7795Z" fill="#9B3C82"/>
<path d="M52.2296 45.6127C51.4348 46.12 50.5585 46.7135 49.6105 47.3644C48.7678 45.8376 48.04 43.9854 47.5229 42.0997C47.4798 41.9322 47.4319 41.7695 47.3936 41.602C47.2883 41.1808 47.1925 40.7644 47.1111 40.3432C47.1063 40.3193 47.1015 40.2954 47.0967 40.2714C47.0632 40.1087 47.0345 39.946 47.0106 39.788C47.0058 39.7689 47.0058 39.7498 47.001 39.7306L47.2117 39.6971L49.2849 39.3525L50.0989 39.2185C50.1803 39.6971 50.2808 40.1805 50.3957 40.6687C50.4388 40.8506 50.4867 41.0324 50.5346 41.2095C50.9607 42.7841 51.5545 44.3396 52.2296 45.6127Z" fill="#5B2448"/>
<path d="M48.0404 38.3619C49.4577 37.8785 50.8845 38.2853 51.2245 39.2761C51.5645 40.2668 50.6882 41.4633 49.271 41.9467C47.8537 42.4301 46.4077 42.028 46.0438 41.0469C45.6128 39.8887 46.6231 38.8501 48.0404 38.3619Z" fill="#5B2448"/>
<path d="M49.3376 42.1571C49.826 41.9896 50.2522 41.7455 50.6017 41.4535C50.5778 41.3769 50.5586 41.2956 50.5347 41.219C50.1947 41.5205 49.7638 41.7742 49.2658 41.9465C48.6577 42.1523 48.0496 42.2001 47.5229 42.114C47.5421 42.1906 47.566 42.2671 47.59 42.3485C47.7384 42.3677 47.8916 42.3772 48.0496 42.3772C48.4901 42.3772 48.9259 42.3006 49.3376 42.1571Z" fill="white"/>
<path d="M49.0855 41.4095C50.4619 40.9401 51.3431 39.8721 51.0537 39.024C50.7642 38.176 49.4137 37.8691 48.0372 38.3385C46.6608 38.8079 45.7796 39.8759 46.069 40.724C46.3585 41.572 47.709 41.879 49.0855 41.4095Z" fill="white"/>
<path d="M47.8199 41.7216C46.9197 41.7216 46.192 41.3722 45.9813 40.7596C45.8281 40.3193 45.9621 39.812 46.3548 39.3382C46.7378 38.8739 47.3219 38.491 48.0066 38.2565C49.4287 37.7683 50.8364 38.1034 51.1381 38.9984C51.2913 39.4387 51.1572 39.946 50.7646 40.4198C50.3816 40.8841 49.7974 41.267 49.1127 41.5015C48.6722 41.6498 48.2269 41.7216 47.8199 41.7216ZM48.0641 38.424C47.4129 38.649 46.8575 39.0127 46.4936 39.4482C46.1441 39.8742 46.0196 40.3193 46.1489 40.6974C46.4218 41.4967 47.7289 41.7791 49.0552 41.3244C49.7064 41.0994 50.2618 40.7357 50.6257 40.3002C50.9753 39.8742 51.0998 39.4291 50.9705 39.051C50.6976 38.2517 49.3904 37.9693 48.0641 38.424Z" fill="#5B2448"/>
<path d="M48.7582 40.7309C48.7056 40.7309 48.6625 40.6974 48.6481 40.6496L48.3895 39.6732C48.3752 39.6158 48.4087 39.5535 48.4662 39.5392L49.984 39.118C50.0414 39.0989 50.1037 39.1372 50.1228 39.1946C50.142 39.252 50.1037 39.3142 50.0462 39.3334L48.6337 39.7211L48.8684 40.5873C48.8827 40.6448 48.8492 40.707 48.7917 40.7261C48.7774 40.7309 48.7678 40.7309 48.7582 40.7309Z" fill="#5B2448"/>
</g>
<g clip-path="url(#clip6_103_2526)">
<path d="M32.7183 80.9113C32.7183 80.9113 32.8853 75.0971 38.9736 70.2825C43.193 66.9458 50.4771 63.6058 53.2064 55.9458C54.9251 51.122 54.7552 46.3376 58.0664 43.9588C59.0594 43.2454 59.9618 42.7329 61.1753 42.3126C62.3112 41.9192 64.1112 41.612 64.1112 41.612C64.1112 41.612 63.1426 40.9506 61.4105 40.7075C56.3083 39.9915 50.0199 41.1549 47.4844 42.4387C46.0129 43.1838 45.1442 44.5003 44.5581 45.6769C43.5948 47.6103 43.439 50.5932 43.3984 51.7098C43.3626 52.6935 42.9093 54.2887 40.7635 55.852C37.4116 58.294 32.0727 60.5082 28.8387 62.5228C20.8162 67.5202 19.2464 72.8389 18.0884 77.1364C26.0707 78.197 32.7183 80.9113 32.7183 80.9113Z" fill="white"/>
<path d="M32.7185 81.0001C32.7072 81.0001 32.6958 80.998 32.6851 80.9936C32.6187 80.9665 25.9557 78.2714 18.077 77.2245C18.0517 77.2212 18.029 77.207 18.0149 77.1857C18.0007 77.1644 17.9964 77.1381 18.0031 77.1134C18.5111 75.2281 19.2068 72.646 20.8142 70.0454C22.5918 67.1696 25.2014 64.6843 28.7921 62.4475C30.1321 61.6128 31.8161 60.7523 33.5989 59.8414C36.1317 58.5471 38.7508 57.2088 40.7116 55.7803C42.792 54.2646 43.2729 52.7284 43.31 51.7066C43.4055 49.0795 43.8098 46.9807 44.4791 45.6373C44.9871 44.6176 45.8472 43.1685 47.4446 42.3596C48.7569 41.6952 51.0103 41.088 53.4726 40.7354C56.2733 40.3344 59.0968 40.2933 61.4229 40.6198C63.1556 40.8629 64.121 41.5113 64.1613 41.5388C64.1911 41.5592 64.2056 41.5957 64.1979 41.631C64.1902 41.6664 64.1619 41.6935 64.1262 41.6996C64.1083 41.7027 62.3203 42.0101 61.2044 42.3966C60.0921 42.7819 59.1979 43.2554 58.1182 44.031C55.8854 45.6351 55.2576 48.3342 54.5306 51.4594C54.1898 52.9245 53.8375 54.4396 53.2901 55.9758C52.3369 58.6508 50.7517 61.0339 48.4438 63.2614C46.4384 65.1968 44.167 66.7466 42.1629 68.1138C41.0259 68.8895 39.952 69.6222 39.0287 70.3523C35.9026 72.8245 34.3775 75.564 33.6487 77.4269C32.8587 79.4461 32.8076 80.8996 32.8071 80.9141C32.8062 80.9431 32.7913 80.97 32.7669 80.9858C32.7522 80.9953 32.7354 81.0001 32.7185 81.0001ZM18.2005 77.0619C25.493 78.045 31.7248 80.4244 32.6376 80.7837C32.6681 80.3856 32.8146 79.0751 33.4805 77.3701C34.217 75.4846 35.7583 72.7123 38.9189 70.213C39.8471 69.479 40.9235 68.7446 42.0631 67.9671C44.0614 66.6038 46.3263 65.0586 48.3208 63.1335C50.6086 60.9255 52.1795 58.5647 53.1232 55.9161C53.6671 54.3894 54.0183 52.8794 54.358 51.4191C55.0931 48.259 55.7279 45.5298 58.0149 43.8868C59.1095 43.1004 60.0168 42.6201 61.1465 42.2289C62.0327 41.9219 63.3329 41.665 63.8608 41.5671C63.4957 41.3679 62.6438 40.9703 61.3984 40.7955C59.0883 40.4714 56.2825 40.5124 53.4977 40.9111C51.0535 41.2611 48.8205 41.8618 47.5246 42.518C45.9741 43.303 45.1344 44.7194 44.6376 45.7165C43.9795 47.0374 43.5817 49.111 43.4872 51.713C43.4486 52.7742 42.9539 54.3661 40.8159 55.9237C38.8438 57.3605 36.2183 58.7021 33.6794 59.9994C31.9 60.9086 30.2193 61.7675 28.8857 62.5982C20.7948 67.6383 19.2766 73.0699 18.2005 77.0619Z" fill="#5B2448"/>
<path d="M52.2831 53.7139C52.2829 53.7139 52.2828 53.7139 52.2827 53.7139L43.9408 53.6817C43.8919 53.6815 43.8524 53.6416 43.8525 53.5926C43.8527 53.5435 43.8943 53.5035 43.9415 53.5042L52.2834 53.5364C52.3323 53.5366 52.3718 53.5764 52.3717 53.6255C52.3715 53.6744 52.3319 53.7139 52.2831 53.7139Z" fill="#5B2448"/>
<path d="M51.6556 55.0107C51.6555 55.0107 51.6554 55.0107 51.6553 55.0107L43.3133 54.9785C43.2644 54.9783 43.2249 54.9385 43.2251 54.8894C43.2253 54.8405 43.2649 54.801 43.3137 54.801H43.3141L51.656 54.8332C51.7049 54.8334 51.7444 54.8733 51.7442 54.9223C51.7441 54.9712 51.7044 55.0107 51.6556 55.0107Z" fill="#5B2448"/>
<path d="M48.5904 55.9577L48.2859 56.5048C47.7183 57.5246 46.985 58.4425 46.1161 59.2209L45.4486 59.8187C45.4289 59.8429 45.3974 59.8541 45.3669 59.8478L38.978 58.522C38.89 58.5037 38.8656 58.3895 38.9384 58.3367L39.4982 58.0169C40.5679 57.4059 41.5569 56.6631 42.4422 55.8057L42.4709 55.7779C42.4915 55.763 42.5164 55.7551 42.5418 55.7554L48.5265 55.8211C48.5965 55.8219 48.6346 55.9034 48.5904 55.9577Z" fill="#9B3C82"/>
<path d="M45.7931 62.2834C45.7857 62.2834 45.7782 62.2824 45.7707 62.2805L36.5642 59.8714C36.5169 59.8591 36.4886 59.8105 36.5009 59.7631C36.5133 59.7158 36.5615 59.6873 36.609 59.6997L45.8154 62.1088C45.8627 62.1211 45.8911 62.1696 45.8787 62.2171C45.8684 62.2569 45.8325 62.2834 45.7931 62.2834Z" fill="#5B2448"/>
<path d="M43.5029 63.5456C43.4945 63.5456 43.486 63.5444 43.4775 63.5419L34.4354 60.8416C34.3885 60.8275 34.3618 60.7781 34.3758 60.7312C34.3898 60.6841 34.4393 60.6575 34.486 60.6714L43.5281 63.3718C43.5751 63.3858 43.6017 63.4352 43.5878 63.4822C43.5763 63.5207 43.5411 63.5456 43.5029 63.5456Z" fill="#5B2448"/>
<path d="M41.2797 64.7773C41.2714 64.7773 41.2628 64.7761 41.2544 64.7736L32.2123 62.0732C32.1653 62.0592 32.1387 62.0098 32.1526 61.9628C32.1666 61.9158 32.2162 61.8892 32.2629 61.9031L41.305 64.6034C41.3519 64.6174 41.3786 64.6669 41.3646 64.7138C41.3532 64.7524 41.3179 64.7773 41.2797 64.7773Z" fill="#5B2448"/>
<path d="M32.0732 77.0199C32.0638 77.0199 32.0543 77.0184 32.0449 77.0152L29.894 76.2876C27.4534 75.4619 24.9272 74.8298 22.3856 74.4088L20.0546 74.0227C20.0063 74.0147 19.9737 73.969 19.9817 73.9207C19.9896 73.8723 20.0351 73.8398 20.0836 73.8476L22.4145 74.2337C24.9656 74.6562 27.5011 75.2907 29.9507 76.1195L32.1016 76.8471C32.148 76.8628 32.1728 76.9131 32.1572 76.9595C32.1447 76.9966 32.1102 77.0199 32.0732 77.0199Z" fill="#5B2448"/>
<path d="M52.7118 52.4173C52.7116 52.4173 52.7116 52.4173 52.7114 52.4173L44.3695 52.385C44.3206 52.3848 44.2811 52.3449 44.2813 52.2959C44.2814 52.247 44.321 52.2075 44.3699 52.2075H44.3702L52.7121 52.2398C52.761 52.24 52.8006 52.2799 52.8004 52.3289C52.8002 52.3778 52.7606 52.4173 52.7118 52.4173Z" fill="#5B2448"/>
<path d="M28.743 76.7827C28.7095 76.7827 28.6757 76.7776 28.6425 76.7671C28.5078 76.7242 28.4149 76.6007 28.4109 76.4592L28.3497 74.2687C28.3446 74.0849 28.4891 73.9318 28.6726 73.9267C28.8539 73.921 29.0089 74.0663 29.014 74.25L29.0485 75.4863L31.1777 72.6394C31.2877 72.4923 31.496 72.4624 31.6429 72.5725C31.7897 72.6828 31.8196 72.8914 31.7096 73.0385L29.0089 76.6494C28.9451 76.7348 28.8458 76.7827 28.743 76.7827Z" fill="#F94F46"/>
</g>
<g clip-path="url(#clip7_103_2526)">
<path d="M42.8579 51.825C40.8008 53.0127 38.5268 54.1679 36.0253 55.1532C26.2233 59.0159 23.3003 52.7735 23.3003 52.7735C27.9003 51.7244 35.5125 50.6392 42.4912 51.1584C42.561 51.1634 42.6307 51.1688 42.7004 51.1741C43.0666 51.2034 43.4307 51.2369 43.7926 51.2748C43.561 51.4137 43.3263 51.5525 43.0886 51.6911C43.0639 51.7055 43.0387 51.7199 43.014 51.7347H43.0135C42.9618 51.7644 42.91 51.7949 42.8579 51.825Z" fill="#21A0AA"/>
<path d="M64.5312 44.1488C64.4145 44.1273 64.299 44.0994 64.1853 44.0652C64.1781 44.0629 64.1741 44.0616 64.1741 44.0616C65.2595 45.3935 63.3509 44.8028 62.0616 44.3084C61.6734 44.1591 61.3414 44.0189 61.1642 43.9425C61.0855 43.9088 61.0373 43.8872 61.0284 43.8831C63.0499 45.1849 63.2294 45.9927 61.3864 45.4092C59.5434 44.8258 57.7688 43.5968 55.6308 44.062C54.7135 44.2616 53.6051 44.8514 52.2934 45.6825C51.4914 46.1909 50.6124 46.7897 49.6551 47.4446C48.7581 48.0582 47.7919 48.7208 46.7537 49.4058C46.6669 49.246 46.2835 49.2126 46.2049 49.0462C44.5161 45.4785 44.9741 40.4691 44.9741 40.4691L46.1878 40.1099C46.1878 40.1099 53.2426 38.3645 53.853 38.2422C57.0163 37.6075 60.2965 38.1128 62.9878 39.891C63.1948 40.0277 63.7233 40.3922 63.7692 40.4246C65.5645 41.7003 64.0463 41.5731 62.9393 41.343H62.9388C62.6742 41.2903 62.4125 41.224 62.1547 41.1443L62.1507 41.1429C62.6901 41.5021 63.6127 42.1943 64.1291 42.6699C65.8043 44.2113 65.0562 44.2437 64.5312 44.1488Z" fill="#F4ADA2"/>
<path d="M46.7529 49.4055C45.8245 50.0186 44.8384 50.6484 43.7926 51.275C43.5609 51.4139 43.3262 51.5527 43.0886 51.6913C43.0638 51.7057 43.0386 51.72 43.0139 51.7349H43.0135C42.9617 51.7645 42.91 51.7951 42.8578 51.8252C40.8007 53.0128 38.5268 54.1681 36.0252 55.1534C26.2233 59.0161 23.3002 52.7737 23.3002 52.7737L23.2881 52.7764V52.7768C23.2881 52.7768 23.033 52.0109 22.6984 50.8565C22.6876 50.8197 22.6763 50.7819 22.6655 50.7437C22.6646 50.7406 22.6637 50.7379 22.6628 50.7347L22.648 50.6821C22.5562 50.3553 22.1176 48.7753 21.7276 46.9984C21.3925 45.4745 21.0933 43.8055 21.078 42.6588C21.0322 39.2443 21.6349 34.3855 24.8297 30.6173C27.4275 27.553 29.4324 26.7465 30.9155 26.7465C31.0505 26.7465 31.1778 26.6939 31.3024 26.7002C31.3096 26.7007 31.3168 26.7011 31.324 26.702L31.7005 26.7618V26.7623C31.799 26.7834 31.8755 26.8549 31.9668 26.8823C33.4567 27.3286 34.6055 28.6898 35.3482 30.7921C35.4072 30.8987 35.534 31.3149 35.6195 31.6327C35.8197 32.3618 36.0176 33.1476 36.121 34.0097C36.4287 36.5675 36.4022 39.2263 36.0441 41.6995C35.9708 42.2057 35.8846 42.6992 35.7855 43.1802H35.7859C35.9852 43.1191 36.8687 42.8512 38.0149 42.5064C39.2236 42.1427 40.7247 41.6937 42.0225 41.3116C42.0234 41.3116 42.0238 41.3111 42.0247 41.3107L42.0625 41.299C42.0667 41.2972 42.0711 41.2959 42.0755 41.295C42.085 41.2923 42.0989 41.2882 42.1174 41.2833C42.1241 41.2815 42.1309 41.2792 42.1376 41.2774C42.148 41.2747 42.1583 41.2716 42.1687 41.2684C42.2213 41.2532 42.2735 41.2379 42.3248 41.223C42.3481 41.2163 42.3715 41.2096 42.3945 41.2028C42.4039 41.1998 42.4134 41.1971 42.4228 41.1947C42.9446 41.045 43.9235 40.7636 44.6027 40.5731C44.6374 40.5636 44.6711 40.5546 44.7039 40.5447C44.7948 40.52 44.8834 40.4948 44.9711 40.471C44.972 40.4706 44.9729 40.4706 44.9738 40.4701C44.9738 40.4719 44.9738 40.4755 44.9734 40.4818C44.973 40.4833 44.9728 40.4848 44.9729 40.4863C44.9729 40.4957 44.9729 40.5065 44.9725 40.5187C44.972 40.5434 44.9716 40.5766 44.9711 40.6185C44.9711 40.6306 44.9707 40.6436 44.9707 40.6571V40.6576C44.9657 41.5112 45.0148 44.5769 45.9068 47.3805C45.914 47.4034 45.9212 47.4263 45.9288 47.4492C45.9348 47.4686 45.9411 47.4879 45.9477 47.5072C45.9485 47.5104 45.9496 47.5136 45.9509 47.5167C45.9504 47.5171 45.9513 47.5176 45.9513 47.5176C45.9644 47.5571 45.9774 47.5967 45.9909 47.6362C45.9954 47.6511 46.0008 47.6659 46.0062 47.6807L46.0413 47.7819C46.049 47.8048 46.057 47.8277 46.0656 47.8502C46.0741 47.8727 46.0822 47.8956 46.0903 47.9185C46.1065 47.9639 46.1236 48.0093 46.1407 48.0547C46.1601 48.1069 46.1799 48.1586 46.2005 48.2103C46.2203 48.261 46.2401 48.3114 46.2608 48.3617C46.2608 48.3626 46.2617 48.3631 46.2617 48.364C46.2829 48.4152 46.3045 48.4665 46.3261 48.5173C46.3476 48.5681 46.3697 48.6189 46.3922 48.6692C46.4147 48.7195 46.4367 48.7699 46.4601 48.8198C46.4835 48.8697 46.5064 48.9196 46.5303 48.9686C46.5541 49.0176 46.5775 49.067 46.6023 49.116C46.627 49.165 46.6513 49.2136 46.6769 49.2621C46.7017 49.3102 46.7273 49.3579 46.7529 49.4055Z" fill="#66B0F0"/>
<path d="M62.9386 41.3429C62.674 41.2903 62.4123 41.2239 62.1545 41.1442C61.1815 40.6502 59.9971 40.2893 59.9818 40.2848C59.9545 40.2752 59.932 40.2554 59.9189 40.2295C59.9058 40.2037 59.9032 40.1739 59.9116 40.1462C59.92 40.1185 59.9388 40.0951 59.964 40.0809C59.9892 40.0667 60.019 40.0627 60.047 40.0699C60.1249 40.0937 61.931 40.643 62.9386 41.3429Z" fill="#9B3C82"/>
<path d="M64.5321 44.1457C64.5316 44.1466 64.5316 44.1479 64.5312 44.1488C64.4144 44.1274 64.2989 44.0994 64.1852 44.0652C63.0139 43.0578 60.9379 41.9673 59.4359 41.5843C59.408 41.5761 59.3844 41.5573 59.3701 41.532C59.3557 41.5067 59.3518 41.4769 59.359 41.4487C59.3662 41.4206 59.3841 41.3963 59.4088 41.3811C59.4335 41.3658 59.4632 41.3607 59.4916 41.3668C61.1209 41.7821 63.318 42.9563 64.4952 44.0405C64.5099 44.0533 64.521 44.0698 64.5275 44.0882C64.534 44.1066 64.5355 44.1264 64.5321 44.1457Z" fill="#9B3C82"/>
<path d="M62.0616 44.3085C61.6733 44.1593 61.3414 44.019 61.1641 43.9426C60.2753 43.4293 59.0917 42.9829 59.076 42.9771C59.0491 42.9659 59.0277 42.9447 59.0161 42.918C59.0045 42.8914 59.0038 42.8612 59.014 42.834C59.0242 42.8068 59.0445 42.7845 59.0708 42.772C59.097 42.7594 59.1271 42.7575 59.1547 42.7667C59.2433 42.8 61.3234 43.5839 62.0616 44.3085Z" fill="#9B3C82"/>
<path d="M38.0152 42.5063C39.2239 42.1427 40.725 41.6936 42.0228 41.3115L41.1254 41.5952C41.1254 41.5952 41.1254 41.5947 41.1249 41.5952L41.0417 41.6212H41.0412L38.0044 42.58C38.008 42.5558 38.0116 42.5315 38.0152 42.5063Z" fill="#F94F46"/>
<path d="M15.5727 56.5635C15.6041 56.7136 14.9672 56.5909 15.0014 56.7406C14.9667 56.5909 15.6041 56.7136 15.5727 56.5635Z" fill="#5B2448"/>
<path d="M15.0361 56.8901C15.0483 56.94 15.06 56.9895 15.0721 57.0394L15.0717 57.0398C15.0595 56.9899 15.0478 56.94 15.0361 56.8901Z" fill="#5B2448"/>
<path d="M44.9713 40.47V40.4709L44.9708 40.6273V40.6574H44.9704C44.9474 40.6633 44.122 40.8696 43.2574 41.1173C42.3231 41.3852 41.3406 41.6976 41.1908 41.7416C41.1288 41.7601 41.0671 41.778 41.0051 41.7969H41.0046C38.5328 42.5269 36.2004 43.2412 35.7645 43.3752C36.1882 46.8166 35.2224 50.1165 35.2125 50.1497C35.2062 50.1702 35.1927 50.1877 35.1746 50.1992C35.1564 50.2106 35.1348 50.2152 35.1136 50.2121C35.0924 50.209 35.073 50.1984 35.0589 50.1823C35.0448 50.1662 35.0369 50.1455 35.0366 50.1241C35.0366 50.1155 35.0376 50.1069 35.0398 50.0985C35.0497 50.067 35.9192 47.0922 35.6349 43.8633V43.8624C35.6187 43.6831 35.5994 43.5037 35.5764 43.3226C35.5756 43.3169 35.5755 43.3112 35.576 43.3055C35.5764 43.305 35.5764 43.305 35.576 43.3046C35.5762 43.2981 35.5776 43.2917 35.58 43.2857V43.2844C35.5802 43.2842 35.5803 43.284 35.5804 43.2837C35.5805 43.2835 35.5805 43.2833 35.5805 43.283C35.5808 43.2827 35.5811 43.2822 35.5812 43.2818C35.5814 43.2813 35.5814 43.2808 35.5814 43.2803C35.5862 43.2674 35.5939 43.2558 35.6038 43.2463C35.6138 43.2368 35.6258 43.2296 35.639 43.2255C35.6444 43.2237 35.6952 43.2084 35.7856 43.1801H35.7861C35.9853 43.1189 36.8688 42.851 38.015 42.5063C39.2237 42.1426 40.7248 41.6935 42.0226 41.3115C42.0235 41.3115 42.0239 41.311 42.0248 41.3106C42.0626 41.2998 42.1004 41.2885 42.1378 41.2773C42.1481 41.2746 42.1584 41.2714 42.1688 41.2683C42.2214 41.253 42.2736 41.2377 42.3249 41.2229C42.3483 41.2162 42.3717 41.2094 42.3946 41.2027C42.4041 41.1997 42.4135 41.197 42.4229 41.1946C43.8674 40.7725 44.9713 40.47 44.9713 40.47Z" fill="#B0DCF7"/>
<path d="M43.0137 51.7349C42.9619 51.7646 42.9102 51.7951 42.858 51.8252C42.7285 51.614 42.6061 51.391 42.4914 51.1586C41.114 48.369 40.7807 44.1836 41.0051 41.7971C41.0087 41.7548 41.0128 41.7135 41.0173 41.6726C41.0193 41.6533 41.0277 41.6353 41.0411 41.6213H41.0416C41.0508 41.611 41.0625 41.603 41.0755 41.5982C41.0885 41.5933 41.1025 41.5917 41.1163 41.5935C41.1192 41.5938 41.122 41.5944 41.1248 41.5953C41.1253 41.5948 41.1253 41.5953 41.1253 41.5953C41.1469 41.5995 41.1662 41.6116 41.1794 41.6294C41.1925 41.6471 41.1986 41.6691 41.1963 41.691C41.1945 41.7076 41.1927 41.7247 41.1909 41.7418C41.0497 43.1429 41.1217 44.9945 41.3839 46.7085C41.5809 47.99 41.9642 49.7283 42.7006 51.1744C42.7987 51.3672 42.9026 51.5546 43.0137 51.7349Z" fill="#B0DCF7"/>
<path d="M36.0444 41.6995C35.971 42.2056 35.8848 42.6992 35.7857 43.1802C35.7389 43.4103 35.6887 43.6378 35.635 43.8625V43.8634C35.1708 45.8242 34.4843 47.5615 33.5847 49.0481C33.5788 49.0586 33.5708 49.0678 33.5613 49.0752C33.5517 49.0826 33.5408 49.088 33.5291 49.0911C33.5174 49.0942 33.5053 49.0949 33.4933 49.0932C33.4814 49.0914 33.4699 49.0873 33.4596 49.0811C33.4492 49.0748 33.4403 49.0666 33.4332 49.0568C33.4261 49.047 33.4211 49.0359 33.4184 49.0242C33.4157 49.0124 33.4155 49.0002 33.4176 48.9883C33.4197 48.9765 33.4242 48.9651 33.4308 48.955C34.3984 47.3557 35.1177 45.461 35.5761 43.3056C35.5765 43.3051 35.5765 43.3051 35.5761 43.3047C35.5783 43.2986 35.5797 43.2922 35.5801 43.2858V43.2844C35.5803 43.2843 35.5804 43.284 35.5805 43.2838C35.5806 43.2836 35.5806 43.2833 35.5806 43.2831C35.5809 43.2827 35.5812 43.2823 35.5813 43.2818C35.5815 43.2814 35.5815 43.2809 35.5815 43.2804C35.6921 42.7599 35.7872 42.2243 35.8667 41.6738C36.2225 39.2159 36.249 36.5732 35.9432 34.0312C35.7191 32.1676 35.2383 30.5439 34.5536 29.3361C33.8532 28.1017 32.972 27.3182 31.9338 27.0072C30.9657 26.7168 29.8955 26.8561 28.7539 27.4207C27.5177 28.0321 26.2204 29.1329 24.8983 30.6927C21.7395 34.4187 21.1305 39.2343 21.1763 42.6183C21.1948 43.9798 21.4251 45.5284 21.7278 46.9983C22.0094 48.3648 22.3536 49.6635 22.6482 50.682L22.6631 50.7346C22.6649 50.7405 22.6658 50.7436 22.6658 50.7436C22.6766 50.7818 22.6878 50.8196 22.6986 50.8565C23.0387 52.0184 23.3005 52.7736 23.3005 52.7736L23.2883 52.7768L23.2335 52.7903L23.1192 52.8186C23.1188 52.8178 23.1185 52.8171 23.1183 52.8163C23.1026 52.7705 22.8241 51.9573 22.4732 50.7405C22.4731 50.7403 22.4729 50.7401 22.4729 50.7399C22.4728 50.7396 22.4728 50.7394 22.4728 50.7391C21.861 48.6174 21.0315 45.2699 20.996 42.6205C20.9501 39.206 21.5659 34.345 24.7607 30.5768C27.3585 27.5124 29.4295 26.6799 30.9126 26.6799C31.0429 26.6797 31.1731 26.6864 31.3026 26.7002C31.3098 26.7006 31.317 26.7011 31.3242 26.702L31.7007 26.7617V26.7622C31.7993 26.7832 31.8942 26.8074 31.9855 26.835C33.4753 27.2814 34.6548 28.6663 35.3975 30.7687L35.6634 31.6192C35.8748 32.4036 36.0279 33.2026 36.1213 34.0097C36.429 36.5674 36.4024 39.2263 36.0444 41.6995Z" fill="#B0DCF7"/>
<path d="M52.2934 45.6826C51.4909 46.191 50.6124 46.7893 49.6552 47.4447C48.8463 45.9757 48.137 44.2105 47.6255 42.399C47.6034 42.3212 47.5819 42.243 47.5607 42.1652C47.5594 42.1603 47.558 42.1558 47.5567 42.1508C47.5112 41.9845 47.4671 41.8182 47.4258 41.6514C47.3196 41.2298 47.2251 40.8072 47.1433 40.3869C47.1383 40.3622 47.1338 40.3375 47.1293 40.3128C47.0978 40.1496 47.0684 39.9869 47.0411 39.8246C47.0375 39.8053 47.0344 39.7859 47.0312 39.7662L47.2445 39.7307L49.3313 39.385L50.1504 39.2488C50.2305 39.7293 50.3308 40.2184 50.4496 40.7079C50.4936 40.8895 50.54 41.072 50.589 41.2536C50.5899 41.2567 50.5908 41.2603 50.5917 41.2635C50.6129 41.3426 50.6349 41.4217 50.6569 41.5004C51.0771 42.9977 51.6502 44.4654 52.2934 45.6826Z" fill="#5B2448"/>
<path d="M50.5917 41.2635C50.2181 41.5892 49.7836 41.8378 49.3133 41.9948C48.7024 42.2039 48.0902 42.2529 47.5607 42.1652C47.5819 42.243 47.6034 42.3212 47.6255 42.399C47.7782 42.4195 47.9321 42.4297 48.0861 42.4295C48.5284 42.427 48.9673 42.352 49.3852 42.2075C49.8489 42.0517 50.28 41.812 50.6569 41.5004C50.6349 41.4217 50.6129 41.3426 50.5917 41.2635ZM50.589 41.2536C50.54 41.072 50.4936 40.8895 50.4496 40.7079C50.3308 40.2184 50.2305 39.7293 50.1504 39.2488L49.3313 39.385L47.2445 39.7307L47.0312 39.7662C47.0344 39.7859 47.0375 39.8053 47.0411 39.8246C47.0686 39.9869 47.098 40.1496 47.1293 40.3128C47.1338 40.3375 47.1383 40.3622 47.1433 40.3869C47.2251 40.8072 47.3196 41.2298 47.4258 41.6514C47.4671 41.8182 47.5112 41.9845 47.5567 42.1508C47.558 42.1558 47.5594 42.1603 47.5607 42.1652L50.5917 41.2635C50.5908 41.2603 50.5899 41.2567 50.589 41.2536Z" fill="white"/>
<path d="M48.0782 38.3906C49.5062 37.9027 50.9402 38.3142 51.281 39.3093C51.6219 40.3044 50.7408 41.5069 49.3128 41.9949C47.8848 42.4828 46.429 42.0788 46.0641 41.092C45.6337 39.9273 46.6503 38.8786 48.0782 38.3906Z" fill="#5B2448"/>
<path d="M49.1292 41.4576C50.5157 40.9849 51.4032 39.9095 51.1117 39.0556C50.8201 38.2017 49.4598 37.8928 48.0734 38.3655C46.6869 38.8382 45.7993 39.9136 46.0909 40.7675C46.3824 41.6213 47.7427 41.9303 49.1292 41.4576Z" fill="white"/>
<path d="M51.2425 39.2109V39.2105C51.2324 39.1474 51.2169 39.0852 51.1962 39.0248C51.1805 38.9791 51.1617 38.9345 51.1399 38.8913C50.7432 38.0939 49.4004 37.8174 48.0424 38.2809C47.3568 38.5155 46.7671 38.9012 46.3825 39.3678C46.1638 39.633 46.0253 39.9067 45.9713 40.1738V40.1742C45.9369 40.3344 45.936 40.5 45.9686 40.6606C45.9688 40.6608 45.9689 40.661 45.969 40.6612C45.9691 40.6614 45.9691 40.6617 45.9691 40.6619V40.6637C45.9785 40.7093 45.9908 40.7542 46.0059 40.7981C46.185 41.32 46.7369 41.6513 47.4486 41.7417C47.5839 41.7586 47.7202 41.767 47.8566 41.7668C48.3004 41.7635 48.7406 41.6874 49.1598 41.5416C49.6405 41.3822 50.0865 41.1326 50.4737 40.8062C50.5988 40.6991 50.7146 40.5815 50.8197 40.4547C51.1602 40.0416 51.3064 39.6069 51.2425 39.2109ZM50.4261 40.6084C50.0414 40.9508 49.5905 41.2106 49.1013 41.3717C48.4994 41.5771 47.9025 41.6329 47.4027 41.5587C46.7927 41.4675 46.328 41.1825 46.1764 40.7397C46.1099 40.537 46.1082 40.3186 46.1715 40.1149C46.2435 39.8823 46.3626 39.667 46.5215 39.4824C46.8849 39.041 47.4459 38.6746 48.1008 38.4512C49.3523 38.0233 50.583 38.2445 50.9609 38.9354C50.9868 38.9825 51.0086 39.0319 51.0261 39.0828C51.157 39.4649 51.0342 39.9117 50.6807 40.3405C50.6021 40.4356 50.517 40.5251 50.4261 40.6084Z" fill="#5B2448"/>
<path d="M48.8016 40.7713C48.7769 40.7713 48.7529 40.7631 48.7332 40.7481C48.7136 40.733 48.6995 40.7119 48.6931 40.6881L48.43 39.7081C48.4224 39.6795 48.4264 39.6491 48.4411 39.6234C48.4558 39.5978 48.48 39.5789 48.5085 39.571L50.0353 39.1481C50.0498 39.1432 50.065 39.1413 50.0802 39.1424C50.0954 39.1436 50.1102 39.1478 50.1237 39.1549C50.1371 39.1619 50.1491 39.1716 50.1587 39.1834C50.1683 39.1952 50.1755 39.2088 50.1797 39.2234C50.1839 39.2381 50.1851 39.2534 50.1832 39.2685C50.1813 39.2836 50.1763 39.2981 50.1686 39.3113C50.1609 39.3244 50.1506 39.3358 50.1384 39.3449C50.1261 39.3539 50.1122 39.3604 50.0974 39.3638C50.0967 39.3641 50.0961 39.3643 50.0954 39.3644L48.676 39.7576L48.9102 40.6296C48.9179 40.6584 48.9138 40.689 48.899 40.7148C48.8841 40.7406 48.8596 40.7595 48.8308 40.7672C48.8213 40.7697 48.8114 40.771 48.8016 40.771L48.8016 40.7713Z" fill="#5B2448"/>
</g>
<defs>
<clipPath id="clip0_103_2526">
<rect width="32.96" height="18.88" fill="white" transform="translate(59.7598 30.96)"/>
</clipPath>
<clipPath id="clip1_103_2526">
<rect width="36.68" height="13.68" fill="white" transform="translate(52.7998 34.8799)"/>
</clipPath>
<clipPath id="clip2_103_2526">
<rect width="10.2" height="1.32" fill="white" transform="translate(14.3999 88.8401)"/>
</clipPath>
<clipPath id="clip3_103_2526">
<rect width="43.76" height="40.28" fill="white" transform="translate(49.6802 49.1201)"/>
</clipPath>
<clipPath id="clip4_103_2526">
<rect width="32.4" height="53.52" fill="white" transform="translate(6.72021 36.5601)"/>
</clipPath>
<clipPath id="clip5_103_2526">
<rect width="57.52" height="79.4" fill="white" transform="translate(14.52 10.6399)"/>
</clipPath>
<clipPath id="clip6_103_2526">
<rect width="46.2" height="37.72" fill="white" transform="translate(18 43.28)"/>
</clipPath>
<clipPath id="clip7_103_2526">
<rect width="50.16" height="30.36" fill="white" transform="translate(15 26.6799)"/>
</clipPath>
</defs>
</svg>
