<svg width="200" height="200" viewBox="0 0 200 200" fill="none" xmlns="http://www.w3.org/2000/svg">
<g clip-path="url(#clip0_118_3716)">
<path d="M30.4919 43.8477C30.4681 43.8477 30.4448 43.8418 30.4239 43.8306C30.403 43.8194 30.3852 43.8031 30.3722 43.7833C30.3311 43.7207 26.2051 37.4747 21.0177 33.2191C20.989 33.1949 20.9709 33.1603 20.9675 33.1229C20.9641 33.0854 20.9755 33.0482 20.9994 33.0191C21.0232 32.99 21.0576 32.9715 21.0949 32.9676C21.1323 32.9636 21.1698 32.9746 21.1992 32.998C26.4208 37.2818 30.57 43.5635 30.6113 43.6265C30.6255 43.648 30.6336 43.673 30.6348 43.6988C30.6359 43.7246 30.63 43.7502 30.6178 43.773C30.6055 43.7957 30.5874 43.8147 30.5652 43.8279C30.543 43.8412 30.5177 43.8482 30.4919 43.8482V43.8477Z" fill="#9B3C82"/>
<path d="M175.291 71.7571C175.254 71.7571 175.219 71.7462 175.189 71.7257C175.16 71.7053 175.137 71.6763 175.124 71.6425C175.111 71.6088 175.108 71.572 175.117 71.5368C175.125 71.5017 175.144 71.4699 175.171 71.4457C177.253 69.5654 180.084 64.9688 181.341 62.4543C181.362 62.4119 181.399 62.3797 181.444 62.3647C181.489 62.3496 181.539 62.3531 181.581 62.3743C181.623 62.3955 181.656 62.4327 181.671 62.4777C181.686 62.5227 181.682 62.5718 181.661 62.6142C180.391 65.1531 177.527 69.7999 175.41 71.7111C175.378 71.7407 175.335 71.7571 175.291 71.7571Z" fill="#9B3C82"/>
<path d="M177.957 68.6433C169.586 75.7975 140.837 105.547 104.984 99.9601C63.4135 93.4817 48.8869 61.759 26.8127 38.8789C31.673 45.3582 52.4895 116.437 98.4358 115.281C136.195 114.331 165.199 92.6032 177.957 68.6433Z" fill="#9B3C82"/>
<path d="M97.3447 115.473C93.1465 115.475 88.9706 114.861 84.9505 113.651C80.8935 112.43 76.8788 110.568 73.0181 108.116C66.251 103.819 59.7144 97.5598 53.5904 89.5119C42.5291 74.976 35.1194 57.7757 30.6923 47.4988C28.8413 43.202 27.5037 40.0976 26.6696 38.9853C26.6423 38.9489 26.6299 38.9034 26.635 38.8582C26.64 38.813 26.6621 38.7714 26.6968 38.7419C26.7314 38.7124 26.776 38.6972 26.8215 38.6994C26.867 38.7017 26.9099 38.7212 26.9414 38.7539C32.1674 44.1711 37.0672 50.2014 41.8055 56.0331C49.5168 65.5241 57.4907 75.3381 67.3871 83.2605C72.7179 87.528 78.1422 90.8984 83.9699 93.565C90.5234 96.5635 97.4062 98.5973 105.011 99.7824C112.543 100.956 120.313 100.628 128.105 98.8051C134.676 97.2684 141.402 94.6367 148.095 90.9829C160.183 84.384 169.47 76.0142 175.019 71.0134C176.119 70.0221 177.069 69.1662 177.841 68.5062C177.873 68.4792 177.913 68.464 177.955 68.4634C177.996 68.4627 178.037 68.4767 178.069 68.5027C178.102 68.5288 178.124 68.5654 178.133 68.6061C178.141 68.6469 178.135 68.6894 178.115 68.7261C174.866 74.8285 170.652 80.6492 165.59 86.0263C160.262 91.6689 154.24 96.6132 147.668 100.741C140.616 105.179 133.012 108.673 125.05 111.132C116.51 113.774 107.557 115.229 98.4408 115.459C98.0751 115.468 97.7097 115.473 97.3447 115.473ZM27.7747 40.1463C28.5931 41.7221 29.6712 44.2246 31.0207 47.3574C35.4412 57.6192 42.8402 74.7944 53.875 89.2955C59.9733 97.3094 66.4784 103.54 73.2093 107.814C77.0425 110.248 81.0274 112.097 85.0531 113.309C89.3889 114.613 93.9048 115.218 98.431 115.101C107.514 114.872 116.434 113.422 124.944 110.791C132.875 108.34 140.451 104.86 147.476 100.439C154.023 96.327 160.022 91.4021 165.329 85.7815C170.129 80.6824 174.163 75.1833 177.331 69.4238C176.72 69.9621 176.026 70.5878 175.258 71.2792C169.698 76.2906 160.391 84.678 148.266 91.2971C141.545 94.9658 134.789 97.6093 128.187 99.1533C120.349 100.986 112.534 101.317 104.956 100.136C97.3183 98.9455 90.4048 96.9025 83.8211 93.8901C77.9664 91.2114 72.5176 87.8256 67.1635 83.5396C57.2372 75.5934 49.2511 65.7642 41.5279 56.2586C37.1258 50.8406 32.5842 45.2507 27.7747 40.1463Z" fill="#9B3C82"/>
<path d="M177.805 68.5492C177.787 68.5784 175.945 71.5224 172.483 75.8004C169.288 79.7481 164.022 85.6704 157.076 91.4695C145.706 100.962 127.718 111.799 104.858 111.799C103.068 111.799 101.247 111.73 99.3943 111.593C62.854 108.848 53.7087 89.6777 43.1195 67.4801C38.6337 58.0764 33.9944 48.3523 26.9567 38.7734L26.6613 38.9743C28.2143 41.4478 29.9414 46.5044 32.1279 52.9063C40.6713 77.9195 56.5737 124.478 99.3673 127.743C100.917 127.862 102.46 127.921 103.998 127.921C114.194 127.921 124.114 125.325 133.548 120.179C142.228 115.445 150.517 108.555 158.186 99.7001C165.006 91.8253 170.062 83.8212 173.103 78.4933C176.399 72.7193 178.105 68.7534 178.121 68.714L177.805 68.5492Z" fill="#FFCF2D"/>
<path d="M26.7103 39.0482C26.6813 39.0482 26.6528 39.0412 26.6271 39.0277C26.6014 39.0142 26.5794 38.9947 26.563 38.9708C26.5466 38.9469 26.5362 38.9194 26.5327 38.8906C26.5293 38.8618 26.5329 38.8326 26.5433 38.8055C27.822 35.4635 31.0659 32.0164 33.0923 31.8466C33.7196 31.7944 34.2153 32.0463 34.528 32.576C34.79 33.0202 34.789 33.5319 34.5247 34.0969C33.9143 35.4024 32.0805 36.6321 31.0419 37.2489C29.501 38.1638 27.8122 38.8692 26.7394 39.046C26.7298 39.0475 26.7201 39.0483 26.7103 39.0482ZM33.2563 32.197C33.2127 32.197 33.168 32.1989 33.1223 32.2027C32.2292 32.2775 31.0094 33.0774 29.7754 34.3969C28.607 35.6462 27.608 37.1724 26.9992 38.629C28.0316 38.3871 29.5001 37.7483 30.8592 36.9412C32.5666 35.9274 33.7847 34.8354 34.2008 33.9453C34.415 33.4876 34.4212 33.0987 34.2199 32.7574C33.9979 32.3812 33.6818 32.197 33.2563 32.197Z" fill="#9B3C82"/>
<path d="M22.5217 39.8091C22.4943 39.8091 22.4669 39.8091 22.4395 39.8091C20.9238 39.7982 19.7201 39.4852 19.1369 38.9504C18.7573 38.6022 18.6337 38.1629 18.7793 37.6801C18.9016 37.2752 19.2096 36.9917 19.6948 36.8378C20.7964 36.4878 22.5131 36.8989 23.4377 37.1751C24.8075 37.584 26.1353 38.1937 26.8204 38.7283C26.8452 38.7476 26.8644 38.7732 26.8762 38.8024C26.888 38.8316 26.8918 38.8633 26.8874 38.8945C26.8829 38.9256 26.8703 38.955 26.8509 38.9798C26.8314 39.0045 26.8058 39.0237 26.7766 39.0353C25.5391 39.5283 23.993 39.8091 22.5217 39.8091ZM20.7085 37.0621C20.4025 37.0552 20.0972 37.0943 19.8029 37.1783C19.4319 37.2961 19.2092 37.4939 19.1218 37.7831C19.0156 38.1351 19.0997 38.4306 19.3788 38.6866C20.4302 39.6513 23.8474 39.698 26.3331 38.8197C25.6327 38.3598 24.5029 37.866 23.3355 37.5173C22.3294 37.2169 21.4209 37.0621 20.7085 37.0621Z" fill="#9B3C82"/>
<path d="M24.8554 52.6616C24.8248 52.6616 24.7947 52.6537 24.768 52.6388C24.7413 52.6238 24.7189 52.6023 24.7029 52.5762C24.6869 52.5501 24.6779 52.5204 24.6767 52.4898C24.6755 52.4592 24.6822 52.4289 24.6961 52.4016C26.0803 49.6813 26.816 44.8842 26.6126 40.1529C25.8245 43.3425 24.2183 46.95 22.565 49.1444C22.5509 49.1632 22.5332 49.179 22.513 49.1909C22.4927 49.2028 22.4704 49.2106 22.4471 49.2139C22.4239 49.2172 22.4002 49.2159 22.3774 49.21C22.3547 49.2041 22.3333 49.1938 22.3146 49.1797C22.2958 49.1656 22.28 49.1479 22.2681 49.1277C22.2562 49.1074 22.2484 49.0851 22.2451 49.0618C22.2418 49.0386 22.2432 49.0149 22.249 48.9922C22.2549 48.9694 22.2652 48.9481 22.2793 48.9293C24.1284 46.4751 25.9183 42.2206 26.5353 38.813C26.543 38.7702 26.5661 38.7318 26.6001 38.7048C26.6341 38.6778 26.6767 38.6641 26.7201 38.6662C26.7635 38.6684 26.8046 38.6862 26.8358 38.7165C26.8669 38.7467 26.886 38.7872 26.8895 38.8305C27.3062 44.022 26.5528 49.541 25.0147 52.5638C24.9998 52.5932 24.977 52.6179 24.9489 52.6352C24.9207 52.6524 24.8884 52.6616 24.8554 52.6616Z" fill="#9B3C82"/>
<path d="M179.462 76.2697C179.06 76.2697 178.71 76.069 178.423 75.6727C177.74 74.7316 177.588 72.9563 177.559 71.9818C177.515 70.5363 177.677 69.0683 177.972 68.2415C177.98 68.2178 177.995 68.1967 178.014 68.1805C178.033 68.1642 178.056 68.1532 178.081 68.1488C178.106 68.1443 178.131 68.1464 178.155 68.155C178.179 68.1635 178.2 68.1781 178.216 68.1974C180.076 70.4067 181.242 74.0444 180.57 75.5412C180.363 76.0039 179.991 76.2555 179.495 76.2689C179.484 76.2695 179.473 76.2697 179.462 76.2697ZM178.163 68.5847C177.929 69.4082 177.806 70.6963 177.845 71.9728C177.893 73.5748 178.188 74.862 178.654 75.5044C178.894 75.835 179.168 75.9896 179.487 75.9829C179.876 75.9723 180.145 75.7898 180.309 75.4241C180.606 74.764 180.518 73.5896 180.068 72.202C179.642 70.8878 178.954 69.5847 178.163 68.5847Z" fill="#9B3C82"/>
<path d="M170.432 71.5654C169.921 71.5654 169.474 71.4928 169.123 71.3378C168.561 71.0898 168.254 70.6415 168.234 70.0413C168.217 69.5384 168.458 69.0998 168.95 68.7378C170.104 67.8897 172.295 67.6893 173.498 67.6454C175.284 67.5807 177.1 67.7689 178.123 68.1261C178.146 68.1344 178.167 68.1488 178.184 68.1679C178.2 68.187 178.211 68.21 178.216 68.2347C178.221 68.2595 178.219 68.285 178.21 68.3087C178.202 68.3324 178.187 68.3535 178.168 68.3699C175.969 70.2446 172.611 71.5654 170.432 71.5654ZM174.207 67.9186C173.975 67.9186 173.742 67.9228 173.508 67.9313C171.517 68.0041 169.918 68.3819 169.12 68.9683C168.708 69.2711 168.506 69.6289 168.52 70.0319C168.536 70.5214 168.778 70.8728 169.239 71.076C170.066 71.4415 171.53 71.3239 173.254 70.7536C174.905 70.2072 176.541 69.3263 177.783 68.3182C176.908 68.0654 175.584 67.9186 174.207 67.9186Z" fill="#9B3C82"/>
<path d="M176.438 83.3313C176.404 83.3312 176.371 83.3189 176.345 83.2965C176.319 83.274 176.302 83.2431 176.297 83.2092C175.436 77.3692 176.335 72.6988 177.41 69.5433C174.94 73.3701 173.201 77.6585 173.003 80.4986C173.002 80.5175 172.997 80.5359 172.989 80.5529C172.981 80.5699 172.969 80.5851 172.955 80.5976C172.941 80.6101 172.924 80.6197 172.906 80.6257C172.888 80.6318 172.869 80.6342 172.851 80.6329C172.832 80.6316 172.813 80.6265 172.796 80.618C172.779 80.6095 172.764 80.5978 172.752 80.5834C172.74 80.5691 172.73 80.5524 172.725 80.5344C172.719 80.5164 172.716 80.4975 172.718 80.4786C172.937 77.3429 174.995 72.4836 177.839 68.387C177.86 68.3584 177.889 68.3381 177.923 68.33C177.957 68.322 177.993 68.3266 178.024 68.3431C178.055 68.3597 178.079 68.3869 178.091 68.4197C178.103 68.4525 178.103 68.4886 178.09 68.5212C176.871 71.6048 175.619 76.6491 176.58 83.1674C176.582 83.186 176.582 83.2049 176.577 83.2232C176.572 83.2414 176.564 83.2585 176.553 83.2736C176.542 83.2887 176.528 83.3014 176.512 83.3111C176.496 83.3207 176.478 83.3271 176.459 83.3298C176.452 83.3308 176.445 83.3313 176.438 83.3313Z" fill="#9B3C82"/>
</g>
<g clip-path="url(#clip1_118_3716)">
<path d="M74.5354 38.3243C68.7471 37.2463 61.4315 41.9868 55.0722 47.1556C49.3482 51.8033 49.6265 58.1788 53.7233 59.3496C56.5496 60.1563 58.912 56.7866 58.912 56.7866L67.2626 48.3693C67.2626 48.3765 75.4846 43.6502 74.5354 38.3243Z" fill="#F4ADA2"/>
<path d="M56.3569 50.7545C56.778 50.0905 56.8708 49.7121 56.6853 49.5194C56.3213 49.1481 55.1151 49.8121 52.874 51.2542C52.8097 51.297 52.7883 51.3827 52.8312 51.4541C52.874 51.5255 52.9596 51.5398 53.031 51.4969C53.7661 51.0258 54.5441 50.5331 55.2079 50.169C56.3141 49.5765 56.4711 49.7121 56.4783 49.7193C56.4783 49.7193 56.6139 49.8763 55.9287 50.8901C54.5584 52.9177 52.5742 53.7958 52.5528 53.8029C52.5028 53.8244 52.4672 53.8743 52.4672 53.9315C52.4672 54.01 52.5314 54.0742 52.6099 54.0742C52.6313 54.0742 52.6456 54.0671 52.667 54.06C52.7312 54.0314 53.8589 53.5317 55.0223 52.4036C55.2221 51.7111 55.7146 51.1186 56.3569 50.7545Z" fill="#9B3C82"/>
<path d="M53.3593 56.0861C53.3093 56.1076 53.2808 56.1575 53.2808 56.2146C53.2808 56.2932 53.345 56.3574 53.4235 56.3574C53.4449 56.3574 53.4663 56.3503 53.4877 56.3431C54.487 55.872 55.115 55.2437 55.372 54.9653C55.322 54.8724 55.2792 54.7796 55.2364 54.6797C55.0936 54.851 54.4513 55.5721 53.3593 56.0861Z" fill="#9B3C82"/>
<path d="M54.6511 57.8365C54.594 57.8579 54.5654 57.9079 54.5654 57.9721C54.5654 58.0507 54.6297 58.1149 54.7082 58.1149C54.7296 58.1149 54.7439 58.1078 54.7653 58.1006C55.9358 57.6223 56.7423 56.5514 56.778 56.5014C56.778 56.5014 56.778 56.4943 56.7851 56.4943C56.7066 56.4443 56.6281 56.3872 56.5496 56.3301C56.4925 56.4015 55.7145 57.401 54.6511 57.8365Z" fill="#9B3C82"/>
<path d="M61.7813 52.5307C61.6671 52.4308 61.5529 52.3379 61.4387 52.238C60.3181 51.2956 59.2618 50.396 57.8915 50.3604C57.3419 50.3461 56.8138 50.4889 56.357 50.7459C55.7146 51.11 55.2222 51.7025 55.0295 52.3951C54.9795 52.5735 54.9438 52.7592 54.9367 52.9448C54.9367 53.0019 54.9295 53.059 54.9295 53.109C54.9224 53.6659 55.0295 54.1942 55.2364 54.6725C55.2793 54.7725 55.3221 54.8653 55.372 54.9581C55.6504 55.5007 56.0572 55.9719 56.5425 56.3288C56.6211 56.3859 56.6996 56.4359 56.7781 56.493C57.3276 56.8357 57.9771 57.0499 58.6694 57.0785C58.7265 57.0785 58.855 57.0856 58.8978 57.0785C58.9478 57.0213 58.9264 56.8214 58.9121 56.7929C58.8764 56.7929 58.8407 56.8 58.805 56.8C58.7551 56.8 58.698 56.8 58.648 56.7929C56.6425 56.6787 55.108 54.9652 55.2222 52.9591C55.2864 51.6883 56.5283 50.6102 57.8843 50.6459C59.1548 50.6816 60.1754 51.5383 61.2531 52.4522C61.3673 52.5521 61.4815 52.6449 61.6028 52.7449C61.6599 52.7949 61.7527 52.7877 61.8027 52.7235C61.8526 52.6664 61.8455 52.5807 61.7813 52.5307Z" fill="#9B3C82"/>
<path d="M79.403 68.4957C81.3443 62.0417 81.1373 53.0176 78.7821 45.607C79.8598 43.9221 78.1754 39.0031 74.5354 38.332C74.5354 38.332 74.2 42.9869 68.3046 47.399C62.4093 51.8111 64.8859 66.4895 64.8859 66.4895L79.403 68.4957Z" fill="#66B0F0"/>
<path d="M78.8891 45.943C78.8534 45.8359 78.8177 45.7145 78.782 45.6074C77.9469 46.6426 76.2983 47.9634 73.0794 48.8772C70.8668 49.5055 68.3902 49.7911 66.3633 49.6554C66.3133 49.7482 66.2633 49.8339 66.2134 49.9267C66.5845 49.9553 66.9771 49.9695 67.391 49.9695C71.2094 49.9767 76.4981 48.7273 78.8891 45.943Z" fill="#B0DCF7"/>
<path d="M67.1127 62.7487C67.0342 62.7415 66.9628 62.7986 66.9557 62.87C66.9485 62.9414 67.0056 63.0199 67.077 63.0271C71.4735 63.5554 74.1286 67.0108 74.15 67.0465C74.1714 67.0751 74.1999 67.0894 74.2285 67.0965C75.9628 67.4963 77.6758 67.9604 79.403 68.4958C79.4315 68.403 79.4601 68.3102 79.4815 68.2245C77.7614 67.6962 76.0628 67.2321 74.3427 66.8395C74.0287 66.4325 71.3665 63.2555 67.1127 62.7487Z" fill="#B0DCF7"/>
<path d="M108.266 111.852C107.145 111.909 106.01 111.931 104.861 111.931C103.077 111.931 101.257 111.866 99.4086 111.723C72.1088 109.675 60.1325 98.4301 51.4037 83.6089C50.6614 74.3563 55.5005 68.8876 57.2277 66.6244L67.3625 63.0762C71.3665 63.7044 74.2 67.0956 74.2 67.0956C87.0683 70.0656 92.7924 74.9132 113.804 79.4252C107.088 96.888 108.095 110.139 108.266 111.852Z" fill="#66B0F0"/>
<path d="M96.6893 104.327C95.8971 105.476 93.6061 108.675 92.5569 110.188C92.2571 110.624 91.7218 110.852 91.2008 110.766C88.2674 110.295 85.3697 109.646 82.5148 108.817C82.3792 107.425 79.974 83.5299 72.7226 70.058L70.9454 70.0223C70.9454 70.0223 69.4181 66.9595 67.8051 65.0748C69.5537 64.6036 74.0715 65.3461 74.9423 68.5088C74.9423 68.5088 92.1215 81.7165 96.8606 103.449C96.932 103.756 96.8678 104.07 96.6893 104.327Z" fill="#F94F46"/>
<path d="M79.5528 86.3854L79.5885 86.3283L79.5671 86.2641C79.1246 84.8576 76.548 80.3884 73.3434 76.319C71.8874 74.4699 70.5528 72.9921 69.3252 71.8141C69.8391 71.9854 70.2958 72.0925 70.6598 72.0925C70.9453 72.0925 71.1737 72.0283 71.3236 71.8712C71.6091 71.5856 71.5663 71.0502 71.2023 70.2363C69.8319 67.1949 68.1547 65.4458 67.5052 64.839C67.4909 64.8247 67.4766 64.8104 67.4695 64.8104C67.4124 64.7533 67.3268 64.7533 67.2697 64.8104C67.2126 64.8675 67.2126 64.9532 67.2697 65.0103C67.2768 65.0175 67.2911 65.0317 67.3125 65.0532C67.9548 65.6529 69.5964 67.3663 70.9453 70.3648C71.2451 71.0359 71.3093 71.4928 71.1238 71.6784C70.8169 71.9854 69.8676 71.7356 68.8042 71.3286C65.8351 68.6085 63.5797 67.6804 62.0381 67.4448C60.5036 67.2092 59.1261 67.5662 57.9271 68.4943C57.1634 68.4515 56.4354 68.4586 55.7788 68.5229C55.7074 68.6228 55.636 68.7228 55.5575 68.8299H55.5932C56.1998 68.7585 56.8779 68.737 57.5987 68.7656C57.1348 69.1725 56.7066 69.6723 56.2998 70.2577C53.3949 74.4699 52.6098 80.6526 54.1015 87.6491C54.1301 87.7776 54.1586 87.9061 54.1872 88.0275C54.337 88.2417 54.5155 88.5058 54.6653 88.72C54.5797 88.3559 54.4584 87.9489 54.3799 87.5848C52.9025 80.6597 53.6661 74.5627 56.5353 70.4148C56.9921 69.7508 57.4917 69.2082 58.0198 68.7799C60.3037 68.9155 62.9302 69.451 64.8287 70.0293C65.414 70.2077 66.1705 70.529 66.9699 70.8788C67.548 71.1287 68.1261 71.3714 68.6543 71.5785C69.9961 72.8136 71.4806 74.4199 73.115 76.4975C76.4767 80.7739 78.8391 85.0147 79.2744 86.2926C75.1206 92.5895 75.192 100.943 76.6123 106.754C76.7193 106.797 76.8264 106.847 76.9406 106.89C75.4846 101.114 75.3633 92.6895 79.5528 86.3854ZM67.0841 70.6147C66.2776 70.2649 65.5139 69.9436 64.9144 69.758C63.0944 69.2011 60.6106 68.6871 58.3767 68.5157C59.2189 67.9446 60.1396 67.659 61.1459 67.659C61.4314 67.659 61.7098 67.6804 61.9953 67.7233C63.387 67.9374 65.3997 68.737 68.0262 71.0145C67.705 70.8788 67.391 70.7432 67.0841 70.6147Z" fill="#B0DCF7"/>
<path d="M70.3458 41.4721C69.4037 41.1223 68.3474 41.2437 67.5123 41.8005C66.2062 38.7663 62.0524 39.4517 61.7455 41.8933C58.6336 40.0086 55.5075 43.9209 56.9707 46.4268C57.506 47.3478 58.3696 49.104 58.1126 50.7889C59.5829 51.2744 62.6447 54.6085 62.6447 54.6085C62.6447 54.6085 66.7415 47.4549 69.211 46.9623C73.0865 46.1983 72.3442 42.2717 70.3458 41.4721Z" fill="#5B2448"/>
<path d="M66.0635 43.1864C66.0564 43.2006 66.0564 43.2221 66.0564 43.2363C66.0564 43.3149 66.1206 43.3791 66.1991 43.3791C66.2562 43.3791 66.3133 43.3434 66.3347 43.2863C66.8344 41.9227 68.0762 41.4801 68.5687 41.3516C68.1976 41.4372 67.8407 41.5872 67.5124 41.8013C67.4767 41.7157 67.4339 41.63 67.3911 41.5443C66.8843 41.8727 66.3562 42.3796 66.0635 43.1864Z" fill="#9B3C82"/>
<path d="M73.9145 55.9299C74.1001 56.7866 73.7575 57.7504 72.9153 58.3787C70.7242 60.0207 67.1984 59.6209 67.1984 59.6209C67.1984 59.6209 67.0628 62.9193 67.805 65.0753C67.805 65.0753 64.5291 68.0167 57.2277 66.6246C57.9557 63.369 58.5195 60.085 58.9121 56.7723C57.2134 56.7652 55.1222 55.323 55.2364 53.0028C55.3006 51.682 56.5639 50.6182 57.92 50.6539C59.3189 50.6896 60.3609 51.6963 61.56 52.6958C62.916 53.8309 63.1302 52.71 63.4299 51.2893C63.6226 50.3826 63.8439 49.3474 64.422 48.712C65.7352 47.277 69.1968 46.9629 69.1968 46.9629C69.1968 46.9629 69.2753 47.4127 69.4038 47.9624C69.5822 48.6977 69.8606 49.6187 70.2103 49.9543C70.8169 50.5325 71.3237 50.3469 71.3951 50.7753C71.4593 51.1394 71.1096 51.6463 70.9026 51.8747C71.4307 54.3664 73.4934 53.9309 73.9145 55.9299Z" fill="#F4ADA2"/>
<path d="M61.2102 56.5868C61.2816 56.5511 61.3101 56.4655 61.2744 56.3941C61.2388 56.3227 61.1531 56.2941 61.0817 56.3298C60.4108 56.644 59.5258 56.7582 58.8977 56.7939C58.8835 56.8938 58.8763 56.9866 58.8621 57.0866C59.5187 57.0509 60.4751 56.9367 61.2102 56.5868Z" fill="#9B3C82"/>
<path d="M66.2563 61.7124C66.6988 61.8552 67.0199 61.8838 67.2412 61.8338C67.1555 60.5987 67.1984 59.6206 67.1984 59.6206C66.085 59.4707 65.0501 58.9781 64.2364 58.207C63.851 58.4997 63.8653 60.9343 66.2563 61.7124Z" fill="#5B2448"/>
<path d="M64.8501 49.4978L64.8359 49.3622C64.8359 49.3193 64.8287 49.2765 64.8287 49.2336C64.8287 49.148 64.8359 49.0694 64.8501 48.9838C64.8716 48.8196 64.9215 48.6554 64.9786 48.5054C65.1071 48.177 65.3141 47.8915 65.5781 47.6559C65.7137 47.5345 65.8708 47.4274 66.0349 47.3489C66.1991 47.2703 66.3846 47.2132 66.5631 47.1847C66.7415 47.1561 66.9271 47.1561 67.1055 47.1918C67.2839 47.2204 67.4481 47.2918 67.598 47.3917C67.7835 47.5202 67.8335 47.7772 67.705 47.9628C67.6765 47.9985 67.6479 48.0342 67.6122 48.0628L67.5551 48.1056C67.4338 48.1984 67.3268 48.2556 67.234 48.327C67.1412 48.3912 67.0555 48.4483 66.977 48.5054C66.8272 48.6197 66.6915 48.7125 66.5417 48.8196C66.3989 48.9267 66.249 49.0623 66.0777 49.2122L65.8137 49.4478C65.7708 49.4907 65.7209 49.5335 65.6709 49.5763C65.6495 49.5978 65.621 49.6192 65.5996 49.6406C65.5781 49.662 65.5496 49.6834 65.521 49.6977L65.2641 49.7834C65.0928 49.8405 64.9072 49.7548 64.8501 49.5835C64.8573 49.5478 64.8573 49.5192 64.8501 49.4978Z" fill="#5B2448"/>
<path d="M66.7273 50.4978C67.077 50.2979 67.9264 49.841 68.633 49.1485C68.7329 49.0485 68.8899 49.0557 68.9827 49.1485C69.2325 49.4055 69.5608 49.891 69.0255 50.2979C68.3617 50.8048 67.0842 50.9547 66.7202 50.712C66.6631 50.6692 66.6488 50.5906 66.6845 50.5335C66.6988 50.5192 66.713 50.5121 66.7273 50.4978Z" fill="#5B2448"/>
<path opacity="0.52" d="M65.5211 56.0443C66.4434 56.0443 67.1912 55.2964 67.1912 54.3737C67.1912 53.4511 66.4434 52.7031 65.5211 52.7031C64.5987 52.7031 63.851 53.4511 63.851 54.3737C63.851 55.2964 64.5987 56.0443 65.5211 56.0443Z" fill="#E57281"/>
<path d="M70.5885 54.3023C70.4957 54.4237 70.3744 54.5307 70.2388 54.6021C70.1032 54.6735 69.9604 54.7235 69.8106 54.7521C69.3538 54.852 68.8756 54.7378 68.5187 54.4451C68.3974 54.3451 68.2975 54.2309 68.2118 54.1024C68.0405 53.8454 67.962 53.5384 67.9977 53.2314C68.012 53.1457 68.0905 53.0815 68.1761 53.0957C68.2475 53.1029 68.2975 53.16 68.3117 53.2314V53.2385C68.3903 53.674 68.6829 54.0453 69.0968 54.2166C69.3038 54.2951 69.5179 54.3237 69.7392 54.3023C69.9604 54.288 70.1746 54.2166 70.353 54.0881L70.3601 54.081C70.4315 54.031 70.5314 54.0453 70.5814 54.1167C70.6313 54.1666 70.6313 54.2452 70.5885 54.3023Z" fill="#9B3C82"/>
<path d="M60.1539 54.5807C60.0968 54.5807 60.0468 54.545 60.0254 54.495C59.0405 52.3675 57.2205 52.7244 57.142 52.7387C57.0635 52.753 56.9921 52.703 56.9707 52.6316C56.9564 52.5531 57.0064 52.4817 57.0778 52.4603C57.0992 52.4531 59.1975 52.0391 60.2752 54.3808C60.3109 54.4522 60.2752 54.5378 60.2039 54.5735C60.1896 54.5807 60.1753 54.5807 60.1539 54.5807Z" fill="#9B3C82"/>
<path d="M72.5156 70.4443C72.4157 70.4443 72.3372 70.3658 72.3372 70.2659C72.3372 70.1873 72.3943 70.1159 72.4728 70.0945C74.1928 69.6447 74.9851 68.3668 74.9922 68.3525C75.0422 68.2668 75.1492 68.2383 75.2349 68.2883C75.3205 68.3382 75.3491 68.4453 75.2991 68.531C75.2634 68.5881 74.4284 69.9446 72.5655 70.4301C72.5513 70.4443 72.5299 70.4443 72.5156 70.4443Z" fill="#66B0F0"/>
<path d="M138.256 87.1934C133.275 91.5555 119.607 115.03 123.504 118.642C127.144 122.012 135.837 95.5321 138.256 87.1934Z" fill="#5B2448"/>
<path d="M152.538 154.017C149.94 155.588 145.015 155.252 139.898 153.382C139.306 153.168 138.713 152.932 138.121 152.675C137.414 152.368 136.729 152.111 136.08 151.904C131.59 150.44 127.622 149.891 126.23 148.499C122.733 145 126.823 141.231 129.699 132.799C131.583 127.273 133.132 117.036 135.758 111.039C135.694 111.06 132.368 112.202 127.593 112.673C127.451 112.688 127.308 112.702 127.165 112.716C126.08 112.816 124.924 112.873 123.718 112.88H123.668L123.661 108.204L123.568 63.9404C128.079 58.0148 142.11 45.007 149.769 58.0148C157.984 71.965 148.091 91.2983 148.091 91.2983C148.091 91.2983 163.237 95.5462 154.279 114.273C145.401 132.842 140.969 137.311 142.289 143.108C142.367 143.444 142.482 143.765 142.631 144.072C143.124 145.1 144.016 146.214 145.151 147.235C147.171 149.034 149.954 150.533 152.659 150.726C154.222 150.826 155.5 152.225 152.538 154.017Z" fill="#F4ADA2"/>
<path d="M140.754 84.8861C139.912 85.3073 138.085 84.6077 136.379 83.3369C137.129 81.5877 137.814 79.7886 138.463 77.7539C141.133 81.2308 141.961 84.2792 140.754 84.8861Z" fill="#5B2448"/>
<path d="M137.45 80.6682C137.107 81.5891 136.75 82.4673 136.372 83.3383C136.715 83.5953 137.079 83.838 137.45 84.0522V85.7656L126.88 81.9889L123.575 63.9336C125.595 71.1443 137.45 80.6682 137.45 80.6682Z" fill="#9B3C82"/>
<path d="M137.293 88.2357C133.375 93.6616 128.329 105.135 127.172 112.702C126.087 112.802 124.931 112.859 123.725 112.866H123.675L123.668 108.19L132.333 87.6432L136.508 86.1582L137.293 88.2357Z" fill="#9B3C82"/>
<path d="M148.091 91.2973C148.106 91.2688 148.149 91.1759 148.22 91.0332C143.624 89.4625 138.942 88.1846 134.181 87.235C130.513 86.514 126.987 86.0214 123.625 85.7715V86.0571C126.972 86.3141 130.477 86.7995 134.124 87.5206C138.863 88.4559 143.517 89.7338 148.091 91.2973Z" fill="#9B3C82"/>
<path d="M140.869 101.857C140.911 101.793 140.897 101.7 140.833 101.657C140.769 101.614 140.676 101.629 140.633 101.693C139.006 103.97 136.922 107.79 135.394 111.153C135.566 111.103 135.694 111.06 135.758 111.038C137.279 107.747 139.284 104.07 140.869 101.857Z" fill="#9B3C82"/>
<path d="M136.201 83.9163C136.258 83.9163 136.308 83.8806 136.329 83.8307L136.351 83.7736C136.386 83.695 136.422 83.6165 136.451 83.538C137.229 81.7317 137.942 79.8041 138.578 77.7979C139.791 73.9927 140.583 70.3159 140.876 67.1818C140.883 67.1032 140.826 67.039 140.747 67.0319C140.669 67.0247 140.597 67.0818 140.59 67.1604C140.298 70.2802 139.505 73.9284 138.299 77.7194C137.671 79.6899 136.936 81.6603 136.179 83.4309C136.144 83.5094 136.108 83.5879 136.08 83.6665L136.058 83.7236C136.051 83.745 136.044 83.7593 136.044 83.7807C136.058 83.8521 136.122 83.9163 136.201 83.9163Z" fill="#9B3C82"/>
<path d="M123.518 63.9902C119.407 69.1091 115.032 76.3198 113.754 79.4897C112.477 82.6596 106.581 97.1667 108.266 111.859C108.266 111.859 118.265 114.258 123.454 118.706C120.692 114.529 131.469 92.3619 140.697 84.9513C135.644 86.422 124.325 69.5803 123.518 63.9902Z" fill="#F94F46"/>
<path d="M113.155 85.7867C113.076 85.7939 113.019 85.8653 113.026 85.9367C113.033 86.0152 113.098 86.0723 113.176 86.0652C119.393 85.5154 126.43 86.0009 134.088 87.5073C135.166 87.7215 136.244 87.9571 137.321 88.1998C137.393 88.1213 137.464 88.0356 137.543 87.9571C136.415 87.6929 135.287 87.4502 134.152 87.2289C126.466 85.7225 119.4 85.2299 113.155 85.7867Z" fill="#FCB6B1"/>
<path d="M130.812 90.2769C131.203 90.2769 131.519 89.9604 131.519 89.5701C131.519 89.1797 131.203 88.8633 130.812 88.8633C130.422 88.8633 130.106 89.1797 130.106 89.5701C130.106 89.9604 130.422 90.2769 130.812 90.2769Z" fill="#FFCF2D"/>
<path d="M129.199 81.1812C129.589 81.1812 129.906 80.8647 129.906 80.4744C129.906 80.084 129.589 79.7676 129.199 79.7676C128.809 79.7676 128.493 80.084 128.493 80.4744C128.493 80.8647 128.809 81.1812 129.199 81.1812Z" fill="#FFCF2D"/>
<path d="M118.736 80.2671C119.126 80.2671 119.443 79.9507 119.443 79.5603C119.443 79.17 119.126 78.8535 118.736 78.8535C118.346 78.8535 118.03 79.17 118.03 79.5603C118.03 79.9507 118.346 80.2671 118.736 80.2671Z" fill="#FFCF2D"/>
<path d="M122.983 70.9077C123.373 70.9077 123.689 70.5913 123.689 70.2009C123.689 69.8106 123.373 69.4941 122.983 69.4941C122.592 69.4941 122.276 69.8106 122.276 70.2009C122.276 70.5913 122.592 70.9077 122.983 70.9077Z" fill="#FFCF2D"/>
<path d="M119.771 92.0249C120.161 92.0249 120.478 91.7085 120.478 91.3181C120.478 90.9278 120.161 90.6113 119.771 90.6113C119.381 90.6113 119.064 90.9278 119.064 91.3181C119.064 91.7085 119.381 92.0249 119.771 92.0249Z" fill="#FFCF2D"/>
<path d="M123.946 102.064C124.337 102.064 124.653 101.748 124.653 101.357C124.653 100.967 124.337 100.65 123.946 100.65C123.556 100.65 123.24 100.967 123.24 101.357C123.24 101.748 123.556 102.064 123.946 102.064Z" fill="#FFCF2D"/>
<path d="M112.698 99.437C113.088 99.437 113.405 99.1206 113.405 98.7302C113.405 98.3399 113.088 98.0234 112.698 98.0234C112.308 98.0234 111.991 98.3399 111.991 98.7302C111.991 99.1206 112.308 99.437 112.698 99.437Z" fill="#FFCF2D"/>
<path d="M116.873 109.945C117.264 109.945 117.58 109.628 117.58 109.238C117.58 108.848 117.264 108.531 116.873 108.531C116.483 108.531 116.167 108.848 116.167 109.238C116.167 109.628 116.483 109.945 116.873 109.945Z" fill="#FFCF2D"/>
<path d="M152.445 156.366L138.092 157.679L133.867 158.065L121.527 159.193C121.498 159.193 121.477 159.193 121.448 159.193C120.984 159.193 120.606 158.814 120.613 158.343C120.613 157.908 120.942 157.551 121.377 157.508L134.267 156.33L138.663 155.93L152.295 154.681C152.759 154.631 153.173 154.966 153.223 155.43C153.273 155.894 152.938 156.308 152.474 156.358C152.459 156.366 152.452 156.366 152.445 156.366Z" fill="#9B3C82"/>
<path d="M145.165 147.221C142.995 149.013 141.19 151.134 139.898 153.375C139.42 154.196 139.006 155.053 138.663 155.938C138.442 156.51 138.249 157.088 138.092 157.68L133.867 158.066C133.967 157.488 134.102 156.909 134.259 156.338C134.695 154.789 135.302 153.297 136.079 151.89C136.415 151.276 136.779 150.67 137.179 150.07C138.692 147.807 140.533 145.786 142.646 144.059C143.138 145.094 144.03 146.208 145.165 147.221Z" fill="#9B3C82"/>
<path d="M79.2531 86.2363C75.6131 93.3756 75.0778 112.58 80.1952 113.187C86.0192 113.873 79.2531 86.2363 79.2531 86.2363Z" fill="#5B2448"/>
<path d="M105.589 69.7938C108.08 70.4007 109.022 71.2788 105.183 71.3431C101.343 71.4073 101.007 71.75 101.007 71.75C101.007 71.75 102.82 71.9071 104.105 72.2212C105.611 72.5853 106.467 73.1422 104.041 73.4991C99.5298 74.1702 97.0318 74.5129 95.69 77.8755C95.5473 78.2325 95.3831 78.8393 95.1833 79.639C94.8835 80.8669 94.4981 82.5518 94.0128 84.5222C92.2142 91.8186 88.9311 102.942 82.5433 108.582C82.0936 108.974 81.6297 109.346 81.1444 109.695C80.2594 110.324 79.303 110.845 78.2967 111.252C78.261 111.266 78.2181 111.28 78.1753 111.302C78.054 111.116 77.9398 110.931 77.8256 110.745C77.7685 110.652 77.7185 110.559 77.6686 110.467C77.64 110.417 77.6186 110.374 77.5901 110.324C77.5758 110.302 77.5615 110.274 77.5544 110.252C74.2998 104.198 75.5131 95.9666 77.5758 90.1409C78.0397 88.7987 78.6036 87.4993 79.253 86.2357C79.3101 86.1286 79.3672 86.0072 79.4386 85.8787C80.0881 84.5936 81.1729 82.2662 82.6075 79.6818C82.6289 79.6389 82.6504 79.5961 82.6789 79.5604C83.6924 77.747 84.8772 75.8194 86.1975 74.0489C86.2118 74.0274 86.2332 73.9989 86.2475 73.9775C88.2459 71.3216 90.5512 69.0299 93.0635 68.0447C93.1064 68.0304 93.1492 68.009 93.192 67.9947C94.6409 66.8524 95.7685 65.3389 96.6321 64.3394C97.9811 62.783 98.5164 62.9901 98.2523 64.6749C98.0953 65.6387 97.9454 66.3384 97.8241 66.8167C104.033 65.9529 108.915 67.9376 106.267 68.316C108.287 68.8514 109.365 69.7938 105.589 69.7938Z" fill="#F4ADA2"/>
<path d="M97.8241 66.8168C97.8455 66.7239 97.874 66.6169 97.8954 66.5098C97.0675 66.6526 95.4759 66.9595 93.763 67.5093C93.5774 67.6735 93.3847 67.8377 93.192 67.9947C95.1048 67.3236 96.882 66.981 97.8241 66.8168Z" fill="#9B3C82"/>
<path d="M100.351 67.7945C100.351 67.7945 100.344 67.8017 100.351 67.7945C100.272 67.8088 100.215 67.8802 100.229 67.9587C100.244 68.0373 100.315 68.0872 100.394 68.0801C102.392 67.7874 104.583 68.0658 106.275 68.3157C106.539 68.2729 106.781 68.2229 106.903 68.1229C106.903 68.1229 106.753 68.1015 106.731 68.0944C104.99 67.8231 102.556 67.4733 100.351 67.7945Z" fill="#9B3C82"/>
<path d="M100.479 69.4872C100.401 69.5014 100.351 69.5728 100.365 69.6442C100.379 69.7227 100.451 69.7799 100.529 69.7656C100.558 69.7584 102.913 69.3658 105.611 69.7941C106.075 69.787 106.467 69.787 106.781 69.7513C103.648 68.9731 100.515 69.48 100.479 69.4872Z" fill="#9B3C82"/>
<path d="M81.1373 109.696C80.2166 110.353 79.2245 110.888 78.1753 111.295C74.1571 105.177 75.0493 95.8387 77.2332 89.6703L79.2531 86.2363C76.8264 92.6332 77.5045 104.22 81.1373 109.696Z" fill="#9B3C82"/>
<path d="M79.253 86.2354C78.2396 83.0013 63.8295 59.7556 56.4854 70.4004C49.134 81.0594 56.9564 102.741 69.0112 110.088C69.0112 110.088 73.0508 114.064 80.1952 113.186C76.8978 111.766 72.9223 99.7073 79.253 86.2354Z" fill="#66B0F0"/>
<path d="M79.2459 86.2159C79.2459 86.2087 79.2388 86.1944 79.2388 86.1873C79.2103 86.1088 79.1817 86.016 79.1389 85.9232V85.916L79.1317 85.9232C78.4109 86.1802 77.1048 86.6942 75.556 87.5509C73.3792 88.7503 70.2531 90.8778 67.7336 94.1976C67.7122 94.219 67.7051 94.2547 67.7051 94.2833C67.7051 94.3618 67.7693 94.4261 67.8478 94.4261C67.8906 94.4261 67.9335 94.4047 67.962 94.369C70.4529 91.0849 73.5362 88.9859 75.6916 87.8008C76.9121 87.1297 77.9755 86.6728 78.7107 86.3801C74.6496 90.8064 67.9477 98.5526 68.7186 109.904C68.8113 109.961 68.897 110.011 68.9898 110.068C68.9898 110.068 68.9969 110.075 69.0183 110.09C68.1262 98.4384 75.2348 90.5637 79.2459 86.2159Z" fill="#B0DCF7"/>
<path d="M95.1833 79.6401C94.8835 80.868 94.4981 82.5529 94.0128 84.5234C92.0715 83.1526 89.5663 81.8176 87.0326 80.8323C86.7685 80.7252 86.5044 80.6253 86.2332 80.5325C85.6837 80.3326 85.1341 80.1541 84.5917 79.997L84.9414 78.8048L85.284 77.6411L85.5195 76.8415L85.9192 75.4707C86.0263 75.4993 86.1333 75.535 86.2404 75.5635C86.4331 75.6206 86.6258 75.6849 86.8185 75.742C87.261 75.8848 87.7035 76.0419 88.1531 76.2061C88.3887 76.2917 88.6242 76.3845 88.8669 76.4773C91.058 77.3483 93.1706 78.405 95.1833 79.6401Z" fill="#5B2448"/>
<path d="M88.3201 79.1367C89.3138 77.1165 88.9753 74.9158 87.5641 74.2212C86.1528 73.5266 84.2033 74.6012 83.2095 76.6214C82.2158 78.6416 82.5543 80.8424 83.9656 81.5369C85.3768 82.2315 87.3264 81.1569 88.3201 79.1367Z" fill="#5B2448"/>
<path d="M88.6171 79.2901C89.0596 78.3977 89.2523 77.4696 89.2381 76.6272C89.1167 76.5772 89.0025 76.5272 88.8812 76.4844C88.9312 77.3054 88.7385 78.2335 88.3031 79.1331C87.9748 79.8042 87.5394 80.3824 87.0398 80.8322C87.1611 80.8822 87.2825 80.9322 87.4109 80.975C87.882 80.5181 88.3031 79.9398 88.6171 79.2901Z" fill="white"/>
<path d="M87.5558 78.7646C88.5217 76.8011 88.3241 74.7266 87.1145 74.1313C85.9048 73.5359 84.1412 74.6451 83.1754 76.6087C82.2095 78.5723 82.4071 80.6467 83.6168 81.2421C84.8264 81.8374 86.59 80.7282 87.5558 78.7646Z" fill="white"/>
<path d="M86.426 78.4265C86.3975 78.4265 86.3689 78.4194 86.3475 78.4051L84.9843 77.7411C84.8987 77.6983 84.8558 77.5912 84.9058 77.5055L85.9907 75.3994C86.0335 75.3137 86.1405 75.278 86.2333 75.3209C86.319 75.3637 86.3546 75.4708 86.3118 75.5636L85.3126 77.5055L86.5117 78.0909C86.5973 78.1338 86.6401 78.2409 86.5973 78.3265C86.5616 78.3837 86.4974 78.4265 86.426 78.4265Z" fill="#5B2448"/>
</g>
<g clip-path="url(#clip2_118_3716)">
<path d="M99.1121 57.5801C99.1179 57.6288 99.1056 57.6778 99.0777 57.7181C99.0497 57.7583 99.0079 57.787 98.9603 57.7986C98.9126 57.8102 98.8623 57.804 98.819 57.7811C98.7756 57.7583 98.7421 57.7204 98.7248 57.6745L96.4912 51.6367C96.4816 51.6119 96.4771 51.5854 96.4778 51.5588C96.4786 51.5323 96.4846 51.5061 96.4956 51.4819C96.5065 51.4577 96.5222 51.4358 96.5417 51.4177C96.5611 51.3996 96.584 51.3855 96.609 51.3763C96.634 51.3671 96.6605 51.3629 96.6871 51.364C96.7137 51.3652 96.7398 51.3715 96.7639 51.3828C96.788 51.3941 96.8096 51.4101 96.8275 51.4298C96.8453 51.4495 96.8591 51.4725 96.8679 51.4976L99.1015 57.5355C99.1067 57.5499 99.1103 57.5649 99.1121 57.5801Z" fill="#FFCF2D"/>
<path d="M92.4922 61.0232C92.4973 61.0625 92.4905 61.1025 92.4728 61.138C92.455 61.1735 92.4272 61.2029 92.3927 61.2226C92.3582 61.2423 92.3187 61.2514 92.279 61.2486C92.2394 61.2459 92.2015 61.2315 92.1701 61.2072L87.072 57.2682C87.0507 57.2523 87.0327 57.2323 87.0191 57.2094C87.0056 57.1864 86.9968 57.161 86.9932 57.1347C86.9896 57.1083 86.9913 57.0815 86.9982 57.0557C87.0051 57.03 87.0171 57.0059 87.0334 56.9849C87.0497 56.9638 87.0701 56.9462 87.0933 56.9331C87.1165 56.92 87.1421 56.9116 87.1686 56.9085C87.195 56.9053 87.2219 56.9075 87.2475 56.9148C87.2731 56.9221 87.297 56.9345 87.3178 56.9511L92.4159 60.8901C92.4368 60.9061 92.4543 60.9261 92.4674 60.949C92.4805 60.9718 92.489 60.9971 92.4922 61.0232Z" fill="#FFCF2D"/>
<path d="M107.229 49.4684C107.231 49.4859 107.231 49.5037 107.229 49.5212L106.35 55.8986C106.342 55.9513 106.314 55.9989 106.272 56.0311C106.23 56.0633 106.176 56.0773 106.123 56.0701C106.07 56.0629 106.023 56.035 105.991 55.9927C105.958 55.9503 105.944 55.8969 105.952 55.8442L106.831 49.4668C106.837 49.4186 106.861 49.3745 106.898 49.3426C106.935 49.3107 106.982 49.2933 107.031 49.2935C107.079 49.2937 107.126 49.3116 107.163 49.3438C107.199 49.376 107.223 49.4204 107.229 49.4686L107.229 49.4684Z" fill="#FFCF2D"/>
</g>
<g clip-path="url(#clip3_118_3716)">
<path d="M106.605 76.6287L116.964 56.5157L116.978 56.4914L117.022 56.4839L124.715 55.829L113.687 78.1513L106.605 76.6287Z" fill="#66B0F0"/>
<path d="M114.005 79.0107C113.985 79.0472 113.965 79.0838 113.938 79.117C113.784 79.2943 113.526 79.3583 113.31 79.2463C113.054 79.1203 112.943 78.804 113.069 78.5475L113.398 77.8695L113.552 77.5488L123.903 56.3885L117.37 56.7868L107.444 76.1607L107.281 76.4841L107.145 76.7433L106.883 77.2589C106.751 77.512 106.438 77.6173 106.182 77.4912L106.17 77.4845C105.926 77.3496 105.828 77.04 105.957 76.793L106.236 76.247L106.606 76.1815L106.396 75.9296L116.563 56.0766L116.573 56.0583C116.648 55.9088 116.783 55.8085 116.949 55.7812L116.993 55.7737C117.012 55.7683 117.037 55.7662 117.053 55.7669L124.729 55.3014C125.016 55.2854 125.262 55.5014 125.283 55.7921C125.289 55.8827 125.273 55.9693 125.235 56.0519L114.381 78.2474L114.192 78.3579L114.067 78.8855L114.063 78.8916L114.005 79.0107Z" fill="#FFCF2D"/>
<path d="M114.384 78.2429C114.294 78.0178 114.135 77.8179 113.916 77.6965C113.91 77.6931 113.898 77.6864 113.891 77.683C113.8 77.6324 113.702 77.594 113.604 77.5712L113.554 77.5598L107.45 76.1656L106.908 76.0399L106.399 75.925L106.236 76.2485L106.738 76.36L107.281 76.4856L113.517 77.9135C113.588 77.9289 113.652 77.9565 113.713 77.9903L113.75 78.0105L113.762 78.0172C113.774 78.024 113.792 78.0341 113.807 78.0503L113.819 78.0571C113.846 78.08 113.873 78.103 113.897 78.132C113.912 78.1482 113.921 78.161 113.935 78.1772C113.95 78.1934 113.959 78.2063 113.971 78.2286C113.977 78.232 113.973 78.238 113.979 78.2414C113.988 78.2542 113.997 78.2671 114.006 78.2799C114.035 78.3279 114.051 78.3847 114.071 78.4353L114.079 78.4637C114.081 78.4732 114.078 78.4793 114.084 78.4827C114.087 78.4921 114.083 78.4982 114.086 78.5077C114.089 78.5171 114.088 78.5327 114.093 78.5516C114.096 78.5611 114.099 78.5705 114.098 78.5861C114.104 78.605 114.103 78.6206 114.099 78.6422C114.098 78.6578 114.098 78.6733 114.1 78.6983C114.099 78.7139 114.095 78.7355 114.091 78.7572L114.087 78.7633C114.083 78.7849 114.083 78.8005 114.079 78.8221C114.075 78.8437 114.079 78.8221 114.079 78.8221C114.078 78.8377 114.06 78.8837 114.057 78.8898L114.384 78.2429Z" fill="white"/>
<path d="M114.085 78.8084C113.996 79.2129 113.59 79.4731 113.186 79.3845L88.4245 73.7994C88.0205 73.7107 87.7705 73.3013 87.8596 72.8968C87.9488 72.4923 88.3582 72.2415 88.7622 72.3302L106.239 76.2409L106.742 76.3524L107.284 76.478L113.521 77.9059C113.927 78.004 114.175 78.4039 114.085 78.8084Z" fill="#9B3C82"/>
<path d="M112.313 78.6945C112.444 78.7671 112.609 78.7196 112.682 78.5884C112.754 78.4573 112.707 78.292 112.576 78.2194C112.445 78.1468 112.28 78.1942 112.207 78.3254C112.135 78.4566 112.182 78.6218 112.313 78.6945Z" fill="#FFCF2D"/>
<path d="M109.281 77.9682C109.147 77.8941 109.098 77.7237 109.172 77.5897C109.233 77.4801 109.36 77.4231 109.481 77.45L111.28 77.8747C111.428 77.909 111.522 78.0563 111.493 78.2078C111.465 78.3593 111.311 78.4494 111.16 78.4213L111.154 78.4179L109.354 77.9932C109.323 77.9918 109.305 77.9817 109.281 77.9682Z" fill="#FFCF2D"/>
</g>
<g clip-path="url(#clip4_118_3716)">
<path d="M120.106 106.699C119.101 107.197 118.068 107.669 117.014 108.126C115.377 108.836 113.682 109.501 111.929 110.106C86.069 119.091 70.6069 113.542 56.7006 103.419C52.3372 95.2264 54.6 88.2836 55.2838 85.52L63.1693 78.2313C67.0926 77.2142 71.0416 79.1975 71.0416 79.1975C84.0289 76.8007 91.2094 78.9697 112.281 74.7466C113.07 93.4397 119.267 105.195 120.106 106.699Z" fill="#66B0F0"/>
<path d="M106.491 104.402C106.221 105.772 105.393 109.618 105.032 111.424C104.931 111.943 104.531 112.365 104.019 112.494C101.14 113.229 98.2231 113.787 95.2744 114.163C94.596 112.94 82.8794 91.9758 70.8654 82.5028L69.2209 83.1773C69.2209 83.1773 66.6007 80.9754 64.3709 79.8883C65.7875 78.7601 70.2276 77.6432 72.2852 80.1981C72.2852 80.1981 93.3018 85.4777 106.298 103.528C106.486 103.782 106.552 104.095 106.491 104.402Z" fill="#F94F46"/>
<path d="M115.05 56.7205C113.315 63.0527 112.172 71.4089 112.261 74.8254C112.351 78.2418 112.716 93.8968 120.109 106.705C120.109 106.705 130.237 104.926 136.767 106.942C132.571 104.21 133.635 79.5841 139.152 69.1129C135.102 72.4732 118.014 61.5278 115.05 56.7205Z" fill="#F94F46"/>
<path d="M100.912 69.1796C103.439 68.745 104.652 69.1756 101.155 70.7627C97.6584 72.3499 97.487 72.7978 97.487 72.7978C97.487 72.7978 99.2126 72.2204 100.516 71.9973C102.043 71.7319 103.05 71.9019 100.966 73.1952C97.0949 75.6061 94.9396 76.9146 95.0469 80.5335C95.058 80.9178 95.149 81.5398 95.2839 82.3529C95.4976 83.5987 95.8146 85.2978 96.1535 87.2986C97.4074 94.7081 98.8223 106.219 95.2069 113.935C94.9506 114.474 94.6728 115 94.3668 115.514C93.8049 116.442 93.135 117.301 92.3737 118.075C92.3467 118.102 92.313 118.132 92.2823 118.169C92.0971 118.047 91.9185 117.922 91.7398 117.797C91.6505 117.735 91.5677 117.67 91.485 117.604C91.4389 117.57 91.4022 117.539 91.3561 117.505C91.3345 117.491 91.31 117.47 91.295 117.453C85.8998 113.195 83.7368 105.16 83.3105 98.9948C83.2019 97.5789 83.2021 96.1624 83.295 94.7447C83.3048 94.6237 83.3088 94.4897 83.3232 94.3434C83.4076 92.906 83.4765 90.339 83.764 87.3972C83.7666 87.3493 83.7692 87.3015 83.7812 87.2574C83.9892 85.1905 84.309 82.9506 84.8156 80.8008C84.8202 80.7755 84.8285 80.7407 84.8331 80.7154C85.6094 77.4836 86.8122 74.4637 88.7249 72.56C88.7585 72.5299 88.7892 72.4932 88.8228 72.4631C89.6974 70.8385 90.1295 69.0012 90.524 67.7406C91.1421 65.7759 91.7156 65.7528 92.1439 67.4036C92.3834 68.3503 92.5243 69.0518 92.6034 69.5389C97.956 66.2752 103.224 66.153 100.946 67.554C103.012 67.2413 104.376 67.677 100.912 69.1796Z" fill="#F4ADA2"/>
<path d="M83.295 94.7445C81.0781 92.1809 58.6071 76.5906 56.106 89.2789C53.6041 101.983 69.4095 118.761 83.3922 120.703C83.3922 120.703 88.6807 122.743 94.8854 119.094C91.295 119.103 82.8489 109.623 83.295 94.7445Z" fill="#66B0F0"/>
</g>
<defs>
<clipPath id="clip0_118_3716">
<rect width="162.96" height="96.08" fill="white" transform="translate(18.72 31.8398)"/>
</clipPath>
<clipPath id="clip1_118_3716">
<rect width="106.48" height="121.04" fill="white" transform="translate(50.64 38.1602)"/>
</clipPath>
<clipPath id="clip2_118_3716">
<rect width="10" height="21.04" fill="white" transform="translate(87.5966 61.8496) rotate(-97.2633)"/>
</clipPath>
<clipPath id="clip3_118_3716">
<rect width="17.5899" height="32.24" fill="white" transform="translate(111.554 47.8926) rotate(29.0115)"/>
</clipPath>
<clipPath id="clip4_118_3716">
<rect width="5.28" height="2.96" fill="white" transform="translate(94.3727 74.4727) rotate(-23.4524)"/>
</clipPath>
</defs>
</svg>
