<svg width="200" height="200" viewBox="0 0 200 200" fill="none" xmlns="http://www.w3.org/2000/svg">
<g clip-path="url(#clip0_108_9196)">
<path d="M163.318 137.037H34.7807C32.4238 137.037 30.4302 135.128 30.4302 132.779L30.4386 29.7789C30.4386 27.7345 32.1788 25.9097 34.2231 25.9097H163.622C165.81 25.9097 167.424 27.8527 167.424 30.0493L167.584 132.762C167.584 135.119 165.675 137.037 163.318 137.037Z" fill="white"/>
<path d="M163.512 137.037H34.2653C32.0098 137.037 30.1852 135.212 30.1852 132.956V33.6396H167.593V132.956C167.593 135.204 165.759 137.037 163.512 137.037ZM30.5231 33.9776V132.956C30.5231 135.026 32.1957 136.699 34.2653 136.699H163.512C165.582 136.699 167.255 135.026 167.255 132.956V33.9776H30.5231Z" fill="#66B0F0"/>
<path d="M167.593 33.9777H30.1852V29.8296C30.1852 27.574 32.0183 25.7407 34.2738 25.7407H163.512C165.768 25.7407 167.593 27.574 167.601 29.8296V33.9777H167.593ZM30.5231 33.6398H167.255V29.8296C167.255 27.7598 165.574 26.0871 163.504 26.0786H34.2738C32.2041 26.0786 30.5231 27.7598 30.5231 29.8296V33.6398Z" fill="#66B0F0"/>
<path d="M146.203 32.0429C147.37 32.0429 148.315 31.0973 148.315 29.9309C148.315 28.7644 147.37 27.8188 146.203 27.8188C145.037 27.8188 144.092 28.7644 144.092 29.9309C144.092 31.0973 145.037 32.0429 146.203 32.0429Z" fill="#21A0AA"/>
<path d="M153.612 32.1191C154.778 32.1191 155.724 31.1735 155.724 30.0071C155.724 28.8406 154.778 27.895 153.612 27.895C152.446 27.895 151.5 28.8406 151.5 30.0071C151.5 31.1735 152.446 32.1191 153.612 32.1191Z" fill="#FFCF2D"/>
<path d="M160.438 32.0429C161.604 32.0429 162.549 31.0973 162.549 29.9309C162.549 28.7644 161.604 27.8188 160.438 27.8188C159.271 27.8188 158.326 28.7644 158.326 29.9309C158.326 31.0973 159.271 32.0429 160.438 32.0429Z" fill="#F94F46"/>
</g>
<g clip-path="url(#clip1_108_9196)">
<path d="M93.3859 101.613H79.3289C79.2613 101.613 79.1965 101.587 79.1487 101.54C79.1009 101.492 79.0741 101.429 79.0741 101.362C79.0741 101.296 79.1009 101.232 79.1487 101.185C79.1965 101.138 79.2613 101.111 79.3289 101.111H93.3859C93.4534 101.111 93.5182 101.138 93.566 101.185C93.6138 101.232 93.6407 101.296 93.6407 101.362C93.6407 101.429 93.6138 101.492 93.566 101.54C93.5182 101.587 93.4534 101.613 93.3859 101.613Z" fill="#66B0F0"/>
<path d="M103.407 101.613H96.5473C96.4797 101.613 96.4149 101.587 96.3671 101.54C96.3193 101.492 96.2925 101.429 96.2925 101.362C96.2925 101.296 96.3193 101.232 96.3671 101.185C96.4149 101.138 96.4797 101.111 96.5473 101.111H103.407C103.474 101.111 103.539 101.138 103.587 101.185C103.635 101.232 103.662 101.296 103.662 101.362C103.662 101.429 103.635 101.492 103.587 101.54C103.539 101.587 103.474 101.613 103.407 101.613Z" fill="#66B0F0"/>
<path d="M82.8854 109.233H79.3289C79.2613 109.233 79.1965 109.206 79.1487 109.159C79.1009 109.112 79.0741 109.048 79.0741 108.982C79.0741 108.915 79.1009 108.851 79.1487 108.804C79.1965 108.757 79.2613 108.731 79.3289 108.731H82.8854C82.953 108.731 83.0178 108.757 83.0656 108.804C83.1134 108.851 83.1402 108.915 83.1402 108.982C83.1402 109.048 83.1134 109.112 83.0656 109.159C83.0178 109.206 82.953 109.233 82.8854 109.233Z" fill="#66B0F0"/>
<path d="M103.407 109.233H85.8211C85.7535 109.233 85.6887 109.206 85.6409 109.159C85.5931 109.112 85.5663 109.048 85.5663 108.982C85.5663 108.915 85.5931 108.851 85.6409 108.804C85.6887 108.757 85.7535 108.731 85.8211 108.731H103.407C103.474 108.731 103.539 108.757 103.587 108.804C103.635 108.851 103.662 108.915 103.662 108.982C103.662 109.048 103.635 109.112 103.587 109.159C103.539 109.206 103.474 109.233 103.407 109.233Z" fill="#66B0F0"/>
<path d="M96.5473 116.852H79.3714C79.3038 116.852 79.239 116.826 79.1912 116.779C79.1434 116.732 79.1166 116.668 79.1166 116.601C79.1166 116.535 79.1434 116.471 79.1912 116.424C79.239 116.377 79.3038 116.351 79.3714 116.351H96.5473C96.6149 116.351 96.6797 116.377 96.7275 116.424C96.7753 116.471 96.8021 116.535 96.8021 116.601C96.8021 116.668 96.7753 116.732 96.7275 116.779C96.6797 116.826 96.6149 116.852 96.5473 116.852Z" fill="#66B0F0"/>
<path d="M103.449 116.852H99.4827C99.4151 116.852 99.3503 116.826 99.3025 116.779C99.2547 116.732 99.2279 116.668 99.2279 116.601C99.2279 116.535 99.2547 116.471 99.3025 116.424C99.3503 116.377 99.4151 116.351 99.4827 116.351H103.449C103.516 116.351 103.581 116.377 103.629 116.424C103.677 116.471 103.704 116.535 103.704 116.601C103.704 116.668 103.677 116.732 103.629 116.779C103.581 116.826 103.516 116.852 103.449 116.852Z" fill="#66B0F0"/>
</g>
<g clip-path="url(#clip2_108_9196)">
<path d="M156.068 82.7488C156.759 79.5023 155.974 74.6408 154.323 71.6681C153.336 72.2803 152.267 72.8 151.666 72.7377C149.199 72.4817 147.691 68.0684 147.154 66.7005C146.528 66.6396 145.544 66.0588 146.059 65.4517C146.295 65.1634 146.521 64.8492 146.583 64.4734C146.646 64.093 146.58 63.6378 146.53 63.2614C146.492 62.9727 146.446 62.6866 146.398 62.4005C146.331 62.0001 146.261 61.6005 146.205 61.1984C146.205 61.1953 146.204 61.1916 146.203 61.1884C146.162 60.8904 146.13 60.5916 146.112 60.2897C146.044 59.2976 146.08 58.3012 146.218 57.3164C146.58 54.9493 147.866 52.8385 149.929 51.5862C150.852 51.0377 151.862 50.6507 152.915 50.4417C152.92 50.4407 152.924 50.4402 152.929 50.439C152.996 50.4252 153.064 50.4119 153.131 50.3991C159.236 49.255 163.367 54.8366 162.62 59.5232C162.557 59.5477 162.385 59.6156 162.366 59.6228C162.366 59.6239 162.366 59.6228 162.365 59.6237C162.331 59.6372 160.652 60.2491 159.978 60.4598C160.882 70.1719 167.938 75.5108 167.938 75.5108L163.653 83.7454L156.068 82.7488Z" fill="#F4ADA2"/>
<path opacity="0.52" d="M155.851 66.4925C156.602 65.7416 156.602 64.5241 155.851 63.7732C155.1 63.0222 153.882 63.0222 153.131 63.7732C152.38 64.5241 152.38 65.7416 153.131 66.4925C153.882 67.2434 155.1 67.2434 155.851 66.4925Z" fill="#E57281"/>
<path d="M149.137 60.7153C150.197 60.6799 151.01 61.311 150.961 61.8216C150.913 62.3323 150.01 62.7251 148.962 62.5648C147.884 62.4003 147.072 61.9173 147.138 61.4584C147.205 60.9824 148.086 60.7504 149.137 60.7153Z" fill="#5B2448"/>
<path d="M150.108 68.1366C150.305 68.1461 150.5 68.1039 150.675 68.0143C150.851 67.931 151.006 67.8092 151.129 67.6578C151.187 67.5822 151.236 67.4994 151.274 67.4114C151.313 67.3236 151.341 67.2312 151.357 67.1364C151.39 66.9417 151.373 66.7419 151.307 66.5556L151.304 66.5455C151.29 66.5077 151.291 66.4665 151.305 66.429C151.319 66.3916 151.346 66.3603 151.381 66.3407C151.416 66.3211 151.456 66.3144 151.496 66.3218C151.535 66.3292 151.57 66.3503 151.596 66.3812C151.774 66.6089 151.862 66.8942 151.844 67.1828C151.837 67.3268 151.808 67.4688 151.758 67.604C151.706 67.7388 151.636 67.8656 151.548 67.9805C151.369 68.2052 151.128 68.3734 150.855 68.4651C150.722 68.5119 150.581 68.5374 150.439 68.5406C150.293 68.5448 150.148 68.5171 150.014 68.4595C149.978 68.443 149.948 68.4143 149.931 68.3783C149.914 68.3424 149.91 68.3015 149.919 68.2628C149.929 68.2241 149.952 68.1902 149.985 68.1668C150.017 68.1434 150.056 68.1321 150.096 68.1349L150.108 68.1366Z" fill="#9B3C82"/>
<path d="M150.444 63.1868C149.995 63.2459 148.921 63.4125 147.822 63.2673C147.748 63.2575 147.673 63.2774 147.614 63.3225C147.555 63.3677 147.517 63.4344 147.507 63.508V63.5104C147.457 63.9088 147.49 64.5664 148.253 64.5692C149.189 64.5726 150.438 63.8378 150.601 63.3735C150.608 63.3503 150.61 63.3256 150.605 63.3016C150.601 63.2777 150.59 63.2553 150.574 63.2366C150.559 63.2179 150.539 63.2035 150.516 63.1947C150.493 63.1859 150.469 63.1831 150.444 63.1864L150.444 63.1868Z" fill="#5B2448"/>
<path d="M146.699 54.4191C148.042 51.8479 141.855 50.0021 140.77 51.084C139.857 51.9937 145.079 57.5217 146.699 54.4191Z" fill="#F94F46"/>
<path d="M157.763 60.756C156.121 60.9461 155.115 60.2892 153.799 59.8286C152.809 59.4821 151.583 59.055 150.618 58.5393C149.908 59.331 147.753 61.0162 146.144 61.4102C139.445 63.0508 139.688 53.0236 146.065 54.2765C147.053 51.0245 153.044 47.5952 158.561 49.8104C163.101 51.6327 164.55 56.0603 165.493 58.4286C166.635 61.2995 169.991 65.5865 173.236 67.6684C176.754 69.9259 181.81 69.5329 184.094 75.1557C186.528 81.1454 182.849 84.5201 190.179 90.2238C200.054 97.9072 192.918 112.348 180.366 108.05C169.144 104.208 175.567 79.2195 170.517 77.1081C165.549 75.0308 162.397 72.4642 160.124 63.6883C160.124 63.6883 158.773 60.6389 157.763 60.756Z" fill="#5B2448"/>
<path d="M157.807 61.1152C157.807 61.1152 158.864 58.9713 160.975 58.9435C162.966 58.9177 163.717 61.7148 161.147 64.3767C160.614 64.9025 160 65.3379 159.327 65.6661L157.807 61.1152Z" fill="#F4ADA2"/>
<path d="M158.948 63.7747C158.92 63.8024 158.884 63.8205 158.844 63.8264C158.805 63.8323 158.765 63.8258 158.73 63.8078C158.695 63.7897 158.666 63.7611 158.648 63.7258C158.63 63.6906 158.623 63.6505 158.629 63.6114C158.984 61.1645 160.87 60.682 160.95 60.6626C160.998 60.6507 161.05 60.6588 161.093 60.6849C161.136 60.7111 161.167 60.7532 161.178 60.802C161.19 60.8508 161.182 60.9023 161.156 60.9452C161.13 60.9881 161.088 61.0188 161.039 61.0306C160.967 61.0485 159.321 61.4815 159.004 63.6657C158.998 63.7072 158.978 63.7456 158.948 63.7747Z" fill="#9B3C82"/>
<path d="M153.462 72.1756C154.005 72.1772 153.859 73.7791 155.151 74.5543C157.776 72.2779 157.706 70.0859 157.202 69.8316C156.735 69.5964 156.142 70.2514 155.759 70.5888C154.996 71.2634 154.375 71.734 153.462 72.1756Z" fill="#5B2448"/>
<path d="M159.683 65.9844C159.636 65.9844 159.591 65.9692 159.554 65.941C159.516 65.9129 159.489 65.8733 159.476 65.8283C159.464 65.7834 159.466 65.7354 159.483 65.6918C159.5 65.6482 159.53 65.6113 159.57 65.5867C161.185 64.5876 162.174 63.4472 162.72 62.6664C163.311 61.8194 163.523 61.2007 163.525 61.1945C163.544 61.1413 163.583 61.0977 163.634 61.073C163.684 61.0483 163.743 61.0445 163.796 61.0624C163.85 61.0802 163.894 61.1184 163.919 61.1686C163.945 61.2188 163.95 61.2771 163.933 61.3308C163.898 61.4369 163.028 63.953 159.796 65.9522C159.762 65.9733 159.723 65.9844 159.683 65.9844Z" fill="#9B3C82"/>
<path d="M155.037 60.7094C150.45 59.3115 147.6 55.8873 146.307 54.4712C146.307 54.4712 146.262 53.2843 148.054 51.9526C149.152 53.3946 152.274 58.2215 158.3 60.3913C157.633 61.5637 156.386 61.1204 155.037 60.7094Z" fill="#F94F46"/>
<path d="M146.8 54.2563C147.403 54.0898 147.733 53.3774 147.536 52.6651C147.34 51.9527 146.691 51.5102 146.088 51.6766C145.484 51.8431 145.155 52.5555 145.351 53.2679C145.548 53.9802 146.196 54.4227 146.8 54.2563Z" fill="#F94F46"/>
<path d="M146.54 54.4793C146.284 54.4765 146.036 54.3963 145.827 54.2492C145.511 54.0277 145.284 53.7017 145.186 53.329C145.08 52.9587 145.107 52.5626 145.265 52.2108C145.334 52.0453 145.44 51.8977 145.575 51.7792C145.71 51.6607 145.87 51.5743 146.043 51.5266C146.216 51.4789 146.398 51.471 146.575 51.5037C146.751 51.5363 146.918 51.6086 147.063 51.7151C147.375 51.9398 147.601 52.2645 147.703 52.6353C147.805 53.006 147.778 53.4006 147.625 53.7535C147.554 53.9179 147.447 54.0645 147.312 54.1828C147.177 54.3011 147.018 54.3881 146.846 54.4377C146.746 54.4653 146.643 54.4793 146.54 54.4793ZM146.348 51.8292C146.276 51.8292 146.204 51.8389 146.135 51.858C146.011 51.8947 145.897 51.9583 145.8 52.0443C145.704 52.1303 145.627 52.2365 145.577 52.3554C145.453 52.6333 145.433 52.9459 145.518 53.2377C145.594 53.532 145.772 53.7897 146.021 53.9653C146.124 54.0437 146.244 54.0972 146.371 54.1216C146.499 54.1461 146.63 54.1409 146.755 54.1065C146.88 54.072 146.995 54.0092 147.092 53.923C147.189 53.8367 147.264 53.7293 147.313 53.6091C147.431 53.3301 147.452 53.0191 147.372 52.7268C147.291 52.4345 147.114 52.178 146.869 51.9992C146.717 51.8912 146.535 51.832 146.348 51.8292Z" fill="#FCB6B1"/>
<path d="M147.762 53.542C145.116 52.0894 149.41 46.9243 150.974 47.2357C152.29 47.4972 150.955 55.2949 147.762 53.542Z" fill="#F94F46"/>
<path d="M149.898 53.394C149.623 53.6758 149.274 53.8747 148.892 53.9684C148.491 54.0697 148.068 54.0321 147.692 53.8617C147.503 53.7731 147.332 53.652 147.186 53.5039C147.037 53.3561 146.921 53.179 146.844 52.9839C146.77 52.7909 146.74 52.5836 146.756 52.3773C146.77 52.1798 146.826 51.9873 146.918 51.812C146.912 51.9984 146.923 52.1849 146.952 52.3692C146.982 52.5401 147.039 52.7053 147.119 52.8591C147.201 53.0079 147.304 53.1434 147.427 53.261C147.548 53.3806 147.687 53.4818 147.838 53.5611C148.152 53.7151 148.504 53.7746 148.851 53.7324C149.219 53.6901 149.575 53.575 149.898 53.394Z" fill="#FCB6B1"/>
<path d="M151.478 110.457C179.248 119.74 188.619 113.379 185.954 110.371C181.354 104.822 151.971 108.409 151.478 110.457Z" fill="#5B2448"/>
<path d="M164.136 119.733C164.136 119.733 155.424 118.213 156.876 116.98C157.643 116.501 161.526 117.528 164.136 119.733Z" fill="#5B2448"/>
<path d="M160.207 146.671C165.363 148.392 159.209 156.967 144.663 159.999C144.663 159.992 149.362 144.015 160.207 146.671Z" fill="#5B2448"/>
<path d="M117.101 165.188C116.896 167.488 108.66 169.312 97.3303 152.331C97.3235 152.331 118.207 158.415 117.101 165.188Z" fill="#5B2448"/>
<path d="M138.558 158.769C139.466 159.575 142.335 162.429 143.605 163.446C146.63 165.891 150.284 168.663 152.654 170.342C152.667 170.349 153.535 170.417 154.825 170.097C154.868 170.084 154.911 170.074 154.955 170.069C156.417 169.68 158.145 169.025 159.039 167.966C159.688 167.208 158.479 162.422 158.267 161.999C158.247 161.978 158.233 161.958 158.213 161.937C156.799 160.442 155.467 158.94 154.272 157.506C153.938 157.097 153.61 156.701 153.289 156.311C152.681 155.554 148.563 151.129 147.948 150.146L138.558 158.769Z" fill="#FCB6B1"/>
<path d="M144.663 164.293C147.689 166.737 150.277 168.656 152.647 170.336C152.66 170.342 153.528 170.411 154.818 170.09C154.861 170.077 154.904 170.068 154.948 170.063L159.032 167.96C159.681 167.202 158.472 162.415 158.26 161.992C158.24 161.972 158.267 161.794 158.24 161.774C156.826 160.278 153.815 156.926 153.275 156.305L144.663 164.293Z" fill="#66B0F0"/>
<path d="M145.961 166.867L145.968 166.86L155.856 157.677C155.923 157.616 155.962 157.532 155.966 157.442C155.97 157.353 155.938 157.265 155.877 157.199C155.816 157.133 155.732 157.094 155.642 157.09C155.553 157.086 155.465 157.118 155.399 157.178L155.392 157.185L145.503 166.369C145.438 166.43 145.4 166.514 145.396 166.603C145.392 166.693 145.423 166.78 145.483 166.847C145.545 166.91 145.629 166.948 145.718 166.951C145.807 166.955 145.894 166.925 145.961 166.867Z" fill="white"/>
<path d="M156.444 159.8C156.444 159.8 163.089 164.798 167.48 168.26L153.296 184.203C153.296 184.203 150.393 186.913 148.167 186.674C148.167 186.674 145.189 179.928 149.895 171.489C152.08 167.577 155.993 166.983 155.529 162.723C155.31 160.633 156.444 159.8 156.444 159.8Z" fill="white"/>
<path d="M148.46 186.852C149.328 186.852 150.352 186.483 151.52 185.752C152.467 185.158 153.323 184.429 154.06 183.588L167.602 168.362C167.632 168.328 167.647 168.285 167.644 168.24C167.642 168.195 167.622 168.153 167.589 168.123L167.582 168.116C163.245 164.696 156.573 159.63 156.505 159.575C156.488 159.56 156.468 159.55 156.446 159.543C156.425 159.537 156.402 159.535 156.38 159.537C156.357 159.54 156.336 159.547 156.316 159.558C156.297 159.569 156.28 159.584 156.266 159.602C156.238 159.638 156.226 159.683 156.231 159.727C156.236 159.772 156.258 159.813 156.293 159.841C156.294 159.841 156.295 159.841 156.296 159.842C156.297 159.842 156.298 159.843 156.298 159.843C156.299 159.844 156.299 159.845 156.3 159.845C156.3 159.846 156.3 159.847 156.3 159.848C156.368 159.896 162.89 164.853 167.227 168.273L153.801 183.363C153.084 184.176 152.254 184.882 151.336 185.459C150.161 186.196 149.109 186.551 148.283 186.497C147.962 185.746 147.402 183.875 147.347 181.526C147.314 179.703 147.565 177.885 148.092 176.139C148.761 173.913 149.874 171.742 151.404 169.673C151.418 169.655 151.428 169.635 151.434 169.613C151.44 169.591 151.441 169.568 151.438 169.546C151.435 169.523 151.428 169.502 151.416 169.482C151.405 169.462 151.39 169.445 151.372 169.432C151.353 169.418 151.333 169.408 151.311 169.403C151.289 169.397 151.266 169.396 151.243 169.4C151.221 169.403 151.2 169.411 151.18 169.423C151.161 169.434 151.144 169.45 151.131 169.468C149.574 171.571 148.44 173.79 147.764 176.05C147.226 177.832 146.97 179.686 147.006 181.547C147.074 184.674 147.969 186.64 148.01 186.722C148.022 186.748 148.041 186.771 148.065 186.788C148.089 186.804 148.117 186.815 148.146 186.818C148.249 186.845 148.355 186.857 148.46 186.852Z" fill="#5B2448"/>
<path d="M147.026 185.8C147.038 185.801 147.05 185.799 147.061 185.794C153.583 184.414 155.645 178.986 156.642 176.371C156.867 175.784 157.045 175.32 157.195 175.108C157.468 174.726 157.817 174.487 158.193 174.234C158.664 173.913 159.156 173.579 159.545 172.923C160.023 172.118 160.084 171.305 160.146 170.52C160.207 169.735 160.262 168.991 160.719 168.274C162.065 166.178 164.988 165.911 165.015 165.911C165.037 165.91 165.059 165.903 165.079 165.893C165.099 165.883 165.117 165.869 165.132 165.852C165.146 165.835 165.157 165.815 165.164 165.793C165.171 165.772 165.174 165.749 165.172 165.727C165.17 165.704 165.164 165.683 165.154 165.663C165.144 165.643 165.129 165.625 165.112 165.61C165.095 165.596 165.075 165.585 165.054 165.578C165.033 165.571 165.01 165.568 164.988 165.57C164.858 165.584 161.867 165.85 160.433 168.089C159.927 168.881 159.866 169.701 159.804 170.493C159.743 171.271 159.688 172.008 159.251 172.746C158.903 173.333 158.445 173.647 158.001 173.948C157.619 174.207 157.223 174.473 156.916 174.91C156.738 175.156 156.567 175.614 156.321 176.255C155.823 177.559 155.078 179.526 153.658 181.342C151.964 183.499 149.724 184.886 146.993 185.466C146.971 185.47 146.949 185.479 146.931 185.492C146.912 185.505 146.896 185.521 146.884 185.541C146.872 185.56 146.864 185.581 146.86 185.604C146.857 185.626 146.858 185.649 146.863 185.671C146.871 185.708 146.891 185.742 146.921 185.765C146.951 185.789 146.989 185.802 147.027 185.8L147.026 185.8Z" fill="#5B2448"/>
<path d="M155.699 167.7C155.721 167.701 155.743 167.697 155.763 167.689C155.783 167.681 155.801 167.668 155.815 167.652C156.532 166.956 157.407 166.853 158.253 166.758C158.506 166.73 158.745 166.703 158.977 166.655C160.834 166.307 161.456 165.338 161.955 164.559C162.05 164.409 162.139 164.272 162.228 164.15C162.242 164.132 162.252 164.111 162.258 164.089C162.264 164.067 162.265 164.045 162.262 164.022C162.259 164 162.252 163.978 162.241 163.958C162.229 163.939 162.214 163.922 162.196 163.908C162.178 163.895 162.157 163.885 162.135 163.879C162.113 163.874 162.09 163.873 162.068 163.876C162.045 163.879 162.024 163.887 162.004 163.899C161.985 163.911 161.968 163.926 161.955 163.945C161.859 164.081 161.764 164.225 161.668 164.374C161.183 165.132 160.63 165.993 158.916 166.313C158.697 166.354 158.458 166.382 158.212 166.409C157.352 166.512 156.375 166.621 155.576 167.399C155.544 167.43 155.526 167.473 155.524 167.517C155.523 167.562 155.539 167.605 155.57 167.638C155.586 167.657 155.606 167.672 155.628 167.682C155.65 167.693 155.675 167.699 155.699 167.7V167.7Z" fill="#5B2448"/>
<path d="M162.337 171.66C162.517 171.659 162.695 171.626 162.863 171.564C163.314 171.414 163.778 171.093 164.168 170.67C165.014 169.748 165.26 168.635 164.721 168.137C164.448 167.884 164.031 167.836 163.546 168C163.095 168.15 162.631 168.471 162.242 168.895C161.873 169.282 161.604 169.753 161.456 170.267C161.334 170.766 161.415 171.175 161.689 171.421C161.866 171.582 162.098 171.667 162.337 171.66ZM164.079 168.253C164.231 168.245 164.38 168.296 164.495 168.396C164.885 168.751 164.618 169.694 163.922 170.445C163.567 170.827 163.157 171.114 162.761 171.243C162.399 171.366 162.106 171.339 161.928 171.182C161.75 171.018 161.703 170.725 161.798 170.356C161.93 169.897 162.171 169.478 162.502 169.134C162.857 168.751 163.267 168.465 163.662 168.335C163.794 168.28 163.936 168.252 164.079 168.253H164.079Z" fill="#5B2448"/>
<path d="M148.59 173.435C148.657 173.438 148.723 173.421 148.781 173.388C151.698 171.824 154.272 172.732 154.299 172.739C154.35 172.758 154.403 172.768 154.457 172.766C154.511 172.765 154.564 172.752 154.613 172.73C154.662 172.708 154.706 172.676 154.742 172.637C154.779 172.597 154.807 172.551 154.825 172.5C154.863 172.399 154.859 172.286 154.814 172.188C154.769 172.089 154.687 172.013 154.586 171.974C154.585 171.974 154.584 171.974 154.584 171.974C154.583 171.974 154.582 171.973 154.581 171.972C154.581 171.972 154.58 171.971 154.58 171.97C154.58 171.969 154.579 171.968 154.579 171.968C154.463 171.927 151.629 170.93 148.399 172.664C148.304 172.716 148.233 172.802 148.201 172.906C148.17 173.009 148.179 173.121 148.228 173.217C148.264 173.282 148.317 173.336 148.38 173.374C148.444 173.413 148.516 173.434 148.59 173.435Z" fill="#FFCF2D"/>
<path d="M147.58 176.016C147.657 176.017 147.733 175.996 147.798 175.955C150.441 174.268 153.261 175.074 153.289 175.088C153.392 175.116 153.502 175.102 153.596 175.05C153.689 174.998 153.758 174.911 153.789 174.809C153.819 174.706 153.808 174.596 153.758 174.501C153.708 174.406 153.623 174.335 153.521 174.303C153.391 174.262 150.304 173.381 147.354 175.265C147.279 175.313 147.222 175.384 147.19 175.467C147.159 175.55 147.156 175.641 147.182 175.726C147.207 175.811 147.26 175.886 147.332 175.938C147.404 175.99 147.491 176.018 147.579 176.016H147.58Z" fill="#FFCF2D"/>
<path d="M147.054 178.542C147.145 178.541 147.234 178.51 147.306 178.454C149.273 176.904 151.882 177.518 151.909 177.525C151.961 177.539 152.016 177.543 152.07 177.536C152.124 177.529 152.175 177.512 152.222 177.484C152.269 177.457 152.31 177.421 152.343 177.378C152.376 177.335 152.399 177.285 152.413 177.233C152.427 177.181 152.43 177.126 152.422 177.072C152.414 177.019 152.396 176.967 152.368 176.921C152.34 176.874 152.303 176.834 152.26 176.801C152.216 176.769 152.167 176.746 152.114 176.733H152.107C151.984 176.706 149.082 176.016 146.801 177.812C146.734 177.865 146.686 177.937 146.662 178.018C146.638 178.1 146.64 178.187 146.668 178.267C146.696 178.347 146.748 178.417 146.817 178.466C146.886 178.516 146.969 178.542 147.054 178.543V178.542Z" fill="#FFCF2D"/>
<path d="M98.184 149.566C97.6923 150.679 95.9509 154.564 95.3704 156.08C93.9636 159.705 92.4406 164.034 91.5531 166.799C91.5531 166.813 91.7508 167.659 92.4478 168.793C92.473 168.828 92.4958 168.864 92.516 168.902C93.3287 170.172 94.4829 171.619 95.7667 172.152C96.6886 172.534 100.875 169.926 101.216 169.598C101.23 169.571 101.244 169.551 101.257 169.523C102.255 167.721 103.272 166 104.276 164.423C104.563 163.979 104.836 163.549 105.116 163.126C105.655 162.313 110.723 153.847 111.481 152.966L98.184 149.566Z" fill="#FCB6B1"/>
<path d="M94.8787 157.349C93.4719 160.975 92.4338 164.027 91.5529 166.792C91.5529 166.806 91.7506 167.652 92.4475 168.786C92.4727 168.82 92.4955 168.857 92.5158 168.895L95.7662 172.145C96.6881 172.527 100.874 169.919 101.216 169.591C101.23 169.564 101.407 169.537 101.414 169.509C102.404 167.707 104.685 163.822 105.115 163.119L94.8787 157.349Z" fill="#66B0F0"/>
<path d="M92.8231 159.363L92.8299 159.37L104.59 165.993C104.669 166.036 104.761 166.045 104.847 166.019C104.933 165.994 105.005 165.935 105.047 165.856C105.069 165.818 105.083 165.777 105.088 165.733C105.093 165.69 105.09 165.646 105.077 165.604C105.065 165.562 105.045 165.523 105.018 165.489C104.99 165.455 104.956 165.426 104.918 165.406L93.1577 158.783C93.1195 158.759 93.0769 158.743 93.0323 158.735C92.9876 158.728 92.942 158.73 92.8982 158.741C92.8543 158.752 92.813 158.771 92.7769 158.798C92.7408 158.825 92.7106 158.86 92.688 158.899C92.6654 158.938 92.651 158.981 92.6456 159.026C92.6402 159.071 92.6439 159.116 92.6565 159.16C92.6692 159.203 92.6904 159.244 92.719 159.279C92.7477 159.314 92.7831 159.342 92.8231 159.363Z" fill="white"/>
<path d="M102.746 167.201C102.746 167.201 100.007 175.053 98.0474 180.283L78.5433 171.633C78.5433 171.633 75.0806 169.7 74.6301 167.502C74.6301 167.502 80.1481 162.613 89.6202 164.525C94.0114 165.413 95.7732 168.956 99.6932 167.222C101.605 166.368 102.746 167.201 102.746 167.201Z" fill="white"/>
<path d="M98.0474 180.454C98.0818 180.455 98.1156 180.445 98.1438 180.426C98.1721 180.406 98.1933 180.378 98.2045 180.345C100.144 175.177 102.937 167.277 102.964 167.195C102.98 167.153 102.978 167.106 102.959 167.065C102.939 167.024 102.905 166.992 102.862 166.977C102.819 166.961 102.772 166.963 102.732 166.983C102.691 167.002 102.659 167.036 102.643 167.079C102.616 167.154 99.8777 174.883 97.945 180.052L79.4789 171.865C78.4836 171.43 77.5567 170.852 76.7268 170.151C75.6682 169.257 75.0058 168.362 74.8077 167.557C75.4223 167.024 77.0345 165.918 79.2604 165.153C80.9879 164.566 82.7968 164.253 84.6212 164.225C86.9432 164.184 89.3539 164.58 91.7915 165.406C91.834 165.421 91.8808 165.419 91.9216 165.4C91.9624 165.381 91.9939 165.346 92.0093 165.304C92.0246 165.261 92.0226 165.214 92.0035 165.174C91.9845 165.133 91.95 165.101 91.9077 165.085H91.9008C89.4218 164.246 86.9634 163.843 84.6004 163.884C82.7379 163.91 80.8914 164.233 79.1303 164.84C76.1732 165.857 74.5684 167.311 74.5001 167.373C74.48 167.393 74.4646 167.418 74.4552 167.445C74.4457 167.472 74.4424 167.501 74.4454 167.53C74.6298 168.445 75.3264 169.414 76.501 170.411C77.3574 171.13 78.3117 171.723 79.3352 172.173L97.9655 180.434C97.9913 180.446 98.0191 180.453 98.0474 180.454Z" fill="#5B2448"/>
<path d="M99.6933 177.327C99.7157 177.327 99.738 177.323 99.7589 177.314C99.7797 177.306 99.7986 177.293 99.8145 177.277C99.8304 177.262 99.8429 177.243 99.8514 177.222C99.8599 177.201 99.8642 177.179 99.8639 177.156C99.8621 177.133 99.8575 177.11 99.8503 177.087C99.8025 176.971 98.6347 174.199 96.0601 173.517C95.1518 173.278 94.3529 173.469 93.5743 173.653C92.8091 173.838 92.0923 174.008 91.2592 173.817C90.5899 173.667 90.1597 173.325 89.7363 172.998C89.3743 172.711 88.9987 172.417 88.4934 172.26C88.2065 172.172 87.7148 172.144 87.0318 172.103C85.639 172.028 83.5353 171.912 81.3773 171.113C78.8027 170.157 76.8017 168.444 75.4222 166.02C75.3994 165.981 75.3628 165.953 75.3196 165.94C75.2765 165.927 75.2302 165.931 75.1901 165.952C75.1514 165.974 75.1228 166.011 75.1101 166.054C75.0974 166.097 75.1016 166.143 75.1218 166.184V166.19C78.4203 171.98 84.2251 172.294 87.0115 172.445C87.6397 172.479 88.1382 172.506 88.3841 172.581C88.8348 172.725 89.1694 172.984 89.5246 173.264C89.9753 173.619 90.4397 173.981 91.1839 174.151C92.099 174.363 92.8912 174.172 93.656 173.988C94.4277 173.803 95.152 173.633 95.9712 173.851C98.375 174.493 99.5219 177.197 99.5291 177.224C99.5433 177.255 99.5665 177.282 99.5957 177.3C99.6249 177.319 99.6588 177.328 99.6933 177.327Z" fill="#5B2448"/>
<path d="M100.424 174.05C100.446 174.05 100.469 174.046 100.49 174.037C100.51 174.029 100.529 174.016 100.545 174C100.561 173.984 100.574 173.965 100.582 173.945C100.591 173.924 100.595 173.902 100.595 173.879C100.594 173.843 100.583 173.808 100.562 173.779C100.541 173.75 100.512 173.728 100.479 173.715C100.321 173.661 100.158 173.62 99.9799 173.572C99.1057 173.34 98.1223 173.073 97.2889 171.544C97.1796 171.346 97.084 171.134 96.9816 170.902C96.6264 170.117 96.2164 169.223 95.2402 168.697C95.1994 168.676 95.1521 168.673 95.1086 168.687C95.0652 168.701 95.029 168.731 95.008 168.772C94.9878 168.812 94.9837 168.858 94.9963 168.902C95.009 168.945 95.0376 168.981 95.0763 169.004C95.9573 169.475 96.3192 170.281 96.6743 171.052C96.7768 171.284 96.8792 171.503 96.9954 171.715C97.8968 173.381 99.0031 173.674 99.8977 173.913C100.068 173.961 100.226 174.002 100.376 174.05C100.39 174.043 100.403 174.05 100.424 174.05Z" fill="#5B2448"/>
<path d="M96.1352 178.201C96.7021 178.201 97.1528 178.003 97.3303 177.62C97.6375 176.951 96.9888 176.016 95.8552 175.49C94.7216 174.965 93.5811 175.074 93.2737 175.736C93.1166 176.071 93.1986 176.48 93.4991 176.896C93.828 177.319 94.2577 177.652 94.7489 177.866C95.1804 178.079 95.654 178.194 96.1352 178.201ZM94.4621 175.497C94.8906 175.51 95.3116 175.613 95.6982 175.798C96.7294 176.276 97.2074 177.047 97.0094 177.478C96.8114 177.908 95.9099 178.037 94.8858 177.559C94.4469 177.37 94.062 177.074 93.7658 176.699C93.5405 176.392 93.4722 176.105 93.5746 175.887C93.6904 175.647 94.0182 175.497 94.4621 175.497Z" fill="#5B2448"/>
<path d="M89.4182 170.161C89.5276 170.174 89.6375 170.144 89.7247 170.077C89.8118 170.009 89.8691 169.911 89.8844 169.802C89.9055 169.676 90.3328 166.607 87.9177 163.683C87.846 163.597 87.7434 163.544 87.6322 163.533C87.521 163.523 87.4102 163.556 87.3238 163.627C87.2374 163.698 87.1823 163.8 87.1707 163.911C87.159 164.022 87.1916 164.133 87.2614 164.22L87.2676 164.228C89.4325 166.848 89.049 169.652 89.0459 169.68C89.0301 169.791 89.0589 169.904 89.126 169.994C89.1932 170.084 89.2932 170.143 89.4042 170.16L89.4182 170.161Z" fill="#FFCF2D"/>
<path d="M86.8404 169.591L86.8474 169.591C86.9589 169.601 87.0695 169.566 87.1557 169.494C87.2419 169.423 87.2969 169.321 87.3089 169.21C87.3246 169.07 87.5927 165.77 85.0718 163.161C84.9932 163.084 84.8881 163.042 84.7786 163.042C84.6691 163.041 84.5639 163.084 84.4852 163.16C84.4066 163.236 84.3607 163.34 84.3573 163.45C84.3538 163.559 84.3931 163.665 84.4669 163.746C86.7137 166.077 86.4688 169.102 86.4657 169.13C86.4599 169.185 86.465 169.241 86.4807 169.293C86.4964 169.346 86.5224 169.396 86.5572 169.438C86.5921 169.481 86.635 169.517 86.6836 169.543C86.7322 169.569 86.7855 169.585 86.8404 169.591Z" fill="#FFCF2D"/>
<path d="M84.0326 169.107L84.0607 169.111C84.1731 169.115 84.2827 169.075 84.3656 168.999C84.4486 168.923 84.4982 168.818 84.5035 168.706C84.5105 168.579 84.6128 165.495 82.33 163.551C82.2447 163.479 82.1346 163.444 82.0237 163.454C81.9128 163.463 81.8101 163.516 81.7379 163.6C81.6657 163.685 81.6299 163.795 81.6383 163.906C81.6467 164.017 81.6986 164.12 81.7827 164.193L81.7897 164.193C83.7554 165.861 83.6665 168.634 83.6704 168.663C83.6647 168.716 83.6696 168.769 83.6848 168.82C83.6999 168.871 83.7251 168.919 83.7588 168.96C83.7924 169.002 83.834 169.036 83.881 169.061C83.928 169.087 83.9795 169.102 84.0326 169.107Z" fill="#FFCF2D"/>
<path d="M141.843 161.91C141.843 161.91 147.518 159.377 151.124 153.867L148.242 150.604L141.843 161.91Z" fill="#9B3C82"/>
<path d="M96.8591 152.556C96.8591 152.556 98.2659 155.854 106.912 160.21L110.388 154.591L96.8591 152.556Z" fill="#9B3C82"/>
<path d="M142.471 115.57C127.392 115.55 108.564 122.002 96.866 152.556C96.866 152.556 99.4337 155.034 105.88 157.185C114.424 160.032 117.238 162.757 117.128 165.051C117.128 165.051 118.583 151.484 126.56 141.167C127.741 139.645 132.76 135.815 136.557 133.336C143.667 128.707 152.073 122.733 152.162 121.367C152.319 118.841 147.231 115.577 142.471 115.57Z" fill="#F94F46"/>
<path d="M175.641 109.61C175.641 109.61 185.038 118.554 179.219 129.752C173.264 141.208 157.236 139.911 147.429 138.341C147.429 138.341 152.162 142.765 160.316 146.705C160.316 146.705 155.734 145.824 151.404 150.132C148.194 153.321 146.835 157.929 141.857 161.903C136.428 157.158 113.311 135.582 124.524 121.326C130.104 114.225 145.271 115.086 154.129 115.83C159.927 112.464 162.884 112.546 162.884 112.546L175.641 109.61Z" fill="#F94F46"/>
<path d="M126.02 144.315C126.043 144.314 126.066 144.309 126.088 144.301C126.104 144.293 126.118 144.282 126.129 144.268C126.141 144.254 126.149 144.238 126.154 144.221C126.159 144.204 126.161 144.186 126.159 144.168C126.157 144.15 126.151 144.133 126.143 144.117C121.403 135.501 120.645 128.188 123.944 122.965C127.201 117.81 134.317 115.045 142.977 115.57C142.995 115.571 143.013 115.569 143.03 115.563C143.046 115.557 143.062 115.547 143.075 115.535C143.089 115.523 143.099 115.509 143.107 115.492C143.115 115.476 143.119 115.459 143.12 115.441C143.121 115.423 143.118 115.405 143.112 115.388C143.106 115.371 143.097 115.356 143.085 115.342C143.073 115.329 143.058 115.318 143.042 115.31C143.026 115.303 143.008 115.298 142.99 115.297C134.229 114.772 127.024 117.585 123.705 122.821C120.345 128.134 121.103 135.548 125.89 144.254C125.924 144.29 125.97 144.312 126.02 144.315Z" fill="#FCB6B1"/>
<path d="M151.356 141.645C151.392 141.645 151.427 141.631 151.453 141.605C151.478 141.58 151.493 141.545 151.493 141.509C151.492 141.488 151.487 141.467 151.478 141.448C151.468 141.429 151.455 141.413 151.438 141.4C151.377 141.352 144.998 136.449 139.665 129.594C139.654 129.58 139.64 129.568 139.625 129.558C139.609 129.549 139.592 129.543 139.574 129.54C139.557 129.537 139.538 129.538 139.521 129.543C139.503 129.547 139.487 129.555 139.472 129.566C139.458 129.577 139.446 129.59 139.437 129.606C139.427 129.621 139.421 129.639 139.419 129.657C139.417 129.675 139.418 129.693 139.422 129.71C139.427 129.728 139.435 129.744 139.446 129.758C144.807 136.641 151.206 141.563 151.274 141.611C151.297 141.631 151.326 141.643 151.356 141.645Z" fill="#FCB6B1"/>
<path d="M160.35 146.63C165.506 148.351 159.182 156.926 144.636 159.958C144.629 159.958 149.505 143.981 160.35 146.63Z" fill="#5B2448"/>
<path d="M138.531 158.728C139.439 159.534 142.307 162.388 143.578 163.405C146.603 165.85 150.256 168.622 152.626 170.301C152.64 170.308 153.507 170.376 154.798 170.055C154.84 170.042 154.884 170.033 154.928 170.028C156.389 169.639 158.117 168.983 159.011 167.925C159.66 167.167 158.451 162.381 158.24 161.958C158.219 161.937 158.205 161.917 158.185 161.896C156.771 160.401 155.44 158.899 154.245 157.465C153.91 157.055 153.582 156.659 153.261 156.27C152.653 155.512 148.535 151.088 147.921 150.105L138.531 158.728Z" fill="#FCB6B1"/>
<path d="M144.629 164.259C147.655 166.703 150.243 168.622 152.613 170.301C152.626 170.308 153.494 170.377 154.784 170.056C154.827 170.043 154.87 170.033 154.914 170.028L158.998 167.925C159.647 167.168 158.438 162.381 158.226 161.958C158.206 161.938 158.226 161.76 158.206 161.74C156.792 160.244 153.78 156.892 153.241 156.271L144.629 164.259Z" fill="#66B0F0"/>
<path d="M145.927 166.833L145.934 166.826L155.822 157.643C155.855 157.613 155.882 157.577 155.9 157.536C155.919 157.496 155.93 157.452 155.932 157.408C155.934 157.364 155.927 157.319 155.912 157.278C155.896 157.236 155.873 157.197 155.843 157.165C155.813 157.132 155.777 157.106 155.736 157.087C155.696 157.068 155.653 157.057 155.608 157.055C155.564 157.054 155.519 157.06 155.478 157.076C155.436 157.091 155.398 157.114 155.365 157.144L145.476 166.328C145.412 166.388 145.375 166.471 145.371 166.559C145.368 166.647 145.398 166.733 145.457 166.798C145.515 166.864 145.597 166.904 145.685 166.911C145.773 166.917 145.859 166.889 145.927 166.833Z" fill="white"/>
<path d="M156.416 159.766C156.416 159.766 163.061 164.764 167.452 168.226L153.268 184.168C153.268 184.168 150.366 186.879 148.14 186.64C148.14 186.64 145.162 179.894 149.868 171.455C152.053 167.543 155.966 166.949 155.502 162.688C155.276 160.599 156.416 159.766 156.416 159.766Z" fill="white"/>
<path d="M148.433 186.817C149.3 186.817 150.325 186.449 151.493 185.718C152.44 185.124 153.296 184.395 154.033 183.554L167.575 168.328C167.605 168.294 167.62 168.25 167.617 168.206C167.615 168.161 167.595 168.119 167.562 168.089L167.555 168.082C163.218 164.661 156.546 159.595 156.478 159.541C156.461 159.526 156.441 159.515 156.419 159.509C156.398 159.502 156.375 159.5 156.352 159.503C156.33 159.506 156.309 159.513 156.289 159.524C156.269 159.535 156.252 159.55 156.239 159.568C156.211 159.604 156.199 159.648 156.204 159.693C156.209 159.738 156.231 159.779 156.266 159.807C156.267 159.807 156.268 159.807 156.269 159.808C156.27 159.808 156.27 159.808 156.271 159.809C156.272 159.81 156.272 159.81 156.273 159.811C156.273 159.812 156.273 159.813 156.273 159.814C156.341 159.862 162.863 164.819 167.2 168.239L153.773 183.329C153.056 184.142 152.226 184.848 151.308 185.425C150.134 186.162 149.082 186.517 148.256 186.462C147.934 185.711 147.375 183.841 147.32 181.492C147.287 179.668 147.538 177.851 148.065 176.105C148.734 173.879 149.847 171.708 151.377 169.639C151.405 169.604 151.418 169.559 151.413 169.514C151.408 169.469 151.385 169.428 151.349 169.4C151.314 169.372 151.269 169.359 151.224 169.364C151.179 169.369 151.138 169.392 151.11 169.427C151.11 169.428 151.11 169.429 151.11 169.43C151.11 169.431 151.109 169.432 151.108 169.432C151.108 169.433 151.107 169.433 151.106 169.434C151.105 169.434 151.104 169.434 151.104 169.434C149.546 171.537 148.412 173.756 147.737 176.016C147.199 177.797 146.943 179.652 146.979 181.512C147.047 184.639 147.942 186.606 147.983 186.688C147.995 186.714 148.014 186.737 148.038 186.754C148.062 186.77 148.09 186.781 148.119 186.783C148.222 186.808 148.327 186.82 148.433 186.817Z" fill="#5B2448"/>
<path d="M146.999 185.766C147.011 185.767 147.022 185.765 147.033 185.759C153.555 184.38 155.624 178.952 156.614 176.337C156.84 175.75 157.017 175.286 157.168 175.074C157.441 174.691 157.789 174.452 158.165 174.2C158.636 173.879 159.128 173.544 159.517 172.889C159.995 172.083 160.057 171.27 160.118 170.485C160.18 169.7 160.234 168.956 160.692 168.239C162.037 166.143 164.96 165.877 164.987 165.877C165.033 165.873 165.075 165.852 165.104 165.817C165.133 165.782 165.148 165.738 165.144 165.692C165.141 165.647 165.119 165.605 165.085 165.576C165.05 165.546 165.005 165.532 164.96 165.535C164.83 165.549 161.839 165.815 160.405 168.055C159.9 168.847 159.838 169.666 159.777 170.458C159.715 171.236 159.661 171.974 159.223 172.711C158.875 173.298 158.418 173.612 157.974 173.913C157.591 174.172 157.195 174.439 156.888 174.875C156.71 175.121 156.54 175.579 156.294 176.221C155.795 177.525 155.051 179.491 153.63 181.307C151.937 183.465 149.697 184.851 146.965 185.431C146.943 185.436 146.922 185.445 146.903 185.457C146.884 185.47 146.868 185.487 146.856 185.506C146.844 185.525 146.836 185.546 146.832 185.569C146.829 185.591 146.83 185.614 146.835 185.636C146.844 185.673 146.865 185.706 146.895 185.729C146.925 185.753 146.961 185.765 146.999 185.766L146.999 185.766Z" fill="#5B2448"/>
<path d="M155.672 167.659C155.694 167.66 155.715 167.656 155.735 167.648C155.755 167.64 155.773 167.627 155.788 167.611C156.505 166.915 157.379 166.812 158.226 166.717C158.479 166.69 158.718 166.663 158.95 166.615C160.808 166.267 161.429 165.297 161.928 164.519C162.023 164.368 162.112 164.232 162.201 164.109C162.228 164.073 162.24 164.027 162.233 163.982C162.227 163.938 162.203 163.897 162.167 163.87C162.13 163.843 162.085 163.831 162.04 163.838C161.995 163.844 161.955 163.868 161.928 163.904C161.832 164.041 161.736 164.184 161.641 164.334C161.156 165.092 160.603 165.952 158.889 166.273C158.67 166.314 158.431 166.341 158.185 166.369C157.325 166.471 156.348 166.58 155.549 167.359C155.517 167.39 155.498 167.432 155.497 167.477C155.496 167.521 155.512 167.565 155.542 167.598C155.557 167.618 155.577 167.634 155.599 167.645C155.622 167.656 155.647 167.661 155.672 167.659V167.659Z" fill="#5B2448"/>
<path d="M162.31 171.626C162.49 171.625 162.667 171.592 162.836 171.53C163.287 171.38 163.751 171.059 164.14 170.636C164.987 169.715 165.233 168.602 164.693 168.103C164.42 167.851 164.004 167.802 163.519 167.967C163.068 168.117 162.604 168.438 162.214 168.861C161.846 169.248 161.577 169.719 161.429 170.233C161.306 170.732 161.388 171.141 161.661 171.387C161.838 171.549 162.071 171.635 162.31 171.626ZM164.052 168.212C164.204 168.204 164.353 168.256 164.468 168.356C164.857 168.711 164.591 169.653 163.894 170.404C163.539 170.786 163.129 171.073 162.734 171.203C162.372 171.326 162.078 171.298 161.901 171.141C161.723 170.977 161.675 170.684 161.771 170.315C161.902 169.856 162.144 169.437 162.474 169.093C162.829 168.711 163.239 168.424 163.635 168.294C163.768 168.243 163.909 168.215 164.052 168.212H164.052Z" fill="#5B2448"/>
<path d="M148.563 173.394C148.63 173.397 148.696 173.38 148.754 173.347C151.65 171.797 154.245 172.691 154.272 172.698C154.374 172.732 154.485 172.725 154.582 172.678C154.678 172.631 154.752 172.548 154.788 172.447C154.824 172.345 154.819 172.234 154.773 172.137C154.728 172.04 154.646 171.964 154.545 171.927C154.429 171.886 151.595 170.889 148.365 172.623C148.27 172.675 148.199 172.761 148.167 172.865C148.135 172.968 148.145 173.08 148.194 173.176C148.231 173.242 148.284 173.297 148.349 173.335C148.414 173.374 148.488 173.394 148.563 173.394V173.394Z" fill="#FFCF2D"/>
<path d="M147.545 175.982C147.623 175.983 147.698 175.961 147.764 175.921C150.407 174.234 153.227 175.04 153.255 175.054C153.358 175.082 153.468 175.068 153.562 175.016C153.655 174.964 153.724 174.877 153.755 174.774C153.785 174.672 153.774 174.561 153.724 174.467C153.674 174.372 153.589 174.301 153.487 174.268C153.357 174.227 150.27 173.347 147.32 175.231C147.275 175.26 147.235 175.298 147.205 175.342C147.174 175.386 147.152 175.436 147.141 175.489C147.129 175.542 147.128 175.596 147.138 175.649C147.148 175.702 147.168 175.753 147.197 175.798C147.237 175.853 147.289 175.898 147.35 175.93C147.41 175.962 147.477 175.98 147.545 175.982H147.545Z" fill="#FFCF2D"/>
<path d="M147.026 178.509C147.118 178.507 147.207 178.476 147.279 178.42C149.246 176.87 151.855 177.484 151.882 177.491C151.987 177.517 152.098 177.499 152.19 177.443C152.282 177.387 152.348 177.296 152.374 177.191C152.399 177.086 152.382 176.975 152.325 176.883C152.269 176.791 152.178 176.725 152.073 176.699C151.95 176.672 149.048 175.983 146.767 177.778C146.682 177.846 146.628 177.944 146.615 178.051C146.602 178.158 146.632 178.266 146.699 178.352C146.739 178.4 146.789 178.438 146.846 178.465C146.902 178.492 146.964 178.507 147.026 178.509Z" fill="#FFCF2D"/>
<path d="M141.816 161.876C141.816 161.876 147.491 159.343 151.097 153.833L148.215 150.569L141.816 161.876Z" fill="#9B3C82"/>
<path d="M156.813 144.882C157.987 145.544 159.223 146.125 160.377 146.637C160.377 146.637 155.693 145.79 151.363 150.098C148.153 153.287 146.794 157.895 141.816 161.869C136.516 156.981 122.789 146.008 121.997 130.339C121.902 128.427 122.742 123.457 125.719 120.923C127.672 119.265 131.756 119.899 133.655 122.33C136.892 126.468 138.435 128.987 143.27 134.251C147.033 138.362 151.793 142.062 156.813 144.882Z" fill="#F94F46"/>
<path d="M171.771 120.678C171.809 120.678 171.844 120.663 171.871 120.637C171.897 120.61 171.912 120.574 171.912 120.537C171.912 120.508 171.903 120.48 171.887 120.456C171.871 120.432 171.847 120.414 171.821 120.403C169.877 119.717 167.84 119.334 165.78 119.267C165.742 119.267 165.706 119.282 165.68 119.308C165.653 119.335 165.638 119.371 165.638 119.408C165.638 119.446 165.653 119.482 165.68 119.508C165.706 119.535 165.742 119.549 165.78 119.549C167.806 119.62 169.809 119.998 171.722 120.672C171.738 120.677 171.754 120.679 171.771 120.678Z" fill="#FCB6B1"/>
<path d="M162.56 76.9546C160.69 81.0451 156.795 83.9752 156.374 81.4769C156.374 81.4769 155.521 107.002 146.669 113.595C152.45 116.847 162.125 113.239 169.963 111.145C178.646 108.824 184.234 108.566 185.954 110.371C180.967 105.128 176.21 90.2328 173.402 78.911L162.56 76.9546Z" fill="#FFCF2D"/>
<path d="M155.777 107.534C155.777 107.534 149.92 104.849 146.577 103.494C146.577 103.494 149.911 93.9635 151.685 84.5702C152.834 78.4803 155.412 78.0128 156.337 79.899C156.593 81.8202 155.848 97.1967 155.848 97.1967L155.777 107.534Z" fill="#FFCF2D"/>
<path d="M154.229 108.136C154.204 108.136 154.179 108.131 154.156 108.12C154.133 108.109 154.113 108.094 154.097 108.074C154.081 108.055 154.069 108.032 154.063 108.008C154.056 107.984 154.055 107.958 154.06 107.933C157.49 89.0706 159.724 80.7713 162.911 75.0436C162.922 75.0238 162.937 75.0064 162.954 74.9924C162.972 74.9783 162.992 74.9679 163.014 74.9617C163.036 74.9555 163.058 74.9536 163.081 74.9562C163.103 74.9588 163.125 74.9658 163.145 74.9767C163.165 74.9877 163.182 75.0025 163.196 75.0202C163.21 75.0379 163.221 75.0582 163.227 75.0799C163.233 75.1016 163.235 75.1244 163.232 75.1468C163.23 75.1693 163.223 75.191 163.212 75.2108C160.045 80.9011 157.821 89.1739 154.399 107.994C154.391 108.034 154.371 108.07 154.34 108.096C154.309 108.122 154.269 108.136 154.229 108.136Z" fill="white"/>
<path d="M149.071 108.136C149.041 108.136 149.011 108.128 148.985 108.113C148.959 108.098 148.937 108.077 148.922 108.051C148.907 108.025 148.899 107.995 148.899 107.965C148.899 107.935 148.906 107.906 148.921 107.879C152.14 102.205 155.782 87.5327 156.363 81.3248C156.365 81.3024 156.371 81.2805 156.382 81.2606C156.392 81.2406 156.407 81.2229 156.424 81.2085C156.442 81.1941 156.462 81.1832 156.483 81.1766C156.505 81.1699 156.528 81.1676 156.55 81.1697C156.572 81.1718 156.594 81.1783 156.614 81.1889C156.634 81.1994 156.652 81.2138 156.666 81.2312C156.681 81.2486 156.692 81.2686 156.698 81.2902C156.705 81.3118 156.707 81.3344 156.705 81.3569C156.408 84.5342 155.361 89.7166 153.974 94.8819C151.85 102.792 150.084 106.527 149.22 108.049C149.205 108.075 149.184 108.097 149.157 108.113C149.131 108.128 149.101 108.136 149.071 108.136Z" fill="white"/>
<path d="M129.401 104.273C136.793 105.538 139.019 106.003 139.048 106.047L141.755 101.881C132.783 96.4918 116.536 95.5174 110.167 101.058C107.665 103.33 111.085 102.007 111.584 101.835C108.747 106.191 111.899 103.992 112.259 103.704C110.862 107.615 114.783 103.165 114.783 103.165C114.787 103.172 114.791 103.178 114.795 103.185C114.796 103.186 114.797 103.188 114.798 103.189C115.166 103.708 117.781 103.429 117.888 103.411C117.764 103.448 123.016 103.18 129.401 104.273Z" fill="#F4ADA2"/>
<path d="M115.073 103.79C115.048 103.79 115.023 103.785 115.001 103.774C114.574 103.577 114.365 103.32 114.378 103.008C114.403 102.455 115.177 101.817 116.743 101.06C117.129 100.873 117.515 100.703 117.856 100.56C114.491 101.007 110.843 102.496 110.802 102.513C110.781 102.521 110.759 102.526 110.736 102.526C110.714 102.526 110.692 102.521 110.671 102.513C110.65 102.504 110.631 102.491 110.615 102.475C110.599 102.459 110.586 102.44 110.578 102.419C110.569 102.398 110.565 102.376 110.565 102.354C110.565 102.331 110.569 102.309 110.578 102.288C110.587 102.267 110.599 102.248 110.615 102.232C110.631 102.216 110.65 102.203 110.671 102.195C110.718 102.176 115.348 100.285 119.039 100.105C119.08 100.103 119.121 100.115 119.154 100.141C119.186 100.166 119.209 100.202 119.217 100.243C119.225 100.283 119.218 100.325 119.197 100.361C119.177 100.397 119.144 100.425 119.105 100.438C117.429 101.037 114.756 102.269 114.722 103.023C114.715 103.182 114.857 103.329 115.145 103.462C115.18 103.478 115.209 103.506 115.227 103.541C115.244 103.576 115.249 103.616 115.241 103.655C115.232 103.693 115.211 103.727 115.181 103.752C115.15 103.776 115.112 103.79 115.073 103.79V103.79Z" fill="#9B3C82"/>
<path d="M111.834 104.437C111.799 104.437 111.765 104.426 111.737 104.406C111.708 104.387 111.686 104.359 111.673 104.326C111.661 104.293 111.659 104.258 111.667 104.224C111.675 104.19 111.694 104.16 111.72 104.136C111.75 104.109 114.854 101.373 118.998 100.112C119.019 100.105 119.042 100.103 119.064 100.105C119.087 100.108 119.109 100.114 119.128 100.125C119.148 100.135 119.166 100.15 119.18 100.167C119.195 100.185 119.205 100.205 119.212 100.226C119.219 100.248 119.221 100.271 119.219 100.293C119.216 100.316 119.21 100.337 119.199 100.357C119.189 100.377 119.174 100.395 119.157 100.409C119.139 100.424 119.119 100.434 119.098 100.441C115.025 101.68 111.979 104.366 111.948 104.393C111.917 104.421 111.876 104.437 111.834 104.437Z" fill="#9B3C82"/>
<path d="M155.519 105.299C164.89 111.316 178.818 109.597 177.958 105.042C175.121 97.9931 156.012 103.252 155.519 105.299Z" fill="#5B2448"/>
<path d="M114.154 112.234C112.268 115.194 118.441 111.542 118.574 111.464C115.929 113.639 115.808 114.812 118.319 113.683C120.829 112.554 124.167 110.87 127.268 110.572C131.965 110.12 136.466 112.963 137.927 113.733C161.234 127.28 176.681 121.951 175.145 105.153C174.107 95.9353 163.302 89.9899 157.324 94.9843C156.723 96.7894 154.917 105.213 154.988 105.219C154.988 105.219 138.018 97.657 123.022 102.353C122.899 102.395 118.057 103.548 114.306 106.859C114.247 106.911 114.187 106.965 114.128 107.018C111.095 109.755 115.618 108.198 116.535 107.769C115.831 108.366 114.641 109.498 113.988 110.256C111.093 113.621 114.154 112.234 114.154 112.234Z" fill="#F4ADA2"/>
<path d="M114.802 109.209C114.768 109.209 114.736 109.199 114.708 109.181C114.68 109.163 114.658 109.137 114.645 109.106C114.631 109.076 114.627 109.042 114.632 109.009C114.638 108.976 114.652 108.946 114.675 108.921C116.58 106.835 119.29 105.894 119.405 105.855C119.448 105.841 119.494 105.845 119.535 105.865C119.575 105.885 119.606 105.92 119.62 105.963C119.635 106.006 119.632 106.052 119.613 106.093C119.593 106.134 119.558 106.165 119.516 106.18C119.489 106.19 116.773 107.134 114.929 109.153C114.913 109.171 114.893 109.185 114.871 109.194C114.849 109.204 114.826 109.209 114.802 109.209Z" fill="#9B3C82"/>
<path d="M113.085 113.634C113.056 113.634 113.027 113.627 113.001 113.612C112.975 113.597 112.953 113.576 112.938 113.551C112.923 113.526 112.914 113.497 112.914 113.467C112.913 113.438 112.92 113.408 112.933 113.382C113.66 112.007 115.151 110.613 117.364 109.239C118.362 108.621 119.399 108.069 120.47 107.589C120.49 107.58 120.513 107.575 120.535 107.575C120.558 107.574 120.58 107.579 120.601 107.587C120.622 107.595 120.641 107.608 120.657 107.623C120.674 107.639 120.687 107.658 120.695 107.679C120.704 107.699 120.709 107.722 120.709 107.744C120.71 107.767 120.706 107.789 120.697 107.81C120.689 107.831 120.676 107.85 120.661 107.867C120.645 107.883 120.626 107.896 120.605 107.905C120.549 107.929 114.905 110.383 113.237 113.543C113.223 113.571 113.201 113.594 113.174 113.61C113.147 113.626 113.117 113.634 113.085 113.634Z" fill="#9B3C82"/>
<path d="M115.524 114.176C115.494 114.176 115.463 114.168 115.437 114.152C115.41 114.136 115.389 114.114 115.374 114.087C115.359 114.06 115.352 114.029 115.353 113.998C115.354 113.967 115.363 113.937 115.38 113.911C115.993 112.954 117.157 111.933 118.84 110.877C119.597 110.403 120.378 109.97 121.181 109.579C121.223 109.56 121.27 109.558 121.313 109.573C121.356 109.589 121.391 109.621 121.41 109.662C121.43 109.703 121.432 109.75 121.416 109.793C121.401 109.836 121.369 109.871 121.328 109.891C121.285 109.91 117.071 111.907 115.669 114.097C115.654 114.121 115.632 114.141 115.607 114.155C115.582 114.169 115.553 114.176 115.524 114.176Z" fill="#9B3C82"/>
<path d="M155.519 105.12C155.499 105.12 155.48 105.117 155.462 105.111C150.047 103.208 144.682 101.987 139.515 101.481C135.383 101.076 131.367 101.126 127.581 101.628C121.133 102.484 117.539 104.383 117.503 104.402C117.483 104.413 117.461 104.419 117.439 104.422C117.416 104.424 117.393 104.422 117.371 104.416C117.349 104.409 117.329 104.399 117.312 104.384C117.294 104.37 117.279 104.352 117.269 104.332C117.258 104.312 117.251 104.29 117.249 104.268C117.247 104.245 117.249 104.222 117.256 104.201C117.262 104.179 117.273 104.159 117.288 104.141C117.302 104.124 117.32 104.109 117.34 104.099C117.376 104.079 121.013 102.156 127.515 101.29C131.33 100.782 135.373 100.731 139.534 101.137C144.733 101.644 150.13 102.873 155.576 104.786C155.614 104.8 155.647 104.826 155.667 104.861C155.688 104.896 155.695 104.937 155.689 104.977C155.682 105.017 155.661 105.054 155.63 105.08C155.599 105.106 155.56 105.12 155.519 105.12Z" fill="#9B3C82"/>
<path d="M175.121 104.869C175.121 104.869 162.741 108.48 155.003 105.213C156.81 102.143 174.175 97.0474 174.175 97.0474C174.175 97.0474 174.777 101.345 175.121 104.869Z" fill="#9B3C82"/>
<path d="M163.088 76.0193C159.904 80.8015 157.324 92.2337 155.003 105.127C155.003 105.127 160.103 106.844 166.781 104.697C174.003 102.377 177.27 103.236 177.958 105.041C174.863 97.3911 175.121 91.8899 174.089 82.4347C172.875 71.3034 166.148 71.4238 163.088 76.0193Z" fill="#FFCF2D"/>
<path d="M178.113 105.949C178.081 105.949 178.051 105.941 178.024 105.924C177.997 105.908 177.975 105.885 177.96 105.858C175.706 101.609 174.828 92.5757 174.123 85.3168C173.785 81.8437 173.494 78.8443 173.117 77.201C173.107 77.1565 173.115 77.1099 173.139 77.0713C173.164 77.0326 173.202 77.0052 173.247 76.9951C173.291 76.9849 173.338 76.9928 173.376 77.017C173.415 77.0413 173.442 77.0799 173.453 77.1243C173.834 78.789 174.126 81.7987 174.465 85.2836C175.168 92.5126 176.042 101.508 178.264 105.696C178.278 105.723 178.285 105.752 178.284 105.782C178.284 105.811 178.275 105.84 178.26 105.866C178.245 105.891 178.223 105.912 178.197 105.927C178.171 105.941 178.142 105.949 178.113 105.949H178.113Z" fill="white"/>
</g>
<g clip-path="url(#clip3_108_9196)">
<path d="M110.82 116.325L110.705 116.382C110.101 116.677 109.366 116.423 109.072 115.817L108.949 115.571L108.892 115.448L108.623 114.891L96.7891 90.5222C96.4951 89.916 96.7483 89.1788 97.3526 88.8839L97.4669 88.8266C98.0713 88.5317 98.8063 88.7856 99.1084 89.3918L110.852 113.581L111.016 113.916L111.024 113.941L111.383 114.686C111.685 115.293 111.432 116.03 110.82 116.325Z" fill="#FFCF2D"/>
<path d="M145.741 115.17V115.292C145.741 115.972 145.194 116.521 144.516 116.521H110.142C109.562 116.521 109.072 116.111 108.949 115.571C108.933 115.481 108.917 115.391 108.917 115.292V115.17C108.917 115.137 108.917 115.112 108.917 115.079C108.949 114.604 109.243 114.211 109.66 114.031C109.807 113.965 109.97 113.933 110.134 113.933H144.507C145.194 113.941 145.741 114.49 145.741 115.17Z" fill="#9B3C82"/>
<path d="M110.852 113.58L111.016 113.916L110.264 113.892C110.052 113.892 109.848 113.941 109.668 114.031C109.268 114.227 108.982 114.612 108.925 115.079C108.917 115.137 108.917 115.194 108.917 115.251C108.917 115.317 108.909 115.382 108.9 115.448L108.631 114.891C108.794 114.129 109.472 113.564 110.273 113.564L110.852 113.58Z" fill="white"/>
</g>
<g clip-path="url(#clip4_108_9196)">
<path d="M113.994 112.049C112.123 114.986 118.258 111.366 118.386 111.28C115.754 113.441 115.635 114.61 118.13 113.483C120.625 112.356 123.941 110.691 127.025 110.392C131.691 109.94 136.169 112.766 137.621 113.534C157.77 125.249 171.759 123.157 174.374 110.939C174.621 109.769 160.65 107.532 154.583 105.081C154.583 105.081 138.689 98.0539 122.813 102.238C122.693 102.281 117.874 103.425 114.148 106.712C114.088 106.763 114.028 106.815 113.968 106.874C110.952 109.59 115.447 108.044 116.361 107.617C115.66 108.206 114.481 109.333 113.832 110.085C110.952 113.432 113.994 112.049 113.994 112.049Z" fill="#F4ADA2"/>
<path d="M119.326 106.037C119.412 106.003 119.463 105.909 119.429 105.815C119.394 105.73 119.3 105.679 119.206 105.713C119.104 105.747 117.036 106.464 115.25 108.035C115.686 107.89 116.113 107.719 116.344 107.617C117.865 106.55 119.3 106.046 119.326 106.037Z" fill="#9B3C82"/>
<path d="M120.403 107.754C120.488 107.72 120.531 107.617 120.488 107.532C120.454 107.446 120.352 107.404 120.266 107.446C119.198 107.925 118.173 108.471 117.181 109.086C115.472 110.145 114.208 111.195 113.379 112.262C113.703 112.177 113.977 112.049 113.985 112.049C116.207 109.513 120.36 107.771 120.403 107.754Z" fill="#9B3C82"/>
<path d="M121.206 109.495C121.163 109.41 121.061 109.376 120.975 109.41C120.181 109.794 119.403 110.23 118.651 110.699C117.754 111.263 117.01 111.809 116.412 112.347C117.301 111.912 118.121 111.434 118.326 111.314C119.745 110.366 121.095 109.735 121.112 109.717C121.206 109.683 121.249 109.581 121.206 109.495Z" fill="#9B3C82"/>
<path d="M137.356 101.222C140.894 101.452 144.534 102.024 148.226 102.938C146.175 102.315 143.816 101.691 141.15 101.256C139.877 101.094 138.621 100.966 137.373 100.88C133.665 100.641 130.067 100.769 126.666 101.273C123.966 101.743 121.753 102.409 119.83 103.254C121.377 102.716 123.624 102.084 126.495 101.649C129.931 101.111 133.588 100.974 137.356 101.222Z" fill="#9B3C82"/>
</g>
<g clip-path="url(#clip5_108_9196)">
<path d="M56.5991 111.885C60.3103 111.885 63.3188 108.876 63.3188 105.165C63.3188 101.454 60.3103 98.4453 56.5991 98.4453C52.888 98.4453 49.8795 101.454 49.8795 105.165C49.8795 108.876 52.888 111.885 56.5991 111.885Z" fill="#66B0F0"/>
<path d="M66.0568 120.139C63.3587 122.133 60.1004 123.226 56.7453 123.262C53.3902 123.298 50.1093 122.275 47.3691 120.339C48.5473 116.941 50.3983 113.952 52.3596 112.021C53.6759 112.837 55.1998 113.256 56.7484 113.227C58.297 113.198 59.8044 112.724 61.0897 111.859C63.0921 113.736 64.9082 116.705 66.0568 120.139Z" fill="#66B0F0"/>
<path d="M56.5741 123.519C53.2231 123.526 49.9533 122.487 47.2211 120.547C47.1499 120.497 47.0781 120.446 47.007 120.393C44.9489 118.89 43.2751 116.922 42.1218 114.649C40.9685 112.377 40.3684 109.864 40.3704 107.315C40.3704 98.3803 47.6394 91.1113 56.5741 91.1113C65.5088 91.1113 72.7778 98.3803 72.7778 107.315C72.7853 109.851 72.1912 112.353 71.0441 114.615C69.9357 116.799 68.3508 118.706 66.4066 120.196C66.3408 120.246 66.2752 120.295 66.2088 120.344C63.4241 122.415 60.0442 123.528 56.5741 123.519ZM56.5741 91.623C47.9215 91.623 40.882 98.6624 40.882 107.315C40.88 109.783 41.4612 112.217 42.5784 114.419C43.6956 116.62 45.317 118.526 47.3106 119.982C47.3788 120.032 47.4466 120.081 47.5152 120.129C50.2115 122.034 53.44 123.041 56.7416 123.006C60.0431 122.971 63.2495 121.896 65.9046 119.933C65.9692 119.885 66.0325 119.838 66.0961 119.789C67.9792 118.347 69.5141 116.499 70.5876 114.384C71.6982 112.194 72.2735 109.771 72.2661 107.315C72.2661 98.6624 65.2269 91.623 56.5741 91.623Z" fill="#FFCF2D"/>
</g>
<g clip-path="url(#clip6_108_9196)">
<path d="M56.7843 67.6253C60.4955 67.6253 63.5039 64.6168 63.5039 60.9057C63.5039 57.1945 60.4955 54.186 56.7843 54.186C53.0732 54.186 50.0647 57.1945 50.0647 60.9057C50.0647 64.6168 53.0732 67.6253 56.7843 67.6253Z" fill="#F4ADA2"/>
<path d="M66.242 75.8796C63.5439 77.8741 60.2856 78.967 56.9305 79.0028C53.5754 79.0387 50.2945 78.0157 47.5543 76.0794C48.7325 72.6819 50.5835 69.6926 52.5447 67.7613C53.8611 68.5775 55.385 68.9964 56.9336 68.9678C58.4821 68.9392 59.9896 68.4643 61.2749 67.6001C63.2773 69.4771 65.0934 72.4454 66.242 75.8796Z" fill="#F4ADA2"/>
<path d="M56.7593 79.2595C53.4082 79.2669 50.1385 78.228 47.4063 76.2877C47.3351 76.238 47.2633 76.1865 47.1922 76.1342C45.1341 74.631 43.4602 72.6628 42.3069 70.3901C41.1536 68.1174 40.5535 65.6043 40.5555 63.0557C40.5555 54.121 47.8246 46.8521 56.7593 46.8521C65.694 46.8521 72.963 54.121 72.963 63.0557C72.9705 65.5919 72.3764 68.0937 71.2293 70.3557C70.1209 72.5398 68.536 74.4471 66.5917 75.9367C66.526 75.9868 66.4604 76.0359 66.394 76.0851C63.6093 78.1555 60.2293 79.2692 56.7593 79.2595ZM56.7593 47.3637C48.1067 47.3637 41.0672 54.4032 41.0672 63.0557C41.0652 65.5242 41.6464 67.9582 42.7636 70.1594C43.8807 72.3606 45.5022 74.2667 47.4958 75.7223C47.564 75.7728 47.6318 75.8215 47.7004 75.8693C50.3966 77.7751 53.6252 78.782 56.9267 78.7469C60.2283 78.7118 63.4347 77.6364 66.0898 75.6737C66.1544 75.626 66.2177 75.5784 66.2813 75.5299C68.1643 74.0873 69.6993 72.2401 70.7728 70.1248C71.8834 67.9343 72.4587 65.5117 72.4513 63.0558C72.4513 54.4032 65.4121 47.3637 56.7593 47.3637Z" fill="#FFCF2D"/>
</g>
<g clip-path="url(#clip7_108_9196)">
<path d="M92.6451 57.1682H78.5882C78.5206 57.1682 78.4558 57.1418 78.408 57.0947C78.3602 57.0477 78.3334 56.9839 78.3334 56.9173C78.3334 56.8508 78.3602 56.787 78.408 56.74C78.4558 56.6929 78.5206 56.6665 78.5882 56.6665H92.6451C92.7127 56.6665 92.7775 56.6929 92.8253 56.74C92.8731 56.787 92.8999 56.8508 92.8999 56.9173C92.8999 56.9839 92.8731 57.0477 92.8253 57.0947C92.7775 57.1418 92.7127 57.1682 92.6451 57.1682Z" fill="#66B0F0"/>
<path d="M102.666 57.1682H95.8065C95.739 57.1682 95.6742 57.1418 95.6264 57.0947C95.5786 57.0477 95.5518 56.9839 95.5518 56.9173C95.5518 56.8508 95.5786 56.787 95.6264 56.74C95.6742 56.6929 95.739 56.6665 95.8065 56.6665H102.666C102.734 56.6665 102.799 56.6929 102.846 56.74C102.894 56.787 102.921 56.8508 102.921 56.9173C102.921 56.9839 102.894 57.0477 102.846 57.0947C102.799 57.1418 102.734 57.1682 102.666 57.1682Z" fill="#66B0F0"/>
<path d="M82.1447 64.7878H78.5882C78.5206 64.7878 78.4558 64.7614 78.408 64.7143C78.3602 64.6673 78.3334 64.6035 78.3334 64.537C78.3334 64.4704 78.3602 64.4066 78.408 64.3596C78.4558 64.3126 78.5206 64.2861 78.5882 64.2861H82.1447C82.2123 64.2861 82.2771 64.3126 82.3248 64.3596C82.3726 64.4066 82.3995 64.4704 82.3995 64.537C82.3995 64.6035 82.3726 64.6673 82.3248 64.7143C82.2771 64.7614 82.2123 64.7878 82.1447 64.7878Z" fill="#66B0F0"/>
<path d="M102.666 64.7878H85.0804C85.0128 64.7878 84.948 64.7614 84.9002 64.7143C84.8524 64.6673 84.8256 64.6035 84.8256 64.537C84.8256 64.4704 84.8524 64.4066 84.9002 64.3596C84.948 64.3126 85.0128 64.2861 85.0804 64.2861H102.666C102.734 64.2861 102.799 64.3126 102.846 64.3596C102.894 64.4066 102.921 64.4704 102.921 64.537C102.921 64.6035 102.894 64.6673 102.846 64.7143C102.799 64.7614 102.734 64.7878 102.666 64.7878Z" fill="#66B0F0"/>
<path d="M95.8066 72.4074H78.6306C78.5631 72.4074 78.4983 72.381 78.4505 72.334C78.4027 72.2869 78.3759 72.2231 78.3759 72.1566C78.3759 72.0901 78.4027 72.0263 78.4505 71.9792C78.4983 71.9322 78.5631 71.9058 78.6306 71.9058H95.8066C95.8742 71.9058 95.939 71.9322 95.9867 71.9792C96.0345 72.0263 96.0614 72.0901 96.0614 72.1566C96.0614 72.2231 96.0345 72.2869 95.9867 72.334C95.939 72.381 95.8742 72.4074 95.8066 72.4074Z" fill="#66B0F0"/>
<path d="M102.708 72.4074H98.742C98.6744 72.4074 98.6096 72.381 98.5618 72.334C98.514 72.2869 98.4872 72.2231 98.4872 72.1566C98.4872 72.0901 98.514 72.0263 98.5618 71.9792C98.6096 71.9322 98.6744 71.9058 98.742 71.9058H102.708C102.776 71.9058 102.841 71.9322 102.888 71.9792C102.936 72.0263 102.963 72.0901 102.963 72.1566C102.963 72.2231 102.936 72.2869 102.888 72.334C102.841 72.381 102.776 72.4074 102.708 72.4074Z" fill="#66B0F0"/>
</g>
<g clip-path="url(#clip8_108_9196)">
<path d="M112.963 54.7495L113.547 55.9888C113.562 56.0202 113.583 56.0474 113.61 56.0679C113.638 56.0885 113.669 56.1019 113.702 56.1069L115.008 56.3056C115.047 56.3114 115.082 56.3282 115.112 56.3542C115.141 56.3801 115.163 56.4141 115.175 56.4524C115.187 56.4907 115.188 56.5317 115.179 56.5708C115.17 56.6098 115.15 56.6454 115.123 56.6735L114.177 57.6383C114.153 57.6628 114.135 57.6929 114.125 57.7262C114.115 57.7594 114.112 57.7948 114.118 57.8293L114.341 59.1915C114.348 59.2312 114.343 59.272 114.329 59.3092C114.315 59.3465 114.29 59.3788 114.259 59.4025C114.228 59.4261 114.191 59.4402 114.153 59.4431C114.115 59.446 114.076 59.4376 114.042 59.4189L112.874 58.7756C112.844 58.7593 112.811 58.7508 112.778 58.7508C112.744 58.7508 112.711 58.7593 112.682 58.7756L111.513 59.4187C111.479 59.4375 111.441 59.4458 111.403 59.4429C111.364 59.44 111.327 59.426 111.296 59.4023C111.265 59.3786 111.241 59.3463 111.227 59.3091C111.212 59.2718 111.208 59.231 111.214 59.1913L111.437 57.8292C111.443 57.7947 111.441 57.7593 111.43 57.726C111.42 57.6927 111.402 57.6626 111.378 57.6382L110.433 56.6736C110.405 56.6455 110.386 56.6099 110.377 56.5709C110.367 56.5318 110.369 56.4908 110.381 56.4525C110.392 56.4142 110.414 56.3802 110.444 56.3542C110.473 56.3283 110.509 56.3115 110.547 56.3057L111.853 56.107C111.887 56.1019 111.918 56.0886 111.945 56.068C111.972 56.0474 111.994 56.0203 112.009 55.9889L112.593 54.7495C112.61 54.7133 112.636 54.6828 112.669 54.6615C112.701 54.6402 112.739 54.6289 112.778 54.6289C112.816 54.6289 112.854 54.6402 112.886 54.6615C112.919 54.6828 112.946 54.7133 112.963 54.7495Z" fill="#FFCF2D"/>
</g>
<g clip-path="url(#clip9_108_9196)">
<path d="M122.222 54.7495L122.806 55.9888C122.821 56.0202 122.843 56.0474 122.87 56.0679C122.897 56.0885 122.928 56.1019 122.961 56.1069L124.268 56.3056C124.306 56.3114 124.342 56.3282 124.371 56.3542C124.4 56.3801 124.422 56.4141 124.434 56.4524C124.446 56.4907 124.447 56.5317 124.438 56.5708C124.429 56.6098 124.41 56.6454 124.382 56.6735L123.437 57.6383C123.413 57.6628 123.395 57.6929 123.384 57.7262C123.374 57.7594 123.372 57.7948 123.377 57.8293L123.6 59.1915C123.607 59.2312 123.603 59.272 123.588 59.3092C123.574 59.3465 123.55 59.3788 123.519 59.4025C123.487 59.4261 123.451 59.4402 123.412 59.4431C123.374 59.446 123.336 59.4376 123.302 59.4189L122.133 58.7756C122.103 58.7593 122.07 58.7508 122.037 58.7508C122.004 58.7508 121.971 58.7593 121.941 58.7756L120.773 59.4187C120.739 59.4375 120.7 59.4458 120.662 59.4429C120.623 59.44 120.587 59.426 120.556 59.4023C120.524 59.3786 120.5 59.3463 120.486 59.3091C120.471 59.2718 120.467 59.231 120.474 59.1913L120.697 57.8292C120.702 57.7947 120.7 57.7593 120.69 57.726C120.679 57.6927 120.661 57.6626 120.637 57.6382L119.692 56.6736C119.665 56.6455 119.645 56.6099 119.636 56.5709C119.627 56.5318 119.628 56.4908 119.64 56.4525C119.652 56.4142 119.674 56.3802 119.703 56.3542C119.732 56.3283 119.768 56.3115 119.806 56.3057L121.113 56.107C121.146 56.1019 121.177 56.0886 121.204 56.068C121.231 56.0474 121.253 56.0203 121.268 55.9889L121.852 54.7495C121.869 54.7133 121.895 54.6828 121.928 54.6615C121.961 54.6402 121.998 54.6289 122.037 54.6289C122.075 54.6289 122.113 54.6402 122.146 54.6615C122.178 54.6828 122.205 54.7133 122.222 54.7495Z" fill="#FFCF2D"/>
</g>
<g clip-path="url(#clip10_108_9196)">
<path d="M131.296 54.7495L131.88 55.9888C131.895 56.0202 131.917 56.0474 131.944 56.0679C131.971 56.0885 132.002 56.1019 132.035 56.1069L133.342 56.3056C133.38 56.3114 133.416 56.3282 133.445 56.3542C133.474 56.3801 133.496 56.4141 133.508 56.4524C133.52 56.4907 133.521 56.5317 133.512 56.5708C133.503 56.6098 133.484 56.6454 133.456 56.6735L132.511 57.6383C132.487 57.6628 132.469 57.6929 132.459 57.7262C132.448 57.7594 132.446 57.7948 132.451 57.8293L132.675 59.1915C132.681 59.2312 132.677 59.272 132.662 59.3092C132.648 59.3465 132.624 59.3788 132.593 59.4025C132.562 59.4261 132.525 59.4402 132.486 59.4431C132.448 59.446 132.41 59.4376 132.376 59.4189L131.207 58.7756C131.177 58.7593 131.144 58.7508 131.111 58.7508C131.078 58.7508 131.045 58.7593 131.015 58.7756L129.847 59.4187C129.813 59.4375 129.774 59.4458 129.736 59.4429C129.698 59.44 129.661 59.426 129.63 59.4023C129.599 59.3786 129.574 59.3463 129.56 59.3091C129.545 59.2718 129.541 59.231 129.548 59.1913L129.771 57.8292C129.776 57.7947 129.774 57.7593 129.764 57.726C129.753 57.6927 129.735 57.6626 129.711 57.6382L128.766 56.6736C128.739 56.6455 128.719 56.6099 128.71 56.5709C128.701 56.5318 128.702 56.4908 128.714 56.4525C128.726 56.4142 128.748 56.3802 128.777 56.3542C128.806 56.3283 128.842 56.3115 128.88 56.3057L130.187 56.107C130.22 56.1019 130.251 56.0886 130.278 56.068C130.305 56.0474 130.327 56.0203 130.342 55.9889L130.926 54.7495C130.943 54.7133 130.969 54.6828 131.002 54.6615C131.035 54.6402 131.072 54.6289 131.111 54.6289C131.149 54.6289 131.187 54.6402 131.22 54.6615C131.253 54.6828 131.279 54.7133 131.296 54.7495Z" fill="#FFCF2D"/>
</g>
<g clip-path="url(#clip11_108_9196)">
<path d="M112.963 70.1201L113.547 71.3594C113.562 71.3908 113.583 71.418 113.61 71.4385C113.638 71.4591 113.669 71.4725 113.702 71.4775L115.008 71.6762C115.047 71.682 115.082 71.6988 115.112 71.7248C115.141 71.7507 115.163 71.7847 115.175 71.823C115.187 71.8613 115.188 71.9023 115.179 71.9414C115.17 71.9804 115.15 72.016 115.123 72.0441L114.177 73.0089C114.153 73.0334 114.135 73.0635 114.125 73.0968C114.115 73.1301 114.112 73.1655 114.118 73.1999L114.341 74.5621C114.348 74.6018 114.343 74.6426 114.329 74.6798C114.315 74.7171 114.29 74.7494 114.259 74.7731C114.228 74.7967 114.191 74.8108 114.153 74.8137C114.115 74.8166 114.076 74.8082 114.042 74.7895L112.874 74.1462C112.844 74.1299 112.811 74.1214 112.778 74.1214C112.744 74.1214 112.711 74.1299 112.682 74.1462L111.513 74.7893C111.479 74.8081 111.441 74.8164 111.403 74.8135C111.364 74.8106 111.327 74.7966 111.296 74.7729C111.265 74.7492 111.241 74.717 111.227 74.6797C111.212 74.6424 111.208 74.6016 111.214 74.5619L111.437 73.1998C111.443 73.1653 111.441 73.1299 111.43 73.0966C111.42 73.0633 111.402 73.0332 111.378 73.0088L110.433 72.0442C110.405 72.0161 110.386 71.9805 110.377 71.9415C110.367 71.9024 110.369 71.8614 110.381 71.8231C110.392 71.7848 110.414 71.7508 110.444 71.7248C110.473 71.6989 110.509 71.6821 110.547 71.6763L111.853 71.4776C111.887 71.4725 111.918 71.4592 111.945 71.4386C111.972 71.418 111.994 71.3909 112.009 71.3595L112.593 70.1201C112.61 70.0839 112.636 70.0534 112.669 70.0321C112.701 70.0108 112.739 69.9995 112.778 69.9995C112.816 69.9995 112.854 70.0108 112.886 70.0321C112.919 70.0534 112.946 70.0839 112.963 70.1201Z" fill="#FFCF2D"/>
</g>
<g clip-path="url(#clip12_108_9196)">
<path d="M122.037 70.3052L122.621 71.5445C122.636 71.5759 122.658 71.603 122.685 71.6236C122.712 71.6441 122.743 71.6575 122.776 71.6625L124.083 71.8613C124.121 71.8671 124.156 71.8839 124.186 71.9098C124.215 71.9358 124.237 71.9698 124.249 72.0081C124.261 72.0463 124.262 72.0873 124.253 72.1264C124.244 72.1655 124.224 72.2011 124.197 72.2292L123.252 73.194C123.228 73.2184 123.21 73.2486 123.199 73.2818C123.189 73.3151 123.187 73.3505 123.192 73.385L123.415 74.7472C123.422 74.7868 123.418 74.8276 123.403 74.8649C123.389 74.9022 123.365 74.9345 123.333 74.9581C123.302 74.9818 123.266 74.9959 123.227 74.9988C123.189 75.0017 123.15 74.9933 123.116 74.9746L121.948 74.3313C121.918 74.315 121.885 74.3065 121.852 74.3065C121.819 74.3065 121.786 74.315 121.756 74.3313L120.587 74.9744C120.553 74.9931 120.515 75.0015 120.477 74.9986C120.438 74.9957 120.402 74.9816 120.37 74.958C120.339 74.9343 120.315 74.902 120.301 74.8647C120.286 74.8274 120.282 74.7867 120.288 74.747L120.512 73.3848C120.517 73.3503 120.515 73.3149 120.505 73.2817C120.494 73.2484 120.476 73.2182 120.452 73.1938L119.507 72.2293C119.479 72.2012 119.46 72.1656 119.451 72.1265C119.441 72.0874 119.443 72.0464 119.455 72.0082C119.467 71.9699 119.489 71.9358 119.518 71.9099C119.547 71.8839 119.583 71.8671 119.621 71.8614L120.928 71.6626C120.961 71.6576 120.992 71.6442 121.019 71.6237C121.046 71.6031 121.068 71.576 121.083 71.5446L121.667 70.3052C121.684 70.269 121.71 70.2385 121.743 70.2172C121.776 70.1959 121.813 70.1846 121.852 70.1846C121.89 70.1846 121.928 70.1959 121.961 70.2172C121.993 70.2385 122.02 70.269 122.037 70.3052Z" fill="#FFCF2D"/>
</g>
<g clip-path="url(#clip13_108_9196)">
<path d="M131.111 70.3052L131.695 71.5445C131.71 71.5759 131.732 71.603 131.759 71.6236C131.786 71.6441 131.817 71.6575 131.85 71.6625L133.157 71.8613C133.195 71.8671 133.23 71.8839 133.26 71.9098C133.289 71.9358 133.311 71.9698 133.323 72.0081C133.335 72.0463 133.336 72.0873 133.327 72.1264C133.318 72.1655 133.298 72.2011 133.271 72.2292L132.325 73.194C132.302 73.2184 132.284 73.2486 132.273 73.2818C132.263 73.3151 132.261 73.3505 132.266 73.385L132.489 74.7472C132.496 74.7868 132.492 74.8276 132.477 74.8649C132.463 74.9022 132.439 74.9345 132.407 74.9581C132.376 74.9818 132.34 74.9959 132.301 74.9988C132.263 75.0017 132.224 74.9933 132.19 74.9746L131.022 74.3313C130.992 74.315 130.959 74.3065 130.926 74.3065C130.892 74.3065 130.86 74.315 130.83 74.3313L129.661 74.9744C129.627 74.9931 129.589 75.0015 129.551 74.9986C129.512 74.9957 129.476 74.9816 129.444 74.958C129.413 74.9343 129.389 74.902 129.375 74.8647C129.36 74.8274 129.356 74.7867 129.362 74.747L129.586 73.3848C129.591 73.3503 129.589 73.3149 129.578 73.2817C129.568 73.2484 129.55 73.2182 129.526 73.1938L128.581 72.2293C128.553 72.2012 128.534 72.1656 128.525 72.1265C128.515 72.0874 128.517 72.0464 128.529 72.0082C128.541 71.9699 128.563 71.9358 128.592 71.9099C128.621 71.8839 128.657 71.8671 128.695 71.8614L130.002 71.6626C130.035 71.6576 130.066 71.6442 130.093 71.6237C130.12 71.6031 130.142 71.576 130.157 71.5446L130.741 70.3052C130.758 70.269 130.784 70.2385 130.817 70.2172C130.849 70.1959 130.887 70.1846 130.926 70.1846C130.964 70.1846 131.002 70.1959 131.035 70.2172C131.067 70.2385 131.094 70.269 131.111 70.3052Z" fill="#FFCF2D"/>
</g>
<g clip-path="url(#clip14_108_9196)">
<path d="M112.963 62.3423L113.547 63.5816C113.562 63.613 113.583 63.6401 113.61 63.6607C113.638 63.6813 113.669 63.6946 113.702 63.6996L115.008 63.8984C115.047 63.9042 115.082 63.921 115.112 63.9469C115.141 63.9729 115.163 64.0069 115.175 64.0452C115.187 64.0835 115.188 64.1244 115.179 64.1635C115.17 64.2026 115.15 64.2382 115.123 64.2663L114.177 65.2311C114.153 65.2555 114.135 65.2857 114.125 65.3189C114.115 65.3522 114.112 65.3876 114.118 65.4221L114.341 66.7843C114.348 66.8239 114.343 66.8647 114.329 66.902C114.315 66.9393 114.29 66.9716 114.259 66.9952C114.228 67.0189 114.191 67.033 114.153 67.0359C114.115 67.0388 114.076 67.0304 114.042 67.0117L112.874 66.3684C112.844 66.3521 112.811 66.3436 112.778 66.3436C112.744 66.3436 112.711 66.3521 112.682 66.3684L111.513 67.0115C111.479 67.0302 111.441 67.0386 111.403 67.0357C111.364 67.0328 111.327 67.0187 111.296 66.9951C111.265 66.9714 111.241 66.9391 111.227 66.9018C111.212 66.8646 111.208 66.8238 111.214 66.7841L111.437 65.4219C111.443 65.3874 111.441 65.352 111.43 65.3188C111.42 65.2855 111.402 65.2553 111.378 65.2309L110.433 64.2664C110.405 64.2383 110.386 64.2027 110.377 64.1636C110.367 64.1246 110.369 64.0835 110.381 64.0453C110.392 64.007 110.414 63.9729 110.444 63.947C110.473 63.921 110.509 63.9042 110.547 63.8985L111.853 63.6997C111.887 63.6947 111.918 63.6813 111.945 63.6608C111.972 63.6402 111.994 63.6131 112.009 63.5817L112.593 62.3423C112.61 62.3061 112.636 62.2756 112.669 62.2543C112.701 62.233 112.739 62.2217 112.778 62.2217C112.816 62.2217 112.854 62.233 112.886 62.2543C112.919 62.2756 112.946 62.3061 112.963 62.3423Z" fill="#FFCF2D"/>
</g>
<g clip-path="url(#clip15_108_9196)">
<path d="M122.037 62.5273L122.621 63.7667C122.636 63.798 122.658 63.8252 122.685 63.8458C122.712 63.8663 122.743 63.8797 122.776 63.8847L124.083 64.0834C124.121 64.0892 124.156 64.106 124.186 64.132C124.215 64.1579 124.237 64.192 124.249 64.2302C124.261 64.2685 124.262 64.3095 124.253 64.3486C124.244 64.3877 124.224 64.4233 124.197 64.4514L123.252 65.4162C123.228 65.4406 123.21 65.4707 123.199 65.504C123.189 65.5373 123.187 65.5727 123.192 65.6072L123.415 66.9693C123.422 67.009 123.418 67.0498 123.403 67.0871C123.389 67.1243 123.365 67.1566 123.333 67.1803C123.302 67.204 123.266 67.218 123.227 67.2209C123.189 67.2238 123.15 67.2155 123.116 67.1967L121.948 66.5534C121.918 66.5371 121.885 66.5286 121.852 66.5286C121.819 66.5286 121.786 66.5371 121.756 66.5534L120.587 67.1966C120.553 67.2153 120.515 67.2237 120.477 67.2208C120.438 67.2179 120.402 67.2038 120.37 67.1801C120.339 67.1565 120.315 67.1242 120.301 67.0869C120.286 67.0496 120.282 67.0088 120.288 66.9692L120.512 65.607C120.517 65.5725 120.515 65.5371 120.505 65.5038C120.494 65.4705 120.476 65.4404 120.452 65.416L119.507 64.4514C119.479 64.4234 119.46 64.3878 119.451 64.3487C119.441 64.3096 119.443 64.2686 119.455 64.2303C119.467 64.192 119.489 64.158 119.518 64.132C119.547 64.1061 119.583 64.0893 119.621 64.0835L120.928 63.8848C120.961 63.8798 120.992 63.8664 121.019 63.8458C121.046 63.8253 121.068 63.7981 121.083 63.7668L121.667 62.5273C121.684 62.4912 121.71 62.4607 121.743 62.4394C121.776 62.418 121.813 62.4067 121.852 62.4067C121.89 62.4067 121.928 62.418 121.961 62.4394C121.993 62.4607 122.02 62.4912 122.037 62.5273Z" fill="#FFCF2D"/>
</g>
<g clip-path="url(#clip16_108_9196)">
<path d="M23.6355 87.8744C23.6524 87.7896 23.7371 87.7387 23.8302 87.7557C23.8979 87.7726 23.9402 87.8235 23.9486 87.8913C24.3971 90.9681 21.5622 103.343 32.2673 109.997C39.1219 114.26 40.2982 116.125 41.3306 120.16C43.0147 126.729 38.1741 132.696 39.435 141.35C40.6536 149.724 44.5633 158.285 37.4463 164.879C37.3786 164.939 37.2771 164.939 37.2178 164.871C37.1925 164.845 37.184 164.812 37.1755 164.778C36.9724 163.006 38.1487 152.818 31.5987 145.673C24.9303 138.392 36.3801 130.416 25.4973 121.812C15.1222 113.616 21.4268 97.2658 23.6355 87.8744Z" fill="#21A0AA"/>
<path d="M55.7254 127.085C55.7423 127.059 55.7254 127.025 55.7 127.008C55.6831 127 55.6577 127 55.6408 127.008C54.7945 127.585 51.3841 130.178 51.5872 134.467C51.9173 141.324 47.6014 142.833 44.7664 146.902C42.0331 150.818 43.8525 153.954 43.3278 157.759C42.9978 161.938 36.8032 165.151 36.8032 165.151C36.8032 165.151 45.5365 164.727 48.6761 159.361C50.5209 155.742 49.3108 153.335 50.7156 148.919C51.8834 145.232 55.8185 144.554 56.6224 140.324C57.4433 136.001 52.5096 133.213 55.7254 127.085Z" fill="#21A0AA"/>
<path d="M38.0895 165.489C38.1149 165.54 38.0895 165.6 38.0387 165.625C38.0049 165.642 37.971 165.642 37.9372 165.625C35.8892 164.896 29.6947 162.43 28.73 157.734C26.9782 149.131 16.6963 151.428 18.6426 141.163C21.0799 128.297 17.0348 126.839 10.4086 121.134C10.4086 121.134 26.352 124.576 27.486 137.349C28.0022 143.155 25.1503 144.299 31.0148 150.394C34.4337 153.928 32.885 160.836 38.0895 165.489Z" fill="#21A0AA"/>
<path d="M36.0077 142.519C34.7721 139.044 35.2799 135.891 35.7707 132.848C36.1684 130.39 36.5746 127.847 36.0669 125.16C35.4914 122.151 33.7989 119.286 30.8794 116.396C28.5183 114.065 26.6989 111.031 25.4718 107.395C24.4817 104.479 23.8724 101.165 23.6439 97.5454C23.3901 93.4345 23.7032 89.8576 23.9486 87.9081C23.9486 87.8996 23.9486 87.8912 23.9486 87.8742C23.9401 87.8064 23.8893 87.7556 23.8301 87.7386C23.7455 87.7216 23.6609 87.7725 23.6355 87.8573C23.5762 88.12 23.5085 88.3913 23.4408 88.671C23.2208 90.7391 23.0092 93.9431 23.2293 97.5539C23.4578 101.207 24.0755 104.564 25.0741 107.513C26.3266 111.217 28.1798 114.303 30.5917 116.684C33.4435 119.507 35.1022 122.304 35.6607 125.22C36.16 127.83 35.7707 130.229 35.3645 132.763C34.8652 135.866 34.349 139.07 35.6184 142.647C38.0894 149.597 40.1543 157.59 37.1755 164.693C37.1755 164.718 37.1839 164.744 37.1839 164.761C37.1839 164.794 37.2009 164.828 37.2263 164.854C37.2855 164.922 37.387 164.922 37.4547 164.862C37.5224 164.803 37.5817 164.744 37.6409 164.684C40.5605 157.514 38.4872 149.495 36.0077 142.519Z" fill="#6CE0DC"/>
<path d="M43.6578 161.023C45.875 158.692 46.9836 155.827 47.0428 152.275C47.1105 148.326 48.9807 146.105 50.7917 143.96C52.4757 141.96 54.0752 140.078 53.7197 137.052C53.3051 133.526 53.2035 130.823 55.3191 127.941C55.4376 127.661 55.573 127.373 55.7253 127.085C55.7423 127.059 55.7253 127.025 55.7 127.008C55.683 127 55.6576 127 55.6407 127.008C55.5561 127.068 55.4545 127.144 55.3276 127.237C52.755 130.399 52.8481 133.289 53.2966 137.103C53.6266 139.943 52.1626 141.672 50.4701 143.681C48.7015 145.783 46.6874 148.156 46.6197 152.258C46.5605 155.7 45.4942 158.471 43.3532 160.726C41.9907 162.159 40.1797 163.413 37.7425 164.608C37.1755 164.947 36.8116 165.151 36.8116 165.151C36.8116 165.151 37.2263 165.108 37.8948 165.006C40.3913 163.786 42.2615 162.489 43.6578 161.023Z" fill="#6CE0DC"/>
<path d="M20.5551 128.881C21.9768 130.916 22.6031 133.077 22.4169 135.315C21.6891 143.842 21.6891 145.562 25.8696 149.326C28.7468 151.911 29.4323 153.581 30.4732 156.098C30.7355 156.742 31.0402 157.471 31.4041 158.285C32.7496 161.277 35.2545 163.693 37.2601 165.278C37.5563 165.422 37.7933 165.54 37.9371 165.634C37.971 165.651 38.0048 165.651 38.0387 165.634C38.0894 165.608 38.1064 165.549 38.0894 165.498C37.8694 165.303 37.6579 165.1 37.4632 164.888C35.5084 163.337 33.105 160.997 31.8018 158.115C31.4379 157.31 31.1417 156.581 30.8709 155.945C29.8131 153.377 29.1107 151.674 26.1573 149.021C23.9994 147.079 23.0939 145.766 22.7131 143.994C22.2984 142.079 22.4761 139.587 22.84 135.357C23.0431 133.018 22.3915 130.763 20.9021 128.644C19.7258 126.966 18.0164 125.372 15.8415 123.906C14.1998 122.804 12.5327 121.948 11.1787 121.329C10.6963 121.194 10.4171 121.134 10.4171 121.134C10.6879 121.363 10.9502 121.592 11.2125 121.812C12.5073 122.414 14.0729 123.228 15.6046 124.262C17.7456 125.686 19.4127 127.246 20.5551 128.881Z" fill="#6CE0DC"/>
<path d="M48.1261 166.591C51.1641 168.515 53.0682 171.253 53.0682 174.305C53.0682 180.111 46.1712 184.815 37.6664 184.815C29.1616 184.815 22.2646 180.111 22.2646 174.305C22.2646 171.253 24.1687 168.515 27.2068 166.591H48.1261Z" fill="#FFCF2D"/>
<path d="M26.2419 164.812H48.9215C49.6662 164.812 50.2755 165.422 50.2755 166.168C50.2755 166.914 49.6662 167.524 48.9215 167.524H26.2419C25.4972 167.524 24.8879 166.914 24.8879 166.168C24.8879 165.422 25.4972 164.812 26.2419 164.812Z" fill="#FFCF2D"/>
<path d="M49.3531 167.456L25.9458 167.49C25.802 167.6 25.6835 167.71 25.5481 167.829L49.7678 167.795C49.6239 167.685 49.497 167.566 49.3531 167.456Z" fill="white"/>
</g>
<defs>
<clipPath id="clip0_108_9196">
<rect width="137.407" height="111.296" fill="white" transform="translate(30.1852 25.7407)"/>
</clipPath>
<clipPath id="clip1_108_9196">
<rect width="24.6296" height="15.7407" fill="white" transform="translate(79.0741 101.111)"/>
</clipPath>
<clipPath id="clip2_108_9196">
<rect width="120.37" height="139.63" fill="white" transform="translate(74.4445 47.2222)"/>
</clipPath>
<clipPath id="clip3_108_9196">
<rect width="49.0741" height="29.2593" fill="white" transform="translate(96.6666 88.7036)"/>
</clipPath>
<clipPath id="clip4_108_9196">
<rect width="62.5926" height="29.0741" fill="white" transform="translate(112.593 92.2222)"/>
</clipPath>
<clipPath id="clip5_108_9196">
<rect width="32.4074" height="32.4074" fill="white" transform="translate(40.3704 91.1113)"/>
</clipPath>
<clipPath id="clip6_108_9196">
<rect width="32.4074" height="32.4074" fill="white" transform="translate(40.5555 46.8521)"/>
</clipPath>
<clipPath id="clip7_108_9196">
<rect width="24.6296" height="15.7407" fill="white" transform="translate(78.3334 56.6665)"/>
</clipPath>
<clipPath id="clip8_108_9196">
<rect width="4.81481" height="4.81481" fill="white" transform="translate(110.37 54.6294)"/>
</clipPath>
<clipPath id="clip9_108_9196">
<rect width="4.81481" height="4.81481" fill="white" transform="translate(119.63 54.6294)"/>
</clipPath>
<clipPath id="clip10_108_9196">
<rect width="4.81481" height="4.81481" fill="white" transform="translate(128.704 54.6294)"/>
</clipPath>
<clipPath id="clip11_108_9196">
<rect width="4.81481" height="4.81481" fill="white" transform="translate(110.37 70)"/>
</clipPath>
<clipPath id="clip12_108_9196">
<rect width="4.81481" height="4.81481" fill="white" transform="translate(119.444 70.1851)"/>
</clipPath>
<clipPath id="clip13_108_9196">
<rect width="4.81481" height="4.81481" fill="white" transform="translate(128.519 70.1851)"/>
</clipPath>
<clipPath id="clip14_108_9196">
<rect width="4.81481" height="4.81481" fill="white" transform="translate(110.37 62.2222)"/>
</clipPath>
<clipPath id="clip15_108_9196">
<rect width="4.81481" height="4.81481" fill="white" transform="translate(119.444 62.4072)"/>
</clipPath>
<clipPath id="clip16_108_9196">
<rect width="49.0741" height="98.7037" fill="white" transform="translate(7.96295 86.1113)"/>
</clipPath>
</defs>
</svg>
