<svg width="120" height="108" viewBox="0 0 120 108" fill="none" xmlns="http://www.w3.org/2000/svg">
<g clip-path="url(#clip0_532_5799)">
<path d="M3.71655 19.9077V16.9002C3.71655 15.5014 4.84947 14.373 6.24346 14.373H51.0145C52.3898 14.373 53.5041 15.4874 53.5041 16.8629V19.9263L3.75851 19.9123L3.71655 19.9077Z" fill="#66B0F0"/>
<path d="M53.5041 20.0423L3.71653 20.0283C3.65126 20.0283 3.59998 19.977 3.59998 19.9117V16.8996C3.59998 15.4402 4.78417 14.2559 6.24344 14.2559H51.0145C52.4504 14.2559 53.6206 15.4262 53.6206 16.8623V19.9257C53.6206 19.9583 53.6067 19.9863 53.588 20.0096C53.5694 20.0329 53.5367 20.0423 53.5041 20.0423ZM3.83309 19.7951L53.3875 19.8091V16.8623C53.3875 15.5521 52.3246 14.489 51.0145 14.489H6.24344C4.91471 14.489 3.83309 15.5707 3.83309 16.8996V19.7951Z" fill="#66B0F0"/>
<path d="M50.7395 17.8375C51.1643 17.8375 51.5087 17.4931 51.5087 17.0682C51.5087 16.6433 51.1643 16.2988 50.7395 16.2988C50.3146 16.2988 49.9702 16.6433 49.9702 17.0682C49.9702 17.4931 50.3146 17.8375 50.7395 17.8375Z" fill="white"/>
<path d="M48.1192 17.8414C48.5441 17.8414 48.8885 17.497 48.8885 17.0721C48.8885 16.6472 48.5441 16.3027 48.1192 16.3027C47.6944 16.3027 47.35 16.6472 47.35 17.0721C47.35 17.497 47.6944 17.8414 48.1192 17.8414Z" fill="white"/>
<path d="M45.4991 17.8414C45.924 17.8414 46.2684 17.497 46.2684 17.0721C46.2684 16.6472 45.924 16.3027 45.4991 16.3027C45.0743 16.3027 44.7299 16.6472 44.7299 17.0721C44.7299 17.497 45.0743 17.8414 45.4991 17.8414Z" fill="white"/>
<path d="M3.71655 19.9082H28.608V37.398H3.71655V19.9082Z" fill="white"/>
<path d="M28.7245 37.5139H3.59998V19.791H28.7245V37.5139ZM3.83309 37.2808H28.4914V20.0242H3.83309V37.2808Z" fill="#66B0F0"/>
<path d="M3.71655 37.3965H28.608V54.8863H5.81454C4.65365 54.8863 3.71655 53.9491 3.71655 52.7881V37.3965Z" fill="white"/>
<path d="M28.7245 55.0042H5.81452C4.59302 55.0042 3.59998 54.011 3.59998 52.7894V37.2812H28.7245V55.0042ZM3.83309 37.5144V52.7894C3.83309 53.8805 4.72356 54.771 5.81452 54.771H28.4914V37.5144H3.83309Z" fill="#66B0F0"/>
<path d="M28.608 37.3965H53.4995V52.8114C53.4995 53.9584 52.567 54.8909 51.4201 54.8909H28.608V37.3965Z" fill="white"/>
<path d="M51.4201 55.0088H28.4915V37.2812H53.616V52.8127C53.616 54.025 52.6323 55.0088 51.4201 55.0088ZM28.7246 54.7757H51.4201C52.5017 54.7757 53.3829 53.8945 53.3829 52.8127V37.5144H28.7246V54.7757Z" fill="#66B0F0"/>
<path d="M28.608 19.9062H53.4995V37.396H28.608V19.9062Z" fill="white"/>
<path d="M53.4995 37.5139H28.608C28.5427 37.5139 28.4915 37.4626 28.4915 37.3974V19.9076C28.4915 19.8423 28.5427 19.791 28.608 19.791H53.4995C53.5647 19.791 53.616 19.8423 53.616 19.9076V37.3974C53.616 37.4626 53.5647 37.5139 53.4995 37.5139ZM28.7246 37.2808H53.3829V20.0242H28.7246V37.2808Z" fill="#66B0F0"/>
<path d="M21.1998 28.6549C21.1998 31.4385 18.9479 33.6952 16.1646 33.6952C13.3813 33.6952 11.1248 31.4432 11.1248 28.6595C11.1248 25.8759 13.3766 23.6191 16.1599 23.6191C18.9386 23.6191 21.1998 25.8759 21.1998 28.6549Z" fill="white"/>
<path d="M16.1646 33.8112C13.3206 33.8112 11.0082 31.4985 11.0082 28.6589C11.0082 25.8147 13.3206 23.502 16.1599 23.502C19.0038 23.502 21.3163 25.8147 21.3163 28.6542C21.3163 31.4985 19.0038 33.8112 16.1646 33.8112ZM16.1599 23.7351C13.4465 23.7351 11.2413 25.9452 11.2413 28.6589C11.2413 31.3726 13.4512 33.578 16.1646 33.578C18.878 33.578 21.0832 31.3679 21.0832 28.6542C21.0832 25.9405 18.8733 23.7351 16.1599 23.7351Z" fill="#21A0AA"/>
<path d="M18.3698 30.6686C18.3931 30.7432 18.3792 30.8225 18.3279 30.8785C18.2533 30.9531 18.174 31.0183 18.0901 31.079C16.9805 31.9416 15.428 31.9416 14.3184 31.079C14.2298 31.009 14.1505 30.9391 14.0713 30.8691C14.02 30.8178 14.0014 30.7386 14.02 30.6686C14.1599 30.291 14.3697 29.9413 14.6447 29.6428C14.6774 29.6102 14.7287 29.6055 14.766 29.6335C15.1809 29.9133 15.6704 30.0625 16.1693 30.0625C16.6868 30.0625 17.1856 29.904 17.6052 29.6055C17.6425 29.5776 17.6938 29.5822 17.7218 29.6195L17.7265 29.6242C18.0015 29.9366 18.216 30.2863 18.3698 30.6686ZM17.8523 27.3814C17.9456 28.3046 17.2742 29.1299 16.3511 29.2232C15.428 29.3165 14.6028 28.645 14.5095 27.7218C14.4163 26.7986 15.0877 25.9733 16.0108 25.88C16.1227 25.8707 16.2392 25.8707 16.3511 25.88C17.1437 25.964 17.7684 26.5888 17.8523 27.3814Z" fill="#21A0AA"/>
<path d="M46.0912 28.6549C46.0912 31.4385 43.8394 33.6952 41.0561 33.6952C38.2727 33.6952 36.0162 31.4432 36.0162 28.6595C36.0162 25.8759 38.2681 23.6238 41.0467 23.6191C43.8301 23.6191 46.0912 25.8759 46.0912 28.6549Z" fill="#FFCF2D"/>
<path d="M43.2613 30.6686C43.2846 30.7432 43.2706 30.8225 43.2193 30.8785C43.1447 30.9531 43.0655 31.0183 42.9816 31.079C41.872 31.9416 40.3194 31.9416 39.2098 31.079C39.1213 31.009 39.042 30.9391 38.9627 30.8691C38.9115 30.8178 38.8928 30.7386 38.9115 30.6686C39.0513 30.291 39.2658 29.9413 39.5362 29.6428C39.5688 29.6102 39.6201 29.6055 39.6574 29.6335C40.0723 29.9133 40.5619 30.0625 41.0607 30.0625C41.5782 30.0625 42.0771 29.904 42.4967 29.6055C42.534 29.5776 42.5853 29.5822 42.6132 29.6195L42.6179 29.6242C42.893 29.9366 43.1121 30.2863 43.2613 30.6686ZM42.7438 27.3814C42.837 28.3046 42.1657 29.1299 41.2426 29.2232C40.3194 29.3165 39.4942 28.645 39.401 27.7218C39.3077 26.7986 39.9791 25.9733 40.9022 25.88C41.0141 25.8707 41.1307 25.8707 41.2426 25.88C42.0351 25.964 42.6645 26.5888 42.7438 27.3814ZM46.0912 46.1441C46.0912 48.9278 43.8394 51.1845 41.0561 51.1845C38.2727 51.1845 36.0162 48.9324 36.0162 46.1488C36.0162 43.3652 38.2681 41.1131 41.0467 41.1084C43.8301 41.1084 46.0912 43.3652 46.0912 46.1441Z" fill="white"/>
<path d="M41.056 51.3014C38.2121 51.3014 35.8997 48.9887 35.8997 46.1491C35.8997 43.3095 38.2074 40.9969 41.0467 40.9922C43.8907 40.9922 46.2078 43.3049 46.2078 46.1445C46.2078 48.9887 43.8953 51.3014 41.056 51.3014ZM41.0467 41.2253C38.338 41.23 36.1328 43.4401 36.1328 46.1491C36.1328 48.8628 38.3426 51.0683 41.056 51.0683C43.7694 51.0683 45.9747 48.8582 45.9747 46.1445C45.9747 43.4308 43.7648 41.2253 41.0467 41.2253Z" fill="#21A0AA"/>
<path d="M43.2612 48.1635C43.2845 48.2381 43.2705 48.3174 43.2192 48.3734C43.1446 48.448 43.0654 48.5132 42.9815 48.5738C41.8719 49.4364 40.3193 49.4364 39.2097 48.5738C39.1212 48.5039 39.0419 48.434 38.9626 48.364C38.9114 48.3127 38.8927 48.2335 38.9114 48.1635C39.0512 47.7859 39.2657 47.4361 39.5361 47.1377C39.5687 47.1051 39.62 47.1004 39.6573 47.1284C40.0723 47.4082 40.5618 47.5574 41.0606 47.5574C41.5781 47.5574 42.077 47.3988 42.4966 47.1004C42.5339 47.0725 42.5852 47.0771 42.6131 47.1144L42.6178 47.1191C42.8929 47.4268 43.112 47.7812 43.2612 48.1635ZM42.7437 44.8717C42.8369 45.7949 42.1656 46.6155 41.2425 46.7134C40.3193 46.8067 39.4988 46.1353 39.4009 45.212C39.303 44.2888 39.979 43.4682 40.9021 43.3703C41.014 43.3609 41.1306 43.3609 41.2425 43.3703C42.035 43.4542 42.6644 44.079 42.7437 44.8717Z" fill="#21A0AA"/>
<path d="M21.1998 46.1431C21.1998 48.9268 18.9479 51.1835 16.1646 51.1835C13.3813 51.1835 11.1248 48.9314 11.1248 46.1478C11.1248 43.3642 13.3766 41.1074 16.1599 41.1074C18.9386 41.1074 21.1998 43.3642 21.1998 46.1431Z" fill="white"/>
<path d="M16.1646 51.3014C13.3206 51.3014 11.0082 48.9887 11.0082 46.1491C11.0082 43.3049 13.3206 40.9922 16.1599 40.9922C19.0038 40.9922 21.3163 43.3049 21.3163 46.1445C21.3163 48.9887 19.0038 51.3014 16.1646 51.3014ZM16.1599 41.2253C13.4465 41.2253 11.2413 43.4354 11.2413 46.1491C11.2413 48.8628 13.4512 51.0683 16.1646 51.0683C18.878 51.0683 21.0832 48.8582 21.0832 46.1445C21.0832 43.4308 18.8733 41.2253 16.1599 41.2253Z" fill="#21A0AA"/>
<path d="M18.3698 48.1635C18.3931 48.2381 18.3792 48.3174 18.3279 48.3734C18.2533 48.448 18.174 48.5132 18.0901 48.5738C16.9805 49.4364 15.428 49.4364 14.3184 48.5738C14.2298 48.5039 14.1505 48.434 14.0713 48.364C14.02 48.3127 14.0014 48.2335 14.02 48.1635C14.1599 47.7859 14.3697 47.4361 14.6447 47.1377C14.6774 47.1051 14.7287 47.1004 14.766 47.1284C15.1809 47.4082 15.6704 47.5574 16.1693 47.5574C16.6868 47.5574 17.1856 47.3988 17.6052 47.1004C17.6425 47.0725 17.6938 47.0771 17.7218 47.1144L17.7265 47.1191C18.0015 47.4268 18.216 47.7812 18.3698 48.1635ZM17.8523 44.8717C17.9456 45.7949 17.2742 46.6155 16.3511 46.7134C15.428 46.8113 14.6074 46.1353 14.5095 45.212C14.4163 44.2888 15.0877 43.4682 16.0108 43.3703C16.1227 43.3609 16.2392 43.3609 16.3511 43.3703C17.1437 43.4542 17.7684 44.079 17.8523 44.8717Z" fill="#21A0AA"/>
</g>
<g clip-path="url(#clip1_532_5799)">
<path d="M63.4574 55.3037C65.4252 53.0499 69.3841 49.1218 75.6356 46.6082C77.2322 45.9636 85.5722 42.759 91.0812 44.6094C100.122 47.6378 105.617 65.6224 100.888 88.4627C85.563 87.7532 70.2427 87.0482 54.9177 86.3387C57.7627 75.9922 60.6077 65.6456 63.4574 55.3037Z" fill="#66B0F0"/>
<path d="M81.8455 51.7105C81.4046 54.0664 80.5553 58.6715 78.6571 58.9359C78.0398 59.024 77.3529 58.6855 76.6568 58.013C76.5686 57.9295 76.4851 57.8414 76.3969 57.7487C75.3062 56.5614 74.2202 54.5719 73.3848 52.1186C73.7189 50.2496 74.4894 47.4949 76.4108 44.7262C77.1209 43.7013 77.8727 42.8526 78.5782 42.1523C79.7199 42.8897 80.8616 43.6317 82.0033 44.3691C82.059 44.4062 82.1194 44.4433 82.175 44.4804C82.189 44.6196 82.1983 44.768 82.2122 44.921C82.3328 46.5674 82.3607 48.9418 81.8455 51.7105ZM71.9553 53.2223C71.8068 53.5284 68.6926 59.7938 66.1122 59.2234C66.1029 59.2188 66.089 59.2188 66.075 59.2141C65.7362 59.1307 65.2396 58.8802 64.6409 57.9156C62.506 54.5023 63.8009 49.7627 64.4924 47.7499C64.562 47.5413 64.627 47.365 64.6827 47.2166L64.8776 47.0497L64.8823 47.045C65.6341 46.3958 66.386 45.7465 67.1332 45.0926C68.21 46.9105 69.2867 48.7239 70.3681 50.5418C70.4516 50.6809 70.5305 50.8154 70.6141 50.9545C71.0596 51.7105 71.5051 52.4664 71.9553 53.2223Z" fill="#66B0F0"/>
<path d="M113.809 75.7339C113.809 75.8545 113.804 75.9751 113.8 76.0956V76.1188C113.716 79.0452 113.127 82.4724 111.043 84.3692C110.811 84.5825 110.555 84.7773 110.282 84.9489C105.269 88.0978 94.8592 82.8202 90.6729 75.1125C90.4966 74.7878 90.3295 74.4586 90.1763 74.1293C90.1346 74.0365 90.0928 73.9484 90.0556 73.8557L89.9303 73.5635C89.8793 73.4429 89.8329 73.327 89.7911 73.211C89.7633 73.1461 89.7401 73.0766 89.7169 73.0116C89.6751 72.8957 89.6333 72.7797 89.5962 72.6638C89.0532 71.0406 88.9186 69.5844 88.6262 67.5532C87.9996 63.1938 86.8115 57.3272 84.3424 50.2224C84.2728 50.0183 84.1986 49.8143 84.129 49.6102C83.572 48.0427 82.9548 46.4149 82.2725 44.7314C82.24 44.648 82.2075 44.5691 82.1704 44.4856C82.24 44.4532 82.3096 44.4253 82.3746 44.3975C85.447 43.0804 88.1064 42.5239 90.297 42.3709C91.7218 42.2689 92.9517 42.3384 93.9635 42.4775C95.0959 42.6306 95.9638 42.8717 96.5486 43.0572C110.166 47.4166 113.252 69.2598 113.507 71.0685C113.554 71.3885 113.581 71.6714 113.586 71.6899C113.693 72.5525 113.832 74.0365 113.809 75.7339Z" fill="#66B0F0"/>
<path d="M116.412 81.3951C116.18 83.7417 115.35 85.5365 114.737 86.6217C113.563 85.875 112.333 85.1191 111.043 84.3678C109.084 83.227 106.991 82.0861 104.768 80.9731C99.7369 78.4595 94.9752 76.5581 90.6729 75.1111C90.464 75.0416 90.2598 74.972 90.0556 74.9071V72.5929C90.9885 72.412 91.8888 72.2729 92.7521 72.1709C96.1679 71.7581 98.999 71.8926 101.05 72.1245C104.81 72.5465 109.144 73.6456 112.259 75.2131C112.816 75.4914 113.331 75.7882 113.8 76.0943C113.827 76.1128 113.855 76.1314 113.878 76.1453C115.317 77.1099 116.278 78.2044 116.454 79.3916C116.547 80.0455 116.459 80.9452 116.412 81.3951ZM66.1075 56.8992V57.4557C66.1028 58.0493 66.0936 58.6337 66.0796 59.2134C65.6944 73.8358 61.6335 84.4884 54.6347 87.0252C51.4184 88.1892 47.1393 87.8043 44.3407 85.6153C38.1123 80.7505 40.6789 68.113 44.0529 61.0777C45.1993 58.6893 49.4784 49.7573 58.6817 47.4802C60.9094 46.9283 62.9283 46.8912 64.5156 47.0164C64.6409 47.0257 64.7569 47.035 64.8776 47.0489H64.8822C65.1421 47.0721 65.3928 47.1045 65.6248 47.1324C65.945 50.5271 66.1075 53.792 66.1075 56.8992Z" fill="#66B0F0"/>
<path d="M113.878 76.148C113.851 76.1387 113.823 76.1295 113.8 76.1202C111.498 75.2993 109.135 74.6454 106.754 74.1678C101.278 73.064 95.676 72.8553 90.0557 73.5509L89.9304 73.5649C88.8304 73.704 87.7351 73.8756 86.6352 74.0843C86.5423 74.1028 86.4495 74.0472 86.4263 73.9544C86.3985 73.8617 86.4495 73.7643 86.5377 73.7318C87.5448 73.3423 88.5659 72.9852 89.5962 72.6652C91.1556 72.1782 92.7382 71.7655 94.3301 71.4362C98.6232 70.5458 103.041 70.2304 107.455 70.4948C107.557 70.4994 107.632 70.5875 107.627 70.6895C107.622 70.7916 107.534 70.8658 107.432 70.8611C103.051 70.5968 98.6696 70.9121 94.4044 71.7979C93.8521 71.9139 93.2998 72.0391 92.7522 72.1689C91.8471 72.3869 90.9514 72.6373 90.0557 72.9063C89.9443 72.9388 89.8283 72.9759 89.7169 73.0083C89.3363 73.1243 88.9604 73.2495 88.5844 73.3747C88.9882 73.3144 89.3873 73.2588 89.7911 73.2078C89.8793 73.1985 89.9675 73.1846 90.0557 73.1753C95.6993 72.4797 101.324 72.6884 106.824 73.8014C108.653 74.1724 110.467 74.6408 112.259 75.2112C112.779 75.3735 113.294 75.5498 113.809 75.7306C113.809 75.8512 113.804 75.9718 113.8 76.0924C113.827 76.1109 113.851 76.1295 113.878 76.148Z" fill="#B0DCF7"/>
<path d="M93.9682 42.4725C91.6522 42.2638 89.7215 42.6812 88.2225 43.7154C87.828 43.9844 87.2246 44.4574 86.5099 45.4313C85.4935 46.8087 84.7973 48.4411 84.3471 50.222C82.3654 58.0874 85.2197 68.907 86.7837 73.8507C86.7976 73.9017 86.793 73.9527 86.7652 73.9991C86.7373 74.0454 86.6955 74.0733 86.6445 74.0872L86.6259 74.0918C86.2036 74.1799 85.8416 74.4257 85.6049 74.7875C85.3682 75.1492 85.2939 75.5805 85.3867 76.0025L86.0922 79.1329C86.1154 79.2303 86.0504 79.3323 85.953 79.3509C85.939 79.3555 85.9251 79.3555 85.9112 79.3555C85.8277 79.3555 85.7534 79.2999 85.7302 79.2117L85.0247 76.0814C84.9087 75.5619 85.0015 75.0333 85.2893 74.5834C85.5445 74.1892 85.9251 73.9063 86.366 73.7718C84.983 69.3522 84.0176 64.9603 83.5767 61.0555C83.2193 57.888 83.2008 55.0219 83.5257 52.5501C83.6649 51.502 83.8645 50.5188 84.1244 49.6052C84.607 47.9032 85.3078 46.4284 86.2082 45.2087C86.9554 44.1931 87.5959 43.6969 88.009 43.4093C88.6912 42.9409 89.4524 42.5885 90.297 42.3659C91.7265 42.2685 92.9517 42.338 93.9682 42.4725Z" fill="#B0DCF7"/>
<path d="M70.5676 50.8711C71.4541 52.9116 72.3405 54.9522 73.2223 56.9974C72.981 57.2014 72.0063 57.962 70.5676 57.9342C69.0221 57.9064 68.0428 56.9974 67.8293 56.7887C68.1171 56.2786 68.4048 55.7499 68.688 55.198C69.4584 53.6908 70.071 52.2392 70.5676 50.8711Z" fill="#F84F46"/>
<path d="M68.855 57.3236C67.6715 59.7584 66.5205 62.5363 65.5459 65.6528C62.8819 74.186 62.5988 81.8613 62.933 87.4542C66.9939 87.06 71.0503 86.6658 75.1112 86.2716C73.6632 81.6479 72.2941 75.786 71.7604 68.9177C71.4123 64.4331 71.4865 60.3613 71.7604 56.832C70.7857 56.999 69.8204 57.1613 68.855 57.3236Z" fill="#F84F46"/>
<path d="M70.4656 58.2002C70.2382 58.2002 70.0061 58.1817 69.7787 58.1353C68.5117 57.8988 67.7087 57.0687 67.3375 56.5956C67.2771 56.5168 67.2911 56.4008 67.37 56.3359C67.4489 56.271 67.5649 56.2895 67.6299 56.3684C67.964 56.7997 68.702 57.5556 69.8483 57.7689C71.2963 58.0379 72.8418 57.333 73.7886 55.9649C73.8443 55.8814 73.9603 55.8629 74.0439 55.9185C74.1274 55.9742 74.146 56.0901 74.0903 56.1736C73.2085 57.4582 71.8393 58.2002 70.4656 58.2002Z" fill="#66B0F0"/>
<path d="M71.0503 49.6842C70.9018 50.1248 70.7532 50.5468 70.6094 50.9549C69.9875 52.7033 69.4073 54.1224 68.8875 55.1798C68.0382 56.8911 67.3328 57.698 66.6784 57.698C66.6412 57.698 66.5995 57.6934 66.5623 57.6887C66.3767 57.6609 66.2328 57.5682 66.1075 57.4569C66.0564 57.4105 66.0054 57.3548 65.959 57.3038C64.5342 55.6853 64.4181 50.7462 64.4924 47.7503C64.497 47.4906 64.5063 47.2448 64.5156 47.0176C64.6409 47.0269 64.7569 47.0361 64.8776 47.05L64.8823 47.0454V47.05C64.7337 51.0059 64.9844 55.3421 66.1075 56.9003C66.1493 56.956 66.191 57.0116 66.2328 57.058C66.3581 57.2018 66.4741 57.3038 66.6134 57.3224C66.6319 57.327 66.6505 57.327 66.6737 57.327C67.1982 57.327 68.3306 56.3531 70.368 50.5422C70.4794 50.2314 70.5908 49.9068 70.7022 49.5683C70.7347 49.4709 70.8368 49.4199 70.9343 49.4523C71.0317 49.4848 71.0828 49.5915 71.0503 49.6842Z" fill="#B0DCF7"/>
<path d="M82.3746 44.3923C82.3375 44.5036 82.305 44.6149 82.2679 44.7262C82.2493 44.7912 82.2261 44.8561 82.2029 44.921C81.0194 48.594 79.6271 52.1464 78.0677 55.4994C77.5479 56.6171 77.1209 57.475 76.6568 58.0084C76.3365 58.3747 75.9977 58.5881 75.5893 58.6252C75.5476 58.6298 75.5058 58.6298 75.4687 58.6298C73.8489 58.6298 72.0574 55.7128 70.0061 49.721C69.9736 49.6236 70.0246 49.5215 70.1221 49.4891C70.2196 49.4566 70.3217 49.5076 70.3541 49.605C72.8603 56.9232 74.5683 58.3516 75.5568 58.2588C75.8585 58.231 76.1323 58.0501 76.3969 57.744C76.8285 57.2432 77.2416 56.4084 77.7335 55.3464C79.3533 51.8728 80.7874 48.1859 81.9941 44.3691C82.0497 44.4062 82.1101 44.4433 82.1658 44.4804C82.24 44.4526 82.3096 44.4248 82.3746 44.3923ZM53.8364 87.2115C53.7436 87.2115 53.6647 87.1419 53.6554 87.0491C52.6994 79.1095 53.2934 71.3925 55.4191 64.1115C55.8553 62.6089 56.3659 61.1063 56.9367 59.6455C56.9738 59.5527 57.0806 59.5017 57.1734 59.5388C57.2662 59.5759 57.3173 59.6826 57.2801 59.7753C56.7139 61.2269 56.2081 62.7202 55.7718 64.2089C53.6601 71.4436 53.0707 79.1095 54.0221 87.0028C54.036 87.1048 53.9618 87.1929 53.8597 87.2068C53.8504 87.2115 53.8457 87.2115 53.8364 87.2115Z" fill="#B0DCF7"/>
<path d="M114.737 86.6237C115.173 85.4597 109.623 82.1159 105.664 80.4186C102.341 78.9948 96.53 77.1861 88.176 77.9282C91.5687 79.5977 106.875 87.0318 112.978 87.0735C113.498 87.0735 114.565 87.0828 114.737 86.6237Z" fill="#5B2448"/>
<path d="M71.3817 86.0625H47.3478L48.2363 88.0189H71.3817C71.9247 88.0189 72.3628 87.5821 72.3628 87.0407C72.3628 86.4993 71.9247 86.0625 71.3817 86.0625H71.3817Z" fill="#9B3C82"/>
<path d="M47.4342 86.0625L48.3289 88.025H48.8225L47.9278 86.0625H47.4342Z" fill="#FCB6B1"/>
<path d="M48.3289 88.0259H18.6428L6.65982 61.5163C6.45003 61.0549 6.65982 60.5135 7.11643 60.3104C7.23367 60.2551 7.36325 60.2305 7.49283 60.2305H34.5009C35.2722 60.2305 35.9695 60.6796 36.2841 61.3809L48.3289 88.0259Z" fill="#F94F46"/>
<path d="M49.9518 86.6484C49.7268 86.6484 49.5445 86.8302 49.5445 87.0545C49.5445 87.2787 49.7268 87.4605 49.9518 87.4605C50.1767 87.4605 50.359 87.2787 50.359 87.0545C50.359 86.8302 50.1767 86.6484 49.9518 86.6484Z" fill="#F94F46"/>
<path d="M51.3771 87.3858C51.1797 87.3858 51.0192 87.2259 51.0192 87.029C51.0192 86.8321 51.1797 86.6722 51.3771 86.6722L53.4689 86.666C53.6664 86.666 53.8268 86.826 53.8268 87.0228C53.8268 87.2197 53.6664 87.3797 53.4689 87.3797L51.3771 87.3858Z" fill="#F94F46"/>
<path d="M26.0905 76.7677C25.2205 76.7677 24.4801 76.1402 24.332 75.2851C24.1962 74.4853 24.7331 73.7285 25.5352 73.587C26.2016 73.4763 26.831 73.9193 26.9483 74.5837C27.0408 75.1374 26.6706 75.6665 26.1091 75.7649C25.8623 75.808 25.6093 75.7403 25.4118 75.5803C25.3193 75.5004 25.3008 75.3589 25.381 75.2666C25.4612 75.1743 25.6031 75.1559 25.6956 75.2358C25.7882 75.3096 25.9116 75.3466 26.0289 75.3281C26.3435 75.2727 26.5534 74.9774 26.4978 74.6637C26.4238 74.2454 26.0227 73.9623 25.6031 74.03C25.0478 74.1223 24.6714 74.6514 24.7639 75.2112C24.8874 75.9372 25.5784 76.4232 26.3065 76.3001C27.2445 76.1402 27.88 75.2481 27.7196 74.313C27.516 73.1072 26.5225 72.4181 25.3069 72.6212C24.5727 72.7442 23.968 73.1256 23.6101 73.6793C23.2398 74.2638 23.1473 75.0082 23.3632 75.7834C23.3941 75.9002 23.3262 76.0233 23.2028 76.0602C23.0794 76.0972 22.9622 76.0233 22.9251 75.9064C22.6783 75.0082 22.7832 74.1346 23.2275 73.4455C23.6533 72.7811 24.3628 72.3321 25.2267 72.1843C26.6768 71.9383 27.9109 72.7996 28.1577 74.2392C28.3613 75.4204 27.5653 76.5401 26.3806 76.7431C26.2942 76.7616 26.1893 76.7677 26.0905 76.7677Z" fill="#FCB6B1"/>
<path d="M111.224 84.7454C110.75 86.4659 109.813 88.743 107.789 90.4636C104.643 93.1348 101.394 92.2954 93.077 92.6293C83.6649 93.005 78.5921 93.209 72.9717 95.936C69.3378 97.7029 66.0286 100.254 65.4114 99.5718C65.0215 99.1359 65.9498 97.6519 66.8455 96.4136C66.8687 96.3765 66.8965 96.3441 66.9197 96.307C66.335 96.7986 65.7966 97.2391 65.3046 97.6287C63.0444 99.4142 61.731 100.147 61.3643 99.8176C60.9838 99.4791 61.615 98.0136 63.2533 95.4165C63.2625 95.4026 63.2718 95.3841 63.2811 95.3702C62.8634 95.7134 62.4643 96.038 62.0837 96.3394C58.9649 98.8391 57.2105 99.9011 56.8207 99.5347C56.4355 99.1684 57.4055 97.3875 59.7214 94.1876C59.6982 94.2015 59.675 94.22 59.6518 94.2339C59.3176 94.4612 58.9649 94.6977 58.6122 94.925C56.9878 95.9823 55.3402 96.9006 54.9782 96.511C54.6254 96.1354 55.6372 94.6699 55.9992 94.1412C61.5825 86.0439 73.9371 81.6892 73.9371 81.6892C81.53 79.0133 89.3827 76.2446 99.0687 78.7489C104.671 80.1866 108.759 82.844 111.224 84.7454Z" fill="#F4ADA2"/>
<path d="M111.632 83.6002C111.456 84.1706 111.279 84.7457 111.103 85.3161C108.55 83.0947 104.787 80.4512 99.7417 78.9858C95.3373 77.7058 91.629 77.7614 91.694 77.7614C94.4276 77.6733 98.5582 77.8774 103.26 79.4356C106.861 80.6321 109.669 82.2506 111.632 83.6002ZM63.7081 90.4639C62.9609 91.0157 62.2369 91.614 61.5593 92.2447C60.891 92.8661 60.2598 93.5247 59.6657 94.2203C59.3315 94.4476 58.9788 94.6841 58.6261 94.9113C59.4429 93.8586 60.3387 92.8754 61.304 91.9757C61.9909 91.3357 62.7242 90.7236 63.4853 90.167C63.5689 90.1068 63.6803 90.1253 63.7406 90.2041C63.8056 90.2876 63.7917 90.4036 63.7081 90.4639ZM66.8037 92.2679C65.9823 92.8012 65.2072 93.4134 64.5017 94.0858C64.0655 94.5032 63.6478 94.9438 63.2626 95.4076C63.2718 95.3936 63.2811 95.3751 63.2904 95.3612C62.8727 95.7044 62.4736 96.029 62.093 96.3304C62.7242 95.4215 63.4436 94.5774 64.2418 93.8169C64.9659 93.1305 65.7548 92.5044 66.5995 91.9572C66.6831 91.9015 66.7991 91.9247 66.8548 92.0128C66.9151 92.1009 66.8919 92.2122 66.8037 92.2679ZM69.9179 93.7334C69.4909 94.0395 69.0686 94.3687 68.6602 94.7073C68.029 95.236 67.4256 95.8018 66.8548 96.4046C66.878 96.3675 66.9058 96.3351 66.929 96.298C66.3443 96.7896 65.8059 97.2301 65.3139 97.6197C66.2468 96.4464 67.291 95.3705 68.4281 94.4197C68.8412 94.0766 69.2682 93.7427 69.7044 93.4319C69.788 93.3716 69.904 93.3902 69.9597 93.4737C70.02 93.5571 70.0015 93.6731 69.9179 93.7334Z" fill="#9A3C81"/>
<path d="M20.2981 83.2437C20.58 83.4893 20.7891 84.3723 19.2302 84.9367C18.2521 85.2711 17.2116 85.3607 16.1931 85.1968C14.6091 84.9343 14.3025 83.1538 14.833 83.0016C16.9226 82.4189 19.5508 82.6102 20.2981 83.2437Z" fill="#9B3C82"/>
<path d="M20.197 83.7067C20.2681 84.3037 18.5604 85.1966 16.4102 85.1418C14.509 85.0909 13.6669 83.129 15.4037 83.0812C17.4736 83.0289 20.0871 82.8407 20.197 83.7067Z" fill="#F4ADA2"/>
<path d="M19.727 81.6536C19.929 82.0599 20.0437 83.1258 16.6188 83.5361C15.9043 83.6321 15.1833 83.6531 14.4628 83.5878L13.6229 81.281C13.8912 80.9746 13.898 80.6957 14.4423 80.6076C16.5718 80.2554 19.2801 80.7739 19.727 81.6536H19.727Z" fill="#9B3C82"/>
<path d="M19.4556 81.9907C19.4887 82.3662 18.4206 83.3036 14.7121 83.239C12.661 83.2012 11.9557 80.5881 14.0011 80.7323C16.4442 80.906 19.3761 80.9555 19.4556 81.9907Z" fill="#F4ADA2"/>
<path d="M19.1697 79.5078C19.3209 79.9441 19.1264 80.9042 15.4933 81.101C14.6829 81.1507 13.8712 81.105 13.0743 80.9509L12.7179 78.4063C13.0214 78.1307 13.495 77.8472 14.0531 77.823C16.2103 77.7327 18.8375 78.5843 19.1697 79.5078Z" fill="#9B3C82"/>
<path d="M18.8058 79.9005C18.6874 80.1937 17.5944 80.926 13.992 80.7334C10.8441 80.5676 10.5177 77.4522 12.8775 77.682C15.3252 77.9216 19.1906 78.9377 18.8058 79.9005Z" fill="#F4ADA2"/>
<path d="M17.8323 77.7279C17.8486 78.2027 17.333 78.8683 13.7019 78.5863C12.7799 78.5164 11.9035 78.3029 11.5492 78.1207L11.7958 75.0065C12.1575 74.8237 12.6032 74.6323 13.2332 74.7648C15.661 75.267 17.8031 76.7488 17.8323 77.7279Z" fill="#9B3C82"/>
<path d="M17.3931 77.8614C17.1778 78.2807 15.9531 78.5342 12.7743 78.1359C9.58637 77.7396 10.6273 74.2348 13.0757 75.01C15.4099 75.7427 17.7866 77.1168 17.3931 77.8614Z" fill="#F4ADA2"/>
<path d="M78.0769 22.2672C77.4782 23.422 76.4943 25.7501 76.7078 27.837C76.7264 28.004 76.7496 28.1709 76.7821 28.3379C74.8746 29.0753 71.1385 33.4346 71.1385 33.4346C71.1385 33.4346 71.0689 33.3651 70.9436 33.2352C70.5723 32.8549 69.6951 31.9738 68.5766 30.9071C68.2007 30.5454 67.7922 30.1651 67.3699 29.7709C67.059 29.4834 66.7341 29.1866 66.4092 28.8944C65.1839 27.7953 63.8844 26.7008 62.7334 25.8707C61.912 25.2817 61.1694 24.8318 60.5753 24.6139C60.5707 24.6092 60.5614 24.6092 60.5568 24.6092C60.5521 24.6092 60.5475 24.6046 60.5382 24.6046C56.6536 23.1716 57.3265 17.778 60.0926 16.6372C61.3179 16.127 62.7102 16.2012 63.8519 16.8783C65.3742 12.7972 70.8461 13.836 71.417 17.0406C75.399 14.3462 79.8359 18.8771 78.0769 22.2672Z" fill="#5B2448"/>
<path d="M76.0673 35.7114C76.072 35.7346 76.0812 35.7531 76.0859 35.7763C76.1184 35.9015 76.1555 36.0267 76.1926 36.152C76.4572 37.0656 76.7867 38.0441 77.1905 39.0737C77.636 40.2006 78.1048 41.2209 78.5735 42.1345C76.7681 47.2405 73.8535 50.8161 70.9389 50.8764C70.5676 50.8857 69.3284 50.9089 68.4049 50.1019C68.4049 50.1019 66.7944 48.6874 67.1378 45.0794C67.1378 45.0747 67.1378 45.0562 67.1425 45.033C67.1564 44.9032 67.1889 44.5368 67.2214 44.0591C67.226 43.9803 67.2307 43.8968 67.2353 43.8179C67.3003 42.6771 67.3049 41.5873 67.2631 40.5623V40.5484C64.3532 41.9258 61.0533 41.898 59.1319 40.1821C58.8349 39.9177 57.489 38.6887 57.6236 37.0331C57.8371 34.4036 59.7817 33.0216 60.1762 29.9283C60.3293 28.7921 60.4314 27.6466 60.4871 26.4964C60.5196 25.875 60.5335 25.2489 60.5382 24.6228C60.5521 24.6228 60.566 24.6182 60.5753 24.6182C60.928 24.5811 61.3086 24.5533 61.7077 24.5347C63.1929 24.4652 64.9101 24.5533 66.3767 25.0217C66.748 25.1423 67.1053 25.286 67.4349 25.4576C67.7597 25.6292 68.0614 25.824 68.3306 26.0512C69.1799 26.7701 70.317 28.0686 71.0689 29.5526C71.9089 31.2222 72.2755 32.0013 73.5518 30.6193C74.7585 29.3115 75.4036 28.37 76.7078 27.8367C76.8795 27.7671 77.0652 27.7022 77.2647 27.6466C79.0098 27.1503 80.8013 28.5277 81.0983 30.2065C81.6274 33.1561 78.244 35.4239 76.0673 35.7114Z" fill="#F4ADA2"/>
<path d="M68.6509 27.6878L68.6463 27.5023C68.6416 27.4466 68.637 27.391 68.6323 27.3399C68.6184 27.2333 68.5952 27.1266 68.5627 27.0246C68.507 26.8159 68.4189 26.6165 68.3168 26.4263C68.0986 26.0275 67.783 25.6889 67.4071 25.4339C67.2075 25.2994 66.994 25.1927 66.7666 25.1139C66.5346 25.035 66.2932 24.9933 66.0519 24.9887C65.8152 24.984 65.5785 25.0211 65.3557 25.0953C65.1376 25.1649 64.9241 25.2808 64.7524 25.4292C64.5343 25.6287 64.511 25.9672 64.7106 26.1944C64.7477 26.2362 64.7942 26.2733 64.8406 26.3011L64.9287 26.3521C65.1005 26.4495 65.249 26.5144 65.3789 26.584C65.5089 26.6489 65.6249 26.7139 65.7317 26.7695C65.9451 26.8855 66.1308 26.9828 66.335 27.1034C66.5392 27.2194 66.7527 27.3585 66.9894 27.5208L67.3653 27.7759C67.4303 27.8223 67.4953 27.8686 67.5695 27.9104C67.7273 28.0263 67.9083 28.0959 68.1033 28.1144C68.2007 28.1237 68.3075 28.1098 68.4003 28.0727C68.5256 28.017 68.6138 27.9057 68.6416 27.7666C68.6463 27.7434 68.6509 27.711 68.6509 27.6878ZM67.7366 29.2135C67.2261 29.1022 66.0008 28.875 64.8638 28.2953C64.706 28.2165 64.511 28.2814 64.4275 28.4344V28.4391C64.2233 28.8518 64.0005 29.5753 64.8313 29.8674C65.843 30.2292 67.4814 29.9092 67.8387 29.4686C67.8944 29.3944 67.8805 29.2924 67.8062 29.2367C67.783 29.2321 67.7645 29.2228 67.7366 29.2135ZM60.775 28.1933C61.2948 28.2628 61.6707 28.2211 62.6175 28.1098C62.7938 28.0866 62.9563 28.2072 62.9795 28.388C63.0352 28.8425 62.8124 29.3109 62.0791 29.3898C61.2576 29.4779 60.7471 28.8704 60.5986 28.4159C60.5707 28.3278 60.6218 28.2304 60.7053 28.2072C60.7285 28.1933 60.7517 28.1933 60.775 28.1933Z" fill="#5B2448"/>
<path d="M76.1926 36.1528C75.6264 36.1992 75.0602 36.1482 74.5033 35.9998C74.4058 35.972 74.3408 35.87 74.3687 35.7679C74.3965 35.6705 74.4986 35.6056 74.6007 35.6334C75.153 35.7772 75.6589 35.8004 76.0859 35.7772C76.1184 35.9024 76.1555 36.0276 76.1926 36.1528Z" fill="#9A3C81"/>
<path d="M62.7335 25.875C62.7149 25.8935 62.6917 25.9121 62.6685 25.926C62.6267 25.9538 62.5803 25.9724 62.5293 25.9909L62.4411 26.0141C62.2694 26.0605 62.1255 26.079 61.9955 26.1069C61.8656 26.1254 61.7496 26.1579 61.6428 26.1857C61.4293 26.2367 61.2437 26.2785 61.0395 26.3341C60.8678 26.3759 60.6914 26.4361 60.4918 26.4964C60.5243 25.875 60.5382 25.2489 60.5429 24.6228C60.5568 24.6228 60.5707 24.6182 60.58 24.6182C60.5754 24.6136 60.5661 24.6136 60.5614 24.6136C60.5568 24.6136 60.5522 24.6089 60.5429 24.6089C60.7378 24.5486 60.9374 24.5115 61.1416 24.493C61.3319 24.4837 61.5222 24.4976 61.7078 24.5394C61.7356 24.544 61.7635 24.5533 61.7913 24.5579C62.0002 24.6089 62.1951 24.7017 62.3715 24.813C62.5478 24.9289 62.6963 25.0773 62.8124 25.2536C62.9423 25.453 62.9006 25.7173 62.7335 25.875ZM67.2354 43.8133C67.3003 42.6724 67.305 41.5826 67.2632 40.5577C68.1357 40.1728 69.5002 39.4679 70.3356 38.5403C70.8693 38.8325 71.12 42.3153 67.2354 43.8133Z" fill="#5B2448"/>
<path opacity="0.52" d="M68.7854 35.2114C69.9799 35.2114 70.9482 34.2459 70.9482 33.0549C70.9482 31.8639 69.9799 30.8984 68.7854 30.8984C67.591 30.8984 66.6227 31.8639 66.6227 33.0549C66.6227 34.2459 67.591 35.2114 68.7854 35.2114Z" fill="#E47280"/>
<path d="M61.9306 34.004C62.1765 34.1664 62.4597 34.2591 62.7613 34.2638C63.0537 34.2777 63.3508 34.2267 63.6153 34.1107C63.8798 33.9855 64.1026 33.7954 64.2743 33.5588C64.4461 33.3177 64.5528 33.0348 64.5714 32.7426V32.738C64.576 32.6452 64.6595 32.5757 64.757 32.5803C64.8359 32.5849 64.9009 32.6452 64.9148 32.7194C64.9705 33.0997 64.8916 33.4939 64.6874 33.8232C64.5899 33.9901 64.4693 34.1385 64.3207 34.2684C63.8845 34.6626 63.2904 34.8342 62.7149 34.7461C62.5246 34.7182 62.3436 34.6672 62.1673 34.5884C61.9909 34.5096 61.8331 34.389 61.6985 34.2406C61.6335 34.1664 61.6475 34.0643 61.7217 33.9994C61.7774 33.9484 61.8702 33.9484 61.9306 33.9901V34.004ZM75.0696 33.0394C74.9628 33.0626 74.8653 32.9977 74.8421 32.891C74.8375 32.8586 74.8375 32.8215 74.8468 32.7936C75.8446 29.6122 78.6107 29.807 78.6386 29.807C78.7453 29.8163 78.8242 29.9044 78.8103 30.0111C78.7964 30.1177 78.7128 30.1873 78.6061 30.1827C78.5086 30.178 76.1092 30.0203 75.2088 32.9049C75.1902 32.9791 75.1392 33.0255 75.0696 33.0394Z" fill="#9A3C81"/>
<path d="M62.2555 31.8899C62.2137 31.8992 62.1719 31.8899 62.1348 31.8667C61.6243 31.5142 61.3829 31.2267 61.3551 30.9253C61.3133 30.545 61.6243 30.225 61.9724 29.8493C62.766 29.0146 62.6082 28.4534 62.6082 28.4488C62.5803 28.3699 62.6314 28.2865 62.7057 28.2586C62.7846 28.2308 62.8681 28.2725 62.8959 28.3514C62.9052 28.3838 63.128 29.0795 62.1951 30.0534C61.8424 30.4198 61.6336 30.6609 61.6568 30.8882C61.68 31.0876 61.8888 31.3241 62.3065 31.6116C62.3761 31.658 62.3901 31.7508 62.3436 31.8203C62.3297 31.8621 62.2926 31.8806 62.2555 31.8899Z" fill="#5B2448"/>
<path d="M65.3649 19.1832C65.3788 19.2806 65.4717 19.3455 65.5645 19.3455C65.5784 19.3455 65.597 19.3455 65.6109 19.3409C65.7269 19.3131 65.7965 19.2064 65.7687 19.0905C65.7641 19.058 65.597 18.367 65.1189 17.6203C64.8126 17.1427 64.446 16.7531 64.0376 16.4609C63.9772 16.5862 63.9215 16.7206 63.8658 16.8551C65.0122 17.7177 65.3603 19.1647 65.3649 19.1832Z" fill="#9A3C81"/>
<path d="M85.3775 93.0095C83.1172 93.1718 81.1401 93.3944 79.2883 93.7654C79.1027 91.7666 78.5133 89.3226 77.8635 87.4212C77.5804 86.5957 77.2926 85.8722 77.0188 85.3342C77.0003 85.2971 76.9817 85.2647 76.9631 85.2322C76.9538 85.2136 76.9492 85.1905 76.9446 85.1673C76.8378 84.8055 76.7264 84.4438 76.6104 84.0867C76.5965 84.0496 76.5872 84.0079 76.5733 83.9708C76.2716 83.0479 75.9421 82.1482 75.5894 81.281L76.8239 80.7801H76.8285L77.1348 80.6549L77.4736 80.5157L78.7407 80.001L81.0659 79.0549L81.4696 78.8926C81.4836 78.9297 81.5021 78.9668 81.516 79.0039C81.5393 79.0595 81.5625 79.1152 81.581 79.1708C81.6692 79.3888 81.7527 79.6068 81.8363 79.8247C81.8502 79.8618 81.8641 79.8943 81.8781 79.9314L81.9337 80.0705C81.943 80.0984 81.957 80.1262 81.9662 80.1586C82.2447 80.9053 82.5092 81.6659 82.7506 82.4357C82.7599 82.4682 82.7692 82.5006 82.7784 82.5285C82.8852 82.8577 82.9826 83.187 83.0801 83.5209C83.0894 83.5534 83.094 83.5858 83.108 83.6137C83.1219 83.6461 83.1404 83.674 83.1544 83.7064C83.5349 84.5134 84.0222 86.0438 84.4399 87.7272C84.8901 89.5545 85.2753 91.5625 85.3775 93.0095Z" fill="#5B2448"/>
<path d="M84.8204 80.0419C85.2892 82.1103 83.1357 84.4941 79.9612 85.2082C76.7867 85.9224 73.7839 84.7074 73.3151 82.639C72.8464 80.5706 75.0416 78.3121 78.2208 77.5933C81.3999 76.8744 84.3517 77.9736 84.8204 80.0419Z" fill="#5B2448"/>
<path d="M80.0401 85.6172C81.3072 85.3297 82.4442 84.7685 83.3214 84.0033C83.275 83.8781 83.2332 83.7529 83.1868 83.623C82.3421 84.3975 81.219 84.968 79.9566 85.2508C78.9727 85.4735 77.9888 85.5013 77.0837 85.3436C77.1348 85.4781 77.1812 85.6126 77.2323 85.7424C77.5664 85.7888 77.9099 85.812 78.2626 85.812C78.8427 85.8213 79.4414 85.7564 80.0401 85.6172Z" fill="white"/>
<path d="M79.652 83.878C82.52 83.2311 84.5215 81.2746 84.1224 79.5082C83.7234 77.7417 81.0749 76.8341 78.207 77.481C75.339 78.1279 73.3375 80.0843 73.7366 81.8508C74.1356 83.6173 76.7841 84.5249 79.652 83.878Z" fill="white"/>
<path d="M79.4276 82.2216C79.3394 82.2216 79.2558 82.166 79.228 82.0732L78.6154 80.13C78.5829 80.0187 78.6432 79.9028 78.75 79.8703L81.7713 78.8918C81.8827 78.8547 81.9987 78.915 82.0359 79.0263C82.073 79.1376 82.0127 79.2535 81.9013 79.2906L79.0748 80.2042L79.6225 81.948C79.655 82.0593 79.5946 82.1752 79.4879 82.2077C79.4693 82.217 79.4508 82.2216 79.4276 82.2216Z" fill="#5B2448"/>
</g>
<defs>
<clipPath id="clip0_532_5799">
<rect width="50.016" height="40.752" fill="white" transform="translate(3.59998 14.2559)"/>
</clipPath>
<clipPath id="clip1_532_5799">
<rect width="109.92" height="85.68" fill="white" transform="translate(6.57605 14.207)"/>
</clipPath>
</defs>
</svg>
