<svg width="34" height="34" viewBox="0 0 34 34" fill="none" xmlns="http://www.w3.org/2000/svg">
<path d="M25.5003 12.0415V29.7498C25.5003 30.5325 24.8664 31.1665 24.0837 31.1665H7.08366C6.30095 31.1665 5.66699 30.5325 5.66699 29.7498V7.08317C5.66699 6.30046 6.30095 5.6665 7.08366 5.6665H19.1253L25.5003 12.0415Z" fill="#93D3A2"/>
<path opacity="0.05" d="M7.08301 5.6665H25.4997V29.7498H9.69038C8.25034 29.7498 7.08301 28.5825 7.08301 27.1425V5.6665Z" fill="#3C4043"/>
<path opacity="0.07" d="M7.79199 5.6665H21.9169C23.8959 5.6665 25.5003 7.27088 25.5003 9.24996V29.0415H9.80295C8.69228 29.0415 7.79199 28.1412 7.79199 27.0305V5.6665Z" fill="#3C4043"/>
<path d="M28.3333 9.91683V26.9168C28.3333 27.6995 27.6994 28.3335 26.9167 28.3335H9.91667C9.13396 28.3335 8.5 27.6995 8.5 26.9168V4.25016C8.5 3.46745 9.13396 2.8335 9.91667 2.8335H21.25L28.3333 9.91683Z" fill="#93D3A2"/>
<path d="M21.25 2.8335V8.50016C21.25 9.28287 21.884 9.91683 22.6667 9.91683H28.3333L21.25 2.8335Z" fill="#135423"/>
<path d="M24.5938 14H12.4062C12.182 14 12 13.888 12 13.75V13.25C12 13.112 12.182 13 12.4062 13H24.5938C24.818 13 25 13.112 25 13.25V13.75C25 13.888 24.818 14 24.5938 14Z" fill="#135423"/>
<path d="M24.5938 17H12.4062C12.182 17 12 16.888 12 16.75V16.25C12 16.112 12.182 16 12.4062 16H24.5938C24.818 16 25 16.112 25 16.25V16.75C25 16.888 24.818 17 24.5938 17Z" fill="#135423"/>
<path d="M24.5938 20H12.4062C12.182 20 12 19.888 12 19.75V19.25C12 19.112 12.182 19 12.4062 19H24.5938C24.818 19 25 19.112 25 19.25V19.75C25 19.888 24.818 20 24.5938 20Z" fill="#135423"/>
<path d="M20.625 23H12.375C12.168 23 12 22.888 12 22.75V22.25C12 22.112 12.168 22 12.375 22H20.625C20.832 22 21 22.112 21 22.25V22.75C21 22.888 20.832 23 20.625 23Z" fill="#135423"/>
</svg>
