<svg width="8" height="8" viewBox="0 0 8 8" fill="none" xmlns="http://www.w3.org/2000/svg">
<path d="M4.34968 0.431086C4.33373 0.255101 4.18522 0.117197 4.00437 0.117197C3.81288 0.117197 3.65765 0.271802 3.65765 0.462517V3.52224L0.464377 3.52081L0.432818 3.52223C0.256117 3.53811 0.117653 3.68602 0.117653 3.86614C0.117653 4.05685 0.272886 4.21146 0.464377 4.21146L3.65765 4.21288V7.53658L3.65906 7.56801C3.67501 7.744 3.82352 7.8819 4.00437 7.8819C4.19586 7.8819 4.35109 7.7273 4.35109 7.53658V4.21288L7.53564 4.21432L7.56719 4.21291C7.7439 4.19703 7.88236 4.04912 7.88236 3.869C7.88236 3.67828 7.72713 3.52368 7.53564 3.52368L4.35109 3.52224L4.35109 0.462517L4.34968 0.431086Z" fill="#202124"/>
</svg>
