<svg width="34" height="34" viewBox="0 0 34 34" fill="none" xmlns="http://www.w3.org/2000/svg">
<path d="M25.5013 12.041V29.7493C25.5013 30.5321 24.8673 31.166 24.0846 31.166H7.08464C6.30193 31.166 5.66797 30.5321 5.66797 29.7493V7.08268C5.66797 6.29997 6.30193 5.66602 7.08464 5.66602H19.1263L25.5013 12.041Z" fill="#93D3A2"/>
<path opacity="0.05" d="M7.08203 5.66602H25.4987V29.7493H9.68941C8.24936 29.7493 7.08203 28.582 7.08203 27.142V5.66602Z" fill="#3C4043"/>
<path opacity="0.07" d="M7.79297 5.66602H21.9178C23.8969 5.66602 25.5013 7.27039 25.5013 9.24947V29.041H9.80393C8.69326 29.041 7.79297 28.1407 7.79297 27.0301V5.66602Z" fill="#3C4043"/>
<path d="M28.3333 9.91732V26.9173C28.3333 27.7 27.6994 28.334 26.9167 28.334H9.91667C9.13396 28.334 8.5 27.7 8.5 26.9173V4.25065C8.5 3.46794 9.13396 2.83398 9.91667 2.83398H21.25L28.3333 9.91732Z" fill="#93D3A2"/>
<path d="M21.25 2.83398V8.50065C21.25 9.28336 21.884 9.91732 22.6667 9.91732H28.3333L21.25 2.83398Z" fill="#135423"/>
<path d="M24.5938 14H12.4062C12.182 14 12 13.888 12 13.75V13.25C12 13.112 12.182 13 12.4062 13H24.5938C24.818 13 25 13.112 25 13.25V13.75C25 13.888 24.818 14 24.5938 14Z" fill="#135423"/>
<path d="M24.5938 17H12.4062C12.182 17 12 16.888 12 16.75V16.25C12 16.112 12.182 16 12.4062 16H24.5938C24.818 16 25 16.112 25 16.25V16.75C25 16.888 24.818 17 24.5938 17Z" fill="#135423"/>
<path d="M24.5938 20H12.4062C12.182 20 12 19.888 12 19.75V19.25C12 19.112 12.182 19 12.4062 19H24.5938C24.818 19 25 19.112 25 19.25V19.75C25 19.888 24.818 20 24.5938 20Z" fill="#135423"/>
<path d="M20.625 23H12.375C12.168 23 12 22.888 12 22.75V22.25C12 22.112 12.168 22 12.375 22H20.625C20.832 22 21 22.112 21 22.25V22.75C21 22.888 20.832 23 20.625 23Z" fill="#135423"/>
</svg>
