<svg width="60" height="60" viewBox="0 0 60 60" fill="none" xmlns="http://www.w3.org/2000/svg">
<path d="M29.4936 53.75C26.7348 53.75 24.4961 51.5112 24.4961 48.75C24.4961 45.9875 26.7348 43.75 29.4936 43.75C32.2573 43.75 34.4961 45.9875 34.4961 48.75C34.4961 51.5112 32.2573 53.75 29.4936 53.75Z" fill="#7CB342"/>
<path d="M48.75 25.5049C48.2575 25.5049 47.7699 25.6019 47.3149 25.7903C46.86 25.9788 46.4466 26.255 46.0984 26.6032C45.7501 26.9515 45.4739 27.3648 45.2855 27.8198C45.097 28.2748 45 28.7624 45 29.2549C45 29.7473 45.097 30.235 45.2855 30.6899C45.4739 31.1449 45.7501 31.5583 46.0984 31.9065C46.4466 32.2548 46.86 32.531 47.3149 32.7194C47.7699 32.9079 48.2575 33.0049 48.75 33.0049C49.2425 33.0049 49.7301 32.9079 50.1851 32.7194C50.64 32.531 51.0534 32.2548 51.4016 31.9065C51.7499 31.5583 52.0261 31.1449 52.2145 30.6899C52.403 30.235 52.5 29.7473 52.5 29.2549C52.5 28.7624 52.403 28.2748 52.2145 27.8198C52.0261 27.3648 51.7499 26.9515 51.4016 26.6032C51.0534 26.255 50.64 25.9788 50.1851 25.7903C49.7301 25.6019 49.2425 25.5049 48.75 25.5049Z" fill="#9CCC65"/>
<path d="M43.147 19.3726C41.0733 19.3726 39.3945 17.6926 39.3945 15.6226C39.3945 13.5526 41.0733 11.8726 43.147 11.8726C45.2145 11.8726 46.8945 13.5526 46.8945 15.6226C46.8945 17.6926 45.2145 19.3726 43.147 19.3726Z" fill="#AED581"/>
<path d="M29.4925 13.75C27.425 13.75 25.745 12.07 25.745 9.9975C25.745 7.92875 27.4238 6.25 29.4925 6.25C31.5675 6.25 33.245 7.92875 33.245 9.9975C33.245 12.07 31.5675 13.75 29.4925 13.75ZM10 31.1162C8.6225 31.1162 7.5 29.9962 7.5 28.6162C7.5 27.235 8.6225 26.1162 10 26.1162C11.3813 26.1162 12.5 27.235 12.5 28.6162C12.5 29.9962 11.3813 31.1162 10 31.1162ZM15.8475 44.7612C14.8125 44.7612 13.97 43.9237 13.97 42.8862C13.97 41.8562 14.8125 41.0112 15.8475 41.0112C16.8825 41.0112 17.72 41.8562 17.72 42.8862C17.72 43.9237 16.8825 44.7612 15.8475 44.7612ZM15.8463 12.4975C15.0174 12.4975 14.2226 12.8267 13.6365 13.4128C13.0505 13.9988 12.7213 14.7937 12.7213 15.6225C12.7213 16.4513 13.0505 17.2462 13.6365 17.8322C14.2226 18.4183 15.0174 18.7475 15.8463 18.7475C16.6751 18.7475 17.4699 18.4183 18.056 17.8322C18.642 17.2462 18.9713 16.4513 18.9713 15.6225C18.9713 14.7937 18.642 13.9988 18.056 13.4128C17.4699 12.8267 16.6751 12.4975 15.8463 12.4975Z" fill="#CFD8DC"/>
<path d="M43.147 47.2612C40.7283 47.2612 38.7695 45.305 38.7695 42.8862C38.7695 40.4712 40.7283 38.5112 43.147 38.5112C45.5595 38.5112 47.5195 40.4712 47.5195 42.8862C47.5195 45.3037 45.5583 47.2612 43.147 47.2612Z" fill="#8BC34A"/>
</svg>
