<svg width="16" height="16" viewBox="0 0 16 16" fill="none" xmlns="http://www.w3.org/2000/svg">
<path d="M12.163 8.34256C12.364 8.17662 12.6621 8.18769 12.8501 8.37575C13.05 8.57556 13.05 8.89953 12.8501 9.09934L8.43333 13.5162L8.39683 13.5493C8.19583 13.7153 7.89779 13.7042 7.70973 13.5162L3.29292 9.09934L3.25973 9.06284C3.0938 8.86184 3.10486 8.56381 3.29292 8.37575L3.32942 8.34256C3.53042 8.17662 3.82845 8.18769 4.01651 8.37575L8.07145 12.4309L12.1265 8.37575L12.163 8.34256Z" fill="#0D6EFD"/>
<path d="M12.163 2.44936C12.364 2.28342 12.6621 2.29448 12.8501 2.48254C13.05 2.68236 13.05 3.00632 12.8501 3.20614L8.43333 7.62295L8.39683 7.65614C8.19583 7.82207 7.89779 7.81101 7.70973 7.62295L3.29292 3.20614L3.25973 3.16964C3.0938 2.96864 3.10486 2.6706 3.29292 2.48254L3.32942 2.44936C3.53042 2.28342 3.82845 2.29448 4.01651 2.48254L8.07145 6.53748L12.1265 2.48254L12.163 2.44936Z" fill="#0D6EFD"/>
</svg>
