<svg width="12" height="12" viewBox="0 0 12 12" fill="none" xmlns="http://www.w3.org/2000/svg">
<path d="M9.5625 0.0195951C9.44531 0.0117831 9.32812 0.0195951 9.21484 0.0391271C8.76172 0.109439 8.33984 0.386783 8.11328 0.836002L7.76953 1.5235L5.29297 4.00006H3.5C2.83594 4.00006 2.19922 4.26569 1.73437 4.73444L0.964844 5.50006L3.37891 7.91413L0.0234375 11.2696L0.726562 11.9805L4.08594 8.62116L6.5 11.0352L7.26562 10.2657C7.73437 9.80085 8 9.16413 8 8.50006V6.7071L10.4766 4.23053L11.1602 3.88678C12.0664 3.43756 12.2656 2.19928 11.5547 1.48444L10.5156 0.445377C10.2461 0.179752 9.90625 0.0391271 9.5625 0.0195951Z" fill="#FF784B"/>
</svg>
