<svg width="17" height="17" viewBox="0 0 17 17" fill="none" xmlns="http://www.w3.org/2000/svg">
<path d="M4.00635 13.977C4.93143 14.7342 6.04918 15.264 7.27389 15.4779L7.37483 14.0531C6.49862 13.8775 5.69395 13.5003 5.01324 12.9697L4.00635 13.977Z" fill="#90BDFC"/>
<path d="M2.86382 9.2085H1.43475C1.57642 10.6308 2.14592 11.9264 3.00477 12.9754L4.01061 11.9696C3.40286 11.1862 2.99344 10.2405 2.86382 9.2085Z" fill="#5597F3"/>
<path d="M11.9209 12.9904L12.6374 14.2191C13.2133 13.8004 13.7222 13.295 14.1493 12.7262L12.9235 11.9917C12.631 12.3636 12.2963 12.7022 11.9209 12.9904Z" fill="#E7F1FF"/>
<path d="M8.78758 14.1526L8.68665 15.5735C9.65848 15.5459 10.579 15.3146 11.4148 14.9328L10.6997 13.707C10.1072 13.9599 9.46262 14.1157 8.78758 14.1526Z" fill="#B3D2FD"/>
<path d="M14.1001 7.7915H15.5292C15.1722 4.21725 12.1483 1.4165 8.48196 1.4165C4.81563 1.4165 1.79105 4.21725 1.43475 7.7915H2.86382C3.21444 5.00067 5.59763 2.83317 8.48196 2.83317C11.3663 2.83317 13.7495 5.00067 14.1001 7.7915Z" fill="#0D6EFD"/>
</svg>
