<svg width="12" height="12" viewBox="0 0 12 12" fill="none" xmlns="http://www.w3.org/2000/svg">
<path fill-rule="evenodd" clip-rule="evenodd" d="M6 0.75C8.8995 0.75 11.25 3.10051 11.25 6C11.25 8.8705 8.94627 11.2029 6.08682 11.2493L5.98897 11.25C5.82816 11.2497 5.66821 11.2421 5.50944 11.2274L5.35109 11.2103C5.13792 11.184 4.98644 10.9898 5.01274 10.7767C5.03903 10.5635 5.23315 10.412 5.44631 10.4383C5.58097 10.4549 5.71679 10.4655 5.85353 10.4699L6 10.4722C8.46994 10.4722 10.4722 8.46994 10.4722 6C10.4722 3.5572 8.5137 1.57184 6.08125 1.5285L5.9961 1.52778C5.69559 1.52804 5.39913 1.55788 5.10958 1.61635C4.89905 1.65886 4.69392 1.52265 4.65141 1.31213C4.6089 1.1016 4.7451 0.896468 4.95563 0.853956C5.24826 0.794865 5.54673 0.760697 5.84872 0.752141L6 0.75ZM2.82311 9.6999C2.94973 9.52641 3.19301 9.48842 3.3665 9.61504C3.60791 9.79123 3.86634 9.94289 4.13802 10.0675C4.33325 10.157 4.41894 10.3879 4.32941 10.5831C4.23988 10.7783 4.00904 10.864 3.81381 10.7745C3.49472 10.6281 3.19131 10.4501 2.90797 10.2433C2.73449 10.1167 2.69649 9.87338 2.82311 9.6999ZM1.43484 7.71893C1.62911 7.62733 1.86085 7.71056 1.95244 7.90482C2.07989 8.17513 2.23427 8.43193 2.41298 8.67147C2.54141 8.84362 2.50598 9.08728 2.33383 9.21572C2.16169 9.34415 1.91802 9.30872 1.78959 9.13657C1.57985 8.85545 1.39862 8.55397 1.24894 8.23653C1.15735 8.04226 1.24058 7.81052 1.43484 7.71893ZM5.72994 3.18056C5.93278 3.18056 6.09935 3.33586 6.11724 3.53405L6.11883 3.56945L6.11885 6.09139L8.2687 7.29468C8.4451 7.3934 8.51475 7.60911 8.43488 7.7904L8.41815 7.82396C8.31943 8.00036 8.10371 8.07 7.92242 7.99014L7.88887 7.9734L5.54002 6.65891C5.42739 6.59588 5.35406 6.48156 5.34262 6.35449L5.34105 6.31955V3.56945C5.34105 3.35467 5.51516 3.18056 5.72994 3.18056ZM1.13638 5.30996L1.17181 5.31054C1.38618 5.32365 1.54934 5.50806 1.53624 5.72244C1.5307 5.81292 1.52788 5.90383 1.52778 5.99468C1.52778 6.20857 1.54203 6.41589 1.57049 6.62093C1.60001 6.83367 1.45149 7.03006 1.23875 7.05959C1.02601 7.08911 0.829616 6.94059 0.800091 6.72785C0.766707 6.48731 0.75 6.24426 0.75 5.99426C0.750115 5.88744 0.753425 5.78097 0.759907 5.67497C0.772288 5.4725 0.937469 5.31572 1.13638 5.30996ZM1.57479 3.17397C1.69055 2.99306 1.93105 2.94024 2.11196 3.056C2.29288 3.17176 2.3457 3.41226 2.22994 3.59317C2.06895 3.84477 1.93351 4.11191 1.8259 4.39085C1.74859 4.59123 1.52348 4.691 1.3231 4.6137C1.12272 4.53639 1.02294 4.31128 1.10025 4.1109C1.22668 3.78317 1.38577 3.46939 1.57479 3.17397ZM3.47659 1.39517C3.66486 1.2918 3.90127 1.36062 4.00464 1.54888C4.10801 1.73715 4.03919 1.97357 3.85093 2.07694C3.58895 2.22078 3.34195 2.39066 3.11366 2.58375C2.94968 2.72245 2.7043 2.70195 2.5656 2.53797C2.4269 2.37398 2.4474 2.12861 2.61138 1.9899C2.8792 1.76338 3.16906 1.56403 3.47659 1.39517Z" fill="#5F6368"/>
</svg>
