<svg width="24" height="24" viewBox="0 0 24 24" fill="none" xmlns="http://www.w3.org/2000/svg">
<path d="M5.65601 19.7321C6.96201 20.8011 8.54001 21.5491 10.269 21.8511L10.4115 19.8396C9.17451 19.5916 8.03851 19.0591 7.07751 18.3101L5.65601 19.7321Z" fill="#86D38F"/>
<path d="M4.04301 13H2.02551C2.22551 15.008 3.02951 16.837 4.24201 18.318L5.66201 16.898C4.80401 15.792 4.22601 14.457 4.04301 13Z" fill="#5DB868"/>
<path d="M16.8295 18.3397L17.841 20.0742C18.654 19.4832 19.3725 18.7697 19.9755 17.9667L18.245 16.9297C17.832 17.4547 17.3595 17.9327 16.8295 18.3397Z" fill="#C6EDCB"/>
<path d="M12.406 19.9801L12.2635 21.9861C13.6356 21.9471 14.9351 21.6206 16.1151 21.0816L15.1056 19.3511C14.2691 19.7081 13.3591 19.9281 12.406 19.9801Z" fill="#A0DDA7"/>
<path d="M19.906 11H21.9235C21.4195 5.954 17.1505 2 11.9745 2C6.79851 2 2.52851 5.954 2.02551 11H4.04301C4.53801 7.06 7.90251 4 11.9745 4C16.0465 4 19.411 7.06 19.906 11Z" fill="#35A243"/>
</svg>
