<svg xmlns="http://www.w3.org/2000/svg" width="16" height="16" viewBox="0 0 16 16">
    <defs>
        <filter id="prefix__a">
            <feColorMatrix in="SourceGraphic" values="0 0 0 0 0.019608 0 0 0 0 0.427451 0 0 0 0 0.682353 0 0 0 1.000000 0"/>
        </filter>
    </defs>
    <g fill="none" fill-rule="evenodd" filter="url(#prefix__a)" transform="translate(0 -5)">
        <g>
            <path fill="#D8D8D8" fill-opacity="0" d="M0 0H16V16H0z" transform="translate(0 5)"/>
            <path fill="#8A959F" d="M12.875 1.778c.744 0 1.347.603 1.347 1.348v7.311c0 .745-.603 1.348-1.347 1.348H9.91l-1.466 2.199c-.202.304-.638.317-.861.04l-.03-.04-1.465-2.2-2.964.001c-.722 0-1.31-.567-1.346-1.28l-.001-.068V3.126c0-.745.603-1.348 1.347-1.348zm0 1.07h-9.75c-.153 0-.277.124-.277.278v7.311c0 .154.124.277.277.277h3.25c.18 0 .346.09.445.238L8 12.721l1.18-1.769c.089-.134.233-.22.392-.235l.053-.003h3.25c.153 0 .277-.123.277-.277V3.126c0-.154-.124-.277-.277-.277zM5.658 5.662c.37 0 .67.299.67.669 0 .37-.3.669-.67.669-.37 0-.669-.3-.669-.67 0-.37.3-.668.67-.668zm2.438 0c.37 0 .669.299.669.669 0 .37-.3.669-.67.669-.37 0-.668-.3-.668-.67 0-.37.299-.668.669-.668zm2.437 0c.37 0 .669.299.669.669 0 .37-.3.669-.67.669-.37 0-.668-.3-.668-.67 0-.37.299-.668.669-.668z" transform="translate(0 5)"/>
        </g>
    </g>
</svg>
