<svg width="8" height="8" viewBox="0 0 8 8" fill="none" xmlns="http://www.w3.org/2000/svg">
<path d="M4.43475 4.0001L6.98645 1.44839C7.10662 1.32823 7.10662 1.13341 6.98645 1.01325C6.86629 0.893086 6.67147 0.893086 6.55131 1.01325L3.99959 3.56497L1.44799 1.01347C1.32783 0.893314 1.13301 0.893318 1.01285 1.01348C0.892692 1.13365 0.892696 1.32847 1.01286 1.44862L3.56445 4.00011L1.01285 6.55172C0.892689 6.67188 0.892689 6.8667 1.01285 6.98686C1.13301 7.10702 1.32783 7.10702 1.44799 6.98686L3.9996 4.43525L6.55132 6.98686C6.67149 7.10702 6.86631 7.10702 6.98646 6.98685C7.10662 6.86669 7.10662 6.67187 6.98646 6.55171L4.43475 4.0001Z" fill="#202124"/>
</svg>
