<?xml version="1.0" encoding="UTF-8"?>
<svg width="9px" height="9px" viewBox="0 0 9 9" version="1.1" xmlns="http://www.w3.org/2000/svg" xmlns:xlink="http://www.w3.org/1999/xlink">
    <!-- Generator: Sketch 53.2 (72643) - https://sketchapp.com -->
    <title>close-blue-icon</title>
    <desc>Created with Sketch.</desc>
    <g id="Page-1" stroke="none" stroke-width="1" fill="none" fill-rule="evenodd" fill-opacity="0.5">
        <g id="close-blue-icon" fill="#046CAD">
            <path d="M8.36639762,0.0880292183 C8.51874932,-0.0373234477 8.74374129,-0.0289666033 8.88645047,0.113742586 C9.03751651,0.264808619 9.03751651,0.509728443 8.88645047,0.660151642 L5.04615906,4.49980023 L8.88580764,8.33880598 C9.03687367,8.48987201 9.03687367,8.73479183 8.88580764,8.8865007 C8.74309845,9.02856706 8.51810649,9.0369239 8.36575479,8.91157123 L8.33811292,8.88585787 L4.49975,5.04749495 L0.66074425,8.88714354 L0.63310238,8.91221407 C0.480750679,9.03756673 0.255758714,9.02920989 0.113049525,8.8865007 C-0.0380165083,8.73543467 -0.0380165083,8.49051484 0.113049525,8.34009164 L3.95334094,4.49980023 L0.113049525,0.660794477 C-0.0380165083,0.509728443 -0.0380165083,0.264808619 0.113049525,0.113099751 C0.255758714,-0.0289666033 0.480750679,-0.0373234477 0.63310238,0.0880292183 L0.66074425,0.113742586 L4.49975,3.9521055 L8.33875575,0.113099751 L8.36639762,0.0880292183 Z" id="Path"></path>
        </g>
    </g>
</svg>