<?xml version="1.0" encoding="UTF-8"?>
<svg width="10px" height="6px" viewBox="0 0 10 6" version="1.1" xmlns="http://www.w3.org/2000/svg" xmlns:xlink="http://www.w3.org/1999/xlink">
    <!-- Generator: Sketch 53.2 (72643) - https://sketchapp.com -->
    <title>dropdown-down</title>
    <desc>Created with Sketch.</desc>
    <g id="Page-1" stroke="none" stroke-width="1" fill="none" fill-rule="evenodd">
        <g id="dropdown-down" transform="translate(-1.000000, -3.000000)" fill-rule="nonzero">
            <polygon id="Path" fill-opacity="0" fill="#D8D8D8" points="0 0 12 0 12 12 0 12"></polygon>
            <path d="M6,8.563 C6.152,8.563 6.284,8.507 6.396,8.396 L10.333,4.458 C10.444,4.347 10.5,4.215 10.5,4.062 C10.5,3.91 10.444,3.778 10.333,3.667 C10.222,3.556 10.09,3.5 9.937,3.5 L2.064,3.5 C1.911,3.5 1.779,3.556 1.668,3.667 C1.557,3.778 1.501,3.91 1.501,4.063 C1.501,4.215 1.557,4.347 1.668,4.458 L5.605,8.396 C5.717,8.506 5.849,8.562 6.001,8.562 L6,8.563 Z" id="Path" fill="#8A959F"></path>
        </g>
    </g>
</svg>