<svg xmlns="http://www.w3.org/2000/svg" width="12" height="12" viewBox="0 0 12 12">
    <defs>
        <filter id="prefix__a">
            <feColorMatrix in="SourceGraphic" values="0 0 0 0 0.541176 0 0 0 0 0.584314 0 0 0 0 0.623529 0 0 0 1.000000 0"/>
        </filter>
    </defs>
    <g fill="none" fill-rule="evenodd" filter="url(#prefix__a)" transform="translate(0 -3)">
        <g>
            <path fill="#D8D8D8" fill-opacity="0" d="M0 0H12V12H0z" transform="translate(0 3)"/>
            <path fill="#26344A" fill-rule="nonzero" d="M9.011 1.5c.804 0 1.459.637 1.488 1.433l.001.056V9.01c0 .804-.637 1.459-1.433 1.488l-.056.001H5.726c-.217 0-.394-.176-.394-.394 0-.206.158-.374.358-.392l.036-.002h3.285c.373 0 .678-.292.7-.66l.001-.04V2.988c0-.373-.292-.678-.66-.7l-.04-.001H2.988c-.373 0-.678.292-.7.66l-.001.04v3.286c0 .217-.176.394-.394.394-.206 0-.374-.158-.392-.358L1.5 6.274V2.989c0-.804.637-1.459 1.433-1.488L2.99 1.5H9.01zM7.502 4.203c.206 0 .374.157.393.358l.001.036v2.19c0 .217-.176.394-.394.394-.205 0-.374-.157-.392-.358l-.002-.036-.001-1.235-3.822 3.824c-.154.154-.403.154-.557 0-.145-.145-.153-.375-.026-.53l.026-.028L6.555 4.99l-1.243.001c-.205 0-.374-.157-.392-.358l-.002-.036c0-.206.158-.374.358-.392l.036-.002h2.19z" transform="translate(0 3)"/>
        </g>
    </g>
</svg>
