<svg xmlns="http://www.w3.org/2000/svg" width="16" height="16" viewBox="0 0 16 16">
    <defs>
        <filter id="prefix__a">
            <feColorMatrix in="SourceGraphic" values="0 0 0 0 0.019608 0 0 0 0 0.427451 0 0 0 0 0.682353 0 0 0 1.000000 0"/>
        </filter>
    </defs>
    <g fill="none" fill-rule="evenodd" filter="url(#prefix__a)" transform="translate(0 -1)">
        <g>
            <path d="M0 0L16 0 16 16 0 16z" opacity=".87" transform="translate(0 1)"/>
            <path fill="#161620" d="M8.645 9.366c0-.257.124-.63.28-.837l4.211-5.606c.384-.51.192-.923-.437-.923H3.3c-.625 0-.823.411-.438.923L7.076 8.53c.154.205.278.576.278.837v3.47c0 .643.017 1.164.644 1.164.622 0 .647-.522.647-1.164v-3.47z" transform="translate(0 1)"/>
        </g>
    </g>
</svg>
