<svg xmlns="http://www.w3.org/2000/svg" width="16" height="16" viewBox="0 0 16 16">
    <defs>
        <filter id="prefix__a">
            <feColorMatrix in="SourceGraphic" values="0 0 0 0 0.019608 0 0 0 0 0.427451 0 0 0 0 0.682353 0 0 0 1.000000 0"/>
        </filter>
    </defs>
    <g fill="none" fill-rule="evenodd" filter="url(#prefix__a)" transform="translate(0 -5)">
        <g>
            <path fill="#D8D8D8" fill-opacity="0" d="M0 0H16V16H0z" transform="translate(0 5)"/>
            <path fill="#26344A" fill-rule="nonzero" d="M3.17 3.475l.094.017 2.8.75c.282.076.45.365.374.647l-.625 2.334c-.065.242-.291.405-.541.39l-1.721-.1c.317 1.476 1.094 2.822 2.213 3.835l.775-1.54c.112-.224.367-.338.609-.273l2.334.626c.281.075.449.365.373.647l-.75 2.8c-.06.22-.247.37-.46.39h-.093c-.032-.002-.063-.008-.094-.016-.097-.026-.193-.054-.289-.083l-.11-.035c-.086-.027-.17-.056-.254-.086l-.045-.016c-.1-.037-.2-.075-.299-.115l-.036-.015c-.207-.086-.41-.18-.608-.281l-.053-.028c-.068-.035-.135-.072-.202-.109l-.107-.061c-.07-.04-.138-.081-.206-.123l-.119-.075-.179-.118c-.112-.077-.222-.155-.33-.237l.243.177C3.766 11.31 2.452 8.93 2.341 6.363l-.004-.114c-.003-.083-.004-.166-.004-.25l.001-.083c0-.08.003-.16.006-.241l.006-.126c.011-.196.03-.394.055-.592l.01-.071c.014-.103.03-.206.048-.309l.01-.054c.017-.095.036-.19.057-.284.027-.125.058-.25.09-.374l-.08.326c.025-.108.052-.217.08-.326.06-.219.248-.369.461-.389h.093zm4.12 7.192l-.675 1.342.03.02c.03.02.06.04.09.058.067.043.134.084.201.123l-.2-.123c.11.07.223.138.338.202.054.03.107.06.162.088l-.162-.088c.08.045.16.088.241.13l-.08-.042c.206.108.417.206.634.295.088.035.177.07.267.102l.09.031.472-1.76-1.408-.378zM9.603 2c2.948.79 4.712 3.795 3.98 6.744l-.027.103-1.02-.273c.639-2.386-.749-4.837-3.108-5.526l-.098-.027L9.603 2zM8.565 4.253c1.872.501 2.995 2.402 2.545 4.275l-.023.092-1.021-.274c.352-1.312-.405-2.66-1.696-3.05l-.078-.023.273-1.02zm-5.046.401l-.017.093c-.014.077-.026.155-.038.233l.038-.234c-.017.097-.032.193-.045.29-.017.121-.03.243-.041.365-.006.07-.011.141-.015.212l.015-.212c-.01.107-.016.215-.02.323l.005-.111c-.013.24-.014.482-.003.722l-.002-.032.008.144 1.5.087.377-1.408-1.762-.472z" transform="translate(0 5)"/>
        </g>
    </g>
</svg>
