<svg xmlns="http://www.w3.org/2000/svg" width="16" height="16" viewBox="0 0 16 16">
    <defs>
        <filter id="prefix__a">
            <feColorMatrix in="SourceGraphic" values="0 0 0 0 0.019608 0 0 0 0 0.427451 0 0 0 0 0.682353 0 0 0 1.000000 0"/>
        </filter>
    </defs>
    <g fill="none" fill-rule="evenodd" filter="url(#prefix__a)" transform="translate(-15 -7)">
        <g fill-rule="nonzero">
            <path fill="#FFF" d="M.62 2.8l.853-.847 11.86 11.86-.846.854-1.334-1.334H2.667c-.737 0-1.334-.597-1.334-1.333V4c0-.147.027-.287.074-.413L.62 2.8m12.713 2.533V4h-8.12L3.88 2.667h9.453c.737 0 1.334.597 1.334 1.333v8c0 .4-.174.753-.454 1l-1-1h.12V8h-4.12L6.547 5.333h6.786m-10.666 0h.486l-.486-.486v.486m0 2.667v4H9.82l-4-4H2.667z" transform="translate(15 7)"/>
            <path d="M0 0H16V16H0z" transform="translate(15 7)"/>
        </g>
    </g>
</svg>
