<svg xmlns="http://www.w3.org/2000/svg" width="17" height="17" viewBox="0 0 17 17">
    <defs>
        <filter id="prefix__a">
            <feColorMatrix in="SourceGraphic" values="0 0 0 0 0.019608 0 0 0 0 0.427451 0 0 0 0 0.682353 0 0 0 1.000000 0"/>
        </filter>
    </defs>
    <g fill="none" fill-rule="evenodd" filter="url(#prefix__a)" transform="translate(-15 -7)">
        <g fill-rule="nonzero">
            <path fill="#FFF" d="M10.667 9.333h1v1.88l1.626.94-.5.867-2.126-1.227v-2.46m5.333 2C16 13.911 13.91 16 11.333 16c-1.86 0-3.466-1.093-4.22-2.667H2.667c-.737 0-1.334-.597-1.334-1.333V4c0-.74.594-1.333 1.334-1.333h10.666c.737 0 1.334.597 1.334 1.333v4.067c.826.84 1.333 1.993 1.333 3.266m-9.333 0c0-1.306.54-2.486 1.4-3.333h-5.4v4h4.046c-.046-.22-.046-.44-.046-.667M11.333 8C9.493 8 8 9.492 8 11.333c0 1.841 1.492 3.334 3.333 3.334 1.841 0 3.334-1.493 3.334-3.334 0-1.84-1.493-3.333-3.334-3.333m2-2.667V4H2.667v1.333h10.666z" transform="translate(15 7)"/>
            <path d="M0 0H16V16H0z" transform="translate(15 7)"/>
        </g>
    </g>
</svg>
