<?xml version="1.0" encoding="UTF-8"?>
<svg width="12px" height="18px" viewBox="0 0 12 18" version="1.1" xmlns="http://www.w3.org/2000/svg" xmlns:xlink="http://www.w3.org/1999/xlink">
    <!-- Generator: Sketch 53.2 (72643) - https://sketchapp.com -->
    <title>microphone</title>
    <desc>Created with Sketch.</desc>
    <g id="Page-1" stroke="none" stroke-width="1" fill="none" fill-rule="evenodd">
        <g id="microphone" fill="#FFFFFF" fill-rule="nonzero">
            <path d="M11.185,6.549 C11.543,6.549 11.833,6.842 11.833,7.203 L11.833,7.856 C11.833,10.884 9.565,13.378 6.648,13.703 L6.648,16.68 C6.648,17.04 6.358,17.333 6,17.333 C5.642,17.333 5.352,17.041 5.352,16.68 L5.352,13.703 C2.435,13.378 0.167,10.884 0.167,7.856 L0.167,7.203 C0.167,6.842 0.457,6.549 0.815,6.549 C1.173,6.549 1.463,6.842 1.463,7.203 L1.463,7.856 C1.463,10.383 3.494,12.431 6,12.431 C8.506,12.431 10.537,10.383 10.537,7.856 L10.537,7.203 C10.537,6.842 10.827,6.549 11.185,6.549 Z M6,0.667 C7.79,0.667 9.24,2.117 9.24,3.907 L9.24,7.883 C9.24,9.673 7.79,11.124 6,11.124 C4.21,11.124 2.76,9.674 2.76,7.884 L2.76,3.907 C2.76,2.117 4.21,0.667 6,0.667 Z" id="Shape"></path>
        </g>
    </g>
</svg>