<?xml version="1.0" encoding="UTF-8"?>
<svg width="50px" height="50px" viewBox="0 0 50 50" version="1.1" xmlns="http://www.w3.org/2000/svg" xmlns:xlink="http://www.w3.org/1999/xlink">
    <!-- Generator: Sketch 53.2 (72643) - https://sketchapp.com -->
    <title>SDKIcon</title>
    <desc>Created with Sketch.</desc>
    <g id="Page-1" stroke="none" stroke-width="1" fill="none" fill-rule="evenodd">
        <g id="SDKIcon" fill-rule="nonzero">
            <path d="M24.587,49.997 C10.97,49.776 0,38.669 0,25 C0,11.193 11.193,0 25,0 C38.807,0 50,11.193 50,25 L50,50 L25,50 L24.587,49.997 Z" id="Path" fill="#0C335B"></path>
            <path d="M36.916,21.164 C34.79,14.62 27.745,10.984 21.185,13.105 C14.625,15.225 10.981,22.255 13.107,28.799 C15.172,35.403 22.217,38.979 28.838,36.919 C35.398,34.797 38.981,27.769 36.916,21.164 M19.065,26.916 C17.98,23.656 19.788,20.092 23.102,19.066 C26.356,17.979 29.911,19.79 30.935,23.112 C32.02,26.372 30.212,29.936 26.898,30.962 C23.644,31.989 20.089,30.178 19.065,26.916" id="Shape" fill="#FFFFFF"></path>
        </g>
    </g>
</svg>