<?xml version="1.0" encoding="UTF-8"?>
<svg width="13px" height="14px" viewBox="0 0 13 14" version="1.1" xmlns="http://www.w3.org/2000/svg" xmlns:xlink="http://www.w3.org/1999/xlink">
    <!-- Generator: Sketch 53.2 (72643) - https://sketchapp.com -->
    <title>search</title>
    <desc>Created with Sketch.</desc>
    <g id="Page-1" stroke="none" stroke-width="1" fill="none" fill-rule="evenodd">
        <g id="search" transform="translate(-2.000000, -1.000000)" fill-rule="nonzero">
            <polygon id="Path" fill-opacity="0" fill="#D8D8D8" points="0.5 0 16.5 0 16.5 16 0.5 16"></polygon>
            <path d="M7.798,1.8 C10.834,1.8 13.295,4.268 13.295,7.312 C13.295,8.642 12.825,9.862 12.043,10.815 L14.587,13.335 C14.795,13.541 14.797,13.878 14.592,14.087 C14.398,14.283 14.089,14.297 13.88,14.125 L13.842,14.091 L11.294,11.567 C10.344,12.352 9.126,12.825 7.798,12.825 C4.761,12.825 2.3,10.357 2.3,7.312 C2.3,4.268 4.761,1.8 7.798,1.8 Z M7.798,2.863 C5.347,2.863 3.36,4.855 3.36,7.313 C3.36,9.77 5.347,11.762 7.798,11.762 C10.248,11.762 12.235,9.77 12.235,7.312 C12.235,4.855 10.249,2.862 7.798,2.862 L7.798,2.863 Z" id="Shape" fill="#8A959F"></path>
        </g>
    </g>
</svg>