<?xml version="1.0" encoding="UTF-8"?>
<svg width="14px" height="14px" viewBox="0 0 14 14" version="1.1" xmlns="http://www.w3.org/2000/svg" xmlns:xlink="http://www.w3.org/1999/xlink">
    <!-- Generator: Sketch 53.2 (72643) - https://sketchapp.com -->
    <title>thumbs-down-filled</title>
    <desc>Created with Sketch.</desc>
    <g id="Page-1" stroke="none" stroke-width="1" fill="none" fill-rule="evenodd">
        <g id="thumbs-down-filled" fill="#006BB0" fill-rule="nonzero">
            <g transform="translate(7.000000, 7.000000) rotate(180.000000) translate(-7.000000, -7.000000) ">
                <path d="M1.164,13.333 C0.889,13.333 0.667,13.115 0.667,12.846 L0.667,7 C0.667,6.73 0.889,6.513 1.164,6.513 L3.498,6.513 L5.026,1.026 C5.086,0.814 5.282,0.666 5.506,0.666 C6.68,0.666 7.632,1.599 7.632,2.748 L7.632,5.45 L11.207,5.45 C12.51,5.45 13.507,6.587 13.308,7.848 L12.724,11.568 C12.564,12.584 11.672,13.333 10.623,13.333 L1.164,13.333 Z M3.38,12.359 L3.38,7.487 L1.662,7.487 L1.662,12.359 L3.38,12.359 L3.38,12.359 Z M5.87,1.699 L4.376,7.066 L4.376,12.36 L10.623,12.36 C11.181,12.36 11.655,11.961 11.74,11.421 L12.325,7.701 C12.43,7.03 11.9,6.425 11.207,6.425 L7.135,6.425 C6.86,6.425 6.637,6.207 6.637,5.938 L6.637,2.748 C6.637,2.261 6.317,1.848 5.87,1.7 L5.87,1.699 Z" id="Shape"></path>
                <polygon id="Rectangle" points="5.87 1.699 6.64147949 1.95422363 6.83764648 5.90637207 12.5410156 6.4050293 11.72229 12.6185303 4 13 4.376 6.67126465"></polygon>
            </g>
        </g>
    </g>
</svg>