<svg width="16" height="16" viewBox="0 0 16 16" fill="none" xmlns="http://www.w3.org/2000/svg">
<path d="M7.65185 10.8556C7.84451 11.0482 8.15691 11.0482 8.34948 10.8554L11.5009 7.70078C11.695 7.50647 11.6949 7.19161 11.5007 6.9974C11.3065 6.80321 10.9917 6.8031 10.7974 6.99714L8.50075 9.29041V2.49744C8.50075 2.22129 8.27689 1.99744 8.00075 1.99744C7.72461 1.99744 7.50075 2.22129 7.50075 2.49744V9.29041L5.20779 6.99744C5.01331 6.80296 4.69827 6.80209 4.50272 6.99549C4.30563 7.19041 4.30475 7.50847 4.50076 7.70447L7.65185 10.8556Z" fill="#0D6EFD"/>
<path d="M3.5 13.5C3.5 13.2239 3.72386 13 4 13H12C12.2761 13 12.5 13.2239 12.5 13.5C12.5 13.7762 12.2761 14 12 14H4C3.72386 14 3.5 13.7762 3.5 13.5Z" fill="#0D6EFD"/>
</svg>
