<svg width="60" height="60" viewBox="0 0 60 60" fill="none" xmlns="http://www.w3.org/2000/svg">
<circle cx="30" cy="30" r="29.5" fill="white" stroke="#85B7FE"/>
<path d="M43.4999 29.5711C45.2751 29.5711 46.7142 28.1321 46.7142 26.3569C46.7142 24.5817 45.2751 23.1426 43.4999 23.1426C41.7247 23.1426 40.2856 24.5817 40.2856 26.3569C40.2856 28.1321 41.7247 29.5711 43.4999 29.5711Z" fill="#85B7FE"/>
<path d="M43.4999 20.9999C45.2751 20.9999 46.7142 19.5608 46.7142 17.7856C46.7142 16.0104 45.2751 14.5713 43.4999 14.5713C41.7247 14.5713 40.2856 16.0104 40.2856 17.7856C40.2856 19.5608 41.7247 20.9999 43.4999 20.9999Z" fill="#07377F"/>
<path d="M43.4999 46.7142C45.2751 46.7142 46.7142 45.2751 46.7142 43.4999C46.7142 41.7247 45.2751 40.2856 43.4999 40.2856C41.7247 40.2856 40.2856 41.7247 40.2856 43.4999C40.2856 45.2751 41.7247 46.7142 43.4999 46.7142Z" fill="#85B7FE"/>
<path d="M43.4999 38.1429C45.2751 38.1429 46.7142 36.7038 46.7142 34.9286C46.7142 33.1534 45.2751 31.7144 43.4999 31.7144C41.7247 31.7144 40.2856 33.1534 40.2856 34.9286C40.2856 36.7038 41.7247 38.1429 43.4999 38.1429Z" fill="#07377F"/>
<path d="M34.9284 29.5711C36.7036 29.5711 38.1427 28.1321 38.1427 26.3569C38.1427 24.5817 36.7036 23.1426 34.9284 23.1426C33.1532 23.1426 31.7141 24.5817 31.7141 26.3569C31.7141 28.1321 33.1532 29.5711 34.9284 29.5711Z" fill="#07377F"/>
<path d="M34.9284 20.9999C36.7036 20.9999 38.1427 19.5608 38.1427 17.7856C38.1427 16.0104 36.7036 14.5713 34.9284 14.5713C33.1532 14.5713 31.7141 16.0104 31.7141 17.7856C31.7141 19.5608 33.1532 20.9999 34.9284 20.9999Z" fill="#85B7FE"/>
<path d="M34.9284 46.7142C36.7036 46.7142 38.1427 45.2751 38.1427 43.4999C38.1427 41.7247 36.7036 40.2856 34.9284 40.2856C33.1532 40.2856 31.7141 41.7247 31.7141 43.4999C31.7141 45.2751 33.1532 46.7142 34.9284 46.7142Z" fill="#07377F"/>
<path d="M34.9284 38.1429C36.7036 38.1429 38.1427 36.7038 38.1427 34.9286C38.1427 33.1534 36.7036 31.7144 34.9284 31.7144C33.1532 31.7144 31.7141 33.1534 31.7141 34.9286C31.7141 36.7038 33.1532 38.1429 34.9284 38.1429Z" fill="#85B7FE"/>
<path d="M26.3571 29.5711C28.1323 29.5711 29.5714 28.1321 29.5714 26.3569C29.5714 24.5817 28.1323 23.1426 26.3571 23.1426C24.5819 23.1426 23.1428 24.5817 23.1428 26.3569C23.1428 28.1321 24.5819 29.5711 26.3571 29.5711Z" fill="#85B7FE"/>
<path d="M26.3571 20.9999C28.1323 20.9999 29.5714 19.5608 29.5714 17.7856C29.5714 16.0104 28.1323 14.5713 26.3571 14.5713C24.5819 14.5713 23.1428 16.0104 23.1428 17.7856C23.1428 19.5608 24.5819 20.9999 26.3571 20.9999Z" fill="#07377F"/>
<path d="M26.3571 46.7142C28.1323 46.7142 29.5714 45.2751 29.5714 43.4999C29.5714 41.7247 28.1323 40.2856 26.3571 40.2856C24.5819 40.2856 23.1428 41.7247 23.1428 43.4999C23.1428 45.2751 24.5819 46.7142 26.3571 46.7142Z" fill="#85B7FE"/>
<path d="M26.3571 38.1429C28.1323 38.1429 29.5714 36.7038 29.5714 34.9286C29.5714 33.1534 28.1323 31.7144 26.3571 31.7144C24.5819 31.7144 23.1428 33.1534 23.1428 34.9286C23.1428 36.7038 24.5819 38.1429 26.3571 38.1429Z" fill="#07377F"/>
<path d="M17.7856 29.5711C19.5608 29.5711 20.9999 28.1321 20.9999 26.3569C20.9999 24.5817 19.5608 23.1426 17.7856 23.1426C16.0104 23.1426 14.5713 24.5817 14.5713 26.3569C14.5713 28.1321 16.0104 29.5711 17.7856 29.5711Z" fill="#07377F"/>
<path d="M17.7856 21.0003C19.5608 21.0003 20.9999 19.5613 20.9999 17.7861C20.9999 16.0109 19.5608 14.5718 17.7856 14.5718C16.0104 14.5718 14.5713 16.0109 14.5713 17.7861C14.5713 19.5613 16.0104 21.0003 17.7856 21.0003Z" fill="#85B7FE"/>
<path d="M17.7856 46.7142C19.5608 46.7142 20.9999 45.2751 20.9999 43.4999C20.9999 41.7247 19.5608 40.2856 17.7856 40.2856C16.0104 40.2856 14.5713 41.7247 14.5713 43.4999C14.5713 45.2751 16.0104 46.7142 17.7856 46.7142Z" fill="#07377F"/>
<path d="M17.7856 38.1429C19.5608 38.1429 20.9999 36.7038 20.9999 34.9286C20.9999 33.1534 19.5608 31.7144 17.7856 31.7144C16.0104 31.7144 14.5713 33.1534 14.5713 34.9286C14.5713 36.7038 16.0104 38.1429 17.7856 38.1429Z" fill="#85B7FE"/>
</svg>
