<svg width="20" height="20" viewBox="0 0 20 20" fill="none" xmlns="http://www.w3.org/2000/svg">
<circle cx="10" cy="10" r="10" fill="#DD3646"/>
<rect x="4.66699" y="4.66602" width="10.6667" height="10.6667" fill="#D8D8D8" fill-opacity="0.01"/>
<path fill-rule="evenodd" clip-rule="evenodd" d="M10.0247 12.3208C10.3654 12.3208 10.6416 12.597 10.6416 12.9378C10.6416 13.2785 10.3654 13.5547 10.0247 13.5547C9.68393 13.5547 9.40771 13.2785 9.40771 12.9378C9.40771 12.597 9.68393 12.3208 10.0247 12.3208ZM10.5253 10.7382C10.5021 10.9944 10.2868 11.1952 10.0246 11.1952C9.747 11.1952 9.52194 10.9701 9.52194 10.6925V6.9462L9.524 6.90044C9.54711 6.64426 9.76243 6.44351 10.0246 6.44351C10.3023 6.44351 10.5273 6.66857 10.5273 6.9462V10.6925L10.5253 10.7382Z" fill="white"/>
</svg>
