<svg width="45" height="36" viewBox="0 0 45 36" fill="none" xmlns="http://www.w3.org/2000/svg">
<path d="M0 33.1248V7.729H44.1667V33.1248C44.1667 34.3394 43.1729 35.3332 41.9583 35.3332H2.20833C0.99375 35.3332 0 34.3394 0 33.1248Z" fill="#FFDA2D"/>
<path d="M39.1982 16.5623H24.8441C24.5393 16.5623 24.292 16.315 24.292 16.0103V14.9061C24.292 14.6013 24.5393 14.354 24.8441 14.354H39.1982C39.503 14.354 39.7503 14.6013 39.7503 14.9061V16.0103C39.7503 16.315 39.503 16.5623 39.1982 16.5623Z" fill="#FFFBEA"/>
<path d="M39.1982 20.9793H24.8441C24.5393 20.9793 24.292 20.732 24.292 20.4272V19.3231C24.292 19.0183 24.5393 18.771 24.8441 18.771H39.1982C39.503 18.771 39.7503 19.0183 39.7503 19.3231V20.4272C39.7503 20.732 39.503 20.9793 39.1982 20.9793Z" fill="#FFFBEA"/>
<path d="M39.1982 25.3958H24.8441C24.5393 25.3958 24.292 25.1485 24.292 24.8437V23.7396C24.292 23.4348 24.5393 23.1875 24.8441 23.1875H39.1982C39.503 23.1875 39.7503 23.4348 39.7503 23.7396V24.8437C39.7503 25.1485 39.503 25.3958 39.1982 25.3958Z" fill="#FFFBEA"/>
<path d="M35.8857 29.8123H24.8441C24.5393 29.8123 24.292 29.565 24.292 29.2603V28.1561C24.292 27.8513 24.5393 27.604 24.8441 27.604H35.8857C36.1905 27.604 36.4378 27.8513 36.4378 28.1561V29.2603C36.4378 29.565 36.1905 29.8123 35.8857 29.8123Z" fill="#FFFBEA"/>
<path d="M44.1667 2.20833V7.72916H0V2.20833C0 0.99375 0.99375 0 2.20833 0H41.9583C43.1729 0 44.1667 0.99375 44.1667 2.20833Z" fill="#806D16"/>
<path d="M13.8021 5.521H41.4062C41.711 5.521 41.9583 5.27366 41.9583 4.96891V2.76058C41.9583 2.45583 41.711 2.2085 41.4062 2.2085H13.8021C13.4973 2.2085 13.25 2.45583 13.25 2.76058V4.96891C13.25 5.27366 13.4973 5.521 13.8021 5.521Z" fill="#FFED96"/>
<path d="M3.86475 5.521C4.77947 5.521 5.521 4.77947 5.521 3.86475C5.521 2.95002 4.77947 2.2085 3.86475 2.2085C2.95002 2.2085 2.2085 2.95002 2.2085 3.86475C2.2085 4.77947 2.95002 5.521 3.86475 5.521Z" fill="#FFED96"/>
<path d="M9.38574 5.521C10.3005 5.521 11.042 4.77947 11.042 3.86475C11.042 2.95002 10.3005 2.2085 9.38574 2.2085C8.47102 2.2085 7.72949 2.95002 7.72949 3.86475C7.72949 4.77947 8.47102 5.521 9.38574 5.521Z" fill="#FFED96"/>
<path d="M19.0163 14.354H5.27603C4.80124 14.354 4.41699 14.7383 4.41699 15.213V28.9533C4.41699 29.4281 4.80124 29.8123 5.27603 29.8123H19.0163C19.4911 29.8123 19.8753 29.4281 19.8753 28.9533V15.213C19.8753 14.7383 19.4911 14.354 19.0163 14.354Z" fill="#806D16"/>
<path d="M15.6085 21.6812C15.1149 21.1876 14.3188 21.1766 13.812 21.6569L9.56982 25.6761V29.8123H19.0171C19.4908 29.8123 19.875 29.428 19.875 28.9532V25.9477L15.6085 21.6812Z" fill="#FFED96"/>
<path d="M16.5627 18.7708C17.1725 18.7708 17.6668 18.2765 17.6668 17.6667C17.6668 17.0569 17.1725 16.5625 16.5627 16.5625C15.9528 16.5625 15.4585 17.0569 15.4585 17.6667C15.4585 18.2765 15.9528 18.7708 16.5627 18.7708Z" fill="#FFDA2D"/>
<path d="M5.27603 29.8124H19.0163C19.3652 29.8124 19.6633 29.6038 19.798 29.3056L10.4568 19.9644C9.96322 19.4708 9.16712 19.4598 8.6603 19.9401L4.41699 23.9593V28.9534C4.41699 29.4282 4.80124 29.8124 5.27603 29.8124Z" fill="#FFED96"/>
</svg>
