<svg width="16" height="10" viewBox="0 0 16 10" fill="none" xmlns="http://www.w3.org/2000/svg">
<path fill-rule="evenodd" clip-rule="evenodd" d="M16 0.498252C16 0.773429 15.7769 0.996504 15.5017 0.996504H3.67153C3.39635 0.996504 3.17328 0.773429 3.17328 0.498252C3.17328 0.223075 3.39635 0 3.67153 0H15.5017C15.7769 0 16 0.223075 16 0.498252ZM16 4.75C16 5.02518 15.7769 5.24825 15.5017 5.24825H7.9471C7.67193 5.24825 7.44885 5.02518 7.44885 4.75C7.44885 4.47482 7.67193 4.25175 7.9471 4.25175H15.5017C15.7769 4.25175 16 4.47482 16 4.75ZM16 9.00175C16 9.27693 15.7769 9.5 15.5017 9.5H3.67153C3.39635 9.5 3.17328 9.27693 3.17328 9.00175C3.17328 8.72657 3.39635 8.5035 3.67153 8.5035H15.5017C15.7769 8.5035 16 8.72657 16 9.00175Z" fill="#202124"/>
<path d="M0.14733 3.33073L1.57455 4.75001L0.14733 6.16928C-0.0491101 6.36462 -0.0491101 6.6825 0.14733 6.87785C0.342224 7.07166 0.65706 7.07166 0.851954 6.87785L2.63743 5.10232C2.8331 4.90774 2.8331 4.59227 2.63743 4.39769L0.851954 2.62216C0.65706 2.42835 0.342224 2.42835 0.14733 2.62216C-0.0491098 2.81751 -0.0491103 3.13539 0.14733 3.33073Z" fill="#202124"/>
</svg>
