<svg width="14" height="14" viewBox="0 0 14 14" fill="none" xmlns="http://www.w3.org/2000/svg">
<circle cx="7" cy="7" r="7" fill="#DD3646"/>
<path fill-rule="evenodd" clip-rule="evenodd" d="M7.03981 9.17532C6.72039 9.17532 6.46145 9.43425 6.46145 9.75367C6.46145 10.0731 6.72039 10.332 7.03981 10.332C7.35922 10.332 7.61816 10.0731 7.61816 9.75367C7.61816 9.43425 7.35922 9.17532 7.03981 9.17532ZM6.57052 7.69163C6.59219 7.9318 6.79405 8.11999 7.03985 8.11999C7.30012 8.11999 7.51111 7.90901 7.51111 7.64874V4.1367L7.50918 4.09381C7.48751 3.85365 7.28566 3.66545 7.03985 3.66545C6.77959 3.66545 6.5686 3.87644 6.5686 4.1367V7.64874L6.57052 7.69163Z" fill="white"/>
</svg>
