<svg width="13" height="14" viewBox="0 0 13 14" fill="none" xmlns="http://www.w3.org/2000/svg">
<path d="M6.5 0.5C2.91797 0.5 0 3.41797 0 7C0 10.582 2.91797 13.5 6.5 13.5C10.082 13.5 13 10.582 13 7C13 3.41797 10.082 0.5 6.5 0.5ZM6.5 1.5C9.54297 1.5 12 3.95703 12 7C12 8.33984 11.5195 9.56641 10.7266 10.5195L2.98047 2.77344C3.93359 1.98047 5.16016 1.5 6.5 1.5ZM2.27344 3.48047L10.0195 11.2266C9.06641 12.0195 7.83984 12.5 6.5 12.5C3.45703 12.5 1 10.043 1 7C1 5.66016 1.48047 4.43359 2.27344 3.48047Z" fill="#DD3646"/>
</svg>
