<svg width="12" height="12" viewBox="0 0 12 12" fill="none" xmlns="http://www.w3.org/2000/svg">
<path d="M6 0C2.69351 0 0 2.69351 0 6C0 9.30649 2.69351 12 6 12C9.30649 12 12 9.30649 12 6C12 2.69351 9.30649 0 6 0ZM6 0.923077C8.80889 0.923077 11.0769 3.19111 11.0769 6C11.0769 7.23678 10.6334 8.36899 9.90144 9.2488L2.7512 2.09856C3.63101 1.36659 4.76322 0.923077 6 0.923077ZM2.09856 2.7512L9.2488 9.90144C8.36899 10.6334 7.23678 11.0769 6 11.0769C3.19111 11.0769 0.923077 8.80889 0.923077 6C0.923077 4.76322 1.36659 3.63101 2.09856 2.7512Z" fill="#DD3646"/>
</svg>
