<svg width="14" height="10" viewBox="0 0 14 10" fill="none" xmlns="http://www.w3.org/2000/svg">
<path d="M1 0.5C0.723858 0.5 0.5 0.723858 0.5 1C0.5 1.27614 0.723858 1.5 1 1.5H13C13.2761 1.5 13.5 1.27614 13.5 1C13.5 0.723858 13.2761 0.5 13 0.5H1ZM3 4.5C2.72386 4.5 2.5 4.72386 2.5 5C2.5 5.27614 2.72386 5.5 3 5.5H11C11.2761 5.5 11.5 5.27614 11.5 5C11.5 4.72386 11.2761 4.5 11 4.5H3ZM5 8.5C4.72386 8.5 4.5 8.72386 4.5 9C4.5 9.27614 4.72386 9.5 5 9.5H9C9.27614 9.5 9.5 9.27614 9.5 9C9.5 8.72386 9.27614 8.5 9 8.5H5Z" fill="#202124"/>
</svg>
