<svg width="13" height="11" viewBox="0 0 13 11" fill="none" xmlns="http://www.w3.org/2000/svg">
<path d="M1.5 0C0.675781 0 0 0.675781 0 1.5V11H13V1.5C13 0.675781 12.3242 0 11.5 0H1.5ZM1.5 1H5.5C5.78125 1 6 1.21875 6 1.5V3H11.5C11.7812 3 12 3.21875 12 3.5V10H1V1.5C1 1.42969 1.01562 1.36328 1.03906 1.30469C1.11328 1.12109 1.28906 1 1.5 1ZM6.90625 1H11.5C11.7109 1 11.8867 1.12109 11.9609 1.30469C11.9844 1.36328 12 1.42969 12 1.5V2.09375C11.9336 2.07031 11.8711 2.04688 11.8008 2.03125C11.7031 2.01172 11.6016 2 11.5 2H7V1.5C7 1.32422 6.96094 1.15625 6.90625 1Z" fill="black"/>
</svg>
