<?xml version="1.0" encoding="UTF-8"?>
<svg width="12px" height="12px" viewBox="0 0 12 12" version="1.1" xmlns="http://www.w3.org/2000/svg" xmlns:xlink="http://www.w3.org/1999/xlink">
    <!-- Generator: Sketch 53.2 (72643) - https://sketchapp.com -->
    <title>close-blue-icon</title>
    <desc>Created with Sketch.</desc>
    <g id="Page-1" stroke="none" stroke-width="1" fill="none" fill-rule="evenodd">
        <g id="close-blue-icon" transform="translate(-2.000000, -2.000000)" fill-rule="nonzero">
            <polygon id="Path" fill-opacity="0" fill="#D8D8D8" points="0 0 16 0 16 16 0 16"></polygon>
            <path d="M13.1555302,2.11751812 C13.3586658,1.95038124 13.6586551,1.9615237 13.848934,2.15180261 C14.0503553,2.35322399 14.0503553,2.67978376 13.848934,2.88034802 L8.72854541,7.99987947 L13.8480769,13.1185538 C14.0494982,13.3199752 14.0494982,13.6465349 13.8480769,13.8488134 C13.6577979,14.0382352 13.3578087,14.0493777 13.1546731,13.8822408 L13.1178172,13.8479563 L8,8.7301391 L2.88132567,13.8496706 L2.84446984,13.8830979 C2.64133424,14.0502348 2.34134495,14.0390924 2.15106603,13.8488134 C1.94964466,13.6473921 1.94964466,13.3208323 2.15106603,13.120268 L7.27145459,7.99987947 L2.15106603,2.88120514 C1.94964466,2.67978376 1.94964466,2.35322399 2.15106603,2.1509455 C2.34134495,1.9615237 2.64133424,1.95038124 2.84446984,2.11751812 L2.88132567,2.15180261 L8,7.26961983 L13.1186743,2.1509455 L13.1555302,2.11751812 Z" id="Path" fill="#046CAD"></path>
        </g>
    </g>
</svg>