<svg width="16" height="16" viewBox="0 0 16 16" fill="none" xmlns="http://www.w3.org/2000/svg">
<path d="M5.6955 6.47415C5.6955 4.48164 7.6723 3.57416 9.12785 4.29443C10.0473 4.74941 10.6079 5.83968 10.4234 6.73224C10.2863 7.39542 9.99953 7.78333 9.42089 8.25647L9.19766 8.43352C8.63267 8.87676 8.47401 9.10649 8.47401 9.63871C8.47401 9.89663 8.26492 10.1057 8.007 10.1057C7.74907 10.1057 7.53999 9.89663 7.53999 9.63871C7.53999 8.80098 7.82085 8.35022 8.50362 7.79265L8.72389 7.61811C9.22586 7.2234 9.41742 6.98486 9.50871 6.54318C9.60551 6.07488 9.25932 5.40161 8.7136 5.13157C7.8284 4.69353 6.62952 5.24389 6.62952 6.47415C6.62952 6.73207 6.42044 6.94116 6.16251 6.94116C5.90459 6.94116 5.6955 6.73207 5.6955 6.47415Z" fill="#0D6EFD"/>
<path d="M8.61432 11.3812C8.61432 11.6956 8.3595 11.9504 8.04515 11.9504C7.73081 11.9504 7.47598 11.6956 7.47598 11.3812C7.47598 11.0669 7.73081 10.8121 8.04515 10.8121C8.3595 10.8121 8.61432 11.0669 8.61432 11.3812Z" fill="#0D6EFD"/>
<path fill-rule="evenodd" clip-rule="evenodd" d="M8.00003 0.888672C4.07267 0.888672 0.888916 4.07242 0.888916 7.99978C0.888916 11.9271 4.07267 15.1109 8.00003 15.1109C11.9274 15.1109 15.1111 11.9271 15.1111 7.99978C15.1111 4.07242 11.9274 0.888672 8.00003 0.888672ZM8.00003 1.94217C11.3456 1.94217 14.0576 4.65426 14.0576 7.99978C14.0576 11.3453 11.3456 14.0574 8.00003 14.0574C4.6545 14.0574 1.94241 11.3453 1.94241 7.99978C1.94241 4.65426 4.6545 1.94217 8.00003 1.94217Z" fill="#0D6EFD"/>
</svg>
