<svg width="16" height="16" viewBox="0 0 16 16" fill="none" xmlns="http://www.w3.org/2000/svg">
<path d="M5.6955 6.47439C5.6955 4.48189 7.6723 3.57441 9.12785 4.29467C10.0473 4.74965 10.6079 5.83992 10.4234 6.73248C10.2863 7.39566 9.99953 7.78358 9.42089 8.25671L9.19766 8.43376C8.63267 8.877 8.47401 9.10674 8.47401 9.63895C8.47401 9.89687 8.26492 10.106 8.007 10.106C7.74907 10.106 7.53999 9.89687 7.53999 9.63895C7.53999 8.80123 7.82085 8.35047 8.50362 7.79289L8.72389 7.61836C9.22586 7.22365 9.41742 6.9851 9.50871 6.54342C9.60551 6.07513 9.25932 5.40186 8.7136 5.13181C7.8284 4.69378 6.62952 5.24414 6.62952 6.47439C6.62952 6.73232 6.42044 6.9414 6.16251 6.9414C5.90459 6.9414 5.6955 6.73232 5.6955 6.47439Z" fill="#202124"/>
<path d="M8.61432 11.3815C8.61432 11.6958 8.3595 11.9506 8.04515 11.9506C7.73081 11.9506 7.47598 11.6958 7.47598 11.3815C7.47598 11.0671 7.73081 10.8123 8.04515 10.8123C8.3595 10.8123 8.61432 11.0671 8.61432 11.3815Z" fill="#202124"/>
<path fill-rule="evenodd" clip-rule="evenodd" d="M8.00003 0.888916C4.07267 0.888916 0.888916 4.07267 0.888916 8.00003C0.888916 11.9274 4.07267 15.1111 8.00003 15.1111C11.9274 15.1111 15.1111 11.9274 15.1111 8.00003C15.1111 4.07267 11.9274 0.888916 8.00003 0.888916ZM8.00003 1.94241C11.3456 1.94241 14.0576 4.6545 14.0576 8.00003C14.0576 11.3456 11.3456 14.0576 8.00003 14.0576C4.6545 14.0576 1.94241 11.3456 1.94241 8.00003C1.94241 4.6545 4.6545 1.94241 8.00003 1.94241Z" fill="#202124"/>
</svg>
