<svg width="16" height="4" viewBox="0 0 16 4" fill="none" xmlns="http://www.w3.org/2000/svg">
<path d="M3.5 2.2002C3.5 1.37177 2.82843 0.700195 2 0.700195C1.17157 0.700195 0.5 1.37177 0.5 2.2002C0.5 3.02862 1.17157 3.7002 2 3.7002C2.82843 3.7002 3.5 3.02862 3.5 2.2002Z" fill="#3C4043"/>
<path d="M8 0.700195C8.82843 0.700195 9.5 1.37177 9.5 2.2002C9.5 3.02862 8.82843 3.7002 8 3.7002C7.17157 3.7002 6.5 3.02862 6.5 2.2002C6.5 1.37177 7.17157 0.700195 8 0.700195Z" fill="#3C4043"/>
<path d="M14 0.700195C14.8284 0.700195 15.5 1.37177 15.5 2.2002C15.5 3.02862 14.8284 3.7002 14 3.7002C13.1716 3.7002 12.5 3.02862 12.5 2.2002C12.5 1.37177 13.1716 0.700195 14 0.700195Z" fill="#3C4043"/>
</svg>
