<svg width="12" height="12" viewBox="0 0 12 12" fill="none" xmlns="http://www.w3.org/2000/svg">
<path d="M6.46653 0.981253C6.445 0.742574 6.2444 0.555542 6.00011 0.555542C5.74145 0.555542 5.53177 0.765225 5.53177 1.02388V5.53165H1.024L0.981375 5.53356C0.742696 5.5551 0.555664 5.7557 0.555664 5.99999C0.555664 6.25864 0.765347 6.46833 1.024 6.46833H5.53177V10.9761L5.53368 11.0187C5.55522 11.2574 5.75582 11.4444 6.00011 11.4444C6.25877 11.4444 6.46845 11.2347 6.46845 10.9761V6.46833H10.9762L11.0188 6.46641C11.2575 6.44488 11.4446 6.24427 11.4446 5.99999C11.4446 5.74133 11.2349 5.53165 10.9762 5.53165H6.46845V1.02388L6.46653 0.981253Z" fill="#5F6368"/>
</svg>
