<svg width="12" height="12" viewBox="0 0 12 12" fill="none" xmlns="http://www.w3.org/2000/svg">
<path fill-rule="evenodd" clip-rule="evenodd" d="M1.65096 0C0.74379 0 0 0.675781 0 1.5V10.5C0 11.3242 0.74379 12 1.65096 12H10.349C11.2562 12 12 11.3242 12 10.5V1.5C12 0.675781 11.2562 0 10.349 0H1.65096ZM1.65096 1H10.349C10.6586 1 10.8994 1.21875 10.8994 1.5V4H6.0949C5.81876 4 5.5949 4.22386 5.5949 4.5C5.5949 4.77614 5.81876 5 6.0949 5H10.8994V8H6.0949C5.81876 8 5.5949 8.22386 5.5949 8.5C5.5949 8.77614 5.81876 9 6.0949 9H10.8994V10.5C10.8994 10.7812 10.6586 11 10.349 11H1.65096C1.3414 11 1.10064 10.7812 1.10064 10.5V9H3.99427C4.27041 9 4.49427 8.77614 4.49427 8.5C4.49427 8.22386 4.27041 8 3.99427 8H1.10064V5H3.99427C4.27041 5 4.49427 4.77614 4.49427 4.5C4.49427 4.22386 4.27041 4 3.99427 4H1.10064V1.5C1.10064 1.21875 1.3414 1 1.65096 1Z" fill="#202124"/>
</svg>
