<svg width="14" height="14" viewBox="0 0 14 14" fill="none" xmlns="http://www.w3.org/2000/svg">
<path fill-rule="evenodd" clip-rule="evenodd" d="M9 0V3H10V4H9L9.00035 6.12593C9.25789 6.05966 9.52548 6.01841 9.80036 6.0049L10 6H11V4L13.5 6.5L11 9V7H10C8.34314 7 7 8.34314 7 10C7 11.6569 8.34314 13 10 13C11.5977 13 12.9037 11.7511 12.9949 10.1763L13 10H14C14 12.2091 12.2091 14 10 14C8.51989 14 7.22755 13.1961 6.53577 12.0011L2 12C0.946046 12 0.0818719 11.1837 0.00548826 10.1492L0 10V0H9ZM7.99995 0.999946H0.999946V9.99995C0.999946 10.5124 1.38635 10.9354 1.8834 10.9932L1.99995 10.9999L6.12616 11.0007C6.04377 10.6809 5.99995 10.3455 5.99995 9.99995H4.99995V8.99995L6.12586 9.00033C6.2172 8.64532 6.35605 8.30937 6.53523 7.99967L4.99995 7.99995V6.99995H7.12495L7.1242 7.21964C7.38195 6.95309 7.67643 6.72228 7.99947 6.53535L7.99995 0.999946ZM3.99989 10.0001V9.00008H1.99989V10.0001H3.99989ZM3.99989 7V8H1.99989V7H3.99989ZM7.00011 5.99992V4.99992H5.00011V5.99992H7.00011ZM3.99989 4.99992V5.99992H1.99989V4.99992H3.99989ZM6.99989 4.00003V3.00003H1.99989V4.00003H6.99989Z" fill="#202124"/>
</svg>
