<svg width="16" height="11" viewBox="0 0 16 11" fill="none" xmlns="http://www.w3.org/2000/svg">
<path fill-rule="evenodd" clip-rule="evenodd" d="M7.99978 2.85921C6.61793 2.85921 5.49773 3.97942 5.49773 5.36127C5.49773 6.74312 6.61793 7.86333 7.99978 7.86333C9.38163 7.86333 10.5018 6.74312 10.5018 5.36127C10.5018 3.97942 9.38163 2.85921 7.99978 2.85921ZM7.99978 3.91271C8.7998 3.91271 9.44834 4.56125 9.44834 5.36127C9.44834 6.16129 8.7998 6.80983 7.99978 6.80983C7.19977 6.80983 6.55122 6.16129 6.55122 5.36127C6.55122 4.56125 7.19977 3.91271 7.99978 3.91271Z" fill="#202124"/>
<path fill-rule="evenodd" clip-rule="evenodd" d="M7.99978 0.554688C5.06661 0.554688 2.70477 2.15023 0.955873 5.27204C0.857952 5.44683 0.867667 5.66204 0.980939 5.82729C2.97843 8.74152 5.3252 10.2286 7.99978 10.2286C10.6744 10.2286 13.0211 8.74152 15.0186 5.82729C15.1319 5.66204 15.1416 5.44683 15.0437 5.27204C13.2948 2.15023 10.933 0.554688 7.99978 0.554688ZM8.12987 1.60941C10.5066 1.65422 12.4382 2.93189 13.9603 5.50152L13.9543 5.51031C12.1878 7.97144 10.2093 9.17512 7.99978 9.17512L7.87727 9.17388C5.75856 9.13095 3.85371 7.97175 2.14556 5.64833L2.03938 5.50149C3.58901 2.88517 5.56332 1.60819 7.99978 1.60819L8.12987 1.60941Z" fill="#202124"/>
</svg>
