<svg width="120" height="120" viewBox="0 0 120 120" fill="none" xmlns="http://www.w3.org/2000/svg">
<g opacity="0.4">
<path d="M40 90H110V95C110 100.523 105.522 105 100 105H40V90Z" fill="#00B3D7"/>
<path d="M80 15H20C14.4775 15 10 19.4775 10 25V30H70V25C70 19.4775 74.4775 15 80 15Z" fill="#3DD9EB"/>
<path d="M100 105H35C29.4775 105 25 100.522 25 95V25C25 19.4775 29.4775 15 35 15H80C85.5225 15 90 19.4775 90 25V95C90 100.522 94.4775 105 100 105Z" fill="#3DD9EB"/>
<path d="M25 95V90H90V95C90 100.523 94.4775 105 100 105H35C29.4775 105 25 100.523 25 95Z" fill="#3DD9EB"/>
<path d="M70 25V30H25V15H80C74.4775 15 70 19.4775 70 25Z" fill="#00B3D7"/>
<path d="M77.5 45H37.5V52.5H77.5V45Z" fill="#00B3D7"/>
<path d="M77.5 60H37.5V67.5H77.5V60Z" fill="#00B3D7"/>
<path d="M77.5 75H37.5V82.5H77.5V75Z" fill="#00B3D7"/>
</g>
</svg>
