<svg width="16" height="16" viewBox="0 0 16 16" fill="none" xmlns="http://www.w3.org/2000/svg">
<path d="M5.69547 6.47439C5.69547 4.48189 7.67227 3.57441 9.12782 4.29467C10.0473 4.74965 10.6079 5.83992 10.4234 6.73248C10.2863 7.39566 9.9995 7.78358 9.42086 8.25671L9.19763 8.43376C8.63264 8.877 8.47398 9.10674 8.47398 9.63895C8.47398 9.89687 8.26489 10.106 8.00697 10.106C7.74904 10.106 7.53995 9.89687 7.53995 9.63895C7.53995 8.80123 7.82082 8.35047 8.50358 7.79289L8.72386 7.61836C9.22583 7.22365 9.41739 6.9851 9.50868 6.54342C9.60548 6.07513 9.25929 5.40186 8.71357 5.13181C7.82837 4.69378 6.62949 5.24414 6.62949 6.47439C6.62949 6.73232 6.42041 6.9414 6.16248 6.9414C5.90456 6.9414 5.69547 6.73232 5.69547 6.47439Z" fill="#9AA0A6"/>
<path d="M8.61429 11.3815C8.61429 11.6958 8.35947 11.9506 8.04512 11.9506C7.73078 11.9506 7.47595 11.6958 7.47595 11.3815C7.47595 11.0671 7.73078 10.8123 8.04512 10.8123C8.35947 10.8123 8.61429 11.0671 8.61429 11.3815Z" fill="#9AA0A6"/>
<path fill-rule="evenodd" clip-rule="evenodd" d="M8 0.888916C4.07264 0.888916 0.888885 4.07267 0.888885 8.00003C0.888885 11.9274 4.07264 15.1111 8 15.1111C11.9274 15.1111 15.1111 11.9274 15.1111 8.00003C15.1111 4.07267 11.9274 0.888916 8 0.888916ZM8 1.94241C11.3455 1.94241 14.0576 4.6545 14.0576 8.00003C14.0576 11.3456 11.3455 14.0576 8 14.0576C4.65447 14.0576 1.94238 11.3456 1.94238 8.00003C1.94238 4.6545 4.65447 1.94241 8 1.94241Z" fill="#9AA0A6"/>
</svg>
