<svg width="10" height="24" viewBox="0 0 10 24" fill="none" xmlns="http://www.w3.org/2000/svg">
<path d="M4.98757 0.78916C4.77567 0.792472 4.57374 0.87972 4.4261 1.03176C4.27845 1.18379 4.19716 1.38819 4.20007 1.6001V20.4688L1.56569 17.8345C1.49114 17.7578 1.40198 17.6969 1.30349 17.6553C1.205 17.6137 1.09917 17.5923 0.992253 17.5923C0.833107 17.5923 0.677588 17.6398 0.545581 17.7287C0.413573 17.8176 0.311074 17.9439 0.251188 18.0913C0.191303 18.2388 0.176751 18.4007 0.209394 18.5565C0.242038 18.7122 0.320392 18.8547 0.434441 18.9657L4.36413 22.8954C4.43858 22.9931 4.53454 23.0724 4.64455 23.127C4.75456 23.1816 4.87568 23.2102 4.99851 23.2105C5.12135 23.2108 5.24261 23.1828 5.35289 23.1287C5.46317 23.0746 5.55951 22.9959 5.63444 22.8985C5.63549 22.897 5.63653 22.8954 5.63757 22.8938L9.56569 18.9657C9.64247 18.892 9.70377 18.8037 9.746 18.706C9.78823 18.6083 9.81054 18.5032 9.81162 18.3967C9.8127 18.2903 9.79254 18.1847 9.75231 18.0862C9.71208 17.9876 9.65259 17.8981 9.57732 17.8228C9.50206 17.7476 9.41254 17.6881 9.31399 17.6479C9.21545 17.6076 9.10987 17.5875 9.00344 17.5885C8.89701 17.5896 8.79186 17.6119 8.69415 17.6542C8.59645 17.6964 8.50816 17.7577 8.43444 17.8345L5.80007 20.4688V1.6001C5.80153 1.49307 5.78151 1.38683 5.74117 1.28768C5.70084 1.18852 5.64102 1.09847 5.56526 1.02286C5.4895 0.947239 5.39933 0.887594 5.3001 0.847452C5.20087 0.80731 5.09459 0.787488 4.98757 0.78916Z" fill="black"/>
</svg>
