<svg width="9" height="15" viewBox="0 0 9 15" fill="none" xmlns="http://www.w3.org/2000/svg">
<path fill-rule="evenodd" clip-rule="evenodd" d="M4.56158 1.10956L1.1711 4.11481L1.132 4.15264C0.922076 4.37438 0.911231 4.7163 1.11553 4.93987L1.153 4.97727C1.37317 5.17748 1.72116 5.17885 1.95444 4.97208L4.31642 2.87825V13.6773L4.31888 13.7297C4.34658 14.0232 4.60466 14.2531 4.91893 14.2531C5.25169 14.2531 5.52145 13.9953 5.52145 13.6773V2.83409L7.85825 4.8934L7.89963 4.92661C8.14062 5.10244 8.48781 5.06792 8.69836 4.83881C8.9213 4.59623 8.90662 4.22737 8.66557 4.01493L5.35691 1.09896L5.31631 1.06632C5.09362 0.903382 4.77695 0.918663 4.56158 1.10956Z" fill="#09A624"/>
</svg>
