<svg width="11" height="13" viewBox="0 0 11 13" fill="none" xmlns="http://www.w3.org/2000/svg">
<path d="M3.5 0C2.67578 0 2 0.675781 2 1.5V4.80859L0.539063 6.41406C0.53125 6.42578 0.519531 6.43359 0.511719 6.44531C0.15625 6.90625 0 7.44922 0 8C0 8.87109 0.542969 9.69922 1.03516 10.4062C1.51172 11.0859 1.95312 11.5742 1.98438 11.6094C2.67578 12.5664 3.86719 13 5 13H7C9.1875 13 11 11.2148 11 9.01953V5.5C11 4.80859 10.4805 4.3125 9.84375 4.14062C9.75 4.05469 9.62891 4.00391 9.5 4C9.27344 4 9.0625 4.05469 8.87109 4.14844C8.63672 3.62109 8.10938 3.25 7.5 3.25C7.37109 3.25391 7.25 3.30469 7.15625 3.39062C6.97656 3.44141 6.80859 3.52344 6.65625 3.625C6.44531 3.39453 6.16016 3.22656 5.84375 3.14062C5.75 3.05469 5.62891 3.00391 5.5 3C5.32422 3 5.15625 3.03906 5 3.09375V1.5C5 0.675781 4.32422 0 3.5 0ZM3.5 1C3.78125 1 4 1.21875 4 1.5V6H5V4.5C5 4.21875 5.21875 4 5.5 4C5.78125 4 6 4.21875 6 4.5V6H7V4.75C7 4.46875 7.21875 4.25 7.5 4.25C7.78125 4.25 8 4.46875 8 4.75V6H9V5.5C9 5.21875 9.21875 5 9.5 5C9.78125 5 10 5.21875 10 5.5V9.01953C10 10.6641 8.64844 12 7 12H5C4.13281 12 3.23828 11.6406 2.79688 11.0273C2.78516 11.0117 2.77344 10.9961 2.76172 10.9844C2.76172 10.9844 2.30859 10.4805 1.85547 9.83203C1.40234 9.1875 1 8.35938 1 8C1 7.625 1.08594 7.33984 1.30469 7.05469L2 6.28906V8H3V1.5C3 1.21875 3.21875 1 3.5 1Z" fill="black"/>
</svg>
