<svg width="14" height="14" viewBox="0 0 14 14" fill="none" xmlns="http://www.w3.org/2000/svg">
<path d="M7 0C4.94291 0 3.10036 0.900241 1.81731 2.31791L0 0.500601V4.30769H3.80709L2.57873 3.07933C3.66406 1.85517 5.23317 1.07692 7 1.07692C10.277 1.07692 12.9231 3.72296 12.9231 7C12.9231 10.277 10.277 12.9231 7 12.9231C3.72296 12.9231 1.07692 10.277 1.07692 7V6.46154H0V7C0 10.8618 3.13822 14 7 14C10.8618 14 14 10.8618 14 7C14 3.13822 10.8618 0 7 0ZM6.46154 2.15385V7.53846H9.69231V6.46154H7.53846V2.15385H6.46154Z" fill="#171717"/>
</svg>
