<svg width="11" height="10" viewBox="0 0 11 10" fill="none" xmlns="http://www.w3.org/2000/svg">
<path d="M5.875 5.00009L10.0215 0.853553C10.2168 0.658291 10.2168 0.341709 10.0215 0.146447C9.82626 -0.0488157 9.50968 -0.0488154 9.31442 0.146447L5.16787 4.293L1.02152 0.146814C0.826257 -0.0484444 0.509675 -0.048438 0.314417 0.146828C0.119158 0.342094 0.119165 0.658677 0.314431 0.853935L4.46077 5.0001L0.314415 9.14646C0.119153 9.34173 0.119153 9.65831 0.314416 9.85357C0.509678 10.0488 0.826261 10.0488 1.02152 9.85357L5.16789 5.7072L9.31443 9.85357C9.5097 10.0488 9.82628 10.0488 10.0215 9.85355C10.2168 9.65829 10.2168 9.34171 10.0215 9.14645L5.875 5.00009Z" fill="#202124"/>
</svg>
