<svg width="10" height="10" viewBox="0 0 10 10" fill="none" xmlns="http://www.w3.org/2000/svg">
<path fill-rule="evenodd" clip-rule="evenodd" d="M9.49842 0.851863C9.48062 0.654587 9.31481 0.5 9.1129 0.5H3.45766L3.42243 0.501582C3.22515 0.519382 3.07056 0.685186 3.07056 0.887097V3.07056H0.887097C0.673309 3.07056 0.5 3.24387 0.5 3.45766V9.1129C0.5 9.32669 0.673309 9.5 0.887097 9.5H6.54234C6.75613 9.5 6.92944 9.32669 6.92944 9.1129V6.92944H9.1129L9.14814 6.92785C9.34541 6.91005 9.5 6.74425 9.5 6.54234V0.887097L9.49842 0.851863ZM6.92944 6.15524H8.72581V1.27419H3.84476V3.07056H6.54234C6.75613 3.07056 6.92944 3.24387 6.92944 3.45766V6.15524ZM6.15524 3.84476V8.72581H1.27419V3.84476H6.15524Z" fill="#0D6EFD"/>
</svg>
