<svg width="12" height="12" viewBox="0 0 12 12" fill="none" xmlns="http://www.w3.org/2000/svg">
<path d="M5.02213 4.93363C5.29242 4.93363 5.51437 5.14057 5.5382 5.40465L5.54031 5.45182V8.74091C5.54031 9.02709 5.30831 9.25909 5.02213 9.25909C4.75184 9.25909 4.52989 9.05216 4.50606 8.78807L4.50394 8.74091V5.45182C4.50394 5.16563 4.73594 4.93363 5.02213 4.93363Z" fill="#DD3646"/>
<path d="M7.73092 5.40465C7.7071 5.14057 7.48514 4.93363 7.21485 4.93363C6.92867 4.93363 6.69667 5.16563 6.69667 5.45182V8.74091L6.69878 8.78807C6.72261 9.05216 6.94457 9.25909 7.21485 9.25909C7.50104 9.25909 7.73304 9.02709 7.73304 8.74091V5.45182L7.73092 5.40465Z" fill="#DD3646"/>
<path fill-rule="evenodd" clip-rule="evenodd" d="M7.21485 0C8.08308 0 8.79124 0.685314 8.82791 1.54451L8.8294 1.61455V2.19273H11.0521C11.3383 2.19273 11.5703 2.42473 11.5703 2.71091C11.5703 2.9812 11.3634 3.20315 11.0993 3.22698L11.0521 3.2291H10.4739V10.3855C10.4739 11.2537 9.78863 11.9618 8.92943 11.9985L8.8594 12H3.37758C2.50936 12 1.8012 11.3147 1.76453 10.4555L1.76303 10.3855V3.2291H1.18486C0.898672 3.2291 0.666672 2.9971 0.666672 2.71091C0.666672 2.44062 0.87361 2.21867 1.13769 2.19484L1.18486 2.19273H3.40758V1.61455C3.40758 0.746324 4.09289 0.0381621 4.95209 0.00149169L5.02213 0H7.21485ZM2.79941 3.2291V10.3855C2.79941 10.6888 3.03303 10.9376 3.33016 10.9617L3.37758 10.9636H8.8594C9.16275 10.9636 9.41154 10.73 9.43566 10.4329L9.43757 10.3855V3.2291H2.79941ZM7.79303 2.19273H4.44395V1.61455L4.44587 1.56713C4.46999 1.26999 4.71878 1.03637 5.02213 1.03637H7.21485L7.26227 1.03829C7.55941 1.06241 7.79303 1.3112 7.79303 1.61455V2.19273Z" fill="#DD3646"/>
</svg>
