<svg width="10" height="9" viewBox="0 0 10 9" fill="none" xmlns="http://www.w3.org/2000/svg">
<path fill-rule="evenodd" clip-rule="evenodd" d="M5 0C2.52013 0 0.5 2.02013 0.5 4.5C0.5 6.97987 2.52013 9 5 9C7.47987 9 9.5 6.97987 9.5 4.5C9.5 2.02013 7.47987 0 5 0ZM5 0.692308C7.10667 0.692308 8.80769 2.39333 8.80769 4.5C8.80769 6.60667 7.10667 8.30769 5 8.30769C2.89333 8.30769 1.19231 6.60667 1.19231 4.5C1.19231 2.39333 2.89333 0.692308 5 0.692308ZM3.3235 3.71085C3.18602 3.57916 2.96779 3.58393 2.8362 3.7215C2.70487 3.8588 2.70948 4.0765 2.8465 4.20812L4.78913 6.07418C4.90694 6.18735 5.09306 6.18735 5.21087 6.07418L7.1535 4.20812C7.29052 4.0765 7.29513 3.8588 7.1638 3.7215C7.03221 3.58393 6.81398 3.57916 6.6765 3.71085L5.08794 5.23247C5.03877 5.27957 4.96123 5.27957 4.91206 5.23247L3.3235 3.71085Z" fill="#0D6EFD"/>
</svg>
