<svg width="16" height="16" viewBox="0 0 16 16" fill="none" xmlns="http://www.w3.org/2000/svg">
<rect width="16" height="16" fill="#D8D8D8" fill-opacity="0.01"/>
<path d="M7.46661 4.26672C8.1539 4.26672 8.71106 3.70956 8.71106 3.02228C8.71106 2.33499 8.1539 1.77783 7.46661 1.77783C6.77932 1.77783 6.22217 2.33499 6.22217 3.02228C6.22217 3.70956 6.77932 4.26672 7.46661 4.26672Z" fill="#202124"/>
<path d="M8.71106 8.00005C8.71106 8.68734 8.1539 9.2445 7.46661 9.2445C6.77932 9.2445 6.22217 8.68734 6.22217 8.00005C6.22217 7.31277 6.77932 6.75561 7.46661 6.75561C8.1539 6.75561 8.71106 7.31277 8.71106 8.00005Z" fill="#202124"/>
<path d="M8.71106 12.9778C8.71106 13.6651 8.1539 14.2223 7.46661 14.2223C6.77932 14.2223 6.22217 13.6651 6.22217 12.9778C6.22217 12.2905 6.77932 11.7334 7.46661 11.7334C8.1539 11.7334 8.71106 12.2905 8.71106 12.9778Z" fill="#202124"/>
</svg>
