<svg width="12" height="12" viewBox="0 0 12 12" fill="none" xmlns="http://www.w3.org/2000/svg">
<path d="M5.81996 0.00146586C5.94046 -0.00764543 6.06594 0.0253604 6.1735 0.110503L6.20724 0.139508L9.59012 3.28993C9.79879 3.48427 9.81042 3.81097 9.61609 4.01964C9.43318 4.21604 9.13303 4.23789 8.92437 4.07776L8.88638 4.04561L6.37575 1.70743L6.39454 7.28135C6.39545 7.55066 6.19001 7.77251 5.92696 7.79714L5.87998 7.7994C5.61067 7.80031 5.38882 7.59487 5.36419 7.33183L5.36193 7.28484L5.34307 1.70326L2.78102 4.26531C2.57939 4.46694 2.25248 4.46694 2.05085 4.26531C1.86108 4.07554 1.84992 3.77479 2.01736 3.57197L2.05085 3.53514L5.43373 0.152259C5.53992 0.0460634 5.68087 -0.00420085 5.81996 0.00146586Z" fill="#202124"/>
<path d="M11.0324 7.83414C11.3017 7.83414 11.5228 8.04033 11.5466 8.30345L11.5487 8.35045V11.4837C11.5487 11.753 11.3425 11.9741 11.0793 11.9979L11.0324 12H0.849316C0.580009 12 0.358859 11.7938 0.335118 11.5307L0.333008 11.4837V8.35045C0.333008 8.0653 0.564167 7.83414 0.849316 7.83414C1.11862 7.83414 1.33977 8.04033 1.36351 8.30345L1.36562 8.35045L1.3653 10.9671H10.5159L10.516 8.35045C10.516 8.08114 10.7222 7.85999 10.9854 7.83625L11.0324 7.83414Z" fill="#202124"/>
</svg>
