<svg width="16" height="16" viewBox="0 0 16 16" fill="none" xmlns="http://www.w3.org/2000/svg">
<path d="M2.5 1C1.67747 1 1 1.67747 1 2.5V12.5C1 13.3225 1.67747 14 2.5 14H12.5C13.3225 14 14 13.3225 14 12.5V11H13V12.5C13 12.7815 12.7815 13 12.5 13H2.5C2.21853 13 2 12.7815 2 12.5V2.5C2 2.21853 2.21853 2 2.5 2H12.5C12.7815 2 13 2.21853 13 2.5V4H14V2.5C14 1.67747 13.3225 1 12.5 1H2.5ZM10.7285 4.02148L10.0215 4.72852L12.293 7H5V8H12.293L10.0215 10.2715L10.7285 10.9785L14.207 7.5L10.7285 4.02148Z" fill="black"/>
</svg>
