<svg width="10" height="10" viewBox="0 0 10 10" fill="none" xmlns="http://www.w3.org/2000/svg">
<path d="M4.72627 9.5C4.50866 9.5 4.33225 9.32359 4.33225 9.10598C4.33225 8.90045 4.4896 8.73168 4.6904 8.71357L4.72627 8.71196H8.01105C8.38433 8.71196 8.68945 8.42016 8.71077 8.05223L8.71196 8.01105V1.98895C8.71196 1.61568 8.42016 1.31055 8.05223 1.28923L8.01105 1.28804H1.98895C1.61568 1.28804 1.31055 1.57984 1.28923 1.94777L1.28804 1.98895V5.27373C1.28804 5.49134 1.11163 5.66775 0.894022 5.66775C0.688499 5.66775 0.519728 5.5104 0.50161 5.3096L0.5 5.27373V1.98895C0.5 1.18531 1.13667 0.530382 1.93313 0.501027L1.98895 0.5H8.01105C8.81469 0.5 9.46962 1.13667 9.49897 1.93313L9.5 1.98895V8.01105C9.5 8.81469 8.86333 9.46962 8.06687 9.49897L8.01105 9.5H4.72627Z" fill="#9AA0A6"/>
<path d="M6.50217 3.20299C6.7077 3.20299 6.87647 3.36034 6.89459 3.56114L6.8962 3.59701L6.8962 5.78686C6.8962 6.00448 6.71979 6.18089 6.50217 6.18089C6.29665 6.18089 6.12788 6.02353 6.10976 5.82273L6.10815 5.78686L6.10799 4.55292L2.28528 8.37564C2.13141 8.52951 1.88193 8.52951 1.72805 8.37564C1.58323 8.23081 1.57471 8.0013 1.70249 7.84651L1.72805 7.8184L5.55559 3.99086L4.31232 3.99103C4.1068 3.99103 3.93803 3.83368 3.91991 3.63287L3.9183 3.59701C3.9183 3.39149 4.07565 3.22271 4.27646 3.2046L4.31232 3.20299H6.50217Z" fill="#9AA0A6"/>
</svg>
