<svg width="19" height="12" viewBox="0 0 19 12" fill="none" xmlns="http://www.w3.org/2000/svg">
<path d="M9.5697 0C3.23598 0 0.86084 6 0.86084 6C0.86084 6 3.23598 12 9.5697 12C15.9034 12 18.2786 6 18.2786 6C18.2786 6 15.9034 0 9.5697 0ZM9.5697 1.5C13.7468 1.5 15.8596 4.70032 16.5436 5.99707C15.8588 7.28482 13.7302 10.5 9.5697 10.5C5.39261 10.5 3.27985 7.29968 2.59581 6.00293C3.28143 4.71518 5.40924 1.5 9.5697 1.5ZM9.5697 3C7.8208 3 6.40284 4.34325 6.40284 6C6.40284 7.65675 7.8208 9 9.5697 9C11.3186 9 12.7366 7.65675 12.7366 6C12.7366 4.34325 11.3186 3 9.5697 3ZM9.5697 4.5C10.4445 4.5 11.1531 5.17125 11.1531 6C11.1531 6.82875 10.4445 7.5 9.5697 7.5C8.69486 7.5 7.98627 6.82875 7.98627 6C7.98627 5.17125 8.69486 4.5 9.5697 4.5Z" fill="black"/>
</svg>
