<svg width="26" height="26" viewBox="0 0 26 26" fill="none" xmlns="http://www.w3.org/2000/svg">
<circle cx="13" cy="13" r="13" fill="#DD3646"/>
<rect x="6" y="6" width="14" height="14" fill="#D8D8D8" fill-opacity="0.01"/>
<path fill-rule="evenodd" clip-rule="evenodd" d="M13.0319 16.0473C13.4791 16.0473 13.8416 16.4098 13.8416 16.857C13.8416 17.3042 13.4791 17.6667 13.0319 17.6667C12.5847 17.6667 12.2222 17.3042 12.2222 16.857C12.2222 16.4098 12.5847 16.0473 13.0319 16.0473ZM13.689 13.9703C13.6586 14.3065 13.376 14.57 13.0319 14.57C12.6675 14.57 12.3721 14.2746 12.3721 13.9102V8.99319L12.3748 8.93314C12.4052 8.5969 12.6878 8.33342 13.0319 8.33342C13.3963 8.33342 13.6917 8.62881 13.6917 8.99319V13.9102L13.689 13.9703Z" fill="white"/>
</svg>
