<svg width="12" height="12" viewBox="0 0 12 12" fill="none" xmlns="http://www.w3.org/2000/svg">
<path d="M11.6775 9.72282L11.6805 9.72212L8.25052 3.52941V1.41176H9.00057C9.4146 1.41176 9.75062 1.09553 9.75062 0.705882C9.75062 0.316235 9.4146 0 9.00057 0H8.25052H3.7502H3.00014C2.58611 0 2.25009 0.316235 2.25009 0.705882C2.25009 1.09553 2.58611 1.41176 3.00014 1.41176H3.7502V3.52941L0.320202 9.72212L0.323202 9.72282C0.132689 9.95153 0.0111799 10.2332 0.00067915 10.5438C-0.0263228 11.3449 0.755983 12 1.60729 12H10.3927C11.244 12 12.027 11.3449 11.9993 10.5438C11.9895 10.2332 11.868 9.95153 11.6775 9.72282Z" fill="#FFBCA5"/>
</svg>
