<svg width="13" height="14" viewBox="0 0 13 14" fill="none" xmlns="http://www.w3.org/2000/svg">
<path d="M10.3789 0.992188C9.70705 0.992188 9.02736 1.23828 8.53908 1.72656L6.73049 3.53516C6.69924 3.56641 6.6758 3.60547 6.64846 3.64062L7.35158 4.34375C7.38283 4.3125 7.40627 4.27344 7.43752 4.24219L9.24611 2.4375C9.5508 2.13281 9.95314 1.96875 10.3789 1.96875C10.8086 1.96875 11.211 2.13281 11.5313 2.45312C12.1563 3.07812 12.1563 4.09766 11.5313 4.72656L9.72658 6.53125C9.69533 6.5625 9.65627 6.58594 9.62502 6.61719L10.3281 7.32031C10.3633 7.29297 10.4024 7.26953 10.4336 7.23828L12.2383 5.42969C13.2578 4.41406 13.2578 2.76172 12.2227 1.72656C11.7305 1.23828 11.0547 0.992188 10.3789 0.992188ZM2.51564 2.99609C2.31252 2.99609 2.12892 3.12109 2.05471 3.30859C1.97658 3.49609 2.02346 3.71484 2.17189 3.85547L4.17189 5.85547C4.36721 6.05078 4.68361 6.05078 4.87892 5.85547C5.07424 5.66016 5.07424 5.33984 4.87502 5.14844L2.87502 3.14844C2.78127 3.05078 2.65236 2.99609 2.51564 2.99609ZM2.76564 7.58594C2.71096 7.63281 2.64846 7.67187 2.59377 7.72656L0.785174 9.53516C-0.230451 10.5508 -0.230451 12.2031 0.804706 13.2383C1.31252 13.7461 1.98049 14 2.64846 14C3.31252 14 3.98049 13.7461 4.4883 13.2383L6.29689 11.4336C6.35158 11.375 6.39064 11.3125 6.43752 11.2539L5.73439 10.5469C5.68752 10.6094 5.64455 10.668 5.58596 10.7227L3.78127 12.5312C3.15236 13.1562 2.13674 13.1562 1.49221 12.5117C1.18752 12.207 1.02346 11.8047 1.02346 11.375C1.02346 10.9492 1.18752 10.5469 1.49221 10.2422L3.3008 8.4375C3.35549 8.38281 3.41408 8.33984 3.47658 8.29297L2.76564 7.58594ZM8.51564 8.99609C8.31252 8.99609 8.12892 9.12109 8.05471 9.30859C7.97658 9.49609 8.02346 9.71484 8.17189 9.85547L10.1719 11.8555C10.3672 12.0508 10.6836 12.0508 10.8789 11.8555C11.0742 11.6602 11.0742 11.3398 10.875 11.1445L8.87502 9.14844C8.78127 9.05078 8.65236 8.99609 8.51564 8.99609Z" fill="#FF281B"/>
</svg>
