<svg width="13" height="14" viewBox="0 0 13 14" fill="none" xmlns="http://www.w3.org/2000/svg">
<path d="M5.5 0C4.67578 0 4 0.675781 4 1.5L4.00391 7.88281L2.5625 6.4375C1.98047 5.85547 1.01953 5.85938 0.437501 6.4375C-0.14453 7.01953 -0.140624 7.98047 0.437501 8.5625L4.03125 12.1523C5.21484 13.3359 6.82422 14.0039 8.5 14C10.9805 14 13 11.9805 13 9.5V6.5C13 5.67578 12.3242 5 11.5 5C11.3047 5 11.1133 5.03906 10.9414 5.10938C10.7656 4.47656 10.1875 4 9.5 4C9.11719 4 8.76563 4.15234 8.5 4.39062C8.23438 4.15234 7.88281 4 7.5 4C7.32422 4 7.15625 4.03906 7 4.09375V1.5C7 0.675781 6.32422 0 5.5 0ZM5.5 1C5.78125 1 6 1.21875 6 1.5V7H7V5.5C7 5.21875 7.21875 5 7.5 5C7.78125 5 8 5.21875 8 5.5V7H9V5.5C9 5.21875 9.21875 5 9.5 5C9.78125 5 10 5.21875 10 5.5V7H11V6.5C11 6.21875 11.2188 6 11.5 6C11.7813 6 12 6.21875 12 6.5V9.5C12 11.4414 10.4414 13 8.5 13C7.08984 13.0039 5.73438 12.4414 4.73438 11.4414L1.14844 7.85156C0.945314 7.65234 0.945314 7.34375 1.14844 7.14844C1.34766 6.94531 1.65625 6.94531 1.85156 7.14844L5.00391 10.2969L5 1.5C5 1.21875 5.21875 1 5.5 1Z" fill="#9AA0A6"/>
</svg>
