<svg width="14" height="14" viewBox="0 0 14 14" fill="none" xmlns="http://www.w3.org/2000/svg">
<path fill-rule="evenodd" clip-rule="evenodd" d="M0.777832 6.99957C0.777832 3.56313 3.56362 0.777344 7.00005 0.777344C10.4365 0.777344 13.2223 3.56313 13.2223 6.99957C13.2223 10.436 10.4365 13.2218 7.00005 13.2218C3.56362 13.2218 0.777832 10.436 0.777832 6.99957ZM12.3005 6.99957C12.3005 4.07223 9.92739 1.69915 7.00005 1.69915C4.07272 1.69915 1.69964 4.07223 1.69964 6.99957C1.69964 9.9269 4.07272 12.3 7.00005 12.3C9.92739 12.3 12.3005 9.9269 12.3005 6.99957ZM7.00005 6.05178C7.24046 6.05178 7.43788 6.23584 7.45908 6.47074L7.46096 6.51269V9.94759C7.46096 10.2021 7.25461 10.4085 7.00005 10.4085C6.75964 10.4085 6.56223 10.2244 6.54103 9.98955L6.53915 9.94759V6.51269C6.53915 6.25814 6.7455 6.05178 7.00005 6.05178ZM7.00005 5.01977C7.31246 5.01977 7.56571 4.76652 7.56571 4.45411C7.56571 4.14171 7.31246 3.88845 7.00005 3.88845C6.68765 3.88845 6.4344 4.14171 6.4344 4.45411C6.4344 4.76652 6.68765 5.01977 7.00005 5.01977Z" fill="#202124"/>
</svg>
