<svg width="16" height="16" viewBox="0 0 16 16" fill="none" xmlns="http://www.w3.org/2000/svg">
<path d="M8 1C4.14243 1 1 4.14243 1 8C1 11.8576 4.14243 15 8 15C11.8576 15 15 11.8576 15 8C15 4.14243 11.8576 1 8 1ZM8 2.07692C11.277 2.07692 13.9231 4.72296 13.9231 8C13.9231 11.277 11.277 13.9231 8 13.9231C4.72296 13.9231 2.07692 11.277 2.07692 8C2.07692 4.72296 4.72296 2.07692 8 2.07692ZM7.46154 4.23077V5.30769H8.53846V4.23077H7.46154ZM7.46154 6.38462V11.7692H8.53846V6.38462H7.46154Z" fill="black"/>
</svg>
