<svg width="12" height="14" viewBox="0 0 12 14" fill="none" xmlns="http://www.w3.org/2000/svg">
<path fill-rule="evenodd" clip-rule="evenodd" d="M1.5 11H5.58606L6.58606 12H1.5C0.672974 12 0 11.327 0 10.5V1.5C0 0.672997 0.672974 0 1.5 0H6.70703L10 3.293V7H9V4H6V1H1.5C1.224 1 1 1.225 1 1.5V10.5C1 10.775 1.224 11 1.5 11ZM7 1.70702V3H8.29297L7 1.70702Z" fill="black"/>
<path d="M6.5 6H3.5V7H6.5V6Z" fill="black"/>
<path d="M5.5 8H3.5V9H5.5V8Z" fill="black"/>
<path d="M9.5 13.5L7 11H9V8H10V11H12L9.5 13.5Z" fill="black"/>
</svg>
