<svg xmlns="http://www.w3.org/2000/svg" fill="none" viewBox="0 0 546 322"><path fill="#202124" d="M498.095 290.115a.765.765 0 0 1-.77-.74l-2.932-82.57a.77.77 0 0 1 1.295-.589c.15.139.238.331.245.535l2.932 82.569a.768.768 0 0 1-.742.794l-.028.001z"/><path fill="#202124" d="M495.566 219.054a.775.775 0 0 1-.643-.346l-4.924-7.453a.767.767 0 0 1 .799-1.174c.2.041.376.16.488.33l4.228 6.4 3.769-6.694a.772.772 0 0 1 1.44.466.77.77 0 0 1-.097.286l-4.388 7.793a.767.767 0 0 1-.644.391l-.028.001z"/><path fill="#202124" d="M495.835 226.779a.776.776 0 0 1-.645-.348l-7.115-10.873a.777.777 0 0 1-.11-.578.77.77 0 0 1 1.401-.26l6.417 9.807 5.723-10.247a.768.768 0 0 1 1.06-.319.764.764 0 0 1 .285 1.065l-6.344 11.36a.764.764 0 0 1-.646.394l-.026-.001z"/><path fill="#202124" d="M496.158 235.605a.772.772 0 0 1-.643-.346l-9.23-13.968a.767.767 0 0 1 .799-1.164.772.772 0 0 1 .487.32l8.534 12.915 7.599-13.492a.772.772 0 0 1 1.44.466.77.77 0 0 1-.097.286l-8.217 14.591a.774.774 0 0 1-.644.391l-.028.001z"/><path fill="#202124" d="M496.454 244.109a.776.776 0 0 1-.641-.346l-10.906-16.492a.773.773 0 0 1-.12-.581.764.764 0 0 1 .332-.492.78.78 0 0 1 .586-.11.765.765 0 0 1 .488.339l10.21 15.44 9.102-16.131a.774.774 0 0 1 1.049-.292.766.766 0 0 1 .294 1.045l-9.722 17.228a.766.766 0 0 1-.644.391l-.028.001zM539.976 290.691H1.719c-.617 0-1.05-.318-1.05-.764s.433-.764 1.05-.764h538.257c.617 0 1.05.318 1.05.764s-.556.764-1.05.764z"/><path fill="#fff" d="M529.316 204.595l-8.58 6.556-6.535-8.593a12.774 12.774 0 0 1-2.506-9.444 12.811 12.811 0 0 1 1.607-4.716 12.765 12.765 0 0 1 3.286-3.742l.032-.025 8.58-6.555 6.535 8.593a12.77 12.77 0 0 1 2.506 9.444 12.778 12.778 0 0 1-4.893 8.458l-.032.024z"/><path fill="#202124" d="M520.823 211.931a.779.779 0 0 1-.711-.304l-6.536-8.593a13.568 13.568 0 0 1-2.659-10.025 13.57 13.57 0 0 1 5.194-8.979l.032-.024 8.581-6.556a.783.783 0 0 1 1.099.148l6.536 8.594a13.575 13.575 0 0 1-2.534 19.003l-.033.025-8.58 6.555a.778.778 0 0 1-.389.156zm4.227-32.753l-7.983 6.098a11.997 11.997 0 0 0-2.242 16.802l6.06 7.968 7.987-6.101a11.998 11.998 0 0 0 2.239-16.798l-6.061-7.969z"/><path fill="#202124" d="M510.218 290.736a.78.78 0 0 1-.713-.305.791.791 0 0 1-.153-.582l12.694-94.083a.788.788 0 0 1 .883-.675.785.785 0 0 1 .674.885l-12.694 94.083a.788.788 0 0 1-.691.677zM525.275 178.854a.787.787 0 0 1-.866-.887l1.151-8.534a.789.789 0 0 1 .884-.675.787.787 0 0 1 .673.885l-1.151 8.534a.79.79 0 0 1-.691.677z"/><path fill="#202124" d="M525.275 178.854a.785.785 0 0 1-.84-.56l-2.418-8.241a.794.794 0 0 1 .529-.99.781.781 0 0 1 .838.268.78.78 0 0 1 .14.277l2.418 8.242a.797.797 0 0 1-.1.658.778.778 0 0 1-.567.346z"/><path fill="#202124" d="M525.274 178.854a.778.778 0 0 1-.751-.362.783.783 0 0 1-.002-.836l4.546-7.3a.786.786 0 0 1 1.331.832l-4.545 7.301a.786.786 0 0 1-.579.365z"/><path fill="#fff" d="M520.61 223.585c3.418-.386 5.879-3.474 5.497-6.899-.382-3.425-3.463-5.889-6.88-5.503-3.418.385-5.879 3.474-5.497 6.898a6.225 6.225 0 0 0 6.88 5.504z"/><path fill="#202124" d="M520.698 224.365a6.989 6.989 0 0 1-4.002-.74 7.029 7.029 0 0 1-3.763-6.834 7.028 7.028 0 0 1 4.862-6.103 6.998 6.998 0 0 1 7.485 2.163 7.027 7.027 0 0 1 1.607 3.747 7.046 7.046 0 0 1-1.492 5.165 7.024 7.024 0 0 1-4.697 2.602zm-1.384-12.401a5.437 5.437 0 0 0-2.903 1.252 5.463 5.463 0 0 0 .111 8.43 5.433 5.433 0 0 0 6.025.511 5.457 5.457 0 0 0 .767-9.035 5.441 5.441 0 0 0-4-1.159v.001z"/><path fill="#fff" d="M45.012 7.49v153.808l212.597-.053V16.921"/><path fill="#202124" d="M45.012 162.067a.77.77 0 0 1-.77-.769V7.489a.769.769 0 0 1 1.54 0v153.04l211.058-.053V16.921a.77.77 0 0 1 1.539 0v144.324a.767.767 0 0 1-.77.769l-212.597.053z"/><path fill="#fff" d="M257.566 4.395H45.012v18.574h212.554V4.395z"/><path fill="#202124" d="M257.566 24H45.012c-.204 0-.4-.109-.544-.302a1.233 1.233 0 0 1-.226-.73V4.394c0-.273.081-.536.226-.73.144-.193.34-.302.544-.302h212.554c.204 0 .4.109.544.303.145.193.226.456.226.73v18.573c0 .274-.081.536-.226.73-.144.193-.34.302-.544.302zM45.782 21.936h211.014V5.426H45.782v16.51z"/><path fill="#FFF1ED" d="M301.513 100.883s-.936-17.402-1.305-21.76c-.467-5.02.96-7.408 3.003-7.482 3.495-.147 3.987 12.873 4.061 14.867-.049-2.24-.246-18.559 4.308-18.805 4.996-.27 3.15 17.353 3.15 17.353a.074.074 0 0 0 .049-.025c.025-.437.075-.873.148-1.304.788-4.16 2.658-6.818 5.341-8.369 2.486-1.428 5.44-1.92 8.836-.714a3.31 3.31 0 0 1 2.019 4.234 3.385 3.385 0 0 1-1.256 1.649c.138-.03.278-.046.419-.05a3.325 3.325 0 0 1 3.495 3.127c.051 1.034.026 2.07-.074 3.101-.394 3.298-2.461 6.277-5.981 8.418a7.011 7.011 0 0 0-2.929 5.809l-23.284-.049zm25.376-19.987c-1.477-.517-2.609-.566-3.347-.148-.936.542-1.699 2.068-2.117 4.234a2.84 2.84 0 0 0 1.181 2.904 2.9 2.9 0 0 0 2.856.247 2.718 2.718 0 0 0 1.624-2.216c.067-.654.084-1.312.049-1.969a3.3 3.3 0 0 1 1.452-2.929 3.103 3.103 0 0 1-1.698-.123z"/><path fill="#202124" d="M324.797 101.67h.004a.736.736 0 0 0 .735-.742 6.306 6.306 0 0 1 2.602-5.192c3.641-2.225 5.879-5.4 6.301-8.944a22.07 22.07 0 0 0 .079-3.221 4.066 4.066 0 0 0-3.045-3.71 4.075 4.075 0 0 0 .178-3.831 4.072 4.072 0 0 0-2.299-2.081c-3.327-1.182-6.507-.923-9.452.769-1.725 1-3.14 2.458-4.087 4.214.047-4.156-.316-9.165-2.141-11.084a2.693 2.693 0 0 0-2.132-.882c-2.36.127-3.855 3.171-4.573 9.306l-.027.234c-.477-2.205-1.155-4.065-2.117-4.954a2.226 2.226 0 0 0-1.643-.648 3.222 3.222 0 0 0-2.341 1.138c-1.202 1.367-1.674 3.84-1.366 7.15.364 4.29 1.293 21.556 1.303 21.73a.722.722 0 0 0 .241.515.739.739 0 0 0 1.233-.594c-.009-.174-.94-17.463-1.306-21.781-.359-3.858.475-5.443 1.004-6.046a1.732 1.732 0 0 1 1.29-.637.77.77 0 0 1 .583.258c1.404 1.297 2.444 6.623 2.714 13.898a.737.737 0 0 0 1.276.485.739.739 0 0 0 .2-.528c-.195-8.863.982-17.91 3.609-18.051a1.195 1.195 0 0 1 .982.425c2.276 2.393 1.779 12.443 1.395 16.113a.734.734 0 0 0 .185.571.8.8 0 0 0 .561.233.789.789 0 0 0 .561-.23.741.741 0 0 0 .213-.48c.024-.411.07-.82.139-1.225.71-3.75 2.341-6.324 4.982-7.85 2.552-1.466 5.318-1.687 8.221-.657a2.564 2.564 0 0 1 1.718 2.294 2.56 2.56 0 0 1-.151.997 2.632 2.632 0 0 1-.98 1.288.74.74 0 0 0-.317.596.736.736 0 0 0-.705-.218 2.357 2.357 0 0 1-1.291-.1c-1.689-.59-3.02-.622-3.955-.093-1.137.658-2.015 2.338-2.477 4.736a3.61 3.61 0 0 0 3.128 4.273 3.614 3.614 0 0 0 1.933-.308 3.486 3.486 0 0 0 2.059-2.812c.07-.688.088-1.381.053-2.072a2.557 2.557 0 0 1 1.132-2.294.736.736 0 0 0 .321-.6.738.738 0 0 0 .686.222 2.58 2.58 0 0 1 3.032 2.392 20.53 20.53 0 0 1-.071 2.986c-.369 3.081-2.368 5.878-5.63 7.863a7.76 7.76 0 0 0-3.285 6.444.741.741 0 0 0 .738.735zm2.161-19.98a3.99 3.99 0 0 0-.56 2.303c.03.612.015 1.224-.045 1.833a1.98 1.98 0 0 1-1.192 1.632 2.16 2.16 0 0 1-2.134-.178 2.115 2.115 0 0 1-.878-2.156c.369-1.916 1.029-3.312 1.762-3.736.527-.3 1.5-.227 2.734.205h.001c.105.037.209.068.313.096h-.001z"/><path fill="#fff" d="M473.757 238.302c2.831 8.861 15.408 19.076 30.447 15.507 6.67-1.575 13.119 3.126 15.211 9.698l-34.729 14.005-27.518-10.731 7.655 18.731-9.477 3.84-15.137-37.413 33.548-13.637z"/><path fill="#202124" d="M455.346 290.09c.096 0 .19-.018.278-.054l9.476-3.84a.73.73 0 0 0 .403-.397.746.746 0 0 0 .003-.566l-7.004-17.139 25.915 10.108c.176.068.37.067.545-.004l34.729-14.005a.742.742 0 0 0 .428-.91c-2.323-7.297-9.388-11.775-16.085-10.193-14.83 3.52-26.9-6.642-29.573-15.012a.739.739 0 0 0-.982-.46l-33.548 13.636a.74.74 0 0 0-.406.96l15.137 37.414a.741.741 0 0 0 .684.462zm8.513-4.984l-8.105 3.284-14.585-36.045 32.145-13.066c3.301 8.745 15.811 18.869 31.059 15.249 5.751-1.359 11.828 2.374 14.114 8.556l-33.808 13.634-27.243-10.625a.733.733 0 0 0-.794.17.734.734 0 0 0-.158.797l7.375 18.046z"/><path fill="#fff" d="M358.862 289.376l.05-40.367-36.207-.123c.69 9.28-1.6 23.457-16.884 25.771-6.769 1.034-11.003 7.803-10.486 14.695l38.545.024 14.842-20.232-.099 20.232h10.239z"/><path fill="#202124" d="M333.88 290.115a.74.74 0 0 0 .595-.302l13.497-18.399-.087 17.959a.724.724 0 0 0 .215.524.745.745 0 0 0 .523.218h10.239a.736.736 0 0 0 .522-.217.736.736 0 0 0 .217-.522l.049-40.367a.738.738 0 0 0-.736-.738l-36.206-.123a.757.757 0 0 0-.699.493.747.747 0 0 0-.04.3c.498 6.697-.091 22.539-16.259 24.986-6.804 1.039-11.684 7.839-11.111 15.48a.741.741 0 0 0 .736.683l38.545.025zm24.244-1.477h-8.76l.095-19.491a.739.739 0 0 0-1.334-.44l-14.62 19.931-37.47-.025c-.191-6.594 4.052-12.334 9.896-13.227 7.054-1.068 12.097-4.662 14.987-10.683 2.587-5.391 2.765-11.482 2.573-15.076l34.681.118-.048 38.893z"/><path fill="#FCEAED" d="M429.529 150.072c1.106 6.438 5.33 33.067.786 33.218l-24.654-39.791 23.868 6.573z"/><path fill="#202124" d="M430.315 184.028h.025a1.93 1.93 0 0 0 1.454-.765c.524-.643 2.116-2.597.823-16.053-.712-7.403-1.986-15.084-2.36-17.262a.74.74 0 0 0-.532-.588l-23.868-6.573a.74.74 0 0 0-.824 1.101l24.654 39.791a.734.734 0 0 0 .628.349zm-1.435-33.369c2.381 14.016 3.84 29.13 1.77 31.67l-.036.042-23.334-37.659 21.6 5.947zM360.014 193.997l.552.49-7.482 8.442-.553-.489 7.483-8.443z"/><path fill="#3C4043" stroke="#3C4043" d="M464.663 215.465a22.006 22.006 0 0 0-7.037-5.885 19.41 19.41 0 0 1-9.763-13.364l-.001-.002a22.417 22.417 0 0 0-11.303-15.357h-.001a19.827 19.827 0 0 1-8.788-9.625l-.197-.458-.459.195c-.601.255-1.052.238-1.406.096-.367-.147-.699-.456-.993-.908-.594-.914-.929-2.248-1.105-3.301-.026-.152-.417-1.873-1.256-4.18-.841-2.313-2.145-5.25-4.01-7.812l-.017-.024-.02-.021c-.431-.466-.932-1.218-1.286-2.05-.356-.837-.534-1.688-.409-2.377a.554.554 0 0 1 .024-.082l.09-.25-.156-.214-3.315-4.575-.106-.145-.174-.045c.002 0-.623-.174-1.571-.449a164.19 164.19 0 0 1-3.446-1.04c-1.253-.395-2.494-.809-3.416-1.168-.464-.18-.831-.34-1.076-.471a2.107 2.107 0 0 1-.14-.081c.039-.286.138-.765.284-1.377.178-.749.414-1.645.652-2.512.239-.866.478-1.7.664-2.323a33.274 33.274 0 0 1 .295-.943l.212-.238-.236-.326-7.598-10.484-.172-.239-.293.036-43.285 5.226-.207.025-.128.165-32.002 41.26a22.64 22.64 0 0 0-6.051 15.413l.025 66.187v.5h45.304V194.42l16.884-20.962 8.156 11.064.345.468.038-.038a22.434 22.434 0 0 0 7.483 6.604c5.098 2.789 8.813 7.591 9.915 13.292v.001a22.766 22.766 0 0 0 1.636 5.109h0a22.496 22.496 0 0 0 9.715 10.421m49.701-4.914l-39.295 18.111a22.26 22.26 0 0 0 1.599 4.997 21.912 21.912 0 0 0 1.871 3.323m35.825-26.431l.13-.104.309.418 14.3 19.371.32.433-.455.287-37.462 23.654-.393.248-.276-.374-11.733-15.89m35.26-28.043l-23.125 43.636-11.74-15.9m-14.836-22.822l.001.001.239-.44-.24.439s0 0 0 0zm0 0c5.098 2.789 8.813 7.591 9.915 13.292v.001a22.79 22.79 0 0 0 1.635 5.108 22.41 22.41 0 0 0 1.913 3.398m0 0s0 0 0 0l.413-.282m-.413.282l.413-.282m-.413.282c.32.467.623.897.978 1.33m-.565-1.612c.32.468.615.886.96 1.305m0 0l-.402.297.007.01m.395-.307l-.386.317-.009-.01"/><path fill="#202124" d="M424.924 232.296c.022 0 .044 0 .065-.002a.74.74 0 0 0 .672-.8l-1.083-12.406a.739.739 0 0 0-1.471.129l1.083 12.405a.738.738 0 0 0 .734.674zM449.686 210.365a.737.737 0 0 0 .728-.866l-2.043-11.594a.74.74 0 0 0-1.332-.295.746.746 0 0 0-.123.552l2.043 11.593a.739.739 0 0 0 .727.61zM403.462 202.858a.746.746 0 0 0 .312-.068.751.751 0 0 0 .401-.477.717.717 0 0 0 .015-.319l-2.239-12.996a.739.739 0 1 0-1.456.251l2.24 12.996a.742.742 0 0 0 .727.613zM377.445 172.977a.733.733 0 0 0 .659-.406.734.734 0 0 0-.065-.771l-5.341-7.237a.742.742 0 0 0-1.033-.155.731.731 0 0 0-.292.484.735.735 0 0 0 .136.548l5.341 7.237a.745.745 0 0 0 .595.3z"/><path fill="#FFDA2D" d="M299.824 271.324c4.468 0 16.05-1.682 17.502-1.895a.745.745 0 0 0 .619-.599.735.735 0 0 0-.369-.778c-1.438-.794-14.127-7.775-16.95-8.286a5.832 5.832 0 0 0-4.196 10.645 5.817 5.817 0 0 0 2.118.835c.422.061.849.087 1.276.078zm15.091-3.044c-5.242.727-14.238 1.849-16.105 1.512a4.367 4.367 0 0 1-2.819-1.8 4.342 4.342 0 0 1-.712-3.267 4.352 4.352 0 0 1 3.379-3.485 4.35 4.35 0 0 1 1.705-.022c1.883.341 9.904 4.544 14.552 7.062z"/><path fill="#FFDA2D" d="M317.219 269.436a.74.74 0 0 0 .686-1.012c-.609-1.526-6-14.979-7.867-17.144a5.833 5.833 0 0 0-10.248 3.348 5.749 5.749 0 0 0 1.378 4.215c1.844 2.161 14.26 9.641 15.67 10.487a.74.74 0 0 0 .381.106zM305.59 250.72a4.396 4.396 0 0 1 3.33 1.525c1.242 1.441 4.783 9.775 6.782 14.669-4.515-2.759-12.183-7.59-13.41-9.03l-.003-.003a4.265 4.265 0 0 1-1.027-3.14 4.34 4.34 0 0 1 4.328-4.021z"/><path fill="#FFED96" d="M353.972 130.207l-20.314 21.725a21.925 21.925 0 0 1-13.39 4.578 22.647 22.647 0 0 1-9.796-2.264 22.006 22.006 0 0 1-12.307-19.815v-33.352h29.537v18.264l28.922-24.198a37.276 37.276 0 0 1 6.911-4.622l12.648-2.053c.454.05.907.09 1.36.109l51.073 2.064a14.769 14.769 0 0 1 13.929 12.062 14.78 14.78 0 0 1-.268 6.571l-11.249 41.204-28.527-7.754 6.375-23.309-13.743-.56a21.285 21.285 0 0 1 1.363 5.335l-41.843 4.997"/><path fill="#202124" d="M320.268 157.249a22.527 22.527 0 0 0 13.84-4.732.62.62 0 0 0 .089-.081l20.315-21.724a.739.739 0 0 0 .144-.785.808.808 0 0 0 .085-.005l41.843-4.997a.742.742 0 0 0 .493-.277.739.739 0 0 0 .152-.545 22.16 22.16 0 0 0-1.019-4.463l11.71.477-6.131 22.415a.75.75 0 0 0 .072.561.728.728 0 0 0 .447.346l28.527 7.753a.735.735 0 0 0 .906-.518l11.248-41.204a15.51 15.51 0 0 0-7.679-17.759 15.51 15.51 0 0 0-6.665-1.806l-51.072-2.065a18.9 18.9 0 0 1-1.309-.104.736.736 0 0 0-.2.005l-12.647 2.053a.73.73 0 0 0-.216.07 38.119 38.119 0 0 0-7.05 4.714l-27.711 23.184V101.08a.743.743 0 0 0-.216-.523.742.742 0 0 0-.522-.216h-29.536a.743.743 0 0 0-.523.216.743.743 0 0 0-.216.523v33.351a22.75 22.75 0 0 0 12.717 20.476 23.544 23.544 0 0 0 10.124 2.342zm12.892-5.866a21.062 21.062 0 0 1-12.892 4.389 22.045 22.045 0 0 1-9.476-2.191 21.274 21.274 0 0 1-11.888-19.15v-32.613h28.059v17.525a.736.736 0 0 0 .426.669.744.744 0 0 0 .786-.103l28.923-24.198a36.763 36.763 0 0 1 6.67-4.477l12.435-2.019c.496.053.915.085 1.311.102l51.073 2.064a14.03 14.03 0 0 1 13.232 11.459 14.048 14.048 0 0 1-.254 6.242l-11.055 40.492-27.101-7.366 6.18-22.596a.746.746 0 0 0-.116-.631.72.72 0 0 0-.249-.216.719.719 0 0 0-.317-.086l-13.744-.56a.742.742 0 0 0-.633.312.74.74 0 0 0-.083.7 20.445 20.445 0 0 1 1.213 4.416l-41.094 4.908a.736.736 0 0 0-.596 1.013.74.74 0 0 0-.537.234l-20.273 21.681zM312.565 96.624a.74.74 0 0 0 .67-.429c3.004-6.504 8.234-6.957 9.953-7.106a.74.74 0 0 0 .411-1.3.735.735 0 0 0-.538-.171c-1.93.167-7.803.676-11.166 7.958a.743.743 0 0 0 .048.708.744.744 0 0 0 .622.34z"/><path fill="#FFDA2D" d="M476.339 268.068a5.837 5.837 0 0 0 5.812-6.151c-.15-2.845-5.498-16.308-6.107-17.834a.738.738 0 0 0-1.397.077c-.439 1.584-4.286 15.557-4.137 18.401a5.837 5.837 0 0 0 5.829 5.507zm4.335-6.073a4.35 4.35 0 0 1-4.102 4.576 4.357 4.357 0 0 1-4.589-4.087c-.1-1.898 2.13-10.678 3.502-15.788 1.919 4.926 5.089 13.403 5.189 15.299z"/><path fill="#FFDA2D" d="M464.752 264.6c.3 0 .601-.023.898-.068a5.77 5.77 0 0 0 3.805-2.311c1.698-2.303 6.109-16.099 6.606-17.665a.735.735 0 0 0-.267-.819.74.74 0 0 0-.861-.008c-1.343.944-13.169 9.291-14.864 11.586a5.837 5.837 0 0 0-.506 6.078 5.83 5.83 0 0 0 5.189 3.207zm9.22-18.378c-1.643 5.027-4.576 13.593-5.706 15.123l-.003.004a4.335 4.335 0 0 1-4.542 1.646 4.318 4.318 0 0 1-1.536-.722 4.336 4.336 0 0 1-1.727-2.853 4.298 4.298 0 0 1 .799-3.227c1.132-1.532 8.417-6.896 12.715-9.971z"/><path fill="#202124" d="M354.653 129.927a.724.724 0 0 0 .581-.281.732.732 0 0 0 .154-.543 20.461 20.461 0 0 1 .689-8.198 22.96 22.96 0 0 0 .431-11.42.735.735 0 0 0-.881-.56.743.743 0 0 0-.463.324.745.745 0 0 0-.098.556 21.48 21.48 0 0 1-.406 10.684 21.928 21.928 0 0 0-.738 8.787.74.74 0 0 0 .731.651zM332.403 123.404a.733.733 0 0 0 .703-.513.732.732 0 0 0-.003-.458.726.726 0 0 0-.272-.368l-4.701-3.348a.735.735 0 0 0-.826-.032.743.743 0 0 0-.232 1.026.744.744 0 0 0 .202.209l4.701 3.347a.73.73 0 0 0 .428.137zM395.118 119.589a.739.739 0 1 0 .03-1.477l-6.473-.27a.737.737 0 0 0-.062 1.475l6.473.271a.353.353 0 0 0 .032.001zM408.901 120.131a.735.735 0 0 0 .72-.579l.911-4.111a.74.74 0 0 0-1.442-.32l-.911 4.111a.741.741 0 0 0 .722.899z"/><path fill="#FFF1ED" d="M373.553 73.309a12.251 12.251 0 0 1-.334 5.06l2.306 7.893.493 1.87c.257.751.35 1.55.27 2.339a6.368 6.368 0 0 1-12.454 1.255l-.615-1.969-.71-2.444a12.32 12.32 0 0 1-12.273-17.602c-.147-.53-.258-1.07-.333-1.614a12.772 12.772 0 0 1-.074-2.757c.042-.522.124-1.04.246-1.55l6.359-6.932 17.119 16.45z"/><path fill="#202124" d="M353.054 77.18a.74.74 0 0 0 .688-1.008.741.741 0 0 0-.302-.36l-2.045-1.25 2.372-4.127a.738.738 0 1 0-1.28-.738l-2.732 4.75a.737.737 0 0 0 .256.998l2.658 1.625c.115.071.249.11.385.11zM356.598 71.984a.91.91 0 1 1 1.128-1.43.91.91 0 0 1-1.128 1.43zM349.84 71.96a.91.91 0 1 1 1.13-1.43.91.91 0 0 1-1.13 1.43zM354.889 80.829a3.34 3.34 0 0 0 2.778-1.475l.062-.083a.739.739 0 0 0-1.182-.886l-.073.099a1.846 1.846 0 0 1-1.309.848 1.932 1.932 0 0 1-1.515-.43l-.359-.311a.74.74 0 0 0-1.22.61.738.738 0 0 0 .253.506l.369.32a3.42 3.42 0 0 0 2.196.802zM362.554 87.837c.025 0 .049 0 .074-.003a13.224 13.224 0 0 0 6.387-2.424.74.74 0 0 0 .163-1.026.736.736 0 0 0-1.024-.174 11.751 11.751 0 0 1-5.673 2.154.736.736 0 0 0-.664.772.742.742 0 0 0 .738.701h-.001z"/><path fill="#3C4043" stroke="#202124" d="M349.818 63.492v-.001a12.562 12.562 0 0 1 9.551-9.583 12.565 12.565 0 0 1 12.71 4.64l.028.037.034.03c.015.015.029.03.041.048 0 0 0 0 0 0l.417-.275-22.781 5.104zm0 0a.235.235 0 0 0 .122.263.24.24 0 0 0 .286-.05h0l3.082-3.354.332-.36.367.323 5.833 5.139.015.013.014.014c1.014 1.046 2.692 2.072 4.117 2.685l.113-.456a74.933 74.933 0 0 1 .235-.927 3.527 3.527 0 0 1 .037-.126l.015-.036a.495.495 0 0 1 .056-.098l.001-.002c.921-1.252 2.02-2.198 3.345-2.629 1.333-.433 2.828-.322 4.492.413 1.683.743 2.709 2.468 3.002 4.246.293 1.78-.126 3.746-1.506 5 .002.197.002.4.002.6 0 .21-.001.417.002.61h0a8.17 8.17 0 0 1-.023.66c-.012 1-.297 1.99-.555 2.885l-.007.022a.238.238 0 0 0 .257-.13c.178-.364.418-.788.712-1.126.28-.322.697-.67 1.233-.662h.003c.412.01 1.051.25 1.898 1.208.848.959 1.951 2.688 3.3 5.804l.002.006.266.642c.602 1.46.949 2.3 1.905 3.554 3.6.072 32.92 1.333 35.96 1.464.339-.409.567-.781.784-1.179.076-.14.154-.29.236-.448.179-.343.379-.728.631-1.148l.022-.036.027-.031a.33.33 0 0 0 .023-.034h0c1.675-2.916 3.947-4.678 6.602-4.95 2.688-.275 5.401 1.043 7.653 3.573l.017.019.015.02a17.144 17.144 0 0 0 27.403.499 17.152 17.152 0 0 0-7.126-26.466 17.145 17.145 0 0 0-19.303 4.633l-.014.016-.015.014a.45.45 0 0 0-.024.028h.001l-.008.01-.005.007-.008.01-.008.01c-.295.34-.556.666-.798.993l-.012.016m-85.006-1.15l85.006 1.15m0 0l-.013.015m.013-.015l-.013.015m0 0c-2.267 2.6-5.003 3.967-7.721 3.703l7.721-3.703z"/><path fill="#202124" d="M369.963 96.78c.67 0 1.337-.095 1.98-.284a7.171 7.171 0 0 0 5.082-6.207 6.226 6.226 0 0 0-.299-2.616l-.485-1.846-2.254-7.713a13 13 0 0 0 .298-5.157.74.74 0 0 0-.836-.632.738.738 0 0 0-.625.841c.125.876.149 1.763.072 2.644a11.965 11.965 0 0 1-.388 2.115.75.75 0 0 0 .003.405l2.307 7.892.487 1.851c.004.018.01.035.015.053.224.65.303 1.342.235 2.026a5.634 5.634 0 0 1-8.751 4.197 5.627 5.627 0 0 1-2.261-3.082l-.619-1.977-.704-2.43a.74.74 0 0 0-.777-.53 11.586 11.586 0 0 1-11.54-16.546.733.733 0 0 0 .046-.517 11.703 11.703 0 0 1-.383-4.115c.038-.482.114-.96.226-1.43a.73.73 0 0 0-.271-.783.727.727 0 0 0-.554-.138.744.744 0 0 0-.487.298.741.741 0 0 0-.12.265 10.74 10.74 0 0 0-.265 1.663 13.5 13.5 0 0 0 .078 2.925c.066.486.161.968.282 1.443a13.14 13.14 0 0 0-1.123 4.272 13.058 13.058 0 0 0 3.018 9.535 13.07 13.07 0 0 0 10.617 4.642l.544 1.872.619 1.984a7.154 7.154 0 0 0 6.833 5.08z"/><path fill="#FFF1ED" d="M370.685 74.709a5.292 5.292 0 1 0-6.359-5.185"/><path fill="#202124" d="M370.684 75.447a.75.75 0 0 0 .148-.015 6.032 6.032 0 0 0 2.596-10.58 6.03 6.03 0 0 0-9.841 4.673.74.74 0 0 0 .738.738.737.737 0 0 0 .739-.738 4.55 4.55 0 0 1 7.43-3.528 4.555 4.555 0 0 1-1.958 7.99.738.738 0 0 0 .147 1.461h.001z"/><path fill="#202124" d="M368.267 72.092a.725.725 0 0 0 .172-.02l3.687-.879a.739.739 0 0 0-.342-1.436l-1.996.476 1.319-2.234a.74.74 0 0 0-.04-.824.745.745 0 0 0-.49-.29.736.736 0 0 0-.741.363l-2.204 3.73a.74.74 0 0 0 .636 1.114h-.001zM426.182 172.678c.075 0 .142-.004.197-.009 1.421-.131 2.591-1.48 2.606-3.007 0-2.296-.763-11.982-1.162-15.284a.75.75 0 0 0-.276-.497.733.733 0 0 0-.547-.154.744.744 0 0 0-.623.54.724.724 0 0 0-.02.289c.397 3.272 1.152 12.846 1.152 15.098-.008.758-.599 1.483-1.265 1.544-.744.074-1.718-.772-2.22-3.335-1.533-7.945-3.609-10.576-5.278-12.69-1.103-1.398-1.975-2.503-2.372-4.935a.742.742 0 0 0-.56-.6.735.735 0 0 0-.888.55.735.735 0 0 0-.01.288c.459 2.809 1.484 4.108 2.671 5.612 1.569 1.988 3.523 4.463 4.988 12.057.799 4.075 2.768 4.533 3.607 4.533zM43.04 291.06c.19 0 .375-.072.516-.2a.79.79 0 0 0 .253-.497l3.847-34.992a.788.788 0 0 0-.168-.571.764.764 0 0 0-1.084-.122.785.785 0 0 0-.288.52L42.27 290.19a.792.792 0 0 0 .165.576.773.773 0 0 0 .605.294z"/><path fill="#202124" d="M54.855 256.497a5.385 5.385 0 0 0 2.89-.85 5.478 5.478 0 0 0 2-2.275 5.557 5.557 0 0 0-.66-5.813 5.41 5.41 0 0 0-1.624-1.385 5.361 5.361 0 0 0-2.026-.644L40.4 243.843a5.398 5.398 0 0 0-3.995 1.177 5.519 5.519 0 0 0-2.003 3.69 5.555 5.555 0 0 0 1.166 4.039 5.428 5.428 0 0 0 3.645 2.028l15.033 1.686c.202.023.405.034.608.034zm-15.058-11.12c.145 0 .29.008.434.024l15.033 1.686a3.876 3.876 0 0 1 2.597 1.453 3.964 3.964 0 0 1-.596 5.516c-.8.653-1.824.958-2.846.85l-15.034-1.687a3.856 3.856 0 0 1-2.076-.897 3.936 3.936 0 0 1-1.234-1.913 3.976 3.976 0 0 1 .026-2.284 3.931 3.931 0 0 1 1.277-1.884 3.821 3.821 0 0 1 2.42-.864zm16.11 7.592c.414.001.815-.143 1.137-.407a1.863 1.863 0 0 0 .027-2.851 1.811 1.811 0 0 0-.974-.419l-17.064-1.915a1.814 1.814 0 0 0-1.797.947 1.862 1.862 0 0 0 .179 2.04 1.82 1.82 0 0 0 1.222.679l17.064 1.914c.068.008.137.012.205.012zm.02-2.12a.278.278 0 0 1 .237.197.289.289 0 0 1-.093.297.257.257 0 0 1-.198.058l-17.064-1.915a.265.265 0 0 1-.186-.099.275.275 0 0 1-.06-.204.285.285 0 0 1 .101-.191.27.27 0 0 1 .198-.058l17.064 1.915zM37.334 270.886c1.046 0 2.717-.475 5.089-1.443 1.865-.762 3.445-1.541 3.51-1.573a.776.776 0 0 0 .431-.616.792.792 0 0 0-.283-.698c-.587-.477-5.792-4.668-8.042-4.921a4.573 4.573 0 0 0-3.385.992 4.68 4.68 0 0 0-1.704 3.121 4.702 4.702 0 0 0 .991 3.407 4.6 4.6 0 0 0 3.075 1.714c.106.012.212.017.318.017zm6.793-3.888c-2.439 1.125-5.768 2.444-6.94 2.313a3.016 3.016 0 0 1-2.046-1.149 3.043 3.043 0 0 1-.651-2.24c.09-.815.497-1.56 1.13-2.072a3.033 3.033 0 0 1 2.248-.658c1.165.131 4.128 2.164 6.259 3.806z"/><path fill="#202124" d="M53.677 272.701a4.567 4.567 0 0 0 2.886-1.026 4.554 4.554 0 0 0 1.145-1.376 4.705 4.705 0 0 0-.45-5.138 4.597 4.597 0 0 0-3.084-1.724c-1.009-.114-2.778.353-5.406 1.426-1.866.762-3.446 1.541-3.513 1.573a.774.774 0 0 0-.43.617.789.789 0 0 0 .285.697c.586.477 5.79 4.668 8.041 4.921.174.02.35.03.526.03zm.15-7.716c.059 0 .117.003.176.009.805.093 1.54.505 2.046 1.146a3.123 3.123 0 0 1 .3 3.404 3.043 3.043 0 0 1-3.027 1.57c-1.165-.131-4.128-2.164-6.259-3.807 2.325-1.073 5.466-2.322 6.764-2.322z"/><path fill="#fff" d="M19.506 182.669c4.156 0 7.524-3.381 7.524-7.552 0-4.171-3.368-7.552-7.524-7.552-4.155 0-7.524 3.381-7.524 7.552 0 4.171 3.369 7.552 7.524 7.552z"/><path fill="#202124" d="M19.506 183.442a8.27 8.27 0 0 1-4.608-1.403 8.315 8.315 0 0 1-3.055-3.736 8.354 8.354 0 0 1 1.798-9.073 8.269 8.269 0 0 1 9.04-1.804 8.3 8.3 0 0 1 3.722 3.066 8.348 8.348 0 0 1 1.398 4.625 8.351 8.351 0 0 1-2.432 5.884 8.285 8.285 0 0 1-5.863 2.441zm0-15.104a6.735 6.735 0 0 0-3.752 1.143 6.771 6.771 0 0 0-2.487 3.042 6.803 6.803 0 0 0-.385 3.917 6.783 6.783 0 0 0 1.849 3.47 6.736 6.736 0 0 0 10.39-1.027 6.796 6.796 0 0 0-.841-8.557 6.752 6.752 0 0 0-4.774-1.988z"/><path fill="#fff" d="M27.467 198.778c4.156 0 7.524-3.381 7.524-7.552 0-4.171-3.368-7.552-7.524-7.552-4.155 0-7.524 3.381-7.524 7.552 0 4.171 3.369 7.552 7.524 7.552z"/><path fill="#202124" d="M27.467 199.551a8.27 8.27 0 0 1-4.608-1.403 8.315 8.315 0 0 1-3.055-3.736 8.354 8.354 0 0 1 1.798-9.072 8.269 8.269 0 0 1 9.04-1.805 8.3 8.3 0 0 1 3.722 3.066 8.348 8.348 0 0 1 1.398 4.625 8.35 8.35 0 0 1-2.432 5.884 8.285 8.285 0 0 1-5.863 2.441zm0-15.103a6.735 6.735 0 0 0-3.752 1.142 6.777 6.777 0 0 0-2.487 3.042 6.803 6.803 0 0 0 1.464 7.388 6.735 6.735 0 0 0 7.36 1.469 6.758 6.758 0 0 0 3.03-2.497 6.794 6.794 0 0 0-.842-8.557 6.747 6.747 0 0 0-4.773-1.987z"/><path fill="#fff" d="M12.445 199.19c4.155 0 7.524-3.381 7.524-7.551 0-4.171-3.369-7.552-7.524-7.552-4.155 0-7.524 3.381-7.524 7.552 0 4.17 3.369 7.551 7.524 7.551z"/><path fill="#202124" d="M12.445 199.964a8.27 8.27 0 0 1-4.608-1.403 8.32 8.32 0 0 1-3.055-3.736 8.358 8.358 0 0 1-.472-4.811 8.335 8.335 0 0 1 2.27-4.262 8.269 8.269 0 0 1 9.04-1.805 8.3 8.3 0 0 1 3.721 3.066 8.349 8.349 0 0 1 1.398 4.626 8.351 8.351 0 0 1-2.432 5.884 8.293 8.293 0 0 1-5.862 2.441zm0-15.104a6.742 6.742 0 0 0-3.752 1.142 6.774 6.774 0 0 0-2.488 3.043 6.8 6.8 0 0 0 1.464 7.387 6.742 6.742 0 0 0 7.36 1.469 6.762 6.762 0 0 0 3.031-2.496 6.796 6.796 0 0 0-.842-8.557 6.748 6.748 0 0 0-4.773-1.988z"/><path fill="#fff" d="M27.93 215.557c4.155 0 7.523-3.381 7.523-7.551 0-4.171-3.368-7.552-7.524-7.552-4.155 0-7.524 3.381-7.524 7.552 0 4.17 3.369 7.551 7.524 7.551z"/><path fill="#202124" d="M27.93 216.331a8.279 8.279 0 0 1-4.609-1.403 8.318 8.318 0 0 1-3.055-3.737 8.354 8.354 0 0 1-.472-4.81 8.336 8.336 0 0 1 2.27-4.262 8.269 8.269 0 0 1 9.04-1.805 8.3 8.3 0 0 1 3.722 3.066 8.348 8.348 0 0 1 1.398 4.626 8.35 8.35 0 0 1-2.432 5.884 8.294 8.294 0 0 1-5.863 2.441zm0-15.104a6.735 6.735 0 0 0-3.753 1.142 6.777 6.777 0 0 0-2.487 3.042 6.803 6.803 0 0 0 1.464 7.388 6.749 6.749 0 0 0 3.458 1.855 6.728 6.728 0 0 0 3.902-.386 6.762 6.762 0 0 0 3.03-2.496 6.796 6.796 0 0 0-.842-8.557 6.748 6.748 0 0 0-4.773-1.988z"/><path fill="#fff" d="M12.882 215.944c4.155 0 7.524-3.381 7.524-7.552 0-4.171-3.369-7.552-7.524-7.552-4.155 0-7.524 3.381-7.524 7.552 0 4.171 3.369 7.552 7.524 7.552z"/><path fill="#202124" d="M12.882 216.717a8.27 8.27 0 0 1-4.608-1.403 8.32 8.32 0 0 1-3.055-3.736 8.353 8.353 0 0 1 1.798-9.073 8.285 8.285 0 0 1 4.247-2.278 8.26 8.26 0 0 1 4.792.474 8.3 8.3 0 0 1 3.723 3.066 8.348 8.348 0 0 1 1.398 4.625 8.351 8.351 0 0 1-2.433 5.884 8.285 8.285 0 0 1-5.862 2.441zm0-15.104a6.735 6.735 0 0 0-3.752 1.143 6.772 6.772 0 0 0-2.487 3.042 6.804 6.804 0 0 0-.385 3.917 6.788 6.788 0 0 0 1.849 3.47 6.736 6.736 0 0 0 10.391-1.027 6.796 6.796 0 0 0-.842-8.557 6.748 6.748 0 0 0-4.774-1.988z"/><path fill="#202124" d="M22.613 290.587a.772.772 0 0 1-.77-.752L18.84 178.691a.78.78 0 0 1 .21-.553.766.766 0 0 1 1.09-.03.776.776 0 0 1 .24.541l3.004 111.144a.776.776 0 0 1-.75.794h-.02zM11.678 290.291a.752.752 0 0 1-.867-.617l-5.479-30.267a.752.752 0 0 1 .595-.882.752.752 0 0 1 .866.617l5.48 30.267a.752.752 0 0 1-.595.882z"/><path fill="#85B7FE" d="M7.012 264.518c2.82-.514 4.682-3.277 4.158-6.174-.524-2.896-3.235-4.827-6.056-4.314-2.82.513-4.682 3.277-4.158 6.173s3.235 4.828 6.056 4.315z"/><path fill="#202124" d="M81.951 248.634a10.895 10.895 0 0 1-5.741-2.595 10.833 10.833 0 0 1-3.333-5.333 10.764 10.764 0 0 1 3.861-11.369 10.853 10.853 0 0 1 5.894-2.205c2.14-.138 4.276.36 6.136 1.43a10.863 10.863 0 0 1 4.312 4.584 10.786 10.786 0 0 1 1.034 6.193 10.787 10.787 0 0 1-4.147 7.157 10.881 10.881 0 0 1-8.016 2.138zm2.63-20.08a9.5 9.5 0 0 0-5.431.888 9.437 9.437 0 0 0-4.014 3.746 9.403 9.403 0 0 0-1.244 5.34 9.443 9.443 0 0 0 1.946 5.134 9.52 9.52 0 0 0 9.982 3.383 9.46 9.46 0 0 0 4.671-2.892 9.406 9.406 0 0 0 2.266-4.993 9.445 9.445 0 0 0-1.89-6.983 9.527 9.527 0 0 0-6.286-3.623z"/><path fill="#202124" d="M81.951 248.634a10.895 10.895 0 0 1-5.741-2.595 10.833 10.833 0 0 1-3.333-5.333 10.764 10.764 0 0 1 3.861-11.369 10.853 10.853 0 0 1 5.894-2.205c2.14-.138 4.276.36 6.136 1.43a10.863 10.863 0 0 1 4.312 4.584 10.786 10.786 0 0 1 1.034 6.193 10.787 10.787 0 0 1-4.147 7.157 10.881 10.881 0 0 1-8.016 2.138zm2.63-20.08a9.5 9.5 0 0 0-5.431.888 9.437 9.437 0 0 0-4.014 3.746 9.403 9.403 0 0 0-1.244 5.34 9.443 9.443 0 0 0 1.946 5.134 9.52 9.52 0 0 0 9.982 3.383 9.46 9.46 0 0 0 4.671-2.892 9.406 9.406 0 0 0 2.266-4.993 9.445 9.445 0 0 0-1.89-6.983 9.527 9.527 0 0 0-6.286-3.623z"/><path fill="#fff" d="M82.04 247.957c5.57.736 10.671-3.162 11.397-8.707.726-5.544-3.2-10.635-8.769-11.371-5.568-.735-10.67 3.163-11.396 8.707-.725 5.544 3.2 10.635 8.769 11.371z"/><path fill="#202124" d="M81.953 248.632a10.898 10.898 0 0 1-5.742-2.595 10.835 10.835 0 0 1-3.334-5.332 10.763 10.763 0 0 1 3.861-11.368 10.854 10.854 0 0 1 5.894-2.205 10.914 10.914 0 0 1 6.137 1.431 10.864 10.864 0 0 1 4.313 4.584 10.78 10.78 0 0 1 1.034 6.192 10.781 10.781 0 0 1-4.147 7.156 10.877 10.877 0 0 1-8.016 2.137zm2.628-20.078a9.518 9.518 0 0 0-5.431.888 9.439 9.439 0 0 0-4.014 3.745 9.4 9.4 0 0 0-1.243 5.339 9.446 9.446 0 0 0 1.946 5.135 9.522 9.522 0 0 0 9.983 3.383 9.465 9.465 0 0 0 4.672-2.891 9.404 9.404 0 0 0 2.266-4.993 9.442 9.442 0 0 0-1.892-6.982 9.527 9.527 0 0 0-6.287-3.624z"/><path fill="#202124" d="M72.588 319.955a.683.683 0 0 1-.591-.765l9.358-71.317a.678.678 0 0 1 .768-.586.683.683 0 0 1 .591.765l-9.358 71.317a.678.678 0 0 1-.768.586zM83.06 240.167a10.9 10.9 0 0 1-5.564-2.455 10.844 10.844 0 0 1-3.371-5.048.678.678 0 0 1 .714-.889.687.687 0 0 1 .591.487 9.477 9.477 0 0 0 2.946 4.41 9.521 9.521 0 0 0 4.861 2.145 9.54 9.54 0 0 0 5.246-.805 9.474 9.474 0 0 0 3.99-3.481.685.685 0 0 1 1.244.22c.04.175.008.36-.089.512a10.837 10.837 0 0 1-4.565 3.982 10.907 10.907 0 0 1-6.003.922z"/><path fill="#202124" d="M87.412 239.781a.674.674 0 0 1-.277-.101 10.908 10.908 0 0 1-4.026-4.56 10.837 10.837 0 0 1-.948-5.995c.067-.515.172-1.023.312-1.522a.678.678 0 0 1 .578-.503.699.699 0 0 1 .269.02.701.701 0 0 1 .415.329.68.68 0 0 1 .055.525c-.123.436-.214.88-.273 1.33a9.47 9.47 0 0 0 .829 5.24 9.541 9.541 0 0 0 3.52 3.987.68.68 0 0 1-.454 1.25z"/><path fill="#fff" d="M112.285 256.543a2.02 2.02 0 0 0-1.52.35c-.441.315-.74.795-.832 1.334a2.092 2.092 0 0 0-.342-1.537 2.029 2.029 0 0 0-1.315-.839 2.016 2.016 0 0 0-1.519.35 2.062 2.062 0 0 0-.833 1.334 2.077 2.077 0 0 0-.341-1.536 2.016 2.016 0 0 0-2.833-.49 2.07 2.07 0 0 0-.833 1.334 2.067 2.067 0 0 0-.916-2.089 2.018 2.018 0 0 0-2.259.064 2.07 2.07 0 0 0-.832 1.333 2.081 2.081 0 0 0-.34-1.536 2.031 2.031 0 0 0-1.316-.839 2.017 2.017 0 0 0-1.52.35c-.44.315-.74.795-.832 1.333l-1.454 8.49a10.374 10.374 0 0 0 1.708 7.68 10.12 10.12 0 0 0 6.575 4.194c1.316.227 2.664.189 3.966-.111 1.303-.3 2.535-.856 3.627-1.638a10.279 10.279 0 0 0 2.735-2.916 10.396 10.396 0 0 0 1.427-3.75l1.453-8.49a2.074 2.074 0 0 0-.34-1.535 2.023 2.023 0 0 0-1.314-.84z"/><path fill="#202124" d="M100.612 276.509a10.818 10.818 0 0 1-7.016-4.48 11.089 11.089 0 0 1-1.828-8.196l1.454-8.49c.094-.551.352-1.06.738-1.46a2.719 2.719 0 0 1 1.426-.781 2.686 2.686 0 0 1 1.61.177c.505.222.932.596 1.222 1.07.3-.244.648-.42 1.02-.518a2.677 2.677 0 0 1 2.197.379c.319.217.588.5.79.83.3-.243.648-.42 1.02-.518a2.688 2.688 0 0 1 2.986 1.21 2.708 2.708 0 0 1 2.161-.568 2.721 2.721 0 0 1 1.848 1.259c.301-.244.649-.42 1.021-.518a2.675 2.675 0 0 1 1.14-.049 2.71 2.71 0 0 1 1.758 1.124c.415.596.579 1.335.457 2.055l-1.454 8.489a11.057 11.057 0 0 1-4.447 7.114 10.787 10.787 0 0 1-8.103 1.871zm-4.477-22.046a1.339 1.339 0 0 0-1.005.232c-.292.209-.49.526-.552.882l-1.454 8.49a9.669 9.669 0 0 0 1.59 7.16 9.431 9.431 0 0 0 6.131 3.91 9.406 9.406 0 0 0 7.08-1.631 9.637 9.637 0 0 0 3.881-6.216l1.454-8.489a1.374 1.374 0 0 0-.226-1.016 1.344 1.344 0 0 0-.868-.556 1.338 1.338 0 0 0-1.005.232c-.292.209-.49.526-.552.882a.697.697 0 0 1-.281.451.683.683 0 0 1-.959-.165.7.7 0 0 1-.115-.52 1.377 1.377 0 0 0-.226-1.017 1.334 1.334 0 0 0-1.876-.323c-.292.209-.49.526-.551.883a.705.705 0 0 1-.282.451.686.686 0 0 1-1.074-.685c.03-.177.025-.357-.013-.531a1.354 1.354 0 0 0-1.083-1.04 1.345 1.345 0 0 0-.525.014 1.35 1.35 0 0 0-.841.603c-.095.151-.159.32-.189.496a.698.698 0 0 1-.282.451.683.683 0 0 1-.959-.165.704.704 0 0 1-.115-.52 1.37 1.37 0 0 0-.226-1.016 1.34 1.34 0 0 0-.87-.555 1.337 1.337 0 0 0-1.004.232c-.292.209-.49.526-.55.882a.7.7 0 0 1-.282.451.682.682 0 0 1-.96-.165.703.703 0 0 1-.115-.52c.06-.356-.02-.722-.226-1.017a1.343 1.343 0 0 0-.87-.555z"/><path fill="#202124" d="M98.24 290.323a.685.685 0 0 1-.446-.284.7.7 0 0 1-.116-.52l3.543-20.663a.698.698 0 0 1 .282-.451.686.686 0 0 1 1.076.685l-3.543 20.664a.7.7 0 0 1-.282.451.684.684 0 0 1-.515.118zM108.475 266.722a.689.689 0 0 1-.561-.804l1.367-7.978a.699.699 0 0 1 .282-.452.686.686 0 0 1 1.075.686l-1.367 7.978a.7.7 0 0 1-.282.451.683.683 0 0 1-.514.119zM104.467 266.032a.687.687 0 0 1-.445-.284.704.704 0 0 1-.116-.52l1.367-7.978a.702.702 0 0 1 .282-.451.686.686 0 0 1 1.076.685l-1.367 7.978a.705.705 0 0 1-.282.451.686.686 0 0 1-.515.119zM100.463 265.342a.688.688 0 0 1-.446-.284.704.704 0 0 1-.115-.52l1.367-7.978a.7.7 0 0 1 .282-.451.682.682 0 0 1 .96.165.704.704 0 0 1 .116.52l-1.368 7.978a.699.699 0 0 1-.282.452.682.682 0 0 1-.514.118zM96.456 264.652a.684.684 0 0 1-.445-.284.702.702 0 0 1-.116-.52l1.367-7.978a.7.7 0 0 1 .282-.451.687.687 0 0 1 .96.165.702.702 0 0 1 .116.52l-1.368 7.978a.688.688 0 0 1-.796.57zM62.627 290.587c.172 0 .338-.06.472-.169a.772.772 0 0 0 .265-.432l2.914-13.173a.783.783 0 0 0-.302-.799.742.742 0 0 0-.84-.021.768.768 0 0 0-.334.482l-2.913 13.172a.788.788 0 0 0 .147.651.76.76 0 0 0 .59.289z"/><path fill="#fff" d="M66.41 276.743c-2.186 0-3.96-1.806-3.96-4.033 0-2.227 1.774-4.032 3.96-4.032 2.188 0 3.96 1.805 3.96 4.032 0 2.227-1.772 4.033-3.96 4.033z"/><path fill="#202124" d="M66.41 277.513c.933 0 1.845-.281 2.62-.809a4.786 4.786 0 0 0 1.738-2.156c.357-.877.45-1.843.268-2.775a4.834 4.834 0 0 0-1.29-2.459A4.686 4.686 0 0 0 67.33 268a4.629 4.629 0 0 0-2.726.273 4.732 4.732 0 0 0-2.117 1.769 4.864 4.864 0 0 0 .589 6.063 4.675 4.675 0 0 0 3.333 1.408zm0-8.065c.634 0 1.253.192 1.78.55.527.359.937.868 1.18 1.464.242.596.306 1.252.182 1.885a3.28 3.28 0 0 1-.877 1.67 3.189 3.189 0 0 1-1.64.893 3.148 3.148 0 0 1-1.85-.186 3.22 3.22 0 0 1-1.438-1.201 3.307 3.307 0 0 1 .4-4.118 3.177 3.177 0 0 1 2.263-.957zM220.655 291.06a.75.75 0 0 1-.472-.169.771.771 0 0 1-.265-.433l-2.914-13.172a.782.782 0 0 1 .099-.581.755.755 0 0 1 .473-.34.747.747 0 0 1 .571.1c.169.11.289.283.333.482l2.913 13.173a.774.774 0 0 1-.147.651.764.764 0 0 1-.591.289z"/><path fill="#fff" d="M216.872 277.216c2.187 0 3.96-1.806 3.96-4.033 0-2.227-1.773-4.033-3.96-4.033-2.187 0-3.96 1.806-3.96 4.033 0 2.227 1.773 4.033 3.96 4.033z"/><path fill="#202124" d="M216.872 277.986a4.664 4.664 0 0 1-2.621-.809 4.79 4.79 0 0 1-1.737-2.156 4.884 4.884 0 0 1-.268-2.775 4.824 4.824 0 0 1 1.291-2.459 4.692 4.692 0 0 1 2.415-1.315 4.637 4.637 0 0 1 2.725.274 4.736 4.736 0 0 1 2.117 1.769 4.865 4.865 0 0 1-.588 6.063 4.682 4.682 0 0 1-3.334 1.408zm0-8.065c-.634 0-1.253.191-1.78.55a3.257 3.257 0 0 0-1.18 1.464 3.325 3.325 0 0 0-.182 1.884 3.29 3.29 0 0 0 .877 1.671 3.181 3.181 0 0 0 1.64.892 3.15 3.15 0 0 0 1.851-.185 3.215 3.215 0 0 0 1.437-1.202 3.303 3.303 0 0 0-.399-4.117 3.178 3.178 0 0 0-2.264-.957zM227.109 306.491a.732.732 0 0 1-.787-.899l10.585-44.353a.73.73 0 1 1 1.42.341l-10.585 44.353a.731.731 0 0 1-.633.558z"/><path fill="#82B1FF" d="M255.858 241.02a3.115 3.115 0 0 0-4.15 1.508l-.002.004a3.142 3.142 0 0 0-1.507-4.172 3.123 3.123 0 0 0-4.156 1.515l-6.744 14.37.472-15.876a3.127 3.127 0 0 0-3.071-3.184 3.13 3.13 0 0 0-3.17 2.983 3.128 3.128 0 0 0-2.978-3.272 3.13 3.13 0 0 0-3.261 2.991l-.002.078-.069 2.087-.46 14.083a12.617 12.617 0 0 0 7.071 11.763l-.019.034a13.394 13.394 0 0 0 5.098 1.224l-.004-.038a12.564 12.564 0 0 0 11.61-7.269l5.95-12.763.882-1.892a3.137 3.137 0 0 0-1.49-4.174z"/><path fill="#202124" d="M233.223 250.958a.732.732 0 0 1-.808-.753l.399-12.322a.733.733 0 0 1 .754-.709.732.732 0 0 1 .706.757l-.4 12.322a.733.733 0 0 1-.651.705zM246.679 254.201a.734.734 0 0 1-.737-1.039l5.204-11.166a.729.729 0 0 1 .971-.353.733.733 0 0 1 .351.974l-5.204 11.165a.731.731 0 0 1-.585.419zM236.394 267.522a.735.735 0 0 1-.788-.9l2.997-12.548a.73.73 0 1 1 1.42.341l-2.997 12.549a.732.732 0 0 1-.632.558zM520.701 304.124a.746.746 0 0 1-.457-.869l12.632-54.39a.747.747 0 0 1 .892-.565.744.744 0 0 1 .552.897l-12.633 54.39a.747.747 0 0 1-.986.537z"/><path fill="#82B1FF" d="M531.251 255.317c3.424 1.29 7.256-.479 8.557-3.951 1.302-3.472-.418-7.333-3.843-8.623-3.424-1.29-7.256.479-8.558 3.951-1.302 3.472.419 7.333 3.844 8.623z"/><path fill="#3C4043" d="M88.151 74h3.12l3.502-12.247h.137L98.404 74h3.119l4.927-17.455h-3.401l-3.145 12.836h-.153l-3.367-12.836H93.29l-3.358 12.827h-.161l-3.145-12.827h-3.4L88.15 74zm24.814.256c3.051 0 5.148-1.492 5.693-3.767l-2.88-.324c-.418 1.108-1.441 1.687-2.77 1.687-1.995 0-3.316-1.312-3.341-3.554h9.119v-.946c0-4.594-2.761-6.613-5.983-6.613-3.75 0-6.196 2.753-6.196 6.792 0 4.108 2.412 6.725 6.358 6.725zm-3.29-8.037c.094-1.67 1.33-3.077 3.171-3.077 1.773 0 2.966 1.295 2.983 3.077h-6.154zm14.806-9.673h-3.085V74h3.085V56.545zm8.883 17.71c3.29 0 5.387-1.952 5.608-4.73h-2.949c-.264 1.406-1.278 2.216-2.633 2.216-1.926 0-3.171-1.611-3.171-4.288 0-2.641 1.27-4.227 3.171-4.227 1.483 0 2.395.955 2.633 2.216h2.949c-.213-2.838-2.429-4.704-5.625-4.704-3.835 0-6.255 2.77-6.255 6.767 0 3.963 2.36 6.75 6.272 6.75zm13.852 0c3.835 0 6.273-2.702 6.273-6.75 0-4.057-2.438-6.767-6.273-6.767-3.835 0-6.273 2.71-6.273 6.767 0 4.048 2.438 6.75 6.273 6.75zm.017-2.472c-2.122 0-3.162-1.892-3.162-4.287s1.04-4.312 3.162-4.312c2.088 0 3.128 1.917 3.128 4.312 0 2.395-1.04 4.287-3.128 4.287zM156.107 74h3.085v-7.96c0-1.611 1.074-2.702 2.404-2.702 1.304 0 2.199.878 2.199 2.224V74h3.025v-8.165c0-1.474.878-2.497 2.37-2.497 1.244 0 2.233.733 2.233 2.352V74h3.093v-8.787c0-2.923-1.687-4.474-4.091-4.474-1.9 0-3.349.937-3.929 2.395h-.136c-.503-1.483-1.773-2.395-3.537-2.395-1.756 0-3.068.903-3.614 2.395h-.153v-2.225h-2.949V74zm27.335.256c3.051 0 5.147-1.492 5.693-3.767l-2.881-.324c-.417 1.108-1.44 1.687-2.77 1.687-1.994 0-3.315-1.312-3.341-3.554h9.12v-.946c0-4.594-2.762-6.613-5.983-6.613-3.75 0-6.196 2.753-6.196 6.792 0 4.108 2.412 6.725 6.358 6.725zm-3.29-8.037c.094-1.67 1.329-3.077 3.17-3.077 1.773 0 2.966 1.295 2.983 3.077h-6.153zm24.211-5.31h-2.583v-3.136h-3.085v3.136h-1.858v2.386h1.858v7.279c-.017 2.463 1.773 3.673 4.091 3.605a6.21 6.21 0 0 0 1.816-.307l-.52-2.412c-.171.043-.52.12-.904.12-.775 0-1.398-.273-1.398-1.517v-6.768h2.583V60.91zm8.15 13.347c3.835 0 6.272-2.702 6.272-6.75 0-4.057-2.437-6.767-6.272-6.767-3.835 0-6.273 2.71-6.273 6.767 0 4.048 2.438 6.75 6.273 6.75zm.017-2.472c-2.122 0-3.162-1.892-3.162-4.287s1.04-4.312 3.162-4.312c2.088 0 3.128 1.917 3.128 4.312 0 2.395-1.04 4.287-3.128 4.287zM85.901 89.344h3.043c-.06-2.95-2.574-5.037-6.29-5.037-3.665 0-6.417 2.062-6.409 5.147 0 2.506 1.781 3.947 4.653 4.688l1.986.511c1.884.478 3.128 1.066 3.137 2.42-.009 1.492-1.424 2.49-3.486 2.49-1.977 0-3.512-.887-3.64-2.72h-3.11c.128 3.469 2.71 5.421 6.775 5.421 4.185 0 6.614-2.088 6.623-5.165-.009-3.025-2.506-4.406-5.131-5.028l-1.637-.41c-1.431-.34-2.983-.945-2.966-2.403.01-1.312 1.185-2.275 3.163-2.275 1.883 0 3.127.878 3.29 2.36zm11.76 12.912c3.051 0 5.147-1.492 5.693-3.767l-2.881-.324c-.418 1.108-1.44 1.687-2.77 1.687-1.994 0-3.315-1.312-3.34-3.554h9.118v-.946c0-4.594-2.761-6.613-5.982-6.613-3.75 0-6.197 2.752-6.197 6.792 0 4.108 2.412 6.725 6.358 6.725zm-3.29-8.037c.093-1.67 1.33-3.077 3.17-3.077 1.773 0 2.966 1.296 2.983 3.077h-6.153zm15.488 8.045c2.054 0 3.281-.963 3.843-2.062h.103V102h2.966v-8.761c0-3.46-2.821-4.5-5.319-4.5-2.752 0-4.866 1.227-5.548 3.613l2.881.41c.307-.895 1.176-1.663 2.684-1.663 1.432 0 2.216.733 2.216 2.02v.052c0 .886-.929.928-3.238 1.176-2.54.272-4.969 1.03-4.969 3.98 0 2.574 1.883 3.937 4.381 3.937zm.801-2.267c-1.287 0-2.208-.588-2.208-1.721 0-1.185 1.032-1.68 2.412-1.875.81-.111 2.429-.316 2.83-.64v1.543c0 1.457-1.176 2.693-3.034 2.693zm9.213 2.003h3.085v-7.696c0-1.662 1.253-2.838 2.949-2.838.52 0 1.168.094 1.432.179v-2.838a7.42 7.42 0 0 0-1.108-.085c-1.5 0-2.753.852-3.23 2.369h-.137v-2.182h-2.991V102zm14.687.256c3.289 0 5.386-1.952 5.608-4.73h-2.949c-.264 1.406-1.279 2.216-2.634 2.216-1.926 0-3.17-1.611-3.17-4.288 0-2.641 1.27-4.227 3.17-4.227 1.483 0 2.395.955 2.634 2.216h2.949c-.213-2.838-2.429-4.704-5.625-4.704-3.836 0-6.256 2.77-6.256 6.767 0 3.963 2.361 6.75 6.273 6.75zm11.226-7.927c0-1.891 1.176-2.982 2.83-2.982 1.619 0 2.574 1.03 2.574 2.795V102h3.085v-8.335c0-3.162-1.79-4.926-4.509-4.926-2.011 0-3.289.912-3.895 2.394h-.153v-6.587h-3.017V102h3.085v-7.67zM159.798 102l1.44-4.304h6.562l1.449 4.304h3.375l-6.153-17.454h-3.904L156.423 102h3.375zm2.292-6.844l2.361-7.031h.136l2.361 7.031h-4.858zm22.833-2.787c-.427-2.216-2.199-3.63-5.268-3.63-3.153 0-5.301 1.55-5.292 3.971-.009 1.91 1.167 3.17 3.682 3.69l2.233.47c1.201.263 1.764.75 1.764 1.49 0 .896-.972 1.569-2.438 1.569-1.414 0-2.335-.614-2.599-1.79l-3.009.29c.384 2.403 2.404 3.827 5.617 3.827 3.273 0 5.582-1.696 5.591-4.177-.009-1.866-1.21-3.008-3.682-3.545l-2.233-.477c-1.33-.299-1.858-.759-1.849-1.517-.009-.887.971-1.5 2.258-1.5 1.423 0 2.173.775 2.412 1.636l2.813-.307zm13.171 0c-.426-2.216-2.198-3.63-5.267-3.63-3.153 0-5.301 1.55-5.292 3.971-.009 1.91 1.167 3.17 3.682 3.69l2.233.47c1.201.263 1.764.75 1.764 1.49 0 .896-.972 1.569-2.438 1.569-1.415 0-2.335-.614-2.599-1.79l-3.009.29c.384 2.403 2.404 3.827 5.617 3.827 3.272 0 5.582-1.696 5.591-4.177-.009-1.866-1.211-3.008-3.682-3.545l-2.233-.477c-1.33-.299-1.858-.759-1.85-1.517-.008-.887.972-1.5 2.259-1.5 1.423 0 2.173.775 2.412 1.636l2.812-.307zM200.92 102h3.085V88.91h-3.085V102zm1.551-14.949c.98 0 1.781-.75 1.781-1.67 0-.93-.801-1.68-1.781-1.68-.989 0-1.79.75-1.79 1.68 0 .92.801 1.67 1.79 1.67zm15.053 5.318c-.426-2.216-2.199-3.63-5.267-3.63-3.153 0-5.301 1.55-5.293 3.971-.008 1.91 1.168 3.17 3.682 3.69l2.233.47c1.202.263 1.764.75 1.764 1.49 0 .896-.971 1.569-2.437 1.569-1.415 0-2.335-.614-2.6-1.79l-3.008.29c.383 2.403 2.403 3.827 5.616 3.827 3.273 0 5.583-1.696 5.591-4.177-.008-1.866-1.21-3.008-3.681-3.545l-2.233-.477c-1.33-.299-1.858-.759-1.85-1.517-.008-.887.972-1.5 2.259-1.5 1.423 0 2.173.775 2.412 1.636l2.812-.307zm9.362-3.46h-2.582v-3.136h-3.085v3.136h-1.858v2.386h1.858v7.279c-.017 2.463 1.772 3.673 4.091 3.605a6.207 6.207 0 0 0 1.815-.307l-.52-2.412c-.17.043-.52.12-.903.12-.776 0-1.398-.273-1.398-1.517v-6.767h2.582v-2.387z"/><path fill="#202124" d="M54.492 15.823l.972.973L53.3 18.96a.138.138 0 0 1-.195 0l-.777-.778a.138.138 0 0 1 0-.194l2.163-2.165z"/><circle r="4.4" fill="#FFDA2D" transform="matrix(-1 0 0 1 58.887 12.4)"/><path fill="#85B7FE" d="M520.643 154.035h-2.826a2.341 2.341 0 0 0-2.091 3.39l3.505 7.026 3.505-7.026a2.343 2.343 0 0 0-2.093-3.39zM508.834 163.034v2.832a2.339 2.339 0 0 0 3.384 2.096l7.013-3.511-7.013-3.514a2.337 2.337 0 0 0-3.384 2.097z"/><path fill="#fff" d="M270.854 237.243l.056-2.625c.026-1.199-.944-2.191-2.167-2.217a2.253 2.253 0 0 0-.997.209l-6.713 3.117 6.571 3.392c1.084.559 2.425.151 2.995-.911.16-.298.247-.628.255-.965z"/><path fill="#202124" d="M268.634 240.031c.288 0 .577-.042.86-.128a2.86 2.86 0 0 0 1.702-1.387c.208-.387.323-.822.333-1.259l.056-2.625a2.788 2.788 0 0 0-.803-2.02 2.898 2.898 0 0 0-2.024-.872 2.95 2.95 0 0 0-1.301.273l-6.713 3.116a.659.659 0 0 0-.385.583.66.66 0 0 0 .36.6l6.571 3.392c.422.217.881.327 1.344.327zm1.545-2.802a1.488 1.488 0 0 1-.177.671c-.192.357-.514.62-.908.739a1.56 1.56 0 0 1-1.176-.106l-5.377-2.775 5.494-2.55c.215-.101.452-.151.694-.146.411.009.794.174 1.079.465.285.291.436.674.428 1.077l-.057 2.625z"/><path fill="#fff" d="M262.574 226.099l-2.679-.055c-1.224-.021-2.234.934-2.256 2.135-.006.333.067.664.212.966l3.182 6.581 3.461-6.446a2.151 2.151 0 0 0-.936-2.933 2.258 2.258 0 0 0-.984-.248z"/><path fill="#202124" d="M261.033 236.388c.25 0 .48-.136.597-.354l3.461-6.446c.74-1.386.192-3.103-1.221-3.827a2.946 2.946 0 0 0-1.282-.323l-2.679-.055c-1.597-.027-2.917 1.221-2.945 2.784a2.8 2.8 0 0 0 .277 1.261l3.183 6.582a.674.674 0 0 0 .609.378zm-1.178-9.683h.028l2.676.055h.001c.237.005.474.064.685.172a1.5 1.5 0 0 1 .651 2.041l-2.832 5.275-2.604-5.386a1.5 1.5 0 0 1-.147-.672c.015-.824.704-1.485 1.542-1.485zm2.719-.606h-.003.003z"/><path fill="#85B7FE" d="M110.418 244.817l2.001-1.057a1.87 1.87 0 0 1 2.742 1.618l.132 6.281-5.096-3.661a1.874 1.874 0 0 1 .221-3.181zM122.127 246.771l1.054 2.003a1.877 1.877 0 0 1-1.616 2.749l-6.272.137 3.658-5.107a1.872 1.872 0 0 1 3.176.218z"/><path fill="#fff" d="M256.987 272.013l.248-2.119a8.047 8.047 0 0 0-1.218-5.295l-.74-1.161 17.381 2.073-.989.958a8.002 8.002 0 0 0-2.406 4.882l-.249 2.119a6.013 6.013 0 0 1-2.253 4.022 6.027 6.027 0 0 1-4.449 1.248h-.003a6.081 6.081 0 0 1-4.051-2.253 6.038 6.038 0 0 1-1.275-4.445l.004-.029z"/><path fill="#202124" d="M261.764 279.365a6.785 6.785 0 0 1-4.2-2.63 6.733 6.733 0 0 1-1.279-4.775l.003-.031.249-2.119a7.365 7.365 0 0 0-1.112-4.834l-.74-1.163a.705.705 0 0 1 .29-1.009.703.703 0 0 1 .386-.063l17.382 2.071a.711.711 0 0 1 .603.863.705.705 0 0 1-.193.339l-.99.958a7.324 7.324 0 0 0-2.198 4.456l-.25 2.123a6.703 6.703 0 0 1-2.513 4.489 6.745 6.745 0 0 1-4.965 1.396l-.007-.001a6.539 6.539 0 0 1-.466-.07zm-4.077-7.27l-.003.015a5.318 5.318 0 0 0 1.119 3.934 5.364 5.364 0 0 0 3.581 1.997l.01.001a5.318 5.318 0 0 0 5.922-4.657l.249-2.119a8.724 8.724 0 0 1 2.545-5.234l-14.442-1.722a8.78 8.78 0 0 1 1.268 5.668l-.249 2.117z"/><path fill="#202124" d="M260.949 289.681a.707.707 0 0 1-.571-.774l1.99-17.08a.69.69 0 0 1 .26-.476.7.7 0 0 1 .997.118.706.706 0 0 1 .143.524l-1.99 17.08a.702.702 0 0 1-.782.615l-.047-.007zM263.864 265.06a.702.702 0 0 1-.431-.265l-2.925-3.807a.697.697 0 0 1-.147-.522.698.698 0 0 1 .796-.608.718.718 0 0 1 .468.278l2.925 3.807c.087.113.137.25.145.391a.695.695 0 0 1-.417.677.7.7 0 0 1-.414.049z"/><path fill="#202124" d="M263.862 265.059a.706.706 0 0 1-.572-.77l.507-4.548a.693.693 0 0 1 .257-.477.71.71 0 0 1 .521-.151.699.699 0 0 1 .601.511.69.69 0 0 1 .02.275l-.314 2.826 2.32-1.907a.701.701 0 0 1 .991.096.703.703 0 0 1-.093.988l-3.661 3.009a.709.709 0 0 1-.577.148z"/><path fill="#82B1FF" d="M461.862 148.853l2.113-.49a1.791 1.791 0 0 1 2.147 2.169l-1.41 5.853-3.83-4.637a1.798 1.798 0 0 1 .98-2.895zM472.236 153.527l.487 2.113a1.796 1.796 0 0 1-2.168 2.152l-5.844-1.404 4.635-3.839a1.794 1.794 0 0 1 2.89.978zM279.74 48.947l.953 3.156c.166.548.595.977 1.143 1.143l3.151.956a.39.39 0 0 1 0 .745l-3.151.955a1.712 1.712 0 0 0-1.143 1.143l-.953 3.156a.388.388 0 0 1-.745 0l-.954-3.156a1.71 1.71 0 0 0-1.142-1.143l-3.151-.955a.39.39 0 0 1 0-.745l3.151-.956a1.71 1.71 0 0 0 1.142-1.143l.954-3.156a.388.388 0 0 1 .745 0zM311.963.391l1.334 4.418a2.396 2.396 0 0 0 1.6 1.6l4.412 1.338a.545.545 0 0 1 0 1.043l-4.412 1.338a2.396 2.396 0 0 0-1.6 1.6l-1.334 4.418a.544.544 0 0 1-1.044 0l-1.336-4.418a2.39 2.39 0 0 0-1.598-1.6l-4.411-1.338a.546.546 0 0 1 0-1.043l4.411-1.337a2.39 2.39 0 0 0 1.598-1.6L310.919.39a.544.544 0 0 1 1.044 0z"/><path fill="#85B7FE" d="M17.435 49.374l.8 2.651c.14.46.5.821.96.96l2.647.803a.327.327 0 0 1 0 .626l-2.647.802c-.46.14-.82.5-.96.96l-.8 2.651a.326.326 0 0 1-.627 0l-.801-2.65a1.434 1.434 0 0 0-.959-.96l-2.647-.803a.327.327 0 0 1 0-.626l2.647-.803c.46-.139.82-.499.959-.96l.801-2.65a.326.326 0 0 1 .627 0z"/><path fill="#202124" d="M201.51 314.685a.742.742 0 0 1-.732-.647l-7.262-54.956a.74.74 0 0 1 1.466-.197l7.262 54.956a.744.744 0 0 1-.734.844z"/><path fill="#85B7FE" d="M194.25 265.653c3.656 0 6.62-2.986 6.62-6.67 0-3.683-2.964-6.669-6.62-6.669-3.657 0-6.621 2.986-6.621 6.669 0 3.684 2.964 6.67 6.621 6.67z"/><path fill="#fff" d="M178.491 273.601c2.05 0 3.712-1.646 3.712-3.677 0-2.03-1.662-3.676-3.712-3.676-2.05 0-3.712 1.646-3.712 3.676 0 2.031 1.662 3.677 3.712 3.677z"/><path fill="#202124" d="M178.491 274.303a4.445 4.445 0 0 1-2.456-.738 4.383 4.383 0 0 1-1.628-1.965 4.342 4.342 0 0 1 .958-4.772 4.43 4.43 0 0 1 2.264-1.199 4.463 4.463 0 0 1 2.554.249 4.417 4.417 0 0 1 1.984 1.613c.486.72.745 1.567.745 2.433a4.36 4.36 0 0 1-1.296 3.095 4.447 4.447 0 0 1-3.125 1.284zm0-7.353c-.594 0-1.174.174-1.668.501a2.955 2.955 0 0 0-.455 4.576 3.028 3.028 0 0 0 3.272.645 2.966 2.966 0 0 0 1.854-2.748 2.965 2.965 0 0 0-.881-2.102 3.023 3.023 0 0 0-2.122-.872z"/><path fill="#fff" d="M167.214 277.231c1.619 0 2.932-1.3 2.932-2.904 0-1.604-1.313-2.904-2.932-2.904s-2.931 1.3-2.931 2.904c0 1.604 1.312 2.904 2.931 2.904z"/><path fill="#202124" d="M167.214 277.933c-.72 0-1.424-.211-2.022-.608a3.606 3.606 0 0 1-1.341-1.618 3.568 3.568 0 0 1-.207-2.084c.14-.699.487-1.342.996-1.846a3.646 3.646 0 0 1 1.864-.987 3.676 3.676 0 0 1 2.104.205 3.635 3.635 0 0 1 1.634 1.328c.4.593.613 1.291.613 2.004a3.595 3.595 0 0 1-1.067 2.549 3.664 3.664 0 0 1-2.574 1.057zm0-5.807c-.439 0-.869.129-1.234.371a2.183 2.183 0 0 0-.337 3.386 2.23 2.23 0 0 0 2.422.478 2.22 2.22 0 0 0 .997-.811 2.19 2.19 0 0 0 .375-1.223 2.194 2.194 0 0 0-.652-1.556 2.231 2.231 0 0 0-1.571-.645zM173.006 289.643a.722.722 0 0 1-.566-.28.702.702 0 0 1-.116-.616l5.485-19.016a.699.699 0 0 1 .336-.426.72.72 0 0 1 .969.275.695.695 0 0 1 .059.537l-5.485 19.016a.705.705 0 0 1-.682.51z"/><path fill="#202124" d="M173.006 289.642a.71.71 0 0 1-.66-.444l-5.792-14.613a.705.705 0 0 1 .4-.912.708.708 0 0 1 .92.396l5.792 14.613a.69.69 0 0 1-.073.653.711.711 0 0 1-.586.307h-.001zM412.737 291.144a.76.76 0 0 1-.418-.847l2.839-12.914a.737.737 0 0 1 .331-.473.75.75 0 0 1 .57-.099.762.762 0 0 1 .577.902l-2.84 12.914a.75.75 0 0 1-1.059.517z"/><path fill="#fff" d="M415.072 277.263a3.945 3.945 0 0 0 5.261-1.882c.926-1.972.071-4.328-1.908-5.261-1.98-.933-4.336-.091-5.261 1.882a3.961 3.961 0 0 0 1.908 5.261z"/><path fill="#202124" d="M414.749 277.945a4.738 4.738 0 0 1-2.035-1.834 4.71 4.71 0 0 1-.676-2.65 4.68 4.68 0 0 1 3.102-4.2 4.716 4.716 0 0 1 2.733-.134 4.729 4.729 0 0 1 3.534 3.874 4.686 4.686 0 0 1-.39 2.702 4.686 4.686 0 0 1-2.664 2.417 4.728 4.728 0 0 1-3.604-.175zm3.354-7.143a3.21 3.21 0 0 0-1.839-.272 3.187 3.187 0 0 0-2.626 2.385 3.209 3.209 0 0 0 1.213 3.343 3.213 3.213 0 0 0 3.553.175 3.185 3.185 0 0 0 1.243-1.375 3.199 3.199 0 0 0 .108-2.443 3.223 3.223 0 0 0-1.652-1.813z"/><path fill="#fff" d="M125.619 289.415l-5.387-9.635a2.337 2.337 0 0 1 1.344-3.366 2.334 2.334 0 0 1 2.695 1.051l2.494 4.261-.058-6.279a2.1 2.1 0 0 1 2.088-2.114h.011a2.102 2.102 0 0 1 2.1 2.012l.262 6.773 2.12-3.254a2.099 2.099 0 0 1 2.777-.679l.277.156a2.103 2.103 0 0 1 .796 2.85l-4.657 8.224"/><path fill="#202124" d="M125.62 290.116a.7.7 0 0 1-.612-.359l-5.387-9.635a3.02 3.02 0 0 1-.268-2.31 3.017 3.017 0 0 1 2.014-2.067 3.023 3.023 0 0 1 3.507 1.366l1.166 1.992-.034-3.649a2.806 2.806 0 0 1 2.784-2.821h.003a2.798 2.798 0 0 1 2.812 2.681l.177 4.579.92-1.412a2.809 2.809 0 0 1 3.703-.908l.28.158a2.814 2.814 0 0 1 1.064 3.801l-4.659 8.228a.7.7 0 1 1-1.218-.691l4.657-8.224a1.406 1.406 0 0 0-.533-1.895l-.274-.155a1.404 1.404 0 0 0-1.849.455l-2.119 3.251a.701.701 0 0 1-1.286-.356l-.261-6.774a1.398 1.398 0 0 0-1.399-1.337h-.001a1.406 1.406 0 0 0-1.401 1.409l.059 6.276a.702.702 0 0 1-1.304.361l-2.495-4.261a1.627 1.627 0 0 0-2.19-.604 1.624 1.624 0 0 0-.776.981c-.12.42-.069.862.143 1.243l5.387 9.633a.702.702 0 0 1-.61 1.044z"/><path fill="#fff" d="M386.026 243.547a2.956 2.956 0 0 1 3.853 1.589l.002.004a2.93 2.93 0 0 1 1.591-3.841 2.961 2.961 0 0 1 3.858 1.595l5.78 13.74.198-14.882a2.935 2.935 0 0 1 3.026-2.85 2.951 2.951 0 0 1 2.869 2.928 2.934 2.934 0 0 1 2.942-2.936 2.952 2.952 0 0 1 2.954 2.939v.073l-.02 1.957-.136 13.202a11.784 11.784 0 0 1-7.147 10.709l.016.033c-1.542.625-3.193.94-4.859.929l.006-.036a11.9 11.9 0 0 1-10.658-7.3l-5.094-12.2-.756-1.809a2.925 2.925 0 0 1 1.57-3.841l.005-.003z"/><path fill="#202124" d="M399.385 269.247c.437.066.879.11 1.326.131a.69.69 0 0 0 .24.044 13.33 13.33 0 0 0 5.122-.979.674.674 0 0 0 .205-.13 12.48 12.48 0 0 0 7.354-11.239l.157-15.24a3.648 3.648 0 0 0-3.645-3.627 3.628 3.628 0 0 0-2.944 1.502 3.64 3.64 0 0 0-2.847-1.493 3.623 3.623 0 0 0-3.733 3.515l-.155 11.596-4.499-10.697a3.658 3.658 0 0 0-4.759-1.966 3.62 3.62 0 0 0-2.144 2.514 3.624 3.624 0 0 0-.52-.264 3.62 3.62 0 0 0-2.782-.001l-.007.003-.003.002a3.618 3.618 0 0 0-1.935 4.738l5.85 14.007a12.603 12.603 0 0 0 9.719 7.584zm1.677-1.226a.809.809 0 0 0-.086-.007 11.222 11.222 0 0 1-10.039-6.876l-5.85-14.01a2.243 2.243 0 0 1 1.202-2.945l-.263-.636.265.635a2.246 2.246 0 0 1 1.728 0c.556.229.991.66 1.223 1.214l.003.006a.69.69 0 0 0 .899.373.685.685 0 0 0 .372-.897 2.25 2.25 0 0 1 1.22-2.945 2.272 2.272 0 0 1 2.958 1.223l5.781 13.742c.126.3.446.471.767.41a.686.686 0 0 0 .557-.664l.198-14.881c.016-.592.266-1.15.704-1.563a2.245 2.245 0 0 1 1.615-.612 2.252 2.252 0 0 1 2.198 2.244.69.69 0 0 0 1.378-.001 2.251 2.251 0 0 1 2.255-2.251 2.266 2.266 0 0 1 2.264 2.253l-.02 2.022-.137 13.202a11.112 11.112 0 0 1-6.732 10.088.711.711 0 0 0-.173.106 11.956 11.956 0 0 1-4.173.799.635.635 0 0 0-.114-.029z"/><path fill="#202124" d="M394.151 256.278c.12.018.246.005.366-.045a.684.684 0 0 0 .372-.896l-4.457-10.675a.692.692 0 0 0-.901-.372.685.685 0 0 0-.372.897l4.457 10.674a.692.692 0 0 0 .535.417zM410.488 306.064a.684.684 0 0 0 .779-.809l-8.187-41.972a.692.692 0 0 0-.808-.545.685.685 0 0 0-.545.804l8.187 41.972a.692.692 0 0 0 .574.55zM406.974 253.815a.687.687 0 0 0 .793-.67l.123-11.553a.69.69 0 0 0-1.379-.018l-.123 11.553a.691.691 0 0 0 .586.688z"/><path fill="#202124" d="M403.311 269.187a.685.685 0 0 0 .779-.809l-2.318-11.874a.69.69 0 0 0-1.353.258l2.318 11.875a.692.692 0 0 0 .574.55z"/></svg>