<svg width="15" height="9" viewBox="0 0 15 9" fill="none" xmlns="http://www.w3.org/2000/svg">
<path d="M7.21591 4.36364C7.21591 2.01278 5.78125 0.627841 3.87429 0.627841C1.96378 0.627841 0.53267 2.01278 0.53267 4.36364C0.53267 6.71094 1.96378 8.09943 3.87429 8.09943C5.78125 8.09943 7.21591 6.71449 7.21591 4.36364ZM5.89134 4.36364C5.89134 6.01847 5.06037 6.9169 3.87429 6.9169C2.69176 6.9169 1.85724 6.01847 1.85724 4.36364C1.85724 2.70881 2.69176 1.81037 3.87429 1.81037C5.06037 1.81037 5.89134 2.70881 5.89134 4.36364ZM8.46147 8H9.77894V5.33665H11.1213L12.5488 8H14.019L12.4458 5.11648C13.3017 4.77202 13.7527 4.04048 13.7527 3.05327C13.7527 1.66477 12.8578 0.727273 11.1887 0.727273H8.46147V8ZM9.77894 4.2429V1.82812H10.9863C11.97 1.82812 12.4103 2.27912 12.4103 3.05327C12.4103 3.82741 11.97 4.2429 10.9934 4.2429H9.77894Z" fill="#BDC1C6"/>
</svg>
