<svg width="5" height="20" viewBox="0 0 5 20" fill="none" xmlns="http://www.w3.org/2000/svg">
<path d="M2.19992 4.40001C3.23085 4.40001 4.06658 3.56427 4.06658 2.53334C4.06658 1.50241 3.23085 0.666672 2.19992 0.666672C1.16899 0.666672 0.333252 1.50241 0.333252 2.53334C0.333252 3.56427 1.16899 4.40001 2.19992 4.40001Z" fill="#202124"/>
<path d="M4.06658 10C4.06658 11.0309 3.23085 11.8667 2.19992 11.8667C1.16899 11.8667 0.333252 11.0309 0.333252 10C0.333252 8.96907 1.16899 8.13334 2.19992 8.13334C3.23085 8.13334 4.06658 8.96907 4.06658 10Z" fill="#202124"/>
<path d="M4.06658 17.4667C4.06658 18.4976 3.23085 19.3333 2.19992 19.3333C1.16899 19.3333 0.333252 18.4976 0.333252 17.4667C0.333252 16.4357 1.16899 15.6 2.19992 15.6C3.23085 15.6 4.06658 16.4357 4.06658 17.4667Z" fill="#202124"/>
</svg>
