<svg width="9" height="12" viewBox="0 0 9 12" fill="none" xmlns="http://www.w3.org/2000/svg">
<path d="M1.03015 0.469151C1.00642 0.206117 0.785343 0 0.516129 0C0.231079 0 0 0.231079 0 0.516129V11.4839L0.00210925 11.5308C0.025842 11.7939 0.246915 12 0.516129 12C0.801179 12 1.03226 11.7689 1.03226 11.4839V0.516129L1.03015 0.469151Z" fill="#202124"/>
<path d="M8.15918 0.469151C8.13545 0.206117 7.91438 0 7.64516 0C7.36011 0 7.12903 0.231079 7.12903 0.516129V11.4839L7.13114 11.5308C7.15487 11.7939 7.37595 12 7.64516 12C7.93021 12 8.16129 11.7689 8.16129 11.4839V0.516129L8.15918 0.469151Z" fill="#202124"/>
</svg>
