<svg width="14" height="13" viewBox="0 0 14 13" fill="none" xmlns="http://www.w3.org/2000/svg">
<path d="M1.5 0C0.675781 0 0 0.675781 0 1.5V9.5C0 10.3242 0.675781 11 1.5 11H3V11.5C3 12.3242 3.67578 13 4.5 13H12.5C13.3242 13 14 12.3242 14 11.5V3.5C14 2.67578 13.3242 2 12.5 2H11V1.5C11 0.675781 10.3242 0 9.5 0H1.5ZM1.5 1H9.5C9.78125 1 10 1.21875 10 1.5V9.5C10 9.78125 9.78125 10 9.5 10H1.5C1.21875 10 1 9.78125 1 9.5V1.5C1 1.21875 1.21875 1 1.5 1ZM5.55859 2.00391C4.34766 2.07031 3.35938 3.08594 3.35938 4.32031H4.35938C4.35938 3.50781 5.0625 2.875 5.91797 3.02344C6.53516 3.12891 7.01953 3.73047 7 4.35938C6.98438 4.91797 6.66016 5.26953 6.18359 5.47656H6.17969C5.88672 5.60938 5.60547 5.73438 5.36719 5.98438C5.12891 6.23438 5 6.60547 5 7H6C6 6.77734 6.02734 6.74219 6.08984 6.67578C6.15234 6.60938 6.3125 6.51562 6.58594 6.39453C7.33203 6.06641 7.96875 5.35547 8 4.39062C8.03125 3.25391 7.21875 2.23047 6.08984 2.03516C5.91016 2.00391 5.73047 1.99609 5.55859 2.00391ZM11 3H12.5C12.7812 3 13 3.21875 13 3.5V11.5C13 11.7812 12.7812 12 12.5 12H4.5C4.21875 12 4 11.7812 4 11.5V11H9.5C10.3242 11 11 10.3242 11 9.5V3ZM5 8V9H6V8H5Z" fill="#9AA0A6"/>
</svg>
