<svg width="14" height="14" viewBox="0 0 14 14" fill="none" xmlns="http://www.w3.org/2000/svg">
<path fill-rule="evenodd" clip-rule="evenodd" d="M6.29765 0.799999C3.26141 0.799999 0.800049 3.26793 0.800049 6.31228C0.800049 9.35663 3.26141 11.8246 6.29765 11.8246C7.62542 11.8246 8.84326 11.3526 9.79338 10.5669L12.3422 13.0911L12.3802 13.1254C12.5895 13.2964 12.898 13.283 13.0916 13.0865C13.2973 12.8777 13.2952 12.5413 13.087 12.3351L10.5426 9.81529C11.3252 8.86292 11.7952 7.64264 11.7952 6.31228C11.7952 3.26793 9.33389 0.799999 6.29765 0.799999ZM6.29765 1.86261C8.74859 1.86261 10.7355 3.85479 10.7355 6.31228C10.7355 8.76977 8.74859 10.762 6.29765 10.762C3.84671 10.762 1.85983 8.76977 1.85983 6.31228C1.85983 3.85479 3.84671 1.86261 6.29765 1.86261Z" fill="#BDC1C6"/>
</svg>
