<svg width="30" height="30" viewBox="0 0 30 30" fill="none" xmlns="http://www.w3.org/2000/svg">
<rect width="30" height="30" rx="4" fill="white"/>
<path fill-rule="evenodd" clip-rule="evenodd" d="M14.2984 8.80078C11.2621 8.80078 8.80078 11.2687 8.80078 14.3131C8.80078 17.3574 11.2621 19.8253 14.2984 19.8253C15.6262 19.8253 16.844 19.3534 17.7941 18.5676L20.343 21.0919L20.381 21.1262C20.5902 21.2972 20.8988 21.2838 21.0923 21.0873C21.298 20.8785 21.2959 20.5421 21.0877 20.3359L18.5433 17.8161C19.326 16.8637 19.796 15.6434 19.796 14.3131C19.796 11.2687 17.3346 8.80078 14.2984 8.80078ZM14.2984 9.86339C16.7493 9.86339 18.7362 11.8556 18.7362 14.3131C18.7362 16.7706 16.7493 18.7627 14.2984 18.7627C11.8474 18.7627 9.86056 16.7706 9.86056 14.3131C9.86056 11.8556 11.8474 9.86339 14.2984 9.86339Z" fill="#202124"/>
</svg>
