<svg width="14" height="14" viewBox="0 0 14 14" fill="none" xmlns="http://www.w3.org/2000/svg">
<path fill-rule="evenodd" clip-rule="evenodd" d="M6.29838 0.799805C3.26214 0.799805 0.800781 3.26774 0.800781 6.31209C0.800781 9.35644 3.26214 11.8244 6.29838 11.8244C7.62615 11.8244 8.84399 11.3524 9.79412 10.5667L12.343 13.0909L12.381 13.1252C12.5902 13.2962 12.8988 13.2828 13.0923 13.0863C13.298 12.8775 13.2959 12.5411 13.0877 12.3349L10.5433 9.81509C11.326 8.86273 11.796 7.64244 11.796 6.31209C11.796 3.26774 9.33462 0.799805 6.29838 0.799805ZM6.29838 1.86241C8.74932 1.86241 10.7362 3.8546 10.7362 6.31209C10.7362 8.76957 8.74932 10.7618 6.29838 10.7618C3.84744 10.7618 1.86056 8.76957 1.86056 6.31209C1.86056 3.8546 3.84744 1.86241 6.29838 1.86241Z" fill="#202124"/>
</svg>
