<svg width="14" height="14" viewBox="0 0 14 14" fill="none" xmlns="http://www.w3.org/2000/svg">
<path fill-rule="evenodd" clip-rule="evenodd" d="M6.29759 0.800049C3.26135 0.800049 0.799988 3.26798 0.799988 6.31233C0.799988 9.35668 3.26135 11.8246 6.29759 11.8246C7.62536 11.8246 8.84319 11.3526 9.79332 10.5669L12.3422 13.0912L12.3802 13.1254C12.5894 13.2964 12.898 13.283 13.0915 13.0865C13.2972 12.8778 13.2951 12.5414 13.0869 12.3352L10.5425 9.81534C11.3252 8.86297 11.7952 7.64269 11.7952 6.31233C11.7952 3.26798 9.33383 0.800049 6.29759 0.800049ZM6.29759 1.86266C8.74853 1.86266 10.7354 3.85484 10.7354 6.31233C10.7354 8.76982 8.74853 10.762 6.29759 10.762C3.84665 10.762 1.85977 8.76982 1.85977 6.31233C1.85977 3.85484 3.84665 1.86266 6.29759 1.86266Z" fill="#BDC1C6"/>
</svg>
