<svg width="11" height="12" viewBox="0 0 11 12" fill="none" xmlns="http://www.w3.org/2000/svg">
<path fill-rule="evenodd" clip-rule="evenodd" d="M5.76132 2.25514C5.76132 1.00966 6.77098 0 8.01646 0C9.26194 0 10.2716 1.00966 10.2716 2.25514C10.2716 3.50063 9.26194 4.51029 8.01646 4.51029C7.42747 4.51029 6.89122 4.28449 6.48954 3.91474L4.37031 5.50416C4.46083 5.74832 4.51029 6.01242 4.51029 6.28807C4.51029 6.55509 4.46388 6.81127 4.37869 7.04898L6.47614 8.0977C6.87925 7.72058 7.42089 7.48971 8.01646 7.48971C9.26194 7.48971 10.2716 8.49937 10.2716 9.74486C10.2716 10.9903 9.26194 12 8.01646 12C6.77098 12 5.76132 10.9903 5.76132 9.74486C5.76132 9.47784 5.80772 9.22165 5.89291 8.98394L3.79547 7.93522C3.39236 8.31234 2.85071 8.54321 2.25514 8.54321C1.00966 8.54321 0 7.53355 0 6.28807C0 5.04258 1.00966 4.03292 2.25514 4.03292C2.84413 4.03292 3.38039 4.25872 3.78206 4.62847L5.90129 3.03905C5.81077 2.79489 5.76132 2.53079 5.76132 2.25514ZM9.21811 2.25514C9.21811 1.59149 8.68011 1.0535 8.01646 1.0535C7.35281 1.0535 6.81481 1.59149 6.81481 2.25514C6.81481 2.91879 7.35281 3.45679 8.01646 3.45679C8.68011 3.45679 9.21811 2.91879 9.21811 2.25514ZM3.45679 6.28807C3.45679 5.62441 2.91879 5.08642 2.25514 5.08642C1.59149 5.08642 1.0535 5.62441 1.0535 6.28807C1.0535 6.95172 1.59149 7.48971 2.25514 7.48971C2.91879 7.48971 3.45679 6.95172 3.45679 6.28807ZM8.01646 8.54321C8.68011 8.54321 9.21811 9.08121 9.21811 9.74486C9.21811 10.4085 8.68011 10.9465 8.01646 10.9465C7.35281 10.9465 6.81481 10.4085 6.81481 9.74486C6.81481 9.08121 7.35281 8.54321 8.01646 8.54321Z" fill="#803C25"/>
</svg>
