<svg width="8" height="10" viewBox="0 0 8 10" fill="none" xmlns="http://www.w3.org/2000/svg">
<path d="M3.99993 0.200001C3.89763 0.200001 3.79532 0.238988 3.71712 0.317188L0.517118 3.51719C0.402718 3.63159 0.368399 3.80353 0.430399 3.95313C0.491999 4.10273 0.63833 4.2 0.79993 4.2H7.19993C7.36153 4.2 7.50786 4.10273 7.56946 3.95313C7.63146 3.80353 7.59714 3.63159 7.48274 3.51719L4.28274 0.317188C4.20454 0.238988 4.10223 0.200001 3.99993 0.200001ZM0.79993 5.8C0.63833 5.8 0.491999 5.89727 0.430399 6.04688C0.368399 6.19648 0.402718 6.36841 0.517118 6.48281L3.71712 9.68281C3.79512 9.76081 3.89753 9.8 3.99993 9.8C4.10233 9.8 4.20474 9.76081 4.28274 9.68281L7.48274 6.48281C7.59714 6.36841 7.63146 6.19648 7.56946 6.04688C7.50786 5.89728 7.36153 5.8 7.19993 5.8H0.79993Z" fill="#8A959F"/>
</svg>
