<svg width="16" height="16" viewBox="0 0 16 16" fill="none" xmlns="http://www.w3.org/2000/svg">
<path d="M8 1.5C4.41797 1.5 1.5 4.41413 1.5 7.99804C1.5 8.26628 1.71686 8.48373 1.98438 8.48373H2.01562C2.28314 8.48373 2.5 8.26628 2.5 7.99804C2.5 4.95857 4.95703 2.50271 8 2.50271C9.63281 2.50271 11.0898 3.21949 12.0938 4.34754L11.3077 5.133C11.1814 5.25924 11.2705 5.4756 11.4489 5.4756H14.3C14.4105 5.4756 14.5 5.38581 14.5 5.27505V2.42518C14.5 2.24674 14.285 2.15717 14.1589 2.28305L12.8008 3.6386C11.6133 2.33037 9.90625 1.5 8 1.5ZM14 7.48102C13.7239 7.48102 13.5 7.70548 13.5 7.98237C13.5 11.0336 11.043 13.4973 8 13.4973C6.35938 13.4973 4.90234 12.7727 3.89453 11.6329L4.69373 10.8315C4.81973 10.7052 4.73049 10.4892 4.55231 10.4892H1.7C1.58954 10.4892 1.5 10.5789 1.5 10.6897V13.5497C1.5 13.7284 1.71543 13.8179 1.84142 13.6915L3.1875 12.3418C4.37891 13.6618 6.08984 14.5 8 14.5C11.5859 14.5 14.5 11.578 14.5 7.98237C14.5 7.70548 14.2761 7.48102 14 7.48102Z" fill="#202124"/>
</svg>
