<svg width="30" height="39" viewBox="0 0 30 39" fill="none" xmlns="http://www.w3.org/2000/svg">
<path d="M30 10.8333V36.8333C30 38.0304 29.0411 39 27.8571 39H2.14286C0.958929 39 0 38.0304 0 36.8333V2.16667C0 0.969583 0.958929 0 2.14286 0H19.2857L30 10.8333Z" fill="#BDC1C6"/>
<path d="M19 0V8.8C19 10.0155 19.9845 11 21.2 11H30L19 0Z" fill="#9AA0A6"/>
<path d="M7.39773 18.8317H9.6456V25H10.9524V18.8317H13.2003V17.7273H7.39773V18.8317ZM14.9128 19.5455H13.5492L15.1685 22.2727L13.5066 25H14.8702L16.0137 23.0362L17.1678 25H18.5208L16.8482 22.2727L18.4924 19.5455H17.1323L16.0137 21.5589L14.9128 19.5455ZM22.2104 19.5455H21.1344V18.2386H19.8489V19.5455H19.0748V20.5398H19.8489V23.5724C19.8418 24.5987 20.5875 25.103 21.5534 25.0746C21.9192 25.0639 22.1713 24.9929 22.3098 24.9467L22.0932 23.9418C22.0222 23.9595 21.8766 23.9915 21.7168 23.9915C21.3936 23.9915 21.1344 23.8778 21.1344 23.3594V20.5398H22.2104V19.5455Z" fill="white"/>
</svg>
