<svg width="13" height="13" viewBox="0 0 13 13" fill="none" xmlns="http://www.w3.org/2000/svg">
<path d="M1.5 0C0.675781 0 0 0.675781 0 1.5V11.5C0 12.3242 0.675781 13 1.5 13H11.5C12.3242 13 13 12.3242 13 11.5V1.5C13 0.675781 12.3242 0 11.5 0H1.5ZM1.5 1H11.5C11.7812 1 12 1.21875 12 1.5V11.5C12 11.7812 11.7812 12 11.5 12H1.5C1.21875 12 1 11.7812 1 11.5V1.5C1 1.21875 1.21875 1 1.5 1ZM3.35156 4.57031L2.64844 5.27734L6.5 9.12891L10.3555 5.27734L9.64453 4.57031L6.5 7.71875L3.35156 4.57031Z" fill="#8A959F"/>
</svg>
