<svg xmlns="http://www.w3.org/2000/svg" width="30" height="19" viewBox="0 0 30 19">
    <g fill="none" fill-rule="evenodd">
        <path fill="#FF5E00" d="M20.902 0C25.927 0 30 4.11 30 9.18c0 5.069-4.073 9.178-9.098 9.178-2.252 0-4.313-.825-5.902-2.193-1.588 1.367-3.65 2.193-5.902 2.193C4.073 18.358 0 14.248 0 9.18 0 4.11 4.073 0 9.098 0c2.253 0 4.314.826 5.903 2.194C16.589.825 18.65 0 20.901 0z"/>
        <path fill="#ED0006" d="M9.098 0c2.253 0 4.314.826 5.903 2.194-1.957 1.682-3.198 4.188-3.198 6.985 0 2.798 1.24 5.303 3.197 6.986-1.588 1.367-3.65 2.193-5.902 2.193C4.073 18.358 0 14.248 0 9.18 0 4.11 4.073 0 9.098 0z"/>
        <path fill="#F9A000" d="M20.902 0C25.927 0 30 4.11 30 9.18c0 5.069-4.073 9.178-9.098 9.178-2.253 0-4.314-.825-5.903-2.193 1.957-1.684 3.198-4.189 3.198-6.986 0-2.797-1.24-5.302-3.196-6.986C16.588.826 18.649 0 20.9 0z"/>
    </g>
</svg>
